<?xml version="1.0" encoding="utf-8"?>
<!-- Generator: Adobe Illustrator 16.0.4, SVG Export Plug-In . SVG Version: 6.00 Build 0)  -->
<!DOCTYPE svg PUBLIC "-//W3C//DTD SVG 1.1//EN" "http://www.w3.org/Graphics/SVG/1.1/DTD/svg11.dtd">
<svg version="1.1" id="Layer_1" xmlns="http://www.w3.org/2000/svg" xmlns:xlink="http://www.w3.org/1999/xlink" x="0px" y="0px"
	 width="100px" height="100px" viewBox="0 0 100 100" enable-background="new 0 0 100 100" xml:space="preserve">
<path display="none" fill="#FF0000" d="M17,52.5c0,12.15,9.975,24.125,22.125,24.125c12.15,0,19-8.1,19-20.25
	c0-12.15-8.35-24.25-20.5-24.25S17,40.35,17,52.5z"/>
<path fill="#FF0000" d="M11.108,16.337"/>
<g>
	<g>
		<path fill="#FF0000" d="M12.216,14.974"/>
	</g>
</g>
<g>
	<g>
		<line fill="none" x1="27.713" y1="5.27" x2="15.051" y2="12.552"/>
	</g>
</g>
<path fill="#BBBBBB" d="M83.505,99.654c0,0,3.136,1.162,6.62-0.774s2.064-5.163,2.064-5.163l-42.146-58.94l-6.258,4.474
	L83.505,99.654z"/>
<path fill="#DDDDDD" d="M47.108,0.84c-0.771,0-1.516,0.049-2.247,0.127L29.939,4.668l-8.923,5.015
	c1.348-0.281,2.763-0.443,4.251-0.443c4.897,0,9.431,2.314,12.766,6.518c3.098,3.903,4.873,9.105,4.873,14.274
	c0,4.945-1.341,9.014-3.76,11.983c0,0,15.221-9.782,17.138-10.822c4.472-2.43,6.958-6.701,6.958-12.396
	C63.245,8.223,56.607,0.84,47.108,0.84z"/>
<path fill="#DDDDDD" d="M25.268,10.08c-2.906,0-5.526,0.57-7.8,1.598l-2.21,1.241l-0.014-0.024c-4.313,2.867-6.88,7.752-6.88,13.881
	c0,10.385,8.658,19.845,18.165,19.845c9.729,0,15.54-6.201,15.54-16.59C42.067,17.707,33.348,10.08,25.268,10.08z"/>
<path fill="#FFFFFF" d="M64.084,18.795C64.084,7.729,57.102,0,47.108,0c-0.635,0-1.257,0.031-1.869,0.084l-0.511,0.051
	c-1.783,0.199-3.454,0.622-4.988,1.243l-10.164,2.53l-14.73,8.278l0.014,0.025c-4.562,3.04-7.336,8.208-7.336,14.564
	c0,10.825,9.058,20.684,19.005,20.684c3.91,0,7.237-1.009,9.858-2.857l19.829-12.428C61.256,29.666,64.084,25.05,64.084,18.795z
	 M26.529,46.621c-9.508,0-18.165-9.458-18.165-19.845c0-6.128,2.567-11.014,6.88-13.88l0.014,0.024l2.21-1.242
	c2.276-1.026,4.896-1.596,7.8-1.596c8.08,0,16.8,7.627,16.8,19.949C42.067,40.418,36.258,46.621,26.529,46.621z M39.148,42.015
	c2.418-2.97,3.759-7.039,3.759-11.984c0-5.167-1.776-10.37-4.873-14.273c-3.336-4.203-7.869-6.517-12.767-6.517
	c-1.488,0-2.904,0.161-4.251,0.442l8.923-5.015l14.921-3.7c0.731-0.078,1.476-0.127,2.248-0.127c9.5,0,16.136,7.383,16.136,17.956
	c0,5.696-2.486,9.966-6.958,12.396C54.369,32.233,39.148,42.015,39.148,42.015z"/>
<path fill="#FFFFFF" d="M37.028,2.52c-3.198,0-6.097,0.683-8.584,1.917c0.594,0.046,1.199,0.067,1.846,0.074
	c2.019-0.746,4.278-1.15,6.739-1.15c8.427,0,17.769,8.179,17.769,19.916c0,5.019-1.848,9.258-4.946,11.79c0,0.373,0,0.373,0,0.744
	c4.13-2.655,5.787-6.918,5.787-12.535C55.639,12.219,46.966,2.52,37.028,2.52z"/>
</svg>
