<?xml version="1.0" encoding="utf-8"?>
<!-- Generator: Adobe Illustrator 16.0.4, SVG Export Plug-In . SVG Version: 6.00 Build 0)  -->
<!DOCTYPE svg PUBLIC "-//W3C//DTD SVG 1.1//EN" "http://www.w3.org/Graphics/SVG/1.1/DTD/svg11.dtd">
<svg version="1.1" id="Layer_1" xmlns="http://www.w3.org/2000/svg" xmlns:xlink="http://www.w3.org/1999/xlink" x="0px" y="0px"
	 width="100px" height="100px" viewBox="0 0 100 100" enable-background="new 0 0 100 100" xml:space="preserve">
<path fill="#BBBBBB" d="M98.113,64.383V41.896l-3.773,0.317l0,0V29.485h-3.773V18.164h-3.773v7.548H83.02v1.879l-1.258,0.396
	l-1.102,46.78h-1.415V13.281l-0.784-2.664H76.26l-1.102-3.773h-7.234v3.773H64.15v66.188l-8.256-0.158l-2.003-35.061l-8.608,0.155
	v10.384l0,0h-7.547V25.712h-2.042L18.868,49.443v27.518l-3.774-0.159L15,60.167h-3.679V44.579H8.808l0.026,18.868H7.547v7.547l0,0
	H3.773v7.547H0v14.615l100-0.667c0-9.467,0-18.93,0-28.397L98.113,64.383z"/>
<polygon fill="#BBBBBB" points="53,30 52.833,30 53,32.414 53,32.331 "/>
</svg>
