<?xml version="1.0" encoding="utf-8"?>
<!-- Generator: Adobe Illustrator 16.0.4, SVG Export Plug-In . SVG Version: 6.00 Build 0)  -->
<!DOCTYPE svg PUBLIC "-//W3C//DTD SVG 1.1//EN" "http://www.w3.org/Graphics/SVG/1.1/DTD/svg11.dtd">
<svg version="1.1" id="Layer_1" xmlns="http://www.w3.org/2000/svg" xmlns:xlink="http://www.w3.org/1999/xlink" x="0px" y="0px"
	 width="100px" height="100px" viewBox="0 0 100 100" enable-background="new 0 0 100 100" xml:space="preserve">
<path fill="#BBBBBB" d="M23.97,91c-0.045,0,0-0.014,0.873-6.84c0.131-1.029,0.229-1.837,0.24-1.939l0.074-0.318
	c0.092-0.219,2.296-5.344,6.025-5.946c3.064-0.504,7.082-1.599,8.657-2.783c1.22-0.925,4.91-2.371,6.106-2.804
	c0.319-0.202,1.294-1.701,1.782-2.791c0.459-1.031,2.623-2.61,4.005-3.271l0.076-2.548l-7.827-2.438
	c-0.829-0.385-1.85-0.836-2.129-0.928c-0.307-0.054-0.578-0.238-0.73-0.519c-0.27-0.489-0.117-0.896,0.247-1.498
	c-0.394,0.313-0.771,0.573-1.104,0.726l-2.778,1.252l1.496-2.652c0.028-0.053,2.842-5.062,3.646-7.878
	c0.817-2.851,1.294-7.521,1.303-7.927c0-0.544,1.778-13.141,2.791-15.334c0.878-1.903,2.042-4.422,3.979-6.047
	c-0.021-0.193-0.042-0.304-0.042-0.304c-1.545-13.53-25.333-9.267-21.766-5.001c-8.455-2.352-5.515,13.676-5.515,13.676l1.47,3.97
	c-2.892,1.863-0.882,4.118-0.784,6.717c0.144,3.833,2.5,3.04,2.5,3.04c0.146,6.321,3.284,6.958,3.284,6.958
	c0.588,3.974,0,3.437,0,3.437h-2.57c0.124,1-0.22,2.893-0.22,2.893c-3.292,1.453-3.994,2.399-7.256,3.822
	c-6.308,2.745-14.362,5.732-14.362,5.732C0.44,64.736,0,68.938,0,68.938V91H23.97z"/>
<path fill="#73B9F0" d="M98.697,84.498c-0.178-1.324-0.24-1.566-0.262-1.744c-0.229-0.553-2.125-4.889-4.854-5.334
	c-3.354-0.553-7.541-1.713-9.324-3.061c-0.896-0.678-3.938-1.943-5.711-2.588c-1.166-0.424-2.627-3.562-2.646-3.59
	c-0.059-0.136-0.4,0.317-0.4,0.317c-8,1-15-1-23-1c0-0.638-3.104,0.015-3.402,0.685c-0.278,0.623-1.623,3.217-2.64,3.588
	c-1.774,0.646-4.815,1.908-5.713,2.588c-1.789,1.353-5.97,2.513-9.32,3.062c-2.734,0.445-4.613,4.438-4.858,4.979
	c-0.03,0.25-0.119,0.72-0.235,1.619c-0.236,1.838-0.638,5.979-0.78,6.979h73.896C99.307,90,98.924,86.188,98.697,84.498z"/>
<path fill="#FFFFFF" d="M81.34,55.549c-0.16-0.432-0.883-3.062-0.965-3.359l-0.623-2.271l1.492,1.825
	c0.465,0.564,1.465,1.723,2.424,2.654c-0.904-1.832-2.156-4.514-2.684-6.353c-0.834-2.916-1.424-7.622-1.424-8.149
	c-0.021-0.545-1.748-12.757-2.648-14.71c-0.92-1.996-2.184-4.73-4.27-6.028c-1.957-1.218-5.23-3.257-9.961-3.521
	c-0.111-0.003-0.178-0.005-0.236-0.012l-0.051,0.009c-4.799,0.267-8.08,2.306-10.041,3.525c-2.083,1.296-3.345,4.031-4.266,6.027
	c-0.903,1.955-2.627,14.165-2.653,14.72c0,0.533-0.507,5.349-1.361,8.324c-0.509,1.785-1.718,4.291-2.633,6.062
	c0.925-0.914,1.866-2.004,2.313-2.551l1.675-2.051l-0.812,2.521c-0.042,0.129-1.03,3.192-1.192,3.625
	c-0.08,0.209-0.251,0.486-0.524,0.92c-0.064,0.104-0.143,0.229-0.215,0.347c0.371,0.146,0.963,0.403,1.931,0.854l8.725,2.709
	L53.2,65.43l0,0l0,0c0,0,0.353,1.567,0.387,2.088c0.722,2.352,2.812,5.848,8.912,5.848c5.067,0,7.368-2.42,8.417-4.588
	c0.834-2.234,0.883-3.35,0.883-3.35v-0.001l0,0l0,0l-0.139-4.765l8.781-2.732c0.916-0.428,1.488-0.676,1.854-0.822
	c-0.104-0.148-0.213-0.32-0.303-0.461C81.639,56.115,81.422,55.773,81.34,55.549z"/>
<g>
	<path fill="#CCCCCC" d="M75.902,68.182c0,0-0.276-0.291-0.402-0.5c-1.037-1.709-3.701-2.255-3.701-2.255l-0.623,2.755
		c-0.904,2.293-3.136,5.184-8.677,5.184c-5.542,0-7.771-2.889-8.677-5.182c0,0-0.232-0.586-0.266-0.869
		C53.518,66.986,53.2,65.43,53.2,65.43s-1.066,0.264-2.122,0.898c-1.056,0.634-1.98,1.855-1.98,1.855s-0.63,9.618,13.402,9.618
		S75.902,68.182,75.902,68.182z"/>
</g>
<line fill="none" stroke="#FFFFFF" stroke-width="0.75" stroke-miterlimit="10" x1="54.667" y1="71.417" x2="54.667" y2="75.5"/>
<line fill="none" stroke="#FFFFFF" stroke-width="0.75" stroke-miterlimit="10" x1="52.834" y1="69.574" x2="52.834" y2="73.657"/>
<line fill="none" stroke="#FFFFFF" stroke-width="0.75" stroke-miterlimit="10" x1="56.917" y1="73.167" x2="56.917" y2="76.625"/>
<line fill="none" stroke="#FFFFFF" stroke-width="0.75" stroke-miterlimit="10" x1="59.167" y1="73.938" x2="59.167" y2="77.062"/>
<line fill="none" stroke="#FFFFFF" stroke-width="0.75" stroke-miterlimit="10" x1="61.417" y1="74.271" x2="61.417" y2="77.396"/>
<line fill="none" stroke="#FFFFFF" stroke-width="0.75" stroke-miterlimit="10" x1="63.834" y1="74.271" x2="63.834" y2="77.396"/>
<line fill="none" stroke="#FFFFFF" stroke-width="0.75" stroke-miterlimit="10" x1="66.291" y1="73.708" x2="66.291" y2="77"/>
<line fill="none" stroke="#FFFFFF" stroke-width="0.75" stroke-miterlimit="10" x1="68.334" y1="73.25" x2="68.334" y2="76.542"/>
<line fill="none" stroke="#FFFFFF" stroke-width="0.75" stroke-miterlimit="10" x1="70.584" y1="71.657" x2="70.584" y2="75.657"/>
<line fill="none" stroke="#FFFFFF" stroke-width="0.75" stroke-miterlimit="10" x1="72.417" y1="70.271" x2="72.417" y2="74.271"/>
</svg>
