<?xml version="1.0" encoding="utf-8"?>
<!-- Generator: Adobe Illustrator 16.0.4, SVG Export Plug-In . SVG Version: 6.00 Build 0)  -->
<!DOCTYPE svg PUBLIC "-//W3C//DTD SVG 1.1//EN" "http://www.w3.org/Graphics/SVG/1.1/DTD/svg11.dtd">
<svg version="1.1" id="Layer_1" xmlns="http://www.w3.org/2000/svg" xmlns:xlink="http://www.w3.org/1999/xlink" x="0px" y="0px"
	 width="100px" height="100px" viewBox="0 0 100 100" enable-background="new 0 0 100 100" xml:space="preserve">
<g>
	<path fill="#BBBBBB" d="M98.435,82.754c-0.231-0.554-2.125-4.89-4.856-5.335c-3.356-0.552-7.54-1.712-9.323-3.059
		c-0.892-0.678-3.935-1.945-5.711-2.589c-1.167-0.424-2.628-3.558-2.642-3.589c-0.336-0.754-3.079-2.605-3.69-2.693l-0.416-0.061
		l-0.14-4.766l8.784-2.732c0.916-0.427,1.488-0.676,1.853-0.822c-0.099-0.153-0.212-0.324-0.303-0.462
		c-0.352-0.532-0.571-0.872-0.654-1.096c-0.16-0.432-0.883-3.062-0.965-3.361l-0.623-2.273l1.492,1.825
		c0.465,0.568,1.465,1.723,2.425,2.658c-0.906-1.832-2.157-4.514-2.681-6.355c-0.834-2.916-1.424-7.622-1.424-8.149
		c-0.025-0.545-1.749-12.757-2.651-14.71c-0.92-1.996-2.181-4.73-4.267-6.028c-1.957-1.218-5.234-3.257-9.962-3.521
		c-0.111-0.003-0.175-0.005-0.235-0.012l-0.052,0.009c-4.799,0.267-8.079,2.306-10.04,3.525c-2.082,1.296-3.344,4.031-4.265,6.027
		c-0.903,1.955-2.627,14.165-2.653,14.72c0,0.533-0.507,5.349-1.361,8.324c-0.509,1.785-1.718,4.291-2.633,6.063
		c0.925-0.914,1.866-2.004,2.313-2.551l1.675-2.051l-0.812,2.521c-0.042,0.13-1.03,3.194-1.192,3.626
		c-0.08,0.209-0.251,0.486-0.524,0.92c-0.064,0.103-0.143,0.227-0.215,0.345c0.371,0.147,0.963,0.404,1.931,0.853l8.725,2.709
		L53.2,65.429l-0.415,0.061c-0.61,0.088-3.352,1.939-3.688,2.694c-0.278,0.623-1.623,3.217-2.64,3.588
		c-1.774,0.642-4.815,1.907-5.713,2.588c-1.789,1.349-5.97,2.509-9.32,3.06c-2.734,0.445-4.613,4.436-4.858,4.981
		c-0.03,0.249-0.119,0.715-0.235,1.618C26.095,85.858,25.693,90,25.551,91h73.896c-0.141-1-0.524-4.812-0.75-6.502
		C98.52,83.173,98.456,82.931,98.435,82.754z"/>
	<g>
		<path fill="#999999" d="M23.97,91c-0.045,0,0-0.014,0.873-6.84c0.131-1.029,0.229-1.837,0.24-1.94l0.074-0.318
			c0.092-0.218,2.296-5.343,6.025-5.95c3.064-0.504,7.082-1.595,8.657-2.783c1.22-0.925,4.91-2.371,6.106-2.804
			c0.319-0.202,1.294-1.701,1.782-2.791c0.459-1.031,2.623-2.61,4.006-3.271l0.076-2.546l-7.823-2.441
			c-0.829-0.384-1.85-0.835-2.129-0.927c-0.307-0.052-0.578-0.239-0.73-0.517c-0.27-0.489-0.117-0.894,0.247-1.498
			c-0.394,0.316-0.771,0.573-1.104,0.724l-2.778,1.252l1.496-2.655c0.028-0.05,2.842-5.062,3.646-7.878
			c0.817-2.851,1.294-7.521,1.303-7.927c0-0.544,1.778-13.141,2.791-15.334c0.878-1.903,2.042-4.422,3.979-6.047
			c-0.026-0.193-0.042-0.304-0.042-0.304c-1.545-13.53-25.333-9.267-21.766-5.001c-8.455-2.352-5.515,13.676-5.515,13.676l1.47,3.97
			c-2.892,1.863-0.882,4.118-0.784,6.717c0.144,3.833,2.5,3.04,2.5,3.04c0.146,6.321,3.284,6.958,3.284,6.958
			c0.588,3.974,0,3.437,0,3.437h-2.574c0.124,1-0.22,2.89-0.22,2.89c-3.292,1.454-3.994,2.402-7.256,3.824
			c-6.308,2.746-14.362,5.733-14.362,5.733C0.44,64.736,0,68.938,0,68.938V91H23.97z"/>
	</g>
</g>
</svg>
