<?xml version="1.0" encoding="utf-8"?>
<!-- Generator: Adobe Illustrator 16.0.4, SVG Export Plug-In . SVG Version: 6.00 Build 0)  -->
<!DOCTYPE svg PUBLIC "-//W3C//DTD SVG 1.1//EN" "http://www.w3.org/Graphics/SVG/1.1/DTD/svg11.dtd">
<svg version="1.1" id="Layer_1" xmlns="http://www.w3.org/2000/svg" xmlns:xlink="http://www.w3.org/1999/xlink" x="0px" y="0px"
	 width="100px" height="100px" viewBox="0 0 100 100" enable-background="new 0 0 100 100" xml:space="preserve">
<path fill="#FFFFFF" d="M79.316,55.055c-1.215-2.123-2.818-3.9-4.812-5.33c-1.992-1.43-4.271-2.578-6.824-3.445
	c-2.56-0.865-5.182-1.603-7.863-2.21c-2.604-0.605-5.154-1.17-7.672-1.69c-2.516-0.52-4.746-1.105-6.69-1.755
	c-1.95-0.65-3.532-1.495-4.745-2.535c-1.214-1.04-1.82-2.382-1.82-4.03c0-1.385,0.345-2.49,1.04-3.315
	c0.692-0.823,1.538-1.45,2.535-1.885c0.995-0.433,2.1-0.715,3.315-0.845c1.212-0.13,2.34-0.195,3.38-0.195
	c3.292,0,6.151,0.63,8.582,1.885c2.426,1.257,3.771,3.662,4.026,7.215h17.551c-0.35-4.16-1.406-7.605-3.188-10.335
	c-1.775-2.73-4.011-4.917-6.693-6.565c-1.354-0.829-2.803-1.535-4.34-2.123V0h-10v15.736c-1.779-0.176-3.588-0.265-5.422-0.265
	c-1.543,0-3.068,0.071-4.58,0.188V0h-10v17.458c-1.936,0.622-3.76,1.396-5.44,2.368c-2.775,1.604-5.005,3.792-6.695,6.565
	c-1.69,2.774-2.535,6.327-2.535,10.66c0,2.948,0.605,5.44,1.82,7.475c1.213,2.038,2.815,3.728,4.81,5.07
	c1.993,1.343,4.268,2.427,6.825,3.25c2.555,0.824,5.178,1.539,7.865,2.146c6.585,1.387,11.72,2.773,15.404,4.158
	c3.685,1.389,5.521,3.469,5.521,6.24c0,1.646-0.394,3.012-1.17,4.094c-0.776,1.086-1.757,1.951-2.927,2.603
	c-1.172,0.652-2.473,1.128-3.896,1.433c-1.435,0.31-2.799,0.455-4.098,0.455c-1.821,0-3.576-0.218-5.266-0.646
	c-1.69-0.438-3.185-1.104-4.485-2.021c-1.3-0.91-2.363-2.08-3.185-3.512c-0.825-1.43-1.235-3.143-1.235-5.135h-17.55
	c0.173,4.508,1.19,8.255,3.055,11.242c1.862,2.99,4.245,5.396,7.15,7.218c1.836,1.149,3.858,2.069,6.025,2.806V100h10V85.93
	c1.769,0.168,3.554,0.26,5.36,0.26c1.562,0,3.104-0.078,4.645-0.194V100h10V84.191c2.32-0.735,4.475-1.703,6.42-2.94
	c2.854-1.819,5.178-4.226,6.955-7.215c1.771-2.99,2.66-6.695,2.66-11.115C81.135,59.8,80.527,57.18,79.316,55.055z"/>
<path display="none" fill="#73B9F0" d="M65.098,17.684V0h-10v15.591C58.518,15.982,61.955,16.833,65.098,17.684z"/>
<path display="none" fill="#73B9F0" d="M55.096,86.958V100h10V85.109C61.99,86.359,58.564,86.9,55.096,86.958z"/>
</svg>
