<?xml version="1.0" encoding="utf-8"?>
<!-- Generator: Adobe Illustrator 16.0.4, SVG Export Plug-In . SVG Version: 6.00 Build 0)  -->
<!DOCTYPE svg PUBLIC "-//W3C//DTD SVG 1.1//EN" "http://www.w3.org/Graphics/SVG/1.1/DTD/svg11.dtd">
<svg version="1.1" id="Layer_1" xmlns="http://www.w3.org/2000/svg" xmlns:xlink="http://www.w3.org/1999/xlink" x="0px" y="0px"
	 width="100px" height="100px" viewBox="0 0 100 100" enable-background="new 0 0 100 100" xml:space="preserve">
<path fill="#73B9F0" d="M30.776,80.544c-0.401-0.698-0.93-1.286-1.587-1.759c-0.659-0.471-1.41-0.85-2.253-1.137
	c-0.844-0.285-1.71-0.527-2.596-0.729c-0.857-0.2-1.702-0.386-2.532-0.558c-0.829-0.172-1.565-0.364-2.209-0.579
	c-0.643-0.216-1.165-0.493-1.565-0.837c-0.401-0.344-0.601-0.786-0.601-1.329c0-0.457,0.114-0.822,0.343-1.095
	c0.229-0.271,0.508-0.479,0.837-0.623c0.328-0.146,0.693-0.235,1.094-0.278c0.399-0.042,0.771-0.063,1.115-0.063
	c1.086,0,2.031,0.209,2.832,0.623c0.801,0.413,1.243,1.207,1.331,2.381h5.791c-0.114-1.373-0.466-2.511-1.051-3.41
	c-0.587-0.897-1.324-1.623-2.211-2.168c-0.445-0.271-0.923-0.506-1.431-0.695V62.38h-3.3v5.19c-0.589-0.061-1.185-0.088-1.79-0.088
	c-0.509,0-1.013,0.021-1.511,0.062v-5.168h-3.3v5.765c-0.639,0.202-1.241,0.459-1.795,0.778c-0.916,0.529-1.651,1.251-2.209,2.166
	c-0.559,0.916-0.837,2.088-0.837,3.521c0,0.976,0.2,1.795,0.601,2.469c0.399,0.674,0.929,1.229,1.587,1.673
	c0.658,0.442,1.409,0.802,2.252,1.071c0.843,0.271,1.708,0.51,2.596,0.707c2.172,0.457,3.866,0.916,5.083,1.373
	s1.823,1.146,1.823,2.062c0,0.543-0.129,0.994-0.387,1.353c-0.258,0.357-0.577,0.646-0.964,0.855
	c-0.387,0.215-0.815,0.373-1.287,0.475c-0.473,0.104-0.923,0.15-1.352,0.15c-0.601,0-1.18-0.07-1.737-0.217
	c-0.558-0.145-1.051-0.363-1.48-0.663c-0.429-0.304-0.78-0.688-1.051-1.158c-0.272-0.476-0.408-1.038-0.408-1.692h-5.792
	c0.057,1.483,0.393,2.727,1.009,3.709c0.614,0.984,1.4,1.779,2.359,2.383c0.606,0.38,1.273,0.686,1.988,0.927v5.305h3.3V90.74
	c0.583,0.058,1.173,0.087,1.768,0.087c0.515,0,1.025-0.025,1.533-0.065v4.623h3.3V90.16c0.767-0.241,1.476-0.561,2.117-0.971
	c0.944-0.604,1.71-1.396,2.297-2.381c0.584-0.985,0.877-2.209,0.877-3.668C31.374,82.109,31.175,81.246,30.776,80.544z"/>
<path fill="#FFFFFF" d="M79.738,40v58h-73V2h73v15c0.668,0,1.334,0,2,0V0h-77v100h77V40C81.072,40,80.406,40,79.738,40z"/>
<path fill="#FFFFFF" d="M14.771,13.481c0.425-1.377,0.459-1.717-0.408-1.836l-0.476-0.068c-0.153-0.102-0.085-0.493,0.119-0.595
	c0.884,0.034,1.496,0.051,2.142,0.051c0.425,0,0.986-0.017,1.36-0.051c-0.085,0.646,0.527,1.989,1.326,3.774l0.799,1.768
	c0.595,1.326,0.884,1.921,1.071,2.278c0.119-0.187,0.272-0.663,0.391-1.054l0.731-2.448c0.323-1.105,0.595-2.125,0.663-2.431
	c0.17-0.85,0.153-1.104-0.714-1.224l-0.51-0.068c-0.153-0.153-0.102-0.476,0.119-0.595c0.901,0.034,1.461,0.051,2.107,0.051
	c0.731,0,1.19-0.017,1.972-0.051c0.136,0.102,0.119,0.476-0.034,0.595l-0.408,0.085c-0.765,0.153-1.037,0.357-1.343,1.19
	c-0.119,0.34-0.476,1.343-0.816,2.448l-1.241,4.062c-0.391,1.275-0.646,2.278-0.799,2.839c-0.136,0.119-0.629,0.187-1.071,0.187
	c-0.034,0-0.493-1.309-0.969-2.38l-1.819-4.131c-0.323-0.748-0.867-2.057-1.105-2.533c-0.085,0.204-0.153,0.408-0.425,1.326
	l-1.003,3.314c-0.34,1.105-0.612,2.125-0.663,2.431c-0.136,0.85-0.153,1.071,0.714,1.207l0.51,0.085
	c0.085,0.153,0.102,0.476-0.085,0.595c-0.918-0.034-1.496-0.051-2.142-0.051c-0.714,0-1.19,0.017-1.955,0.051
	c-0.153-0.102-0.17-0.476,0.034-0.595l0.391-0.085c0.782-0.17,1.054-0.391,1.343-1.19c0.119-0.34,0.459-1.343,0.799-2.448
	L14.771,13.481z"/>
<path fill="#FFFFFF" d="M27.18,13.396c0.374-1.156,0.391-1.428-0.204-1.564l-0.544-0.119c-0.153-0.136-0.102-0.493,0.102-0.578
	c0.935-0.085,1.989-0.153,3.315-0.153c1.343,0,2.499,0.136,3.332,0.595s1.411,1.292,1.411,2.414c0,2.516-2.533,3.604-4.776,3.604
	c-0.187,0-0.391,0-0.544-0.017c-0.119-0.119-0.119-0.323,0-0.476c1.836-0.289,2.907-1.751,2.907-3.57
	c0-1.02-0.527-1.768-1.615-1.768c-0.561,0-0.595,0.051-0.748,0.527l-2.363,7.513c-0.442,1.377-0.442,1.7,0.425,1.836l0.527,0.085
	c0.102,0.085,0.051,0.476-0.119,0.578c-0.986-0.034-1.802-0.051-2.618-0.051s-1.581,0.017-2.431,0.051
	c-0.17-0.102-0.187-0.544,0.051-0.578l0.493-0.085c0.73-0.119,0.85-0.255,1.359-1.836L27.18,13.396z"/>
<path fill="#FFFFFF" d="M39.81,11.696c-0.306,0.068-0.442,0.187-0.458,0.374c0,0.17,0.034,0.765,0.119,1.785l0.289,3.484
	l0.153,1.887c0.153-0.204,0.561-0.68,1.207-1.648c1.054-1.564,2.362-3.315,3.365-4.98c0.204-0.323,0.271-0.476,0.271-0.595
	s-0.084-0.187-0.457-0.289l-0.597-0.153c-0.153-0.136-0.103-0.493,0.119-0.578c1.104,0.034,1.7,0.051,2.293,0.051
	c0.683,0,1.226-0.017,1.701-0.051c0.151,0.136,0.135,0.459-0.052,0.578l-0.493,0.102c-0.562,0.119-0.851,0.204-1.121,0.51
	c-0.356,0.391-1.259,1.53-2.227,2.924l-2.057,2.924c-1.445,2.057-2.295,3.417-2.941,4.369c-0.136,0.085-0.357,0.136-0.595,0.136
	c-0.221,0-0.357-0.051-0.493-0.136c-0.068-0.459-0.051-1.36-0.17-2.771l-0.493-6.103c-0.119-1.428-0.221-1.819-0.85-1.904
	l-0.374-0.051c-0.136-0.153-0.102-0.493,0.102-0.578c0.646,0.034,1.394,0.051,2.21,0.051c0.68,0,1.343-0.017,2.192-0.051
	c0.187,0.085,0.153,0.476-0.034,0.578L39.81,11.696z"/>
<rect x="10.739" y="28" fill="#FFFFFF" width="37" height="1"/>
<rect x="10.739" y="40" fill="#FFFFFF" width="37" height="1"/>
<rect x="10.739" y="52" fill="#FFFFFF" width="37" height="1"/>
<rect x="56.738" y="28" fill="#FFFFFF" width="34" height="1"/>
<polygon fill="#FFFFFF" points="82.532,17.186 93.846,28.5 82.532,39.814 83.238,40.521 94.552,29.207 95.262,28.5 94.552,27.793 
	83.238,16.479 "/>
<rect x="36.739" y="66" fill="#FFFFFF" width="37" height="1"/>
<rect x="36.739" y="78" fill="#FFFFFF" width="37" height="1"/>
<rect x="36.739" y="90" fill="#FFFFFF" width="37" height="1"/>
</svg>
