<?xml version="1.0" encoding="utf-8"?>
<!-- Generator: Adobe Illustrator 16.0.4, SVG Export Plug-In . SVG Version: 6.00 Build 0)  -->
<!DOCTYPE svg PUBLIC "-//W3C//DTD SVG 1.1//EN" "http://www.w3.org/Graphics/SVG/1.1/DTD/svg11.dtd">
<svg version="1.1" id="Layer_1" xmlns="http://www.w3.org/2000/svg" xmlns:xlink="http://www.w3.org/1999/xlink" x="0px" y="0px"
	 width="100px" height="100px" viewBox="0 0 100 100" enable-background="new 0 0 100 100" xml:space="preserve">
<path fill="#FFFFFF" d="M49.995,49.988L78.671,9.042c10.479,7.336,18.158,18.669,20.556,32.262
	c4.264,24.186-9.64,47.377-31.911,55.576c-2.759,1.015-5.646,1.8-8.645,2.329L49.995,49.988z"/>
<path fill="#BBBBBB" d="M41.324,0.779c4.7-0.829,9.361-0.972,13.883-0.502c8.558,0.89,16.613,3.978,23.47,8.777L49.995,49.988
	L32.01,3.361C34.971,2.223,38.083,1.351,41.324,0.779z"/>
<path fill="#73B9F0" d="M49.995,49.988l8.677,49.233C31.484,104.017,5.557,85.865,0.765,58.684
	c-4.22-23.946,9.362-46.91,31.241-55.323L49.995,49.988z"/>
</svg>
