<?xml version="1.0" encoding="utf-8"?>
<!-- Generator: Adobe Illustrator 16.0.4, SVG Export Plug-In . SVG Version: 6.00 Build 0)  -->
<!DOCTYPE svg PUBLIC "-//W3C//DTD SVG 1.1//EN" "http://www.w3.org/Graphics/SVG/1.1/DTD/svg11.dtd">
<svg version="1.1" id="Layer_1" xmlns="http://www.w3.org/2000/svg" xmlns:xlink="http://www.w3.org/1999/xlink" x="0px" y="0px"
	 width="100px" height="100px" viewBox="0 0 100 100" enable-background="new 0 0 100 100" xml:space="preserve">
<path fill="#FFFFFF" d="M98.95,95.508L58.836,55.395c6.088-5.746,9.852-13.604,9.852-22.271c0-17.545-15.401-31.818-34.344-31.818
	C15.406,1.302,0,15.574,0,33.119c0,17.544,15.406,31.816,34.344,31.816c8.454,0,16.199-2.854,22.189-7.562l40.275,40.275
	c0,0,0.959,1.183,2.142,0C100.133,96.465,98.95,95.508,98.95,95.508z M3.03,33.119c0-15.874,14.047-28.788,31.313-28.788
	c17.267,0,31.312,12.914,31.312,28.788c0,15.873-14.047,28.787-31.312,28.787C17.077,61.906,3.03,48.992,3.03,33.119z"/>
<path fill="#BBBBBB" d="M55.855,57.893c0,0,0.688-0.51,1.191,0c0.51,0.508-0.52-0.519-0.52-0.519l2.801-2.458
	c0,0-0.477,0.503,0,0.975c0.477,0.476-0.477-0.472-0.477-0.472"/>
<path display="none" fill="#73B9F0" d="M34.343,4.331C17.077,4.331,3.03,17.245,3.03,33.119c0,15.873,14.047,28.787,31.313,28.787
	c17.265,0,31.312-12.914,31.312-28.787C65.654,17.245,51.609,4.331,34.343,4.331z"/>
</svg>
