<?xml version="1.0" encoding="utf-8"?>
<!-- Generator: Adobe Illustrator 16.0.4, SVG Export Plug-In . SVG Version: 6.00 Build 0)  -->
<!DOCTYPE svg PUBLIC "-//W3C//DTD SVG 1.1//EN" "http://www.w3.org/Graphics/SVG/1.1/DTD/svg11.dtd">
<svg version="1.1" id="Layer_1" xmlns="http://www.w3.org/2000/svg" xmlns:xlink="http://www.w3.org/1999/xlink" x="0px" y="0px"
	 width="100px" height="100px" viewBox="0 0 100 100" enable-background="new 0 0 100 100" xml:space="preserve">
<path fill="#BBBBBB" d="M98.95,95.508L58.836,55.395c6.088-5.746,9.852-13.608,9.852-22.274c0-17.545-15.405-31.818-34.344-31.818
	C15.406,1.302,0,15.574,0,33.119c0,17.544,15.406,31.816,34.344,31.816c8.454,0,16.199-2.851,22.189-7.562l40.275,40.275
	c0,0,0.959,1.183,2.142,0S98.95,95.508,98.95,95.508z M3.03,33.119c0-15.874,14.047-28.788,31.313-28.788
	c17.267,0,31.312,12.914,31.312,28.788c0,15.873-14.047,28.787-31.312,28.787C17.077,61.906,3.03,48.992,3.03,33.119z"/>
<path fill="#BBBBBB" d="M55.856,57.892c0,0,0.687-0.509,1.194,0s-0.518-0.518-0.518-0.518l2.799-2.458c0,0-0.473,0.503,0,0.975
	s-0.473-0.472-0.473-0.472"/>
</svg>
