<?xml version="1.0" encoding="utf-8"?>
<!-- Generator: Adobe Illustrator 16.0.4, SVG Export Plug-In . SVG Version: 6.00 Build 0)  -->
<!DOCTYPE svg PUBLIC "-//W3C//DTD SVG 1.1//EN" "http://www.w3.org/Graphics/SVG/1.1/DTD/svg11.dtd">
<svg version="1.1" id="Layer_1" xmlns="http://www.w3.org/2000/svg" xmlns:xlink="http://www.w3.org/1999/xlink" x="0px" y="0px"
	 width="100px" height="100px" viewBox="0 0 100 100" enable-background="new 0 0 100 100" xml:space="preserve">
<path fill="#73B9F0" d="M31.274,50.482c-0.108-0.02-0.285-0.072-0.439-0.21l-0.04,0.001c-0.136,0-0.342-0.011-0.548-0.111
	c-0.095-0.047-0.17-0.103-0.229-0.153h-0.373l-0.138-0.584c-0.014-0.063-0.025-0.128-0.032-0.194
	c-0.192-0.24-0.256-0.525-0.288-0.669c0-0.003-0.001-0.006-0.002-0.009l-0.232,0.036l-0.067-0.543
	c-0.155-0.175-0.206-0.364-0.219-0.511c-0.023-0.257,0.064-0.516,0.24-0.708c0.065-0.071,0.141-0.132,0.223-0.181
	c-0.046-0.065-0.08-0.121-0.11-0.18l-0.099-0.149c-0.14-0.211-0.174-0.404-0.195-0.519l-0.224-0.789
	c-0.038-0.038-0.069-0.074-0.096-0.103c0.021,0.023,0.051,0.045,0.085,0.064l-0.026-0.091l0.059-0.007l0.037-1.341
	c-0.436,0-0.688,0.36-0.706,0.562c0.004,0.019,0.039,0.158,0.157,0.29c0.082,0.087,0.151,0.12,0.165,0.125
	c-0.069-0.028-0.156-0.063-0.25-0.127c-0.123-0.088-0.199-0.171-0.249-0.226c-0.027-0.021-0.058-0.045-0.089-0.072
	c-0.103,0.048-0.235,0.091-0.395,0.091c-0.145,0-0.256-0.035-0.331-0.059l-0.467-0.147l-0.129-0.509
	c0.007,0.061,0.022,0.099,0.023,0.103c-0.03-0.064-0.065-0.141-0.094-0.229c-0.01-0.006-0.021-0.013-0.03-0.02
	c-0.119-0.084-0.198-0.18-0.252-0.261c-0.147-0.064-0.334-0.181-0.467-0.405c-0.068-0.027-0.141-0.061-0.216-0.106
	c-0.118-0.07-0.234-0.146-0.344-0.278l-0.127-0.001l-0.202-0.423c-0.009-0.014-0.058-0.058-0.093-0.089
	c-0.144-0.13-0.385-0.349-0.505-0.734c-0.092-0.302-0.168-0.58-0.15-0.852c0.023-0.333,0.157-0.609,0.408-0.845
	c0.063-0.059,0.123-0.241,0.176-0.402c0.051-0.155,0.104-0.311,0.171-0.458c0.064-0.18,0.147-0.416,0.347-0.6
	c-0.007-0.011-0.014-0.023-0.021-0.035c-0.186-0.319-0.155-0.586-0.096-0.753c0.037-0.105,0.092-0.198,0.165-0.277l-0.008-0.004
	c-0.049-0.027-0.092-0.058-0.129-0.091c-0.152-0.011-0.275-0.044-0.377-0.091c-0.147,0.201-0.364,0.348-0.615,0.416
	c-0.113,0.032-0.234,0.049-0.354,0.049c-0.364,0-0.692-0.154-0.924-0.432c-0.2-0.242-0.323-0.446-0.384-0.79
	c-0.112-0.161-0.246-0.372-0.26-0.66c-0.008-0.187,0.037-0.34,0.095-0.46c-0.054-0.147-0.076-0.29-0.088-0.396
	c-0.014-0.122-0.016-0.224-0.017-0.314c0-0.008,0.001-0.014,0.002-0.017c-0.028-0.031-0.057-0.061-0.089-0.093l-0.488-0.31
	c-0.137-0.087-0.261-0.173-0.333-0.242c-0.034-0.032-0.063-0.065-0.089-0.097l-0.06-0.018c-0.147-0.069-0.368-0.225-0.463-0.315
	c-0.184-0.169-0.263-0.381-0.306-0.521c-0.1-0.02-0.267-0.072-0.419-0.208c-0.186-0.16-0.261-0.363-0.296-0.507
	c-0.085-0.035-0.193-0.099-0.304-0.199c-0.111-0.1-0.195-0.208-0.265-0.309l-0.306,0.128l-0.233-0.811
	c-0.04-0.139-0.056-0.267-0.069-0.391c0.036,0.003,0.068,0.02,0.083,0.029c-0.104-0.069-0.301-0.203-0.414-0.475
	c-0.095-0.236-0.086-0.481-0.03-0.69c-0.047-0.097-0.086-0.211-0.114-0.345l0.371-0.168l0.038-0.06l-0.442,0.133
	c-0.086-0.195-0.178-0.41-0.234-0.614c-0.064-0.23-0.12-0.429-0.106-0.704c0.019-0.37,0.14-0.96,0.364-1.379
	c0.052-0.096,0.107-0.167,0.154-0.221l0.022-0.701l0.234-0.009c-0.26-0.439-0.043-0.848,0.042-0.98
	c0.237-0.366,0.617-0.435,0.779-0.464c0.042-0.011,0.081-0.02,0.117-0.027l0.02-0.022c0.168-0.159,0.37-0.25,0.597-0.269
	c0.016-0.125,0.046-0.236,0.089-0.333c0.021-0.322,0.116-0.687,0.562-0.949c0.022-0.017,0.078-0.091,0.118-0.145
	c0.046-0.062,0.093-0.125,0.144-0.185c0.028-0.061,0.037-0.325,0.041-0.468c0,0,0.004-0.108,0.003-0.112
	c-0.107-0.036-0.211-0.086-0.309-0.161c-0.337-0.257-0.594-0.68-0.655-1.08c-0.034-0.246-0.03-0.526,0.23-0.82
	c0.015-0.208,0.071-0.369,0.147-0.493c0.016-0.199,0.075-0.42,0.257-0.609c0.166-0.171,0.392-0.266,0.637-0.266H21
	c0,0,0.225,0.037,0.231,0.037c0.083,0.001,0.158,0.012,0.226,0.028c0.215-0.088,0.417-0.128,0.499-0.131h0.608
	c0.048-0.038,0.102-0.074,0.163-0.106c0.033-0.043,0.074-0.085,0.122-0.125l0.181-0.147l0.175-0.018
	c0.081-0.033,0.164-0.059,0.239-0.075c0.094-0.02,0.184-0.028,0.285-0.028c0.031,0,0.062,0.001,0.093,0.002
	c0.062-0.062,0.125-0.111,0.186-0.15c0-0.136,0.014-0.276,0.07-0.423c0.024-0.06,0.053-0.114,0.085-0.166
	c-0.005-0.073-0.002-0.154,0.013-0.242l0.08-0.469l0.454-0.126c0.036-0.039,0.078-0.078,0.128-0.114
	c0.024-0.017,0.047-0.032,0.071-0.046c0.008-0.135,0.035-0.283,0.108-0.433c-0.037-0.132-0.06-0.29-0.032-0.47l0.05-0.329
	c-0.119-0.115-0.195-0.241-0.251-0.337l-0.174-0.047c-0.616-0.154-1.032-0.649-1.062-1.253l-0.09-0.094
	c-0.213-0.118-0.358-0.249-0.456-0.379c-0.124-0.071-0.222-0.15-0.296-0.209c-0.318-0.255-0.591-0.678-0.437-1.126
	c0.091-0.264,0.35-0.547,0.805-0.552l15.719,0.083l0.17,0.748v-0.752l0.301,0.005l0.168,0.054c0.396,0.157,0.771,0.644,0.508,1.492
	l-0.017,0.054l-0.062,0.137c0.01,0.039,0.002,0.175-0.082,0.353c0.031,0.042,0.062,0.091,0.086,0.147
	c0.033,0.072,0.054,0.141,0.064,0.203c0.01,0.009,0.018,0.019,0.026,0.028c0.133,0.151,0.188,0.311,0.216,0.416
	c0.018,0.018,0.035,0.035,0.053,0.053c0.061,0.061,0.117,0.121,0.163,0.176c0.254,0.298,0.306,0.497,0.323,0.855
	c-0.001-0.021,0.002-0.028,0.007-0.028c0.007,0,0.019,0.018,0.026,0.035c0.068,0.115,0.158,0.272,0.203,0.479l0.018,0.076
	l0.003,0.054c0.03,0.051,0.062,0.115,0.084,0.19c0.062,0.188,0.056,0.358,0.047,0.465c0.017,0.036,0.031,0.066,0.046,0.1
	c0.084,0.068,0.174,0.165,0.245,0.304c0.079,0.155,0.114,0.312,0.142,0.427l0.018,0.081l0.008,0.116l-0.035,16.187
	c0.008,0.153,0.008,0.262-0.008,0.36c-0.041,0.246-0.148,0.422-0.266,0.548l0.021,0.095c0.072,0.39-0.09,0.704-0.262,0.921
	c0.016,0.016,0.029,0.033,0.043,0.05c0.135,0.17,0.188,0.363,0.2,0.558c0.139,0.13,0.241,0.293,0.299,0.479
	c0.101,0.314,0.011,0.616-0.056,0.772c0.068,0.143,0.121,0.309,0.158,0.498c0.025,0.131,0.053,0.312,0.03,0.504
	c-0.016,0.159-0.079,0.404-0.204,0.594l-0.137,0.204l-0.037,0.016c-0.042,0.063-0.104,0.137-0.188,0.206
	c-0.053,0.043-0.105,0.076-0.156,0.102l-0.018,0.48l0.021,0.092L40.94,39.02l-0.013,0.338l-0.211-0.061
	c-0.079,0.151-0.212,0.292-0.413,0.377c-0.008,0.096-0.013,0.156-0.021,0.226l-0.086,0.608l-0.457,0.027
	c-0.084,0.404-0.275,0.61-0.465,0.714c0.023,0.146,0.033,0.421-0.156,0.671c-0.012,0.221-0.103,0.466-0.375,0.665l-0.01,0.008
	c0.006,0.121-0.012,0.231-0.037,0.321l0.014,0.078l0.005,0.001l0.003,0.047l0.055,0.341l-0.123,0.166l-0.014,0.118
	c-0.003,0.062-0.009,0.119-0.02,0.172l-0.01,0.128c0.008,0.107,0.015,0.272-0.05,0.446l-0.003,0.035l-0.009-0.007
	c-0.019,0.046-0.043,0.094-0.074,0.14c-0.047,0.075-0.104,0.134-0.161,0.181c-0.023,0.068-0.06,0.139-0.109,0.21
	c-0.029,0.041-0.062,0.076-0.092,0.107c0,0,0.026,0.115,0.035,0.158c0.123,0.119,0.264,0.328,0.269,0.696
	c0.012,0.73-0.4,0.98-0.646,1.063c-0.108,0.038-0.233,0.06-0.366,0.06c-0.098,0-0.199-0.013-0.299-0.027
	c-0.091-0.005-0.263-0.006-0.283-0.006c-0.004,0-0.043,0-0.06,0l-0.021,0.025l-0.012,0.107l-0.127,0.048l-0.031,0.036l-0.094,0.011
	l-0.181,0.068c-0.072,0.027-0.146,0.047-0.218,0.059c-0.014,0.048-0.031,0.093-0.051,0.134c0.156,0.155,0.267,0.392,0.271,0.717
	l0.017,0.414c0.02,0.42-0.115,0.722-0.438,0.978c-0.094,0.076-0.307,0.246-0.619,0.273l-0.35,0.23l-0.56-0.59l-0.143-0.07
	c-0.091-0.045-0.164-0.098-0.222-0.146h-0.01c-0.438-0.001-0.686-0.226-0.813-0.383c-0.08-0.011-0.16-0.031-0.243-0.068
	c-0.075-0.033-0.16-0.076-0.246-0.121c-0.014-0.008-0.029-0.017-0.045-0.024c-0.039,0.055-0.084,0.108-0.139,0.16
	c-0.047,0.045-0.097,0.082-0.143,0.112c-0.033,0.088-0.074,0.162-0.11,0.222l0.138,0.101l-0.046,0.819l-0.162,0.091l0.003,0.422
	L31.274,50.482z"/>
<path fill="#FFFFFF" d="M99.141,32.655c0.03,0.121,0.071,0.243,0.104,0.366c-0.443-0.189-0.484-0.691-0.598-1.097
	c-0.242-0.027-0.483-0.061-0.719-0.095c-0.015-0.103-0.035-0.21-0.056-0.312c-0.082-0.286-0.147-0.57-0.244-0.854
	c-0.009,0-0.05-0.007-0.065-0.007c0.01-0.068,0.019-0.135,0.033-0.203c-0.023,0-0.08,0-0.105,0c0.015-0.068,0.025-0.135,0.041-0.203
	c-0.026,0-0.082,0-0.108,0c0.019-0.088,0.032-0.176,0.052-0.264c-0.027-0.007-0.082-0.007-0.115-0.007
	c0.017-0.068,0.024-0.136,0.041-0.204c-0.024,0-0.082,0-0.106,0c0.015-0.067,0.024-0.135,0.041-0.203c-0.026,0-0.082,0-0.106,0
	c0.016-0.068,0.024-0.135,0.041-0.203c-0.025,0-0.082,0-0.105,0c0.016-0.088,0.031-0.176,0.047-0.264
	c-0.023-0.007-0.081-0.007-0.113-0.007c0.016-0.068,0.025-0.136,0.038-0.204c-0.028,0-0.077,0-0.103,0
	c0.006-0.067,0.013-0.128,0.021-0.196c-0.35-0.162-0.705-0.346-1.07-0.468c-0.006,0.047-0.015,0.095-0.021,0.149
	c-0.281,0.116-0.511,0.339-0.654,0.603c-0.332-0.082-0.406-0.468-0.714-0.583c-0.12,0.318-0.276,0.624-0.339,0.962
	c-0.013,0.007-0.025,0.014-0.033,0.014c-0.086,0.325-0.22,0.624-0.356,0.928c-0.156,0.339,0.071,0.724-0.115,1.057
	c-0.215,0.42-0.088,0.901,0.097,1.314c-0.015,0.318-0.347,0.521-0.414,0.827c-0.043,0.304-0.131,0.595-0.188,0.887
	c-0.105-0.054-0.212-0.108-0.314-0.162c-0.035,0.101-0.058,0.21-0.082,0.311c-0.102-0.061-0.205-0.128-0.312-0.183
	c-0.078,0.285-0.119,0.59-0.267,0.854c-0.201,0.115-0.459,0.095-0.688,0.156c-0.896,0.176-1.798,0.38-2.651,0.718
	c-0.656,0.236-1.359,0.256-2.017,0.46c-0.621,0.203-0.906,0.841-1.229,1.355c-0.313,0.467-0.774,0.833-0.97,1.375
	c0.25,0.068,0.468,0.224,0.623,0.434c-0.047,0.007-0.136,0.027-0.177,0.034c0.048,0.231,0.163,0.454,0.13,0.691
	c-0.192,0.197-0.437,0.332-0.632,0.528c-0.256,0.57-1.006,0.326-1.401,0.725c-0.396-0.108-0.813-0.169-1.227-0.108
	c-0.533,0.061-1.011,0.319-1.519,0.475c0.088,0.223,0.154,0.46,0.215,0.69c0.293,0.041,0.362,0.34,0.437,0.57
	c-0.088,0.013-0.177,0.027-0.267,0.047c-0.289,0.685-0.957,1.092-1.479,1.579c-0.511,0.535-1.253,0.751-1.814,1.219
	c-0.485,0.325-0.838,0.861-1.406,1.05c-0.301,0.109-0.575,0.244-0.874,0.345c-0.259-0.013-0.453-0.223-0.705-0.284
	c-0.365-0.088-0.738-0.169-1.108-0.243c0.006-0.332,0.032-0.732,0.37-0.908c0-0.231,0-0.455,0.009-0.685c0.09,0,0.18,0,0.269,0.007
	c0.055-0.305,0.146-0.597,0.233-0.895c0.08,0.095,0.139,0.197,0.227,0.285c0.089-0.048,0.17-0.122,0.258-0.183
	c0-0.562-0.042-1.145-0.354-1.632c-0.008-0.075-0.008-0.149-0.008-0.223c-0.033-0.007-0.078-0.007-0.1-0.007
	c0.02-0.088,0.025-0.176,0.04-0.264c-0.022-0.007-0.081-0.007-0.104-0.007c0.006-0.088,0.015-0.176,0.032-0.264
	c-0.012-0.007-0.052-0.007-0.067-0.007c-0.041-0.331-0.168-0.671-0.395-0.921c-0.227-0.196-0.47,0.047-0.68,0.142
	c-0.42,0.183-0.405,0.739-0.733,1.016c-0.116,0.048-0.245,0.034-0.375,0.048c-0.153-0.271-0.161-0.583-0.147-0.888
	c0.111,0.007,0.226,0.007,0.34,0.014c0.13-0.347,0.273-0.685,0.476-0.983c0.13-0.515,0.136-1.193-0.413-1.457
	c0.006-0.096,0.006-0.197,0.021-0.292c0.081,0.041,0.161,0.081,0.229,0.142c0.039,0,0.111,0.014,0.151,0.02
	c-0.13-0.25-0.259-0.527-0.478-0.71c-0.508-0.068-1.06-0.191-1.399-0.617c-0.163,0.013-0.315,0.034-0.468,0.047
	c-0.133-0.095-0.277-0.211-0.445-0.224c-0.257,0.041-0.434,0.265-0.604,0.448c-0.082,0.304,0.268,0.419,0.479,0.534
	c-0.243,0.027-0.534,0.014-0.704,0.217c-0.139,0.211-0.025,0.488-0.074,0.718c0.137,0.313-0.162,0.421-0.34,0.57
	c-0.016-0.326,0.031-0.644,0.121-0.955c-0.064-0.021-0.123-0.034-0.186-0.055c-0.049,0.177-0.112,0.347-0.178,0.516
	c-0.223,0.081-0.494,0.182-0.494,0.46c0,0.203-0.141,0.345-0.312,0.42c0.175,0.291,0.153,0.65,0.062,0.968
	c-0.008,0.007-0.014,0.021-0.021,0.027c-0.05,0.116-0.123,0.224-0.188,0.332c0.076,0.394,0.092,0.8-0.062,1.186
	c0.153,0.372,0.251,0.772,0.479,1.117c0.209,0.305,0.217,0.692,0.265,1.044c0.002,0.412,0.085,0.867-0.144,1.232
	c-0.17,0.264-0.283,0.563-0.27,0.881c-0.242,0.244-0.5,0.475-0.812,0.637c-0.271,0.115-0.576,0-0.854-0.027
	c-0.133-0.372-0.221-0.766-0.479-1.077c-0.31-0.339-0.054-0.86-0.115-1.267c-0.024-0.007-0.09-0.014-0.112-0.014
	c0.011-0.068,0.022-0.135,0.032-0.196c-0.012-0.007-0.053-0.007-0.073-0.014c0.015-0.433-0.129-0.854-0.17-1.287
	c0.041-0.467,0.267-0.901,0.203-1.381c-0.074-0.272-0.067-0.631,0.258-0.699c-0.044-0.101-0.05-0.189-0.106-0.277
	c0.082-0.603,0.274-1.186,0.533-1.728c0.146-0.264,0.229-0.569,0.25-0.874c-0.212,0.164-0.337,0.407-0.482,0.624
	c-0.42,0.48-0.666,1.104-1.19,1.483c0.074-0.481,0.237-0.955,0.562-1.334c0.314-0.657,0.652-1.308,0.832-2.026
	c0.066,0.096,0.121,0.19,0.178,0.285c0.189-0.081,0.374-0.155,0.562-0.23c0.129,0.061,0.266,0.156,0.413,0.095
	c0.118-0.136,0.046-0.333,0.062-0.495c0.388-0.041,0.752-0.149,1.14-0.163c0.089-0.094,0.17-0.189,0.26-0.284
	c0.137-0.02,0.28-0.04,0.428-0.061c0,0.027,0,0.088,0.009,0.122c0.088-0.013,0.175-0.027,0.264-0.047c0,0.027,0,0.081,0,0.108
	c0.097,0,0.188,0,0.285,0c0.125,0.081,0.247,0.027,0.354-0.047c0.379-0.237,0.832,0.02,1.236-0.061
	c-0.132-0.211-0.3-0.401-0.396-0.631c-0.014-0.182-0.033-0.556-0.047-0.738c-0.514,0.148-1.014,0.446-1.571,0.318
	c0.021-0.251,0.026-0.516,0.041-0.766c-0.261,0.088-0.476,0.243-0.726,0.359c-0.373,0.108-0.787,0.027-1.151,0.189
	c-0.331,0.122-0.554,0.421-0.858,0.576c-0.172,0.021-0.341-0.02-0.504-0.027c0.01-0.054,0.02-0.108,0.034-0.155
	c-0.211,0.074-0.454,0.148-0.688,0.094c-0.219-0.216-0.354-0.515-0.59-0.711c-0.203-0.149-0.476-0.109-0.705-0.142
	c-0.014-0.027-0.047-0.095-0.062-0.129c-0.187,0.176-0.39,0.359-0.583,0.535c0.054-0.259,0.123-0.522,0.227-0.766
	c0.094-0.284,0.426-0.379,0.508-0.67c0.203-0.034,0.396-0.095,0.559-0.21c-0.21-0.074-0.43-0.129-0.656-0.047
	c-0.783,0.155-1.148,1.002-1.762,1.435c-0.25,0.299-0.68,0.232-1.012,0.347c-0.299,0.284-0.637,0.529-1.035,0.637
	c-0.213,0.013-0.434-0.224-0.622-0.034c-0.082-0.027-0.173-0.054-0.253-0.074c0.084-0.231,0.219-0.42,0.396-0.589
	c-0.041-0.075-0.098-0.142-0.159-0.197c-0.252,0.047-0.414,0.271-0.649,0.359c-0.253,0.102-0.517,0.19-0.759,0.311
	c-0.252,0.129-0.537-0.027-0.754-0.169c0.388-0.304,0.734-0.65,1.131-0.941c0.293-0.21,0.328-0.644,0.682-0.793
	c0.372-0.38,0.857-0.665,1.375-0.807c0.393-0.142,0.708-0.413,1.062-0.629c-0.309,0.034-0.621,0.061-0.933,0.061
	c-0.002-0.075-0.017-0.149-0.022-0.217c-0.332,0.021-0.656,0.068-0.987,0.081c-0.204,0.014-0.259-0.243-0.366-0.365
	c-0.277,0.128-0.527,0.311-0.793,0.46c-0.454,0.087-0.76-0.326-1.165-0.434c0.017-0.054,0.026-0.108,0.04-0.169
	c-0.723,0.176-1.245-0.481-1.902-0.616c-0.347,0-0.582,0.352-0.947,0.332c-0.033-0.088-0.069-0.176-0.096-0.264
	c-0.434-0.088-0.873-0.129-1.289-0.258c-0.312-0.358-0.201-0.886-0.322-1.314c-0.123-0.176-0.394-0.142-0.582-0.209
	c0,0.311-0.008,0.623-0.008,0.935c-2.731-0.034-5.461-0.088-8.186-0.129c-0.648,0.008-1.292-0.067-1.937-0.138
	c0,0.32-0.001,0.64-0.002,0.96v0.89c0.004,0.098,0.012,0.262-0.021,0.485c-0.036,0.221-0.11,0.422-0.215,0.604
	c0.016,0.281-0.036,0.554-0.158,0.822c0.036,0.091,0.062,0.183,0.082,0.274c0.135,0.171,0.239,0.367,0.304,0.58
	c0.119,0.376,0.09,0.725,0.026,0.989c0.041,0.12,0.075,0.25,0.104,0.392c0.031,0.166,0.068,0.42,0.037,0.697
	c-0.013,0.125-0.075,0.56-0.354,0.979c-0.045,0.062-0.092,0.119-0.143,0.173c-0.059,0.092-0.136,0.191-0.236,0.287v0.023
	l0.156,0.687L41.67,39.59l-0.025,0.757l-0.643-0.186l-0.146,1.059l-0.572,0.034c-0.074,0.138-0.162,0.256-0.258,0.356
	c-0.026,0.191-0.084,0.382-0.183,0.563c-0.052,0.283-0.177,0.542-0.366,0.757l-0.009,0.073c0.026,0.242-0.003,0.482-0.083,0.704
	v0.003c-0.003,0.07-0.01,0.139-0.021,0.204l-0.004,0.038c0.003,0.143,0.007,0.369-0.062,0.615l-0.09,1.354l-0.048-0.038
	c0,0.011,0,0.022,0,0.034c0.02,1.292-0.879,1.697-1.143,1.787c-0.195,0.068-0.404,0.103-0.621,0.103
	c-0.074,0-0.151-0.005-0.236-0.015l-0.151,0.058c0.02,0.109,0.033,0.226,0.034,0.347c0.003,0.091,0.007,0.181,0.011,0.271
	l0.007,0.139c0.028,0.667-0.207,1.191-0.717,1.596c-0.112,0.09-0.409,0.326-0.85,0.414l-0.822,0.5l-0.793-0.978l-0.018-0.008
	c-0.051-0.026-0.1-0.055-0.144-0.081c-0.196-0.026-0.412-0.087-0.626-0.208l-0.049,0.747l-0.134,0.075v0.881l-1.77-0.325
	c-0.179-0.03-0.368-0.099-0.545-0.202c-0.248-0.023-0.472-0.084-0.686-0.188c-0.036-0.021-0.071-0.037-0.104-0.059l-0.752,0.027
	l-0.275-1.213c-0.007-0.028-0.013-0.057-0.018-0.086c-0.023-0.037-0.045-0.075-0.066-0.116l-0.387,0.062l-0.139-1.113
	c-0.175-0.275-0.23-0.55-0.246-0.729c-0.034-0.376,0.061-0.752,0.264-1.065c-0.133-0.263-0.174-0.488-0.194-0.608l-0.152-0.536
	l-0.07-0.246c-0.076-0.036-0.176-0.089-0.295-0.17c-0.029-0.022-0.058-0.044-0.085-0.065c-0.061,0.007-0.125,0.011-0.192,0.011
	c-0.259,0-0.46-0.063-0.591-0.104l-0.97-0.276l-0.085-0.77c-0.045-0.043-0.086-0.086-0.122-0.128
	c-0.154-0.088-0.326-0.217-0.478-0.405c-0.04-0.021-0.081-0.044-0.123-0.07c-0.076-0.046-0.157-0.098-0.239-0.161l-0.301-0.002
	l-0.344-0.723c-0.182-0.165-0.523-0.49-0.704-1.07c-0.103-0.339-0.201-0.703-0.175-1.106c0.034-0.484,0.222-0.906,0.564-1.26
	c0.021-0.054,0.037-0.111,0.055-0.167c0.06-0.182,0.124-0.365,0.206-0.549c0.027-0.078,0.076-0.22,0.167-0.382
	c-0.001-0.004-0.002-0.008-0.003-0.011c-0.004,0.001-0.008,0.002-0.012,0.003c-0.186,0.052-0.374,0.078-0.562,0.078
	c-0.582,0-1.129-0.256-1.505-0.708c-0.231-0.281-0.409-0.564-0.507-0.967c-0.122-0.191-0.284-0.506-0.305-0.928
	c-0.008-0.193,0.016-0.366,0.058-0.518c-0.02-0.09-0.036-0.184-0.047-0.283c-0.001-0.01-0.002-0.02-0.003-0.03
	c-0.037-0.024-0.075-0.047-0.112-0.071l-0.17-0.107c-0.132-0.083-0.273-0.176-0.405-0.302c-0.005-0.005-0.01-0.009-0.014-0.013
	c-0.215-0.11-0.469-0.294-0.587-0.407c-0.171-0.157-0.289-0.329-0.372-0.487c-0.11-0.055-0.224-0.127-0.332-0.224
	c-0.21-0.181-0.343-0.385-0.429-0.571c-0.051-0.036-0.104-0.077-0.159-0.124l-0.591,0.249l-0.467-1.621
	c-0.028-0.095-0.047-0.183-0.061-0.266c-0.113-0.126-0.229-0.291-0.316-0.504c-0.123-0.304-0.147-0.613-0.11-0.897
	c-0.023-0.068-0.043-0.139-0.061-0.214c-0.086-0.195-0.192-0.437-0.27-0.718l-0.016-0.057c-0.051-0.179-0.135-0.478-0.114-0.873
	c0.002-0.04,0.01-0.09,0.014-0.133c-0.714-0.159-1.427-0.326-2.133-0.531c-1.166-0.292-2.337-0.597-3.496-0.922
	c-0.786-0.122-1.525-0.441-2.29-0.664C8.57,25.187,8.76,25.412,8.844,25.64c0.088,0.332-0.081,0.65-0.095,0.982
	c-0.047,0.353,0.088,0.698,0.163,1.043c-0.169-0.203-0.318-0.426-0.528-0.588c0.026-0.265,0.101-0.516,0.169-0.766
	c-0.162,0.175-0.319,0.365-0.454,0.568c-0.501-0.108-1.023-0.169-1.497-0.386c-0.569-0.23-0.88-0.813-1.402-1.117
	c-0.075,0.278-0.169,0.556-0.183,0.847c0.035,0.386,0.238,0.744,0.143,1.138c-0.02,0.59-0.109,1.287,0.338,1.741
	c-0.19,0.02-0.406,0.095-0.447,0.305c0.068,0.17,0.203,0.304,0.318,0.447c-0.055,0.109-0.101,0.224-0.142,0.332
	c-0.088-0.027-0.176-0.054-0.264-0.081c-0.041,0.143-0.095,0.278-0.156,0.414c0.087,0.093,0.176,0.189,0.271,0.277
	c0.129-0.007,0.257-0.054,0.379-0.088c-0.027,0.088-0.047,0.183-0.074,0.271c-0.163,0.02-0.318,0.047-0.481,0.074
	c-0.183,0.44-0.373,0.881-0.434,1.362c-0.02,0-0.06,0-0.074,0c0.007,0.068,0.02,0.136,0.034,0.204c-0.027,0-0.075,0-0.102,0
	c0.007,0.061,0.007,0.122,0.014,0.183c-0.386,0.603-0.576,1.3-0.84,1.964c-0.4,1.138-0.977,2.209-1.695,3.177
	C1.432,38.35,1.452,38.946,1.5,39.46c-0.027,0-0.082,0.007-0.109,0.007c0.02,0.109,0.034,0.224,0.054,0.332
	c-0.04,0-0.107,0.007-0.148,0.013c0.067,0.232,0.209,0.455,0.223,0.699c-0.21,0.576-0.116,1.22-0.366,1.788
	c-0.122,0.448-0.427,0.813-0.718,1.165c-0.197,0.156-0.434,0.326-0.427,0.61c-0.021,0.807,0.867,1.375,0.589,2.229
	c-0.17,0.284-0.339,0.576-0.366,0.915c-0.014,0.277-0.135,0.637,0.068,0.881c0.304,0.385,0.542,0.825,0.718,1.28
	c0.128,0.365-0.122,0.799,0.128,1.125c0.156,0.237,0.394,0.406,0.644,0.535c0.013-0.257,0.068-0.51,0.196-0.732
	c0.115,0.102,0.223,0.21,0.325,0.318c-0.135,0.016-0.277,0.034-0.413,0.049c0.183,0.398,0.318,0.833,0.23,1.273
	c-0.36-0.164-0.285-0.551-0.278-0.868c-0.087,0-0.169,0-0.25,0c-0.183,0.61-0.42,1.308,0.006,1.884
	c0.149,0.34,0.664,0.346,0.691,0.746c0.074,0.229-0.231,0.3-0.353,0.439c-0.169,0.074-0.108,0.271-0.122,0.42
	c-0.034,0-0.095,0.006-0.122,0.006c0,0.475,0.495,0.678,0.583,1.107c0.122,0.373,0.088,0.809,0.339,1.131
	c0.278,0.379,0.501,0.807,0.63,1.262c0.129,0.404-0.027,0.824-0.074,1.23c-0.02,0-0.068,0-0.088,0.008
	c0.013,0.088,0.033,0.178,0.047,0.264c-0.041,0.008-0.115,0.02-0.156,0.02c0.102,0.143,0.184,0.305,0.332,0.395
	c0.244,0.055,0.508,0.031,0.739,0.111c0.304,0.197,0.637,0.361,0.989,0.469c0.515,0.246,0.42,1.039,1.023,1.188
	c0.298,0.088,0.644,0.088,0.848,0.361c-0.047,0.156-0.109,0.318-0.129,0.488C6.885,62.674,7,62.708,7.08,62.74
	c0.514,0.099,0.717,0.639,1.029,0.994c0.576,0.601,0.393,1.514,0.508,2.273c1.212,0.178,2.432,0.443,3.665,0.381
	c0.007,0.022,0.007,0.08,0.013,0.104c0.156-0.022,0.312-0.027,0.461-0.048c0.007,0.027,0.007,0.068,0.014,0.089
	c0.203-0.009,0.447-0.05,0.603,0.112c-0.082,0.121-0.183,0.226-0.271,0.332c0.183,0.192,0.448,0.266,0.657,0.422
	c0.928,0.508,1.789,1.131,2.71,1.646c0.25,0.123,0.508,0.254,0.745,0.407c0.759,0.466,1.545,0.877,2.297,1.354
	c0.36,0.174,0.664,0.502,1.111,0.397c0,0.032,0,0.079,0.007,0.104c0.108-0.024,0.224-0.033,0.332-0.047c0,0.022,0,0.082,0,0.112
	c0.115-0.024,0.224-0.03,0.332-0.05c0.007,0.025,0.021,0.076,0.027,0.098c0.128-0.009,0.251-0.017,0.379-0.031
	c0.007,0.031,0.007,0.088,0.007,0.113c0.183-0.017,0.359-0.029,0.542-0.05c0,0.033,0,0.088,0,0.112
	c0.183-0.016,0.359-0.025,0.542-0.047c0,0.033,0,0.08,0,0.104c0.488-0.065,0.929,0.161,1.396,0.209
	c0.522,0.041,1.037,0.13,1.552,0.13c0.108,0.036,0.217,0.07,0.332,0.104c0.061-0.358,0.115-0.721,0.169-1.076
	c0.068-0.037,0.135-0.071,0.21-0.104c0,0.032,0,0.1,0,0.129c0.169,0,0.345,0,0.515,0.012c0.122,0.013,0.244,0.021,0.359,0.037
	c0.007,0.021,0.007,0.08,0.014,0.104c0.149-0.025,0.311-0.031,0.467-0.049c0,0.023,0,0.088,0.007,0.115
	c0.15-0.026,0.312-0.029,0.468-0.051c0,0.033,0,0.09,0,0.115c0.183-0.016,0.359-0.029,0.542-0.05c0,0.034,0,0.091,0,0.115
	c0.183-0.015,0.359-0.024,0.542-0.041c0,0.02,0,0.06,0,0.081c0.129,0.023,0.305-0.032,0.393,0.089
	c0.182,0.246,0.291,0.542,0.447,0.808c0.128,0.041,0.298,0.059,0.379,0.195c0.346,0.46,0.63,0.977,1.077,1.342
	c0.203,0.167,0.508,0.176,0.657,0.396c0.278,0.306,0.468,0.679,0.583,1.072c0.089,0.433,0.028,0.899,0.197,1.313
	c0.271,0.606,0.826,1.051,1.43,1.308c0.413,0.334,0.847,0.663,1.348,0.875c0.413-0.388,0.732-0.882,0.921-1.416
	c0.128-0.354,0.535-0.484,0.88-0.523c0.04-0.065,0.081-0.135,0.122-0.197c0.169,0.122,0.339,0.275,0.548,0.303
	c0.495,0.028,0.99,0.129,1.464,0.264c0.419,0.543,0.934,1.004,1.313,1.572c0.313,0.652,0.604,1.325,0.793,2.029
	c0.082,0.168,0.34,0.154,0.428,0.324c0.169,0.273,0.283,0.596,0.46,0.867c0.155,0.246,0.454,0.313,0.671,0.475
	c0.217,0.146,0.048,0.43,0.041,0.632c-0.027,0.009-0.089,0.031-0.122,0.041c0.088,0.038,0.177,0.071,0.271,0.104
	c0,0.148,0.007,0.307,0.021,0.461c-0.036,0-0.11,0-0.143,0c0.217,0.314,0.42,0.646,0.508,1.025c0.074,0.213,0.074,0.584,0.365,0.635
	c0.386,0.069,0.691,0.347,1.07,0.442c0.381,0.14,0.692,0.406,1.071,0.527c0.007-0.041,0.015-0.129,0.021-0.169
	c0.494,0.054,0.888,0.372,1.342,0.515c0.311,0.122,0.522-0.313,0.305-0.522c-0.047-0.303-0.061-0.61-0.21-0.875
	c-0.006-0.075-0.006-0.153-0.006-0.221c-0.02,0-0.055-0.007-0.068-0.015c-0.014-0.291-0.102-0.582-0.102-0.873
	c0.047-0.332,0.073-0.679,0.243-0.97c0.306-0.578,0.571-1.194,1.058-1.641c0-0.057-0.007-0.107-0.007-0.162
	c0.04-0.006,0.074-0.013,0.115-0.021c0.236-0.209,0.535-0.324,0.779-0.526c0.523-0.523,1.253-0.727,1.876-1.099
	c0.539-0.258,0.887-0.769,1.396-1.069c0.168-0.104,0.355-0.201,0.469-0.388c0.164-0.278,0.498-0.339,0.769-0.468
	c0.323-0.155,0.68-0.213,1.019-0.317c0.11-0.057,0.225-0.104,0.34-0.146c0.396-0.039,0.785-0.146,1.179-0.066
	c0.315,0.121,0.625,0.242,0.937,0.35c0.332,0.226,0.746,0.203,1.119,0.088c0,0.037,0,0.11,0.006,0.145
	c0.123-0.075,0.244-0.163,0.367-0.251c-0.145-0.048-0.285-0.089-0.43-0.129c0.101-0.291,0.553-0.542,0.697-0.156
	c0.153-0.168,0.373-0.149,0.567-0.062c0.041,0.156,0.081,0.313,0.129,0.469c0.226,0.074,0.457,0.146,0.687,0.229
	c-0.103,0.104-0.195,0.217-0.299,0.323c0.489,0.22,0.963,0.543,1.511,0.511c0.024-0.129,0.034-0.258,0.05-0.391
	c0.24-0.029,0.475-0.111,0.719-0.104c0.065,0.088,0.106,0.209,0.146,0.314c0.014,0,0.045,0,0.062-0.009
	c0.075-0.065,0.155-0.146,0.236-0.211c-0.063-0.315,0.114-0.751,0.479-0.761c-0.013,0.132-0.019,0.26-0.033,0.389
	c0.373,0.146,0.896,0.122,1.092,0.542c0.291,0.147,0.632-0.008,0.697-0.32c-0.287-0.358-0.771-0.407-1.183-0.495
	c-0.19-0.076-0.448-0.295-0.312-0.521c0.064-0.178,0.324-0.192,0.455-0.297c0.139-0.075,0.201-0.237,0.291-0.359
	c-0.064,0-0.131-0.008-0.193-0.008c-0.018-0.088-0.032-0.176-0.051-0.266c-0.084-0.025-0.182-0.047-0.271-0.072
	c-0.071,0.148-0.151,0.305-0.217,0.461c-0.146-0.01-0.283-0.02-0.42-0.033c-0.056-0.388,0.299-0.537,0.549-0.705
	c0.179-0.115,0.237-0.339,0.364-0.502c0.229-0.021,0.479,0.033,0.695-0.089c0.184-0.103,0.377,0.017,0.562,0.041
	c0.382,0.089,0.77-0.032,1.125-0.155c0.227-0.217,0.3-0.541,0.341-0.84c0.291,0.27,0.45,0.637,0.597,0.995
	c-0.152,0.063-0.291,0.121-0.438,0.185c0.625,0.018,1.175-0.313,1.766-0.461c0.566-0.088,1.157-0.285,1.739-0.191
	c0.079,0.006,0.151,0.013,0.226,0.021c0,0.015,0.008,0.041,0.008,0.056c0.63,0.129,1.191,0.455,1.734,0.787
	c0.176,0.133,0.193,0.373,0.282,0.562c0-0.024,0-0.081,0-0.104c0.329-0.024,0.661-0.104,0.986-0.17
	c0.168-0.267,0.388-0.496,0.688-0.6c0.18-0.04,0.195-0.24,0.242-0.387c0.508-0.133,1.115,0,1.479,0.396
	c0.225,0.227,0.564,0.375,0.63,0.729c0.358,0.131,0.502,0.599,0.921,0.582c0,0.014,0,0.048,0.01,0.062
	c0.09-0.012,0.178-0.027,0.266-0.033c0,0.024,0,0.072,0,0.096c0.06-0.002,0.127-0.014,0.188-0.023
	c0.058,0.18,0.115,0.35,0.203,0.501c0.297,0.502,0.25,1.124,0.146,1.685c-0.015,0-0.052,0-0.072,0
	c0.104,0.442,0.022,1.016,0.478,1.287c0.031-0.164,0.063-0.332,0.104-0.494c-0.082,0-0.172,0.006-0.252,0.013
	c-0.022-0.072-0.057-0.151-0.08-0.216c0.244,0.027,0.488,0.068,0.729,0.089c-0.076,0.411-0.296,0.772-0.562,1.084
	c0.244,0.364,0.617,0.644,0.812,1.043c0.12,0.25,0.312,0.468,0.555,0.603c-0.006-0.201-0.014-0.404-0.021-0.604
	c0.082,0.033,0.17,0.064,0.259,0.096c0.023,0.326,0.021,0.704,0.25,0.973c0.178,0.176,0.443,0.307,0.51,0.571
	c0.078,0.302,0.176,0.601,0.363,0.851c0.2-0.058,0.387-0.125,0.598-0.146c0.26,0.237,0.461,0.528,0.68,0.792
	c0.162,0.316,0.025,0.762,0.363,0.979c0.016-0.031,0.033-0.104,0.041-0.146c0.08,0,0.154,0,0.236,0
	c0.016-0.054,0.032-0.112,0.047-0.169c0.273-0.023,0.573,0,0.811-0.152c0.188-0.14,0.345-0.324,0.459-0.533
	c-0.28-0.229-0.041-0.617-0.014-0.908c0.08,0.025,0.154,0.054,0.233,0.088c-0.112-1.189,0.118-2.547-0.694-3.543
	c-0.31-0.61-0.672-1.198-1.068-1.756c-0.213-0.291-0.246-0.648-0.293-0.996c0.064-0.004,0.138-0.018,0.201-0.025
	c-0.404-0.67-1.016-1.18-1.463-1.811c-0.226-0.407-0.539-0.775-0.687-1.219c-0.272-0.779-0.67-1.537-0.72-2.379
	c-0.082-0.724,0.308-1.375,0.396-2.072c0.041-0.365,0.316-0.635,0.398-0.987c0.078-0.365,0.408-0.575,0.686-0.787
	c0.008-0.032,0.008-0.106,0.008-0.147c-0.041,0-0.121-0.008-0.154-0.014c0.354-0.307,0.761-0.564,1.058-0.93
	c0.211-0.232,0.485-0.444,0.551-0.766c0.41-0.022,0.775-0.406,0.72-0.834c0.008-0.42,0.123-0.84,0.379-1.182
	c0.261-0.271,0.625-0.384,0.949-0.562c0.233-0.104,0.565-0.055,0.719-0.291c0.138-0.307,0.115-0.67,0.298-0.963
	c0.237-0.371,0.657-0.574,0.913-0.928c0.302-0.244,0.699-0.261,1.046-0.406c0.01,0.041,0.017,0.129,0.017,0.178
	c0.354-0.09,0.459-0.461,0.588-0.768c-0.25-0.08-0.506-0.164-0.768-0.226c0.061-0.218,0.132-0.427,0.204-0.646
	c-0.034-0.008-0.105-0.018-0.138-0.018c0-0.023-0.006-0.088-0.017-0.113c0.14-0.016,0.276-0.023,0.414-0.041
	c0.127-0.021,0.274-0.026,0.396-0.089c0.088-0.184,0.088-0.403,0.153-0.591c0.121-0.083,0.261-0.105,0.396-0.146
	c-0.018-0.227,0.016-0.479-0.188-0.623c-0.07-0.09-0.129-0.195-0.217-0.271c-0.367,0.097-0.793,0.07-1.084,0.354
	c0.014-0.072,0.041-0.145,0.062-0.211c-0.168,0.129-0.346,0.259-0.562,0.252c0.159-0.48,0.768-0.467,1.066-0.834
	c0.192,0.074,0.388,0.154,0.576,0.252c0.041-0.049,0.088-0.088,0.135-0.137c-0.232-0.437-0.411-0.897-0.705-1.293
	c-0.146-0.183-0.211-0.4-0.264-0.617c-0.211,0.053-0.412,0.125-0.617,0.188c0,0.066-0.016,0.139-0.021,0.203
	c-0.352-0.155-0.625-0.438-0.754-0.801c0.234,0.097,0.479,0.219,0.534,0.492c0.063-0.041,0.257-0.047,0.358-0.102
	c-0.252-0.291-0.451-0.615-0.604-0.962c0.14,0.075,0.267,0.163,0.396,0.245c-0.058-0.258-0.111-0.521-0.162-0.786
	c-0.062,0.007-0.111,0.013-0.168,0.021c0.063-0.179,0.119-0.379,0.104-0.572c-0.146-0.186-0.373-0.273-0.567-0.381
	c-0.324-0.232-0.729-0.131-1.093-0.219c0.203-0.063,0.414-0.104,0.623-0.162c0.008,0.041,0.008,0.112,0.017,0.146
	c0.106-0.016,0.219-0.034,0.323-0.048c0.015,0.042,0.041,0.123,0.062,0.161c0.078-0.112,0.197-0.241,0.141-0.397
	c-0.141-0.541-0.664-1.034-0.445-1.639c0.047-0.189-0.076-0.351-0.123-0.521c0.082-0.217,0.238-0.386,0.346-0.583
	c0.033-0.006,0.096-0.02,0.13-0.027c-0.026,0.201-0.06,0.406-0.149,0.591c0.115,0.135,0.244,0.264,0.318,0.427
	c-0.02,0.207-0.176,0.369-0.217,0.562c0.137,0.099,0.291,0.164,0.434,0.261c-0.102,0.03-0.204,0.071-0.311,0.106
	c0.08,0.256,0.179,0.517,0.283,0.769c0.162,0.006,0.324,0.006,0.479,0.013c0.004-0.047,0.018-0.129,0.025-0.176
	c0.273,0.251,0.566,0.533,0.664,0.906c-0.094,0.531-0.336,1.035-0.271,1.594c0.078,0.129,0.176,0.314,0.354,0.306
	c0.284-0.524,0.246-1.147,0.308-1.715c0.308-0.502,0.651-1.035,0.589-1.657c0.014-0.334-0.184-0.613-0.257-0.925
	c-0.165-0.071-0.339-0.135-0.478-0.241c-0.146-0.289-0.25-0.597-0.404-0.875c-0.203-0.04-0.35-0.189-0.461-0.351
	c0.002-0.109,0.011-0.21,0.023-0.312c0.203,0.149,0.364,0.34,0.551,0.516c0.236,0.209,0.567,0.25,0.867,0.324
	c0,0.19,0,0.383,0.016,0.58c0.174-0.109,0.334-0.256,0.354-0.481c0.083-0.501,0.426-0.881,0.604-1.341
	c0.289-0.718,0.168-1.511,0.033-2.25c-0.158,0.02-0.316,0.034-0.471,0.054c0.27-0.468,0.852-0.522,1.312-0.657
	c0.315-0.142,0.635-0.305,0.905-0.521c0.382-0.346,0.898-0.536,1.101-1.05c-0.162-0.027-0.323-0.048-0.495-0.068
	c-0.132,0.509-0.683,0.536-1.062,0.766c-0.211,0.122-0.454,0.027-0.681,0.04c-0.196,0.136-0.338,0.332-0.508,0.494
	c0.039-0.182,0.08-0.365,0.121-0.555c0.266-0.15,0.486-0.359,0.752-0.508c0.1-0.142,0.162-0.359,0.357-0.386
	c0.235-0.041,0.463-0.074,0.689-0.162c0.404-0.163,0.882-0.17,1.236-0.44c0.229-0.176,0.584-0.217,0.631-0.55
	c0.289-0.027,0.533-0.176,0.77-0.324c-0.025-0.102-0.047-0.203-0.068-0.305c0.062-0.007,0.123-0.007,0.189-0.007
	c0.023-0.081,0.049-0.162,0.07-0.237c0.143,0.114,0.23,0.271,0.271,0.44c0.09-0.122,0.164-0.257,0.242-0.383
	c0.316-0.095,0.623-0.244,0.955-0.292c-0.051-0.121-0.105-0.236-0.154-0.358c-0.154,0.122-0.299,0.243-0.445,0.365
	c-0.17,0-0.348,0-0.518,0.007c-0.176-0.338-0.355-0.671-0.59-0.969c-0.162-0.088-0.43,0.075-0.533-0.142
	c-0.211-0.299,0.104-0.576,0.137-0.867c-0.125-0.211-0.27-0.428-0.188-0.698c0.096-0.522,0.232-1.044,0.322-1.573
	c0.074-0.088,0.121-0.189,0.074-0.297c-0.082-0.211,0.09-0.38,0.193-0.55c0.121,0.048,0.252,0.21,0.387,0.102
	c0.113-0.054,0.205-0.129,0.31-0.19c0.3-0.285,0.646-0.508,0.913-0.819c-0.041-0.007-0.12-0.021-0.161-0.028
	c0.112-0.358,0.136-0.73-0.048-1.063c0.207,0.068,0.349,0.223,0.396,0.44c0-0.033,0-0.102,0-0.136
	c0.121,0.014,0.242,0.021,0.373,0.034c0-0.094,0-0.189,0.009-0.284c0.226-0.156,0.373-0.508,0.705-0.399
	c0,0.095,0.008,0.182,0.021,0.277c0.357-0.311,0.566-0.766,1.004-0.975c0.279-0.129,0.544-0.374,0.55-0.698
	C99.866,33.074,99.503,32.797,99.141,32.655z"/>
<path fill="#DDDDDD" stroke="#BBBBBB" stroke-miterlimit="10" d="M65.459,54.039c-0.021-0.023-0.038-0.004-0.029,0.033
	c0.023,0.01,0.021,0.037,0.057,0.029c0,0.012,0.007,0.051-0.002,0.061c-0.01,0.014-0.03,0.011-0.043,0.021
	c-0.016,0.018-0.004,0.045-0.018,0.062c-0.012,0.016-0.031,0.016-0.049,0.022c-0.036,0.021-0.036,0.037-0.036,0.074
	c0,0.035-0.01,0.079,0.038,0.076c0.006,0.021,0.006,0.053,0.021,0.071c0.021,0.034,0.043,0.026,0.043,0.075
	c0,0.027,0,0.067-0.031,0.08c-0.035,0.015-0.084-0.006-0.12-0.004c-0.042,0.002-0.104-0.002-0.146,0.008
	c-0.054,0.015-0.017,0.021-0.037,0.047c-0.018,0.017-0.039-0.004-0.043,0.023c-0.051,0.021-0.061-0.023-0.104-0.021
	c-0.046,0.006-0.047,0.079-0.051,0.12c-0.004,0.037-0.012,0.031-0.028,0.057c-0.014,0.018-0.03,0.027-0.024,0.057
	c0.002,0.021,0.015,0.035,0.02,0.058c0.009,0.04,0.006,0.056,0.039,0.081c0.023-0.051,0.038-0.014,0.038,0.021
	c0,0.033,0.002,0.065,0.004,0.1c0.002,0.045-0.004,0.062-0.036,0.084c-0.025,0.021-0.048,0.035-0.08,0.021l-0.01,0.006
	c-0.012-0.014-0.023-0.027-0.037-0.039c-0.021-0.021-0.047-0.027-0.074-0.045c-0.025-0.012-0.039-0.039-0.062-0.049
	c-0.017-0.008-0.05-0.002-0.067-0.002c-0.062,0-0.053-0.054-0.104-0.081c-0.021-0.009-0.047,0-0.066-0.008
	c-0.068-0.03-0.139-0.088-0.221-0.062c-0.036,0.015-0.039,0.065-0.067,0.097c-0.017,0.016-0.044,0.021-0.06,0.036
	c-0.018,0.02-0.008,0.023-0.018,0.05c-0.014,0.032-0.033,0.048-0.043,0.084c-0.007,0-0.009,0-0.011-0.002
	c0.001,0.022-0.021,0.036-0.021,0.062c0.014,0.026,0.054,0.035,0.056,0.069c0.001,0.019,0.017,0.004-0.011,0.019
	c0.004,0-0.031,0.008-0.028,0.008c-0.026-0.004-0.028-0.03-0.028-0.063c-0.051,0-0.029-0.042-0.053-0.062
	c-0.021-0.021-0.062-0.008-0.094-0.008c-0.012,0.043,0.025,0.012,0.047,0.014c0.002,0.027,0.02,0.048,0.02,0.074
	c-0.025,0-0.062,0.002-0.082-0.011c-0.023-0.014-0.045-0.055-0.076-0.053c-0.006-0.024-0.008-0.062-0.002-0.092
	c-0.065-0.019-0.063-0.099-0.082-0.149c-0.018-0.035-0.021-0.068-0.029-0.107c-0.01,0.002-0.021-0.002-0.032,0
	c-0.005-0.034-0.041-0.024-0.044-0.062s0.035-0.057,0.064-0.044c0.014-0.03,0.049,0.007,0.062-0.041
	c0.011-0.038,0.003-0.104-0.012-0.142c-0.015-0.032-0.037-0.057-0.054-0.086c-0.015-0.021-0.021-0.031-0.033-0.051
	c-0.021-0.029-0.016-0.054-0.024-0.089c0.022-0.002,0.047,0.007,0.06-0.014c0.019-0.029-0.018-0.056-0.035-0.062
	c-0.004-0.033-0.004-0.123-0.028-0.146c-0.054,0.021-0.074-0.008-0.104-0.041c-0.022-0.028-0.049-0.021-0.09-0.021
	c0.012,0,0.014-0.078,0.002-0.093c-0.015-0.015-0.035-0.019-0.052-0.026c-0.021-0.018-0.034-0.039-0.057-0.056
	c-0.025-0.017-0.052-0.05-0.074-0.062c-0.037-0.021-0.069,0.004-0.099,0.021c-0.039,0.024-0.036,0.021-0.08,0.007
	c-0.004-0.025-0.029-0.061-0.026-0.088c0.002-0.021,0.021-0.041,0.037-0.044c0.006,0.007,0.012,0.011,0.021,0.011
	c-0.006-0.006-0.016-0.011-0.021-0.011c-0.008-0.008-0.015-0.021-0.024-0.021c-0.021-0.008-0.054,0.015-0.08-0.008
	c-0.021-0.015-0.022-0.045-0.045-0.061c-0.021-0.016-0.056-0.012-0.072-0.042c-0.017-0.026-0.004-0.037-0.028-0.051
	c-0.021-0.015-0.054-0.019-0.076-0.033c-0.021-0.013-0.03-0.017-0.047-0.043c-0.015-0.021-0.017-0.045-0.043-0.045
	c-0.033-0.071-0.104-0.086-0.129-0.167c-0.015-0.039-0.028-0.096-0.026-0.135c0.004-0.036,0.021-0.062,0.04-0.08
	c0.068-0.062,0.079-0.166,0.119-0.252c0.021-0.039,0.021-0.076,0.056-0.094c0.031-0.018,0.029,0.012,0.045-0.031
	c0.004-0.018,0.002-0.032,0.002-0.051c0-0.02,0.015-0.07,0.01-0.086c-0.008-0.021-0.03-0.025-0.04-0.045
	c-0.027-0.045,0.012-0.035,0.034-0.059c0.021-0.02,0.021-0.062,0.045-0.083c0.013-0.009,0.021,0.003,0.029-0.019
	c0.004-0.006-0.002-0.051-0.006-0.057c-0.011-0.019-0.017-0.005-0.029-0.017c-0.022-0.019-0.026-0.056-0.051-0.065
	c-0.021-0.015-0.054,0.006-0.074-0.007c-0.01-0.006-0.013-0.022-0.021-0.028c-0.021-0.021-0.053-0.015-0.079-0.017
	c-0.056-0.002-0.042-0.021-0.077-0.049c-0.064-0.056-0.13-0.015-0.154,0.058c-0.004,0.012,0.002,0.021-0.002,0.03
	c-0.015,0.021-0.031,0.035-0.058,0.042c-0.046,0.014-0.089,0.003-0.116-0.032c-0.031-0.04-0.047-0.062-0.055-0.116
	c-0.006-0.041-0.057-0.07-0.059-0.115c-0.002-0.037,0.051-0.055,0.043-0.096c-0.002-0.021-0.014-0.025-0.021-0.043
	c-0.012-0.021-0.021-0.045-0.021-0.066c-0.008-0.075,0.012-0.106-0.039-0.163c-0.01-0.015-0.021-0.023-0.033-0.038
	c-0.021-0.021-0.03-0.023-0.055-0.04c-0.027-0.021-0.062-0.038-0.09-0.058c-0.017-0.008-0.037-0.021-0.051-0.033
	c-0.018-0.016-0.018-0.037-0.035-0.051c-0.013-0.008-0.033-0.004-0.047-0.01c-0.016-0.007-0.05-0.029-0.061-0.041
	c-0.023-0.021-0.026-0.066-0.041-0.093c-0.012-0.017-0.029-0.026-0.045-0.041c-0.02-0.015-0.012-0.015-0.033-0.022
	c-0.018-0.006-0.04-0.004-0.053-0.017c-0.025-0.021-0.014-0.063-0.039-0.097c-0.029-0.034-0.065-0.036-0.102-0.064
	c-0.039-0.033-0.061-0.089-0.095-0.127c-0.017-0.019-0.019-0.029-0.042-0.021c-0.02-0.061-0.002-0.104-0.042-0.157
	c-0.021-0.022-0.045-0.024-0.06-0.056c-0.01-0.021,0.002-0.059,0.016-0.075c0.008,0.005,0.018,0.001,0.021,0.004
	c0.004-0.022-0.008-0.044-0.006-0.065c-0.059-0.008-0.045-0.063-0.062-0.104c-0.02-0.042-0.041-0.092-0.055-0.139
	c-0.012-0.038-0.021-0.066-0.021-0.107c0.003-0.073,0.027-0.182,0.062-0.246c0.015-0.022,0.021-0.028,0.039-0.046
	c0.021-0.026,0.018-0.046,0.019-0.082c0.028-0.001,0.065-0.002,0.089,0.023c0.01-0.038-0.021-0.064-0.021-0.104
	c0.002-0.034,0.021-0.081,0.016-0.116c-0.016-0.044-0.075-0.047-0.039-0.104c0.021-0.03,0.062-0.028,0.09-0.036
	c0.021-0.006,0.045-0.006,0.062-0.014c0.021-0.01,0.019-0.022,0.031-0.036c0.024-0.025,0.043-0.014,0.084-0.016
	c0.043-0.001,0.09-0.015,0.104-0.064c0.008-0.032-0.014-0.115,0.023-0.126c0.002-0.07-0.006-0.1,0.047-0.13
	c0.047-0.027,0.068-0.073,0.104-0.114c0.051-0.059,0.048-0.156,0.055-0.235c0.002-0.053-0.021-0.104-0.033-0.156
	c-0.033-0.007-0.082-0.009-0.105-0.028c-0.04-0.03-0.077-0.087-0.084-0.138c-0.005-0.024-0.005-0.032,0.016-0.052
	c0.022-0.024,0.022-0.005,0.033-0.044c0.01-0.04-0.013-0.094,0.039-0.105c0.001-0.041-0.016-0.115,0.046-0.103
	c0.013,0.028,0.037,0.007,0.06,0.007c0.023,0,0.041,0.019,0.062,0.028c0.014-0.019,0.09-0.051,0.113-0.052
	c0.021-0.001,0.05,0,0.072,0c0.049,0,0.103,0.001,0.146,0c0.002-0.05,0.049-0.047,0.074-0.065c0.004-0.003,0.004-0.021,0.009-0.026
	c0.004-0.003,0.019-0.001,0.021-0.004c0.016-0.006,0.031-0.013,0.045-0.016c0.027-0.005,0.062,0,0.091,0
	c0.047,0,0.051-0.013,0.075-0.045c0.021-0.024,0.037-0.028,0.07-0.039c0.021-0.008,0.021,0.006,0.029-0.016
	c0.008-0.015,0-0.052,0-0.068c0-0.023-0.005-0.055,0.003-0.076c0.011-0.023,0.027-0.019,0.036-0.032
	c0.021-0.031-0.011-0.056-0.004-0.096c0.02-0.005,0.041-0.001,0.055-0.011c0.018-0.011,0.016-0.03,0.03-0.042
	c0.009-0.006,0.033-0.009,0.046-0.015c0.016-0.008,0.027-0.02,0.035-0.035c0.018-0.04-0.01-0.09,0.018-0.129
	c0.01-0.017,0.021-0.018,0.025-0.037c0.007-0.037-0.027-0.073-0.021-0.116c0.015-0.003,0.026-0.005,0.041-0.005
	c0.004-0.046-0.02-0.068-0.022-0.108c-0.009-0.026,0.013-0.073-0.007-0.093c-0.01-0.012-0.038-0.009-0.051-0.02
	c-0.024-0.027-0.043-0.084-0.08-0.104c-0.01-0.005-0.035-0.01-0.045-0.014c-0.02-0.007-0.03-0.009-0.051-0.014
	c-0.062-0.016-0.117-0.066-0.113-0.144c0-0.02,0.009-0.03,0.002-0.049c-0.006-0.014-0.045-0.042-0.055-0.052
	c-0.022-0.025-0.035-0.044-0.068-0.062c-0.021-0.013-0.055-0.024-0.049-0.059c-0.035-0.005-0.063-0.032-0.094-0.052
	c-0.019-0.015-0.074-0.076-0.019-0.077c0,0,0.002,0,0.004,0c0.104,0,0.21,0.001,0.313,0.001c0.262,0.001,0.521,0.003,0.782,0.004
	c0.328,0.001,0.657,0.003,0.986,0.005c0.312,0.001,0.614,0.003,0.928,0.005c0.201,0.001,0.402,0.002,0.604,0.003
	c0.021,0,0.041-0.001,0.062,0c0.006,0,0.019-0.002,0.021,0c0.043,0.017,0.031,0.092,0.02,0.133
	c-0.007,0.021-0.018,0.028-0.021,0.051c-0.004,0.026,0.002,0.037-0.016,0.061c-0.005,0.007-0.021,0.007-0.023,0.017
	c-0.004,0.009,0.002,0.035,0.002,0.044c0,0.033,0.002,0.044,0.015,0.068c0.007,0.015,0.028,0.03,0.035,0.041
	c0.007,0.016,0,0.034,0.005,0.051c0.007,0.024,0.025,0.026,0.042,0.044s0.015,0.037,0.021,0.055c0.015,0.032,0.053,0.063,0.072,0.09
	c0.031,0.038,0.032,0.045,0.035,0.097c0.003,0.053,0.051,0.092,0.061,0.14c0.004,0.013,0.002,0.028,0.004,0.042
	c0.004,0.023,0.021,0.031,0.021,0.046c0.016,0.04-0.01,0.071,0.014,0.111c0.01,0.02,0.015,0.026,0.021,0.046
	c0.008,0.022,0.003,0.023,0.021,0.041c0.013,0.012,0.025,0.008,0.039,0.032c0.01,0.018,0.017,0.045,0.021,0.065
	c0,0.111-0.001,0.222-0.001,0.333c0,0.272-0.001,0.544-0.003,0.816c0,0.341,0,0.682-0.002,1.023c0,0.318,0,0.637-0.003,0.954
	c0,0.203,0,0.406,0,0.606c0,0.021,0.003,0.041-0.004,0.06c-0.01,0.063-0.088,0.055-0.104,0.113
	c-0.021,0.061-0.006,0.096,0.058,0.092c0.008,0.049-0.039,0.092-0.067,0.117s-0.095,0.08-0.021,0.094
	c-0.002,0.029-0.021,0.054,0.025,0.043c0.002,0.017,0.006,0.027,0.014,0.041c0.065-0.021,0.035,0.104,0.03,0.129
	c0.037-0.004,0.074,0.021,0.088,0.062c0.009,0.021-0.002,0.053-0.012,0.066c-0.015,0.023-0.013,0.021-0.038,0.031
	c-0.001,0.021-0.001,0.037,0,0.058c0.041,0.011,0.062,0.08,0.064,0.122c0.004,0.02,0.01,0.042,0.006,0.062
	c-0.002,0.021-0.01,0.046-0.021,0.062c-0.007,0.011-0.019,0.007-0.022,0.019c-0.01,0.019-0.008,0.03-0.021,0.043
	c-0.017,0.013-0.037,0.007-0.054,0.021c-0.045,0.039-0.045,0.058-0.049,0.117c-0.008-0.002-0.021,0.006-0.027,0.004
	c0.002,0.01-0.004,0.021-0.001,0.025c-0.017,0.004-0.044,0.043-0.037,0.062c0.015,0.004,0.036,0.016,0.034,0.033
	c-0.002,0.021-0.026,0.019-0.043,0.021c-0.038,0.028-0.053,0.044-0.1,0.046c-0.002,0.012-0.002,0.025,0,0.039
	c0.002,0.003,0.033-0.001,0.037-0.001c-0.018,0.042-0.013,0.063-0.019,0.108c-0.046,0.004-0.095,0.023-0.113,0.072
	c-0.015,0.027,0.007,0.129-0.056,0.109c-0.002-0.021-0.004-0.059,0.002-0.079c-0.014,0.042-0.028,0.078-0.076,0.08
	c0.008-0.021,0.053-0.04,0.004-0.056c-0.035-0.01-0.057,0.025-0.05,0.062c0.056-0.001-0.017,0.094-0.032,0.034
	c-0.003,0.021,0.012,0.069,0.02,0.084c0.016,0.019,0.06,0.058,0.07,0.052c0.01,0.037-0.037,0.041-0.059,0.061
	c-0.008,0.008-0.025,0.049-0.031,0.051c-0.016,0.004-0.027-0.014-0.042-0.018c-0.038,0.043,0.073,0.008,0.093,0.008
	c0.006,0.033-0.004,0.033-0.021,0.051c-0.004,0.004-0.021-0.002-0.021,0.003c-0.019,0.01-0.025,0.055-0.031,0.071
	c-0.012,0-0.016-0.002-0.021-0.008c-0.015,0.006-0.021,0.021-0.021,0.037c0.021,0.02,0.037,0.029,0.025,0.062
	c-0.007-0.012-0.013-0.012-0.021-0.016c-0.003,0.021,0.006,0.049,0.004,0.067c-0.015-0.011-0.032-0.014-0.052-0.01
	c-0.008,0.06,0.035,0.039,0.065,0.053c0.009,0.04-0.067-0.005-0.1,0.011c0.011,0.043,0.03,0.077,0.075,0.088
	c0,0.014,0.002,0.061-0.021,0.053C65.453,54.072,65.467,54.049,65.459,54.039z"/>
</svg>
