<?xml version="1.0" encoding="utf-8"?>
<!-- Generator: Adobe Illustrator 16.0.4, SVG Export Plug-In . SVG Version: 6.00 Build 0)  -->
<!DOCTYPE svg PUBLIC "-//W3C//DTD SVG 1.1 Tiny//EN" "http://www.w3.org/Graphics/SVG/1.1/DTD/svg11-tiny.dtd">
<svg version="1.1" baseProfile="tiny" id="Layer_1" xmlns="http://www.w3.org/2000/svg" xmlns:xlink="http://www.w3.org/1999/xlink"
	 x="0px" y="0px" width="100px" height="100px" viewBox="0 0 100 100" xml:space="preserve">
<rect x="5" y="94" fill="#BBBBBB" width="95" height="2"/>
<rect x="4" y="1" fill="#BBBBBB" width="2" height="95"/>
<rect x="2" y="88" fill="#BBBBBB" width="4" height="2"/>
<rect x="2" y="80" fill="#BBBBBB" width="4" height="2"/>
<rect x="2" y="70" fill="#BBBBBB" width="4" height="2"/>
<rect x="2" y="60" fill="#BBBBBB" width="4" height="2"/>
<rect x="2" y="50" fill="#BBBBBB" width="4" height="2"/>
<rect x="2" y="40" fill="#BBBBBB" width="4" height="2"/>
<rect x="2" y="32" fill="#BBBBBB" width="4" height="2"/>
<rect x="2" y="22" fill="#BBBBBB" width="4" height="2"/>
<rect x="2" y="12" fill="#BBBBBB" width="4" height="2"/>
<rect x="2" y="2" fill="#BBBBBB" width="4" height="2"/>
<rect x="96" y="94" fill="#BBBBBB" width="2" height="4"/>
<rect x="88" y="94" fill="#BBBBBB" width="2" height="4"/>
<rect x="78" y="94" fill="#BBBBBB" width="2" height="4"/>
<rect x="68" y="94" fill="#BBBBBB" width="2" height="4"/>
<rect x="58" y="94" fill="#BBBBBB" width="2" height="4"/>
<rect x="48" y="94" fill="#BBBBBB" width="2" height="4"/>
<rect x="40" y="94" fill="#BBBBBB" width="2" height="4"/>
<rect x="30" y="94" fill="#BBBBBB" width="2" height="4"/>
<rect x="20" y="94" fill="#BBBBBB" width="2" height="4"/>
<rect x="10" y="94" fill="#BBBBBB" width="2" height="4"/>
<g>
	<rect x="90" y="88" fill="#BBBBBB" width="1" height="3"/>
	<rect x="90" y="82" fill="#BBBBBB" width="1" height="3"/>
	<rect x="90" y="76" fill="#BBBBBB" width="1" height="3"/>
	<rect x="90" y="64" fill="#BBBBBB" width="1" height="3"/>
	<rect x="90" y="70" fill="#BBBBBB" width="1" height="3"/>
	<rect x="90" y="58" fill="#BBBBBB" width="1" height="3"/>
	<rect x="90" y="52" fill="#BBBBBB" width="1" height="3"/>
	<rect x="90" y="46" fill="#BBBBBB" width="1" height="3"/>
	<rect x="90" y="34" fill="#BBBBBB" width="1" height="3"/>
	<rect x="90" y="40" fill="#BBBBBB" width="1" height="3"/>
	<rect x="90" y="28" fill="#BBBBBB" width="1" height="3"/>
	<rect x="90" y="22" fill="#BBBBBB" width="1" height="3"/>
	<rect x="90" y="10" fill="#BBBBBB" width="1" height="3"/>
	<rect x="90" y="16" fill="#BBBBBB" width="1" height="3"/>
	<rect x="90" y="4" fill="#BBBBBB" width="1" height="3"/>
</g>
<rect x="12" y="40" fill="#BBBBBB" width="6" height="53.079"/>
<rect x="9" y="31" fill="#BBBBBB" width="3" height="1"/>
<rect x="15" y="31" fill="#BBBBBB" width="3" height="1"/>
<rect x="21" y="31" fill="#BBBBBB" width="3" height="1"/>
<polygon fill="#BBBBBB" points="33,32 33,31 34.5,31 34.5,14 27,14 27,31 30,31 30,32 27,32 27,93.079 34.5,93.079 34.5,32 "/>
<rect x="39" y="31" fill="#BBBBBB" width="3" height="1"/>
<polygon fill="#BBBBBB" points="51,32 51,31 52.5,31 52.5,22 45,22 45,31 48,31 48,32 45,32 45,92.191 52.5,92.191 52.5,32 "/>
<rect x="63" y="31" fill="#BBBBBB" width="3" height="1"/>
<rect x="57" y="31" fill="#BBBBBB" width="3" height="1"/>
<path fill="#BBBBBB" d="M68,5.5v86.691h11V5.5H68z M72,32h-3v-1h3V32z M78,32h-3v-1h3V32z"/>
<rect x="87" y="31" fill="#BBBBBB" width="3" height="1"/>
<rect x="81" y="31" fill="#BBBBBB" width="3" height="1"/>
<rect x="93" y="31" fill="#BBBBBB" width="3" height="1"/>
</svg>
