<?xml version="1.0" encoding="utf-8"?>
<!-- Generator: Adobe Illustrator 16.0.4, SVG Export Plug-In . SVG Version: 6.00 Build 0)  -->
<!DOCTYPE svg PUBLIC "-//W3C//DTD SVG 1.1//EN" "http://www.w3.org/Graphics/SVG/1.1/DTD/svg11.dtd">
<svg version="1.1" id="Layer_1" xmlns="http://www.w3.org/2000/svg" xmlns:xlink="http://www.w3.org/1999/xlink" x="0px" y="0px"
	 width="100px" height="100px" viewBox="0 0 100 100" enable-background="new 0 0 100 100" xml:space="preserve">
<path id="path4" fill="#BBBBBB" d="M8.679,24.931c0.765,0.223,1.504,0.542,2.29,0.664c1.159,0.325,2.33,0.63,3.496,0.922
	c1.185,0.345,2.391,0.583,3.583,0.854c1.253,0.244,2.479,0.603,3.753,0.738c0.691,0.176,1.389,0.305,2.094,0.42
	c1.002,0.264,2.052,0.264,3.069,0.501c1.206,0.312,2.472,0.318,3.685,0.583c2.391,0.23,4.77,0.651,7.167,0.766
	c0.942,0.148,1.904,0.189,2.859,0.196c1.18,0.007,2.352,0.271,3.536,0.257c2.724,0.041,5.454,0.095,8.186,0.129
	c0-0.312,0.008-0.624,0.008-0.935c0.188,0.067,0.459,0.033,0.582,0.209c0.121,0.428,0.006,0.956,0.322,1.314
	c0.416,0.129,0.855,0.17,1.288,0.258c0.027,0.088,0.062,0.176,0.097,0.264c0.365,0.02,0.597-0.332,0.947-0.332
	c0.657,0.135,1.18,0.792,1.902,0.616c-0.014,0.061-0.023,0.115-0.04,0.169c0.405,0.108,0.711,0.521,1.165,0.434
	c0.266-0.149,0.516-0.332,0.793-0.46c0.107,0.122,0.162,0.379,0.366,0.365c0.331-0.013,0.655-0.06,0.987-0.081
	c0.006,0.068,0.021,0.142,0.026,0.217c0.312,0,0.624-0.027,0.929-0.061c-0.353,0.216-0.67,0.487-1.062,0.629
	c-0.517,0.142-1.003,0.427-1.375,0.807c-0.354,0.149-0.388,0.583-0.681,0.793c-0.397,0.291-0.744,0.637-1.131,0.941
	c0.217,0.142,0.502,0.298,0.754,0.169c0.242-0.121,0.506-0.209,0.758-0.311c0.236-0.088,0.398-0.312,0.65-0.359
	c0.062,0.055,0.121,0.122,0.162,0.197c-0.177,0.169-0.312,0.358-0.395,0.589c0.082,0.02,0.17,0.047,0.252,0.074
	c0.189-0.19,0.412,0.047,0.623,0.034c0.4-0.108,0.738-0.353,1.037-0.637c0.332-0.115,0.759-0.048,1.009-0.347
	c0.616-0.433,0.981-1.28,1.762-1.435c0.224-0.082,0.446-0.027,0.656,0.047c-0.162,0.115-0.358,0.176-0.556,0.21
	c-0.082,0.291-0.414,0.386-0.508,0.67c-0.104,0.244-0.172,0.507-0.226,0.766c0.194-0.176,0.396-0.359,0.583-0.535
	c0.014,0.034,0.048,0.102,0.062,0.129c0.229,0.033,0.502-0.007,0.705,0.142c0.235,0.196,0.371,0.495,0.59,0.711
	c0.234,0.054,0.474-0.02,0.688-0.094c-0.015,0.047-0.024,0.101-0.034,0.155c0.163,0.007,0.332,0.048,0.504,0.027
	c0.305-0.155,0.527-0.454,0.858-0.576c0.364-0.162,0.778-0.081,1.151-0.189c0.25-0.116,0.465-0.271,0.726-0.359
	c-0.015,0.25-0.021,0.515-0.041,0.766c0.558,0.128,1.058-0.17,1.571-0.318c0.014,0.182,0.033,0.556,0.047,0.738
	c0.097,0.23,0.265,0.42,0.398,0.631c-0.406,0.081-0.858-0.176-1.238,0.061c-0.107,0.074-0.229,0.128-0.353,0.047
	c-0.096,0-0.19,0-0.286,0c0-0.027,0-0.081,0-0.108c-0.088,0.02-0.175,0.034-0.263,0.047c-0.008-0.034-0.008-0.095-0.008-0.122
	c-0.148,0.021-0.291,0.041-0.427,0.061c-0.088,0.095-0.17,0.19-0.258,0.284c-0.388,0.014-0.752,0.122-1.14,0.163
	c-0.015,0.162,0.056,0.359-0.062,0.495c-0.148,0.061-0.285-0.034-0.414-0.095c-0.188,0.075-0.373,0.149-0.562,0.23
	c-0.054-0.095-0.112-0.189-0.176-0.285c-0.179,0.718-0.517,1.369-0.833,2.026c-0.325,0.379-0.488,0.853-0.562,1.334
	c0.527-0.379,0.771-1.003,1.192-1.483c0.147-0.217,0.271-0.46,0.485-0.624c-0.021,0.305-0.103,0.61-0.25,0.874
	c-0.258,0.542-0.453,1.125-0.534,1.728c0.055,0.088,0.062,0.176,0.108,0.277c-0.326,0.068-0.332,0.427-0.258,0.699
	c0.065,0.48-0.162,0.914-0.203,1.381c0.041,0.433,0.183,0.854,0.17,1.287c0.02,0.007,0.061,0.007,0.073,0.014
	c-0.009,0.061-0.021,0.128-0.032,0.196c0.023,0,0.088,0.007,0.112,0.014c0.062,0.407-0.194,0.928,0.116,1.267
	c0.257,0.311,0.345,0.705,0.479,1.077c0.277,0.027,0.582,0.142,0.854,0.027c0.312-0.162,0.569-0.393,0.812-0.637
	c-0.013-0.318,0.098-0.617,0.267-0.881c0.229-0.365,0.147-0.82,0.143-1.232c-0.048-0.352-0.055-0.739-0.265-1.044
	c-0.225-0.345-0.325-0.745-0.48-1.117c0.155-0.386,0.137-0.792,0.062-1.186c0.065-0.108,0.136-0.216,0.188-0.332
	c0.006-0.006,0.012-0.02,0.021-0.027c0.089-0.318,0.113-0.677-0.062-0.968c0.17-0.075,0.312-0.217,0.312-0.42
	c0-0.278,0.271-0.379,0.494-0.46c0.066-0.169,0.128-0.339,0.176-0.516c0.062,0.021,0.123,0.034,0.184,0.055
	c-0.089,0.311-0.136,0.629-0.121,0.955c0.176-0.149,0.475-0.257,0.338-0.57c0.049-0.23-0.065-0.507,0.076-0.718
	c0.17-0.203,0.461-0.19,0.705-0.217c-0.212-0.115-0.559-0.23-0.482-0.534c0.17-0.183,0.346-0.407,0.604-0.448
	c0.168,0.013,0.312,0.129,0.445,0.224c0.155-0.013,0.305-0.034,0.468-0.047c0.34,0.426,0.889,0.549,1.402,0.617
	c0.216,0.183,0.345,0.46,0.475,0.71c-0.04-0.006-0.115-0.02-0.154-0.02c-0.068-0.061-0.149-0.101-0.23-0.142
	c-0.014,0.095-0.014,0.196-0.021,0.292c0.549,0.264,0.543,0.942,0.414,1.457c-0.203,0.298-0.346,0.636-0.476,0.983
	c-0.114-0.007-0.229-0.007-0.339-0.014c-0.014,0.305-0.006,0.617,0.148,0.888c0.129-0.014,0.258,0,0.375-0.048
	c0.33-0.277,0.316-0.833,0.735-1.016c0.21-0.095,0.453-0.338,0.679-0.142c0.225,0.25,0.354,0.59,0.394,0.921
	c0.014,0,0.054,0,0.067,0.007c-0.016,0.088-0.026,0.176-0.033,0.264c0.026,0,0.082,0,0.105,0.007
	c-0.013,0.088-0.023,0.176-0.04,0.264c0.021,0,0.068,0,0.097,0.007c0,0.074,0,0.148,0.008,0.223c0.312,0.487,0.353,1.07,0.356,1.632
	c-0.088,0.061-0.169,0.135-0.258,0.183c-0.088-0.088-0.147-0.19-0.224-0.285c-0.088,0.298-0.178,0.59-0.236,0.895
	c-0.088-0.007-0.177-0.007-0.266-0.007c-0.008,0.23-0.008,0.454-0.008,0.685c-0.338,0.176-0.365,0.576-0.371,0.908
	c0.371,0.074,0.744,0.155,1.109,0.243c0.252,0.061,0.447,0.271,0.705,0.284c0.299-0.101,0.575-0.236,0.874-0.345
	c0.569-0.189,0.921-0.725,1.408-1.05c0.562-0.468,1.302-0.684,1.815-1.219c0.521-0.487,1.191-0.894,1.478-1.579
	c0.089-0.02,0.177-0.034,0.265-0.047c-0.074-0.23-0.143-0.529-0.435-0.57c-0.06-0.23-0.128-0.467-0.216-0.69
	c0.508-0.156,0.988-0.414,1.518-0.475c0.413-0.061,0.832,0,1.227,0.108c0.395-0.399,1.146-0.155,1.401-0.725
	c0.196-0.196,0.44-0.331,0.632-0.528c0.033-0.237-0.082-0.46-0.13-0.691c0.041-0.007,0.13-0.027,0.177-0.034
	c-0.156-0.21-0.373-0.366-0.623-0.434c0.195-0.542,0.656-0.908,0.969-1.375c0.324-0.514,0.609-1.152,1.227-1.355
	c0.658-0.204,1.362-0.224,2.014-0.46c0.854-0.338,1.756-0.542,2.654-0.718c0.227-0.061,0.488-0.041,0.69-0.156
	c0.149-0.264,0.188-0.569,0.265-0.854c0.109,0.055,0.21,0.122,0.312,0.183c0.026-0.101,0.047-0.21,0.082-0.311
	c0.101,0.054,0.209,0.108,0.316,0.162c0.055-0.292,0.143-0.583,0.188-0.887c0.068-0.306,0.4-0.509,0.414-0.827
	c-0.184-0.413-0.312-0.894-0.096-1.314c0.186-0.333-0.041-0.718,0.115-1.057c0.137-0.304,0.271-0.603,0.357-0.928
	c0.008,0,0.021-0.007,0.035-0.014c0.062-0.338,0.217-0.644,0.338-0.962c0.306,0.115,0.381,0.501,0.713,0.583
	c0.143-0.264,0.373-0.487,0.656-0.603c0.006-0.054,0.015-0.102,0.021-0.149c0.366,0.122,0.72,0.306,1.071,0.468
	c-0.008,0.068-0.014,0.129-0.021,0.196c0.027,0,0.075,0,0.102,0c-0.012,0.068-0.024,0.136-0.039,0.204c0.033,0,0.089,0,0.115,0.007
	c-0.015,0.088-0.033,0.176-0.047,0.264c0.025,0,0.08,0,0.106,0c-0.015,0.068-0.026,0.135-0.04,0.203c0.025,0,0.08,0,0.107,0
	c-0.015,0.068-0.027,0.136-0.041,0.203c0.026,0,0.082,0,0.108,0c-0.015,0.068-0.026,0.136-0.041,0.204c0.033,0,0.088,0,0.115,0.007
	c-0.017,0.088-0.034,0.176-0.05,0.264c0.027,0,0.082,0,0.109,0c-0.015,0.068-0.027,0.135-0.041,0.203c0.026,0,0.082,0,0.107,0
	c-0.014,0.068-0.025,0.135-0.034,0.203c0.015,0,0.056,0.007,0.067,0.007c0.096,0.284,0.162,0.568,0.244,0.854
	c0.021,0.102,0.041,0.209,0.055,0.312c0.236,0.034,0.475,0.068,0.719,0.095c0.114,0.406,0.155,0.908,0.596,1.097
	c-0.033-0.123-0.074-0.245-0.106-0.366c0.364,0.142,0.725,0.419,0.825,0.82c-0.006,0.324-0.271,0.569-0.549,0.698
	c-0.439,0.209-0.649,0.664-1.004,0.975c-0.013-0.095-0.02-0.182-0.024-0.277c-0.332-0.109-0.48,0.243-0.704,0.399
	c-0.008,0.095-0.008,0.19-0.008,0.284c-0.131-0.013-0.252-0.02-0.373-0.034c0,0.034,0,0.103,0,0.136
	c-0.047-0.217-0.188-0.372-0.397-0.44c0.183,0.333,0.161,0.705,0.048,1.063c0.041,0.007,0.12,0.021,0.161,0.028
	c-0.265,0.311-0.614,0.534-0.913,0.819c-0.104,0.061-0.197,0.136-0.307,0.19c-0.135,0.108-0.266-0.054-0.387-0.102
	c-0.102,0.17-0.276,0.339-0.195,0.55c0.047,0.108,0,0.209-0.075,0.297c-0.088,0.529-0.224,1.051-0.323,1.573
	c-0.082,0.27,0.065,0.487,0.188,0.698c-0.034,0.291-0.346,0.568-0.135,0.867c0.101,0.217,0.371,0.054,0.533,0.142
	c0.236,0.298,0.414,0.631,0.59,0.969c0.17-0.007,0.347-0.007,0.517-0.007c0.147-0.122,0.29-0.243,0.446-0.365
	c0.048,0.122,0.103,0.237,0.154,0.358c-0.332,0.048-0.637,0.197-0.955,0.292c-0.078,0.126-0.153,0.261-0.242,0.383
	c-0.041-0.169-0.129-0.326-0.271-0.44c-0.024,0.075-0.047,0.156-0.073,0.237c-0.066,0-0.127,0-0.189,0.007
	c0.021,0.102,0.042,0.203,0.068,0.305c-0.236,0.148-0.48,0.297-0.767,0.324c-0.048,0.333-0.405,0.374-0.631,0.55
	c-0.356,0.27-0.832,0.277-1.237,0.44c-0.226,0.088-0.455,0.121-0.691,0.162c-0.196,0.027-0.258,0.244-0.359,0.386
	c-0.264,0.149-0.486,0.358-0.752,0.508c-0.041,0.19-0.081,0.373-0.121,0.555c0.17-0.162,0.312-0.358,0.508-0.494
	c0.225-0.013,0.469,0.082,0.68-0.04c0.379-0.23,0.928-0.257,1.062-0.766c0.172,0.02,0.333,0.041,0.495,0.068
	c-0.202,0.514-0.718,0.704-1.098,1.05c-0.271,0.216-0.59,0.379-0.907,0.521c-0.461,0.135-1.043,0.189-1.313,0.657
	c0.155-0.02,0.312-0.034,0.469-0.054c0.135,0.739,0.257,1.532-0.034,2.25c-0.177,0.46-0.521,0.84-0.603,1.341
	c-0.021,0.225-0.179,0.372-0.354,0.481c-0.015-0.196-0.015-0.386-0.015-0.576c-0.299-0.074-0.631-0.115-0.867-0.324
	c-0.186-0.176-0.348-0.367-0.551-0.516c-0.012,0.102-0.021,0.203-0.024,0.312c0.112,0.162,0.257,0.311,0.46,0.351
	c0.156,0.279,0.257,0.59,0.406,0.875c0.137,0.108,0.312,0.169,0.475,0.243c0.074,0.312,0.271,0.589,0.257,0.922
	c0.062,0.623-0.282,1.158-0.589,1.66c-0.062,0.568-0.025,1.191-0.305,1.714c-0.178,0.007-0.278-0.176-0.354-0.305
	c-0.066-0.556,0.176-1.064,0.271-1.593c-0.096-0.373-0.389-0.656-0.664-0.907c-0.008,0.047-0.021,0.129-0.026,0.176
	c-0.155-0.007-0.317-0.007-0.479-0.013c-0.102-0.252-0.203-0.51-0.283-0.766c0.107-0.035,0.209-0.076,0.311-0.109
	c-0.143-0.094-0.297-0.162-0.433-0.258c0.04-0.195,0.196-0.357,0.216-0.562c-0.074-0.163-0.203-0.292-0.318-0.427
	c0.09-0.184,0.123-0.388,0.149-0.591c-0.034,0.007-0.096,0.021-0.129,0.027c-0.108,0.198-0.265,0.367-0.347,0.583
	c0.048,0.17,0.17,0.332,0.123,0.522c-0.217,0.603,0.306,1.097,0.447,1.639c0.055,0.156-0.062,0.285-0.138,0.399
	c-0.021-0.04-0.047-0.121-0.062-0.163c-0.107,0.014-0.217,0.034-0.325,0.048c-0.007-0.034-0.007-0.109-0.015-0.143
	c-0.209,0.055-0.42,0.095-0.623,0.162c0.365,0.088,0.767-0.014,1.092,0.217c0.195,0.108,0.421,0.197,0.568,0.379
	c0.014,0.197-0.041,0.393-0.103,0.576c0.056-0.008,0.108-0.015,0.169-0.021c0.049,0.265,0.104,0.528,0.162,0.786
	c-0.128-0.082-0.256-0.17-0.396-0.245c0.153,0.347,0.352,0.671,0.604,0.962c-0.098,0.055-0.293,0.061-0.358,0.102
	c-0.056-0.277-0.3-0.399-0.536-0.494c0.129,0.365,0.405,0.644,0.754,0.799c0.006-0.068,0.021-0.135,0.024-0.203
	c0.204-0.061,0.406-0.135,0.616-0.189c0.054,0.217,0.121,0.434,0.265,0.617c0.293,0.398,0.47,0.859,0.704,1.293
	c-0.047,0.049-0.094,0.088-0.135,0.137c-0.186-0.097-0.381-0.178-0.575-0.252c-0.299,0.367-0.908,0.354-1.069,0.834
	c0.217,0.006,0.394-0.123,0.562-0.252c-0.021,0.068-0.048,0.138-0.062,0.211c0.291-0.285,0.717-0.258,1.084-0.354
	c0.088,0.075,0.147,0.178,0.217,0.271c0.203,0.143,0.17,0.397,0.188,0.623c-0.136,0.041-0.276,0.065-0.394,0.146
	c-0.067,0.189-0.067,0.407-0.155,0.59c-0.122,0.062-0.267,0.068-0.394,0.088c-0.137,0.016-0.277,0.027-0.414,0.041
	c0.009,0.027,0.015,0.09,0.015,0.115c0.034,0,0.104,0.007,0.137,0.016c-0.073,0.217-0.143,0.426-0.204,0.644
	c0.26,0.062,0.516,0.147,0.766,0.224c-0.129,0.305-0.235,0.678-0.588,0.766c0-0.047-0.006-0.135-0.015-0.176
	c-0.346,0.144-0.745,0.162-1.045,0.406c-0.256,0.352-0.677,0.557-0.914,0.928c-0.183,0.293-0.161,0.657-0.298,0.963
	c-0.154,0.236-0.486,0.185-0.718,0.291c-0.325,0.177-0.688,0.291-0.949,0.562c-0.257,0.338-0.372,0.759-0.379,1.178
	c0.055,0.428-0.308,0.812-0.718,0.834c-0.068,0.325-0.34,0.534-0.551,0.766c-0.297,0.365-0.703,0.623-1.057,0.93
	c0.034,0.006,0.114,0.014,0.156,0.014c0,0.041,0,0.114-0.008,0.147c-0.277,0.212-0.609,0.422-0.684,0.787
	c-0.082,0.353-0.359,0.622-0.4,0.987c-0.088,0.697-0.48,1.349-0.394,2.072c0.048,0.842,0.446,1.6,0.718,2.379
	c0.148,0.447,0.461,0.812,0.686,1.219c0.447,0.631,1.057,1.141,1.463,1.811c-0.066,0.008-0.136,0.021-0.203,0.025
	c0.047,0.348,0.081,0.705,0.293,0.996c0.399,0.558,0.758,1.146,1.069,1.756c0.813,0.996,0.583,2.353,0.696,3.543
	c-0.08-0.034-0.154-0.062-0.235-0.088c-0.028,0.291-0.265,0.679,0.013,0.908c-0.115,0.209-0.271,0.394-0.459,0.533
	c-0.238,0.156-0.537,0.129-0.808,0.156c-0.015,0.054-0.033,0.115-0.048,0.169c-0.082,0-0.156,0-0.237,0
	c-0.007,0.041-0.026,0.114-0.041,0.149c-0.338-0.217-0.202-0.664-0.364-0.982c-0.218-0.264-0.42-0.555-0.679-0.792
	c-0.21,0.021-0.399,0.088-0.597,0.142c-0.188-0.25-0.284-0.548-0.364-0.847c-0.067-0.265-0.332-0.394-0.509-0.575
	c-0.229-0.265-0.225-0.645-0.25-0.969c-0.088-0.034-0.176-0.062-0.258-0.096c0.006,0.203,0.014,0.406,0.02,0.607
	c-0.244-0.135-0.434-0.353-0.555-0.603c-0.196-0.399-0.569-0.679-0.813-1.043c0.265-0.312,0.487-0.673,0.562-1.084
	c-0.241-0.021-0.485-0.062-0.729-0.089c0.026,0.067,0.056,0.144,0.081,0.216c0.081-0.007,0.169-0.013,0.251-0.013
	c-0.041,0.162-0.073,0.33-0.106,0.494c-0.455-0.271-0.373-0.841-0.476-1.287c0.021,0,0.056,0,0.074,0
	c0.103-0.557,0.153-1.18-0.144-1.681c-0.088-0.155-0.148-0.325-0.203-0.501c-0.062,0.006-0.129,0.02-0.188,0.025
	c0-0.025,0-0.073,0-0.094c-0.088,0.006-0.176,0.021-0.265,0.032c-0.01-0.014-0.01-0.048-0.01-0.062
	c-0.418,0.015-0.562-0.453-0.92-0.582c-0.066-0.354-0.406-0.502-0.629-0.73c-0.365-0.398-0.971-0.529-1.478-0.398
	c-0.048,0.147-0.062,0.346-0.244,0.386c-0.299,0.104-0.522,0.333-0.69,0.597c-0.326,0.068-0.658,0.145-0.988,0.17
	c0,0.026,0,0.08,0,0.107c-0.088-0.188-0.108-0.428-0.284-0.562c-0.542-0.332-1.104-0.658-1.734-0.787
	c0-0.014-0.007-0.041-0.007-0.054c-0.075-0.007-0.148-0.014-0.225-0.021c-0.582-0.09-1.172,0.102-1.74,0.195
	c-0.59,0.147-1.139,0.475-1.764,0.461c0.146-0.067,0.285-0.121,0.436-0.185c-0.146-0.358-0.305-0.726-0.596-0.996
	c-0.041,0.3-0.115,0.624-0.34,0.841c-0.357,0.122-0.744,0.244-1.125,0.155c-0.184-0.024-0.379-0.144-0.562-0.041
	c-0.217,0.122-0.467,0.067-0.696,0.089c-0.127,0.163-0.184,0.387-0.365,0.501c-0.25,0.169-0.604,0.318-0.549,0.705
	c0.137,0.015,0.276,0.025,0.42,0.034c0.066-0.156,0.143-0.312,0.217-0.461c0.088,0.025,0.185,0.047,0.271,0.072
	c0.015,0.09,0.033,0.178,0.048,0.266c0.062,0,0.129,0.008,0.195,0.008c-0.088,0.122-0.154,0.284-0.291,0.359
	c-0.129,0.105-0.387,0.119-0.455,0.297c-0.135,0.227,0.122,0.445,0.312,0.521c0.412,0.088,0.895,0.137,1.181,0.496
	c-0.067,0.312-0.407,0.467-0.698,0.323c-0.197-0.42-0.719-0.394-1.092-0.542c0.014-0.129,0.021-0.257,0.034-0.387
	c-0.365,0.008-0.542,0.447-0.479,0.759c-0.082,0.067-0.162,0.144-0.238,0.211c-0.014,0.007-0.047,0.007-0.062,0.007
	c-0.04-0.107-0.081-0.225-0.147-0.316c-0.244-0.008-0.479,0.074-0.719,0.105c-0.015,0.131-0.025,0.26-0.049,0.389
	c-0.548,0.033-1.021-0.291-1.51-0.51c0.102-0.107,0.197-0.217,0.298-0.324c-0.229-0.082-0.46-0.155-0.685-0.229
	c-0.047-0.155-0.088-0.312-0.129-0.468c-0.196-0.088-0.414-0.108-0.568,0.061c-0.143-0.386-0.596-0.135-0.698,0.156
	c0.144,0.04,0.285,0.081,0.429,0.129c-0.123,0.088-0.244,0.176-0.367,0.251c-0.006-0.034-0.006-0.108-0.006-0.144
	c-0.373,0.115-0.787,0.137-1.119-0.088c-0.311-0.108-0.621-0.226-0.936-0.348c-0.393-0.08-0.783,0.028-1.178,0.068
	c-0.115,0.041-0.23,0.088-0.34,0.148c-0.338,0.103-0.696,0.162-1.016,0.317c-0.271,0.129-0.604,0.19-0.768,0.467
	c-0.114,0.185-0.298,0.285-0.467,0.388c-0.51,0.3-0.86,0.812-1.396,1.069c-0.623,0.373-1.355,0.576-1.877,1.099
	c-0.244,0.203-0.543,0.317-0.779,0.527c-0.041,0.008-0.075,0.014-0.115,0.021c0,0.054,0.007,0.107,0.007,0.162
	c-0.487,0.447-0.752,1.062-1.058,1.64c-0.17,0.291-0.196,0.638-0.243,0.969c0,0.291,0.088,0.583,0.102,0.874
	c0.013,0.008,0.048,0.014,0.068,0.014c0,0.067,0,0.145,0.006,0.219c0.149,0.264,0.163,0.574,0.21,0.874
	c0.217,0.21,0.006,0.644-0.305,0.526c-0.454-0.143-0.848-0.461-1.342-0.515c-0.006,0.04-0.014,0.128-0.021,0.169
	c-0.379-0.122-0.69-0.387-1.071-0.527c-0.379-0.096-0.684-0.373-1.07-0.446c-0.291-0.048-0.291-0.421-0.365-0.632
	c-0.088-0.379-0.291-0.711-0.508-1.028c0.033,0,0.107,0,0.143,0c-0.014-0.155-0.021-0.312-0.021-0.46
	c-0.094-0.034-0.183-0.068-0.271-0.107c0.033-0.008,0.095-0.033,0.122-0.041c0.007-0.203,0.176-0.486-0.041-0.631
	c-0.217-0.162-0.516-0.229-0.671-0.474c-0.177-0.271-0.291-0.591-0.46-0.867c-0.088-0.17-0.346-0.156-0.428-0.325
	c-0.189-0.705-0.48-1.376-0.793-2.031c-0.379-0.568-0.894-1.029-1.313-1.572c-0.474-0.135-0.969-0.236-1.464-0.264
	c-0.209-0.027-0.379-0.178-0.548-0.3c-0.041,0.062-0.082,0.13-0.122,0.197c-0.345,0.04-0.752,0.169-0.88,0.526
	c-0.189,0.535-0.508,1.028-0.921,1.416c-0.501-0.211-0.935-0.541-1.348-0.875c-0.604-0.256-1.159-0.703-1.43-1.307
	c-0.169-0.414-0.108-0.881-0.197-1.314c-0.115-0.394-0.305-0.766-0.583-1.075c-0.149-0.218-0.454-0.229-0.657-0.396
	c-0.447-0.365-0.731-0.881-1.077-1.341c-0.081-0.136-0.251-0.155-0.379-0.196c-0.156-0.265-0.265-0.562-0.447-0.807
	c-0.088-0.121-0.264-0.066-0.393-0.089c0-0.021,0-0.06,0-0.081c-0.183,0.016-0.359,0.027-0.542,0.041c0-0.025,0-0.081,0-0.115
	c-0.183,0.021-0.359,0.034-0.542,0.049c0-0.026,0-0.082,0-0.115c-0.156,0.021-0.318,0.025-0.468,0.049
	c-0.007-0.028-0.007-0.09-0.007-0.116c-0.156,0.015-0.318,0.026-0.467,0.048c-0.007-0.025-0.007-0.081-0.014-0.104
	c-0.115-0.014-0.237-0.025-0.359-0.038c-0.17-0.009-0.346-0.009-0.515-0.009c0-0.032,0-0.096,0-0.129
	c-0.075,0.033-0.142,0.067-0.21,0.104c-0.054,0.357-0.108,0.718-0.169,1.077c-0.115-0.034-0.224-0.068-0.332-0.104
	c-0.515,0-1.03-0.088-1.552-0.128c-0.467-0.048-0.908-0.278-1.396-0.21c0-0.027,0-0.074,0-0.102
	c-0.183,0.021-0.359,0.033-0.542,0.047c0-0.026,0-0.081,0-0.114c-0.183,0.021-0.359,0.033-0.542,0.048c0-0.027,0-0.082-0.007-0.115
	c-0.128,0.015-0.251,0.026-0.379,0.033c-0.006-0.021-0.02-0.074-0.027-0.096c-0.108,0.016-0.217,0.027-0.332,0.049
	c0-0.033,0-0.089,0-0.115c-0.108,0.015-0.224,0.026-0.332,0.047c-0.007-0.025-0.007-0.072-0.007-0.103
	c-0.447,0.103-0.751-0.224-1.111-0.399c-0.752-0.475-1.538-0.887-2.297-1.354c-0.237-0.154-0.495-0.285-0.745-0.407
	c-0.921-0.515-1.782-1.138-2.71-1.646c-0.209-0.156-0.474-0.23-0.657-0.42c0.088-0.108,0.189-0.211,0.271-0.332
	c-0.156-0.163-0.4-0.122-0.603-0.114c-0.007-0.021-0.007-0.062-0.014-0.089c-0.149,0.021-0.305,0.027-0.461,0.048
	c-0.006-0.026-0.006-0.082-0.013-0.103c-1.233,0.061-2.453-0.203-3.665-0.381c-0.115-0.759,0.068-1.673-0.508-2.274
	c-0.312-0.358-0.515-0.896-1.029-0.996C7,62.708,6.885,62.674,6.783,62.607c0.02-0.17,0.082-0.332,0.129-0.488
	c-0.204-0.273-0.55-0.273-0.848-0.361c-0.603-0.148-0.508-0.941-1.023-1.188c-0.352-0.107-0.685-0.271-0.989-0.469
	c-0.231-0.08-0.495-0.053-0.739-0.111c-0.148-0.09-0.23-0.252-0.332-0.395c0.041,0,0.115-0.008,0.156-0.016
	c-0.014-0.088-0.034-0.176-0.047-0.264c0.02-0.008,0.068-0.008,0.088-0.008c0.047-0.406,0.203-0.826,0.074-1.232
	c-0.129-0.455-0.352-0.881-0.63-1.26c-0.251-0.324-0.217-0.758-0.339-1.131C2.195,55.252,1.7,55.049,1.7,54.574
	c0.027,0,0.088-0.006,0.122-0.006c0.014-0.149-0.047-0.346,0.122-0.42c0.122-0.136,0.427-0.21,0.353-0.439
	c-0.027-0.4-0.542-0.406-0.691-0.746c-0.426-0.576-0.189-1.273-0.006-1.884c0.081,0,0.163,0,0.25,0
	c-0.007,0.318-0.082,0.704,0.278,0.868c0.088-0.44-0.047-0.875-0.23-1.273c0.136-0.015,0.278-0.034,0.413-0.049
	c-0.102-0.107-0.21-0.216-0.325-0.318c-0.128,0.223-0.183,0.475-0.196,0.732c-0.25-0.129-0.488-0.298-0.644-0.535
	c-0.25-0.326,0-0.76-0.128-1.125c-0.176-0.455-0.414-0.895-0.718-1.28c-0.203-0.244-0.082-0.604-0.068-0.881
	c0.027-0.339,0.196-0.631,0.366-0.915c0.278-0.854-0.61-1.422-0.589-2.229c-0.007-0.284,0.23-0.454,0.427-0.61
	c0.291-0.352,0.596-0.717,0.718-1.165c0.25-0.568,0.156-1.212,0.366-1.788c-0.014-0.244-0.156-0.467-0.223-0.699
	c0.041-0.006,0.108-0.013,0.148-0.013c-0.02-0.108-0.034-0.223-0.054-0.332c0.027,0,0.082-0.007,0.109-0.007
	c-0.048-0.514-0.068-1.11,0.305-1.517C2.523,36.975,3.1,35.904,3.5,34.766c0.264-0.664,0.454-1.361,0.84-1.964
	c-0.007-0.061-0.007-0.122-0.014-0.183c0.027,0,0.075,0,0.102,0c-0.014-0.068-0.027-0.136-0.034-0.204c0.014,0,0.054,0,0.074,0
	c0.061-0.481,0.251-0.922,0.434-1.362c0.163-0.027,0.318-0.054,0.481-0.074c0.027-0.088,0.047-0.183,0.074-0.271
	c-0.122,0.034-0.25,0.081-0.379,0.088c-0.095-0.088-0.184-0.184-0.271-0.277c0.061-0.136,0.115-0.271,0.156-0.414
	c0.088,0.027,0.176,0.054,0.264,0.081c0.041-0.108,0.087-0.223,0.142-0.332c-0.115-0.143-0.25-0.277-0.318-0.447
	c0.041-0.21,0.257-0.285,0.447-0.305c-0.447-0.454-0.358-1.151-0.338-1.741c0.095-0.394-0.108-0.752-0.143-1.138
	c0.014-0.291,0.108-0.569,0.183-0.847c0.522,0.304,0.833,0.887,1.402,1.117c0.474,0.217,0.996,0.278,1.497,0.386
	c0.135-0.203,0.292-0.393,0.454-0.568c-0.068,0.25-0.143,0.501-0.169,0.766c0.21,0.162,0.359,0.385,0.528,0.588
	c-0.075-0.345-0.21-0.69-0.163-1.043c0.014-0.332,0.183-0.65,0.095-0.982C8.76,25.412,8.57,25.187,8.679,24.931z"/>
<path fill="#999999" d="M31.274,50.482c-0.108-0.02-0.285-0.072-0.439-0.21l-0.04,0.001c-0.136,0-0.342-0.011-0.548-0.111
	c-0.095-0.047-0.17-0.103-0.229-0.153h-0.373l-0.138-0.584c-0.014-0.063-0.025-0.128-0.032-0.194
	c-0.192-0.24-0.256-0.525-0.288-0.669c0-0.003-0.001-0.006-0.002-0.009l-0.232,0.036l-0.067-0.543
	c-0.155-0.175-0.206-0.364-0.219-0.511c-0.023-0.257,0.064-0.516,0.24-0.708c0.065-0.071,0.141-0.132,0.223-0.181
	c-0.046-0.065-0.08-0.121-0.11-0.18l-0.099-0.149c-0.14-0.211-0.174-0.404-0.195-0.519l-0.224-0.789
	c-0.038-0.038-0.069-0.074-0.096-0.103c0.021,0.023,0.051,0.045,0.085,0.064l-0.026-0.091l0.059-0.007l0.037-1.341
	c-0.436,0-0.688,0.36-0.706,0.562c0.004,0.019,0.039,0.158,0.157,0.29c0.082,0.087,0.151,0.12,0.165,0.125
	c-0.069-0.028-0.156-0.063-0.25-0.127c-0.123-0.088-0.199-0.171-0.249-0.226c-0.027-0.021-0.058-0.045-0.089-0.072
	c-0.103,0.048-0.235,0.091-0.395,0.091c-0.145,0-0.256-0.035-0.331-0.059l-0.467-0.147l-0.129-0.509
	c0.007,0.061,0.022,0.099,0.023,0.103c-0.03-0.064-0.065-0.141-0.094-0.229c-0.01-0.006-0.021-0.013-0.03-0.02
	c-0.119-0.084-0.198-0.18-0.252-0.261c-0.147-0.064-0.334-0.181-0.467-0.405c-0.068-0.027-0.141-0.061-0.216-0.106
	c-0.118-0.07-0.234-0.146-0.344-0.278l-0.127-0.001l-0.202-0.423c-0.009-0.014-0.058-0.058-0.093-0.089
	c-0.144-0.13-0.385-0.349-0.505-0.734c-0.092-0.302-0.168-0.58-0.15-0.852c0.023-0.333,0.157-0.609,0.408-0.845
	c0.063-0.059,0.123-0.241,0.176-0.402c0.051-0.155,0.104-0.311,0.171-0.458c0.064-0.18,0.147-0.416,0.347-0.6
	c-0.007-0.011-0.014-0.023-0.021-0.035c-0.186-0.319-0.155-0.586-0.096-0.753c0.037-0.105,0.092-0.198,0.165-0.277l-0.008-0.004
	c-0.049-0.027-0.092-0.058-0.129-0.091c-0.152-0.011-0.275-0.044-0.377-0.091c-0.147,0.201-0.364,0.348-0.615,0.416
	c-0.113,0.032-0.234,0.049-0.354,0.049c-0.364,0-0.692-0.154-0.924-0.432c-0.2-0.242-0.323-0.446-0.384-0.79
	c-0.112-0.161-0.246-0.372-0.26-0.66c-0.008-0.187,0.037-0.34,0.095-0.46c-0.054-0.147-0.076-0.29-0.088-0.396
	c-0.014-0.122-0.016-0.224-0.017-0.314c0-0.008,0.001-0.014,0.002-0.017c-0.028-0.031-0.057-0.061-0.089-0.093l-0.488-0.31
	c-0.137-0.087-0.261-0.173-0.333-0.242c-0.034-0.032-0.063-0.065-0.089-0.097l-0.06-0.018c-0.147-0.069-0.368-0.225-0.463-0.315
	c-0.184-0.169-0.263-0.381-0.306-0.521c-0.1-0.02-0.267-0.072-0.419-0.208c-0.186-0.16-0.261-0.363-0.296-0.507
	c-0.085-0.035-0.193-0.099-0.304-0.199c-0.111-0.1-0.195-0.208-0.265-0.309l-0.306,0.128l-0.233-0.811
	c-0.04-0.139-0.056-0.267-0.069-0.391c0.036,0.003,0.068,0.02,0.083,0.029c-0.104-0.069-0.301-0.203-0.414-0.475
	c-0.095-0.236-0.086-0.481-0.03-0.69c-0.047-0.097-0.086-0.211-0.114-0.345l0.371-0.168l0.038-0.06l-0.442,0.133
	c-0.086-0.195-0.178-0.41-0.234-0.614c-0.064-0.23-0.12-0.429-0.106-0.704c0.019-0.37,0.14-0.96,0.364-1.379
	c0.052-0.096,0.107-0.167,0.154-0.221l0.022-0.701l0.234-0.009c-0.26-0.439-0.043-0.848,0.042-0.98
	c0.237-0.366,0.617-0.435,0.779-0.464c0.042-0.011,0.081-0.02,0.117-0.027l0.02-0.022c0.168-0.159,0.37-0.25,0.597-0.269
	c0.016-0.125,0.046-0.236,0.089-0.333c0.021-0.322,0.116-0.687,0.562-0.949c0.022-0.017,0.078-0.091,0.118-0.145
	c0.046-0.062,0.093-0.125,0.144-0.185c0.028-0.061,0.037-0.325,0.041-0.468c0,0,0.004-0.108,0.003-0.112
	c-0.107-0.036-0.211-0.086-0.309-0.161c-0.337-0.257-0.594-0.68-0.655-1.08c-0.034-0.246-0.03-0.526,0.23-0.82
	c0.015-0.208,0.071-0.369,0.147-0.493c0.016-0.199,0.075-0.42,0.257-0.609c0.166-0.171,0.392-0.266,0.637-0.266H21
	c0,0,0.225,0.037,0.231,0.037c0.083,0.001,0.158,0.012,0.226,0.028c0.215-0.088,0.417-0.128,0.499-0.131h0.608
	c0.048-0.038,0.102-0.074,0.163-0.106c0.033-0.043,0.074-0.085,0.122-0.125l0.181-0.147l0.175-0.018
	c0.081-0.033,0.164-0.059,0.239-0.075c0.094-0.02,0.184-0.028,0.285-0.028c0.031,0,0.062,0.001,0.093,0.002
	c0.062-0.062,0.125-0.111,0.186-0.15c0-0.136,0.014-0.276,0.07-0.423c0.024-0.06,0.053-0.114,0.085-0.166
	c-0.005-0.073-0.002-0.154,0.013-0.242l0.08-0.469l0.454-0.126c0.036-0.039,0.078-0.078,0.128-0.114
	c0.024-0.017,0.047-0.032,0.071-0.046c0.008-0.135,0.035-0.283,0.108-0.433c-0.037-0.132-0.06-0.29-0.032-0.47l0.05-0.329
	c-0.119-0.115-0.195-0.241-0.251-0.337l-0.174-0.047c-0.616-0.154-1.032-0.649-1.062-1.253l-0.09-0.094
	c-0.213-0.118-0.358-0.249-0.456-0.379c-0.124-0.071-0.222-0.15-0.296-0.209c-0.318-0.255-0.591-0.678-0.437-1.126
	c0.091-0.264,0.35-0.547,0.805-0.552l15.719,0.083l0.17,0.748v-0.752l0.301,0.005l0.168,0.054c0.396,0.157,0.771,0.644,0.508,1.492
	l-0.017,0.054l-0.062,0.137c0.01,0.039,0.002,0.175-0.082,0.353c0.031,0.042,0.062,0.091,0.086,0.147
	c0.033,0.072,0.054,0.141,0.064,0.203c0.01,0.009,0.018,0.019,0.026,0.028c0.133,0.151,0.188,0.311,0.216,0.416
	c0.018,0.018,0.035,0.035,0.053,0.053c0.061,0.061,0.117,0.121,0.163,0.176c0.254,0.298,0.306,0.497,0.323,0.855
	c-0.001-0.021,0.002-0.028,0.007-0.028c0.007,0,0.019,0.018,0.026,0.035c0.068,0.115,0.158,0.272,0.203,0.479l0.018,0.076
	l0.003,0.054c0.03,0.051,0.062,0.115,0.084,0.19c0.062,0.188,0.056,0.358,0.047,0.465c0.017,0.036,0.031,0.066,0.046,0.1
	c0.084,0.068,0.174,0.165,0.245,0.304c0.079,0.155,0.114,0.312,0.142,0.427l0.018,0.081l0.008,0.116l-0.035,16.187
	c0.008,0.153,0.008,0.262-0.008,0.36c-0.041,0.246-0.148,0.422-0.266,0.548l0.021,0.095c0.072,0.39-0.09,0.704-0.262,0.921
	c0.016,0.016,0.029,0.033,0.043,0.05c0.135,0.17,0.188,0.363,0.2,0.558c0.139,0.13,0.241,0.293,0.299,0.479
	c0.101,0.314,0.011,0.616-0.056,0.772c0.068,0.143,0.121,0.309,0.158,0.498c0.025,0.131,0.053,0.312,0.03,0.504
	c-0.016,0.159-0.079,0.404-0.204,0.594l-0.137,0.204l-0.037,0.016c-0.042,0.063-0.104,0.137-0.188,0.206
	c-0.053,0.043-0.105,0.076-0.156,0.102l-0.018,0.48l0.021,0.092L40.94,39.02l-0.013,0.338l-0.211-0.061
	c-0.079,0.151-0.212,0.292-0.413,0.377c-0.008,0.096-0.013,0.156-0.021,0.226l-0.086,0.608l-0.457,0.027
	c-0.084,0.404-0.275,0.61-0.465,0.714c0.023,0.146,0.033,0.421-0.156,0.671c-0.012,0.221-0.103,0.466-0.375,0.665l-0.01,0.008
	c0.006,0.121-0.012,0.231-0.037,0.321l0.014,0.078l0.005,0.001l0.003,0.047l0.055,0.341l-0.123,0.166l-0.014,0.118
	c-0.003,0.062-0.009,0.119-0.02,0.172l-0.01,0.128c0.008,0.107,0.015,0.272-0.05,0.446l-0.003,0.035l-0.009-0.007
	c-0.019,0.046-0.043,0.094-0.074,0.14c-0.047,0.075-0.104,0.134-0.161,0.181c-0.023,0.068-0.06,0.139-0.109,0.21
	c-0.029,0.041-0.062,0.076-0.092,0.107c0,0,0.026,0.115,0.035,0.158c0.123,0.119,0.264,0.328,0.269,0.696
	c0.012,0.73-0.4,0.98-0.646,1.063c-0.108,0.038-0.233,0.06-0.366,0.06c-0.098,0-0.199-0.013-0.299-0.027
	c-0.091-0.005-0.263-0.006-0.283-0.006c-0.004,0-0.043,0-0.06,0l-0.021,0.025l-0.012,0.107l-0.127,0.048l-0.031,0.036l-0.094,0.011
	l-0.181,0.068c-0.072,0.027-0.146,0.047-0.218,0.059c-0.014,0.048-0.031,0.093-0.051,0.134c0.156,0.155,0.267,0.392,0.271,0.717
	l0.017,0.414c0.02,0.42-0.115,0.722-0.438,0.978c-0.094,0.076-0.307,0.246-0.619,0.273l-0.35,0.23l-0.56-0.59l-0.143-0.07
	c-0.091-0.045-0.164-0.098-0.222-0.146h-0.01c-0.438-0.001-0.686-0.226-0.813-0.383c-0.08-0.011-0.16-0.031-0.243-0.068
	c-0.075-0.033-0.16-0.076-0.246-0.121c-0.014-0.008-0.029-0.017-0.045-0.024c-0.039,0.055-0.084,0.108-0.139,0.16
	c-0.047,0.045-0.097,0.082-0.143,0.112c-0.033,0.088-0.074,0.162-0.11,0.222l0.138,0.101l-0.046,0.819l-0.162,0.091l0.003,0.422
	L31.274,50.482z"/>
<path fill="#FFFFFF" d="M23.1,10.744c0.456,0.001,0.912,0.004,1.369,0.006c1.134,0.007,2.266,0.013,3.399,0.019
	c1.426,0.008,2.851,0.015,4.276,0.023c1.34,0.007,2.678,0.014,4.02,0.021c0.875,0.005,1.75,0.009,2.625,0.013
	c0.007,0,0.014,0,0.02,0c0.053,0,0.104-0.002,0.154-0.002c0.031,0,0.064,0.001,0.098,0.003c0.004,0,0.006,0,0.01,0
	c0.016,0,0.035-0.003,0.054-0.003c0.01,0,0.021,0.001,0.026,0.004c0.185,0.073,0.127,0.398,0.072,0.575
	c-0.029,0.088-0.066,0.123-0.082,0.22c-0.018,0.114,0.002,0.161-0.059,0.263c-0.018,0.033-0.092,0.033-0.111,0.073
	c-0.018,0.038,0.002,0.153,0.002,0.192c0,0.144,0.01,0.191,0.061,0.294c0.031,0.065,0.13,0.132,0.15,0.18
	c0.031,0.07,0.002,0.147,0.025,0.223c0.029,0.103,0.113,0.112,0.182,0.191c0.068,0.077,0.055,0.159,0.09,0.239
	c0.062,0.138,0.232,0.272,0.328,0.389c0.139,0.163,0.143,0.197,0.154,0.419c0.018,0.23,0.209,0.399,0.254,0.605
	c0.012,0.057,0.002,0.123,0.012,0.182c0.021,0.1,0.088,0.136,0.107,0.199c0.055,0.171-0.039,0.309,0.043,0.48
	c0.043,0.086,0.061,0.116,0.09,0.199c0.035,0.097,0.014,0.1,0.084,0.175c0.047,0.052,0.119,0.037,0.172,0.139
	c0.039,0.077,0.062,0.194,0.082,0.279c0,0.482-0.004,0.964-0.004,1.445c-0.002,1.179-0.006,2.358-0.008,3.537
	c-0.004,1.477-0.006,2.955-0.01,4.433c-0.002,1.378-0.004,2.755-0.008,4.133c0,0.879-0.004,1.758-0.006,2.637
	c0,0.08,0.012,0.173,0,0.252c-0.048,0.281-0.382,0.225-0.472,0.488c-0.082,0.248-0.032,0.403,0.202,0.403c0.01,0,0.02,0,0.029-0.001
	c0.037,0.199-0.168,0.39-0.291,0.503c-0.129,0.118-0.409,0.35-0.096,0.406c-0.007,0.109-0.061,0.194,0.049,0.194
	c0.019,0,0.041-0.002,0.068-0.007c0.01,0.061,0.027,0.123,0.053,0.176c0.023-0.008,0.045-0.011,0.063-0.011
	c0.211,0,0.097,0.462,0.073,0.562c0.004,0,0.007,0,0.011,0c0.16,0,0.319,0.105,0.37,0.268c0.027,0.086-0.004,0.215-0.043,0.291
	c-0.053,0.108-0.047,0.098-0.168,0.146c-0.004,0.078-0.004,0.157,0,0.233c0.176,0.046,0.26,0.348,0.297,0.529
	c0.016,0.084,0.029,0.184,0.02,0.271c-0.008,0.077-0.043,0.199-0.084,0.261c-0.031,0.044-0.074,0.025-0.104,0.073
	c-0.048,0.07-0.041,0.135-0.104,0.188c-0.058,0.047-0.16,0.023-0.23,0.09c-0.184,0.173-0.189,0.243-0.199,0.521
	c-0.007-0.002-0.016-0.003-0.023-0.003c-0.026,0-0.059,0.009-0.086,0.009c-0.007,0-0.014,0-0.02-0.002
	c0.006,0.034-0.016,0.082-0.008,0.116c-0.061,0.018-0.184,0.185-0.162,0.278c0.062,0.012,0.156,0.063,0.148,0.142
	c-0.009,0.104-0.113,0.078-0.185,0.104c-0.162,0.062-0.222,0.133-0.418,0.143c-0.008,0.051-0.008,0.118,0,0.169
	c0.001,0.003,0.011,0.004,0.026,0.004c0.041,0,0.119-0.009,0.129-0.011c-0.073,0.181-0.051,0.281-0.077,0.478
	c-0.195,0.012-0.404,0.11-0.492,0.312c-0.053,0.122,0.015,0.497-0.185,0.497c-0.018,0-0.035-0.002-0.057-0.008
	c-0.006-0.11-0.016-0.239,0.01-0.345c-0.057,0.186-0.121,0.338-0.33,0.346c0.029-0.103,0.229-0.172,0.017-0.229
	c-0.019-0.005-0.034-0.007-0.05-0.007c-0.123,0-0.191,0.135-0.168,0.269c0.002,0,0.003,0,0.005,0c0.181,0,0.045,0.228-0.062,0.228
	c-0.033,0-0.062-0.022-0.08-0.081c-0.016,0.076,0.047,0.31,0.084,0.364c0.045,0.071,0.222,0.226,0.293,0.226
	c0.004,0,0.006,0,0.008,0c0.046,0.161-0.161,0.174-0.25,0.253c-0.026,0.025-0.11,0.204-0.133,0.212
	c-0.008,0.003-0.018,0.004-0.025,0.004c-0.057,0-0.105-0.053-0.157-0.069c-0.062,0.07-0.032,0.092,0.032,0.092
	c0.104,0,0.305-0.058,0.361-0.058h0.002c0.027,0.141-0.018,0.143-0.098,0.207c-0.008,0.005-0.018,0.007-0.029,0.007
	c-0.013,0-0.026-0.002-0.041-0.002c-0.013,0-0.023,0.002-0.032,0.008c-0.062,0.045-0.113,0.238-0.138,0.315
	c-0.008,0.001-0.015,0.001-0.021,0.001c-0.032,0-0.049-0.012-0.062-0.034c-0.06,0.022-0.099,0.084-0.09,0.155
	c0.098,0.076,0.161,0.14,0.114,0.273c-0.028-0.041-0.055-0.038-0.086-0.062c-0.01,0.105,0.022,0.216,0.019,0.305
	c-0.045-0.035-0.1-0.05-0.154-0.05c-0.021,0-0.043,0.002-0.064,0.007c-0.035,0.252,0.152,0.166,0.295,0.227
	c0.01,0.056-0.02,0.074-0.066,0.074c-0.079,0-0.209-0.049-0.303-0.049c-0.023,0-0.045,0.003-0.062,0.01
	c0.047,0.186,0.145,0.34,0.346,0.385c-0.006,0.046,0.004,0.226-0.074,0.226c-0.006,0-0.013-0.001-0.02-0.003
	c-0.074-0.023-0.018-0.125-0.051-0.163c-0.028-0.033-0.055-0.048-0.077-0.048c-0.05,0-0.077,0.077-0.056,0.188
	c0.093,0.042,0.1,0.133,0.199,0.133c0.014,0,0.028-0.001,0.047-0.005c-0.004,0.048,0.016,0.219-0.013,0.26
	c-0.036,0.059-0.143,0.046-0.188,0.102c-0.061,0.073-0.018,0.196-0.067,0.267c-0.049,0.067-0.14,0.065-0.211,0.104
	c-0.156,0.084-0.156,0.157-0.153,0.327c0,0.15-0.043,0.333,0.146,0.333c0.006,0,0.012,0,0.018,0c0.025,0.1,0.025,0.222,0.084,0.312
	c0.109,0.16,0.187,0.121,0.188,0.331c0.002,0.124,0.002,0.299-0.137,0.346c-0.041,0.014-0.084,0.019-0.127,0.019
	c-0.121,0-0.256-0.037-0.369-0.037c-0.008,0-0.017,0-0.023,0c-0.182,0.01-0.459-0.009-0.637,0.035
	c-0.207,0.052-0.049,0.081-0.156,0.203c-0.059,0.063-0.17-0.018-0.184,0.107c-0.041,0.016-0.073,0.021-0.104,0.021
	c-0.123,0-0.172-0.108-0.299-0.108c-0.012,0-0.021,0-0.032,0.002c-0.198,0.029-0.202,0.353-0.219,0.528
	c-0.015,0.152-0.031,0.134-0.125,0.237c-0.062,0.068-0.146,0.123-0.129,0.244c0.016,0.086,0.065,0.147,0.086,0.231
	c0.041,0.185,0.026,0.243,0.17,0.361c0.035-0.073,0.065-0.103,0.091-0.103c0.049,0,0.074,0.104,0.075,0.205
	c0.004,0.146,0.012,0.293,0.019,0.436c0.008,0.18-0.019,0.25-0.156,0.359c-0.082,0.065-0.154,0.114-0.24,0.114
	c-0.033,0-0.069-0.007-0.107-0.022l-0.043,0.027c-0.051-0.062-0.107-0.123-0.16-0.171c-0.098-0.094-0.205-0.133-0.322-0.19
	c-0.109-0.055-0.17-0.168-0.268-0.215c-0.029-0.013-0.066-0.017-0.109-0.017c-0.063,0-0.133,0.009-0.186,0.009
	c-0.001,0-0.003,0-0.004,0c-0.275-0.001-0.229-0.23-0.459-0.351c-0.032-0.017-0.073-0.019-0.115-0.019c-0.02,0-0.04,0-0.06,0
	c-0.04,0-0.078-0.002-0.109-0.018c-0.244-0.105-0.491-0.291-0.765-0.291c-0.062,0-0.125,0.009-0.19,0.031
	c-0.158,0.055-0.173,0.295-0.297,0.41c-0.07,0.066-0.19,0.102-0.253,0.164c-0.078,0.078-0.039,0.11-0.071,0.209
	c-0.047,0.147-0.151,0.211-0.192,0.363c-0.003,0.001-0.005,0.001-0.008,0.001c-0.008,0-0.014-0.003-0.019-0.009
	c0.002,0.104-0.1,0.167-0.067,0.271c0.034,0.113,0.208,0.149,0.219,0.301c0.005,0.08,0.055,0.018-0.033,0.082l0,0
	c-0.011,0-0.147,0.029-0.138,0.031c-0.128-0.022-0.133-0.142-0.133-0.289c-0.001,0-0.002,0-0.003,0
	c-0.205,0-0.129-0.184-0.215-0.278c-0.035-0.038-0.106-0.048-0.183-0.048c-0.078,0-0.162,0.011-0.216,0.012
	c-0.016,0.076,0.002,0.098,0.035,0.098c0.043,0,0.113-0.041,0.157-0.041c0.002,0,0.004,0,0.006,0
	c0.007,0.119,0.066,0.209,0.067,0.321c-0.04,0.002-0.083,0.004-0.129,0.004c-0.079,0-0.16-0.007-0.221-0.036
	c-0.107-0.053-0.193-0.229-0.33-0.229c-0.001,0-0.003,0-0.005,0c-0.026-0.116-0.033-0.275-0.007-0.395
	c-0.29-0.068-0.28-0.418-0.36-0.65c-0.056-0.165-0.069-0.313-0.122-0.479c-0.008,0.001-0.016,0.002-0.024,0.002
	c-0.034,0-0.071-0.009-0.104-0.009c-0.007,0-0.013,0-0.02,0.001c-0.019-0.147-0.175-0.11-0.188-0.257
	c-0.011-0.124,0.1-0.208,0.211-0.208c0.025,0,0.049,0.004,0.072,0.013c0.024-0.057,0.064-0.062,0.107-0.062c0.009,0,0.018,0,0.026,0
	c0.054,0,0.108-0.009,0.138-0.113c0.046-0.161,0.012-0.462-0.049-0.604c-0.06-0.138-0.166-0.24-0.232-0.37
	c-0.047-0.093-0.089-0.143-0.139-0.219c-0.086-0.13-0.071-0.227-0.116-0.385c0.006,0,0.013,0,0.02,0
	c0.035,0,0.069,0.003,0.101,0.003c0.056,0,0.103-0.009,0.13-0.059c0.069-0.13-0.067-0.231-0.149-0.275
	c-0.013-0.144-0.016-0.532-0.137-0.628c-0.052,0.025-0.098,0.036-0.14,0.036c-0.13,0-0.215-0.106-0.311-0.213
	c-0.11-0.125-0.206-0.093-0.386-0.103c0.054,0,0.062-0.342,0.009-0.401c-0.057-0.061-0.152-0.073-0.22-0.119
	c-0.091-0.065-0.15-0.169-0.243-0.229c-0.113-0.074-0.221-0.217-0.322-0.271c-0.043-0.024-0.085-0.034-0.125-0.034
	c-0.111,0-0.213,0.073-0.299,0.126c-0.083,0.051-0.123,0.07-0.165,0.07c-0.043,0-0.087-0.02-0.181-0.047
	c-0.014-0.124-0.13-0.254-0.119-0.381c0.007-0.089,0.083-0.176,0.162-0.18c0.021,0.021,0.046,0.038,0.08,0.038
	c0.003,0,0.005,0,0.008,0c-0.026-0.025-0.055-0.037-0.084-0.037c-0.001,0-0.002,0-0.003,0c-0.035-0.036-0.062-0.085-0.111-0.1
	c-0.012-0.003-0.025-0.005-0.039-0.005c-0.055,0-0.121,0.022-0.187,0.022c-0.042,0-0.084-0.008-0.125-0.037
	c-0.08-0.057-0.106-0.195-0.19-0.255c-0.091-0.062-0.24-0.053-0.312-0.18c-0.07-0.12-0.019-0.159-0.139-0.224
	c-0.097-0.052-0.216-0.069-0.332-0.14c-0.095-0.058-0.142-0.076-0.205-0.187c-0.05-0.084-0.057-0.196-0.181-0.197
	c-0.149-0.312-0.45-0.374-0.559-0.724c-0.051-0.167-0.128-0.417-0.118-0.579c0.011-0.162,0.078-0.259,0.172-0.348
	c0.3-0.279,0.344-0.722,0.516-1.095c0.08-0.172,0.086-0.332,0.236-0.401c0.145-0.068,0.133,0.043,0.188-0.14
	c0.022-0.068,0.013-0.142,0.014-0.213c0-0.083,0.052-0.315,0.033-0.38c-0.029-0.094-0.136-0.118-0.179-0.192
	c-0.116-0.199,0.055-0.152,0.16-0.245c0.088-0.08,0.086-0.275,0.192-0.362c0.051-0.039,0.09,0.015,0.132-0.067
	c0.014-0.026-0.003-0.224-0.018-0.245c-0.046-0.073-0.069-0.016-0.139-0.064c-0.101-0.069-0.12-0.227-0.213-0.289
	c-0.025-0.016-0.053-0.021-0.084-0.021c-0.048,0-0.102,0.013-0.151,0.013c-0.031,0-0.06-0.005-0.085-0.02
	c-0.039-0.021-0.049-0.105-0.086-0.131c-0.071-0.054-0.148-0.06-0.229-0.06c-0.023,0-0.047,0-0.071,0c-0.016,0-0.033,0-0.049-0.001
	c-0.227-0.011-0.181-0.092-0.336-0.213c-0.093-0.073-0.183-0.105-0.267-0.105c-0.18,0-0.33,0.148-0.411,0.354
	c-0.017,0.042,0.003,0.096-0.016,0.134c-0.045,0.09-0.134,0.151-0.232,0.178c-0.054,0.015-0.107,0.023-0.159,0.023
	c-0.135,0-0.257-0.053-0.347-0.162c-0.148-0.18-0.201-0.272-0.232-0.51c-0.026-0.183-0.23-0.314-0.239-0.496
	c-0.007-0.169,0.203-0.245,0.188-0.421c-0.007-0.09-0.061-0.113-0.104-0.188c-0.048-0.082-0.069-0.191-0.081-0.295
	c-0.037-0.325,0.043-0.466-0.166-0.707c-0.049-0.056-0.098-0.107-0.153-0.163c-0.086-0.087-0.138-0.115-0.233-0.173
	c-0.127-0.077-0.263-0.165-0.388-0.243c-0.059-0.038-0.161-0.099-0.213-0.148c-0.066-0.062-0.067-0.166-0.156-0.219
	c-0.048-0.03-0.148-0.013-0.202-0.037c-0.055-0.025-0.208-0.131-0.255-0.176c-0.108-0.1-0.113-0.294-0.18-0.401
	c-0.04-0.062-0.125-0.114-0.187-0.172c-0.071-0.065-0.044-0.065-0.15-0.104c-0.064-0.022-0.172-0.021-0.223-0.066
	c-0.112-0.097-0.051-0.288-0.168-0.421c-0.133-0.146-0.287-0.154-0.43-0.283c-0.166-0.148-0.256-0.384-0.405-0.555
	c-0.049-0.057-0.065-0.103-0.117-0.103c-0.017,0-0.037,0.005-0.063,0.016c-0.074-0.256-0.009-0.458-0.184-0.685
	c-0.083-0.108-0.195-0.113-0.244-0.231c-0.041-0.102,0.002-0.255,0.054-0.337c0.035,0.021,0.067,0.005,0.098,0.018
	c0.013-0.104-0.033-0.189-0.032-0.29c-0.234-0.026-0.195-0.286-0.268-0.452c-0.08-0.184-0.18-0.396-0.235-0.596
	c-0.044-0.164-0.089-0.286-0.08-0.466c0.016-0.315,0.128-0.787,0.277-1.064c0.052-0.095,0.105-0.119,0.169-0.2
	c0.09-0.114,0.067-0.202,0.072-0.354c0.027-0.001,0.056-0.002,0.085-0.002c0.11,0,0.225,0.015,0.296,0.103
	c0.035-0.162-0.089-0.279-0.081-0.452c0.006-0.149,0.092-0.353,0.05-0.505c-0.049-0.19-0.329-0.205-0.171-0.448
	c0.083-0.128,0.27-0.121,0.39-0.158c0.082-0.024,0.195-0.026,0.271-0.059c0.1-0.043,0.072-0.096,0.137-0.156
	c0.062-0.059,0.112-0.071,0.174-0.071c0.043,0,0.092,0.006,0.156,0.006c0.012,0,0.023,0,0.036,0
	c0.189-0.008,0.387-0.066,0.437-0.278c0.033-0.141-0.046-0.5,0.116-0.547c0.006-0.303-0.027-0.43,0.198-0.562
	c0.204-0.118,0.307-0.316,0.457-0.495c0.212-0.252,0.206-0.676,0.219-1.02c0.01-0.231-0.087-0.45-0.138-0.677
	c-0.144-0.032-0.356-0.039-0.466-0.123c-0.172-0.131-0.334-0.377-0.367-0.596c-0.015-0.106-0.018-0.141,0.065-0.227
	c0.102-0.106,0.108-0.023,0.15-0.191c0.042-0.171-0.052-0.406,0.167-0.455c0.007-0.165-0.054-0.451,0.147-0.451
	c0.016,0,0.033,0.001,0.053,0.005c0.02,0.048,0.049,0.062,0.083,0.062c0.051,0,0.113-0.031,0.168-0.031c0.001,0,0.002,0,0.003,0
	c0.104,0.002,0.177,0.082,0.266,0.122c0.049-0.085,0.385-0.221,0.49-0.226c0.036-0.001,0.072-0.002,0.107-0.002
	c0.072,0,0.144,0.002,0.215,0.002c0.135,0,0.27,0.002,0.405,0.002c0.081,0,0.162,0,0.243-0.003c0.007-0.22,0.2-0.207,0.319-0.285
	c0.017-0.011,0.018-0.094,0.041-0.113c0.016-0.014,0.07-0.006,0.092-0.02c0.051-0.028,0.133-0.058,0.189-0.07
	c0.039-0.008,0.082-0.011,0.125-0.011c0.088,0,0.181,0.011,0.261,0.011c0.001,0,0.001,0,0.002,0c0.195,0,0.213-0.058,0.33-0.195
	c0.088-0.104,0.162-0.122,0.306-0.17c0.028-0.009,0.046-0.011,0.061-0.011c0.009,0,0.016,0,0.021,0c0.018,0,0.026-0.006,0.052-0.058
	c0.032-0.065,0-0.226,0-0.297c0.001-0.1-0.02-0.241,0.015-0.33c0.042-0.103,0.116-0.084,0.154-0.14
	c0.088-0.133-0.045-0.241-0.016-0.414c0.081-0.022,0.178-0.005,0.237-0.048c0.066-0.048,0.06-0.132,0.13-0.184
	c0.037-0.027,0.148-0.038,0.197-0.063c0.064-0.035,0.131-0.088,0.157-0.153c0.065-0.173-0.035-0.389,0.066-0.56
	c0.042-0.072,0.101-0.081,0.117-0.162c0.032-0.16-0.123-0.315-0.094-0.501c0.059-0.014,0.115-0.021,0.177-0.022
	c0.014-0.202-0.082-0.297-0.117-0.468c-0.023-0.115,0.055-0.317-0.013-0.406c-0.04-0.052-0.168-0.039-0.217-0.086
	c-0.123-0.118-0.189-0.367-0.352-0.449c-0.045-0.023-0.153-0.046-0.192-0.06c-0.079-0.031-0.133-0.041-0.215-0.062
	c-0.275-0.069-0.512-0.287-0.5-0.621c0.002-0.085,0.041-0.128,0.011-0.215c-0.021-0.059-0.189-0.178-0.232-0.222
	c-0.105-0.109-0.16-0.191-0.3-0.267c-0.105-0.057-0.235-0.104-0.208-0.255c-0.155-0.021-0.294-0.137-0.404-0.225
	c-0.081-0.065-0.329-0.331-0.081-0.334C23.088,10.744,23.093,10.744,23.1,10.744 M31.409,49.744
	C31.411,49.744,31.411,49.744,31.409,49.744C31.411,49.744,31.411,49.744,31.409,49.744 M23.102,9.244H23.1h-0.017
	c-0.713,0.008-1.304,0.423-1.522,1.058c-0.235,0.683,0.02,1.429,0.665,1.946c0.066,0.053,0.154,0.124,0.263,0.196
	c0.099,0.11,0.218,0.214,0.359,0.307c0.159,0.698,0.674,1.278,1.387,1.527c-0.019,0.164-0.013,0.314,0.005,0.446
	c-0.001,0.004-0.003,0.009-0.004,0.014l-0.638,0.178l-0.16,0.938c-0.01,0.06-0.017,0.119-0.021,0.175
	c-0.01,0.021-0.02,0.043-0.028,0.064c-0.02,0.051-0.037,0.101-0.051,0.15c-0.011,0.002-0.022,0.004-0.034,0.006
	c-0.114,0.025-0.228,0.059-0.334,0.099c-0.234,0.059-0.443,0.167-0.625,0.323c-0.014,0.012-0.027,0.023-0.04,0.036l-0.078-0.001
	l-0.128-0.001c-0.056,0-0.112,0.001-0.168,0.003c-0.115,0.005-0.317,0.036-0.548,0.109c-0.03-0.003-0.06-0.005-0.091-0.006
	l-0.021-0.004c-0.125-0.025-0.239-0.034-0.342-0.034c-0.451,0-0.869,0.176-1.177,0.495c-0.278,0.288-0.396,0.612-0.443,0.886
	c-0.063,0.13-0.114,0.279-0.145,0.449c-0.344,0.521-0.276,1.018-0.251,1.199c0.087,0.576,0.413,1.141,0.86,1.517
	c-0.522,0.375-0.693,0.864-0.749,1.227c-0.114,0.053-0.223,0.118-0.326,0.196c-0.289,0.062-0.819,0.225-1.176,0.775
	c-0.128,0.198-0.221,0.428-0.262,0.673l-0.114,0.004l-0.037,1.165c-0.023,0.036-0.046,0.074-0.068,0.115
	c-0.285,0.534-0.434,1.239-0.457,1.707c-0.021,0.395,0.063,0.694,0.114,0.873l0.016,0.057c0.078,0.281,0.184,0.523,0.27,0.718
	c0.018,0.075,0.038,0.146,0.061,0.214c-0.037,0.284-0.013,0.593,0.11,0.897c0.087,0.213,0.203,0.378,0.316,0.504
	c0.014,0.083,0.033,0.171,0.061,0.266l0.467,1.621l0.591-0.249c0.055,0.047,0.108,0.088,0.159,0.124
	c0.086,0.186,0.219,0.39,0.429,0.571c0.108,0.097,0.222,0.169,0.332,0.224c0.083,0.158,0.201,0.33,0.372,0.487
	c0.118,0.113,0.372,0.297,0.587,0.407c0.004,0.004,0.009,0.008,0.014,0.013c0.132,0.126,0.273,0.219,0.405,0.302l0.17,0.107
	c0.037,0.024,0.075,0.047,0.112,0.071c0.001,0.01,0.002,0.02,0.003,0.03c0.011,0.099,0.027,0.193,0.047,0.283
	c-0.042,0.152-0.066,0.325-0.058,0.518c0.021,0.422,0.183,0.737,0.305,0.928c0.098,0.403,0.276,0.686,0.507,0.967
	c0.376,0.452,0.923,0.708,1.505,0.708c0.188,0,0.376-0.026,0.562-0.078c0.004-0.001,0.008-0.002,0.012-0.003
	c0.001,0.003,0.002,0.007,0.003,0.011c-0.091,0.162-0.14,0.304-0.167,0.382c-0.082,0.184-0.146,0.367-0.206,0.549
	c-0.018,0.056-0.034,0.113-0.055,0.167c-0.342,0.354-0.53,0.776-0.564,1.26c-0.026,0.403,0.072,0.767,0.175,1.106
	c0.181,0.58,0.522,0.905,0.704,1.07l0.344,0.723l0.301,0.002c0.082,0.063,0.163,0.115,0.239,0.161
	c0.042,0.026,0.083,0.049,0.123,0.07c0.152,0.188,0.324,0.317,0.478,0.405c0.036,0.042,0.077,0.085,0.122,0.128l0.085,0.77
	l0.97,0.276c0.131,0.041,0.332,0.104,0.591,0.104c0.067,0,0.131-0.004,0.192-0.011c0.027,0.021,0.056,0.043,0.085,0.065
	c0.119,0.081,0.219,0.134,0.295,0.17l0.07,0.246c-0.003-0.003-0.007-0.007-0.01-0.011c0.003,0.003,0.007,0.007,0.01,0.011
	l0.152,0.536c0.02,0.12,0.061,0.345,0.194,0.608c-0.203,0.313-0.298,0.689-0.264,1.065c0.016,0.179,0.071,0.454,0.246,0.729
	l0.139,1.113l0.387-0.062c0.021,0.041,0.043,0.079,0.066,0.116c0.005,0.029,0.011,0.058,0.018,0.086l0.275,1.213l0.752-0.028
	c0.033,0.019,0.068,0.038,0.104,0.056c0.214,0.104,0.438,0.164,0.686,0.185c0.177,0.104,0.366,0.172,0.545,0.205l1.77,0.325v-0.881
	l0.134-0.075l0.049-0.747c0.214,0.121,0.43,0.182,0.626,0.208c0.044,0.026,0.093,0.055,0.144,0.081l0.018,0.008l0.793,0.977
	l0.822-0.5c0.441-0.086,0.738-0.324,0.85-0.414c0.51-0.405,0.745-0.929,0.717-1.596l-0.007-0.139
	c-0.004-0.09-0.008-0.18-0.011-0.271c-0.001-0.121-0.014-0.238-0.034-0.347l0.151-0.058c0.085,0.01,0.162,0.015,0.236,0.015
	c0.217,0,0.426-0.035,0.621-0.103c0.264-0.09,1.163-0.495,1.143-1.787c0-0.012,0-0.023,0-0.034l0.048,0.038l0.09-1.354
	c0.069-0.246,0.065-0.472,0.062-0.615l0.004-0.038c0.011-0.065,0.018-0.134,0.021-0.204v-0.003c0.08-0.222,0.109-0.462,0.083-0.704
	l0.009-0.073c0.189-0.215,0.314-0.474,0.366-0.757c0.099-0.181,0.157-0.372,0.183-0.563c0.096-0.1,0.184-0.218,0.258-0.356
	l0.572-0.034l0.146-1.059l0.643,0.186l0.025-0.757l0.184-0.053l-0.156-0.687v-0.023c0.1-0.096,0.177-0.195,0.236-0.287
	c0.051-0.054,0.098-0.111,0.143-0.173c0.279-0.419,0.341-0.854,0.354-0.979c0.031-0.277-0.006-0.531-0.037-0.697
	c-0.029-0.142-0.063-0.272-0.104-0.392c0.064-0.264,0.093-0.613-0.026-0.989c-0.065-0.213-0.169-0.409-0.304-0.58
	c-0.02-0.091-0.046-0.183-0.082-0.274c0.122-0.268,0.174-0.541,0.158-0.822c0.105-0.182,0.179-0.383,0.215-0.604
	c0.033-0.223,0.025-0.387,0.021-0.485v-0.89c0.002-0.587,0.004-1.174,0.004-1.761c0.004-1.375,0.006-2.752,0.008-4.131l0.006-2.215
	l0.005-2.216l0.004-1.773l0.004-1.765l0.002-0.718l0.002-0.729v-0.17l-0.038-0.166c-0.035-0.162-0.088-0.389-0.207-0.625
	c-0.061-0.117-0.132-0.224-0.212-0.321c-0.009-0.131-0.032-0.284-0.085-0.447c-0.021-0.067-0.045-0.129-0.07-0.185
	c-0.002-0.015-0.006-0.029-0.008-0.044c-0.062-0.281-0.166-0.49-0.246-0.633c-0.043-0.355-0.162-0.676-0.49-1.061
	c-0.027-0.034-0.07-0.082-0.119-0.133c-0.047-0.119-0.115-0.255-0.219-0.394c-0.006-0.021-0.015-0.043-0.021-0.065
	c0.01-0.045,0.018-0.089,0.021-0.131c0.013-0.029,0.022-0.06,0.033-0.092c0.397-1.284-0.188-2.146-0.941-2.444l-0.268-0.105
	l-0.312-0.004c-0.021,0-0.04,0-0.061,0.001c-0.033-0.001-0.066-0.002-0.101-0.002l-0.104,0.001l-0.05,1.5l-0.004-1.5l-0.89-0.004
	l-1.742-0.009l-0.266,0.002l-3.754-0.02l-2.866-0.016l-1.41-0.008L24.478,9.25L23.93,9.248l-0.826-0.004H23.102L23.102,9.244z"/>
<path fill="#999999" stroke="#FFFFFF" stroke-miterlimit="10" d="M65.459,54.039c-0.021-0.024-0.038-0.004-0.03,0.033
	c0.024,0.01,0.021,0.037,0.057,0.029c0,0.012,0.004,0.051-0.002,0.061c-0.01,0.014-0.033,0.011-0.043,0.022
	c-0.015,0.017-0.004,0.045-0.017,0.062c-0.012,0.016-0.032,0.016-0.049,0.024c-0.036,0.021-0.036,0.036-0.036,0.075
	c0,0.036-0.01,0.08,0.038,0.077c0.006,0.022,0.006,0.051,0.021,0.071c0.024,0.037,0.043,0.028,0.043,0.078
	c0,0.027,0,0.068-0.031,0.08c-0.035,0.012-0.084-0.007-0.12-0.005c-0.042,0.003-0.104-0.002-0.146,0.009
	c-0.05,0.012-0.013,0.019-0.037,0.045c-0.014,0.016-0.039-0.002-0.043,0.025c-0.05,0.02-0.057-0.025-0.1-0.02
	c-0.046,0.006-0.047,0.08-0.051,0.121c-0.004,0.037-0.008,0.031-0.028,0.056c-0.014,0.017-0.034,0.028-0.028,0.056
	c0.002,0.021,0.015,0.034,0.02,0.055c0.009,0.041,0.006,0.056,0.039,0.082c0.023-0.049,0.038-0.012,0.038,0.023
	c0,0.034,0.002,0.066,0.004,0.1c0.002,0.043-0.004,0.059-0.036,0.084c-0.025,0.021-0.048,0.035-0.08,0.021l-0.01,0.006
	c-0.012-0.014-0.024-0.028-0.037-0.04c-0.021-0.021-0.047-0.029-0.074-0.044c-0.025-0.012-0.04-0.039-0.062-0.049
	c-0.017-0.008-0.049-0.002-0.067-0.002c-0.063,0-0.053-0.054-0.104-0.081c-0.02-0.009-0.047,0-0.066-0.008
	c-0.068-0.03-0.139-0.088-0.221-0.061c-0.036,0.014-0.039,0.068-0.067,0.096c-0.017,0.016-0.044,0.022-0.06,0.037
	c-0.018,0.019-0.008,0.025-0.017,0.049c-0.011,0.033-0.034,0.048-0.044,0.084c-0.003,0-0.005,0-0.007-0.002
	c0.001,0.022-0.022,0.037-0.017,0.062c0.01,0.026,0.05,0.035,0.052,0.069c0.001,0.019,0.013,0.004-0.009,0.019
	c0.002-0.001-0.033,0.007-0.03,0.007c-0.03-0.004-0.031-0.033-0.031-0.066c-0.048,0-0.03-0.042-0.05-0.064
	c-0.018-0.018-0.066-0.009-0.094-0.008c-0.008,0.042,0.029,0.012,0.047,0.014c0.002,0.026,0.016,0.047,0.016,0.073
	c-0.025,0.001-0.059,0.003-0.081-0.007c-0.024-0.014-0.045-0.055-0.077-0.053c-0.006-0.027-0.008-0.064-0.002-0.092
	c-0.065-0.016-0.063-0.096-0.082-0.149c-0.014-0.038-0.017-0.072-0.029-0.11c-0.01,0.002-0.022-0.003-0.032-0.001
	c-0.005-0.034-0.041-0.024-0.044-0.06s0.035-0.057,0.064-0.044c0.014-0.032,0.049,0.007,0.062-0.041
	c0.011-0.038,0.003-0.107-0.012-0.14c-0.014-0.033-0.037-0.057-0.053-0.086c-0.012-0.021-0.021-0.033-0.033-0.05
	c-0.02-0.03-0.017-0.053-0.025-0.089c0.023-0.001,0.047,0.006,0.059-0.013c0.016-0.03-0.017-0.054-0.035-0.063
	c-0.004-0.033-0.004-0.123-0.031-0.145c-0.051,0.023-0.074-0.008-0.104-0.041c-0.024-0.028-0.048-0.021-0.089-0.023
	c0.012,0,0.014-0.078,0.001-0.092s-0.034-0.018-0.05-0.027c-0.021-0.016-0.035-0.039-0.057-0.054
	c-0.025-0.017-0.051-0.05-0.074-0.062c-0.037-0.021-0.07,0.004-0.098,0.021c-0.039,0.024-0.037,0.019-0.08,0.005
	c-0.004-0.027-0.03-0.059-0.027-0.088c0.002-0.021,0.02-0.041,0.037-0.042c0.006,0.005,0.012,0.009,0.021,0.009
	c-0.006-0.006-0.014-0.009-0.021-0.009c-0.008-0.008-0.014-0.021-0.025-0.022c-0.021-0.006-0.053,0.015-0.081-0.006
	c-0.019-0.013-0.024-0.045-0.044-0.059c-0.021-0.016-0.055-0.012-0.072-0.042c-0.016-0.028-0.004-0.037-0.031-0.051
	c-0.022-0.013-0.051-0.017-0.076-0.033c-0.021-0.013-0.032-0.017-0.047-0.043c-0.012-0.021-0.014-0.045-0.043-0.045
	c-0.033-0.072-0.104-0.086-0.129-0.167c-0.012-0.039-0.028-0.096-0.026-0.135c0.002-0.036,0.019-0.06,0.04-0.08
	c0.068-0.063,0.079-0.166,0.119-0.252c0.018-0.039,0.02-0.076,0.054-0.092c0.033-0.017,0.031,0.01,0.044-0.033
	c0.005-0.016,0.003-0.032,0.003-0.049c0-0.019,0.013-0.072,0.009-0.086c-0.008-0.021-0.031-0.027-0.041-0.045
	c-0.027-0.046,0.012-0.035,0.035-0.057c0.021-0.018,0.02-0.062,0.045-0.083c0.012-0.009,0.021,0.003,0.03-0.017
	c0.003-0.006-0.001-0.051-0.004-0.057c-0.011-0.017-0.017-0.003-0.032-0.015c-0.023-0.017-0.027-0.054-0.05-0.067
	c-0.021-0.013-0.052,0.006-0.074-0.006c-0.009-0.005-0.011-0.023-0.021-0.029c-0.023-0.02-0.051-0.014-0.079-0.015
	c-0.054-0.002-0.042-0.021-0.078-0.049c-0.067-0.054-0.129-0.013-0.156,0.057c-0.004,0.011,0.001,0.022-0.003,0.031
	c-0.011,0.021-0.031,0.035-0.054,0.042c-0.046,0.012-0.089,0.002-0.117-0.032c-0.034-0.042-0.046-0.063-0.054-0.118
	c-0.006-0.041-0.053-0.072-0.055-0.115c-0.002-0.039,0.047-0.055,0.043-0.096c-0.002-0.021-0.015-0.027-0.023-0.043
	c-0.012-0.02-0.018-0.045-0.02-0.068c-0.009-0.075,0.01-0.107-0.039-0.163c-0.011-0.013-0.021-0.025-0.035-0.038
	c-0.02-0.02-0.03-0.026-0.053-0.04c-0.029-0.019-0.062-0.038-0.091-0.056c-0.014-0.008-0.036-0.022-0.049-0.035
	c-0.017-0.014-0.017-0.037-0.036-0.049c-0.011-0.008-0.033-0.004-0.047-0.01s-0.048-0.029-0.059-0.041
	c-0.025-0.022-0.026-0.068-0.041-0.092c-0.01-0.015-0.029-0.026-0.045-0.04c-0.017-0.015-0.01-0.015-0.033-0.024
	c-0.016-0.005-0.04-0.004-0.053-0.015c-0.025-0.022-0.012-0.066-0.039-0.097c-0.029-0.034-0.065-0.036-0.099-0.065
	c-0.039-0.034-0.06-0.088-0.094-0.128c-0.015-0.017-0.017-0.03-0.042-0.02c-0.018-0.06-0.002-0.105-0.042-0.158
	c-0.021-0.025-0.045-0.026-0.058-0.054c-0.01-0.022,0.002-0.059,0.014-0.077c0.008,0.005,0.016,0.001,0.021,0.004
	c0.004-0.024-0.008-0.044-0.007-0.067c-0.055-0.006-0.045-0.065-0.062-0.104c-0.02-0.042-0.041-0.092-0.055-0.139
	c-0.011-0.038-0.021-0.066-0.019-0.107c0.003-0.073,0.028-0.182,0.063-0.246c0.013-0.022,0.023-0.028,0.039-0.046
	c0.021-0.026,0.016-0.046,0.017-0.082c0.03-0.001,0.067-0.002,0.089,0.023c0.008-0.038-0.021-0.064-0.02-0.104
	c0.002-0.034,0.021-0.081,0.012-0.116c-0.012-0.044-0.075-0.047-0.039-0.104c0.02-0.03,0.062-0.028,0.09-0.036
	c0.02-0.006,0.045-0.006,0.062-0.014c0.022-0.01,0.017-0.022,0.03-0.036c0.027-0.025,0.044-0.014,0.085-0.016
	c0.043-0.001,0.09-0.015,0.102-0.064c0.008-0.032-0.012-0.115,0.025-0.126c0.002-0.07-0.006-0.1,0.047-0.13
	c0.047-0.027,0.07-0.073,0.104-0.114c0.049-0.059,0.048-0.156,0.051-0.235c0.002-0.053-0.021-0.104-0.032-0.156
	c-0.033-0.007-0.082-0.009-0.106-0.028c-0.04-0.03-0.077-0.087-0.084-0.138c-0.005-0.024-0.005-0.032,0.015-0.052
	c0.023-0.024,0.023-0.005,0.034-0.044c0.01-0.04-0.013-0.094,0.039-0.105c0.001-0.041-0.015-0.115,0.046-0.103
	c0.012,0.028,0.037,0.007,0.059,0.007c0.024,0,0.041,0.019,0.062,0.028c0.012-0.019,0.089-0.051,0.113-0.052
	c0.023-0.001,0.05,0,0.074,0c0.049,0,0.101,0.001,0.148,0c0.002-0.05,0.047-0.047,0.074-0.065c0.004-0.003,0.004-0.021,0.009-0.026
	c0.004-0.003,0.017-0.001,0.021-0.004c0.013-0.006,0.031-0.013,0.045-0.016c0.026-0.005,0.062,0,0.088,0
	c0.047,0,0.051-0.013,0.078-0.045c0.021-0.024,0.037-0.028,0.069-0.039c0.022-0.008,0.021,0.006,0.031-0.016
	c0.007-0.015,0-0.052,0-0.068c0-0.023-0.005-0.055,0.003-0.076c0.01-0.023,0.027-0.019,0.036-0.032
	c0.021-0.031-0.011-0.056-0.004-0.096c0.019-0.005,0.041-0.001,0.055-0.011c0.017-0.011,0.015-0.03,0.03-0.042
	c0.009-0.006,0.033-0.009,0.046-0.015c0.015-0.008,0.028-0.02,0.035-0.035c0.016-0.04-0.009-0.09,0.016-0.129
	c0.011-0.017,0.022-0.018,0.027-0.037c0.007-0.037-0.028-0.073-0.022-0.116c0.014-0.003,0.027-0.005,0.041-0.005
	c0.004-0.046-0.019-0.068-0.025-0.108c-0.006-0.026,0.013-0.073-0.004-0.093c-0.01-0.012-0.039-0.009-0.051-0.02
	c-0.027-0.027-0.043-0.084-0.08-0.104c-0.011-0.005-0.035-0.01-0.045-0.014c-0.019-0.007-0.031-0.009-0.05-0.014
	c-0.063-0.016-0.118-0.066-0.114-0.144c0-0.02,0.008-0.03,0.002-0.049c-0.006-0.014-0.045-0.042-0.055-0.052
	c-0.023-0.025-0.036-0.044-0.068-0.062c-0.023-0.013-0.055-0.024-0.049-0.059c-0.035-0.005-0.066-0.032-0.093-0.052
	c-0.019-0.015-0.076-0.076-0.019-0.077c0,0,0.002,0,0.004,0c0.104,0,0.21,0.001,0.314,0.001c0.262,0.001,0.523,0.003,0.785,0.004
	c0.328,0.001,0.657,0.003,0.986,0.005c0.31,0.001,0.617,0.003,0.928,0.005c0.201,0.001,0.402,0.002,0.605,0.003
	c0.021,0,0.041-0.001,0.062,0c0.006,0,0.017-0.002,0.021,0c0.043,0.017,0.031,0.092,0.019,0.133
	c-0.007,0.021-0.017,0.028-0.021,0.051c-0.004,0.026,0.002,0.037-0.013,0.061c-0.005,0.007-0.021,0.007-0.026,0.017
	c-0.004,0.009,0.002,0.035,0.002,0.044c0,0.033,0.002,0.044,0.014,0.068c0.007,0.015,0.029,0.03,0.035,0.041
	c0.007,0.016,0,0.034,0.005,0.051c0.007,0.024,0.026,0.026,0.042,0.044c0.016,0.018,0.013,0.037,0.021,0.055
	c0.014,0.032,0.053,0.063,0.074,0.09c0.032,0.038,0.033,0.045,0.036,0.097c0.003,0.053,0.048,0.092,0.058,0.14
	c0.004,0.013,0.002,0.028,0.004,0.042c0.004,0.023,0.021,0.031,0.024,0.046c0.013,0.04-0.01,0.071,0.011,0.111
	c0.01,0.02,0.014,0.026,0.021,0.046c0.008,0.022,0.003,0.023,0.021,0.041c0.01,0.012,0.026,0.008,0.039,0.032
	c0.01,0.018,0.014,0.045,0.02,0.065c0,0.111-0.001,0.222-0.001,0.333c0,0.272-0.001,0.544-0.003,0.816c0,0.341,0,0.682-0.002,1.023
	c0,0.318,0,0.637-0.002,0.954c0,0.203,0,0.406,0,0.608c0,0.02,0.002,0.04-0.002,0.059c-0.01,0.064-0.088,0.052-0.107,0.112
	c-0.02,0.06-0.006,0.097,0.055,0.093c0.008,0.047-0.039,0.09-0.068,0.117c-0.028,0.026-0.094,0.08-0.021,0.094
	c-0.002,0.028-0.019,0.051,0.027,0.043c0.002,0.014,0.006,0.027,0.012,0.041c0.067-0.022,0.037,0.102,0.032,0.127
	c0.037-0.002,0.074,0.022,0.088,0.062c0.006,0.021-0.002,0.05-0.012,0.067c-0.012,0.025-0.01,0.021-0.038,0.033
	c-0.001,0.019-0.001,0.037,0,0.055c0.041,0.01,0.061,0.08,0.067,0.122c0.004,0.02,0.008,0.042,0.006,0.062
	c-0.002,0.019-0.01,0.046-0.021,0.06c-0.007,0.011-0.017,0.007-0.024,0.018c-0.011,0.018-0.009,0.031-0.022,0.043
	c-0.015,0.012-0.037,0.006-0.054,0.021c-0.043,0.039-0.043,0.056-0.047,0.119c-0.008-0.002-0.021,0.004-0.029,0.002
	c0.002,0.008-0.004,0.019-0.001,0.026c-0.015,0.005-0.044,0.043-0.037,0.063c0.014,0.004,0.036,0.016,0.034,0.033
	c-0.002,0.024-0.026,0.019-0.043,0.024c-0.037,0.015-0.051,0.031-0.098,0.033c-0.002,0.012-0.002,0.026,0,0.039
	c0.002,0.003,0.033-0.001,0.036-0.001c-0.017,0.042-0.012,0.064-0.018,0.109c-0.046,0.004-0.095,0.026-0.113,0.072
	c-0.015,0.03,0.006,0.129-0.056,0.112c-0.002-0.025-0.004-0.056,0.002-0.079c-0.014,0.042-0.028,0.078-0.076,0.08
	c0.007-0.023,0.053-0.04,0.004-0.053c-0.036-0.01-0.057,0.025-0.05,0.061c0.056-0.001-0.017,0.091-0.032,0.034
	c-0.003,0.019,0.012,0.071,0.02,0.084c0.012,0.017,0.056,0.055,0.069,0.052c0.011,0.037-0.036,0.04-0.058,0.059
	c-0.008,0.006-0.025,0.047-0.031,0.049c-0.016,0.004-0.027-0.012-0.042-0.016c-0.038,0.043,0.073,0.008,0.093,0.008
	c0.006,0.033-0.005,0.033-0.023,0.049c-0.004,0.004-0.018-0.002-0.023,0.003c-0.015,0.01-0.025,0.055-0.031,0.073
	c-0.011,0-0.015-0.002-0.019-0.008c-0.015,0.006-0.022,0.02-0.021,0.036c0.021,0.019,0.037,0.032,0.026,0.063
	c-0.007-0.01-0.013-0.01-0.021-0.014c-0.002,0.023,0.006,0.049,0.004,0.069c-0.014-0.011-0.032-0.014-0.051-0.01
	c-0.008,0.059,0.035,0.039,0.068,0.053c0.006,0.04-0.07-0.005-0.1,0.009c0.011,0.043,0.033,0.078,0.078,0.088
	c0,0.012,0.002,0.059-0.021,0.051C65.453,54.072,65.467,54.049,65.459,54.039z"/>
</svg>
