<?xml version="1.0" encoding="utf-8"?>
<!-- Generator: Adobe Illustrator 16.0.4, SVG Export Plug-In . SVG Version: 6.00 Build 0)  -->
<!DOCTYPE svg PUBLIC "-//W3C//DTD SVG 1.1//EN" "http://www.w3.org/Graphics/SVG/1.1/DTD/svg11.dtd">
<svg version="1.1" id="Layer_1" xmlns="http://www.w3.org/2000/svg" xmlns:xlink="http://www.w3.org/1999/xlink" x="0px" y="0px"
	 width="100px" height="100px" viewBox="0 0 100 100" enable-background="new 0 0 100 100" xml:space="preserve">
<g>
	<path fill="#FF715F" d="M50,0C22.4,0,0,22.4,0,50c0,27.6,22.4,50,50,50c27.6,0,50-22.4,50-50C100,22.4,77.6,0,50,0z M50,90
		c-22.1,0-40-17.9-40-40c0-22.1,17.9-40,40-40c22.1,0,40,17.9,40,40C90,72.1,72.1,90,50,90z"/>
	<ellipse fill="#FF715F" cx="50" cy="83.8" rx="2.5" ry="3.8"/>
	<ellipse fill="#FF715F" cx="16.2" cy="50" rx="3.8" ry="2.5"/>
	<circle fill="#FF715F" cx="33.8" cy="21.9" r="2.5"/>
	<circle fill="#FF715F" cx="66.3" cy="78.1" r="2.5"/>
	<circle fill="#FF715F" cx="21.9" cy="66.2" r="2.5"/>
	<circle fill="#FF715F" cx="78.1" cy="33.8" r="2.5"/>
	<circle fill="#FF715F" cx="21.9" cy="33.8" r="2.5"/>
	<circle fill="#FF715F" cx="78.1" cy="66.3" r="2.5"/>
	<circle fill="#FF715F" cx="33.8" cy="78.1" r="2.5"/>
	<circle fill="#FF715F" cx="66.3" cy="21.9" r="2.5"/>
	<path fill="#FF715F" d="M84.1,47.5C83,46,80.8,45,78.3,45H55V21.7c0-2.5-1-4.6-2.5-5.8c-0.1-1.9-1.2-3.4-2.5-3.4s-2.3,1.5-2.5,3.4
		C46,17,45,19.2,45,21.7v26.7c0,0.3,0,0.7,0.1,1c0,0.2-0.1,0.4-0.1,0.7c0,1.3,0.6,2.4,1.7,3.3c0.9,1,2,1.699,3.3,1.699
		c0.2,0,0.4,0,0.7-0.1c0.3,0,0.7,0.1,1,0.1h26.7c2.5,0,4.6-1,5.8-2.5C86.1,52.5,87.6,51.4,87.6,50.1C87.5,48.7,86,47.7,84.1,47.5z
		 M50,52.5c-1.4,0-2.5-1.1-2.5-2.5c0-1.4,1.1-2.5,2.5-2.5c1.4,0,2.5,1.1,2.5,2.5C52.5,51.4,51.4,52.5,50,52.5z"/>
</g>
</svg>
