<?xml version="1.0" encoding="utf-8"?>
<!-- Generator: Adobe Illustrator 16.0.4, SVG Export Plug-In . SVG Version: 6.00 Build 0)  -->
<!DOCTYPE svg PUBLIC "-//W3C//DTD SVG 1.1//EN" "http://www.w3.org/Graphics/SVG/1.1/DTD/svg11.dtd">
<svg version="1.1" id="Layer_1" xmlns="http://www.w3.org/2000/svg" xmlns:xlink="http://www.w3.org/1999/xlink" x="0px" y="0px"
	 width="100px" height="100px" viewBox="0 0 100 100" enable-background="new 0 0 100 100" xml:space="preserve">
<path fill="#AAAAAA" d="M98.295,5.551c-1.123-0.86-7.73-1.948-11.415-0.982c-10.684,2.802-29.392,10.33-36.05,17.482
	c-1.208,1.3-1.729,4.635-2.001,6.92c-0.133,1.127-0.414,5.256-0.414,5.256s-0.872-3.476-0.753-5.279
	c0.089-1.368,0.708-4.674,0.708-4.674S35.247,33.326,33.027,39.53c-0.466,1.304-0.55,4.191-0.498,5.643
	c0.043,1.185,0.395,4.481,0.466,5.135c-0.008,0.008-0.018,0.018-0.026,0.025c-0.2-0.452-1.176-2.713-1.463-4.461
	c-0.239-1.459-0.188-4.973-0.188-4.973s-3.417,3.55-4.144,5.083c-0.521,1.098-0.868,3.471-0.628,4.661
	c0.242,1.196,1.919,4.398,1.919,4.398l0.129,0.071C17.121,67.919,10.547,77.121,7.003,82.697c-2.221,3.496-3.535,5.999-4.246,7.482
	c-0.449,0.938-0.72,1.598-0.868,1.985c-0.245,0.644-0.499,1.309-0.249,2.102l0.382,1.21l1.241,0.277
	c0.625,0.137,1.537,0.084,2.349-0.956c0.093-0.119,0.226-0.296,0.398-0.53c0.318-0.427,0.777-1.057,1.362-1.859
	c3.32-4.548,11.094-15.205,19.701-25.627c0.897-1.09,4.045-4.727,8.172-9.198c2.074,0.912,4.303,2.494,5.218,2.37
	c2.544-0.347,6.949-3.194,9.116-4.735c2.032-1.442,7.377-5.354,7.372-6.809c-0.004-1.022-2.617-1.597-3.533-2.049
	c-1.178-0.582-4.854-2.013-4.854-2.013s3.65,0.669,5.133,1.184c2.335,0.813,5.741,2.445,5.741,2.445s8.512-5.844,11.153-7.989
	c4.927-4,12.688-10.572,12.341-11.243c-0.166-0.319-2.367-0.759-4.176-1.91c-1.521-0.968-3-2.963-3-2.963s1.645,1.256,3.638,2.213
	c1.991,0.957,4.485,1.134,4.485,1.134s9.377-10.603,13.355-16.882C98.642,8.116,98.589,5.776,98.295,5.551z M70.048,23.167
	c-7.669,5.503-11.282,9.254-18.791,15.583c-10.537,8.883-24.084,24.453-25.88,26.63C13.79,79.414,3.873,93.636,3.74,93.605
	c-0.134-0.029,3.955-12.35,28.733-39.507c9.458-10.364,21.318-21.07,31.544-28.47C80.578,13.642,94.322,8.236,94.322,8.236
	S82.913,13.938,70.048,23.167z"/>
<g>
	<path fill="#AAAAAA" d="M0,2.654v67.955c0.775,0,2.053,0,3.074,0V5.728h64.471c0-0.971,0-2.038,0-3.074H0z"/>
	<path fill="#AAAAAA" d="M96.927,22.452v71.819H20.412c0,1.025,0,2.05,0,3.074H100V22.452
		C98.966,22.452,97.937,22.452,96.927,22.452z"/>
</g>
</svg>
