<?xml version="1.0" encoding="utf-8"?>
<!-- Generator: Adobe Illustrator 16.0.4, SVG Export Plug-In . SVG Version: 6.00 Build 0)  -->
<!DOCTYPE svg PUBLIC "-//W3C//DTD SVG 1.1//EN" "http://www.w3.org/Graphics/SVG/1.1/DTD/svg11.dtd">
<svg version="1.1" id="Layer_1" xmlns="http://www.w3.org/2000/svg" xmlns:xlink="http://www.w3.org/1999/xlink" x="0px" y="0px"
	 width="100px" height="100px" viewBox="0 0 100 100" enable-background="new 0 0 100 100" xml:space="preserve">
<g>
	<path fill="#8F8F8F" d="M43.833,54.077c-1.428,2.753-4.282,4.588-7.646,4.588H13.762c-4.792,0-8.665-3.874-8.665-8.665
		s3.874-8.665,8.665-8.665h22.426c3.262,0,6.218,1.834,7.646,4.587c1.936,0,3.568,0,5.504,0c-1.732-5.606-6.932-9.684-13.149-9.684
		H13.762C6.218,36.238,0,42.457,0,50c0,7.544,6.218,13.762,13.762,13.762h22.426c6.116,0,11.417-4.078,13.149-9.685
		C47.502,54.077,45.667,54.077,43.833,54.077z"/>
	<path fill="#8F8F8F" d="M56.167,54.077c1.428,2.753,4.281,4.588,7.646,4.588h22.426c4.791,0,8.665-3.874,8.665-8.665
		s-3.874-8.665-8.665-8.665H63.812c-3.262,0-6.218,1.834-7.646,4.587c-1.936,0-3.567,0-5.503,0
		c1.732-5.606,7.032-9.684,13.148-9.684h22.426C93.782,36.238,100,42.457,100,50c0,7.544-6.218,13.762-13.762,13.762H63.812
		c-6.116,0-11.416-4.078-13.148-9.685C52.498,54.077,54.332,54.077,56.167,54.077z"/>
	<path fill="#8F8F8F" d="M77.778,50c0,2.039-1.224,3.771-2.753,3.771h-48.93c-1.529,0-2.752-1.732-2.752-3.771l0,0
		c0-2.039,1.223-3.772,2.752-3.772h48.93C76.658,46.228,77.778,47.961,77.778,50L77.778,50z"/>
</g>
</svg>
