<?xml version="1.0" encoding="utf-8"?>
<!-- Generator: Adobe Illustrator 16.0.4, SVG Export Plug-In . SVG Version: 6.00 Build 0)  -->
<!DOCTYPE svg PUBLIC "-//W3C//DTD SVG 1.1//EN" "http://www.w3.org/Graphics/SVG/1.1/DTD/svg11.dtd">
<svg version="1.1" id="Layer_1" xmlns="http://www.w3.org/2000/svg" xmlns:xlink="http://www.w3.org/1999/xlink" x="0px" y="0px"
	 width="100px" height="100px" viewBox="0 0 100 100" enable-background="new 0 0 100 100" xml:space="preserve">
<path fill="#555555" d="M81.575,57.9l-0.079-0.041l-0.076-0.016l-0.109-0.24l-0.166-0.133l-0.844-0.49l-0.343-0.336l-0.062-0.381
	l0.383-0.416l-0.092-0.234l0.072-0.202l0.115-0.229l0.029-0.271l-0.021-0.277l-0.15-0.306l-0.182-0.299l-0.136-0.322l-0.083-0.664
	l-0.073-0.271l-0.202-0.342l-1.213-1.576l0.1-0.271l-0.135-0.165l-0.209-0.14l-0.107-0.198l0.041-0.364l-0.012-0.266l-0.178-0.427
	l-0.104-0.728l-0.146-0.24l-0.16-0.212l-0.067-0.205l0.146-0.196l-0.101-0.141l-0.354-0.387l-0.107-0.133l-0.09-0.147l-0.058-0.161
	l-0.016-0.186l0.052-0.599l-0.57-1.504l0.047-0.192c-0.5-2.835-0.996-5.67-1.481-8.508c-0.478-2.793-0.974-5.583-1.451-8.376
	c-0.501-2.927-1.009-5.854-1.51-8.781c-0.47-2.735-0.937-5.47-1.408-8.205C69.971,7.267,69.484,4.41,69,1.553
	c-0.059-0.345-0.111-0.69-0.177-1.034c-2.816-0.031-5.632-0.069-8.447-0.1c-2.881-0.031-5.763-0.066-8.644-0.097
	c-2.923-0.031-5.849-0.063-8.771-0.101c-2.946-0.038-5.893-0.068-8.838-0.102c-2.946-0.034-5.893-0.065-8.839-0.103
	C24.725,0.009,24.163,0,23.602,0c0.166,0.475,0.335,0.95,0.503,1.425l0.427,0.618l0.572,0.396L25.4,2.48l-0.021,0.344
	c-0.303,2.844-0.618,5.688-0.93,8.531c-0.323,2.956-0.647,5.911-0.974,8.867c-0.318,2.895-0.633,5.791-0.955,8.686
	c-0.321,2.883-0.64,5.767-0.959,8.65c-0.317,2.87-0.642,5.738-0.959,8.607c-0.301,2.718-0.61,5.435-0.911,8.151
	c-0.329,2.979-0.671,5.957-1.005,8.937c-0.1,0.886-0.19,1.771-0.298,2.655c0.138,2.846,0.271,5.691,0.408,8.539
	c0.142,2.938,0.281,5.875,0.423,8.812c0.139,2.878,0.274,5.757,0.417,8.636c0.079,1.59,0.155,3.182,0.229,4.771l0.438-0.121
	l0.395-0.202h0.349l0.317,0.47h0.109l0.036-0.115l0.035-0.067l0.033-0.084l0.025-0.149l0.458,0.25l1.087,0.233l0.511,0.197
	l-0.153,0.428l0.032,0.192l0.179,0.061l0.295,0.039l0.006-0.012l0.364,0.012l0.041,0.071l0.026,0.125l0.082,0.058l0.197-0.131
	l0.109-0.249l0.178-1.478l-0.03-0.854l0.036-0.359l0.166-0.69l0.036-0.334l0.036-0.177l0.166-0.23l0.038-0.158l-0.017-0.371
	l0.021-0.182l0.062-0.146l0.188-0.224l0.13-0.208l0.073-0.271l0.025-0.41l0.084-0.339l0.167-0.219l0.099-0.203l-0.109-0.285
	l0.238-0.161l0.125-0.251l0.006-0.29l-0.131-0.287l0.251,0.047l0.109,0.177l0.02,0.262l-0.006,0.298l0.049,0.231l0.129,0.068
	l0.188,0.004l0.223,0.037l0.38,0.208l0.202,0.256l0.53,1.55l0.096,0.412l-0.058,0.297l-0.172,0.242l-0.188,0.364l-0.146,0.392
	L28,94.725l0.062,0.125l0.124,0.172l0.12,0.215l0.052,0.248l0.017,0.24l0.052,0.219l0.088,0.203l0.14,0.178l0.137,0.129l0.155,0.104
	l0.172,0.072l0.203,0.042l0.265,0.015l0.02-0.035l-0.03-0.1l0.235-0.283l0.062-0.102h0.073l0.161,0.156l0.026,0.154l-0.152,0.455
	l-0.046,0.217l0.131,0.25l0.831,0.785l0.214,0.684l-0.495,0.337l-0.81,0.219l-0.651,0.213l-0.692-0.125l-0.374-0.343l-0.129,0.053
	l-0.104,0.149l-0.151,0.088l-0.677,0.162l-0.391,0.178L26.425,100h0.562l1.551-0.266h2.18l2.325-0.312l1.133-0.474l0.453-0.767
	l-0.155,0.09L34.29,98.33l-0.187,0.021l-0.198-0.017l0.114-0.333l-0.072-0.219l-0.119-0.219l-0.03-0.34h0.107l0.078,0.131
	l0.307,0.287l0.099,0.166l0.017,0.125l0.079,0.078l0.273,0.047l0.407-0.09l0.208-0.244l0.155-0.254l0.261-0.119l0.442-0.104
	l0.213-0.261l0.124-0.332l0.188-0.332l0.755-0.719l0.024-0.192h0.131l-0.193-0.114l-0.155-0.12l-0.136-0.145l-0.125-0.179v-0.131
	l0.125,0.073l-0.016-0.021l-0.328-0.974l-0.041-0.327l0.021-0.088l0.066-0.179l0.304-0.541l0.139-0.534l0.115-0.71l0.017-0.301
	l-0.022-0.202l-0.062-0.074l-0.14-0.129l-1.416-0.867L35.57,89.65l-0.249-0.35l-0.364-0.674l-0.099-0.15l-0.85-0.838l-0.202-0.256
	l-0.176-0.275l-0.074-0.166l-0.024-0.16l0.015-0.125l0.026-0.127l0.066-0.206l0.366-0.791l0.024-0.099L34,84.479l0.114-0.287
	c2.91,0,5.82,0,8.73,0c2.954,0,5.907,0,8.86,0c2.085,0,4.17-0.004,6.255-0.004c4.045,0,8.089,0,12.133,0c3.074,0,6.147,0,9.223,0
	c0.127,0,0.254,0,0.383,0l0.052-0.088l0.108-0.129l0.059-0.17l-0.031-0.211l-0.166-0.219l-0.225-0.963l-0.428-0.858l-0.479-0.659
	l-0.354-0.181l-0.202-0.265l-0.027-0.321l0.095-0.731l-0.037-0.205l-0.16-0.399l-0.031-0.161l0.059-0.208l0.223-0.321l0.084-0.183
	l0.104-1.578l0.125-0.748l0.369-0.496l-0.172-0.587l0.1-0.427l0.196-0.384l0.104-0.489l-0.037-0.281l-0.154-0.409l-0.037-0.158
	l-0.005-0.562l-0.038-0.258l-0.156-0.386l-0.607-0.834l-0.141-0.342l-0.488-2.301l-0.119-0.416l0.115-0.439l0.016-0.127l0.025-0.104
	l0.088-0.271l0.142-0.69l0.342-0.791l0.495-0.812l0.074-0.1l0.148-0.306l0.025-0.078l0.059-0.517l-0.129-0.463l0.057-0.47
	l0.177-0.36l0.041-0.272l-0.006-0.509l0.032-0.178l0.281-0.678l0.118-0.191l0.12-0.076l0.24-0.037l0.289-0.094l0.293-0.135
	l0.207-0.158l-0.28-0.182l0.062-0.171l0.267-0.067l0.312,0.135l0.156-0.098l0.135-0.158l0.053-0.2L81.132,58.4l0.151-0.01
	l0.156-0.059l0.125-0.114l0.047-0.165L81.575,57.9 M24.876,99.038l-0.126,0.119l-0.166,0.104l-0.266,0.048h-0.972l-1.624,0.265
	l-0.249,0.161l3.881-0.161l0.118-0.024l0.229-0.09v-0.148l-0.665-0.375L24.876,99.038"/>
</svg>
