<?xml version="1.0" encoding="utf-8"?>
<!-- Generator: Adobe Illustrator 16.0.4, SVG Export Plug-In . SVG Version: 6.00 Build 0)  -->
<!DOCTYPE svg PUBLIC "-//W3C//DTD SVG 1.1//EN" "http://www.w3.org/Graphics/SVG/1.1/DTD/svg11.dtd">
<svg version="1.1" id="Layer_1" xmlns="http://www.w3.org/2000/svg" xmlns:xlink="http://www.w3.org/1999/xlink" x="0px" y="0px"
	 width="100px" height="100px" viewBox="0 0 100 100" enable-background="new 0 0 100 100" xml:space="preserve">
<path fill="#555555" d="M76.281,0.048c-2.744-0.003-5.49-0.002-8.236-0.008c-2.625-0.006-5.25-0.003-7.877-0.006
	c-2.852-0.004-5.703,0-8.555-0.008c-2.585-0.007-5.171,0.001-7.756-0.006c-2.852-0.007-5.704-0.003-8.556-0.007
	c-2.625-0.004-5.251-0.002-7.876-0.007C24.679,0.002,21.934,0,19.188,0c-0.01,2.049-0.006,4.097-0.011,6.146
	c-0.005,2.691-0.009,5.383-0.015,8.074l-0.013,0.172l-0.036,0.176c-0.19,0.259-0.379,0.517-0.569,0.774
	c-0.192,0.673-0.386,1.346-0.581,2.018l-0.509,0.291l-0.717,0.115l-0.38-0.021l-0.334-0.148l-0.275-0.236l-0.182-0.226l-0.138-0.22
	L15.1,16.181l-0.108-0.174l-0.14-0.182l-0.161-0.165l-0.13-0.078l-0.135-0.05l-0.097-0.009l-0.101,0.002l-0.098,0.02l-0.087,0.026
	l-0.079,0.034l-0.376,0.228l-0.085,0.031l-0.1,0.017h-0.109l-0.114-0.012l-0.194-0.066l-0.152-0.098l-0.124-0.1l-0.078-0.047
	l-0.055-0.023l-0.783-0.232l-0.136-0.014l-0.124,0.032l-0.229,0.094l-0.849,0.221L9.98,15.935l-0.49,0.229l-0.064,0.061l-0.057,0.06
	l-0.104,0.147L9.22,16.513l-0.021,0.152v0.202l0.049,0.416l-0.009,0.204l-0.064,0.197l-0.248,0.254l0.024,0.501l0.152,0.479
	l0.213,0.417l0.577,0.75l0.093,0.161l0.031,0.207l-0.055,0.198l-0.258,0.458l-0.078,0.268L9.61,22.372l0.042,0.492l0.073,0.363
	l0.514,1.303l0.096,0.291l-0.112,0.389l0.091,0.777l-0.309,0.869l0.248,0.718l0.269,0.858l0.464,0.934l0.142,0.423l-0.02,0.48
	l0.036,0.457l0.191,0.852l0.07,0.717l-0.009,0.379l-0.136,0.708l-0.06,0.057l-0.172,0.086l-0.205,0.044h-0.199l-0.147,0.07
	l-0.049,0.24l0.067,0.165l0.274,0.319l0.058,0.245l-0.056,0.171l-0.343,0.449l0.14,0.577c0.059,0.806,0.121,1.61,0.181,2.415
	l0.101,0.213l0.231,0.081l0.208,0.108l0.167,0.243l0.117,0.284l0.055,0.217l0.027,0.498l0.186,0.336l0.308,0.193l0.396,0.062
	l0.956,1.961l0.065,0.073l0.048,0.078l0.021,0.143l-0.021,0.42l0.021,0.116l0.176,0.288l0.193,0.152l0.159,0.176l0.071,0.36
	l0.024,0.012l0.145,0.178l-0.064,0.26l-0.08,0.262l-0.001,0.014l0.017,0.168l0.045,0.212l0.059,0.115l0.076,0.084l0.095,0.027
	l0.191,0.008l0.07,0.009l0.059,0.022l0.06,0.048l0.113,0.128l0.071,0.061l0.292,0.189l0.073,0.064l0.219,0.26l1.22,0.89l0.25,0.135
	l0.142,0.122l0.171,0.188l0.466,0.308l0.003,0.235l0.086,0.372l-0.123,0.238l-0.463,0.355l-0.49,0.484l-0.464,0.599l-0.286,0.078
	l-1.493,1.062l-0.53,0.171l-0.237,0.245l-0.151,0.327L13.677,52.9l-0.17,0.34l-0.229,0.287l-0.241,0.238l-0.58,0.383l-0.228,0.242
	l-0.091,0.389l0.048,0.207l0.12,0.195l0.286,0.336l0.02,0.155l-0.117,0.161l-0.267,0.216l0.027,0.269l0.003,0.447l0.054,0.424
	l0.18,0.19l0.051,0.093l0.016,0.205l-0.016,0.205l-0.051,0.096l-0.077,0.086l0.063,0.192l0.159,0.318l-0.096,0.257l-0.171,0.199
	l-0.161,0.251l-0.071,0.427l0.009,0.376l-0.013,0.198l-0.046,0.082l-0.13,0.104v0.232l0.08,0.381l-0.054,0.232l-0.047,0.117
	l-0.199,0.258l-0.29,0.291L11.3,62.163l-0.138,0.427l-0.542,1.02l-0.262,0.199l-0.36,0.108L9.28,63.968l-0.14,0.095l0.066,0.203
	l0.15,0.221l0.118,0.138l0.087,0.19l-0.056,0.146L9.328,65.15l-0.139,0.485l0.032,0.259l0.458,0.522l0.101,0.237l0.148,1.007
	l-0.077,0.753L9.63,69.066l-0.049,0.604l0.438,0.613l0.577,0.229l1.329,0.094l0.509,0.279l0.41,0.594l0.057,0.221l-0.005,0.169
	l-0.032,0.167l-0.02,0.218l0.23,1.109l-0.04,0.377l-0.167,0.223l-0.543,0.377l-0.188,0.229l-0.055,0.303l0.011,0.318l-0.016,0.312
	l-0.142,0.26l-0.619,0.143l-1.532-0.312l-0.555,0.407c-0.055,0.217-0.109,0.435-0.164,0.651l-0.122,0.301l-0.17,0.29L8.771,77.25
	L8.66,77.375l-0.332,0.287v0.008l-0.077,0.115L8.02,78.244l0.124,0.354l-0.019,0.379l-0.206,0.705l0,0l-0.183,0.19h0.001L7.814,79.9
	c0.181,0.065,0.362,0.131,0.543,0.197c2.471,0.901,4.942,1.805,7.415,2.705c2.86,1.043,5.721,2.083,8.582,3.123
	c2.61,0.949,5.221,1.896,7.831,2.844c2.272,0.823,4.545,1.646,6.818,2.47c2.797,1.013,5.595,2.024,8.393,3.036
	c2.77,1.002,5.54,2.004,8.31,3.004c2.338,0.846,4.655,1.742,6.983,2.611L63.578,100h20.818c2.619,0,5.237-0.003,7.854-0.003v-1.718
	c0-2.619,0.006-5.238,0.006-7.857V57.081c0-2.726,0.004-5.45,0.004-8.175V24.482c0-2.786,0.005-5.572,0.005-8.359V0.061
	c-2.584,0-5.168,0-7.75-0.006C81.771,0.049,79.025,0.05,76.281,0.048z"/>
</svg>
