<?xml version="1.0" encoding="utf-8"?>
<!-- Generator: Adobe Illustrator 16.0.4, SVG Export Plug-In . SVG Version: 6.00 Build 0)  -->
<!DOCTYPE svg PUBLIC "-//W3C//DTD SVG 1.1//EN" "http://www.w3.org/Graphics/SVG/1.1/DTD/svg11.dtd">
<svg version="1.1" id="Layer_1" xmlns="http://www.w3.org/2000/svg" xmlns:xlink="http://www.w3.org/1999/xlink" x="0px" y="0px"
	 width="100px" height="100px" viewBox="0 0 100 100" enable-background="new 0 0 100 100" xml:space="preserve">
<path fill="#555555" d="M99.2,20.56l-0.373-0.633l0.034-0.177l-0.034-0.008h-0.115c-2.953,0.089-5.907,0.161-8.86,0.247
	c-1.369,0.04-2.738,0.08-4.106,0.112l-0.126-0.035l-0.03-0.103l-0.006-0.107l0.065-0.238l0.715-1.389l0.191-0.25l0.334-0.567
	l0.238-0.267l0.139-0.204l0.074-0.09l0.098-0.072l0.106-0.047l0.404-0.095l0.114-0.047l0.107-0.062l0.088-0.069l0.079-0.103
	l0.054-0.119l0.047-0.131l0.03-0.136l0.029-0.222l0.03-0.123l0.047-0.119l0.072-0.108l0.084-0.089l0.201-0.137l0.105-0.054
	l0.258-0.072l0.461-0.191l0.63-0.358l0.097-0.078l0.072-0.095l0.061-0.119l0.047-0.125l0.074-0.495l0.045-0.113l0.072-0.09
	l0.094-0.065l0.514-0.16l0.107-0.054l0.095-0.079l0.084-0.082l0.078-0.106l0.048-0.108l0.046-0.12l0.024-0.125l0.007-0.132
	l-0.097-0.74l0.013-0.154l0.132-0.59l0.013-0.156v-0.145l-0.03-0.136l-0.041-0.115l-0.062-0.106l-0.077-0.095l-0.089-0.09
	l-0.096-0.076l-0.669-0.413L90.863,9.44l-0.055-0.106L90.782,9.2l-0.019-0.136l-0.025-0.4l-0.016-0.113L90.688,8.46l-0.07-0.07
	l-0.104-0.061l-0.082-0.078l-0.057-0.083l-0.201-0.561l-0.1-0.204l-0.045-0.051l-0.022-0.059H0c0.406,3.12,0.814,6.239,1.221,9.358
	c0.373,2.857,0.74,5.715,1.117,8.571c0.424,3.216,0.846,6.433,1.272,9.648c0.003,0.028,0.007,0.056,0.011,0.084
	c-0.068,3.234-0.137,6.469-0.205,9.703c-0.061,2.887-0.124,5.773-0.186,8.659c-0.063,2.938-0.125,5.875-0.188,8.812
	c-0.071,3.321-0.143,6.642-0.214,9.963c-0.038,1.767-0.076,3.531-0.113,5.298l0.345,0.08l0.198,0.442l0.147,0.502l0.37,0.347
	l0.489,0.143l0.507-0.078v0.15l-0.25,0.25l0.144,0.232l0.37,0.075l0.429-0.214l0.405,0.227l0.209-0.208L6.22,78.95l0.209-0.286
	l0.339-0.014l0.978,0.502l0.276-0.125l0.26-0.233l0.304-0.11l0.687,0.397l0.395,0.106l0.417-0.023l0.371-0.189l0.583,0.439
	l0.304,0.148l0.191,0.08c0.022,3.102,0.063,6.203,0.087,9.305c0.01,1.254,0.024,2.507,0.038,3.76
	c3.089-0.005,6.179-0.012,9.268-0.016c2.957-0.006,5.914,0,8.871-0.008c3.216-0.008,6.433-0.007,9.649-0.012
	c2.875-0.004,5.75-0.006,8.625-0.01c3.284-0.004,6.567-0.01,9.85-0.01c2.827,0,5.655-0.014,8.482-0.014c1.013,0,2.025,0,3.037,0
	l0.279-0.018l0.105-2.503l0.176-0.302l0.393-0.166l0.424-0.118l0.264-0.16l0.125-0.423l-0.05-0.418l-0.226-0.801l-0.018-1.196
	l-0.107-0.292l-0.269-0.223l-0.634-0.233l-0.213-0.041l-0.287-0.464l0.222-0.52l0.75-0.984l0.108-0.457l0.07-0.711l-0.018-0.703
	l-0.023-0.436l-0.681-0.699l-0.399-0.328l-0.382-0.137l-0.329-0.178l-0.305-0.4l-0.088-0.394l0.316-0.185h0.482l0.446-0.078
	l0.347-0.238l0.18-0.508l-0.086-0.6l-0.32-0.326l-0.836-0.409l-0.397-0.411l0.06-0.223l0.311-0.164l0.37-0.271l0.787-1.065
	l0.186-0.174l0.132-0.09l0.428-0.423l0.197-0.149l0.231-0.047l0.542-0.025l0.204-0.088l0.256-0.514l-0.124-0.459l-0.229-0.388
	l-0.125-0.829l0.381-0.543l0.293-0.591l-0.327-0.662l-0.279-0.161l-0.269-0.105l-0.205-0.168l-0.075-0.334l0.166-0.172l1.085-0.234
	l1.128-0.584l0.459-0.077l0.478,0.008l0.399-0.05l0.327-0.188l0.257-0.433l-0.048-0.935l-1.46-0.719l-0.019-0.684l0.268-0.258
	l1.002-0.62l0.322-0.119l0.257-0.201l0.78-1.782l0.088-0.146l0.132-0.041l0.271-0.006l0.326,0.149l0.197,0.041l0.09-0.105
	l0.066-0.248l0.279-0.451l0.071-0.197l-0.037-0.305l-0.179-0.458l-0.064-0.347l0.006-0.221l0.09-0.125l0.252,0.189l0.166,0.089
	l0.226,0.021l0.847-0.096l0.461-0.174l0.739-0.402l0.649-0.713l0.158-0.715l-0.004-0.843l0.209-2.062l-0.357-1.682l0.173-1.036
	l0.347-0.858l0.293-0.488l0.248-0.079L82.738,51l0.453,0.023l0.43-0.131l0.186-0.213l0.291-0.322l-0.103-0.454l-0.231-0.483
	l-0.082-0.423l0.231-0.317l2.255-0.887l0.945-0.608l0.682-0.836l0.023-1.037l-0.62-0.745c-0.075-0.138-0.154-0.274-0.231-0.411
	l0.227-0.185l0.383-0.078l0.476-0.193l0.745-0.415l0.301-0.317l0.213-0.375l0.131-0.423l0.041-0.477l0.211-0.424l0.481-0.012
	l0.556,0.137l0.41,0.03l0.418-0.608l0.02-1.003l-0.204-1.032l-0.397-1.221l-0.084-0.495l-0.025-1.128l0.091-0.571l0.244-0.395
	l1.079-0.894l0.311-0.357l0.244-0.405l0.102-0.406l0.006-0.634l0.098-0.415l0.244-0.251l0.488-0.143l0.5-0.066l0.459-0.132
	l0.207-0.308l-0.267-0.599l-0.315-0.458l-0.088-0.292l0.129-0.228l0.342-0.28l0.363-0.395l0.006-0.322l-0.567-0.74l-0.304-0.571
	l0.019-0.44l0.285-0.334l3.089-1.354l1.27-1.056l-0.185-0.452l-0.536-0.386l-0.529-0.259l0.197-0.458l0.297-0.316l0.383-0.183
	l0.439-0.056l0.592,0.471l0.309,0.084L100,21.866l-0.268-0.758L99.2,20.56"/>
</svg>
