<?xml version="1.0" encoding="utf-8"?>
<!-- Generator: Adobe Illustrator 16.0.4, SVG Export Plug-In . SVG Version: 6.00 Build 0)  -->
<!DOCTYPE svg PUBLIC "-//W3C//DTD SVG 1.1//EN" "http://www.w3.org/Graphics/SVG/1.1/DTD/svg11.dtd">
<svg version="1.1" id="Layer_1" xmlns="http://www.w3.org/2000/svg" xmlns:xlink="http://www.w3.org/1999/xlink" x="0px" y="0px"
	 width="100px" height="100px" viewBox="0 0 100 100" enable-background="new 0 0 100 100" xml:space="preserve">
<path fill="#555555" d="M48.215,92.7l-0.265-0.104l-0.041-0.039l-0.136-0.093l-0.08,0.065L47.6,92.573l-0.106,0.005l-0.117-0.053
	l0.097,0.293l0.205,0.218l0.276,0.134l0.312,0.048l0.274-0.095l-0.074-0.208L48.215,92.7z M47.583,85.186l0.086-0.115l0.01-0.15
	l-0.031-0.016l-0.223-0.178l-0.067-0.027l-0.097-0.008l-0.125,0.07l-0.326,0.283l-0.067,0.025l-0.094,0.02l-0.734-0.333
	l-0.171-0.017l-0.356,0.02l-0.147-0.033l-0.457-0.244l-0.225-0.012l-0.067,0.012l-0.056,0.037l-0.085,0.071L44.3,84.66l0.048,0.029
	l0.143,0.027l0.112,0.078l0.094,0.112l0.087,0.126l-0.11,0.262l0.21,0.199l0.345,0.126l0.298,0.039l1.861-0.382L47.583,85.186z
	 M51.932,90.439v-0.008l-0.051,0.031l-0.09,0.021l-0.025,0.021l0.021,0.037l0.031,0.087l0.031,0.054V90.68l0.004,0.008l0.084-0.174
	l-0.002-0.078L51.932,90.439z M43.484,85.324l-0.097-0.229l0.012-0.263l-0.131,0.108l-0.147,0.062l-0.505,0.029l-0.099,0.035
	l-0.093,0.056l-0.128,0.049l-0.183-0.003l-0.353-0.068l-0.158,0.071l0.158,0.146l0.193,0.226l0.161,0.233l0.067,0.188l0.077,0.104
	l0.18,0.125l0.204,0.082l0.15-0.029l0.089-0.068l0.081-0.003l0.096,0.022l0.137,0.015l0.089-0.024l0.442-0.297l0.107-0.109
	l0.06-0.154l0.019-0.246l-0.245,0.065L43.484,85.324z M41.091,84.854L41.013,84.8l-0.092-0.04l-0.098-0.041l-0.058-0.07
	l-0.053-0.088l-0.088-0.078l-0.036,0.19l-0.113,0.067l-0.254,0.02l-0.158,0.113l-0.021,0.107l0.068,0.026l0.11-0.112l0.242,0.106
	l0.224,0.04l0.517-0.008l-0.047-0.104L41.091,84.854z M48.855,85.197l-0.119-0.021l-0.071-0.042l-0.101-0.03l-0.084,0.006
	l-0.021,0.024l0.022,0.032l0.142,0.066l0.079-0.01l0.117,0.016l0.114-0.027l-0.011-0.031L48.855,85.197z M93.236,82.102
	l-0.002-0.137l-0.271-0.177l-0.098-0.108l-0.082-0.07l-0.145-0.075l-0.703-0.515l-0.125-0.146l-0.043-0.038L91.6,80.729
	l-0.039-0.035l-0.064-0.073l-0.035-0.028L91.43,80.58l-0.041-0.006l-0.109-0.004l-0.055-0.018l-0.043-0.048l-0.033-0.065
	l-0.025-0.121l-0.012-0.098l0.002-0.01l0.045-0.148l0.037-0.149l-0.084-0.103L91.098,79.8l-0.041-0.207l-0.09-0.101l-0.111-0.088
	l-0.102-0.166l-0.012-0.067l0.012-0.241l-0.012-0.082l-0.027-0.045l-0.039-0.043l-0.549-1.128l-0.229-0.034l-0.178-0.111
	l-0.107-0.193l-0.016-0.285l-0.031-0.125L89.5,76.717l-0.096-0.14l-0.119-0.062l-0.133-0.049l-0.061-0.121
	c-0.029-0.425-0.066-0.848-0.096-1.271c-1.908-1.781-3.824-3.557-5.707-5.362c-1.85-1.774-3.689-3.556-5.535-5.336
	c-1.855-1.794-3.711-3.592-5.562-5.396c-0.102-0.099-0.199-0.195-0.303-0.295c-1.906-1.776-3.811-3.559-5.713-5.34
	c-1.795-1.686-3.588-3.372-5.377-5.062c-0.422-0.397-0.842-0.795-1.262-1.192c-1.967-1.73-3.934-3.463-5.896-5.198
	c-1.957-1.73-3.911-3.465-5.862-5.2c-1.342-1.193-2.681-2.391-4.021-3.588c-0.02-2.59-0.001-5.182-0.001-7.771
	c0-2.411-0.002-4.822-0.002-7.232c0-2.688,0-5.376-0.001-8.063c-0.001-2.657,0-5.315-0.001-7.973c0-0.688,0-1.378,0-2.066H8.231
	l0.096,0.203l0.035,0.116l0.012,0.122L8.338,1.48L8.276,1.674L8.07,2.104L7.84,2.41v0.07l0.284,0.118l0.423,0.309l0.337,0.375
	L8.911,3.6L8.899,3.774l0.112,0.271l0.098,0.249l0.071,0.11l0.032,0.062L9.203,4.765l0.006,0.106L9.261,4.98l0.07,0.086l0.082,0.065
	l0.089,0.046l-0.115,0.2l0.05,0.353l0.139,0.679L9.551,6.743L9.386,7.388L9.312,7.973l-0.188,0.76L8.97,9.12L8.871,9.538
	L8.736,9.702L8.714,9.887l0.011,0.204l0.041,0.141l-0.014,0.155l0.273,0.439L9.11,11.06l-0.012,0.259l-0.506,1.649l-0.371,0.599
	l-0.089,0.241l0.154-0.083l0.14-0.195l0.378-0.677l0.047-0.035l0.342,0.04l0.095-0.04l0.078,0.062l0.037,0.014l-0.137,0.251
	l-0.156,0.09l-0.185,0.037l-0.223,0.081l-0.115,0.144L8.371,13.94l-0.094,0.094L8.26,14.477L8.182,14.69l-0.193-0.092L7.87,14.483
	l0.002-0.037l0.048-0.224l0.03-0.084l-0.255,0.341l-0.144,0.265l-0.116,0.342l0.017,0.032l0.033,0.051l0.016,0.048l-0.037,0.021
	l-0.033,0.01l-0.027,0.027l-0.019,0.038l-0.021,0.124L7.13,15.874l-0.067,0.163c-0.052,0.197-0.104,0.395-0.158,0.592l-0.019,0.184
	L6.847,16.98L6.77,17.163l-0.055,0.178l0.027,0.149l0.126,0.229l0.251,0.666l0.057,0.276L7.078,19.17l0.024,0.261l0.135,0.122
	l0.123,0.059l1.12,1.011l0.464,0.279l0.16,0.151l0.329,0.485l0.019,0.075l0.023,0.249l0.039,0.094l0.064,0.038l0.206,0.071
	l0.08,0.04l0.266,0.256l1.206,1.774l0.045,0.183l0.041,0.48l0.083,0.25l0.063,0.137l0.051,0.061l0.098,0.037l0.05,0.092l0.035,0.11
	l0.051,0.099l0.051,0.178l-0.022,0.762l0.236,0.635l-0.033,0.103l-0.123,0.103l-0.093,0.239l-0.098,0.481l-0.084,0.751l-0.128,0.383
	l0.158,0.386l-0.008,0.197l0.075,0.076l0.064,0.147l0.09,0.288l0.1,0.491l0.084,0.23l0.138,0.098l0.316,0.745l0.013,0.112
	l-0.013,0.363l0.019,0.11l0.083,0.218l0.019,0.115l-0.036,0.271l-0.09,0.138l-0.114,0.107L12.345,33.5l0.034,0.322l0.239,0.363
	l0.59,0.646l0.448,0.365l0.075,0.108l0.076,0.16l0.177,0.165l0.322,0.229l0.26,0.263l1.422,1.915l0.283,0.256l1.017,0.535
	l0.253,0.268l0.214,0.633l0.208,0.211l-0.009,0.533l0.099,0.163l-0.006-0.069l0.006-0.221l0.49,0.335l0.153,0.174l0.035,0.085
	l0.041,0.201l0.033,0.087l0.235,0.29l0.397,0.649l0.338,0.402l0.134,0.225l0.056,0.254l-0.149-0.212l-0.213-0.196l-0.192-0.219
	l-0.084-0.285l-0.088-0.175L18.8,41.506l-0.167-0.139l0.253,0.628l0.025,0.292l-0.279,1.052l-0.233,0.422l-0.055,0.164l0.226,0.016
	l0.062-0.016l0.064-0.039l0.013-0.027l0.003-0.03l0.095-0.142l0.048-0.092l0.068-0.092l0.116-0.092l-0.058-0.035l-0.038-0.042
	l-0.083-0.143l0.069-0.024l0.058-0.042l0.053-0.062l0.05-0.088l0.148,0.325l0.236,0.202l0.541,0.271l0.046,0.04l0.112,0.087
	l0.09,0.127l0.08,0.288l0.1,0.088l0.204,0.104l0.106,0.096l0.212,0.298l0.105,0.055l0.088-0.072l0.042-0.141l-0.033-0.163
	l0.47,0.392l0.249,0.271l0.286,0.207l0.119,0.113l0.151,0.112l0.201,0.061l0.19-0.019l0.116-0.114l-0.012-0.188l-0.099-0.149
	l-0.056-0.129l0.115-0.119l0.068,0.161l0.108,0.06l0.079-0.052l-0.021-0.169l-0.095-0.149l-0.261-0.221l-0.109-0.139l0.054-0.026
	l0.071-0.078l0.047-0.041l-0.083-0.106l0.009-0.12l0.082-0.096l0.242-0.085l-0.082-0.097l-0.225-0.149l-0.064-0.206l-0.004-0.609
	l-0.046-0.283l0.327-0.009l0.222-0.055l0.163-0.15l0.15-0.297l0.893,0.511l0.147,0.184l0.037,0.097l0.094,0.082l0.122,0.054
	l0.271,0.056l0.428,0.189l0.167-0.003l0.11-0.025l0.094-0.066l0.298-0.278l0.051-0.07l0.037-0.089l0.057-0.215l0.026-0.066
	l0.086-0.069l0.147-0.082l0.16-0.062l0.125-0.005l0.146,0.107l0.009,0.14l-0.155,0.342l0.383,0.118l0.421,0.029l-0.065,0.127
	l-0.042,0.047l-0.066,0.042l0.104,0.039l0.141-0.007l0.148-0.039l0.125-0.058l0.012-0.112l0.101-0.017l0.294,0.05l0.116-0.008
	l0.318-0.064l0.172-0.095l0.181-0.219l0.253-0.423h0.052l-0.038,0.252l-0.078,0.198l-0.12,0.159l-0.162,0.127l-0.088,0.029
	l-0.098,0.018l-0.092,0.032l-0.071,0.072l-0.028,0.097l0.01,0.093l0.042,0.067l0.065,0.027l0.378-0.061l0.196-0.077l0.084-0.114
	l0.006-0.145l0.021-0.078l0.12-0.143l0.058-0.035l0.054,0.015l0.056,0.036l0.063,0.019l0.042-0.019l0.063-0.096l0.04-0.024
	l0.194-0.003l0.148,0.037l0.121,0.073l0.573,0.489l0.146,0.053l0.091,0.079l0.144,0.179l0.113,0.177v0.079l-0.14-0.06l-0.174-0.139
	l-0.154-0.172l-0.081-0.144l-0.145,0.029l-0.194-0.09l-0.299-0.23l-0.036-0.072l-0.016-0.087L30.32,42.81l-0.088-0.054l-0.088,0.008
	l-0.071,0.05l-0.057,0.055l-0.045,0.028l-0.192-0.006l-0.089,0.03l-0.038,0.089l-0.007,0.09l-0.017,0.109l-0.026,0.092l-0.034,0.038
	l-0.079,0.015l-0.085,0.037l-0.068,0.06l-0.029,0.072l0.042,0.024l0.251,0.082l-0.171,0.087l-0.176-0.019l-0.343-0.136l-1.022-0.106
	l-0.407-0.139l-1.028-0.125l-0.191,0.06l-0.389,0.254l-0.199,0.057l-0.167-0.057l-0.317-0.254l-0.182-0.06l-0.19,0.032l-0.127,0.088
	l-0.398,0.404l-0.088,0.043l-0.113,0.015l-0.087-0.022l-0.084-0.037l-0.065,0.002l-0.065,0.244l-0.101,0.167l-0.132,0.129
	l-0.134,0.035l0.223,0.365l0.335,0.156l0.288,0.204l0.079,0.507l-0.117,0.397l-0.003,0.231l0.152,0.103l0.174,0.027l0.437,0.164
	l0.162,0.097l-0.345,0.146l0.047,0.013l0.125,0.064l-0.055,0.157l0.073,0.03l0.217-0.041l0.105,0.067l0.053,0.085l0.16,0.412
	l0.357,1.228l0.111,0.223l0.132,0.153h0.204l0.057,0.018l0.039,0.045l0.052,0.09l0.01,0.05l-0.012,0.074l-0.003,0.062l0.033,0.028
	l0.064,0.009l0.137,0.069l-0.12,0.105l-0.17,0.042l-0.185-0.015l-0.163-0.067l-0.099-0.13l-0.09-0.184l-0.097-0.137l-0.116,0.013
	l-0.09-0.072l-0.09-0.095l-0.092-0.057l-0.18,0.082l-0.047-0.079l-0.036-0.12l-0.041-0.089l-0.121-0.077l-0.093-0.013l-0.059-0.047
	l-0.021-0.187l-0.059-0.036l-0.278,0.045l-0.091-0.009l-0.144-0.206l-0.061-0.057l-0.069-0.023l-0.149-0.01l-0.074-0.032
	l-0.105-0.102l-0.021-0.077l-0.007-0.09l-0.065-0.129l-0.005-0.104l0.055-0.674l0.023-0.097l0.058-0.058l0.13-0.05l-0.133,0.003
	l-0.041-0.053l0.001-0.085l-0.005-0.083l-0.113-0.437l-0.083-0.109l-0.177-0.034l-0.361,0.012l-0.175,0.043l-0.125,0.089
	l-0.143,0.419l0.052,0.459l0.112,0.456l0.036,0.412l-0.052,0.19l-0.147,0.316l-0.03,0.251l0.052,0.471l0.099,0.094l0.106,0.019
	l0.107-0.004l0.096,0.035l0.127,0.189l0.086,0.457l0.1,0.191l0.114,0.172l0.081,0.216l0.05,0.23l0.022,0.213l-0.042,0.455
	l-0.086,0.416l-0.008,0.394l0.194,0.392l0.252,0.209l0.11,0.135l0.046,0.203l0.088,0.121l0.539,0.414l0.477,0.623l0.261,0.258
	l0.645,0.396l0.166,0.066l0.187,0.027l0.195-0.043l0.184-0.07l0.166-0.012l0.14,0.125l0.282-0.18l0.247-0.021l0.23,0.129
	l0.229,0.285l0.488,0.938l0.202,0.285l-0.173,0.646l0.074,0.038l0.071,0.017l0.072-0.017l0.075-0.038l0.032,0.073l0.009,0.069
	l-0.011,0.068l-0.031,0.072l-0.198-0.062l-0.125-0.012l-0.065,0.104l-0.045,0.507l-0.071,0.214l-0.101,0.196L28.185,58.4
	l-0.17,0.095l-0.137-0.078l-0.135-0.132l-0.166-0.059l-0.135,0.078l-0.113,0.17l-0.155,0.395l0.14,0.047L27.425,59l0.097,0.053
	l0.082,0.076l0.035,0.141l-0.037,0.092l-0.162,0.022l-0.037,0.093l0.027,0.186l0.208,0.498l0.088,0.443l0.021,0.447l0.015,0.086
	l0.106,0.303l0.026,0.127l0.007,0.074l0.019,0.062l0.062,0.098l0.088,0.071l0.092,0.04l0.073,0.062l0.029,0.146l0.038,0.104
	l0.09,0.104l0.107,0.079l0.253,0.068l0.807,0.547l0.246,0.269l0.425,0.712l0.14,0.38l0.101,0.187l0.131,0.078l0.2,0.027l0.167,0.072
	l0.136,0.111l0.106,0.137l0.083,0.163l0.075,0.194l0.052,0.222l0.02,0.233l0.05,0.207l0.121,0.15l0.29,0.256l0.2,0.296l0.112,0.136
	l0.304,0.16l0.099,0.234l0.089,0.449l0.321,0.63l0.18,0.028l0.487,0.26l0.301,0.051l0.247,0.266l0.25,0.495l0.292,0.341l0.241,0.319
	l0.233,0.226l0.243,0.166l0.571,0.09l0.214,0.1l0.1,0.126l0.057,0.149l0.074,0.281l0.064,0.112l0.166,0.224l0.063,0.147
	l-0.133,0.083l-0.123,0.021l-0.051-0.067l0.077-0.172l-0.062-0.063l-0.23,0.666l-0.013,0.371l0.023,0.166l0.082,0.161l0.217,0.196
	l0.503,0.203l0.221,0.16l0.038-0.052l0.145-0.05l0.176-0.025l0.133,0.018l0.07,0.052l0.16,0.165l0.072,0.037l0.147,0.055
	l0.068,0.051l0.077,0.314l0.042,0.355l-0.026,0.396l-0.055,0.402L38.112,75.8l-0.032,0.236l0.038,0.089l0.25,0.219l0.065,0.079
	l0.05,0.078l0.037,0.093l0.021,0.11l-0.012,0.235L38.4,77.342l-0.032,0.234l0.107,0.15l0.089,0.183l0.065,0.194l-0.027,0.266
	l-0.073,0.186L38.458,78.7l-0.056,0.164l-0.084,0.323l-0.077,0.166l0.054,0.117l0.105,0.104l0.217,0.066l0.252,0.069l0.198-0.005
	l0.311,0.253l0.244,0.341l0.198,0.396l0.362,0.014l0.796-0.176l1.254-0.078l0.407,0.033l0.354,0.145l0.43-0.128l0.493,0.171
	l0.864,0.438l0.156-0.029l0.188-0.077l0.183-0.048l0.136,0.059l0.111,0.092l0.193,0.117l0.207,0.092l0.153,0.019l0.1-0.069
	l0.07-0.096l0.079-0.082l0.419-0.095l0.184,0.055l0.206-0.006l0.103,0.009l0.093,0.043l0.19,0.166l0.538,0.244l0.305,0.09
	l1.014,0.904l0.115,0.052l0.2-0.005l0.093,0.021l0.083,0.052l0.033,0.087l0.001,0.107l0.027,0.094l0.11,0.061l-0.044,0.119
	l0.028,0.137l0.074,0.144l0.089,0.126l0.033,0.064l0.027,0.127l0.029,0.049l0.039,0.029l0.083,0.019l0.05,0.03l0.375,0.34
	l0.221,0.121l0.268,0.017l-0.121-0.029l-0.074-0.024l-0.058,0.014l-0.04-0.09l0.281,0.053l0.701,0.43l0.844,0.244l0.42,0.045
	l0.33,0.142l0.152,0.146l0.152-0.092l0.17-0.072l1.223-0.144l0.119,0.009l0.084,0.04l0.064,0.009l0.096-0.041l0.127-0.072
	l0.211,0.045l0.252,0.17l0.264,0.234l0.32,0.502l0.197,0.467l0.17,0.375l0.053,0.182l0.016,0.15L57.283,87.3l-0.068,0.138
	l-0.117,0.141l-0.039,0.167l0.168,0.222l0.059,0.031l0.088,0.029l0.096,0.006l0.08-0.04l0.094-0.021l0.086,0.09l0.082,0.114
	l0.084,0.06l0.084,0.021l0.096,0.042l0.1,0.027l0.092-0.021l0.045-0.062l0.006-0.082l-0.004-0.094l0.059-0.301l0.047-0.06
	l0.109-0.022l0.064-0.023l0.074-0.043L58.74,87.6l0.207,0.15l0.137,0.006l0.17-0.027l0.229,0.019l0.158,0.069l1.146,1.145
	l0.295,0.232l1.002,0.513l0.404,0.323l0.348,0.451l0.168,0.1l0.375,0.229l0.139,0.104l0.488,0.518l0.779,0.549l1.221,1.66
	l0.449,0.95l0.162,0.513l0.02,0.185l0.076,0.121l0.219,1.013l-0.002,0.162l-0.08,0.197l-0.098,0.104l-0.068,0.106l0.012,0.214
	l0.209,0.321l0.025,0.145l-0.008,0.206l-0.062,0.442l0.02,0.103l0.082,0.179l0.037,0.127l0.039-0.088l0.043-0.318l0.084-0.11
	l0.109-0.053h0.057l0.146,0.032l0.148,0.078l0.188,0.084l0.096,0.084l0.137,0.196l0.117,0.229l0.029,0.177l-0.062,0.085L68.025,99.1
	l-0.063-0.133l-0.121-0.197l-0.094-0.186l-0.103-0.09l-0.019-0.133l-0.158-0.063h-0.12l-0.084,0.108L67.2,98.507h0.241l0.187,0.132
	l0.14,0.229l0.147,0.298l0.026,0.25l-0.026,0.232l0.051,0.283l0.06,0.067h0.002c2.58-0.229,5.16-0.464,7.74-0.69
	c2.58-0.229,5.159-0.459,7.739-0.69c1.56-0.14,3.115-0.283,4.675-0.417l0.006,0.013l0.03-0.127l0.318-0.235l0.881,0.182l0.356-0.082
	l0.082-0.149l0.011-0.179l-0.009-0.186l0.031-0.174L90,97.131l0.312-0.217l0.096-0.129l0.023-0.217l-0.135-0.639l0.014-0.125
	l0.018-0.098l0.004-0.1l-0.033-0.127l-0.236-0.34l-0.293-0.16l-0.764-0.056l-0.332-0.133l-0.254-0.354l0.029-0.348l0.127-0.375
	l0.043-0.434l-0.084-0.579l-0.059-0.136l-0.264-0.301l-0.021-0.149l0.08-0.279l0.104-0.108l0.033-0.084l-0.053-0.108l-0.064-0.079
	l-0.088-0.127l-0.039-0.117l0.082-0.053l0.412-0.028l0.207-0.062l0.148-0.113l0.312-0.588l0.08-0.245l0.084-0.104l0.166-0.168
	l0.115-0.147l0.025-0.067l0.031-0.134l-0.047-0.219V89.15l0.074-0.062l0.025-0.047l0.008-0.111l-0.006-0.219l0.041-0.246
	l0.092-0.146l0.102-0.112l0.055-0.146l-0.092-0.186l-0.035-0.109l0.045-0.052l0.029-0.055l0.008-0.117l-0.008-0.119l-0.029-0.052
	l-0.104-0.11l-0.03-0.243l-0.002-0.259l-0.017-0.153l0.151-0.123l0.068-0.094L90.148,86.3l-0.164-0.194l-0.068-0.109l-0.029-0.119
	l0.053-0.227l0.135-0.139l0.33-0.221l0.141-0.139l0.133-0.164l0.1-0.194l0.07-0.431l0.088-0.189l0.135-0.141l0.305-0.098
	l0.859-0.612l0.168-0.044l0.266-0.346l0.283-0.277l0.268-0.204l0.068-0.138L93.236,82.102z M57.52,91.268l-0.725-0.278l-0.135-0.033
	L56.1,90.609l-0.225-0.06l-0.199,0.027l-0.068,0.14l0.098,0.133l0.191,0.106l0.217,0.069l0.162,0.024l0.225,0.058l0.078,0.146
	l0.021,0.422l0.047,0.223l0.072,0.178l0.121,0.111l0.188,0.043l0.082-0.021l0.211-0.104l0.082-0.02l0.117,0.029l0.283,0.177
	l0.166,0.026l0.135-0.055l0.035-0.138l-0.496-0.735L57.52,91.268z M57.141,96.686l-0.314-0.41l-0.404-0.309l-0.17-0.182L56.13,95.52
	l-0.05-0.068l-0.057-0.102l-0.047-0.107l-0.021-0.096l-0.039-0.088l-0.094-0.025l-0.115-0.02l-0.104-0.048l-0.014,0.232l0.127,0.261
	l0.158,0.246l0.15,0.375l0.32,0.447l0.148,0.351l0.188,0.16l0.211,0.123l0.156,0.067l0.088,0.004l0.061-0.023l0.053-0.032
	l0.059-0.018l0.23,0.005l0.105-0.018l0.096-0.056L57.35,96.79L57.141,96.686z M18.484,46.984l-0.045,0.056l0.018,0.029l-0.005,0.021
	l0.006-0.021l0.003,0.006l-0.005,0.02l0.033-0.102l-0.01,0.01L18.484,46.984z M23.259,45.186l-0.013,0.032l-0.04-0.003l-0.021,0.048
	l0.007,0.087l0.003,0.003v0.002l0.054,0.027l0.066-0.018l0.046-0.129l-0.005-0.003l0.001-0.002L23.259,45.186z M23.726,45.612
	l0.031,0.13l0.004,0.006l0,0l0.102,0.116l0.005-0.035l-0.004-0.002v-0.002L23.812,45.8l0.018-0.175l-0.005-0.002l0.001-0.006
	L23.726,45.612z"/>
</svg>
