<?xml version="1.0" encoding="utf-8"?>
<!-- Generator: Adobe Illustrator 16.0.4, SVG Export Plug-In . SVG Version: 6.00 Build 0)  -->
<!DOCTYPE svg PUBLIC "-//W3C//DTD SVG 1.1//EN" "http://www.w3.org/Graphics/SVG/1.1/DTD/svg11.dtd">
<svg version="1.1" id="Layer_1" xmlns="http://www.w3.org/2000/svg" xmlns:xlink="http://www.w3.org/1999/xlink" x="0px" y="0px"
	 width="100px" height="100px" viewBox="0 0 100 100" enable-background="new 0 0 100 100" xml:space="preserve">
<path fill="#555555" d="M99.991,83.127c-0.005-2.881-0.019-5.762-0.024-8.645c-0.008-2.998-0.014-5.998-0.029-8.998
	c-0.014-2.93-0.021-5.857-0.026-8.787c-0.009-2.934-0.021-5.867-0.025-8.801c-0.007-2.923-0.02-5.847-0.022-8.771
	c-0.006-2.975-0.022-5.951-0.022-8.926c0-3.158-0.004-6.316-0.004-9.475c0-2.393-0.005-4.786-0.005-7.179c-3.301,0-6.6,0-9.898,0
	c-2.229,0-4.457-0.003-6.686-0.003c-1.098,0-2.193,0-3.29,0c-2.535,0-5.071,0-7.606,0c-3.567,0-7.139,0-10.707,0
	c-4.199,0-8.397,0-12.599,0c-4.424,0-8.849,0-13.272,0c-4.246,0-8.491,0-12.737,0c-3.662,0-7.324,0-10.987,0
	c-2.674,0-5.349,0-8.023,0c-1.283,0-2.566,0-3.85,0c-0.056,0-0.111,0-0.167,0c0,1.558,0,3.116,0,4.674c0,3.7,0,7.399,0,11.099
	c0,4.379,0,8.759,0,13.138c0,3.597,0,7.195,0,10.792c0,1.502,0.002,3.003-0.001,4.505C0,59.966,0,62.182,0,64.396
	c0,4.201,0,8.402,0,12.604c0,3.026,0,6.058,0,9.085c0,0.123,0,0.247,0,0.37h100C99.997,85.348,99.994,84.236,99.991,83.127"/>
</svg>
