<?xml version="1.0" encoding="utf-8"?>
<!-- Generator: Adobe Illustrator 16.0.4, SVG Export Plug-In . SVG Version: 6.00 Build 0)  -->
<!DOCTYPE svg PUBLIC "-//W3C//DTD SVG 1.1//EN" "http://www.w3.org/Graphics/SVG/1.1/DTD/svg11.dtd">
<svg version="1.1" id="Layer_1" xmlns="http://www.w3.org/2000/svg" xmlns:xlink="http://www.w3.org/1999/xlink" x="0px" y="0px"
	 width="100px" height="100px" viewBox="0 0 100 100" enable-background="new 0 0 100 100" xml:space="preserve">
<path fill="#555555" d="M99.954,45.035c-0.022-2.834-0.041-5.667-0.063-8.502c-0.021-3.056-0.047-6.112-0.07-9.168
	c-0.024-3.075-0.045-6.15-0.067-9.227c-0.003-0.38-0.006-0.759-0.009-1.139l-0.031-0.75c-2.811-0.02-5.617-0.035-8.427-0.092
	c-3.158-0.062-6.313-0.126-9.476-0.189c-3.134-0.062-6.268-0.123-9.399-0.184c-2.966-0.057-5.931-0.117-8.896-0.176
	c-1.013-0.021-2.023-0.038-3.037-0.056l-0.933,0.485l-0.444,0.021l-0.677-0.116l-1.208-0.375l-7.127-0.11l-0.291,1.594l-2.232,0.222
	l-0.064-1.815l-2.803-0.26c-2.772-0.108-5.544-0.214-8.316-0.32c-3.311-0.127-6.622-0.254-9.932-0.382
	c-2.6-0.1-5.2-0.199-7.799-0.299c-2.021-0.078-4.042-0.155-6.063-0.233c-0.198,3.039-0.389,6.078-0.579,9.118
	c-0.175,2.824-0.363,5.647-0.54,8.472c-0.177,2.837-0.337,5.676-0.529,8.512c-0.208,3.068-0.398,6.137-0.585,9.206
	c-0.186,3.044-0.398,6.087-0.584,9.132c-0.166,2.712-0.333,5.423-0.519,8.132c0.791,1.388,1.575,2.778,2.376,4.159l0.78,1.136
	l-0.828,0.628c-2.554,1.574-5.1,3.161-7.646,4.749c-1.066,0.666-2.135,1.329-3.203,1.991L0,79.689l0.29,0.485
	c0.836,1.339,1.679,2.673,2.529,4.001l0.169,0.201l0.227,0.169l0.127,0.11l0.169,0.223l0.259,0.592l0.185,0.562l1.193-0.67
	l0.644-0.327l0.185-0.089l0.169-0.266l1.071,0.865l0.993-0.074l0.95-0.676l0.892-0.966l0.475,0.586l0.977-1.668l0.845,0.337
	l0.549-0.062l1.916-1.256l0.723-0.315l2.281-1.542l0.412-0.121l0.385-0.744l0.918-0.518l1.014-0.303l0.686-0.1l0.428-0.152
	l0.586-0.672l0.427-0.158l0.428,0.116l0.733,0.423l0.449-0.021l0.364-0.285l0.66-0.894l0.201-0.186l0.168-0.12l0.17-0.598
	l0.21-0.267l0.111,0.074l0.168,0.201l0.195,0.18l0.232,0.012l1.748-1.33l0.348-0.073l0.602,0.406l0.259,0.459l0.354,0.264
	l0.934-0.188l0.687-0.284l0.264-0.243l0.18-0.391l0.49-0.75l0.46-0.392l1.135-0.532l0.522-0.479l0.549-0.338l1.488-0.101
	l0.644-0.248l0.471-0.496l1.335-1.892l1.932-1.879l0.137-0.351l0.428-0.67l0.475-0.447l0.217,0.314l0.137,1.604l0.396,0.782
	l0.676,0.242l3.046-0.091l0.539,0.278l0.38,0.127l0.845-0.665l0.539-0.188l1.974-0.139l0.702,0.139l0.508,0.297l0.459,0.363
	l0.507,0.269l0.659,0.012l0.412-0.274l0.4-0.484l0.475-0.443l2.957-0.675l1.191,0.342l2.146,1.041l0.569-0.442h0.381l0.137,0.354
	l0.139,0.145l0.184,0.127l0.281,0.314l0.653-0.949l1.062-0.738l1.16-0.477l0.998-0.144l2.207,0.84l1.086,0.084l0.979-0.925
	l-0.195-0.102l-0.506-0.41l0.532-1.638l-0.486-1.075l-0.859-0.908l-0.596-1.121l0.98,0.106l0.765,0.47l0.503,0.66l0.264,0.688
	l-0.03,0.633l-0.201,0.526l-0.136,0.478l0.166,0.501l0.322,0.273l0.719,0.322l0.371,0.342l1.666,0.734l3.158-1.9l1.394,0.908
	l0.307-1.814l1.366,0.095l1.686,0.72l1.287,0.062l0.486-0.78l0.32-1.626l0.604-0.411l2.449,2.354l3.294-1.774l0.489-0.115
	l3.385-0.086l0.66,0.133l0.686,0.371l0.508,0.459l0.018,0.386l-0.829,0.151v0.478l1.715-0.243l0.322-1.361l0.459-3.475l0.306-0.93
	l0.342-0.549l0.674-0.181c0.152-2.372,0.305-4.743,0.441-7.116C99.984,49.079,99.971,47.058,99.954,45.035"/>
</svg>
