<?xml version="1.0" encoding="utf-8"?>
<!-- Generator: Adobe Illustrator 16.0.4, SVG Export Plug-In . SVG Version: 6.00 Build 0)  -->
<!DOCTYPE svg PUBLIC "-//W3C//DTD SVG 1.1//EN" "http://www.w3.org/Graphics/SVG/1.1/DTD/svg11.dtd">
<svg version="1.1" id="Layer_1" xmlns="http://www.w3.org/2000/svg" xmlns:xlink="http://www.w3.org/1999/xlink" x="0px" y="0px"
	 width="100px" height="100px" viewBox="0 0 100 100" enable-background="new 0 0 100 100" xml:space="preserve">
<path fill="#555555" d="M69.924,94.766l-0.266-1.799l0.346-2.974v-0.681l-0.391-0.849l-0.379,0.103l-0.215,0.469l0.196,0.668
	l-0.524,0.877L67.543,92l-0.43,0.027l-0.459-0.577l-0.441-0.718l-0.359-0.401l-1.442,0.106l-2.199,1.521l-0.905-0.182l0.327-0.215
	l0.312-0.306l0.267-0.419l0.226-0.509h-1.131l0.983-1.188l3.823-1.035l1.269-1.209l-0.971-0.008l-0.808-0.326l-0.674-0.525
	l-0.588-0.596l0.182-0.066l0.146-0.012l0.084-0.108l0.357-0.04l0.299,0.126l0.787,0.101l-1.068-2.521l0.146-0.384h2.662l0.735,1.04
	l0.197,3.325l0.412-1.02l0.159-1.622l-0.668-7.606l-0.446-0.883l-0.916-0.125l-1.56,0.062l-2.115-0.561l-1.547-1.367l-2.819-3.896
	l-3.002-2.496l-0.447-0.707l-0.047-1.779l-0.162-1.377l-0.346-1.19l-1.742-3.778l-0.819-1.289l-1.545-0.961l-0.111-0.922
	l0.213-1.636l-0.135-0.688l-0.424-1.02l-0.199-0.736l-0.129-1.583l0.474-4.552l-0.214-1.764c-0.531-1.467-1.085-2.926-1.64-4.385
	l-1.657-2.104l-0.442-0.292l-0.955-0.04l-0.328-0.188l-0.131-0.441l-2.166-4.615l-0.785-1.119l-0.742-0.791l-0.933-1.268
	l-0.526-1.516l0.458-1.574l0.776-1.278l0.372-1.299l-0.079-1.301l-0.526-1.267l-0.475-0.623l-1.596-1.604l-0.146-0.635l0.232-0.757
	l0.327-0.809l0.164-0.764l0.311-0.487l1.97-0.746l0.312-0.283l2.495-3.167l0.724-1.254l0.604-2.913l0.776-0.9l1.968-1.357
	l0.509-0.673c-0.317-0.296-0.645-0.581-0.968-0.871l-1.611-1.019l-2.031-0.684L42.348,0l-2.46,0.096l-1.244,0.209l-1.777,0.532
	l-1.034,0.514l-1.244,0.797l-0.983,1.007c-1.283,2.099-2.568,4.196-3.84,6.301L29.662,9.57L29.24,9.552
	c0.164,3.557,0.331,7.113,0.496,10.669c0.169,3.645,0.343,7.289,0.512,10.933c0.172,3.705,0.35,7.41,0.521,11.116
	c0.174,3.743,0.354,7.485,0.527,11.227c0.175,3.769,0.356,7.538,0.535,11.308c0.18,3.795,0.356,7.592,0.539,11.389
	c0.179,3.736,0.352,7.476,0.531,11.213c0.147,3.068,0.271,6.139,0.423,9.207l0.23,3.344c3.679,0,7.358,0.011,11.037,0.011
	c3.558,0,7.116,0.017,10.675,0.024c3.83,0.008,7.658,0.013,11.488,0c0.482-0.002,0.965,0,1.447,0l-0.066-0.527l0.508-0.007
	l0.412,0.08l0.328,0.177l0.26,0.253h0.777l0.344-1.702l-0.311-1.736L69.924,94.766z"/>
</svg>
