<?xml version="1.0" encoding="utf-8"?>
<!-- Generator: Adobe Illustrator 16.0.4, SVG Export Plug-In . SVG Version: 6.00 Build 0)  -->
<!DOCTYPE svg PUBLIC "-//W3C//DTD SVG 1.1//EN" "http://www.w3.org/Graphics/SVG/1.1/DTD/svg11.dtd">
<svg version="1.1" id="Layer_1" xmlns="http://www.w3.org/2000/svg" xmlns:xlink="http://www.w3.org/1999/xlink" x="0px" y="0px"
	 width="100px" height="100px" viewBox="0 0 100 100" enable-background="new 0 0 100 100" xml:space="preserve">
<path fill="#555555" d="M82.923,95.521l-0.101-0.004l-0.051,0.047l0.039,0.099l0.043,0.052l0.119,0.081l0.102,0.136l0.027-0.07
	l-0.065-0.213L82.923,95.521z M81.672,96.221l0.035,0.047l0.093,0.059l0.054-0.114l-0.094-0.058L81.672,96.221z M82.277,79.574
	l-0.151,0.101l0.005,0.07l0.35,0.139l0.098-0.021l0.097-0.104l-0.049-0.101l-0.153-0.032l-0.074,0.021l-0.053,0.031l-0.035-0.065
	L82.277,79.574z M82.156,95.174l-0.393-0.308l-0.093-0.015l-0.039-0.023l-0.038-0.051l0.87,1.349l0.021,0.431l0.291-0.221
	l-0.193-0.568L82.156,95.174z M81.76,79.516l0.146,0.174l0.043,0.049l0.049,0.021l-0.002-0.042l0.033-0.043l0.051-0.065l0.077-0.055
	l0.134-0.017l0.089-0.042l-0.034-0.09l-0.095-0.069l-0.089-0.046l-0.237-0.188l-0.092-0.09L81.604,78.9l-0.146,0.125L81.45,79.17
	l0.021,0.084v0.332l0.084-0.012l0.104-0.1L81.76,79.516z M81.29,79.27l0.039-0.096l-0.039-0.098l-0.035-0.045l-0.026-0.121
	l-0.094-0.223l-0.121-0.103l-0.205,0.04l-0.059,0.029l-0.116,0.027l-0.179,0.09l-0.04,0.158l0.063,0.086l0.039,0.039v0.059
	l0.015-0.006l0.022-0.1l0.014-0.058l0.002-0.066l0.066-0.052l0.062,0.048l0.039,0.05l0.205,0.018l0.074,0.104l0.039,0.078
	l0.055,0.085l0.093,0.093L81.29,79.27z M81.361,95.85l-0.098-0.01l-0.027,0.045l0.046,0.004l-0.019,0.023l-0.087,0.072l0.017,0.099
	l0.15,0.134l0.031,0.062l0.068,0.004l0.029-0.145l-0.035-0.16L81.361,95.85z M83.768,95.982l-0.164,0.197l0.021,0.026l0.128-0.069
	l0.105-0.101l-0.023-0.06L83.768,95.982z M91.482,89.746l0.185,0.109l-0.048-0.09L91.482,89.746z M91.044,89.258l0.069,0.113
	l0.023-0.117L91.044,89.258z M91.475,89.486l-0.057-0.034L91.4,89.596l0.039-0.017l0.052-0.015L91.475,89.486z M85.736,95.341
	l-0.268,0.125l0.424,0.005l0.146,0.084l0.066,0.213l0.066-0.192l0.085-0.136l0.116-0.099l0.312-0.125l0.037-0.042l0.014-0.1
	l-0.284,0.041L85.736,95.341z M90.796,91.213l-0.008,0.094l0.09-0.074L90.796,91.213z M80.904,95.811l-0.041-0.049l-0.098-0.078
	l-0.103-0.047l-0.081-0.008l-0.062-0.038l-0.043,0.011l-0.056,0.152l-0.014,0.189l0.053,0.125l0.031,0.029l0.036,0.027l0.062,0.016
	l0.056-0.035l0.065-0.019l0.081,0.026l0.074,0.074l0.055,0.104l0.039-0.062l-0.021-0.265L80.904,95.811z M90.932,93.163l-0.111,0.06
	l-0.082,0.079l-0.031,0.093l0.062,0.008l0.201-0.133l0.098-0.07l0.152-0.174l-0.021-0.066L90.932,93.163z M89.979,93.686
	l-0.082,0.076l-0.035-0.021l0.005-0.102l0.022-0.14l-0.587,0.419l-0.132,0.159l0.48-0.034l0.215-0.059l0.113-0.103l0.065-0.089
	l0.019-0.043l-0.004-0.064H89.979L89.979,93.686z M86.827,95.271l0.975-0.416l0.19-0.176l0.164-0.031l0.054-0.027l0.054-0.049v-0.09
	l-0.414,0.093L86.827,95.271z M90.426,90.693l0.092,0.146l0.004-0.072l-0.047-0.125L90.426,90.693z M78.021,78.518l0.035,0.068
	l0.035,0.098l0.077,0.039l0.172,0.022l0.069-0.08l0.158-0.281l-0.047-0.149l-0.166-0.063l-0.166,0.027l-0.135-0.007l-0.123,0.014
	L77.9,78.338l0.026,0.086l0.03,0.034L78.021,78.518z M70.872,66.93l-0.017-0.352l-0.084-0.075l-0.043-0.022h-0.062l0.167,0.688
	l0.112,0.294l0.18,0.336l-0.051-0.331L70.872,66.93z M39.943,20.111l-0.311,0.199l-0.525,0.275l-0.101,0.127l0.734-0.159
	l0.296-0.163l0.132-0.299l-0.097-0.03L39.943,20.111z M65.795,56.502l-0.318-0.587l-0.129-0.108l-0.221-0.105l0.059,0.183
	l0.158,0.253l0.094,0.113l0.108,0.229l0.56,0.662l0.229,0.178l-0.05-0.226L65.795,56.502z M70.695,65.643l-0.064-0.319l-0.143-0.339
	l-0.063-0.103l-0.039,0.013l-0.077,0.09l0.125,0.269l0.043,0.715l0.107,0.312l0.1-0.326L70.695,65.643z M60.423,30.246l-0.065-0.09
	l-0.092-0.066l-0.1,0.083l-0.008,0.209l0.109,0.062l0.17-0.081l0.095-0.034l-0.044-0.024L60.423,30.246z M38.223,21.294
	l-0.176,0.058l-0.062,0.027l-0.046,0.07l-0.056,0.066l-0.104,0.03l-0.137,0.023l-0.035,0.054L37.6,21.689l-0.043,0.062l-2.803,1.35
	l-0.579,0.145l-0.296,0.02l-0.358-0.219l-0.213-0.051l0.343,0.234l0.29,0.09l0.771-0.005l0.28-0.085l0.801-0.463l0.275-0.233
	l1.311-0.563l0.781-0.61l0.3-0.121l-0.004-0.062l0.108-0.102l0.073-0.034v-0.113l-0.167,0.09L38.223,21.294z M94.654,49.839
	l0.379,1.097l0.244,0.432l0.031,0.129l0.026,0.179l0.116,0.3l0.064,0.442l0.094,0.209l0.121,0.19l0.117,0.248l0.541,2.229
	l0.166,0.471l0.021,0.188l0.038,0.082l0.184,0.146l0.038,0.07l0.052,0.214l0.801,1.761l0.14,0.575l0.269,0.319l0.188,0.419
	l-0.056-0.341l-2.246-6.047l-0.043-0.233l-0.024-0.306l-0.058-0.307l-0.187-0.553l-0.532-0.932l-0.269-0.605l-0.103-0.603
	l-0.039-0.053l-0.035-0.03l-0.021-0.044v-0.073l-0.099,0.031l-0.035,0.026l-0.046,0.05L94.654,49.839z M12.742,11.064l-0.454,0.118
	l-0.089-0.105l-0.312,0.133l-1.415,0.189L9.897,11.38l-0.202,0.026l-0.362,0.139l-0.12,0.052l-0.322,0.104L7.954,11.69l-0.771,0.271
	L5.66,12.22l-1.068,0.023l-0.242,0.09l0.728,0.093l8.941-1.139l0.144,0.066l0.147,0.023l0.132-0.023l0.109-0.066l-1.256-0.164
	L12.742,11.064z M33.412,22.351l0.074-0.073l-0.03-0.164l-0.021-0.017l-0.168-0.014l-0.174-0.062l-0.327-0.051l-0.189,0.163
	l-0.246,0.02l-0.543-0.082l0.135,0.116l0.266,0.106l0.139,0.078l0.091,0.104l0.089,0.14l0.101,0.124l0.116,0.052l0.28,0.104h0.155
	l0.067-0.151l0.031-0.139l0.069-0.136L33.412,22.351z M73.079,70.07l-0.251,0.021l-0.436-0.098l-0.258-0.108l-0.201-0.158
	l-0.156-0.226l-0.112-0.304l-0.035-0.163l-0.051-0.142l-0.069-0.115l-0.115-0.09l0.058,0.451l0.125,0.459l0.093,0.217l0.12,0.16
	l0.146,0.119l0.797,0.463l0.201,0.047l0.226-0.074l0.335-0.279l0.249-0.055l-0.548-0.299L73.079,70.07z M78.613,97.04l-0.358,0.099
	L78.1,97.146l-0.125-0.105h-0.082l-0.062,0.085l-0.028,0.082l0.018,0.073l0.072,0.072v0.09l-0.132,0.147l-0.059,0.048l1-0.285
	l-0.06-0.246L78.613,97.04z M77.559,97.447l-0.054-0.055l-0.069-0.039h-0.082l-0.27,0.233l-0.102,0.05l-0.141-0.01l-0.14-0.047
	l-0.112,0.031l-0.055,0.225l0.396-0.054l0.197-0.06l0.124-0.087l0.056-0.089l0.043-0.105l0.053,0.084l0.014-0.006l0.004-0.047
	l0.012-0.031l0.031,0.076l0.034,0.059l0.047,0.039l0.074,0.021L77.6,97.525L77.559,97.447z M91.932,90.143l0.057-0.037l-0.034-0.086
	l-0.062,0.039L91.932,90.143z M80.059,95.768l-0.043-0.014l-0.039,0.004l-0.022-0.021l0.009-0.072H79.88l-0.09,0.305l0.133,0.016
	l0.091,0.035l0.019,0.055l-0.069,0.082v0.107l0.237-0.021l0.139,0.079l0.043,0.14l-0.062,0.194h-0.082l-0.068-0.172l-0.172-0.112
	l-0.389-0.106l0.078,0.1l0.08,0.07l0.195,0.123l-0.099,0.125l-0.044,0.024l-0.029,0.048l-0.081,0.057l-0.289,0.142l-0.131-0.078
	l-0.151,0.058l-0.258,0.219v0.098l0.939-0.268l0.453-0.188l0.326-0.234v-0.107l-0.451-0.526L80.059,95.768z M80.159,78.256
	l-0.089-0.104l-0.164-0.018l-0.035,0.125l0.031,0.086l0.062,0.065l0.081,0.042l0.019,0.129l-0.029,0.223l0.039,0.059l0.119-0.252
	l0.039-0.112l-0.03-0.095l-0.065-0.074l-0.027-0.043l0.013-0.01L80.159,78.256z M72.454,66.842l-0.256-0.264l-0.265-0.1h-0.18
	l0.172,0.43l0.248,0.467l0.176,0.447l-0.056,0.363l0.172,0.285l0.197,0.719l0.175,0.3l0.176,0.062l0.012-0.257l-0.094-0.749
	l-0.104-0.215l-0.202-0.314l-0.155-0.326l0.129-0.523L72.454,66.842z M72.521,97.086l-0.164-0.051l-0.148,0.037l-0.034,0.041
	l0.073-0.006l0.07,0.004l0.089,0.052l0.11,0.06l0.104,0.205l0.016,0.079l0.035-0.141l-0.023-0.155L72.521,97.086z M72.402,97.678
	l-0.006,0.038l0.131-0.038l0.066-0.055l-0.062,0.011L72.402,97.678z M85.831,86.552l0.108,0.087l0.125,0.077l0.035-0.142l0.03-0.065
	l-0.009-0.063l-0.035-0.107l-0.107-0.02l-0.151,0.035l-0.052-0.008l0.029-0.031l-0.08-0.023l-0.078,0.078L85.831,86.552z
	 M65.182,34.056l0.094,0.022l0.047-0.031l-0.014-0.03l-0.045-0.012l-0.048-0.034l-0.065-0.027h-0.074l-0.047,0.03l0.025,0.023
	l0.041-0.005L65.182,34.056z M63.518,30.945l0.004-0.073l-0.062-0.039h-0.062l-0.069,0.035l-0.022,0.107l0.047,0.056l0.086-0.027
	L63.518,30.945z M64.906,35.681l0.025,0.085l0.051,0.051l-0.012,0.06l-0.051,0.076l-0.011,0.039l0.062,0.017h0.141l0.107-0.094
	l0.006-0.155l-0.086-0.112l-0.105-0.056L64.939,35.6L64.906,35.681z M64.479,34.502l-0.023,0.079l0.062,0.034l-0.004-0.038
	L64.479,34.502z M64.32,35.539l-0.047,0.025l-0.01,0.046l0.043-0.02L64.32,35.539z M65.469,39.245l0.038-0.021l0.013-0.034
	l-0.056-0.101l-0.116,0.007l0.066,0.044l0.043,0.066v0.026L65.469,39.245z M64.73,36.621l0.055-0.015l0.053-0.032l0.014-0.03
	l-0.065-0.017l-0.065,0.051L64.73,36.621z M64.641,34.354l-0.039,0.012l-0.008,0.069l0.055-0.052l0.035,0.03l0.008,0.031
	l0.091-0.097l-0.056-0.048l-0.056,0.011l0.036,0.037l-0.012,0.018L64.641,34.354z M64.479,35.144l0.026,0.043l0.108-0.058
	l0.056-0.005l0.034,0.02l0.058,0.02l0.044-0.03l-0.044-0.029l-0.116-0.034l-0.112,0.024L64.479,35.144z M64.99,34.426l0.158-0.032
	l0.125,0.017l0.055-0.005l0.005-0.031l-0.051-0.046l-0.066-0.031h-0.062l-0.086,0.02l-0.084,0.054L64.99,34.426z M92.365,38.865
	l-0.221-0.447l-0.184,0.011L91.799,38.5l-0.292,0.216l-0.278,0.168l-0.078,0.104l-0.082,0.245l-0.279-0.009l-0.104,0.404
	l0.032,0.488l0.121,0.236l0.112,1.201l0.064,0.276l0.19,0.322l0.466,1.424l0.198,0.407l-0.022-0.222l-0.098-0.241l-0.117-0.292
	l-0.025-0.175l0.012-0.14l0.062-0.269l0.08-1.823l0.113-0.563l0.408-0.929L92.365,38.865z M65.574,34.188l-0.129-0.055l-0.082,0.034
	l0.133,0.094l-0.016,0.07l0.02,0.073l-0.004,0.074l0.031,0.073l0.094,0.07l0.031-0.046l-0.01-0.044l-0.021-0.034l0.002-0.206
	L65.574,34.188z M91.992,44.295l0.035,0.159l0.02,0.183h0.098l-0.037-0.136l-0.219-0.481L91.992,44.295z M65.384,37.958l0.046,0.031
	l0.034,0.016l0.013-0.038l0.008-0.055l-0.016-0.059l-0.21-0.019l-0.02,0.019l0.062,0.021L65.384,37.958z M65.143,37.5l-0.026-0.101
	l-0.027,0.031L65.143,37.5z M65.29,36.921l-0.052-0.055l-0.012,0.069l0.035,0.017L65.29,36.921z M65.507,36.132l-0.101-0.024
	l-0.108,0.043l0.03,0.067l0.236-0.059L65.507,36.132z M65.169,36.367l-0.073-0.021l-0.078,0.034v0.055l0.049,0.027l-0.037,0.017
	l-0.049-0.004l-0.051,0.004l-0.006,0.049l0.191,0.071l-0.004,0.057l0.051,0.04h0.059l0.02-0.012l0.068-0.109l0.014-0.179
	l-0.09-0.038L65.169,36.367z M86.229,86.875l0.051,0.189l0.102,0.17l0.104,0.039l0.094-0.062l0.043-0.093l0.117-0.172l-0.039-0.155
	l-0.062-0.028l-0.162-0.035l-0.172,0.024L86.229,86.875z M93.393,88.469l-0.047,0.01l-0.02,0.056l-0.062,0.021l-0.039,0.055
	l0.018,0.005l0.097-0.021L93.393,88.469z M94.146,89.631l-0.039-0.197l-0.056,0.14l-0.097,0.077l-0.021,0.058l-0.029,0.017
	l-0.031,0.053l0.031,0.046l0.168-0.181L94.146,89.631z M97.836,84.075l-0.039,0.071l-0.21,0.838l-0.112,0.233l-0.179,0.144
	l0.038,0.016l0.032,0.004l0.018,0.02l0.188-0.174l0.178-0.309l0.124-0.33l0.051-0.314l0.023-0.062l0.024-0.117l-0.021-0.073
	L97.836,84.075z M98.244,80.686l-0.055,0.078l-0.074,0.065l-0.102,0.065v0.09l0.059,0.017l0.035,0.022l0.035,0.029l0.051,0.028
	l-0.141,0.132l-0.021,0.152l0.082,0.115l0.168,0.009l0.062-0.095l0.026-0.81h-0.088L98.244,80.686z M92.65,88.91l0.045-0.1
	l-0.088-0.057l-0.1-0.038l-0.053,0.067l0.043,0.061L92.65,88.91z M91.83,89.639l-0.066,0.021v0.038l0.055,0.06l0.02,0.08
	l0.039,0.021l0.023,0.045l0.031-0.062v-0.104l-0.039-0.055L91.83,89.639z M88.116,87.602l0.048,0.09l0.021,0.209l0.023-0.012
	l0.051-0.09l0.027-0.124l-0.069-0.187l-0.081-0.092l-0.078,0.088l-0.017,0.109l0.026,0.018L88.116,87.602z M96.604,86.279
	l-0.354,0.517l-0.175,0.11l-0.419,0.104L95.57,87.1l0.046,0.164l0.104,0.077l0.098,0.099l0.031,0.209l-0.125,0.305l-0.486,0.521
	l-0.252,0.631l-0.594-0.123l-0.082,0.256l0.186-0.074l0.15,0.057l0.076,0.135l-0.051,0.17l-0.104-0.049l-0.045-0.004l0.004,0.053
	l0.062,0.106l-0.116,0.175l-0.145,0.074l-0.28,0.039l0.048,0.186l-0.086,0.172l-0.326,0.343l-0.188,0.308L93.396,91l-0.215,0.021
	l-0.07,0.086l-0.154,0.504l-0.152,0.063l-0.197,0.046l-0.125,0.077l0.069,0.159l0.259-0.003l0.299-0.295l0.486-0.638l0.407-0.354
	l0.101-0.147l0.121-0.338l0.086-0.158l0.146,0.045l0.141-0.082l1.073-1.057v-0.091l-0.06-0.221l0.164-0.354l0.432-0.619l0.384-0.496
	l0.067-0.146l0.027-0.112l0.063-0.17l0.086-0.168l0.09-0.094l0.056-0.029l0.05-0.044l0.043-0.055l0.043-0.082l-0.288-0.115
	L96.604,86.279z M92.189,92.161l-0.414,0.507l0.133-0.051l0.275-0.281l0.107-0.171l0.004-0.03l-0.012-0.052L92.189,92.161z
	 M85.835,86.111l-0.077,0.039l-0.043,0.068l0.098,0.032l0.467,0.032l0.016-0.043l-0.211-0.035L85.835,86.111z M86.607,86.691
	l0.121-0.094l-0.03-0.056l-0.229-0.062l-0.072,0.022l-0.028,0.078l0.034,0.085l0.062,0.059L86.607,86.691z M99.975,66.273
	l-0.078-0.459l-0.176-0.229v-0.109l0.202-0.213v-0.396l-0.342-1.405l-0.086-0.151l-0.124-0.098L99.08,63.13l-0.168-0.078v-0.091
	l0.156-0.072l0.154-0.021l0.137-0.047l0.094-0.158l-0.02-0.176l-0.25-0.535l-0.271-0.799l-0.318-0.644l-0.039-0.215l-0.086-0.233
	L98.1,59.876l-0.086-0.19l-0.496-0.558l-0.104,0.019l-0.296,0.094l-0.112-0.043l-0.211-0.135l-0.092-0.024l-0.335-0.39l-0.078-0.125
	l0.176-0.012l0.112,0.059l0.082,0.084l0.089,0.072l0.295,0.151l0.525,0.136l0.15,0.133l0.117,0.295l-0.013-0.229l-1.943-4.698
	l-0.466-2.24l-4.219-9.354l-0.102-0.354l-0.389-0.789l-0.245-0.852l-0.12-0.303l-0.311-1.442l-0.051-0.61l-0.052-0.292l-0.407-0.793
	l0.102-0.093v-0.113l-0.146-0.361l-0.216-1.36l0.259,0.112l0.438,0.408l0.565,0.207l0.039,0.264l-0.101,0.303l-0.112,0.227
	l-0.098-0.095l-0.098,0.214l-0.051,0.288v0.296l0.056,0.221l0.187,0.215l0.237,0.111l0.84,0.145l0.116-0.003l0.158-0.051l0.01-0.052
	l-0.018-0.216l0.008-0.056l0.087-0.004l0.073,0.043l0.065,0.052l0.043,0.021l0.261-0.021l0.18,0.065l0.115,0.146l0.082,0.226
	l0.099,0.592l-0.013,0.591l-0.396,1.885l-0.027,2.562l0.125,0.626l0.393,1.181l0.777,1.416l0.125,0.516l0.393,0.46l0.054,0.104
	l0.043,0.136l0.319,0.619l-0.016-0.638l-1.059-1.626l-0.275-0.634L93.1,46.178l-0.189-0.425l-0.28-1.511l-0.062-0.816l0.033-0.318
	l-0.098-0.102l0.094-0.19l0.01-1.458l0.043-0.078l0.104-0.05l0.102-0.113l0.07-0.125l0.031-0.08l0.12-0.023l0.233-0.273l0.162-0.315
	l-0.197-0.294l-0.318-0.974l-0.785-1.392l-0.697-0.987l-0.826-1.53l-1.776-2.827l-0.07-0.286l-0.116-0.27l-0.229-0.17l-0.168-0.172
	l0.074-0.264l-1.217-2.271l-0.859-2.379l-0.79-1.769l-0.583-1.089l-0.085-0.274l-0.058-0.308l-0.021-0.301l-0.059-0.283
	l-0.399-0.708l-0.185-0.904l-0.131-0.134l-0.086-0.163l-0.072-0.745l-0.067-0.218l0.099-0.112l-0.133-0.06l-0.086-0.085
	l-0.023-0.113l0.055-0.143l-0.073-0.024l-0.12-0.062l-0.074-0.021l0.078-0.479l-0.447-1.746l-0.08-1.147l-0.06-0.29L82.6,14.781
	l-0.115-0.275l-0.424-1.66l-0.016-0.626l0.09-0.676l-0.044-0.145l-0.094-0.102l-0.093-0.081l-0.038-0.086l0.043-0.489l-0.043-0.193
	l-0.069-0.141l-0.061-0.056l-0.064-0.034l-0.076-0.081l-0.063-0.121l-0.087-0.232l-0.08-0.121l-0.357-0.297L81,9.303l-0.227-0.085
	l-0.101-0.215l-0.017-0.271l0.029-0.268l-0.01-0.344l0.026-0.128l0.116-0.052l0.125,0.049l0.102,0.119l0.066,0.152l0.021,0.153
	l0.008,0.353l0.035,0.278l0.108,0.214l0.211,0.156l-0.052-0.44l0.052-1.29l0.098-0.407l0.022-0.261l-0.069-0.112L81.499,6.87
	l-0.013-0.071l-0.022-0.07l-0.103-0.035L81.261,6.71l-0.183,0.075L80.996,6.8l-0.312-0.126l-0.01-0.119l-0.098-0.023l-0.237-0.065
	l-0.427,0.129L79.79,6.598l-0.544-0.123l-0.133-0.06l-0.178-0.111L78.842,6.3l-0.138,0.021l-0.144-0.016l-0.634-0.189L77.732,6.03
	L77.6,5.95l-0.086-0.082l-0.127-0.09L77.2,5.728l-0.119-0.011l-0.118,0.015l-1.199-0.494l-0.181-0.101l-0.101-0.079l-0.193-0.123
	l-0.117-0.026L75.07,4.903l-0.082,0.005l-0.182-0.012l-0.103,0.007l-0.113,0.031l-0.065,0.059l-0.033,0.062l-0.021,0.098v0.03
	l-0.015,0.104l-0.017,0.07l-0.041,0.071l-0.057,0.048l-0.119,0.021l-0.109-0.014l-0.135-0.042l-0.067,0.018l-0.038,0.055
	l-0.027,0.16L73.827,5.76l-0.039,0.072l-0.156,0.155l-0.039,0.06l-0.026,0.066l-0.02,0.069L73.539,6.33l0.043,0.378l-0.008,0.087
	l-0.016,0.098l-0.094,0.346l-0.009,0.086l0.013,0.179l0.026,0.12l0.043,0.141L73.6,7.9l0.254,0.359l0.058,0.115l0.021,0.074
	L73.949,8.6l-0.006,0.176l-0.178,1.01l-0.265,0.949l-0.035,0.198l-0.009,0.094l0.027,0.439L73.48,11.56l-0.027,0.118l-0.051,0.06
	l-0.069,0.034l-0.36,0.101h-0.059l-0.066-0.008l-0.246-0.077l-0.088-0.016l-0.611,0.071l-0.125-0.01l-0.092-0.03l-0.07-0.047
	l-0.049-0.055l-0.076-0.132l-0.198-0.563l-0.026-0.136l-0.004-0.074l0.008-0.089l0.035-0.18l0.065-0.221l0.012-0.082l0.009-0.078
	l-0.009-0.069l-0.019-0.069L71.3,9.874l-0.059-0.097l-0.31-0.403l-0.072-0.123l-0.016-0.063V9.125l0.023-0.058l0.055-0.098
	l0.039-0.097V8.825l-0.027-0.021l-0.543-0.035l-0.483-0.035L69.29,8.69l-0.742-0.052l-0.86-0.058l-0.963-0.065L65.662,8.44
	l-1.146-0.076l-1.224-0.086l-1.291-0.087l-1.349-0.094L59.256,8l-1.431-0.096l-1.458-0.102L54.893,7.7l-1.48-0.1l-1.48-0.101
	l-1.465-0.104l-1.443-0.096l-1.411-0.098l-1.369-0.093l-1.313-0.094l-1.251-0.08l-1.182-0.078l-1.102-0.077L40.39,6.71l-0.901-0.063
	L38.696,6.59l-0.673-0.043l-0.541-0.038l-0.396-0.026l-0.245-0.016l-0.085-0.008L36.34,6.432L36.224,6.45l-0.587-0.625l-0.198-1.003
	l-0.017-0.646l-0.097-0.357l-0.179-0.361l-0.112-0.113l-0.105-0.459l-0.075-0.167l-0.08-0.082l-0.229-0.162l-0.059-0.07l-0.012-0.19
	l0.027-0.051H15.674l-2.091,0.004H0.436L0.351,2.381l0.022,0.716L0.354,3.17L0.081,3.761l-0.05,0.155L0.012,4.01L0,4.104l0.02,0.119
	l0.055,0.125l0.132,0.207l0.15,0.189L0.992,5.37l0.073,0.113l0.271,0.504l0.187,0.261L1.71,6.397l1.059,0.647l0.104,0.097
	L2.92,7.196l0.017,0.152L2.923,7.573L2.838,8.104L2.732,8.502L2.507,8.908L2.457,9.04L2.441,9.105l0.03,0.245l0.245,0.728
	l0.012,0.015l0.222,0.128l0.094,0.075l0.112,0.046l0.265-0.028l0.112,0.028l0.113,0.147l0.065,0.21l-0.008,0.183l-0.12,0.083
	l-0.318,0.072L3.02,11.225l-0.385,0.467v0.104l0.16,0.113l0.008,0.151l-0.098,0.155l-0.151,0.117l-0.159,0.039l-0.327-0.008
	l-0.159,0.062l0.23,0.081l0.225,0.116L1.877,12.69l-0.151,0.047l-0.117,0.08l-0.081,0.09l-0.09,0.079l-0.151,0.062v0.112
	l0.141-0.065l0.291-0.083l0.108,0.036l0.227-0.13l1.869-0.396l0.296-0.132L4.17,12.114l0.133-0.046l0.335-0.051l0.113-0.062
	l0.05-0.148l-0.04-0.375l0.032-0.145l0.244-0.152l0.301-0.023l0.253-0.092l0.108-0.354l0.054,0.043l0.016,0.016l0.027,0.035h0.081
	l0.311-0.588L6.24,9.985L6.182,9.716L5.937,9.33l-0.06-0.187L5.83,8.658l0.047-0.163l0.191-0.029L6.22,8.558l0.07,0.156l0.094,0.132
	l0.225,0.035L6.582,8.949L6.55,9.13L6.523,9.199l0.288,0.039l0.112,0.219l0.043,0.268l0.089,0.201L6.98,10.137l-0.022,0.249
	l0.074,0.175l0.202-0.008l0.133-0.167l0.09-0.521l0.166-0.354l0.283-0.828l0.07-0.11l0.012-0.149l-0.125-0.27l0.281,0.163
	l0.144,0.315l0.135,0.202l0.25-0.164l0.074,0.093l0.016,0.048l0.011,0.07l-0.45,0.2L8.132,9.245L8.054,9.463l0.021,0.148L8.14,9.684
	l0.098,0.025H8.37l0.059,0.066l0.179,0.295l0.117,0.066l0.222,0.021l0.296,0.078l0.271,0.134l0.159,0.183l-0.02,0.163l-0.19-0.062
	l-0.245-0.135l-0.174-0.07L8.188,11.15L7.95,11.193l-0.72,0.008l-0.794,0.214l-0.492,0.233l-0.11,0.026l-0.081,0.067l-0.054,0.167
	l0.66-0.083L7.67,11.46l2.045-0.277l0.738-0.009l0.374-0.062l0.29-0.146l0.28,0.115l1.069-0.115l1.025,0.062l0.152-0.11
	l-0.007-0.233l0.019-0.065l0.307,0.047l0.163-0.051l0.164-0.222l0.116-0.051l0.172-0.014l0.172-0.057l0.154-0.079l0.136-0.104
	l0.028-0.111l-0.066-0.381l-0.009-0.18l0.11,0.198l0.131,0.145l0.124,0.023l0.091-0.168l0.096-0.078l0.129-0.03l0.314,0.008
	l-0.299,0.408l-0.059,0.225l0.18,0.194l0.232,0.031l0.183-0.112l0.163-0.146l0.187-0.075l0.258-0.029l0.571-0.152l0.252-0.031
	l0.56,0.098l0.264-0.021l0.215-0.193l0.16,0.406l0.171,0.146l0.233-0.051L19.6,10.04l-0.009,0.254l-0.097,0.073l-0.065,0.069
	l0.074,0.23l0.4,0.436l0.011,0.082l0.105,0.111l-0.016,0.21l-0.129,0.113l-0.233-0.178l-0.132-0.076l-0.63-0.181l-0.357-0.284
	l-0.187-0.117l-0.182-0.022l-0.168,0.089l0.031,0.11l0.158,0.084l0.203,0.035l0.062,0.044L18.4,11.218l-0.084,0.104l-0.082,0.06
	l-0.595-0.148l-0.145-0.129l-0.097-0.17l-0.055-0.175l-0.012,0.015l-0.015-0.022l-0.063,0.008l-0.074,0.155l-0.069,0.209
	l-0.098,0.179l-0.162,0.079l-0.864-0.198l-1.057-0.035l-0.21-0.07l-0.012,0.046v0.043l-0.016,0.024l0.342,0.225l1.582,0.183
	l2.263,0.622l1.672,0.514l1.528,0.8l1.126,0.561l1.583,1.162l0.311,0.078L25,15.19l-0.082-0.098l0.104-0.027l0.167,0.175
	l0.103-0.218l-0.223-0.202l-0.24-0.151l-0.105-0.187l0.199-0.287l-0.164-0.163l-0.125-0.173l-0.146-0.135l-0.241-0.055l-0.284,0.047
	l-0.175,0.077H23.64l-0.206-0.171l-0.094-0.269l0.136-0.201l0.241-0.137l0.218-0.062l0.416-0.048l0.152-0.107l0.151-0.269
	l0.159,0.314l0.171,0.245l0.12,0.226l-0.004,0.26l0.156,0.051l0.093-0.121l0.094-0.167l0.147-0.085l0.184-0.066l0.194-0.117
	l0.15-0.021l0.062,0.205l0.233-0.158l0.318-0.549l0.129-0.121l0.132,0.077l0.117,0.18l0.167,0.366l-0.314-0.017l-0.515,0.61
	l-0.314-0.125l-0.203,0.031l-0.552,0.692l-0.279,0.162l0.105,0.149l0.093,0.104l0.109,0.083l0.459,0.225l0.124,0.102l0.1,0.175
	l0.228-0.062l0.303,0.12l0.288,0.191l0.178,0.153l0.028-0.077l0.035-0.062l0.022-0.066l0.004-0.104l0.245,0.098l0.202-0.066
	l0.206-0.106l0.248-0.019v0.094l-0.189,0.163l-0.051,0.232l0.093,0.137l0.237-0.116l0.052,0.226l-0.028,0.513l0.117,0.253
	l0.199,0.097l0.131-0.129l0.159-0.342l0.117-0.065l0.011,0.035l-0.004,0.078l0.055,0.065l0.105,0.012l0.215-0.012l0.092,0.046
	l0.059,0.163l-0.155,0.079l-0.21,0.058l-0.105,0.116l-0.21,0.12L28.3,16.873l-0.463-0.343l-0.21-0.318l-0.229-0.223l-0.859-0.264
	l0.007-0.28l-0.801-0.142l-0.104,0.03l0.112,0.175l0.657,0.652l0.175,0.081l1.68,1.377l-0.261-0.007l-0.307-0.196l-0.272-0.277
	l-0.147-0.253h-0.102l0.031,0.138l0.034,0.103l0.051,0.09l0.066,0.093l0.386,0.335l1.508,0.707l0.218,0.178l0.236,0.245l0.188,0.276
	l0.078,0.28l0.093,0.219l0.42,0.547l0.125,0.326l-0.059,1.062l0.016,0.174l0.045,0.062l-0.092,0.14L30.369,22l-0.125,0.07
	l-0.183-0.008L29.961,22l-0.346-0.524l-0.145-0.319l-0.093-0.341l-0.034-0.346l0.034-1.042l-0.034-0.147l-0.2,0.334l0.04,0.776
	l0.252,1.268l0.121,0.218l0.218,0.229l0.26,0.121L30.535,22l0.292,0.009l0.308,0.054l0.283,0.008l1.535-0.501l0.533-0.023
	l1.046,0.112l0.175-0.101l0.265-0.405l0.334-0.049l0.229-0.385l0.176-0.099l0.202-0.077l0.17-0.14l0.176-0.083l0.214,0.102
	L36.08,21.06l-0.06,0.123l0.062,0.267l0.149-0.052l0.19-0.166l0.178-0.097l0.258-0.056l0.21-0.124l0.311-0.242l0.202-0.062
	l0.354-0.047l0.164-0.09l0.664-0.637l0.396-0.283l0.642-0.18l0.544-0.447l0.719-0.419l0.147,0.155l0.215-0.019l0.248-0.086
	l0.257-0.051l0.544,0.051l0.495,0.163v0.093l-0.056,0.056l-0.125,0.163l0.374-0.227l0.172-0.351l-0.095-0.322l-0.408-0.143
	l-0.812-0.105l-0.124-0.077l-0.017-0.167l-0.047-0.146l-0.213-0.014l0.167-0.234l0.198,0.062l0.256,0.168l0.443,0.133l0.331,0.139
	l0.183,0.035l0.03-0.062l-0.264-0.319l-0.085-0.136l-0.039,0.055l-0.099,0.101l-0.034,0.06l-0.058-0.139l-0.039-0.076l0.035-0.121
	l0.019-0.035l-0.007-0.03l-0.047-0.125l0.097-0.111l0.051,0.046l0.035,0.023l0.086,0.042l-0.005-0.24l0.086-0.125l0.471-0.261
	l0.155-0.03L44,16.367l0.02-0.069l0.077-0.159l0.11-0.171l0.116-0.105l0.069-0.004l0.066,0.035l0.042,0.039l-0.008,0.022h0.272
	l0.077-0.035l0.075-0.139l0.085-0.031l0.079,0.015l0.033,0.039l0.023,0.039l0.039,0.02l0.102,0.089l0.058,0.184l0.069,0.132
	l0.134-0.055l0.271-0.175l0.948-0.082l0.423-0.178l0.258-0.024l0.965,0.793l1.239,0.787l0.591,0.256l0.315-0.065l0.28,0.318
	l0.162,0.135l0.23,0.056l0.161,0.09l0.576,0.438l0.124,0.147l0.113,0.189l0.494,0.522l0.111,0.326l0.059,0.081l0.125,0.075
	l0.125,0.092l0.054,0.157l0.069,0.359l0.011,0.156l0.082,0.253l0.196,0.291l0.236,0.265l0.213,0.183l0.451,0.206l0.09,0.071
	l0.155,0.151l0.112,0.085l0.269,0.109l0.259,0.042l0.228,0.069l0.155,0.19l0.054,0.314l-0.019,0.35l-0.086,0.302l-0.14,0.17
	l0.077,0.147l0.062,0.218l0.016,0.215l-0.066,0.139l0.335,0.249l0.173,0.085l0.131-0.019l0.668,0.793l0.361,0.292l0.327-0.055
	l0.271,0.23l0.228,0.244l0.403,0.553l0.227,0.445l0.034,0.024l0.021,0.315l0.03,0.15l0.046,0.098l0.125,0.136l0.21,0.133l0.237,0.1
	l0.202,0.043l0.187,0.082l0.12,0.19l0.091,0.211l0.096,0.132l-0.15,0.144l-0.009,0.137l0.103,0.101l0.19,0.038l0.069,0.083
	l0.012,0.175l0.058,0.175l0.224,0.081l0.172-0.008l0.088-0.016l0.232-0.089l0.196-0.034l0.371-0.01l0.151-0.05l0.232,0.147
	l0.292,0.121l0.304,0.011l0.262-0.186l0.058,0.085l0.152,0.147l0.058,0.082l0.104-0.07l0.267-0.132V30.1l0.031,0.232l0.104,0.173
	l0.227,0.121l-0.281,0.172l0.146,0.256l0.49,0.391l-0.012,0.064v0.451l-0.039,0.148l-0.064,0.155l0.073,0.12l0.154,0.07l0.155,0.015
	l-0.086,0.3l0.07,0.261l0.553,0.688l0.094,0.076l0.1,0.039l0.254,0.036l0.09,0.038l0.14,0.192l0.034,0.217l-0.096,0.724l0.012,0.159
	l0.097,0.443l-0.326-0.412l-0.21-0.121l-0.184,0.229l0.035,0.133l0.261,0.339l0.065,0.198l0.043,0.054h0.09l0.093,0.024l0.043,0.122
	v0.516l0.028,0.146l0.039,0.105l-0.01,0.102l-0.107,0.146l-0.047,0.109l0.008,0.132l0.039,0.129l0.05,0.101l-0.132,0.26
	l-0.047,1.283l-0.138,0.447l-0.024,0.175l-0.019,0.805l-0.286,0.502l0.016,0.108v0.093l-0.154,0.176l-0.475,1.255l0.094-0.03
	l0.039-0.022l0.05-0.048l0.026,0.194l-0.107,0.211l-0.279,0.415l-0.103,0.419l-0.082,0.2l-0.173,0.194l-0.125-0.082l-0.061,0.197
	l-0.015,0.292l0.008,0.202l0.07,0.374l0.077,0.225l0.125,0.215l-0.121,0.131l-0.035,0.183l-0.02,0.394l-0.289,1.357l-0.438,1.192
	l-0.065-0.214l0.027-0.261l0.098-0.253l0.125-0.194l-0.138,0.131l-0.146,0.211l-0.117,0.254l-0.051,0.272l0.025,0.287l0.125,0.423
	L63,49.869l0.184,0.346l0.805,0.793l0.183,0.487l0.039,0.244l0.104,0.329l0.147,0.266l0.167,0.035l0.012-0.188l-0.091-0.322
	l-0.192-0.51l-0.155-0.269l-0.785-0.854l-0.104-0.206l0.051-0.206l0.248,0.248l0.514,0.409l0.232,0.271l0.238,0.356l0.158,0.102
	l0.284,0.037l0.022,0.063l-0.016,0.324l0.03,0.124l0.073,0.066l0.09,0.025h0.242l0.213-0.09l0.148-0.218l0.047-0.269l-0.095-0.24
	l0.163-0.457l0.018-0.096l0.037-0.076l0.18-0.227l0.055-0.148v-0.177l-0.069-0.312l-0.02-0.175l0.419-0.253l0.117-0.093
	l-0.563,0.071l-0.507-0.199l-0.488-0.285l-0.506-0.205l0.209-0.249l0.607-0.17l0.164-0.188h-0.487l-0.12-0.031l-0.005-0.07
	l0.078-0.108l0.009-0.066l0.064-0.162l0.018-0.118l-0.023-0.104l-0.113-0.233l-0.034-0.129l0.532,0.519l-0.004-0.156l0.004-0.047
	h0.082l0.108,0.159l0.163,0.137l0.365,0.202v0.108l-0.271,0.102v0.113l0.416,0.006l0.346,0.076l0.234,0.19l0.084,0.38l-0.084,0.715
	l0.018,0.37l0.164,0.284l0.117,0.031l0.465,0.019l0.063-0.147l-0.024-0.152l-0.082-0.209l0.018-0.545l0.055-0.236l0.116-0.176
	l0.272-0.156l0.229,0.024l0.159,0.179l0.121,0.614l0.26,0.618l0.038,0.338l-0.107,0.227l-0.428,0.479L68.33,50.98l-0.369,0.259
	l-0.062,0.101l-0.207,0.412L67.6,51.814l-0.119,0.037l-0.104,0.078l-0.046,0.172l-0.039,0.114l-0.365,0.292l-0.176,0.305
	l-0.094,0.308l-0.128,0.267l-0.283,0.19l0.054,0.141l0.035,0.056l-0.155,0.183l0.168-0.073l0.211-0.031l-0.082,0.18l-0.181,0.133
	l-0.384,0.104l-0.207,0.108l0.191,0.04l0.158,0.061l0.145,0.088l0.136,0.117L66.057,54.7l-0.343-0.175l-0.319-0.099l-0.229,0.255
	l0.081,0.092l0.09,0.066l0.097,0.016l0.094-0.062h0.082l0.009,0.146l-0.024,0.133l-0.062,0.121l-0.095,0.101l-0.146-0.146
	l-0.346-0.164l-0.137-0.102l-0.07-0.115l-0.201-0.488h-0.09l0.047,0.234l0.253,0.668l0.151,0.215l0.207,0.088l0.487,0.086
	l0.509,0.383l0.25,0.131l0.187,0.193l0.146,0.713l0.275,0.562l0.016,0.369h-0.09l-0.043-0.09l-0.043-0.042l-0.047-0.026
	l-0.059-0.051l0.005,0.319l0.163,0.286l0.218,0.291l0.155,0.32h0.098v-0.203l0.136,0.098l0.091,0.158l0.047,0.211v0.248
	l-0.071-0.073l-0.048-0.073l-0.062-0.165l0.073,0.332l0.312,0.61l0.131,0.521l1.195,2.379l0.086,0.291l0.053,0.055l0.066,0.051
	l0.159,0.096l-0.062-0.224l-0.174-0.347l-0.043-0.229l0.356,0.39l0.385,1.256l0.392,0.268l0.121,0.004l0.094,0.021l0.188,0.064
	l0.104,0.066l0.125,0.119l0.09,0.024l0.078-0.017l0.037-0.034l0.023-0.032l0.042-0.015l0.063,0.03l0.125,0.146l0.043,0.027
	l0.08-0.055l0.098-0.107l0.078-0.102l0.012-0.055l0.112,0.16l0.047,0.415l0.117-0.062l0.086-0.195l-0.013-0.217l-0.116-0.648
	l-0.212-0.54l-0.068-0.114l-0.081-0.093l-0.183-0.455l-0.141-0.162l-0.098,0.106l-0.146-0.131l-0.379-0.478l-0.156-0.272
	l-0.037-0.119l0.271,0.135l0.146,0.164l0.262,0.445l0.194,0.053l0.217-0.114l0.133-0.043l-0.047,0.254l0.241,0.28l0.144,0.124
	l0.062-0.048l0.078-0.139l0.162-0.023l0.16-0.053l0.057-0.231l0.305,0.082l0.236-0.048l0.228-0.094l0.535-0.11l0.284-0.272
	l0.222-0.07l-0.163,0.451l-0.072,0.104l-0.125,0.066l-0.289,0.062l-0.655,0.394l-0.257,0.197l-0.02,0.19l0.268,0.227l0.18,0.089
	l0.097,0.137l0.031,0.357l-0.026,0.33l-0.322,1.703l-0.01,0.329l0.062,0.226l0.23,0.521l0.064,0.265l-0.02,0.343l-0.066,0.215
	l-0.023,0.178l0.109,0.256l0.206,0.229l0.163-0.004l0.183-0.111l0.265-0.113v0.207l0.127-0.062l0.309-0.09l0.105-0.055l0.054-0.077
	l0.396-1.138l0.146-0.235l0.432-0.461l0.253-0.212l0.217-0.088l0.25-0.036l0.314-0.187l0.193-0.077l-0.055,0.176l-0.07,0.132
	l-0.101,0.105l-0.132,0.096l-0.137-0.076l-0.148,0.062L76.225,66.9l-0.051,0.136L75.6,67.607l-0.15,0.19l0.054,0.37l-0.247,0.398
	l-0.352,0.344l-0.357,0.24l-0.059,0.07l-0.059,0.055l-0.102,0.021l-0.094-0.043l-0.09-0.163l-0.055-0.004l-0.076,0.134l-0.035,0.213
	v0.217l0.03,0.145l0.081-0.107l0.074,0.074l0.038,0.014l0.176-0.088l0.72,0.399h0.269l0.062,0.038l0.059,0.07l0.09,0.039
	l0.062-0.039l0.055-0.127l-0.051-0.366l-0.004-0.214l0.09,0.225l0.265,0.464l0.094,0.218l0.065,0.289l0.021,0.908h-0.088v-0.097
	h-0.09l0.047,0.239l0.393,0.72l0.008,0.046l0.004,0.098l-0.08,0.502l0.111,1.144l0.236,1.047h0.098l-0.008-0.16l0.004-0.155
	l0.031-0.144l0.055-0.136l0.225,1.046l0.21,0.372l0.374,0.293l-0.112,0.135l0.035,0.18l0.125,0.168L77.893,77l0.125,0.029
	l0.299-0.037L78.512,77l-0.044,0.171l-0.101,0.196l-0.129,0.16l-0.12,0.07l-0.147-0.076l-0.146-0.152l-0.155-0.098l-0.185,0.076
	l0.086,0.426l0.052,0.111l0.129,0.153l0.049,0.03l0.095,0.016h0.082l-0.009-0.102l0.073-0.065l0.029-0.032l0.049-0.107l0.043-0.082
	l0.09,0.125l0.132,0.074l0.156,0.026l0.163-0.036l0.127-0.08l0.098-0.203l0.135-0.104l0.072,0.172l0.127,0.116l0.149,0.056
	l0.108-0.036l0.021,0.094l0.031,0.035v0.043l-0.055,0.108l0.107-0.044l0.15-0.127l0.057-0.028l0.116,0.032l0.179,0.137L80.4,78.17
	l0.151,0.146l0.14,0.063l0.176-0.188l0.136,0.125l0.171,0.236l0.151,0.129l0.163,0.066l0.386,0.07l0.171,0.068l0.314,0.225
	l0.313,0.281l0.249,0.385l0.102,0.113l-0.347,0.264l-0.12,0.16l0.164,0.072l0.059,0.082l0.16,0.389l0.084,0.125l0.113,0.021
	l0.443,0.031l0.016,0.263l0.047,0.164l0.107,0.117l-0.004,0.201l0.275,0.5l0.138,0.654l0.051,0.14l0.155,0.062l0.298-0.073
	l0.125,0.062l0.021,0.102l-0.051,0.112l-0.078,0.093l-0.244,0.162l0.146,0.289l0.428,0.479l0.188,0.56l0.015,0.142l0.071,0.299
	l0.015,0.156l0.103,0.15l0.605,0.486l0.502,0.097l0.073,0.034l0.229,0.141l0.461,0.078l0.242,0.129l0.746,0.793l0.09,0.256
	l-0.132,0.314l-0.229,0.172l-0.283,0.077l-0.287-0.009l-0.232-0.096V88.05l0.072-0.022l0.125-0.062l0.073-0.021v-0.1l-1.007-0.426
	l-0.172-0.121l-0.041-0.008l-0.23-0.443l-0.089-0.117l-0.133-0.131l-0.155-0.105l-0.158-0.03l0.081-0.21l-0.245,0.193l-0.218,0.479
	l-0.141,0.567l-0.019,0.452l0.15,0.443l0.217,0.453l0.619,0.596l0.205,0.047l0.615-0.147l0.529-0.051l0.426-0.093l0.506-0.01
	l0.246-0.046l0.302-0.329l0.055-0.021l0.37-0.239l0.194,0.187l0.393,0.082l-0.047,0.117v0.106l0.116,0.044l0.062,0.011l0.043-0.041
	l0.047-0.12l0.069,0.079l0.07,0.048l0.065,0.034l0.065,0.043l0.017-0.065l0.021-0.043l0.027-0.039l0.031-0.057l0.129,0.154
	l0.209,0.072l0.223,0.009l0.16-0.031l0.26-0.249l0.172-0.076l0.197,0.121h0.082l0.076-0.121l-0.008-0.091l-0.047-0.095l-0.021-0.134
	l0.074-0.048l0.48-0.104L92.309,88.4l-0.016,0.008l-0.02-0.004l-0.039,0.031l0.205,0.072l0.117-0.212l0.094-0.319l0.127-0.232
	l0.203-0.067l0.528-0.007l0.173-0.023l0.049,0.095l0.016,0.044l0.018,0.06l-0.117,0.025l-0.062,0.03l-0.035,0.058L93.5,88.052
	l0.091,0.046l0.073,0.062l0.059,0.082l0.045,0.098l0.225-0.145l0.26,0.035l0.198,0.183l0.043,0.319h0.098l-0.043-0.293l-0.159-0.229
	l-0.236-0.133l-0.289-0.027l0.164-0.187l0.262-0.124l0.205-0.016v0.219l0.18,0.064l0.26,0.373l0.198,0.164l0.005-0.138l-0.169-0.163
	l-0.159-0.215l0.037-0.286l0.016-0.159l0.225-0.258l0.047-0.131l0.023-0.125l0.062-0.108l0.597-0.678l0.478-0.419l0.021-0.18
	l-0.098-0.115l-0.168-0.094l-0.104-0.117l0.096-0.271l0.105-0.203l-0.052-0.077l-0.094-0.06l-0.058-0.082l-0.043-0.312l0.022-0.268
	l0.114-0.263l0.216-0.306l0.083-0.25l0.012-0.711l0.047-0.279l0.385-0.377l0.271-0.621l0.021-0.35l0.048-0.142l0.146-0.128
	l0.127-0.023h0.129l0.137-0.056l0.193-0.274l0.008-0.608l0.166-0.388l0.082-0.522l0.475-0.619l0.105-0.008l0.043,0.192l0.008,0.379
	l-0.088,0.656v0.606h0.088l0.209-4.276l-0.209-0.326V75.29l0.218-0.168l0.125-0.437l0.329-2.153l-0.042-0.321l0.079-0.215
	l0.021-0.244l-0.011-0.501l0.027-0.224l0.132-0.442l0.106-1.985l0.206-0.027L100,68.148L99.975,66.273z M92.039,89.611l0.02-0.141
	l-0.054-0.179l-0.009-0.028l-0.049,0.043l-0.018,0.15l0.051,0.157L92.039,89.611z M87.542,87.625l0.082-0.062l0.088-0.016
	l-0.081-0.105l-0.074-0.01l-0.004,0.021l0.012,0.027l0.01,0.015l-0.061,0.071L87.542,87.625z M87.783,88.035l0.123,0.035h0.021
	l-0.016-0.108l0.103-0.049l0.062-0.039l-0.026-0.022l0.008-0.057l-0.09-0.025l-0.074-0.009l0.035,0.046l-0.035,0.067L87.783,88.035z
	 M65.993,53.904l-0.035,0.047l-0.065,0.125l0.243-0.104l-0.092-0.056L65.993,53.904z M66.157,53.982l0.022-0.027l-0.045,0.018
	L66.157,53.982z M62.57,96.664l0.018-0.023l-0.008-0.056L62.57,96.664z M61.916,96.574l0.059-0.039l-0.043-0.044L61.916,96.574z
	 M62.67,96.607v-0.051l-0.018,0.041L62.67,96.607z M62.859,96.311v-0.014l-0.026,0.018l0.015,0.019l0.004,0.008l0.021-0.008
	l-0.008-0.026L62.859,96.311z M62.713,96.664l0.021-0.035l-0.025-0.005L62.713,96.664z"/>
</svg>
