<?xml version="1.0" encoding="utf-8"?>
<!-- Generator: Adobe Illustrator 16.0.4, SVG Export Plug-In . SVG Version: 6.00 Build 0)  -->
<!DOCTYPE svg PUBLIC "-//W3C//DTD SVG 1.1//EN" "http://www.w3.org/Graphics/SVG/1.1/DTD/svg11.dtd">
<svg version="1.1" id="Layer_1" xmlns="http://www.w3.org/2000/svg" xmlns:xlink="http://www.w3.org/1999/xlink" x="0px" y="0px"
	 width="100px" height="100px" viewBox="0 0 100 100" enable-background="new 0 0 100 100" xml:space="preserve">
<path fill="#555555" d="M82.907,87.184l-0.157,0.668l-0.896,0.73l-0.189,0.637l0.039,0.129l0.154,0.403l0.055,0.188l0.016,0.179
	l-0.016,0.541l0.177,1.62l0.136,0.07l0.135-0.188l0.063-0.416l-0.116-0.634l0.006-0.323l0.277-0.582l0.178-0.756l0.064-0.619
	l0.161-0.692l0.043-0.519l-0.007-0.437H82.907L82.907,87.184z M93.404,64.812l-0.312-0.094H92.84l-0.183-0.082l-0.019-0.048
	l-0.017,0.007l-0.365-0.033l-0.333-0.121l-0.279-0.217l-0.117-0.295l-0.125-0.156l-0.731-0.351l-0.397-0.087l-1.053,0.087
	l-0.162-0.091l-0.529-0.652l-0.096-0.08l-0.195-0.113l-0.079-0.096l-0.054-0.156l0.017-0.118l0.032-0.087l0.005-0.068l-0.322-0.686
	l-0.048-0.139l0.037-0.236l0.172-0.367l0.037-0.129l-0.031-0.559l0.031-0.236l0.061-0.205l0.141-0.293l0.037-0.252l-0.037-0.451
	l-0.146-0.376l-0.221-0.255l-0.273-0.09l-0.556-1.761l0.019-0.672l-0.08-0.36l-0.256-0.156l-0.244-0.088l-0.095-0.207l-0.036-0.248
	l-0.064-0.189l-0.098-0.079l-0.403-0.215l-0.064,0.017l-0.097-0.082l-0.273-0.318l-0.135-0.133l-0.146-0.113l-0.168-0.085
	l-0.543-0.103l-0.377-0.188l-0.328-0.229l-0.23-0.233l-0.176-0.349l0.021-0.318l0.096-0.326l0.06-0.416l-0.037-0.145l-0.085-0.168
	l-0.109-0.145l-0.084-0.059l-0.049-0.096l0.069-0.227l0.049-0.263l0.113-0.146l0.015-0.291l-0.107-0.345l-0.182-0.301l-0.103-0.328
	l-0.021-0.323l-0.056-0.333l-0.172-0.598l-0.933-1.626l-0.215-0.182V44.84l0.15-0.738l-0.064-0.367l-0.17-0.441l-0.227-0.364
	l-0.227-0.157l-0.398-0.069l-0.275-0.174l-0.517-0.5l-0.742-0.423l-1.604-0.664l-0.65-0.537L76.7,40.105l-0.103-0.868l-0.125-0.176
	l-0.408-0.028l-0.328-0.119l-0.285-0.267l-0.278-0.492l0.259-0.165l0.06-0.226l-0.13-0.254l-0.312-0.243l0.246-0.134v-0.145
	l-0.122-0.07l-0.217-0.085l-0.204-0.028l-0.085,0.102l-0.071,0.108l-0.15-0.134l-0.773-0.927l-0.124-0.327l0.259-0.135l-0.226-0.532
	l0.048-0.163l0.289-0.048l-0.154-0.333l-0.092-0.111l0.13-0.469l-0.26-0.376l-0.729-0.506l-0.377-0.351l-0.767-0.973l-0.382-0.317
	l-0.359-0.178l-0.865-0.258l-0.394-0.184l-0.425-0.289l-0.367-0.399l-0.258-0.636l-0.155-0.484l-0.297-0.43l-0.228-0.979
	l-0.494-0.591l-0.883-0.82l-0.771-0.617l-0.699-0.464l-0.591-0.269l-0.564-0.382l-0.432-0.489l-0.316-0.463l-0.291-0.295h-0.369
	l-0.291-0.107l-0.227-0.247l-0.139-0.571l-0.201-0.518l-0.188-0.608l-0.154-0.243l-0.426-0.23l-0.151-0.308l-0.198-0.608
	l-0.142-0.218l-0.204-0.249l-0.23-0.209l-0.432-0.178l-0.3-0.41l-0.124-0.096L59.02,17.98l-0.345-1.873l-0.146-0.495l-1.037-1.613
	l-0.167-0.195l-0.249-0.71l-0.09-0.597l-0.204-0.575l-0.771-0.492h-1.244l-0.86,0.028l-0.587-0.33l-0.295-0.326l-0.291-0.523
	l-0.389-0.248l-0.383-0.516L51.29,9.13l-0.142-0.274l-0.031-0.297l-0.131-0.032l-0.43,0.125l-0.614-0.3l-1.661-1.083l-0.577-0.812
	l0.173-0.931l0.312-0.393l0.076-0.178l0.037-0.178l0.012-0.178l0.025-0.167l0.076-0.123l0.15-0.319l0.242-0.215l0.28-0.176
	l0.241-0.221l0.184-0.312l0.263-0.701l0.162-0.317l0.205-0.243l0.741-0.538l0.232-0.118L51.6,0.993l0.211-0.187l0.153-0.254
	l0.108-0.257L52.1,0.026L52.091,0c-3.076,0.046-6.151,0.086-9.228,0.123c-2.989,0.036-5.978,0.086-8.966,0.122
	c-1.286,0.015-2.571,0.035-3.856,0.051c-1.534-0.077-3.067-0.155-4.601-0.232l-0.13-0.052H14.978c-2.8,0-5.601,0.004-8.401,0.004
	H6.364C6.891,2.91,7.347,5.817,7.848,8.715c0.534,3.092,1.059,6.186,1.594,9.277c0.494,2.859,0.985,5.719,1.476,8.58
	c0.521,3.046,1.058,6.09,1.582,9.136c0.51,2.962,1.021,5.925,1.544,8.885l0.069,0.391l-0.049,0.198l0.592,1.556l-0.054,0.619
	l0.017,0.193l0.06,0.167l0.091,0.152l0.113,0.137l0.365,0.401l0.104,0.145L15.2,48.754l0.07,0.211l0.167,0.219l0.149,0.248
	l0.107,0.753l0.184,0.441l0.012,0.274l-0.043,0.375l0.111,0.207l0.217,0.145l0.14,0.171l-0.103,0.281l1.254,1.631l0.209,0.354
	l0.076,0.278l0.086,0.688l0.141,0.334l0.187,0.308l0.156,0.317l0.022,0.285l0.006-0.068v0.159l-0.006-0.091l-0.031,0.279
	l-0.119,0.237l-0.076,0.209l0.097,0.243l-0.396,0.431l0.064,0.394l0.354,0.349l0.871,0.507l0.173,0.139l0.112,0.248l0.08,0.017
	l0.082,0.044l0.037,0.156l-0.049,0.171l-0.128,0.118l-0.163,0.059l-0.155,0.012l0.102,0.271l-0.054,0.208l-0.139,0.163l-0.162,0.101
	l-0.322-0.14l-0.274,0.07l-0.064,0.176l0.291,0.188l-0.216,0.163l-0.302,0.141l-0.301,0.097l-0.248,0.038l-0.124,0.08l-0.123,0.197
	l-0.291,0.701l-0.033,0.182l0.006,0.526l-0.043,0.282l-0.182,0.374l-0.06,0.485l0.134,0.479l-0.06,0.533l-0.025,0.08l-0.156,0.317
	l-0.076,0.103l-0.511,0.84l-0.354,0.817l-0.146,0.716l-0.091,0.28l-0.026,0.105l-0.017,0.13l-0.119,0.457l0.125,0.431l0.504,2.379
	l0.146,0.354l0.629,0.862l0.161,0.397l0.039,0.269l0.005,0.583l0.038,0.16l0.161,0.425l0.037,0.291l-0.108,0.507l-0.203,0.396
	l-0.103,0.44l0.178,0.606l-0.381,0.514l-0.13,0.773L16.1,80.07l-0.088,0.188l-0.229,0.334l-0.06,0.216l0.031,0.166l0.167,0.414
	l0.037,0.211l-0.096,0.76l0.027,0.33l0.21,0.274l0.364,0.187l0.495,0.683l0.442,0.888l0.232,0.995l0.172,0.226l0.032,0.221
	l-0.06,0.174l-0.113,0.135l-0.054,0.09l-0.037,0.07l0.017,0.264l0.08,0.1l0.318,0.224l0.111,0.113l0.104,0.231l0.146,0.636
	l0.155,0.155l0.248,0.5l0.134,0.494l0.022,0.895l0.274,1.389l0.812,0.865l0.162-0.025l0.576,0.037l0.117,0.012
	c3.034,0.205,6.066,0.422,9.101,0.621c3.011,0.198,6.021,0.42,9.03,0.621c2.971,0.197,5.94,0.402,8.909,0.608
	c3.11,0.217,6.219,0.433,9.329,0.64c2.938,0.195,5.872,0.399,8.809,0.605c0.67,0.047,1.341,0.095,2.013,0.137l0.039,0.032v0.063
	l-0.056,0.135l-0.076,0.135l-0.03,0.081v0.087l0.021,0.087l0.099,0.17l0.431,0.562l0.08,0.133l0.087,0.186l0.026,0.098l0.011,0.097
	l-0.011,0.106l-0.018,0.113l-0.091,0.307l-0.049,0.248l-0.011,0.123l0.006,0.104l0.037,0.188l0.273,0.779l0.104,0.182l0.067,0.076
	l0.1,0.065l0.128,0.042l0.173,0.012l0.846-0.097l0.121,0.021l0.34,0.107L70.779,100h0.078l0.502-0.139l0.097-0.049l0.069-0.082
	l0.037-0.164l0.006-0.131l-0.036-0.606l0.011-0.131l0.049-0.273l0.365-1.313l0.248-1.397l0.006-0.241l-0.021-0.211l-0.028-0.104
	l-0.079-0.159l-0.352-0.497l-0.086-0.188l-0.059-0.194l-0.037-0.167l-0.017-0.246l0.011-0.119l0.128-0.479l0.022-0.135l0.011-0.123
	l-0.06-0.522l0.012-0.205l0.025-0.097l0.037-0.092l0.053-0.082l0.218-0.215l0.055-0.101l0.026-0.119l0.037-0.222l0.053-0.075
	l0.093-0.024l0.188,0.059l0.151,0.021l0.164-0.03l0.076-0.064l0.062-0.1l0.021-0.1l0.02-0.142v-0.042l0.028-0.137l0.048-0.084
	l0.092-0.082l0.154-0.043l0.141-0.01l0.254,0.016l0.111-0.006l0.143,0.006l0.16,0.037l0.271,0.172l0.14,0.107l0.248,0.139
	l1.66,0.686l0.163-0.021l0.165,0.016l0.262,0.07l0.176,0.125l0.117,0.111l0.185,0.111l0.269,0.119l0.879,0.264l0.197,0.021
	l0.189-0.031l0.13,0.006l0.245,0.154l0.185,0.082l0.753,0.171l0.174-0.003l0.59-0.18l0.328,0.092l0.137,0.031l-0.022-0.258
	l0.118-0.527l0.043-0.473l-0.08-0.242l-0.215-0.285l-0.094-0.194l-0.024-0.286l0.005-0.264l-0.074-0.207l-0.265-0.107v-0.146
	l0.204-0.01l0.193,0.021l0.183,0.054l0.167,0.081l-0.016-0.266l-0.08-0.139l-0.092-0.125l-0.06-0.205l0.015-0.098l0.088-0.289
	l0.021-0.117l0.112-0.275l0.561-0.633l0.21-0.319l-0.241-0.103l-0.642,0.006l-0.376-0.178v-0.162l0.861-0.162l0.289-0.209
	l0.107-0.433l-0.156-0.349l-0.729-0.764l-0.261-0.394l0.465,0.155l0.451,0.394l0.371,0.479l0.231,0.414h0.113l0.343-1.475
	l0.034-0.56l-0.388,0.351l-0.113,0.241l0.011,0.419L82.6,84.837l-0.418-0.45l-0.522-0.232l-0.06-0.269l0.156-0.155l0.651,0.351
	l0.085-0.293l-0.031-0.422l-0.146-0.843l0.033-0.326l0.188-0.231l0.394-0.06l0.135,0.264l-0.054,0.989l0.011,0.243l0.162,0.121
	l0.418,0.035l0.34-0.252l0.441-0.572l0.65-1.062l0.345,0.205l0.259-0.312l0.123-0.489l-0.037-0.345l-0.281-0.268l-0.784-0.588
	l-0.302-0.113L83.678,79.7l-0.814-0.198l-0.734-0.312l-0.464-0.426l0.228-0.14l0.166,0.032l0.365,0.242l0.398,0.184l1.9,0.408
	l0.711,0.005l0.187-0.16l-0.074-0.437l-0.221-0.324l-0.55-0.563l-0.111-0.34l-0.018-0.28l0.049-0.029l0.148-0.131l0.147-0.068
	l0.102,0.102l0.06,0.199l0.021,0.209l0.039,0.21l0.108,0.216l0.139,0.166l0.145,0.065l0.228-0.056l0.048-0.139l-0.01-0.193
	l0.049-0.205l1.271-1.879l0.338-0.734l-0.646,0.021l-0.554,0.278l-1.039,0.716l0.155-0.334l0.189-0.248l0.081-0.207l-0.167-0.228
	L85.52,75.17l-0.543-0.048l-0.106-0.045l-0.125-0.106l-0.113-0.14l-0.091-0.147l0.295-0.088l0.318-0.152l0.34-0.043l0.359,0.217
	l0.322,0.087l0.346-0.228l0.521-0.527l-0.226-0.27l-0.445-0.431l-0.212-0.308l0.416,0.017l0.312,0.161l0.231,0.252l0.161,0.286
	l0.193,0.771l0.123,0.111l0.107-0.082l0.088-0.195l0.43-1.363l0.092-0.526l-0.037-0.463l-0.258-0.284l-0.297,0.068l-0.145,0.258
	l0.209,0.249v0.144l-1.137,0.146l-0.365-0.01l0.732-0.775l0.047-0.387l-0.531-0.428l-0.561-0.156l-0.236-0.145l-0.076-0.297
	l0.124-0.145l0.243,0.045l0.264,0.154l0.184,0.172l0.44,0.291l0.603,0.103l0.957-0.022l0.25-0.107l0.256-0.245l0.551-0.726
	l0.209-0.541l0.179-0.291l-0.099-0.015l-0.289,0.015l-0.383-0.358l-0.103-0.074l-1.007-0.155l0.23-0.254l0.729-0.195l-0.021-0.197
	L88.6,67.469l-0.119-0.21l0.186-0.184l0.234,0.006l0.158,0.178l0.11,0.237l0.108,0.179l0.308,0.134l0.822,0.162l0.317,0.215
	l0.269-0.021l0.409-0.296l0.623-0.636l-0.467-0.104l-0.248-0.359l-0.031-0.388l0.188-0.184l0.107-0.081l0.08-0.172l0.123-0.154
	l0.248-0.027l0.006,0.078l0.07,0.189l0.129,0.201l0.168,0.109l0.896-0.677l0.34-0.44L93.404,64.812z"/>
</svg>
