<?xml version="1.0" encoding="utf-8"?>
<!-- Generator: Adobe Illustrator 16.0.4, SVG Export Plug-In . SVG Version: 6.00 Build 0)  -->
<!DOCTYPE svg PUBLIC "-//W3C//DTD SVG 1.1//EN" "http://www.w3.org/Graphics/SVG/1.1/DTD/svg11.dtd">
<svg version="1.1" id="Layer_1" xmlns="http://www.w3.org/2000/svg" xmlns:xlink="http://www.w3.org/1999/xlink" x="0px" y="0px"
	 width="100px" height="100px" viewBox="0 0 100 100" enable-background="new 0 0 100 100" xml:space="preserve">
<path fill="#555555" d="M80.938,83.825c0-3.07-0.004-6.142-0.006-9.21c0-2.977-0.002-5.951-0.002-8.928l-0.441-0.123l-0.163-0.119
	l-0.288-0.367l-0.174-0.299l-0.133-0.161l-0.107-0.087l-0.154-0.082l-0.076-0.059l-0.058-0.057l-0.028-0.062l-0.022-0.064
	l-0.021-0.072l-0.009-0.164l0.003-0.097l-0.009-0.092l-0.033-0.101l-0.059-0.064l-0.076-0.051l-0.101-0.051l-0.045-0.054
	l-0.08-0.179l-0.405-0.651l-0.095-0.241l-0.102-0.082l-0.363-0.203l-0.127-0.035l-0.087,0.005l-0.047,0.047l-0.108,0.198
	l-0.055,0.052l-0.076,0.032L77.1,62.441l-0.066,0.025l-0.12,0.073l-0.097,0.103l-0.028,0.066l-0.013,0.07l0.019,0.063l0.034,0.06
	l0.039,0.053l0.033,0.061l0.023,0.062l0.014,0.082l-0.004,0.082l-0.017,0.081l-0.04,0.059l-0.05,0.043l-0.267,0.105l-0.05,0.045
	l-0.028,0.062l-0.012,0.147l-0.02,0.063l-0.071,0.158l-0.021,0.079l-0.01,0.086l0.002,0.081l0.008,0.077l0.033,0.144l0.02,0.059
	l0.021,0.039l0.028,0.041l0.044,0.041l0.061,0.033l0.232,0.082l0.055,0.039l0.031,0.058l-0.001,0.06l-0.062,0.045l-0.098,0.026
	l-0.174,0.021l-0.093-0.01l-0.062-0.018l-0.123-0.09l-0.312-0.15l-0.123-0.025l-1.094-0.009l-0.147,0.021l-0.449,0.31l-0.062,0.033
	l-0.171,0.038l-0.207,0.018l-0.087,0.028l-0.202,0.097l-0.093,0.006l-0.074-0.022l-0.052-0.046l-0.036-0.059l-0.03-0.06
	l-0.078-0.114l-0.07-0.057l-0.094-0.055l-0.182-0.069l-0.423-0.017l-0.091,0.017l-0.072,0.026L72.07,64.85L72,64.895l-0.104,0.032
	l-0.19,0.031l-0.16-0.021l-0.958,0.176l-0.094-0.012l-0.246-0.103l-0.287-0.069l-0.186-0.02l-0.227,0.009l-0.111-0.012l-0.08-0.029
	l-0.147-0.119l-0.146-0.067h-0.088l-0.066,0.031l-0.09,0.096l-0.045,0.037L68.7,64.891l-0.255,0.063l-0.158,0.067l-0.116,0.068
	l-0.053,0.044l-0.04,0.056l-0.033,0.069l-0.074,0.331l-0.175,0.467l-0.058,0.067l-0.086,0.058l-0.158,0.058l-0.111,0.009
	l-0.086-0.02l-0.061-0.041l-0.047-0.053l-0.066-0.06l-0.084-0.058l-0.193-0.054L66.7,65.965l-0.279,0.038l-0.062-0.008l-0.088-0.089
	l-0.056-0.045l-0.065-0.033l-1.229-0.155l-0.341-0.092l-0.107,0.003l-0.084,0.018l-0.177,0.117l-0.062,0.027l-0.285,0.072
	l-0.059,0.039l-0.576,0.586l-0.041,0.056l-0.039,0.063l-0.032,0.066l-0.017,0.073l0.002,0.08l0.021,0.067l0.171,0.299l-0.008,0.078
	l-0.044,0.075l-0.163,0.084l-0.087-0.006l-0.062-0.037l-0.233-0.337l-0.048-0.049l-0.062-0.038l-0.446-0.144l-0.074-0.045
	l-0.049-0.045l-0.158-0.228l-0.062-0.06l-0.086-0.06l-0.168-0.063l-0.087-0.057l-0.044-0.072l-0.008-0.162l-0.015-0.062L61.3,65.734
	l-0.011-0.06l0.004-0.038l0.04-0.129l0.094-0.218l0.015-0.075l-0.03-0.078l-0.071-0.07l-0.158-0.086l-0.086-0.062l-0.051-0.07
	l-0.001-0.16l-0.015-0.069L61,64.553l-0.271-0.306l-0.035-0.058l-0.014-0.064l0.006-0.068l0.035-0.062l0.043-0.054l0.104-0.088
	l0.047-0.053l0.03-0.062l0.007-0.074l-0.013-0.071l-0.021-0.07l-0.061-0.125l-0.109-0.176l-0.032-0.062l-0.069-0.208l-0.027-0.067
	l-0.035-0.059L60.5,62.723l-0.036-0.059L60.438,62.6l-0.025-0.068L60.4,62.457l-0.021-0.068l-0.027-0.063l-0.037-0.058l-0.146-0.146
	l-0.042-0.055l-0.135-0.235l-0.039-0.058l-0.189-0.201l-0.231-0.192l-0.265-0.139l-0.232-0.062l-0.174-0.004l-0.069,0.021
	l-0.062,0.029l-0.056,0.039l-0.198,0.19L58.4,61.502L58.3,61.535l-0.182,0.017l-0.097-0.028l-0.058-0.056l-0.026-0.237l-0.021-0.07
	l-0.085-0.079l-0.135-0.084l-0.471-0.226l-0.119-0.094l-0.092-0.123l-0.062-0.125l-0.135-0.408l-0.062-0.125l-0.074-0.112
	l-0.089-0.103l-0.036-0.061l-0.02-0.064l0.014-0.068l0.039-0.053l0.051-0.041l0.192-0.092l0.049-0.045l0.043-0.06l0.032-0.072
	l0.027-0.078l0.062-0.344l0.009-0.085l-0.003-0.018l-0.044-0.226l-0.021-0.071l-0.153-0.4l-0.065-0.129l-0.314-0.461l-0.029-0.062
	l-0.062-0.251l-0.065-0.108l-0.073-0.035l-0.341,0.007l-0.083-0.031l-0.055-0.054l-0.014-0.075l-0.004-0.172l-0.022-0.069
	l-0.032-0.059l-0.082-0.115l-0.027-0.064l-0.018-0.074l-0.008-0.078l-0.033-0.146l-0.025-0.066l-0.065-0.123L55.27,55.57
	l-0.162-0.127l-0.201-0.237l-0.176-0.147l-0.047-0.067l-0.016-0.075l-0.007-0.158l-0.019-0.078l-0.051-0.074l-0.074-0.074
	l-0.224-0.172l-0.065-0.063l-0.033-0.062l-0.025-0.067l-0.016-0.162l0.004-0.085l0.025-0.172l0.019-0.354l-0.003-0.174l-0.037-0.093
	l-0.077-0.097l-0.282-0.238l-0.044-0.1l-0.018-0.158l-0.024-0.067l-0.018-0.071v-0.086l0.016-0.082l0.023-0.078L53.799,52
	l0.021-0.079l0.006-0.081L53.8,51.607l-0.002-0.088L53.8,51.5l-0.028-0.098l-0.104-0.101l-0.312-0.143l-0.078-0.07l-0.041-0.082
	l0.004-0.088l0.025-0.185l0.047-0.162l0.031-0.072l0.077-0.122l0.031-0.066l0.007-0.076l-0.02-0.081l-0.043-0.082l-0.086-0.103
	l-0.076-0.058l-0.082-0.042l-0.521-0.184l-0.118-0.068l-0.07-0.077l-0.012-0.157l-0.02-0.074l-0.029-0.063l-0.26-0.231l-0.359-0.261
	l-0.188-0.097l-0.139-0.047l-0.06,0.02l-0.036,0.033l-0.021,0.041l-0.016,0.071l-0.003,0.08l0.003,0.078l0.014,0.069l0.033,0.099
	l0.012,0.067l0.004,0.069l-0.016,0.059l-0.025,0.031l-0.04,0.023l-0.269,0.093l-0.063,0.033l-0.056,0.04l-0.051,0.05l-0.041,0.063
	l-0.064,0.146l-0.026,0.08l-0.032,0.071l-0.039,0.063l-0.049,0.047l-0.178,0.113l-0.049,0.051l-0.037,0.064l-0.027,0.071
	l-0.021,0.072l-0.041,0.057l-0.056,0.041l-0.396,0.167l-0.229,0.157l-0.063,0.029l-0.076,0.01l-0.172-0.014l-0.077,0.011
	l-0.065,0.028l-0.057,0.043l-0.046,0.053l-0.042,0.061l-0.034,0.064l-0.104,0.306l-0.045,0.076l-0.011,0.01l-0.042,0.037
	l-0.239,0.127L48.43,51.71l-0.084,0.035l-0.109,0.021l-0.211-0.017l-0.112-0.034l-0.072-0.055l-0.04-0.055l-0.056-0.099
	l-0.338-0.192l-0.104-0.073l-0.065-0.082l-0.016-0.076l-0.028-0.082l-0.051-0.074l-0.333-0.257l-0.099-0.035l-0.472-0.092h-0.198
	l-0.139-0.02l-0.045-0.052l0.006-0.055l0.117-0.179l0.028-0.076l0.013-0.079l-0.016-0.086l-0.037-0.088l-0.06-0.119L45.89,49.7
	l0.017-0.074l0.04-0.055l0.21-0.18l0.129-0.145l0.026-0.041l0.023-0.048l0.021-0.065l0.014-0.074l0.003-0.085l-0.036-0.147
	l-0.005-0.072l0.044-0.136l-0.017-0.094l-0.065-0.104l-0.254-0.26l-0.061-0.086l-0.023-0.069l-0.053-0.196l-0.084-0.139L45.8,47.532
	l0.013-0.078l0.046-0.051l0.105-0.095l0.047-0.058l0.034-0.07l0.029-0.076l0.067-0.133l0.114-0.184l0.054-0.125l0.02-0.038
	l0.035-0.05l0.103-0.083l0.064-0.03l0.071-0.016l0.345-0.017l0.075-0.016l0.067-0.031l0.057-0.041l0.24-0.247l0.043-0.062
	l0.014-0.085l-0.017-0.109l-0.211-0.345l-0.03-0.07l-0.021-0.068l-0.01-0.081l0.01-0.083l0.015-0.088l0.026-0.078l0.101-0.204
	l0.019-0.085l-0.006-0.089l-0.041-0.094l-0.072-0.043l-0.264-0.076l-0.24-0.104l-0.092-0.09l-0.03-0.092l0.02-0.079l0.014-0.087
	l-0.015-0.103l-0.078-0.142l-0.029-0.106l-0.006-0.096l0.021-0.082l0.03-0.071l0.201-0.308l0.036-0.069l0.025-0.077l0.01-0.083
	l-0.005-0.078l-0.025-0.075l-0.041-0.065l-0.399-0.434l-0.045-0.087l-0.011-0.075l0.006-0.076l0.021-0.061l0.021-0.034l0.045-0.039
	l0.062-0.028l0.335-0.037l0.071-0.022l0.062-0.036l0.046-0.054l0.034-0.066l0.011-0.083l-0.002-0.084l-0.025-0.159l-0.021-0.247
	l-0.012-0.077l-0.018-0.077l-0.059-0.159l-0.048-0.094l-0.029-0.078l-0.01-0.08l0.019-0.071l0.032-0.061l0.084-0.122l0.032-0.072
	l0.02-0.082l0.011-0.169l0.016-0.081l0.032-0.077l0.205-0.307l0.034-0.07l0.014-0.08l0.007-0.089l-0.018-0.171l0.003-0.184
	l0.025-0.176l0.043-0.167l0.234-0.505l0.022-0.091l0.018-0.087l0.008-0.092l-0.007-0.083l-0.015-0.08l-0.038-0.076l-0.051-0.08
	l-0.145-0.174l-0.032-0.059l-0.01-0.023V37.1l0.021-0.066l0.045-0.04l0.058-0.033l0.274-0.108l0.062-0.039l0.055-0.043l0.05-0.05
	l0.034-0.06l0.019-0.072l-0.012-0.071l-0.025-0.067l-0.03-0.065l-0.017-0.071l0.007-0.078l0.022-0.073l0.072-0.131l0.029-0.073
	l0.009-0.08l-0.011-0.08l-0.018-0.076l-0.007-0.079l0.015-0.081l0.024-0.078l0.062-0.149l0.033-0.177l0.004-0.264l-0.009-0.095
	l-0.016-0.094l-0.041-0.097l-0.062-0.055l-0.076-0.035L47.8,34.512l-0.081,0.005l-0.681,0.177l-0.065,0.03l-0.163,0.125
	l-0.127,0.067l-0.071,0.023l-0.073,0.01l-0.08-0.012l-0.166-0.061l-0.065-0.012l-0.069,0.008l-0.229,0.094l-0.12,0.028l-0.169,0.015
	l-0.125-0.034l-0.144-0.064l-0.241-0.157l-0.108-0.094l-0.073-0.088L44.928,34.5l-0.015-0.076l0.009-0.083l0.028-0.069l0.138-0.18
	l0.016-0.084l-0.021-0.105l-0.084-0.145l-0.067-0.082l-0.255-0.187l-0.069-0.03l-0.08-0.017l-0.078,0.006l-0.069,0.021l-0.059,0.036
	l-0.164,0.142l-0.223,0.286l-0.065,0.039l-0.077,0.016l-0.099-0.024l-0.055-0.054l-0.027-0.07l-0.001-0.08l0.071-0.352l0.005-0.095
	l-0.009-0.1l-0.037-0.102l-0.052-0.063l-0.07-0.045l-0.288-0.083l-0.164-0.077l-0.105-0.095l-0.145-0.167l-0.109-0.1l-0.305-0.204
	l-0.093-0.078l-0.063-0.073l-0.084-0.207l-0.046-0.149l-0.029-0.158l-0.021-0.254l0.006-0.092l0.019-0.088l0.023-0.083l0.015-0.079
	l-0.008-0.076l-0.061-0.063l-0.252-0.156l-0.086-0.069l-0.062-0.065l-0.282-0.386L41.31,30.13l-0.064-0.043l-0.199-0.053
	l-0.145-0.062l-0.077-0.059l-0.047-0.058l-0.017-0.037l-0.008-0.026l-0.047-0.268l-0.022-0.075l-0.896-1.006l-0.144-0.342
	l-0.275-0.392L39.256,27.6l-0.276-0.197l-0.088-0.096l-0.093-0.133L38.727,27.1l-0.081-0.06l-0.101-0.053l-0.059-0.059l-0.036-0.071
	l-0.035-0.155l-0.029-0.073l-0.042-0.071l-0.062-0.083l-0.041-0.076l-0.097-0.211l-0.112-0.177l-0.079-0.092l-0.084-0.062
	l-0.905-0.368l-0.505-0.093l-0.147-0.064l-0.079-0.059l-0.054-0.067l-0.102-0.194l-0.085-0.208l-0.164-0.244l-0.322-0.382
	l-0.092-0.089l-0.754-0.508l-0.395-0.119l-0.166-0.084L34.029,23.3l-0.027-0.081l0.02-0.067l0.027-0.053l0.026-0.03l0.05-0.037
	l0.066-0.021l0.428-0.042l0.073-0.021l0.064-0.028l0.06-0.039l0.044-0.061l0.021-0.075l-0.039-0.097L34.75,22.58l-0.155-0.075
	l-0.104-0.066l-0.006-0.014l-0.059-0.306l-0.076-0.161l-0.091-0.093L34,21.691l-0.06-0.077l-0.003-0.075l0.043-0.052l0.056-0.046
	l0.241-0.154l0.053-0.047l0.048-0.053l0.042-0.063l0.062-0.15l0.024-0.083l-0.023-0.125l-0.068-0.162l-0.274-0.432l-0.049-0.122
	l0.026-0.369l-0.01-0.104l-0.028-0.101l-0.063-0.125l-0.071-0.069l-0.291-0.198L33.602,19l-0.031-0.103l-0.024-0.102l-0.062-0.136
	l-0.093-0.076l-0.267-0.166l-0.071-0.083l-0.044-0.083l-0.19-0.715l-0.041-0.09l-0.063-0.121l-0.08-0.076l-0.238-0.146l-0.093-0.095
	l-0.112-0.145l-0.107-0.113l-0.126-0.102l-0.066-0.078l-0.044-0.075l-0.076-0.157l-0.248-0.342l-0.118-0.229l-0.295-0.374
	l-0.222-0.219l-0.086-0.143l-0.035-0.094c0-3.167,0.004-6.333,0.006-9.5c0.001-1.813,0.002-3.626,0.003-5.44H20.84
	c0.011,3.189,0.021,6.379,0.032,9.568c0.011,3.163,0.021,6.325,0.032,9.487c0.011,3.13,0.021,6.261,0.032,9.392
	c0.012,3.101,0.022,6.202,0.033,9.302c0.001,0.135,0.001,0.269,0.002,0.404l-0.152,0.458l-0.039,0.261l0.072,0.221l0.476,0.625
	l0.336,0.57l0.14,0.307l0.113,0.708l0.217,0.394l0.001,0.302l-0.093,0.296l-0.129,0.2l-0.296,0.337l0.056,0.153l0.53,0.688
	c0.087,0.237,0.174,0.475,0.259,0.713l0.086,0.445l0.295,0.809l0.599,0.623l0.093,0.225l0.104,0.185l0.719,0.162l0.097,0.088
	l0.207,0.245l0.582,0.366l0.422,0.084l0.147,0.139l0.127,0.155l0.13,0.283l0.185,0.586l0.353,0.694l0.077,0.294l0.01,0.302
	l-0.08,0.269l-0.138,0.22L26.181,50.9l-0.058,0.099l-0.188,0.479l-0.047,0.299l-0.039,0.143l-0.478,0.612l-0.148,0.478l-0.348,0.412
	l-0.13,0.258l-0.04,0.303l-0.03,0.592l-0.098,0.23l-0.132,0.243l-0.179,0.872l-0.207,0.548l-1.064,1.638l-0.079,0.152l-0.033,0.145
	l0.022,0.16l0.05,0.112l0.049,0.072l0.022,0.04l-0.016,0.297l-0.11,0.664l-0.081,0.264l-0.231,0.496l-0.535,0.896l-0.144,0.174
	l-0.186,0.167l-0.607,0.399l-0.188,0.229l-0.106,0.204l-0.276,0.713l-0.254,0.499l-0.111,0.298l-0.086,0.549l-0.1,0.264
	l-0.134,0.238l-0.138,0.168l-0.11,0.055l-0.11,0.033l-0.087,0.072l-0.035,0.178l-0.047,0.076l-0.092,0.081l-0.065,0.101l0.104,0.379
	l-0.076,0.252l-0.11,0.275l-0.033,0.323l0.045,0.162l0.133,0.285l0.027,0.18l-0.01,0.146l-0.048,0.183l-0.011,0.146l0.067,0.26
	l0.162,0.182l0.388,0.283l0.1-0.116l0.081-0.12l0.094-0.101l0.137-0.054l0.132,0.033l0.074,0.114l0.058,0.138l0.085,0.104
	l0.207,0.065l0.174-0.045l0.182-0.082l0.226-0.043l0.126,0.049l0.031,0.125l-0.006,0.156l0.021,0.154l0.076,0.186l0.055,0.076
	l0.218,0.12l0.173,0.134l0.201,0.199l0.05,0.129l-0.042,0.1l-0.07,0.082l-0.037,0.074l-0.002,0.159l-0.014,0.166l-0.04,0.158
	l-0.082,0.14l-0.108,0.049l-0.138-0.002l-0.137,0.021l-0.103,0.121l0.002,0.229l0.275,0.474l0.071,0.293l-0.014,0.159l-0.034,0.107
	l-0.044,0.105l-0.045,0.152l-0.068,0.568l-0.127,0.451l-0.038,0.332l-0.116,0.312l-0.111,0.184l-0.221,0.178l-0.157,0.225
	l0.078,0.318v0.104l0.034,0.183c0.004,3.091,0.009,6.183,0.014,9.272c0.005,3.176,0.01,6.352,0.014,9.526
	c0.003,1.858,0.006,3.718,0.009,5.576c3.11,0,6.222,0.001,9.332-0.002c3.295-0.002,6.59-0.003,9.885-0.003
	c2.939,0,5.88,0.001,8.82-0.001c2.937-0.003,5.873,0,8.81,0c3.312,0,6.627,0,9.941,0c3.158,0,6.317,0.001,9.478,0.001h3.618
	c0-2.108-0.002-4.217-0.002-6.325C80.938,90.389,80.938,87.107,80.938,83.825z"/>
</svg>
