<?xml version="1.0" encoding="utf-8"?>
<!-- Generator: Adobe Illustrator 16.0.4, SVG Export Plug-In . SVG Version: 6.00 Build 0)  -->
<!DOCTYPE svg PUBLIC "-//W3C//DTD SVG 1.1//EN" "http://www.w3.org/Graphics/SVG/1.1/DTD/svg11.dtd">
<svg version="1.1" id="Layer_1" xmlns="http://www.w3.org/2000/svg" xmlns:xlink="http://www.w3.org/1999/xlink" x="0px" y="0px"
	 width="100px" height="100px" viewBox="0 0 100 100" enable-background="new 0 0 100 100" xml:space="preserve">
<path fill="#555555" d="M77.447,67.227l-0.152-0.658l0.045-0.209l0.195-0.28l0.045-0.196v-0.73l-0.086-0.228l-0.414-0.36l-0.16-0.2
	l-0.086-0.302l-0.119-0.666l-0.141-0.317l-0.422-0.435l-0.209-0.127l-0.103-0.091l-0.082-0.149l0.052-0.684l0.899-0.88l0.013-0.771
	l-0.316-0.605l-0.066-0.311l0.145-0.364l0.252-0.267l0.845-0.401l0.051-0.077c0-3.227,0.021-6.453,0.035-9.68
	c0.017-3.184,0.022-6.367,0.037-9.551c0.017-3.409,0.028-6.817,0.039-10.227c0.01-3.148,0.021-6.297,0.034-9.445
	c0.009-1.444,0.017-2.89,0.017-4.335l-0.787-1.136L76.77,12.96l-0.332-1.367l-0.416-0.957l-0.183-1.649L75.76,8.638L75.637,8.28
	l-0.07-0.145l-0.094-0.123L74.979,7.79l-0.074-0.1l-0.061-0.114l-0.133-0.141l-0.127-0.173l-0.062-0.215l-0.028-0.202L74.42,6.663
	l-0.471-0.912l-0.223-0.646L73.592,4.37l-0.049-1.418l0.02-0.214l0.051-0.152l0.064-0.094l0.059-0.113l0.119-1.835l-0.012-0.167
	c-3.273-0.032-6.549-0.062-9.824-0.095c-3.266-0.032-6.53-0.061-9.797-0.093c-3.258-0.031-6.516-0.062-9.772-0.094
	c-3.229-0.032-6.457-0.061-9.685-0.092C34.612,0.002,34.458,0,34.305,0l-0.182,0.413l0.173,0.268l0.424,0.235l0.214,0.21l0.21,0.268
	l0.444,0.386l1.198,0.775l0.431,0.441l0.246,0.64V3.507l0.034,1.07l0.128,0.431l0.456,0.276l0.297,0.44l0.188,0.101l0.19,0.042
	l1.188,0.725l0.146,0.141l0.348,0.422l0.132,0.088l0.214,0.046l0.095,0.136l0.021,0.22V7.94l0.044,0.255l0.343,0.835l-0.053,0.224
	l-0.075,0.791l-0.243,0.653l-0.102,1.15l-0.199,0.836l-0.177,0.396l-0.247,0.166l-0.225,0.094l-0.584,0.47l-0.199,0.199
	l-0.193,0.282l-0.186,0.373l-0.135,0.414l-0.054,0.404l-0.201,0.366l0.024,0.083l0.05,0.082l0.028,0.108l-0.004,0.44l-0.028,0.194
	l-0.07,0.196l-0.21,0.224l-0.614,0.354l-0.128,0.12l-0.106,0.255l-0.259,0.198l-0.584,0.231l-1.387,0.254l-0.292,0.125l-0.53,0.637
	l-0.285,0.262l-0.596,0.2l-4,0.325l-0.552,0.371l-0.329,0.568l-0.292,0.73l-0.214,0.807l-0.115,0.799l0.004,0.38l0.07,0.462
	l0.16,0.392l0.284,0.164l0.199,0.078l0.703,0.552l0.398,0.564l0.239,0.749l0.091,0.851l-0.054,0.864L29.77,29.13l-1.382,1.608
	L28.144,31.1L28,31.382l-0.062,0.292L27.89,32.48l-0.086,0.401l-0.272,0.737l-0.357,0.533l-0.487,0.352l-0.551,0.192l-0.559,0.057
	L25.15,34.87l-0.625,0.282l-0.56,0.351l-0.247,0.317l-0.028,0.126l-0.132,0.193l-0.03,0.18l0.054,0.157l0.374,0.348l0.127,0.299
	l0.009,0.323l-0.087,0.562L24,38.32l0.078,0.485l0.021,0.267l-0.127,0.188l-0.824,0.244h-0.003l-0.433,0.39l-0.32,0.814
	l-0.214,0.931l-0.095,0.746l-0.013,0.843l0.37,3l0.075,0.274l0.189,0.293l0.238,0.292l0.082,0.127l0.062,0.131l0.045,0.142
	l0.02,0.164l-0.007,0.442l-0.116,0.531l0.013,0.209l0.062,0.123l0.184,0.213l0.091,0.24l0.383,0.363l0.086,0.184l0.033,0.19
	l0.024,0.424l0.173,0.611l0.277,0.447l3.497,3.204l0.219,0.271l0.164,0.336l0.067,0.386l0.086,0.245l0.209,0.214l3.222,2.375
	l0.312,0.305l0.326,0.435l0.357,0.662l0.16,0.39l0.095,0.351l0.017,0.24l-0.025,0.496l0.008,0.242l0.074,0.219l0.25,0.389
	l0.054,0.195l-0.058,0.195l-0.106,0.207l-0.058,0.223l0.086,0.236l0.108,0.217l0.078,0.295l0.016,0.299l-0.065,0.221l0.63,1.33
	l0.432,0.545l0.576,0.219l0.605-0.282l0.876-1.159l0.708-0.152l0.268,0.107l0.476,0.314l0.26,0.064l0.325,0.035l0.707,0.209
	l1.376,0.781l0.554,0.459l0.227,0.476l-0.104,0.317l-0.233,0.447l-0.264,0.398l-0.202,0.173l-0.182,0.193l-0.037,0.438l0.071,0.717
	l-0.013,0.732l-0.238,0.557l-0.701,1.136l-0.712,1.975l-0.67,1.103l-0.21,0.562l-0.057,0.657l0.127,0.813l0.074,0.276l0.086,0.214
	l0.094,0.182l0.116,0.166l0.769,0.666l0.091,0.162l0.392,0.408l0.09,0.157l0.103,0.267l0.244,0.211l0.518,0.31l0.363,0.368
	l0.337,0.441l0.377,0.365l0.495,0.156l0.764,0.66l0.214,0.138l0.52-0.009c0.21,0.06,0.42,0.121,0.629,0.182l0.474,0.367l0.794,0.834
	l0.329,0.223l0.86,0.371l0.34,0.238l0.342,0.49l0.399,0.961l0.308,0.367l1.354,0.629l0.365,0.328l-0.102,0.215l0.045,0.287
	l0.098,0.323l0.054,0.312l-0.037,0.297l-0.069,0.295l-0.037,0.321l0.048,0.354l0.292,0.609l0.384,0.56l0.328,0.603l0.143,0.734
	l-0.244,0.625l-0.489,0.481l-0.408,0.493l-0.005,0.676l0.075,0.07l0.275,0.104l0.12,0.064l0.222,0.186l-0.024,0.227l0.045,0.291
	l0.111,0.285l0.322,0.57l0.555,0.783l0.201,0.497l-0.096,0.502l0.229,0.264l0.699,0.575l0.564,0.238h0.164l0.067-0.18l-0.041-0.264
	l-0.099-0.145l-0.127-0.104l-0.123-0.148l-0.153-0.39l0.096-0.17l0.257-0.04l0.327,0.003l0.093,0.086l0.061,0.416l0.045,0.152
	l0.127,0.12l0.289,0.176l0.107,0.118l0.067,0.188l0.033,0.192l0.055,0.181l0.128,0.152l0.155,0.04l0.174-0.044l0.164-0.071
	l0.132-0.03l0.276,0.121l-0.481-0.557l-0.25-0.423l-0.037-0.456l0.305-0.536l0.477-0.541l0.477-0.878l0.142-0.188l0.483-0.403
	l0.58-0.255l0.646-0.079l0.68,0.132l3.818,1.837l1,0.657l0.555,0.164l0.515-0.088l0.415-0.412l0.298-0.702l-0.009-0.556
	l-0.248-0.525l-0.418-0.613l-0.301-0.576l-0.127-0.639l0.064-0.684l0.268-0.734l0.146-0.234l0.187-0.186l0.229-0.125l0.293-0.039
	l0.627,0.007l0.234-0.065l0.817-0.465l2.562-0.466l0.449-0.286l0.111-0.5l-0.309-0.758l-0.412-0.439l-0.074-0.098l-0.23-0.478
	l-0.094-0.333l0.09-0.42l0.18-0.389l0.162-0.233l0.785-0.675l0.215-0.233l0.148-0.396l0.004-0.351l0.059-0.229l-0.325-0.137
	l-0.269-0.029l-0.1-0.035l-0.049-0.082v-0.083l0.055-0.037l0.402,0.028l0.213-0.017l0.15-0.077l-0.092-0.197l-0.685-0.654
	l-0.229-0.298l0.623,0.12h0.139l0.223-0.115l0.041-0.128l-0.041-0.169l-0.033-0.242l-0.082-0.355l0.004-0.218l0.133-0.093
	l0.064-0.12l-0.008-0.269l-0.055-0.287l-0.058-0.176l0.168-0.211l-0.19-0.434l0.172-0.078l0.234-0.044l0.245-0.106l0.234-0.155
	l0.194-0.173l-0.205-0.19l-0.438,0.045l-0.227-0.11l0.326-0.234l0.299-0.295l0.135-0.098l0.307-0.073l0.131-0.076l0.146-0.313
	l-0.175-0.203l-0.266-0.149l-0.143-0.169l-0.045-0.115l-0.098-0.111l-0.095-0.136l-0.038-0.194l0.047-0.209l0.094-0.121l0.119-0.104
	l0.125-0.157l0.102-0.283l0.074-0.283l0.131-0.219l0.273-0.069l0.012,0.112l0.135,0.203l0.148,0.096l0.11-0.334l0.093-0.146
	l0.106-0.129l0.103-0.055l0.053,0.073l0.037,0.174L73,76.949l0.131,0.078l0.096-0.086l0.035-0.197l0.021-0.227l0.047-0.162
	l0.09-0.191l0.123-0.403l0.111-0.192l0.115-0.086l0.271-0.1l0.099-0.058l0.215-0.269l0.213-0.375l0.072-0.356l-0.212-0.209v-0.132
	l0.423-0.137l0.44-0.229l0.119-0.102l0.147-0.178l0.104-0.085l0.127-0.009l0.082,0.079l0.073,0.015l0.101-0.193l-0.006-0.209
	l-0.231-0.373l-0.052-0.277l0.07-0.268l0.141-0.201l0.183-0.148l0.18-0.109h-0.086l0.053-0.039l0.051-0.049l0.045-0.07l0.041-0.094
	l-0.065-0.356l0.114-0.354l0.211-0.3l0.226-0.192l0.146-0.024h0.188l0.168-0.034l0.072-0.129l0.436-1.307l-0.182-0.697
	L77.447,67.227z"/>
</svg>
