<?xml version="1.0" encoding="utf-8"?>
<!-- Generator: Adobe Illustrator 16.0.4, SVG Export Plug-In . SVG Version: 6.00 Build 0)  -->
<!DOCTYPE svg PUBLIC "-//W3C//DTD SVG 1.1//EN" "http://www.w3.org/Graphics/SVG/1.1/DTD/svg11.dtd">
<svg version="1.1" id="Layer_1" xmlns="http://www.w3.org/2000/svg" xmlns:xlink="http://www.w3.org/1999/xlink" x="0px" y="0px"
	 width="100px" height="100px" viewBox="0 0 100 100" enable-background="new 0 0 100 100" xml:space="preserve">
<path fill="#555555" d="M80.996,72.439l-0.309-0.148l-0.235-0.309l0.174-0.243l0.687-0.685l0.201-0.431L81.41,70.2l-0.287-0.377
	l-0.537-0.569l-0.051-0.8l0.588-0.656l0.374-0.235c0.026-3.383,0.054-6.768,0.083-10.15c0.029-3.402,0.054-6.805,0.083-10.208
	c0.03-3.419,0.058-6.838,0.083-10.257c0.025-3.396,0.062-6.792,0.082-10.188c0.02-3.376,0.055-6.751,0.08-10.127
	c0.025-3.371,0.048-6.742,0.078-10.112c0.021-2.166,0.041-4.331,0.035-6.496C78.576,0.02,75.13,0.018,71.686,0.018
	c-3.227,0-6.451-0.006-9.676-0.006c-3.396,0-6.794-0.002-10.191-0.006C48.656,0.002,45.494,0,42.333,0l-3.61,2.032l-3.337,1.195
	l-1.752,0.178l-1.819-0.312l-0.426-0.156l-0.296-0.203l-0.138-0.335l0.063-0.541l-0.619,0.243l-0.675-0.505l-0.533-0.77
	c0,3.488-0.025,6.975-0.036,10.463c-0.01,3.244-0.025,6.488-0.035,9.732c-0.011,3.356-0.026,6.712-0.04,10.068
	c-0.016,3.57-0.027,7.14-0.042,10.71C29.021,45.243,29.01,48.687,29,52.131c-0.01,2.949-0.034,5.898-0.034,8.848l-0.071,0.109
	l-1.176,0.559l-0.347,0.371l-0.201,0.506l0.091,0.434l0.442,0.842l-0.02,1.071l-1.25,1.224l-0.071,0.952l0.114,0.207l0.142,0.127
	l0.288,0.177l0.588,0.603l0.197,0.444l0.166,0.926l0.118,0.42l0.225,0.277l0.572,0.504l0.122,0.314v1.016l-0.063,0.273l-0.272,0.391
	l-0.063,0.291l0.213,0.916l0.418,0.955l0.252,0.973l-0.607,1.815l-0.099,0.181L28.441,77.9h-0.264l-0.202,0.035l-0.312,0.269
	l-0.292,0.416l-0.162,0.494l0.091,0.493l-0.056,0.131l-0.062,0.1l-0.071,0.068l-0.075,0.054h0.122l-0.252,0.154l-0.253,0.206
	l-0.193,0.281l-0.099,0.371l0.071,0.387l0.323,0.519l0.008,0.289l-0.138,0.271l-0.103-0.02l-0.114-0.109l-0.177,0.012l-0.142,0.117
	l-0.209,0.248l-0.166,0.14l-0.611,0.319l-0.588,0.188v0.185l0.292,0.291l-0.099,0.496l-0.3,0.521l-0.296,0.373l-0.138,0.081
	l-0.378,0.137l-0.158,0.12l-0.154,0.268l-0.173,0.562l-0.126,0.27l-0.063,0.223l-0.028,0.314l-0.051,0.274l-0.134,0.12l-0.182-0.108
	l-0.079-0.235l-0.051-0.238l-0.075-0.104l-0.142,0.075l-0.15,0.182l-0.126,0.201l-0.154,0.463l-0.209-0.132l-0.186-0.284
	l-0.02-0.154l-0.379,0.097l-0.182,0.304l-0.103,0.395l-0.142,0.396l-0.173,0.22l-0.166,0.144l-0.13,0.171l-0.063,0.292l0.052,0.271
	l0.13,0.188l0.138,0.156l0.063,0.158l0.193,0.234l0.375,0.211l0.241,0.281l-0.202,0.438l-0.186,0.106l-0.421,0.103l-0.19,0.135
	l-0.418,0.41l-0.454,0.328l0.315,0.152l0.608-0.062l0.288,0.266l-0.272,0.24l-0.323,0.217l-0.343,0.148l-0.328,0.062l-0.24,0.109
	l0.268,0.601l-0.233,0.292l0.079,0.247l0.075,0.399l0.011,0.373l-0.09,0.166l-0.185,0.129l-0.004,0.302l0.114,0.497l0.043,0.338
	l0.06,0.234l-0.06,0.177l-0.308,0.161H18.6l-0.864-0.166l0.319,0.41l0.951,0.912l0.126,0.274l-0.209,0.108l-0.296,0.022
	l-0.561-0.042l-0.075,0.055V99l0.067,0.114l0.138,0.052l0.371,0.039l0.454,0.189l0.446-0.063l0.339,0.13l0.691,0.443L20.854,100
	l0.099-0.165l0.899-1.003l-0.583-1.447l-0.079-0.334l0.142-0.509l0.336-0.205l0.414,0.075l0.371,0.314l0.288,0.359l0.304,0.28
	l0.359,0.194l0.434,0.084l0.387-0.055l0.766-0.265l0.181-0.017l0.186-0.178l0.296-0.16l0.328-0.029l0.252,0.201l0.036,0.336
	l-0.202,0.797l0.044,0.371l0.441,0.291l0.584-0.229l0.497-0.548l0.202-0.671l-0.099-0.504l-0.355-0.711l-0.079-0.549l0.063-0.305
	l0.15-0.154l0.169-0.033l0.15,0.07l0.102,0.18L27.914,95.9l0.063,0.24l0.679,0.639l0.753-0.153l0.797-0.442l0.816-0.209l0.418,0.104
	l0.458,0.217l0.438,0.286l0.347,0.302l0.352,0.236l1.31,0.523l0.686,0.467l0.205,0.103l0.276,0.075l0.355,0.021l0.233,0.094
	l0.087,0.22l0.047,0.282l0.095,0.259l0.299,0.383l0.166,0.149l0.213,0.137l0.604-0.413l0.315-0.571l0.533-1.539l0.229-0.396
	l0.229-0.271l0.269-0.183l0.343-0.153l1.136-0.123l0.257-0.129l0.446-0.437l0.746-0.566l0.698-0.274l0.308,0.44l0.162,0.647
	l0.418,0.662l0.596,0.488l0.679,0.125l0.86-0.166l0.367,0.098l-0.225,0.492l-0.142,0.431l0.28,0.231l0.465,0.014l0.407-0.264
	l0.154-0.492V97l0.114-0.365l1.042-0.223l0.245-0.236l0.06-0.371l-0.063-1.613l0.095-0.521l0.26-0.217l0.418-0.035l0.438-0.144
	l0.335-0.303l0.079-0.529l-0.111-0.269l-0.347-0.389l-0.075-0.263l0.103-0.229l0.225,0.018l0.221,0.119l0.103,0.094l0.103,0.238
	l0.237,0.073l0.458-0.045l0.819-0.351l0.336-0.387l-0.157-0.179l-0.402-0.127l-0.391-0.24l-0.233-0.458l0.209-0.165l0.415,0.044
	l0.355,0.168l1.002,0.795l0.178,0.287l-0.071,1.033l0.035,0.379l0.178,0.355l0.309,0.269l0.77,0.414l0.315,0.244L55.13,94.1
	l0.979,0.072l0.434,0.114l0.734,0.784l0.418,0.338l0.188-0.188l0.189-0.411l0.448-0.173l0.947-0.166l0.221-0.149l0.189-0.17
	l0.15-0.194l0.117-0.22l0.201-0.635l0.178-2.349l0.092-0.509l0.177-0.544l0.265-0.435l0.328-0.172l0.192-0.223l0.419-1.016
	l0.264-0.291h0.193l0.27,0.062l0.229,0.1l0.105,0.09l0.096,0.218l0.226,0.006l0.729-0.229L64.5,87.6l0.688-0.539l0.418-0.836
	l0.457-2.181l0.58-0.715l0.398-0.108l0.832-0.082l0.296-0.223l0.3-0.432l0.262-0.309l1.037-0.764l0.275-0.367l0.083-0.46
	l-0.405-0.965L69.555,78.1l-0.143-0.346l-0.154-0.518l0.004-0.469l0.363-0.205l2.236-0.215l1.23,0.061l0.34,0.166l0.662,0.765
	l0.383,0.237l0.785-0.174l2.829-1.756l1.234-0.514l0.671-0.092l1.586,0.167l0.257-0.142l-0.265-0.819l0.139-0.481l0.275-0.336
	l0.257-0.423l0.022-0.366l-0.422-0.154L80.996,72.439z"/>
</svg>
