<?xml version="1.0" encoding="utf-8"?>
<!-- Generator: Adobe Illustrator 16.0.4, SVG Export Plug-In . SVG Version: 6.00 Build 0)  -->
<!DOCTYPE svg PUBLIC "-//W3C//DTD SVG 1.1//EN" "http://www.w3.org/Graphics/SVG/1.1/DTD/svg11.dtd">
<svg version="1.1" id="Layer_1" xmlns="http://www.w3.org/2000/svg" xmlns:xlink="http://www.w3.org/1999/xlink" x="0px" y="0px"
	 width="100px" height="100px" viewBox="0 0 100 100" enable-background="new 0 0 100 100" xml:space="preserve">
<path fill="#555555" d="M99.574,47.329v-0.327l-0.023-0.243l-0.105-0.15l-0.235-0.05l-0.146-0.097l-0.385-0.467l-0.16-0.155
	l-1.312-0.8l-0.21-0.047l-0.208-0.111l-0.327-0.485l-0.504-0.305l-0.142-0.476l-0.037-1.182v0.143l-0.272-0.706l-0.478-0.487
	l-1.321-0.856l-0.49-0.426l-0.231-0.296l-0.236-0.231l-0.469-0.26l-0.19-0.296l0.201-0.456l0.192-0.444l0.039-0.235l-0.129-0.319
	l-0.386-0.595l-0.127-0.236l-0.301-0.847l-0.241-0.313l-0.363-0.121l-0.357-0.056l-0.704-0.271l-2.631-0.517l-0.673-0.308
	l-0.351-0.268l-0.19-0.27l-0.522-1.041l-0.06-0.389l-0.045-0.888l-0.092-0.376l-0.148-0.292l-0.439-0.553l-0.169-0.354l-0.079-0.464
	l-0.017-0.963l-0.073-0.236l-0.027-0.255l-0.01-0.77l-0.117-0.712l-0.08-1.472l0.172-0.733l0.816-1.137l0.287-0.648l-0.027-0.786
	l-0.377-0.476l-1.326-0.548l-0.178-0.147L83.439,20.3l-0.068-0.581l-0.051-0.224l-0.076-0.211l-0.213-0.429l-0.078-0.231
	l-0.046-0.246l-0.015-0.263l0.022-0.268l0.006-0.028c-1.795,0-3.589-0.001-5.384,0c-2.839,0.002-5.68,0.003-8.518,0.003
	c-2.25,0-4.498-0.001-6.746,0c-2.864,0.002-5.729,0.003-8.594,0.003c-2.24,0-4.481-0.001-6.723,0
	c-2.857,0.002-5.713,0.002-8.57,0.002c-2.261,0-4.523,0-6.784,0.001c-2.82,0.001-5.64,0.002-8.46,0.002
	c-2.308,0-4.615,0-6.922,0.001c-2.754,0.002-5.507,0.002-8.261,0.002c-2.434,0-4.868-0.003-7.302,0.027l-0.055,0.051l0.036,0.143
	l0.05,0.114l0.036,0.133l0.009,0.152L0.7,18.686l-0.01,0.191l0.01,0.175l0.077,0.199l0.074,0.117l0.282,0.321l0.122,0.17
	l0.263,0.307l0.06,0.084l0.036,0.224l-0.005,1.088L1.56,22.079l-0.042,0.074L1.46,22.225l-0.083,0.052L1.268,22.3l-0.222-0.028
	l-0.105,0.016L0.9,22.384l0.012,0.144l0.128,0.229l0.113,0.092l0.086,0.088l0.019,0.077l-0.045,0.075l-0.136,0.155l-0.05,0.09
	l-0.019,0.113l0.028,0.116l0.096,0.108l0.118,0.045l0.126,0.011l0.241-0.013l0.351,0.062h0.104l0.16-0.019l0.1,0.01l0.086,0.047
	l0.064,0.078l0.041,0.1l0.05,0.229l0.132,0.914l0.045,0.211l0.046,0.158l0.017,0.136l-0.004,0.17l-0.164,0.844L2.585,26.8
	l-0.062,0.116l-0.514,0.501L1.98,27.514v0.116l0.064,0.121L2.1,27.827l0.026,0.062l0.014,0.097l-0.036,0.147l-0.1,0.287
	l-0.069,0.105L1.93,28.55l-0.007,0.053l0.007,0.073l0.023,0.412l-0.059,0.243l-0.058,0.133L1.55,29.787l-0.019,0.048l-0.022,0.143
	l-0.033,0.57L1.44,30.712l-0.031,0.092l-0.055,0.05l-0.072,0.078L1.25,31.024l-0.027,0.127l-0.014,0.275L1.187,31.54l-0.038,0.082
	l-0.058,0.033L0.85,31.76l-0.055,0.036l-0.06,0.058l-0.058,0.078l-0.05,0.091L0.59,32.129l-0.031,0.117l-0.041,0.108l-0.045,0.09
	l-0.236,0.351l-0.131,0.294l-0.064,0.197L0,33.575l0.036,0.17l0.079,0.218l0.244,0.38L0.5,34.516l0.124,0.119l0.822,0.622
	l0.136,0.135l0.123,0.146L1.75,35.62l0.019,0.084l-0.05,0.091L1.55,35.934L1.531,35.96l-0.045,0.083l-0.005,0.053l0.023,0.06
	l0.268,0.16l0.072,0.057l0.064,0.072l0.055,0.084l0.1,0.194l0.045,0.121l0.022,0.124l-0.014,0.169l0.014,0.13l0.074,0.116
	l0.086,0.056l0.108,0.252L2.39,38.425l0.681,0.114l0.368,0.13l0.263,0.205l0.215,0.859l-0.21,0.916L3.63,41.527l0.518,0.634
	l0.017,0.335l0.219,0.185l0.163,0.272l0.091,0.351l0.028,0.479l-0.074,0.401l-0.127,0.344L4.41,44.91l0.141,0.504l0.217,0.323
	l0.519,0.35l0.272,0.251l0.169,0.355l0.026,0.39L5.75,47.509l0.06,0.458l0.43,0.597l0.642,0.389l0.559,0.46l0.177,0.82l-0.055,0.201
	l-0.15,0.402l-0.017,0.243l0.058,0.187L7.7,51.809l0.069,0.114l0.908,0.972l0.15,0.472l-0.055,0.399l-0.136,0.371l-0.073,0.391
	l0.019,0.279l0.019,0.115L8.56,55.018L8.401,55.23l-0.1,0.164L8.26,55.552l-0.01,0.874l0.045,0.458l0.114,0.371l0.213,0.154v0.178
	l-0.091,0.404l0.023,0.429l0.323,0.248l0.194-0.021l0.305-0.197L9.51,58.4l0.182,0.063l0.195,0.142l0.122,0.139l-0.022,0.064
	l-0.078,0.1l-0.091,0.23L9.751,59.4l-0.033,0.195l0.092,0.246l0.213,0.129l0.631,0.145l0.128-0.01l0.099,0.054l0.1,0.21l-0.15,0.839
	l-0.003,0.231l-0.365,1.304l0.25,0.141l0.695,0.238l0.268,0.04l0.146,0.186l-0.227,0.398l-0.332,0.368l-0.167,0.099l-0.119,0.864
	l0.014,0.335l0.209,0.256l0.691,0.229l0.194,0.162l-0.358,0.18l0.077,0.307l0.038,0.65l0.096,0.293l-0.215,0.572l-0.091,0.135v0.125
	l0.069,0.048l0.032,0.059l0.026,0.081l0.064,0.104l0.081,0.154l-0.053,0.108l-0.092,0.108l-0.031,0.17l0.077,0.238l0.128,0.152
	l0.272,0.239l0.105,0.212l0.003,0.193l-0.062,0.426l0.031,0.271l0.191,0.499l0.045,0.505l-0.086,0.385l-0.119,0.377l-0.062,0.477
	l0.036,0.24l0.15,0.273l0.036,0.172l-0.317,0.489l-0.218,0.228l-0.069,0.111l-0.045,0.213l0.009,0.279l0.077,0.159L12,75.428
	l0.041,0.194l0.169,0.334l0.808,0.347l0.296,0.208l0.15,0.44l-0.014,0.443l-0.055,0.334h0.06l0.004,0.002
	c0.196,0,0.391-0.002,0.586-0.004c2.557-0.02,5.115-0.037,7.672-0.059c2.562-0.021,5.125-0.04,7.687-0.061
	c2.567-0.019,5.133-0.039,7.7-0.06c2.57-0.019,5.14-0.04,7.71-0.06c2.573-0.021,5.146-0.038,7.718-0.059
	c2.573-0.02,5.146-0.041,7.719-0.06c2.574-0.021,5.147-0.04,7.724-0.06c2.512-0.021,5.024-0.055,7.537-0.055l0.133,0.299
	l0.062,0.105l0.285,0.193l0.064,0.121l0.01,0.262l0.031,0.195l0.067,0.151l0.108,0.144l0.146,0.095l0.332,0.085l0.363,0.244
	l0.03,0.08l0.068,0.283l0.064,0.118l0.066,0.058l0.077,0.019l0.168-0.006l0.097,0.039l0.041,0.092l0.025,0.112L77.8,80.05
	l0.138,0.109l0.31,0.14l0.132,0.096l0.096,0.139l0.045,0.141l0.006,0.139l-0.041,0.136l0.132,0.192l0.559,0.567l0.191,0.138
	l0.444,0.176l0.162,0.162l0.909-0.27l0.142-0.206L81,81.413l-0.086-0.536l0.005-0.344l0.097-0.62l-0.01-0.356l-0.142-0.33
	l-0.413-0.385l-0.061-0.174l0.033-0.197l0.146-0.214l0.031-0.14l0.271-0.352l0.618-0.387l0.69-0.312l0.473-0.129l0.617-0.063
	l0.608-0.213l0.537-0.388l0.396-0.59l0.301-0.813l0.095-0.443l0.054-0.891l0.068-0.322l0.159-0.312l0.269-0.399l1.526-1.774
	l0.272-0.729l0.06-0.955l-0.101-0.938l-0.265-0.828l-0.44-0.623l-0.775-0.607l-0.221-0.087l-0.312-0.183l-0.177-0.432l-0.077-0.511
	l-0.005-0.419l0.127-0.882l0.236-0.892l0.322-0.807l0.363-0.628l0.607-0.41l4.418-0.358l0.656-0.221l0.315-0.289l0.585-0.703
	l0.322-0.139l1.531-0.279l0.646-0.256l0.286-0.219l0.117-0.282l0.142-0.133l0.679-0.392l0.231-0.246l0.075-0.217l0.031-0.215
	l0.006-0.485l-0.031-0.119l-0.055-0.091l-0.026-0.094l0.222-0.403l0.061-0.446l0.147-0.457l0.205-0.411l0.214-0.312l0.219-0.223
	l0.646-0.518l0.249-0.104l0.271-0.184l0.195-0.438l0.221-0.924l0.111-1.271l0.27-0.722l0.082-0.874L100,48.533l-0.377-0.922
	L99.574,47.329z"/>
</svg>
