<?xml version="1.0" encoding="utf-8"?>
<!-- Generator: Adobe Illustrator 16.0.4, SVG Export Plug-In . SVG Version: 6.00 Build 0)  -->
<!DOCTYPE svg PUBLIC "-//W3C//DTD SVG 1.1//EN" "http://www.w3.org/Graphics/SVG/1.1/DTD/svg11.dtd">
<svg version="1.1" id="Layer_1" xmlns="http://www.w3.org/2000/svg" xmlns:xlink="http://www.w3.org/1999/xlink" x="0px" y="0px"
	 width="100px" height="100px" viewBox="0 0 100 100" enable-background="new 0 0 100 100" xml:space="preserve">
<path fill="#555555" d="M99.973,39.014l-0.225-0.085l-0.318-0.027l-0.043-0.032l-0.031-0.152l-0.069-0.052l-0.067-0.006
	l-0.136,0.011l-0.198-0.022l-0.417,0.017l-0.3-0.121l-0.596-0.398L97.3,38.064l-0.258-0.167l-0.058-0.367l-0.017-0.365l-0.13-0.167
	l-0.463-0.316L96.08,35.99l-0.104-0.693l0.119-0.316l-0.593-0.13l-0.063-0.095l-0.071-0.276l-0.052-0.104l-0.565-0.41l-0.247-0.114
	l-0.107-0.069l-0.131-0.199l-0.3-0.62l-0.084-0.132l-0.229-0.105l-0.242-0.269l-0.156-0.351l0.021-0.355l0.1-0.051l0.357-0.022
	l0.15-0.1l0.049-0.144l0.012-0.194l-0.017-0.377l0.093-0.299l0.215-0.296l0.431-0.434l0.147-0.1l0.114-0.056l0.08-0.11l0.04-0.428
	l0.04-0.176l0.071-0.144l0.111-0.059l0.647,0.195l0.3,0.025l0.215-0.22l0.031-0.197l-0.074-0.121l-0.102-0.123l-0.048-0.214
	l0.013-0.199l0.064-0.343l0.015-0.18l-0.127-0.178l-0.593-0.359l-0.199-0.245l0.115-0.176l0.009-0.241l-0.093-0.208l-0.176-0.091
	l-0.317,0.012l-0.231,0.051l-0.201,0.112l-0.406,0.357l-0.278,0.185l-0.319,0.083l-0.281-0.139l-0.36-0.421l-0.146-0.111
	l-0.156-0.063l-0.282-0.032l-0.115-0.036l-0.118-0.107l-0.064-0.13L91.936,25.5l-0.086-0.148l-0.121-0.055l-0.17-0.028l-0.152-0.045
	l-0.174-0.272l-0.766-0.708H0c0.004,1.76,0.005,3.52,0.014,5.28c0.014,2.601,0.016,5.203,0.026,7.804
	c0.01,2.624,0.019,5.249,0.022,7.873c0.004,2.512,0.017,5.024,0.023,7.537c0.006,2.488,0.015,4.979,0.021,7.468
	c0.007,2.567,0.011,5.137,0.024,7.705c0.014,2.614,0.017,5.229,0.023,7.844h99.74V62.736c0-2.655-0.002-5.312,0.002-7.971
	c0.006-2.453,0.002-4.909,0.002-7.363v-7.877l-0.06-0.023l-0.017-0.061v-0.051l-0.016-0.027L100,39.159L99.973,39.014z"/>
</svg>
