<?xml version="1.0" encoding="utf-8"?>
<!-- Generator: Adobe Illustrator 16.0.4, SVG Export Plug-In . SVG Version: 6.00 Build 0)  -->
<!DOCTYPE svg PUBLIC "-//W3C//DTD SVG 1.1//EN" "http://www.w3.org/Graphics/SVG/1.1/DTD/svg11.dtd">
<svg version="1.1" id="Layer_1" xmlns="http://www.w3.org/2000/svg" xmlns:xlink="http://www.w3.org/1999/xlink" x="0px" y="0px"
	 width="100px" height="100px" viewBox="0 0 100 100" enable-background="new 0 0 100 100" xml:space="preserve">
<path fill="#555555" d="M0.539,70.8l-0.431,0.188L0,71.557l0.117,0.207l0.119,0.139l0.861-0.02l0.062-0.214l-0.171-0.651L0.539,70.8
	z M99.757,54.753l-0.146-0.017l-0.391,0.094l-0.162-0.02l-1.041-0.33l-0.175-0.101l-0.089-0.104l0.01-0.084l0.004-0.094
	l-0.019-0.086l-0.028-0.078l-0.045-0.062l-0.104-0.126l-0.408-0.367l-0.102-0.021l-0.069,0.021l-0.056,0.03l-0.033-0.03
	l-0.244-0.354l-0.124-0.127l-0.103-0.07l-0.102-0.055l-0.512-0.188l-0.112-0.077l-0.062-0.09l-0.06-0.247L95.4,51.623l-0.018-0.086
	l-0.004-0.088l-0.093-0.18l-0.162-0.231l-0.825-0.85l-0.033-0.065l-0.031-0.077l-0.043-0.167l-0.062-0.532l-0.023-0.107
	l-0.045-0.117l-0.099-0.171l-0.073-0.097l-0.072-0.073l-0.531-0.384l-0.069-0.089l-0.013-0.078l0.023-0.051l0.162-0.259l0.035-0.074
	l0.008-0.059L93.416,47.7l-0.047-0.129l-0.064-0.097l-0.052-0.058l-0.722-0.641l-0.09-0.116l-0.062-0.152l-0.064-0.24l-0.072-0.143
	l-0.989-1.407l-0.075-0.147l-0.007-0.083l0.007-0.077l0.016-0.058l0.023-0.039l0.042-0.042l0.237-0.171l0.098-0.104l0.043-0.07
	l0.021-0.069l0.012-0.085l-0.021-0.268l0.009-0.094l0.022-0.074l0.039-0.046l0.064-0.024l0.158-0.03l0.06-0.039l0.031-0.059
	l0.007-0.084l-0.003-0.094l-0.009-0.09l-0.004-0.173l0.031-0.378l0.028-0.208l-0.011-0.16l-0.043-0.192l-0.24-0.528l-0.042-0.128
	l-0.009-0.047l0.004-0.062l0.051-0.435l0.004-0.186l0.005-0.098l-0.133-0.202l-0.218-0.538l-0.137-0.236l-0.944-0.967l-0.504-0.317
	l-0.609-0.213l-0.573-0.323L88.3,36.837l-0.317-1.109l-0.039-0.326V35.07L87.9,34.827l-0.154-0.114l-0.342,0.055l-0.799,0.408
	l-0.334,0.051L86,35.312l-0.208,0.201l-0.183,0.232l-0.188,0.178l-0.354,0.134l-0.104,0.083l-0.069,0.128l-0.139,0.352l-0.105,0.167
	l-0.231,0.149l-0.278,0.014l-0.601-0.112l-0.31,0.027l-0.195,0.12l-0.159,0.134l-0.476,0.11l-0.1-0.044l-0.162-0.182l-0.313-0.516
	l-0.095-0.118l-0.166-0.117l-0.377-0.17l-0.186-0.046l-0.467,0.01l-0.12-0.066l-0.217-0.214l-0.249-0.173l-0.271-0.109l-0.291-0.029
	l-0.927,0.302l-0.146,0.108l-0.063,0.314l-0.163,0.273l-0.229,0.197l-0.264,0.083l-0.574-0.125L76.5,36.252l-0.889-0.902l-0.2-0.271
	l-0.177-0.301l-0.203-0.244l-0.561-0.158l-0.531-0.251l-0.311-0.045l-1.175,0.229l-0.291-0.034l-1.466-0.551l-0.288-0.217
	l-0.124-0.291l-0.016-0.404l-0.047-0.343l-0.08-0.303L70.02,31.89l-0.14-0.161l-0.18-0.162l-0.154-0.188l-0.065-0.234l-0.026-0.294
	l-0.077-0.312l-0.141-0.285l-0.196-0.212l-0.556-0.293l-0.321-0.119l-0.255-0.05l-0.148-0.136l-0.139-0.308l-0.188-0.312
	l-0.283-0.163l-0.562,0.112l-1.132,0.519L64.9,29.235l-0.672-0.684l-0.192-0.111l-0.071-0.058l-0.165-0.25l-0.116-0.058l-0.158,0.04
	L63.4,28.213l-0.211,0.227c-0.33,0.204-0.66,0.408-0.988,0.615L61.802,29.5l0.034,0.542l0.365,0.386l0.193,0.255l0.068,0.288
	l-0.136,0.291l-0.468,0.464l-0.114,0.164l0.157,0.209l0.209,0.101l0.572,0.035l0.285,0.104l-0.016,0.249l-0.176,0.286l-0.187,0.227
	L62.5,33.428l0.18,0.556l-0.176,0.096l-1.074-0.114l-0.453,0.063l-0.838,0.347l-1.916,1.189l-0.529,0.118l-0.262-0.16l-0.449-0.519
	l-0.229-0.113l-0.834-0.039l-1.518,0.144l-0.243,0.14l-0.005,0.317l0.104,0.351l0.098,0.233l0.111,1.03l0.275,0.654l-0.061,0.311
	l-0.186,0.249l-0.702,0.518l-0.178,0.208l-0.2,0.293l-0.202,0.15l-0.562,0.056l-0.272,0.073l-0.392,0.484l-0.312,1.478L51.4,42.106
	l-0.465,0.364l-0.267,0.144l-0.496,0.155l-0.151-0.004l-0.065-0.147l-0.07-0.062l-0.155-0.066l-0.182-0.043h-0.133l-0.178,0.198
	l-0.283,0.687l-0.132,0.15l-0.22,0.118l-0.179,0.294l-0.121,0.368l-0.062,0.345l-0.12,1.591l-0.136,0.43l-0.082,0.148l-0.101,0.133
	l-0.128,0.115l-0.15,0.101l-0.641,0.112l-0.306,0.117l-0.129,0.278l-0.128,0.129l-0.282-0.229L45.544,47l-0.294-0.077l-0.664-0.05
	l-0.26-0.152l-0.213-0.166l-0.521-0.28l-0.208-0.182l-0.12-0.24l-0.024-0.257l0.047-0.7l-0.12-0.195l-0.68-0.538l-0.24-0.114
	l-0.279-0.029l-0.143,0.112l0.159,0.31l0.263,0.164l0.272,0.085l0.108,0.12l-0.229,0.264l-0.555,0.236l-0.311,0.031l-0.16-0.05
	l-0.068-0.163l-0.07-0.062l-0.15-0.082l-0.151-0.011l-0.07,0.155l0.05,0.178l0.237,0.264l0.073,0.182l-0.054,0.358l-0.226,0.205
	l-0.298,0.097l-0.283,0.023l-0.175,0.147l-0.066,0.353l0.043,1.094l-0.039,0.251l-0.167,0.16l-0.705,0.151l-0.077,0.247v0.33
	l-0.104,0.334l-0.275,0.178l-0.314-0.008l-0.19-0.157l0.097-0.292l0.151-0.334l-0.248-0.065l-0.582,0.112l-0.461-0.085l-0.403-0.331
	l-0.283-0.449l-0.108-0.438l-0.21-0.299l-0.473,0.187l-0.504,0.384l-0.303,0.296l-0.175,0.088l-0.769,0.083l-0.232,0.104
	L33.608,48.6l-0.155,0.183l-0.154,0.269l-0.361,1.043l-0.214,0.388l-0.41,0.279l-0.145-0.093l-0.111-0.103l-0.202-0.258
	l-0.066-0.176l-0.03-0.191l-0.059-0.149l-0.159-0.062l-0.24-0.015l-0.186-0.051l-0.141-0.069L30.51,49.28l-0.888-0.355l-0.236-0.16
	L29.15,48.56l-0.296-0.193l-0.31-0.147l-0.283-0.07l-0.555,0.143l-0.539,0.3l-0.512,0.104l-0.458-0.433l-0.043-0.163l0.016-0.281
	l-0.07-0.129l-0.102-0.047l-0.116,0.022l-0.101,0.104l-0.042,0.206l0.053,0.372l0.241,0.481l0.066,0.341l-0.136,0.454l-0.337,0.372
	L25.23,50.15l-0.3-0.197l-0.03-0.251l0.136-0.54l-0.024-0.229l-0.171-0.135l-0.221,0.019l-0.201,0.109l-0.124,0.12l-0.124,0.011
	l-0.519,0.179l-0.261,0.038l-0.294-0.058l-0.245-0.133l-0.206-0.189l-0.193-0.243L22.2,48.437l-0.278-0.051l-0.229,0.139
	l-0.096,0.345l0.054,0.227l0.396,0.98l-0.608,0.679l-0.066,0.113l-0.241-0.066l-0.469-0.299l-0.229-0.089l-0.302,0.044l-0.055,0.216
	l-0.005,0.33l-0.139,0.373L19.732,51.6l-0.742,0.635l-0.15,0.223l-0.17,0.363l-0.086,0.396l0.088,0.312l0.219,0.449l0.068,0.095
	l0.388,0.413l0.292,0.715l-0.104,0.47l-0.424,0.272l-2.416,0.438l-0.771,0.438l-0.22,0.062l-0.592-0.007l-0.274,0.038l-0.217,0.115
	l-0.175,0.175l-0.135,0.223l-0.253,0.693l-0.062,0.644l0.12,0.603l0.283,0.544l0.395,0.576l0.234,0.496l0.006,0.522l-0.278,0.663
	l-0.392,0.389l-0.484,0.082l-0.523-0.154l-0.942-0.621l-3.599-1.729l-0.641-0.124l-0.609,0.074l-0.546,0.24l-0.457,0.379L6.43,60.88
	l-0.45,0.827l-0.45,0.511l-0.288,0.505l0.036,0.432l0.236,0.397l0.454,0.523l0.062,0.292l-0.086,0.709l0.021,0.521l-0.021,0.156
	l-0.069,0.107l-0.128,0.146l-0.116,0.17L5.577,66.37l0.049,0.342l0.198,0.574l0.021,0.362l-0.103,0.433L5.22,69.215l-0.325,0.938
	l-0.276,0.44l-0.353,0.188l-0.411-0.139L3.51,70.316l-0.318-0.373l-0.314-0.287l-0.148,0.08l-0.082,0.095L2.52,70.113l-0.189,0.609
	l-0.036,0.252l-0.208,0.76l-0.07,0.187c2.282,0,4.563,0.005,6.846,0.005h11.304l0.039-0.378l0.015-0.593L20.197,70.7l-0.172-0.843
	l-0.236-0.771l-0.03-0.163v-0.077l0.022-0.027l0.067-0.004c0.868,0.086,1.737,0.172,2.605,0.256l0.104,0.035l0.062,0.09l0.097,0.226
	l0.055,0.095l0.069,0.063l0.077-0.021c2.338-0.037,4.677-0.062,7.016-0.088c2.43-0.023,4.859-0.062,7.289-0.091
	c0.841-0.011,1.683-0.019,2.523-0.026l0.473-0.105l0.112-0.008c2.349,0.082,4.697,0.164,7.045,0.246
	c2.534,0.09,5.068,0.175,7.604,0.265c2.283,0.081,4.567,0.159,6.854,0.237c2.341,0.082,4.684,0.16,7.021,0.242
	c2.44,0.086,4.883,0.17,7.323,0.26c0.212,0.008,0.425,0.015,0.636,0.021l0.471-0.127l0.355-0.171l0.582-0.5l0.252-0.12l0.088-0.008
	l1.16-0.423l1.256-0.128l0.146-0.048l0.102-0.053l0.172-0.146l0.52-0.293l1.346-0.455l1.346-0.209l0.117-0.057l0.068-0.057
	l0.027-0.078l0.004-0.084L84.799,67.4l0.004-0.062l0.035-0.054l0.155-0.17l0.093-0.142l0.24-0.527l0.265-0.277l0.077-0.051
	l0.085-0.024l0.558-0.003c0.539-0.206,1.08-0.413,1.619-0.621l0.197-0.107l0.055-0.062l0.047-0.069l0.033-0.084l0.026-0.084
	l0.021-0.08l0.022-0.248l-0.006-0.18l-0.013-0.086l0.008-0.268l0.07-0.133l0.127-0.137l0.312-0.244l1.163-0.569l0.137-0.089
	l0.054-0.062l0.043-0.075l0.037-0.086l0.021-0.096l0.013-0.1l-0.021-0.365L90.23,61.99l0.012-0.104l0.107-0.153l0.24-0.237
	l0.645-0.438c1.125-0.558,2.248-1.113,3.375-1.664l0.316-0.22c1.692-1.428,3.385-2.854,5.071-4.282L99.757,54.753z"/>
</svg>
