<?xml version="1.0" encoding="utf-8"?>
<!-- Generator: Adobe Illustrator 16.0.4, SVG Export Plug-In . SVG Version: 6.00 Build 0)  -->
<!DOCTYPE svg PUBLIC "-//W3C//DTD SVG 1.1//EN" "http://www.w3.org/Graphics/SVG/1.1/DTD/svg11.dtd">
<svg version="1.1" id="Layer_1" xmlns="http://www.w3.org/2000/svg" xmlns:xlink="http://www.w3.org/1999/xlink" x="0px" y="0px"
	 width="100px" height="100px" viewBox="0 0 100 100" enable-background="new 0 0 100 100" xml:space="preserve">
<path fill="#555555" d="M87.953,76.652l-0.266-0.158l-0.067-0.078l-0.091-0.08L87.3,76.195l-0.288,0.254l-0.068,0.326l0.078,0.932
	l0.256-0.158l0.187-0.502l0.157-0.104l0.125,0.092l0.089,0.203l0.142,0.203l0.248,0.102l-0.096-0.305l-0.056-0.316L87.953,76.652z
	 M90.734,73.199l0.289-0.518l0.146-0.357l-0.095-0.006l-0.307,0.438l-0.197,0.354l-0.103,0.209l-0.157,0.229l-0.191,0.226
	l0.104-0.029l0.35-0.332L90.734,73.199z M78.654,87.502l-0.118,0.08l-0.097,0.158l0.187,0.018l0.281-0.182l0.028-0.119l-0.187,0.021
	L78.654,87.502z M89.945,76.166l0.886,0.777l0.274-0.748l-0.016-0.146l-0.124,0.021l-0.192,0.084l-0.203,0.041l-0.592-0.146
	L89.945,76.166z M94.779,82.24l0.576-0.662l0.072-0.119l-0.09,0.029l-0.044,0.033l-0.792,0.901l0.137-0.067L94.779,82.24z
	 M96.189,89.51l-0.191-0.299l-0.23-0.15l-0.275-0.039l-0.346,0.043l0.074,0.228l0.062,0.084l-0.262-0.017l-0.299-0.086l-0.254-0.17
	l-0.101-0.252l-0.798-0.229v-0.138l0.217-0.062l0.188-0.084l0.146-0.123l0.118-0.192l-0.204-0.08l-0.071-0.185l-0.068-0.237
	l-0.181-0.236l-0.067,0.049l-0.189,0.109l-0.057-0.26l-0.109-0.16l-0.129-0.133l-0.104-0.205l-0.072,0.057l-0.197,0.092l0.018-0.256
	L92.8,86.363l-0.038-0.131l-0.092,0.006l-0.018-0.074l-0.004-0.055l-0.028-0.035l-0.091,0.012l-0.176,0.391l-0.305,0.281
	l-0.333,0.135l-0.243-0.061L91.4,86.668l-0.062-0.412l-0.113-0.17l-0.213-0.102l-0.164,0.012l-0.156,0.057l-0.4,0.062l-0.288,0.102
	l-0.153,0.023l-0.213-0.052l-0.277-0.203l-0.162-0.045l-0.086-0.067l0.022-0.151l0.118-0.156l0.202-0.068h0.209l0.159-0.023
	l0.123-0.09l0.005-0.113c-0.157-0.026-0.313-0.055-0.472-0.084l-0.199,0.041l-0.157,0.105h-0.118l-0.117-0.092l-0.158-0.014
	l-0.188,0.037l-0.057-0.068l-0.389-0.207h-0.425l-1.139,0.238l-0.255-0.019l-0.209-0.097l-0.092-0.227l0.098-0.041l0.209-0.031
	l0.188-0.147l0.043-0.358l-0.305,0.149l-0.09-0.156l0.068-0.311l0.195-0.302v-0.145l-0.344-0.031l-0.529-0.297l-0.312-0.119
	l0.045-0.072l0.006-0.024l0.092-0.065l-0.278-0.117l-0.479,0.051l-0.447-0.287l-0.521-0.176l-0.188-0.137l-0.107-0.22l-0.112-0.485
	l-0.103-0.258l-0.541-0.646l-0.106-0.265l0.058-0.006l0.189,0.006l-0.128-0.211l-0.192-0.106l-0.463-0.129l0.665-0.13l1.587,0.429
	l0.37-0.151L84.055,79.6l-0.035-0.103l0.013-0.039L84.02,79.35l-0.389-0.164l0.182-0.106l0.078-0.027l-0.254-0.221l-0.502-0.299
	l-0.169-0.242l0.569,0.181l0.932,0.594l0.534,0.123l0.524,0.033l0.6,0.131l0.214,0.151l0.226,0.226l0.272,0.188l0.332,0.033v-0.152
	l-0.644-0.576l-0.281-0.168l0.083-0.006l0.08-0.018l0.095-0.006l0.131,0.028l-0.226-0.271l-0.39-0.018l-0.44,0.051l-0.378-0.062
	l-0.219-0.237L84.85,78.15l0.045-0.406l0.305-0.352l0.176-0.039l0.418,0.061l0.186-0.021l0.23-0.11l0.104-0.104l0.201-0.395
	l0.271-0.287l0.294-0.242l0.175-0.283l-0.084-0.383l0.254,0.006l0.236,0.086l0.197,0.127l0.158,0.16l0.209,0.389l0.135,0.136
	l0.242,0.006l-0.043,0.147l-0.041,0.301l-0.033,0.148l0.182-0.15l0.182-0.424l0.156-0.158h0.141l0.446,0.119l0.196,0.017
	l-0.247-0.158L89.387,76.1l-0.113-0.266l-0.151-0.248l0.106-0.146l0.137-0.153l0.185-0.111l0.237-0.026l-0.062-0.092l-0.033-0.072
	l-0.051-0.068l-0.111-0.066l0.123-0.051l0.396-0.232L89.51,74.34l-0.123-0.092l-0.125,0.146l-0.113,0.078l-0.287,0.092v-0.162
	l0.373-0.262l0.146-0.197l-0.057-0.23l-0.163-0.041l-0.237,0.086l-0.214,0.164l-0.106,0.162h-0.119l0.007-0.102l-0.035-0.017
	l0.028-0.018l-0.129-0.091l-0.276-0.371V73.35l0.524-0.299l0.125,0.361l0.364-0.074l0.224-0.332l-0.312-0.418l-0.271-0.074
	l-0.541,0.098l-0.243-0.022L87.7,72.443l0.05-0.068l0.186-0.078l0.143-0.146v-0.188l-0.074-0.17l-0.031-0.18l0.105-0.225
	l0.249-0.146l0.534,0.045l0.261-0.062l0.231-0.199l0.039-0.168l-0.125-0.135l-0.265-0.086l-0.144,0.045l-0.405,0.287l-0.112,0.119
	h-0.117l-0.045-0.084l-0.013-0.018h-0.021l-0.068-0.049v-0.164h0.146v-0.138l-0.146-0.084l-0.43-0.186l-0.209-0.039l-0.101-0.125
	l-0.106-0.035l-0.137,0.08l-0.057,0.131l0.018,0.274l-0.035,0.119l-0.102,0.183l-0.066,0.155l-0.078,0.142l-0.143,0.138L86.432,71.5
	l-0.396,0.102l-0.186,0.074l-0.271,0.23l-0.107,0.271v0.791l-0.082,0.474l-0.217,0.479l-0.298,0.399l-0.329,0.242l-0.415,0.103
	l-0.44-0.006l-0.424-0.156l-0.354-0.334l-0.451-0.53l0.065-0.248l0.279-0.367l0.045-0.135l-0.152-0.097l-0.668,0.297l-0.293,0.101
	l-0.53-0.019l-0.32-0.084l-0.202-0.223l-0.192-0.429l-0.136-0.412l-0.027-0.35l0.102-0.326l0.256-0.332l0.408-0.217l0.516,0.018
	l0.49,0.207l0.361,0.363l0.208-0.193l-0.012-0.196l-0.067-0.209l0.057-0.231l0.164-0.111l0.564-0.197l0.077-0.543l0.198-0.275
	l0.26-0.215l0.26-0.379l-0.204-0.127l-0.332-0.385l-0.259-0.102l-0.523,0.149l-0.068,0.147l0.105,0.107l0.153,0.045h0.065
	l0.019-0.113l0.097-0.057l0.103,0.035l0.051,0.135l-0.045,0.174l-0.097,0.107l-0.266,0.182l-0.102,0.033l-0.287-0.045l-0.119,0.012
	l-0.012,0.078l-0.27,0.527l-0.056-0.129l-0.078-0.08l-0.073-0.051l-0.051-0.058l0.124-0.209l0.214-0.567l0.198-0.273l-0.142-0.297
	H82.18l-0.064,0.295l-0.113,0.281l-0.169,0.274l-0.418,0.548l-0.052,0.186l-0.051,0.092l-0.174-0.012l-0.267-0.096l-0.3-0.158
	l-0.254-0.203l-0.101-0.225l-0.062-0.328l-0.153-0.125l-0.438-0.084l-0.369,0.707l-0.527,0.596l-1.322,0.949l-0.383,0.176
	l-0.395,0.094l-1.289,0.113l-0.776,0.248l-0.444-0.016l-1.197-0.334l-0.672-0.449l-1.395-0.131l-0.777-0.312l-0.654-0.58
	l-0.362-0.807l0.086-1.004l0.451-0.685l1.411-1.229l0.49-0.652l0.705-1.035l0.439-0.469l0.441-0.303l0.632-0.074l0.879,0.131
	l0.907,0.246l0.711,0.301l0.882,0.75l0.163,0.072l0.08,0.215l0.406,0.83l0.18,0.238l0.859,0.151l0.207-0.028l0.355-0.103
	l0.208-0.021l0.418,0.145l0.683,0.582l0.412,0.041l0.659-0.223l0.36,0.057l0.152,0.379l-0.027,0.209l-0.051,0.152L82.09,67.59
	l0.09,0.182l0.143,0.09l0.389,0.117l0.137,0.099l0.31-0.132l0.306,0.013l0.631,0.119l0.333-0.093l0.306-0.139l0.267-0.029
	l0.202,0.261l-0.219,0.106l-0.119,0.039h-0.188l0.322,0.275l0.586-0.162l0.555-0.373l0.201-0.277l-0.13-0.151l-0.235-0.072
	l-0.23,0.086l-0.153,0.226l-0.438-0.508l-0.56-1.345l-0.366-0.646l0.031-0.899l-0.089-0.373l-0.548-0.854l-0.128-0.351l-0.019-0.188
	l0.026-0.389l-0.009-0.188l-0.057-0.158l-0.317-0.588l-0.536-0.377l-0.259-0.684l-0.312-0.22l-0.609-0.237l-0.293-0.306L80.607,58.4
	l0.242-0.457l-0.154-0.385l-0.293-0.338l-0.185-0.335l0.027-0.395l0.142-0.48l0.359-0.795L80.628,54.8l0.169-0.379l0.475-0.569
	l0.301-1.287l0.443-0.812l0.25-0.795l0.129-0.771l-0.062-0.329c-1.949,0-3.897-0.006-5.849-0.006H45.601l1.496-1.241l-0.119-0.569
	l-0.587-0.712l-0.22-0.62l0.018-0.214l0.202-0.385l0.051-0.241l0.047-0.085l0.083-0.244l0.035-0.247L46.51,45.18l-0.264-0.164
	l-0.3-0.384L45.75,44.18l0.027-0.355l0.288-0.154l0.451-0.039l0.902,0.039l0.402-0.089l0.235-0.25l0.125-0.342l0.261-1.439
	l0.181-0.204l0.038-0.197l0.033-0.441l-0.033-0.13l-0.243-0.467l-0.196-0.254l-0.08-0.169l-0.09-0.97l0.446-0.655l1.337-0.964
	l0.021-0.152l0.095-0.243l0.017-0.531l0.362-1.929l0.027-0.447l0.079-0.389l0.588-1.065l0.242-0.836l0.18-0.389l0.293-0.389
	l0.328-0.21l0.808-0.179l0.366-0.136l0.367-0.288l0.881-1.023l0.121-0.187l0.188-0.463l0.153-0.196l0.186-0.123l0.592-0.187
	l0.684-0.502l0.43-0.77l0.006-0.817l-0.58-0.665l-0.006-0.154l0.006-0.226l0.07-0.231l0.176-0.175l1.032,0.039l0.654-1.134
	l0.6-1.433l0.869-0.863v-0.152l0.151-0.074l0.068-0.323l-0.131-0.35l-0.435-0.164l-0.666-0.101l-0.315-0.125l-0.13-0.164
	l-0.17-0.896l-0.437-0.418l-0.584-0.249l-0.639-0.383l-0.23-0.321l-0.067-0.367l0.038-0.925l0.041-0.214l0.084-0.255l0.057-0.27
	l-0.039-0.267l-0.143-0.175l-0.463-0.292l-0.189-0.163l-0.223-0.317l-0.163-0.372l-0.101-0.43l-0.033-0.492l0.201-0.321l0.479-0.095
	l0.525-0.023l0.354-0.097l0.306-0.473l-0.084-0.401l-0.344-0.27l-0.941-0.16l-0.237-0.19l-0.058-0.334L55.3,9.288l0.31-1.089
	l0.188-0.226l0.243-0.13l0.288-0.315l0.27-0.4l0.188-0.396l-0.367-0.463l-0.243-0.226l-0.241-0.095l-0.3-0.039l-0.321-0.106
	l-0.258-0.171l-0.103-0.218l0.026-0.747l-0.265,0.017c-2.745,0-5.49,0.004-8.235,0.009c-2.903,0.005-5.807,0.004-8.71,0.009
	c-2.597,0.004-5.194,0-7.792,0.006c-2.976,0.006-5.952,0.009-8.928,0.009c-2.562,0-5.123,0.012-7.684,0.012
	c-3.114,0-6.228,0.005-9.341,0.011C2.697,4.748,1.369,4.75,0.041,4.752c-0.006,2.693-0.018,5.386-0.018,8.08
	c0,2.781-0.007,5.562-0.013,8.343c-0.005,2.14-0.003,4.278-0.01,6.417l0.017,0.047l0.041,0.083l0.101,0.119l0.258,0.19l0.125,0.07
	l0.237,0.185l0.089,0.107l0.392,0.723L1.326,29.2l0.08,0.068l0.085,0.056l0.626,0.317l0.169,0.139l0.372,0.389l0.26,0.339
	l0.169,0.299l0.089,0.21l0.08,0.22l0.136,0.282l0.49,0.727l0.051,0.202l0.13,0.863l0.074,0.261l0.065,0.175l0.068,0.068l0.057,0.072
	l0.045,0.085l0.017,0.113l-0.005,0.13L4.295,34.57l-0.029,0.202L4.232,35.4l-0.029,0.187l-0.027,0.124l-0.08,0.159L4.019,36.1
	l-0.012,0.16l0.012,0.167l0.067,0.216l0.051,0.13l0.118,0.202l0.185,0.261l0.513,0.567l0.166,0.137l0.095,0.062l0.107,0.056
	L5.784,38.2l0.113,0.044l0.089,0.062l0.062,0.091l0.012,0.116l-0.056,0.12l-0.045,0.062l-0.023,0.029l-0.009,0.004L5.723,38.86
	l-0.057,0.09l-0.012,0.107l0.041,0.181l0.039,0.095l0.056,0.104l0.074,0.06l0.089,0.044l0.225,0.062l0.107,0.046l0.08,0.066
	l0.062,0.136l0.05,0.187l0.051,0.354l0.056,0.194l0.062,0.144l0.192,0.261l0.293,0.323l0.265,0.175l0.033,0.062l-0.01,0.074
	l-0.243,0.309l-0.057,0.092l-0.08,0.196L7,42.352l-0.02,0.153l0.039,0.237l0.062,0.137l0.085,0.101l0.49,0.417l0.21,0.226
	l0.062,0.091l0.05,0.107l0.039,0.125l0.039,0.18l0.047,0.152l0.062,0.113l0.102,0.165l0.027,0.117l0.08,0.593l0.039,0.119
	l0.051,0.078l0.056,0.058l0.056,0.045l0.041,0.017l0.057,0.012h0.068l0.372-0.098l0.344,0.085l0.101,0.365l-0.051,0.988l-0.044,0.22
	l-0.181,0.299L9.243,47.7l0.513,0.824l0.264,0.237l0.08,0.164l-0.074,0.222l-0.152,0.104L9.355,49.41L9.18,49.437l-0.282,0.234
	l0.163,0.501l0.306,0.479l0.14,0.164l0.148,0.289l-0.029,0.096l-0.119,0.232l-0.293,0.258l-0.169,0.188l-0.072,0.23l0.021,0.244
	l0.097,0.422l0.021,0.248l-0.006,0.268L9.08,53.484l-0.106,0.367L8.28,55.13l-0.154,1.058L7.94,56.504l-0.655,0.525l-0.158,0.342
	L6.85,58.467l-0.039,0.23l-0.372,0.109l-0.293,0.274l-0.169,0.39l-0.005,0.436l0.057,0.113l0.151,0.1l0.051,0.102l0.018,0.428
	l-0.018,0.025l0.237,0.66l0.024,0.174L6.439,61.92l-0.147,0.301l-0.463,0.576l-0.27,0.494l-0.062,0.422l0.074,0.973l0.134,0.338
	l0.288,0.271l0.278,0.314l0.09,0.498l-0.057,0.219L6.122,66.76l-0.033,0.25l0.044,0.219l0.187,0.322l0.039,0.146l0.044,0.406
	l0.068,0.315l0.011,0.353L6.36,69.273l-0.243,0.432L6.083,69.91l0.146,0.264l-1.122,1.275l-0.389,0.689v0.006l0.158,0.018
	l0.309,0.127l0.092,0.318l-0.092,1.408l-0.784,1.569L4.097,75.66l-1.208,0.084l-0.175,0.225l0.051,0.51l0.187,0.912l0.48,0.666
	l0.371,0.275l0.391-0.111l0.304-0.242l0.605-0.287l0.264-0.229l0.632-0.354l0.886-0.152l1.614-0.014l1.935,0.043l0.492-0.205
	l0.344,0.086l0.845-0.092l0.401,0.168l0.4-0.213l1.101-0.195l1-0.047l1.042,0.18l2.088,0.525l1.281,0.594l2.326,0.768l0.976,0.795
	l0.698,0.39l1.999,0.856l3.187,0.719l0.667-0.17l0.196,0.117l0.192-0.117l0.439,0.234l2.901,0.52l0.569-0.016l0.553-0.148l1.4-0.743
	l0.552-0.134l1.186,0.111l0.525-0.012l0.247-0.266l-0.389-0.135l0.113-0.216l0.231-0.116l0.581-0.132l-0.231-0.213L37.9,79.885
	l-0.463,0.141l-0.293,0.222h-0.146l-0.112-0.377l-0.537-1.117l0.231-0.084l0.564-0.379l-0.169-0.103L36.812,78.2l-0.175,0.057
	l-0.457,0.082l-0.276,0.218l-0.142,0.051l-0.175-0.188L35.4,77.982l-0.146-0.502l-0.068-0.39l0.407,0.271l0.101,0.027l0.106-0.084
	l0.16-0.301l0.066-0.062l0.323,0.093l0.14,0.228l-0.045,0.247l-0.237,0.197l0.271,0.006l0.232-0.17l0.434-0.451l0.254-0.149
	l1.647-0.605l0.187-0.141l0.119-0.293l-0.035-0.193l0.035-0.094l0.338-0.029l0.214,0.092l0.198,0.156l0.22,0.057l0.513-0.389
	l0.243-0.012l0.891,0.133l0.22,0.137l0.142,0.221l0.045,0.293l-0.062,0.379l-0.146-0.067l-0.169-0.248l-0.148-0.142l-0.208,0.187
	l-0.187,0.412l-0.068,0.412l0.136,0.187l0.062,0.157l0.018,0.312l0.157,0.227l0.484-0.098l0.712-0.412l0.332-0.135l1.789-0.101
	l0.442,0.05l0.456,0.19l0.141,0.287l-0.062,0.955l-0.09,0.508l-0.107,0.373l0.084,0.209l0.502,0.033l0.221-0.058l0.422-0.186
	l0.205-0.047l0.157,0.104l0.033,0.234l0.006,0.279l0.057,0.203l0.204,0.387l0.074,0.504l-0.08,0.439l-0.265,0.227l0.473,0.102
	l0.791-0.125l0.778-0.258l0.445-0.318l0.266,0.199l-0.03,0.197l-0.146,0.209l-0.091,0.225l0.101,0.148l0.228,0.051l0.467,0.021
	l0.458,0.123l0.812,0.346l0.429,0.275l0.08-0.232l0.231-0.42l0.076-0.227l-0.044-0.068l-0.073-0.18l-0.033-0.232l0.084-0.207
	l0.548-0.453l0.103-0.309l-0.188-0.508l0.311,0.016l0.249,0.105l0.157,0.198l0.062,0.293l-0.062,0.353l-0.175,0.207l-0.214,0.154
	l-0.198,0.178l-0.237,0.492l-0.084,0.58l0.096,0.581l0.289,0.515l0.125,0.084l0.248,0.074l0.096,0.08l0.037,0.139l-0.025,0.361
	l0.05,0.157l0.214,0.192l0.605,0.355l1.059,0.895l0.221,0.478l-0.332,0.56v0.135l0.091,0.057l0.09,0.141L56,87.875l-0.175,0.176
	l-0.191,0.123l-0.411,0.146l0.006-0.242l-0.08-0.176l-0.14-0.113l-0.204-0.061l0.182-0.287l0.078-0.322l0.011-0.734l-0.569,0.17
	l-0.451-0.26l-0.23-0.434l0.08-0.367l-0.451,0.045l-0.227,0.242l-0.158,0.35l-0.221,0.391l-0.287,0.213l-0.362,0.086l-0.332-0.096
	l-0.19-0.34l0.221,0.973l0.821,0.738l1.079,0.484l2.003,0.338l0.22,0.092l0.445,0.398l0.182,0.102l0.312,0.023l0.252-0.045
	l0.17-0.17l0.062-0.326l0.132-0.102l0.299,0.022l0.312,0.112l0.174,0.201l-0.203,0.045l-0.135,0.113l-0.066,0.18l0.01,0.244
	l0.542-0.205l0.521,0.125l0.482,0.316l0.876,0.818l0.198-0.035l0.062-0.084l0.013-0.102l0.062-0.078l0.428-0.213l0.086-0.199
	l-0.125-0.344l0.34,0.129l0.314,0.215l0.322,0.125l0.344-0.158l0.141,0.406l-0.207,0.141l-0.312,0.092l-0.158,0.252l0.232,0.018
	l0.671,0.226l0.142-0.012l0.143-0.314l0.311,0.011l0.293,0.147l0.112,0.09l0.151-0.051l0.08-0.106l0.062-0.107l0.271-0.123
	l0.019-0.182l-0.028-0.195l0.041-0.143l0.213-0.074l0.215,0.051l0.104,0.186l0.118,0.283v-0.359l0.135-0.844l-0.045-0.037
	l-0.09-0.098l0.163-0.502l0.102-0.232l0.131-0.156l0.18,0.22l0.146,0.231l0.146,0.086l0.187-0.237l-0.243-0.328l0.119-0.228
	l0.211-0.252l0.032-0.399l-0.438-0.068l-0.092-0.065l-0.007-0.244l0.093-0.119l0.146-0.016l0.181,0.067l0.039-0.205l0.109-0.11
	l0.162-0.023l0.215,0.041v0.162l-0.26,0.137l0.187,0.096l0.66,0.215l0.226-0.108l0.182-0.187l0.187-0.039l0.253,0.334l0.445-0.51
	l0.152-0.281l0.058-0.338l0.09-0.328l0.187,0.013l0.164,0.146l0.018,0.097l0.107,0.118l0.377,0.634l0.111,0.293v1.2l0.459-0.608
	l0.066-0.221l0.027-0.291l0.097-0.193l0.157-0.112l0.236-0.062v0.137l0.029,0.252l0.706,0.785l0.179,0.385l0.074,0.105l0.157-0.264
	l0.137-0.355l0.022-0.164l0.189,0.033l0.125,0.209l0.062,0.271l0.017,0.231l-0.028,0.258l-0.084,0.312l-0.018,0.252l-0.068,0.231
	l-0.123,0.232l-0.078,0.225l0.071,0.203l0.406,0.386l0.124,0.186l0.057,0.271l0.012,0.274l-0.032,0.215l-0.118,0.119l0.281,0.103
	l0.588-0.25l0.98-0.625l0.315-0.107l0.321-0.264l0.26-0.308l0.275-0.213l0.106-0.147l0.437-0.84l0.123-0.351l-0.627,0.084
	l-0.31-0.619l0.097-0.655l0.574-0.017l-0.208-0.367l0.157-0.188l0.316,0.058l0.26,0.362l0.379-0.157v-0.152l-0.312-0.166
	l-0.261-0.27l-0.169-0.351l-0.045-0.406l0.158,0.052l0.111,0.096l0.08,0.136l0.057,0.164l0.022-0.58l-0.022-0.177l-0.062-0.141
	l-0.084-0.113l-0.112-0.112l0.004-0.361l0.062-0.207l0.16-0.131l0.293-0.125l-0.436-0.406l-0.444-0.281l-0.479-0.158l-0.548-0.049
	l-0.187-0.045l-0.192-0.113l-0.817-0.762l-0.18-0.137l-0.113,0.119L73.35,82.63l-0.08-0.086l-0.102-0.188h0.182l0.156-0.035
	l0.299-0.131v-0.15l-0.13,0.018l-0.389-0.018l0.118-0.301l0.287-0.371l0.113-0.219l0.287,0.252l0.445,0.668l0.311,0.287l0.144-0.166
	l-0.249-0.162l0.062-0.125l0.258-0.051l0.322,0.051l0.359,0.166l2.089,1.393l0.563,0.197l0.648-0.275l0.594,0.613l0.314,0.113
	l0.136-0.49l0.027-0.299l0.085-0.057l0.141,0.067l0.453,0.104l0.045,0.135l-0.086,0.273l-0.039-0.012L80.63,83.91l-0.09,0.117
	l-0.045,0.115v0.141l0.039,0.072l0.045,0.039l0.035,0.045l0.038,0.104l0.074,0.146l0.101,0.135l0.118,0.062l0.406-0.228l0.221-0.052
	l0.096,0.205l-0.057,0.146l-0.102,0.131l-0.057,0.15l0.086,0.256l0.057-0.106l0.051-0.046l0.062-0.047l0.103-0.103l0.112,0.308
	l0.062,0.252l-0.021,0.238l-0.152,0.248l-0.213,0.182l-0.322,0.175l-0.659,0.237l2.657,0.235l0.227-0.073l0.52-0.474l0.275-0.137
	l0.208,0.191l-0.012,0.205l-0.315,0.502l0.321,0.281l0.106,0.344l0.172,0.295l0.5,0.117l0.515,0.045l1.122,0.418l-0.186-0.457
	l0.209-0.197l0.395,0.006l0.367,0.186l-0.355,0.158l-0.164,0.006l1.055,1.918l0.401,0.152l0.146,0.137l-0.105,0.246l-0.013,0.164
	l0.208,0.586l0.191,0.177l0.438-0.085l0.451-0.26l0.236-0.344l0.01-0.266l-0.106-0.457l-0.032-0.26l0.062-0.236l0.128-0.141
	l0.131,0.012l0.062,0.219l-0.023,0.537l0.041,0.275l0.124,0.152l0.164-0.062l0.051-0.248l0.013-0.277l0.032-0.156l0.281,0.023
	l-0.038,0.428l-0.176,0.502l-0.137,0.236l-0.332,0.744l-0.176,0.086l-0.428,0.09l-0.169,0.137l-0.006,0.123l0.032,0.221v0.248
	l-0.096,0.222l-0.412,0.5l-0.125,0.215l-0.344,0.276l-0.107,0.123l-0.049,0.197l-0.068,0.689l0.418-0.119l0.339-0.293l0.896-1.326
	l0.118-0.287l0.046-0.277l0.168-0.344l0.4-0.135l0.441-0.061l0.306-0.125l0.095-0.17l-0.012-0.142l-0.051-0.151l-0.032-0.211
	l0.038-0.22h0.096l0.198,0.136l0.146,0.182l0.476,0.834l0.102,0.256l0.124,0.236l0.576,0.721l0.202,0.148l0.261-0.125l-0.377-0.734
	l0.057-0.395l0.514-0.521l0.24-0.31l0.104-0.295l0.084,0.17l0.096,0.113l0.221,0.182l0.007-0.256l-0.058-0.235l-0.103-0.216
	l-0.119-0.186l0.312,0.012l0.215,0.142l0.113,0.248l0.01,0.327l0.256-0.247l0.541-1.091l-1.266-0.028l-0.181,0.028l0.041-0.266
	l0.259-0.305l0.344-0.248l0.271-0.074l-0.016,0.131l0.016,0.168v0.148h0.143l0.09-0.223l0.137-0.043l0.411,0.117l-0.136-0.214
	l-0.078-0.051l-0.176-0.035V89.51H96.189z M90.041,70.852l0.389-0.078l0.019-0.045l0.073-0.104l0.106-0.105l0.136-0.045l0.062,0.025
	l0.056,0.062l0.08,0.057l0.146,0.018l0.012-0.045l0.062-0.105l0.101-0.112l0.131-0.045l0.142,0.057l0.078,0.136l0.057,0.151
	l0.057,0.103l0.271,0.358l0.129,0.054l0.123-0.248l0.271,0.08l0.182-0.172l0.086-0.312l-0.019-0.361h-0.12l-0.062,0.148
	l-0.084,0.112l-0.111,0.105l-0.143,0.096l-0.018-0.102l-0.102-0.207l0.057-0.305l-0.333-0.154l-0.265-0.186l0.277-0.41l0.539-0.564
	l0.249-0.193l0.255-0.143v-0.15l-0.293,0.08l-0.261,0.225l-0.372,0.445l-0.48,0.361l-0.271,0.141l-0.293,0.103l0.14,0.385
	l-0.156,0.119h-0.25l-0.123,0.021l-0.09,0.152l-0.209,0.113l-0.261,0.074l-0.226,0.033l0.119,0.293L90.041,70.852z M88.264,68.793
	l-0.027-0.125l-0.125,0.055l-0.123,0.205l0.158,0.068L88.264,68.793z M77.982,87.875l-0.26,0.303l-0.479,0.176l-0.436,0.232
	l-0.117,0.479h0.129l0.254-0.28l0.66-0.345l0.391-0.266l-0.143-0.152l0.143-0.146L77.982,87.875L77.982,87.875z M91.907,73.059
	l-0.513,0.113l-0.346,0.135l-0.309,0.275l0.027,0.102l0.174-0.072l0.205-0.065l0.358-0.062h0.282l0.098-0.051l-0.062-0.104v-0.113
	L91.907,73.059z M92.15,83.543l0.355,0.01l0.389-0.092l0.317-0.195l0.112-0.334l-0.023-0.065l-0.006-0.058l-0.027-0.029
	l-0.091,0.019l-0.096,0.313L92.8,83.305L92.15,83.543z M44.136,81.02l-0.469-0.041l-0.576-0.121l-0.023-0.047l-0.576-0.254
	l-0.49-0.479l-0.299-0.195l-1.067-0.243l-0.232,0.021l-0.078,0.073l-0.192,0.271l-0.107,0.09l-0.475,0.152l-0.371,0.035
	l-0.362,0.113l-0.445,0.383l-0.024,0.305l0.312,0.293l1.947,0.846l0.196,0.197l0.199,0.086l1.094,0.727l0.739-0.135l0.271-0.012
	l0.136-0.061l0.039-0.158l0.005-0.299l0.102-0.367l0.26-0.221l0.694-0.39l0.175-0.321L44.4,81.092L44.136,81.02z M96.777,79.977
	l0.021,0.027l0.182-0.152l0.086-0.096l-0.107,0.068L96.777,79.977z M59.201,92.445l0.037,0.006l-0.236-0.09L59.201,92.445z
	 M59.238,92.451l0.55,0.207h0.676l-0.444-0.129L59.238,92.451z M99.87,72.289l-0.276-0.406l-0.148-0.52l-0.2-0.465l-0.419-0.262
	l0.281,0.231l0.188,0.332l0.188,0.784l0.131,0.164l-0.092,0.248l0.08,0.354l0.271,0.601l-0.119,0.137l0.013,0.35l-0.013,1.145
	l-0.112,0.377l-0.563,1.136l0.08,0.123l0.032,0.131l0.006,0.125l-0.022,0.119l0.474-0.904l0.164-0.489L100,73.785L99.87,72.289z
	 M97.811,78.875l0.688-0.926l0.293-0.486l-1.235,1.627L97.811,78.875z M76.087,83.473l0.085,0.144l0.074,0.062l0.072,0.045h0.105
	l0.098-0.068l0.151,0.027l0.124,0.144l0.068,0.186l0.107,0.097l0.28-0.039l0.101,0.016l0.074-0.078l0.008-0.158L77.4,83.791
	l-0.032,0.039l0.006-0.062l-0.019-0.119l-0.032-0.018l-0.019,0.098l-0.066,0.033l-0.135,0.045l-0.176-0.084l-0.191-0.231
	l-0.006-0.072l0.197,0.021l0.067-0.096l-0.114-0.176l-0.186-0.09l-0.209-0.055l-0.151-0.068l-0.086-0.084l-0.146-0.092l-0.396-0.146
	l-0.266,0.027l-0.17-0.027l-0.17,0.012l-0.121,0.111l0.016,0.205l0.332,0.395l0.188,0.103l0.256-0.065l0.274-0.047l0.101,0.018
	l-0.043,0.018L76.087,83.473z M71.494,91.926l-0.157,0.057l-0.147,0.086l-0.535,0.445l1.195-0.445v-0.164h-0.187L71.494,91.926z
	 M64.812,92.314l-0.095,0.006L64.4,92.299l-0.062,0.062l-0.14,0.09l-0.243,0.039l-0.163-0.057l-0.057-0.078h-0.107l-0.398,0.168
	l-0.099,0.102l-0.521,0.125l0.041,0.137h0.301l1.46-0.357l0.315-0.129l0.237-0.157L65,92.191l-0.124,0.072L64.812,92.314z
	 M69.299,92.568l-0.214-0.123l-0.457-0.182l-1.123-0.236l-0.022,0.119l0.916,0.373l0.845,0.194h0.131l-0.013-0.078L69.299,92.568z
	 M68.734,88.508l0.125-0.125l0.125-0.158l-0.019-0.203l-0.22,0.09l-0.143,0.486l0.018,0.305l0.051-0.243L68.734,88.508z"/>
</svg>
