<?xml version="1.0" encoding="utf-8"?>
<!-- Generator: Adobe Illustrator 16.0.4, SVG Export Plug-In . SVG Version: 6.00 Build 0)  -->
<!DOCTYPE svg PUBLIC "-//W3C//DTD SVG 1.1//EN" "http://www.w3.org/Graphics/SVG/1.1/DTD/svg11.dtd">
<svg version="1.1" id="Layer_1" xmlns="http://www.w3.org/2000/svg" xmlns:xlink="http://www.w3.org/1999/xlink" x="0px" y="0px"
	 width="100px" height="100px" viewBox="0 0 100 100" enable-background="new 0 0 100 100" xml:space="preserve">
<path fill="#555555" d="M78.249,72.799l-0.187-0.252l-0.26-0.14l-0.225,0.081l-0.094,0.398l0.113,0.311l0.584,0.3l0.238,0.272
	l-0.279,0.086l-0.691-0.041l-0.117,0.146l0.146,0.247l0.59,0.278l0.18,0.253l0.227-0.479l0.205-0.607l-0.007-0.549L78.249,72.799z
	 M98.418,65.812l-0.876,2.092l-0.585,1.104l-0.253,0.729l-0.099,0.82l-0.113,0.291l-0.672,0.963l-0.473,0.943
	c0.125-0.016,0.248-0.033,0.373-0.053l0.12-0.254l0.771-0.909l0.902-2.319l0.359-1.652l0.803-1.549l0.233-0.845h-0.14L98.418,65.812
	z M98.57,60.864c-2.869,0.009-5.739-0.011-8.609-0.011c-1.628,0-3.255-0.004-4.882-0.004l-0.095-1.354
	c-0.145-2.93-0.271-5.86-0.41-8.789c-0.143-2.983-0.284-5.966-0.422-8.949c-0.135-2.902-0.274-5.804-0.408-8.706
	c-0.135-2.893-0.273-5.785-0.406-8.678c-0.002-0.04-0.004-0.079-0.006-0.118c-3.107-0.003-6.219-0.003-9.327-0.003
	c-2.856,0-5.714,0.001-8.569-0.002c-3.141-0.003-6.279,0-9.418,0c-2.356,0-4.713-0.002-7.069-0.002h-9.761
	c-2.553,0-5.107-0.003-7.66-0.003h-10.45c-2.86,0-5.721-0.002-8.582-0.002c-2.886,0-5.771,0.001-8.657-0.001
	c-1.2-0.001-2.4-0.001-3.6-0.001L0,39.104l0.046,0.084l0.093,0.005l0.218-0.109l0.286-0.19l2.518-2.264l0.178-0.056l0.932-0.159
	l0.171-0.078l0.095-0.117l0.265-0.615l0.159-0.25l0.292-0.309l0.639-0.485l1.048-0.568l0.113-0.082l0.1-0.107l0.246-0.359
	l0.432-0.336l0.087-0.085l0.085-0.103l0.062-0.1l0.053-0.104l0.286-0.731l0.073-0.126l0.085-0.123l0.108-0.09l0.856-0.438
	l0.167-0.03l0.21,0.021l0.386,0.148l0.357,0.22l0.426,0.41l0.241,0.137l0.172,0.035l0.191-0.012l0.255-0.112l0.126-0.103
	l0.105-0.115l0.219-0.362l1.349-1.382l0.273-0.376l0.227-0.394l0.07-0.096l0.094-0.097l0.088-0.075l0.105-0.064l0.122-0.043
	l0.392-0.087l0.132-0.053l0.066-0.076l-0.021-0.08l-0.099-0.167l-0.02-0.124l0.013-0.147l0.053-0.154l0.074-0.133l0.325-0.503
	l0.125-0.243l0.095-0.233l0.053-0.105l0.066-0.096l0.087-0.03l0.105,0.021l0.161,0.149l0.066,0.116l0.206,0.231l0.252,0.169
	l0.039,0.104l-0.018,0.069l-0.119,0.04l-0.182,0.11l-0.053,0.066l-0.034,0.075l-0.032,0.11l-0.007,0.116v0.078l0.014,0.05
	l0.014,0.035l0.125,0.179l0.053,0.043l0.074,0.053l0.817,0.403l0.371,0.261l0.094,0.096l0.113,0.09l0.551,0.184l1.833,0.312
	l0.053-0.11l0.772-0.246l1.614,0.227l0.697-0.524l0.106-0.293l-0.112-0.15L23.179,28.6l0.071-0.412l0.366-0.108l0.44-0.006
	l0.283-0.115l-0.619-0.874l0.228-0.146l0.199-0.019l0.439,0.075l0.207-0.024l0.583-0.294l0.451-0.105l0.905,0.199l0.451-0.011
	l0.161-0.142l0.405-0.522l0.259-0.211l0.671-0.811l0.188-0.137l0.206-0.101l0.258-0.082l1.163,0.084l1.035,0.673l1.714,1.756
	l0.427,0.288l0.512,0.188l0.478,0.021l0.353-0.209l0.238-0.077l0.632,0.179l0.125-0.102l0.119-0.219l0.274-0.047l0.306,0.06
	l0.227,0.097l0.327,0.444l-0.115,0.448l-0.41,0.354l-0.559,0.146l0.132,0.318l0.333,1.087h0.14l0.053-0.276l0.111-0.318l0.175-0.191
	l0.206,0.086l0.146,0.33l-0.08,0.215l-0.132,0.17l-0.021,0.185l0.285,0.343l0.332,0.003l0.372-0.119l0.417-0.027v0.198l-0.31,0.088
	l-0.147,0.228l0.008,0.315l0.132,0.361l-0.485,0.371l0.292,0.279l1.031,0.449l0.192,0.49l-0.107,0.532l-0.171,0.543v0.522
	l0.345,0.563l0.032,0.013l0.44,0.209l1.142,0.005l0.412,0.08l0.957,0.387l1.018,0.249l0.244,0.229l0.434,0.734l0.425,0.293
	l0.512,0.144l0.443,0.199l0.247,0.451l-0.081,0.591l-0.338,0.441l-0.738,0.665l-0.166,0.486l0.126,0.445l0.298,0.384l0.34,0.314
	l0.804,0.821l0.523,0.298l1.987,0.196l0.717,0.206l0.659,0.364l0.493,0.526l0.138,0.396l0.093,0.46l0.154,0.38l0.305,0.158
	l0.32,0.063l0.755,0.271l0.691,0.144l0.252,0.204l0.261,0.349l1.72-1.882l2.491,3.558l-1.985,2.354l-0.015,0.491l0.377,0.739
	l-0.104,0.23L55.695,52.4l-0.12,0.129l-0.138,0.092l0.217,0.574l-0.264,0.322l-0.892,0.279l-0.325,0.169l-0.179,0.14l-0.175,0.183
	l-0.133,0.255l-0.084,0.484l-0.194,0.465l-0.14,0.49l-0.127,0.168l-0.218,0.068l-0.5-0.031l-0.146,0.049l-0.172,0.154l-0.14,0.053
	l-0.127,0.078l-0.106,0.215l-0.066,0.308l0.025,0.188l0.127,0.035l0.232-0.139l0.152,0.195l-0.632,0.292l-0.218,0.114L50.87,57.9
	l-0.252,0.549l-0.14,0.58l-0.211,0.269l-0.168,0.351l0.014,0.799l0.118,0.859l0.123,0.551l0.246,0.512l0.404,0.572l0.484,0.353
	l0.492-0.179l0.232-0.174l0.51-0.228l0.254-0.291l0.457-0.976l-0.213-0.375L53.13,60.96l-0.153-0.097l0.291-0.23l0.308-0.179
	l0.052,0.073l0.014,0.029l0.028,0.03l0.077,0.062v0.215l-0.126,0.229l0.041,0.312l0.157,0.291l0.248,0.16l0.279-0.06l0.29-0.228
	l0.354-0.512l0.125-0.225l0.094-0.238l0.055-0.256l0.021-0.279l0.362,0.431L55.96,61.2l0.649,2.118l0.314,0.545l1.533,1.652
	l0.604,0.392l0.459-0.024l0.094-0.713l-0.163-0.8l-0.222-0.698l-0.556-1.248l0.708,0.463l0.486,0.567l0.265,0.755l0.087,1.062
	l0.073,0.274l0.172,0.378l0.375,0.631l0.353,0.326l0.295,0.112l2.147-0.267l0.81,0.09l0.633,0.424l0.306,0.305l0.291,0.227
	l0.279,0.271l0.274,0.459l0.123,0.397l0.16,0.703l0.04,0.248l0.3,0.198l0.16-0.241l0.141-0.736l0.488,0.566l0.301,0.198l0.18-0.38
	l0.113-0.165l0.113-0.226l0.045-0.278l-0.024-0.19l-0.123-0.435l-0.017-0.259l0.502,0.472l0.168,0.937l0.08,0.92l0.258,0.408
	l0.611,0.228l1.635,1.528l-0.021-0.433l-0.14-0.253l-0.178-0.208l-0.141-0.278l0.046-0.431l0.192-0.545l0.124-0.572l-0.124-0.51
	l-0.698-1.069l-0.616-0.546l-0.152-0.213l-0.133-0.544l0.125-0.434l0.207-0.402l0.11-0.495l-0.219-0.437l-0.525-0.012l-0.61,0.137
	l-0.502,0.021l-0.461-0.291l-0.393-0.483l-0.271-0.565l-0.105-0.521l-0.24-0.186l-1.447-0.703l-0.765-0.697l-0.583-0.789
	l-0.365-0.977l-0.134-1.07l-0.036-0.213l-0.131-0.16l0.167-0.214l-0.153-0.448l-0.092-0.627l-0.128-2.094l0.034-0.328l-0.027-0.223
	l0.06-0.195l0.214,0.715l0.666,4.359l0.111,0.229l0.236,0.174l1.504,1.96l0.387,0.294l0.709,0.16l0.252,0.111l0.373,0.231
	l0.154,0.192l0.038,0.158l0.028,0.182l0.104,0.266l0.334,0.446l0.34,0.157l0.776-0.021l0.517-0.233l0.088-0.557l-0.16-0.65
	l-0.205-0.525l-0.639-0.989l-1.56-1.817l-0.427-1.104l-0.034-0.646l0.188-1.811l-0.09-0.531l-0.158-0.531L66.83,54.04l0.166-0.636
	l-0.63-0.692l-0.263-0.504l-0.033-0.586l0.242-0.397l0.838-0.521l0.317-0.436l0.125-0.618l-0.237-0.002l-0.666,0.405l-0.213-0.211
	l0.291-0.935l-0.218-0.229l-0.106-0.187l-0.026-0.084l-0.024-0.121l0.529-0.01l0.223,0.053l0.157,0.136l0.358-0.373l-0.227-0.354
	l-0.744-0.455l-0.236-0.322l-0.169-0.426l0.034-0.346l0.371-0.087l0.439,0.266l0.766,0.915l0.414,0.197l0.16-0.312l-0.283-0.699
	l-0.91-1.464l-0.508-0.584l-0.224-0.201l-0.474-0.205l-0.225-0.177l-0.154-0.294l-0.012-0.299l0.125-0.229l0.266-0.082l0.227,0.137
	l0.227,0.302l0.332,0.563l1.283,1.338l0.17-0.069l0.141-0.192l0.168-0.107l0.529-0.029l0.375-0.129l0.099-0.293l-0.306-0.518
	l-0.404-0.327l-1.196-0.575l-0.485-0.1l-0.158-0.097l-0.152-0.229l-0.054-0.264l0.133-0.199l0.185,0.051l0.752,0.558l0.301-0.21
	l0.277,0.06l0.227,0.229l0.119,0.316h0.168l0.123-0.646l-0.242-0.629l-0.34-0.612l-0.307-1.053l-0.299,0.019l-0.49,0.339
	l-0.234-0.165l-0.312-0.528l-0.152-0.112l-0.065-0.155l-0.095-0.34l-0.203-0.338L65.73,38.7l-0.121-0.188l-0.098-0.256l-0.201-0.272
	l-0.166-0.032l-0.393-0.14l-0.285-0.15l0.147-0.074l0.573-0.035l0.224-0.111l0.219-0.228l0.245,0.232l1.123,0.538l0.307,0.312
	l0.252,0.344l0.207,0.212l0.17-0.077l0.142,0.215l0.171-0.183l0.201-0.005l0.213,0.133l0.197,0.236l0.918-0.594v-0.178l-0.771-0.121
	l-0.591-0.529l-0.446-0.761l-0.356-0.801l0.738,0.247l0.185,0.149l0.374,0.67l0.205,0.284l0.347,0.231l0.229-0.259l0.015-0.192
	l-0.737-0.989l-0.166-0.356l0.139-0.162l1.242,0.302l0.066-0.117l-0.16-0.385l0.255-0.194l0.238-0.03l0.226-0.062l0.2-0.302h-0.139
	l0.053-0.531l-0.487-0.229l-0.617-0.151l-0.355-0.299l1.719-0.439l0.307,0.145l0.443,1.323l0.168,1.349l0.678-0.854l0.172-0.116
	l0.025-0.158l-0.166-0.346l-0.318-0.503l0.307-2.18l0.146-0.124l0.146-0.256l0.179-0.216h0.213l0.16,0.202l-0.006,0.237
	l-0.154,0.553l-0.152,1.243l0.087,0.569l0.364,0.383l0.584-0.531l1.377-0.812l1.091-1.097l0.146-0.261l0.053-0.376l-0.176-0.129
	l-0.826-0.288l-0.239-0.287l0.631-1.606l0.213-0.222l0.245-0.118l0.312-0.047l1.535,0.015l0.244-0.124l0.373-0.683l0.26-0.3
	l0.364-0.092l-0.271,1.132l-0.182,0.501l-0.238,0.443L78.7,30.563l-0.205,0.55l0.081,0.538l0.384-0.493l1.597-1.327l0.424-0.458
	l0.356-0.508l0.394-0.421l0.543-0.202l-0.168,0.664l-0.274,0.67l-0.397,0.553l-0.552,0.312l0.22,0.478l0.34,0.335l0.67,0.397v0.18
	L81.5,31.728l-1.044-0.351l-0.497,0.055l-0.386,0.252l-0.496,0.436l-0.897,1.007l-0.072,0.529l0.558,0.188l2.563,0.028l0.578,0.179
	l0.305,0.371l-0.586,0.027l-0.157-0.022l-0.998,0.036l-2.529-0.087l-1.973,0.243l-0.073,0.128l-0.18,0.63l-0.125,0.23l-0.213,0.112
	l-0.492,0.099l-0.234,0.206l-0.076,0.237l-0.049,0.573l-0.092,0.265l-1.098,2.072l-0.373,1l-0.098,0.184l-0.141,0.337l-0.006,0.322
	l0.521,0.252l0.176,0.257l0.119,0.298l0.037,0.225l-0.064,1.267l0.033,0.527l0.192,0.274l0.398-0.366l0.19-1.076l0.325-1.089
	l0.772-0.427v0.199l-0.309,0.215l0.543,0.191l0.481-0.234l0.478-0.371l0.506-0.212l-0.271,0.513l-0.997,1.037L75.32,43.15
	l0.166,0.195l-0.254,0.084l-0.529,0.095l0.064,0.271l0.102,0.225l0.132,0.171l0.181,0.124l-0.088,0.589l-0.385,0.366l-0.51,0.189
	l-0.501,0.053l-0.63-0.096l-0.381-0.245l-0.596-0.644l-0.24-0.162l-0.259-0.105l-0.198,0.055l-0.153,0.664l-0.306,0.618
	l-0.071,0.213l-0.066,0.716l-0.405,2.153l0.045,0.506l0.354-0.019l0.456-0.285l0.235-0.311l-0.108-0.174l-0.205-0.261l-0.147-0.293
	l0.067-0.272l0.212-0.18l0.188-0.056l0.688-0.057l0.153-0.036l0.227-0.137l0.02-0.081l0.166-0.244l0.188-0.211l0.088,0.019
	l0.159-0.483l0.37,0.154l0.711,0.631l-0.107,0.339l-0.053,0.468l0.088,0.412l0.291,0.179l0.146-0.156l0.169-0.678l0.07-0.17
	l0.287,0.044l0.024,0.259l-0.159,0.591l0.146,0.11l0.943,0.392l-0.473,0.345L75,49.253l-0.512,0.382l-0.092,0.812l0.317,0.674
	l0.474,0.077l0.457-0.298l0.307-0.453l0.085,0.453l-0.192,0.453l-0.312,0.346l-0.287,0.14l-0.418-0.054l-0.399-0.157l-0.365-0.251
	l-0.291-0.341l-0.174-0.657l-0.045-0.11l-0.234-0.045l-0.144-0.119l-0.233-0.353l-0.34-0.184l-0.352,0.178l-0.619,0.522
	l-0.038,0.241l-0.12,0.29l-0.438,1.676l-0.208,0.504l-0.071,0.41l-0.061,0.695l0.132,0.152l0.301-0.051l0.319-0.174l0.185-0.215
	l-0.077-0.402l0.045-0.656l0.141-0.672l0.185-0.443l0.349-0.344l0.025,0.25l-0.205,1.184l0.186,0.279l0.41-0.422l0.719-0.947
	l0.432,0.206l-0.058,0.476l-0.448,0.889l0.288,0.187l0.196,0.667l0.193,0.146l0.272-0.139l0.12-0.328l0.1-0.396l0.2-0.333
	l0.087,0.287l-0.008,0.275l-0.079,0.237l-0.155,0.179l0.2,0.351l0.399,0.017l0.483-0.113l0.472-0.037v0.195l-0.306,0.108
	l-0.584,0.302l-0.2,0.176v0.18l0.438,0.191l0.325-0.057l0.293-0.172l0.339-0.143L76.29,55.55l0.419,0.501l0.637,0.358l0.532,0.131
	l0.519-0.159l0.319-0.404l0.485-1.002h0.125l0.08,0.092l0.091,0.088l-0.229,0.439l-0.107,0.885l-0.279,0.477l-0.268,0.178
	l-0.344,0.114l-0.703,0.079l-2.285-0.876l-0.42,0.091l-0.239-0.168l-0.224-0.221l0.125-0.079l0.338-0.296l-0.317,0.051l-0.585,0.245
	l-0.325,0.079l-0.38-0.004l-1.01-0.192l0.227,0.37l0.105,0.117l0.146,0.098v0.197l-0.496,0.594l-0.175,0.4l0.279,0.181l0.698-0.007
	l0.279-0.08l0.244-0.196l0.119-0.22l0.014-0.156l0.065-0.094l0.261-0.029l0.18,0.008l0.145,0.024l0.123,0.062l0.09,0.103
	l0.066,0.307l-0.34,0.372l0.123,0.301l-0.439,0.221l-0.503,0.16l-0.419,0.236l-0.176,0.467l-0.098,0.721l-0.207,0.406l-0.213-0.055
	l-0.101-0.674l-0.2-0.262l-0.411-0.07l-0.338,0.218l0.021,0.604l0.125,0.147l0.205,0.158l0.192,0.222l0.154,0.629l0.14,0.332
	l0.166,0.299l0.119,0.168l0.672,1.065l0.426,0.7l0.119,0.77h0.139l0.066-0.619l-0.316-1.287l0.25-0.24l0.373,0.266l1.344,1.702
	l0.205,0.524l0.152,0.186l0.59,0.164l0.228,0.241l0.729,1.274l0.24,0.201l0.213-0.268l0.252-0.749v-0.394l-0.039-0.367l-0.175-0.279
	l-0.229-0.145l0.408-0.726l0.639-0.782l0.58-0.326l0.217,0.646l-0.164,0.432l-0.617,0.277l-0.14,0.371l0.086,0.266l0.192,0.24
	l0.221,0.206l0.126,0.172l0.037,0.279l-0.032,0.278v0.248l0.12,0.172l0.157-0.279l0.552-1.688l0.147-0.228l1.153-1.334l0.103-0.272
	l0.054-0.326l0.079-0.268l0.15-0.109l0.293,0.031l0.053,0.102l-0.053,0.16l-0.132,0.608l-0.198,0.438l-0.752,1.242l-0.244,0.609
	l-0.102,0.653l0.212,0.569l0.419,0.233l0.989,0.07l0.36,0.188l-0.838,0.396l-0.91,0.259l-0.725,0.493l-0.291,1.082l0.023,0.57
	l0.066,0.227l0.14,0.087l0.194-0.099l0.047-0.227l0.021-0.255l0.118-0.196l0.473-0.129l1.016,0.114l0.525-0.201l0.299,0.056
	l0.398-0.045l0.316,0.104l0.074,0.294l-0.181,0.157l-0.677,0.121l-0.232,0.111l0.141,0.193l-0.119,0.252l-0.188,0.227l-0.232,0.179
	l-0.232,0.102v0.21l0.1,0.062l0.021,0.026v0.028l0.055,0.086l0.272-0.168l0.317-0.052l0.551,0.018l0.339-0.137l0.245-0.293
	l0.248-0.221l0.33,0.066l-0.307,0.524l-1.027,0.983l-0.221,0.34l-0.14,0.091l-0.638,0.095l-0.146,0.213l-0.1,0.311l-0.479,0.761
	l-0.174,0.183l0.062,0.035h0.058l0.032,0.039l-0.014,0.143h0.152l0.104-0.175l0.14-0.118l0.177-0.074l0.215-0.026l-0.113,0.371
	l-0.191,0.229l-0.193,0.164l-0.135,0.207L81.3,75.182l0.058,0.118l0.082,0.107l0.037,0.207l0.207,0.139l0.443-0.286l0.682-0.629
	l0.489-0.354l0.519-0.068l2.037,0.174l0.428,0.112l0.246,0.121c0.119-0.276,0.238-0.554,0.357-0.831l0.152-0.146
	c1.836-0.238,3.673-0.476,5.508-0.729l0.055-0.233l0.49-1.423l-0.115-0.24l0.135-0.104l0.367-0.5l0.191-0.151l0.211,0.005
	l0.42,0.174l0.153-0.006l0.165-0.273l0.259-0.91l0.106-0.191l0.22-0.252l0.325-1.675l0.213-0.345l0.299-0.252l0.73-0.398
	l-0.299,0.608l0.073,0.221l0.759-0.032l0.217-0.207l0.551-1.268l0.268-0.366l0.307-0.517l0.225-0.541l0.041-0.448l-0.186-0.321
	l-0.262-0.007l-0.297,0.06l-0.318-0.104l0.098-0.052l0.105-0.096l0.102-0.064v-0.18h-0.168v-0.213l0.221-0.399l-0.316-0.252
	l-0.965-0.306l0.412-0.227l0.373,0.087l0.355,0.199l0.388,0.118l0.378-0.066l0.027-0.199l-0.405-0.711l0.312,0.129l0.237,0.004
	l0.123-0.157l-0.021-0.171L98.57,60.864L98.57,60.864z M99.688,60.854l0.006,0.012l-0.03,0.874l-0.382,1.616l-0.066,0.843
	l0.367-0.489l0.258-0.966l0.146-1.068c0.006-0.272,0.011-0.547,0.015-0.819h-0.313V60.854z M78.184,68.861l0.053-0.24l-0.094-0.26
	l-0.186-0.264l-0.332-0.281l-0.523,0.119l-0.365,0.396l0.132,0.562l0.228,0.088l0.862,0.092L78.184,68.861z"/>
</svg>
