<?xml version="1.0" encoding="utf-8"?>
<!-- Generator: Adobe Illustrator 16.0.4, SVG Export Plug-In . SVG Version: 6.00 Build 0)  -->
<!DOCTYPE svg PUBLIC "-//W3C//DTD SVG 1.1//EN" "http://www.w3.org/Graphics/SVG/1.1/DTD/svg11.dtd">
<svg version="1.1" id="Layer_1" xmlns="http://www.w3.org/2000/svg" xmlns:xlink="http://www.w3.org/1999/xlink" x="0px" y="0px"
	 width="100px" height="100px" viewBox="0 0 100 100" enable-background="new 0 0 100 100" xml:space="preserve">
<path fill="#555555" d="M85.177,73.967l-0.42,0.348l-0.455,0.654l-0.378,0.336l0.157,0.418l0.377,0.473l0.446,0.349l0.346,0.047
	l0.173-0.313l0.05-0.539l-0.023-1.17L85.177,73.967z M82.562,74.527l-0.394-0.154l-0.364-0.335l0.553-0.326l0.289-0.287l0.018-0.356
	l-0.29-0.551l-0.403-0.193l-0.256,0.301l-0.256,0.432l-0.41,0.223l0.294-0.869l-0.344-0.085l-1.524,0.647l-0.832,0.868l-0.363,0.198
	l-0.354,0.271l-0.751,1.317l-0.336,0.458l-0.512,0.225l-1.794,0.006v0.273l0.337,0.254l0.533,0.709l0.289,0.303l0.513,0.312
	l0.286-0.013l0.535-0.526l0.66-0.44l0.774-0.32l0.841-0.207l3.938-0.076l0.485-0.132l-0.273-1.886L82.562,74.527z M97.741,77.188
	l-0.442-1.609l-0.126-0.292l-0.155-0.185l-0.207-0.068l-0.279,0.04l0.322,0.999l-0.199,0.812l-0.881,1.478l0.438-0.205l0.781-0.846
	l0.512-0.19l-0.174,0.515l-0.312,0.487l-0.401,0.369l-0.712,0.222l-0.295,0.335l-0.223,0.095l-0.224-0.015l-0.256-0.183
	l-0.263-0.079l-0.852-0.031l-2.402,0.308v0.229l3.022,1.054l1.556,0.271l1.534-0.061l1.343-0.734l-0.256-1.213L97.741,77.188z
	 M98.971,65.895L98.87,65.73l-0.222-0.084l-0.225,0.968l-1.126,2.86l0.532-0.115l0.729-2.174l0.469-0.756l-0.019-0.302
	L98.971,65.895z M99.604,58.023l-1.244-4.401l-0.684-1.056l-1.525-1.773l-0.559-0.427l-1.195-0.604l-0.429-0.363l-0.461-0.214
	l-1.194,0.163l-0.455-0.205l-0.222-0.028l-0.28,0.213l-0.246,0.343l-0.101,0.353l0.077,0.177l0.164,0.131l0.188,0.11l0.143,0.119
	l0.634,0.942l0.402,0.248l0.489-0.169v-0.277l-0.144,0.014l-0.429-0.014l0.57-0.939l0.972-0.006l0.905,0.696l0.403,1.155
	l0.081,0.427l0.512,1.758l0.043,0.559l-0.043,1.761l0.315-0.407l0.156-1.158l0.387-0.242l0.271,0.14l0.266,0.295l0.355,0.269
	l0.533,0.062v0.278l-0.453,0.195l-0.242,0.064l-0.268-0.005l0.541,0.937l0.217,1.223l-0.164,1.227l-0.594,0.947l-0.422,0.191
	L95.88,60.9l-0.801,0.568l-2.53,0.705l-1.457,0.852l-0.865,0.334l-1.131-0.017l-0.56-0.136l-0.124-0.239l0.361-0.211l1.031-0.011
	l0.42-0.174L86.7,62.244l-1.064-0.415l-1.819-1.261l-0.797-0.979l0.039-0.954l0.217-0.994l-0.166-1.422l-0.428-1.273l-0.58-0.553
	l-1.094,0.105l-0.52-0.096l-0.502-0.395l-1.607-1.683l0.247-0.154l0.205-0.051l0.224,0.051l0.273,0.154l0.26-1.775l0.208-0.27
	l0.265,0.236l0.271,0.545l0.33,1.03l-0.174,0.028l-0.256,0.146l-0.143,0.059l0.282,0.189l0.289,0.084l0.295-0.051l0.28-0.224
	l0.166-0.255l-0.043-0.102l-0.147-0.113l-0.84-1.349l-0.229-0.611l0.14-0.642l-0.62-0.616l-0.698-1.314l-0.495-0.744l-0.346-0.312
	l-0.135-0.006l-0.014-0.113v-1.116l-0.076-0.253l-0.707-0.895l-0.555-0.506l-0.615-0.395l-1.334-0.375l-0.677-0.539l-1.196-1.294
	l-0.017,0.445l0.199,0.596l0.329,0.525l0.363,0.228l-0.01,0.222l-0.225,0.387L73.13,43.33l-0.313-0.502l-0.312,0.249l-0.454,0.259
	l-0.401,0.162l-0.185-0.017l-0.073,0.139l-0.164-0.018l-0.172-0.11l-0.127-0.127v-0.16l0.299-0.298l0.082-0.204l-0.289-0.488
	l-0.576,0.022l-0.428-0.156l0.149-1.025l-0.677,0.409l-0.264-0.014l-0.314-0.279l-0.24-0.511l0.135-0.386l0.348-0.23l0.426-0.039
	l-0.156-0.338l-0.213-0.213l-0.273-0.132l-0.312-0.09l0.329-0.488l0.396,0.222l0.471,0.352l0.517-0.085l-0.287-0.159l-0.229-0.268
	l-0.034-0.256l0.28-0.11l0.379,0.15l0.455,0.597l0.41,0.046l-0.222-0.361l-0.075-0.349l-0.084-0.829l-0.229-0.604l0.025-0.327
	l0.287-0.497l0.545-0.326l0.758,0.923l0.691-0.222l-0.354-0.227L72.282,36.1l-0.216-0.4l0.092-0.465l0.182-0.143l0.451,0.046
	l0.215-0.043l0.184-0.133l0.56-0.528l0.123-0.17l0.149-0.143l0.238-0.057l0.237-0.098l-0.058-0.212l-0.271-0.332l-0.116-0.378
	l-0.278,0.201l-0.381,0.392l-0.387,0.194l0.066-0.358l0.117-0.287l0.168-0.229l0.242-0.179l-0.217-0.259l0.473-0.352l1.426-0.6
	l3.229-0.718l0.215-0.256l0.156-0.332l0.255-0.344l0.328-0.219l0.158,0.026c0.028,0.063,0.06,0.128,0.09,0.192l0.521,0.074
	l0.131-0.079l0.299-0.228l0.238-0.296l0.131-0.315l0.197-0.216l0.403,0.003v-0.232l-0.147-0.307l0.082-0.339l0.041-0.274
	l-0.278-0.114l-0.372-0.028l-0.239-0.128l-0.106-0.304l0.052-0.55l-0.759,0.392l-0.346,0.272l-0.229,0.346l0.056,1.006l-0.133,0.346
	l-0.493-0.317l-0.032-0.478l-1.56-0.152l-0.501-0.662l0.271,0.017l0.229-0.043l0.429-0.231l-1.581-0.768l-0.593-0.636l-0.108-1.181
	l0.307,0.292l0.834,1.258l0.213-0.281l-0.814-2.425l-0.307-0.463l-0.143-0.329l-0.09-0.122l-0.1-0.031L75,22.433l-0.074-0.006
	l-0.593-0.287l-0.267-0.188l-0.278-0.349l1.269,0.088l0.256-0.088l0.051-0.332l-0.225-1.341l0.025-0.265l-0.996,0.253l-0.585-0.152
	l-0.94-0.403l-0.328-0.058l-0.256,0.012l-2.711,1.206l-0.306,0.222l-0.138,0.134l-0.416,0.509l-0.204,0.21l-0.363,0.267
	l-0.264,0.088h-0.312l-0.322-0.062l-0.476-0.025l-0.282,0.046l-0.221,0.085l-0.15,0.103l-0.147,0.132l-0.256,0.314l-0.115,0.173
	l-0.214,0.403l-0.256,0.71l-0.116,0.256l-0.286,0.323l-0.329,0.154l-0.546,0.164l-0.287,0.125l-0.216,0.145l-0.377,0.483
	l-0.403,0.405L61.93,26.2l-0.221,0.107l-0.282,0.046c-2.879-0.099-5.758-0.187-8.637-0.286c-3.003-0.104-6.007-0.196-9.01-0.299
	c-2.914-0.099-5.828-0.195-8.742-0.289c-1.981-0.063-3.962-0.131-5.943-0.199h-0.057c-2.939-0.109-5.878-0.225-8.817-0.334
	c-2.993-0.112-5.986-0.229-8.979-0.341c-1.385-0.052-2.77-0.104-4.155-0.156l-0.46,0.604c-0.794,2.927-1.565,5.86-2.353,8.789
	c-0.756,2.812-1.51,5.626-2.262,8.439C1.344,44.776,0.638,47.264,0,49.768l0.75,0.917c3.008,0.115,6.017,0.23,9.025,0.347
	c2.749,0.104,5.498,0.21,8.247,0.317l1.508,0.14l0.034,0.977l1.201-0.118l0.156-0.857l3.833,0.059l0.65,0.203l0.364,0.062
	l0.239-0.013l0.502-0.261c3.087,0.057,6.175,0.12,9.262,0.18c2.876,0.055,5.753,0.114,8.629,0.172
	c1.07,0.021,2.141,0.017,3.21,0.023l0.018,0.402c2.958-0.06,5.917-0.118,8.875-0.18c0.409-0.009,0.817-0.017,1.228-0.024
	l1.449,0.021l0.033,0.508c0.049,1.176,0.098,2.352,0.146,3.526l0.043,0.247l0.082,0.195l0.223,0.062l0.527-0.033l0.222,0.047
	l0.101,0.136l0.057,0.426l-0.018,0.267l-0.021,0.229l-0.074,0.32l0.006,0.18l0.042,0.374l-0.13,1.264l0.006,0.2l0.051,0.234
	l0.146,0.283l0.32,0.43l0.455,0.352l0.32,0.18l0.271,0.092l0.513,0.42l0.872,1.506l0.225-0.434l0.055-0.176l0.158-0.216l0.373,0.088
	l0.614,0.265l0.265-0.172l0.189-0.248l0.875-1.737l0.338-0.466l0.426-0.178l-0.688,1.551l-1.526,2.604l-0.47,1.468l-0.074,0.747
	l-0.021,0.89l0.096,1.642l0.314,1.386l-0.018,0.271l-0.156,0.4l0.074,0.389l0.377,0.869l1.78-1.642l0.692-0.386l-0.125-0.182
	l-0.256-0.58l1.03,0.192l0.33-0.192l-0.008-0.76l0.362,0.459l0.156,0.562l-0.166,0.488l-0.559,0.244l0.822,0.371l0.692-0.189
	l1.244-0.944l-0.042,0.097l-0.031,0.157l0.385-0.014l0.33-0.192l0.636-0.531l-0.181-1.099l0.295-0.674l0.381-0.616l0.058-0.937
	l0.676,0.452l0.19,0.184l0.115,0.268l0.195,0.693l0.174,0.207l0.321-0.032l0.033-0.425l-0.165-0.955l0.264,0.023l0.543-0.225
	l0.454-0.281L75.4,65.927v-0.179l0.227-0.292l0.329-0.06l0.319,0.529l0.512-0.624l0.195-0.625l0.272-0.387l0.742,0.086l-0.257-0.515
	l-0.038-0.447l0.099-1.214l0.266-0.066l0.574,0.312l0.881,0.66h0.189l0.091-0.455l0.222-0.25l0.266,0.027l0.197,0.399l-0.123,0.052
	l-0.273,0.227l0.165,0.408l-0.223,0.325l-0.337,0.31l-0.174,0.355l0.035,0.518l0.139,0.604l-0.019,2.837l-0.255,1.024l-0.666,0.729
	l0.891-0.073l1.606-0.752l0.847-0.188l0.924-0.04l0.791-0.167l0.686-0.378l0.576-0.661l0.857-1.499l0.287-0.306l0.336,0.098
	l0.406,0.682l0.296-0.143l0.421-0.362l0.387-0.09l0.925,0.097l0.442-0.08L90.193,66l0.41-0.074l-0.278,0.938l-0.05,0.386
	l0.246-0.203l0.438-0.729l0.236-0.28l0.281-0.11l0.348-0.076l0.896-0.457h1.353l4.424-0.793l1.097,0.287l0.182-2.492l-0.049-1.938
	l-0.216-0.501l-0.411-0.05l-0.642,0.397l0.106-0.502l0.104-1.066l0.149-0.492l0.369,0.429l0.404,0.339l0.125-0.013l0.1-0.03
	l0.091-0.07l0.09-0.119L99.604,58.023z"/>
</svg>
