<?xml version="1.0" encoding="utf-8"?>
<!-- Generator: Adobe Illustrator 16.0.4, SVG Export Plug-In . SVG Version: 6.00 Build 0)  -->
<!DOCTYPE svg PUBLIC "-//W3C//DTD SVG 1.1//EN" "http://www.w3.org/Graphics/SVG/1.1/DTD/svg11.dtd">
<svg version="1.1" id="Layer_1" xmlns="http://www.w3.org/2000/svg" xmlns:xlink="http://www.w3.org/1999/xlink" x="0px" y="0px"
	 width="100px" height="100px" viewBox="0 0 100 100" enable-background="new 0 0 100 100" xml:space="preserve">
<path fill="#555555" d="M26.726,14.908l-0.473,0.299l-0.194,0.207l-0.091,0.27l-0.041,0.383l-0.017,0.726l0.139,0.205l0.987,0.067
	l0.11,0.098l0.183,0.281l0.074,0.058l0.49-0.109l0.145-0.157l0.007-0.299l-0.139-0.182l-0.284,0.2l0.11-0.261L27.93,16.4l0.216-0.23
	l0.165-0.09l-0.064,0.255l-0.045,0.571l-0.045,0.269l-0.11,0.288l-0.104,0.141l-0.319,0.226l-0.167,0.179l-0.064,0.169l0.036,0.187
	l0.612,0.993l0.159-0.084l0.138-0.199l0.229-0.426l0.342-0.873L29,17.628l0.416-0.214l0.094-0.187l0.055-0.242l0.138-0.111
	l0.194-0.029l0.21,0.002v-0.11l-0.124-0.209l0.043-0.302l0.139-0.295l0.158-0.189l0.145-0.045l0.142,0.007l0.142-0.015l0.132-0.112
	l0.452-0.547l0.106-0.089l0.271-0.107l0.116-0.077l0.181-0.378l0.073-0.062l0.233-0.056l0.235-0.143l0.681-0.574l-0.181-0.206
	l-0.381-0.164l-0.326-0.083l0.138-0.196l0.22-0.036l0.474,0.021l0.597-0.194l0.226-0.025l0.242,0.035l0.441,0.151l0.246,0.033
	l0.218-0.06l0.393-0.248l0.25-0.021V12.44l-0.146-0.142l-0.216-0.354l-0.161-0.163l-0.41-0.244l-0.212-0.07L32.1,11.465
	l-0.926,0.175l-0.79,0.321l-0.151,0.119l-0.168,0.195l-0.117,0.07l-0.125-0.039l-0.126-0.066l-0.119-0.02l-0.081,0.055l-0.293,0.275
	L28.323,13l-0.361,0.263L26.919,14.7L26.726,14.908z M72.562,35.55l-0.101-0.121l-0.13-0.054l-0.154,0.022l0.062-0.206l-0.064-0.103
	l-0.3-0.119l-0.153,0.157l-0.072,0.056v0.107l0.086,0.018l0.048,0.026l0.032,0.029l0.061,0.034l-0.148,0.116l0.25,0.135l0.195,0.062
	l0.455,0.017L72.562,35.55z M45.594,38.184l0.136-0.095l0.102-0.11l0.082-0.142l0.061-0.187l-0.104-0.333l0.14-0.154l0.245-0.047
	h0.2l0.399,0.294l0.268,0.113l0.239-0.135l0.151-0.215l0.161-0.159l0.178-0.124l0.215-0.094l0.229-0.06l0.138,0.031l0.103,0.126
	l0.126,0.222l-0.355,1.032l0.022,0.152l0.039,0.032l0.01,0.073l-0.01,0.073L48.33,38.51l-0.08-0.016l-0.146-0.073l-0.073-0.018
	h-0.266l-0.113,0.018l-0.014,0.047l0.014,0.067l-0.058,0.14l-0.04,0.195l-0.019,0.066l-0.036,0.024l-0.062,0.007l-0.065,0.02
	l-0.054,0.057l-0.112,0.448l-0.078,0.14l-0.354,0.348l-0.039,0.171l0.129,0.286l0.116,0.165l0.339,0.26l0.185,0.186l0.112,0.088
	l0.11,0.036l0.116-0.074v-0.161L47.8,40.774l-0.029-0.078l-0.013-0.077l-0.055-0.142l-0.013-0.096l0.032-0.119l0.072-0.021
	l0.08,0.011l0.052-0.026l0.216-0.558l0.164-0.216l0.349-0.129l0.055-0.111l0.025-0.155l0.003-0.176l0.055-0.104l0.13-0.034
	l0.265-0.017l0.447-0.214l0.064-0.071l0.089-0.181l0.075-0.077l0.165-0.051l0.409-0.053l0.174-0.109l0.082-0.097l-0.082-0.107
	l0.291-0.883l0.361-0.681l0.506-0.438l1.877-0.301l0.416,0.049l0.693,0.243l0.646,0.398l-0.045-0.365l0.08-0.233l0.203-0.125
	l1.172-0.175l1.402,0.033l0.188-0.104l0.148-0.245l0.223-0.496l0.709-0.931l0.224-0.141l0.87,0.087l0.339-0.194l0.104-0.021
	l0.117,0.081l0.133,0.135l0.129,0.096l0.106-0.042l0.231-0.174l0.232,0.087l0.396,0.364l0.229,0.085l0.741,0.022l0.243,0.068
	l0.576,0.36l1.058,0.331l0.185,0.166l0.396,0.475l0.132,0.099l0.104,0.103l0.233,0.445l0.113,0.103l0.216,0.029l0.26,0.1l0.217,0.18
	l0.09,0.28l0.21,0.293l0.474,0.277l0.508,0.085l0.307-0.283l-0.193-0.113l-0.085-0.3l0.036-0.333l0.167-0.215l-0.118-0.106
	l-0.064-0.149l0.013-0.184l0.104-0.211l0.146-0.121l0.113-0.016l0.078-0.065l0.115-0.826l0.231-0.197l0.313,0.058l0.34,0.215
	l0.222-0.137l0.219,0.086l0.169,0.231l0.062,0.296l0.017,0.204l0.035,0.07l0.101-0.013l0.053-0.028l0.164-0.147l0.08-0.037
	l0.307,0.32l0.068-0.336l0.071-0.113l0.608,0.075l0.271,0.209l0.181,0.058l0.008-0.035l0.066-0.073l0.098-0.071l0.088-0.033
	l0.138,0.033l0.226,0.146l0.116,0.033l0.718-0.026l2.191,0.458l0.087,0.056l0.12,0.033l0.096-0.06l0.104-0.085l0.128-0.045
	l0.59-0.091l0.164,0.091l0.014-0.176l0.035-0.157l0.102-0.309l-0.189-0.056l-0.143-0.124l-0.129-0.143l-0.143-0.105l-0.223-0.062
	l-0.178-0.021L76.396,34.3l-0.174-0.188l-0.394-0.523l-0.062-0.129l0.006-0.235l0.08-0.166l0.11-0.153l0.101-0.196H75.91
	l-0.122-0.052l-0.245-0.153l-0.072-0.011l-0.16,0.027l-0.072-0.017l-0.047-0.068l-0.104-0.264l-0.199-0.067l-0.326-0.051
	l-0.304,0.02l-0.132,0.153l-0.122,0.096l-0.252-0.26l-0.207-0.351l0.011-0.175l0.252-0.084l0.348-0.334l0.262-0.021l-0.115-0.287
	l-0.277-0.415l-0.055-0.32l-0.053-0.61l0.514,0.056l-0.014,0.062l0.258,0.034l0.135,0.049l0.222,0.175l0.058-0.104l0.004-0.142
	l0.11,0.012l0.008-0.026l-0.258-0.431l-0.203-0.392l-0.123-0.528l0.529-1.474l-0.406-0.236l-0.542-0.077l-0.486,0.313l-0.693,0.394
	l-0.516-0.334l-0.406,0.039L71.74,26.99l-0.271,0.347l-0.191,0.183l-0.143,0.184l-0.13,0.133l0.017,0.188l-0.434,0.265l-0.441,0.1
	l-0.369-0.217l0.102-0.324l-0.266-0.42l-0.415-0.276l-0.357,0.102l-0.28,0.268l-0.377,0.188l-0.402,0.111l-0.362,0.036l-0.173-0.036
	l-0.462-0.297l-0.407-0.1L66.3,27.379l-0.153-0.224l-0.106-0.073l-0.146,0.021l-0.36,0.178l-0.175,0.026l-0.207-0.073l-0.139-0.138
	l-0.094-0.193l-0.081-0.242l0.304-0.367l0.109-0.271l-0.145-0.533l0.192-1.862l0.058-0.234l0.151-0.199l0.19-0.126l0.17-0.151
	l0.095-0.274l-0.258,0.034l-0.455,0.149l-0.231,0.034l-0.92-0.119l-0.842,0.07l-1.013,0.33l-1.993,1.033l-0.507,0.092l-3.701-0.396
	l-0.34,0.07l-0.077-0.107l-0.3,0.187l-1.8,0.378l-0.299-0.054l-0.297-0.187l-1.502,1.094l-1.24,0.564l-0.437,0.375l-0.394,0.069
	l-0.172,0.073l-0.492,0.425l-0.142,0.169l-0.529,0.796l-0.339,0.343L47.32,28.17l0.022-0.07l0.03-0.175l0.022-0.07l-0.309-0.005
	l-0.236-0.049l-0.197-0.145l-0.199-0.292l-0.231-0.204L46,27.25l-0.333,0.389l-0.218,0.132l-0.296,0.082l-0.265-0.039l-0.112-0.232
	l-0.056-0.138l-0.119-0.024l-0.139,0.002l-0.104-0.056l-0.332-0.491l-0.055-0.15l-0.013-0.098l-0.035-0.082l-0.127-0.111
	l-0.138-0.071l-0.152-0.028l-0.148,0.038l-0.123,0.119l-0.101,0.068l-0.141,0.016l-0.281-0.024l-0.061,0.061l-0.18,0.281
	l-0.095,0.092l-0.261,0.024l-0.523-0.104l-0.467,0.237l-1.332-0.229l-0.278-0.153l-0.153-0.325l-0.055-0.795l-0.046-0.111
	l-0.112-0.073l-0.571-0.265l-0.11-0.149l0.02-0.23l-0.199-0.147l-0.221-0.23l-0.18-0.272l-0.074-0.271l-0.107-0.151l-0.502-0.556
	l-0.143-0.215l-0.178-0.695l-0.167-0.306l-0.216,0.073l-0.123,0.063l-0.08-0.146l-0.097-0.354l-0.08-0.018l-0.268,0.089
	l-0.132-0.021l-0.11-0.11l-0.107-0.289l-0.09-0.145l-0.104-0.037l-0.122,0.014l-0.103-0.014l-0.042-0.12l-0.148-0.14l-1.162-0.32
	l-1.76-0.16l-0.6,0.057l-0.872,0.255l-0.18,0.199l-0.101,0.332l-0.243,0.344l-0.293,0.265L29.43,21.87v-0.1l0.222-0.319l0.191-0.44
	l0.215-0.388l0.609-0.321l0.32-0.32l0.112-0.275l-0.323-0.022l-0.167,0.076l-0.502,0.369l-0.479,0.483l-0.342,0.154l-0.323,0.366
	l-0.173,0.085l-0.369,0.049l-0.125,0.1l0.154,0.187l-0.597,0.86l-0.368,0.43l-0.154-0.104l0.044-0.104l0.1-0.065l0.107-0.047
	l0.081-0.057l0.026-0.093l-0.033-0.096l-0.222-0.468l-0.036-0.155l0.041-0.16l0.067-0.146l0.036-0.151l-0.006-0.149l-0.064-0.146
	l0.138-0.276l0.123-0.367l0.087-0.39l0.032-0.343l-0.064-0.311l-0.154-0.303l-0.2-0.256l-0.184-0.172l-0.074,0.006l-0.071,0.064
	l-0.074,0.027l-0.081-0.098l-0.003-0.074l0.067-0.167l0.091-0.438l0.019-0.189l-0.054-0.171l-0.25-0.213l-0.566-0.073l-0.278-0.095
	l-0.242-0.248l-0.026-0.269l0.074-0.327l0.051-0.419l-0.109-0.36l-0.249-0.017l-0.277,0.157l-1.836,1.593l-0.303,0.153l-0.074,0.063
	l-0.219,0.463l-0.042,0.074L22.66,18.07l-0.386,0.661l-0.185,0.198l-0.112,0.043l-0.342,0.055l-0.436,0.191l-0.122,0.027
	l-0.536-0.127l-0.222,0.017l-0.251,0.22l-0.796,0.895l-0.89,0.682l-0.98,0.472l-4.333,0.535l-0.441,0.234l-1.996,1.878l-0.461,0.268
	l-1.936,0.637L7.66,25.322L7.528,25.36l-0.362,0.024L6.873,25.46l-0.275,0.133l-0.245,0.175l-0.035,0.076l0.055,0.301l0.048,0.162
	l0.044,0.065L6.54,26.42l0.122,0.021l0.09-0.008l0.084-0.03l0.19-0.123L7.1,26.27l0.078,0.044l0.108,0.229l0.062,0.071l0.213,0.043
	l0.1,0.04l0.103,0.107l0.09,0.068l0.129,0.045l0.107,0.011l0.109,0.036l0.107,0.075l0.142,0.167l0.135,0.193l0.109,0.261
	l0.188,0.448l0.287,0.686l0.181,0.432l0.086,0.317l0.033,0.081l0.061,0.071l0.307,0.087l0.115,0.031l0.323,0.091l0.506,0.141
	l0.652,0.182l0.774,0.214l0.863,0.24l0.922,0.258l0.955,0.264l0.952,0.265l0.922,0.256l0.865,0.239l0.775,0.214l0.654,0.183
	l0.502,0.139l0.326,0.091l0.113,0.03l0.39,0.106l0.226,0.132l0.649,0.372l0.647,0.372l0.645,0.372l0.649,0.37l0.264,0.15
	l0.141,0.019l0.085-0.004l0.161-0.031l0.074,0.001l0.078,0.034l0.081,0.077l0.109,0.023l0.091-0.005l0.229-0.086l0.083-0.014
	l0.1,0.012l0.114,0.038l0.168,0.09l0.248,0.079l0.371,0.197l0.125,0.03l0.094-0.011l0.239-0.188l0.071-0.02l0.08,0.01l0.081,0.021
	l0.086,0.007l0.075-0.021l0.135-0.078l0.073-0.021l0.084-0.009l0.087,0.012L27,34.697l0.116,0.069l0.181,0.142l0.106,0.029H27.5
	l0.068-0.024l0.08-0.003l0.085,0.032l0.373,0.208l0.107,0.021h0.09l0.229-0.066l0.094,0.018l0.1,0.059l0.278,0.227l0.064,0.025
	l0.187,0.034l0.381,0.006l0.09,0.016l0.086,0.034l0.195,0.111l0.18,0.07l0.093,0.014l0.091-0.003l0.163-0.028l0.088,0.002
	l0.08,0.033l0.285,0.232l0.071,0.042l0.17,0.062l0.1,0.066l0.088,0.108l0.279,0.633l0.042,0.116l-0.01,0.14l-0.039,0.089
	l-0.041,0.076L31.41,37.61l-0.042,0.076l-0.029,0.084l-0.003,0.104l0.029,0.112l0.106,0.146l0.083,0.08l0.165,0.097l0.162,0.068
	l0.184,0.046l0.09,0.006l0.175-0.021l0.225-0.071l0.062-0.001l0.049,0.021l0.029,0.024l0.132,0.178l0.048,0.053l0.059,0.05
	l0.07,0.042l0.181,0.053L33.66,38.8l0.085,0.024l0.071,0.044l0.062,0.047l0.048,0.058l0.126,0.193l0.055,0.054l0.261,0.188l0.11,0.1
	l0.135,0.184l0.151,0.163l0.064,0.091l0.02,0.048l-0.003,0.046l-0.029,0.089l-0.048,0.052l-0.117,0.102l-0.026,0.085l0.007,0.113
	l0.078,0.165l0.187,0.313l0.036,0.091l0.022,0.118l-0.003,0.204l-0.025,0.127l-0.043,0.093l-0.054,0.049l-0.068,0.034l-0.074,0.023
	l-0.051,0.062l-0.01,0.14l0.101,0.316l0.09,0.483l0.003,0.104l-0.006,0.053l-0.022,0.082l-0.062,0.155l-0.083,0.142l-0.046,0.066
	l-0.051,0.057l-0.361,0.274l-0.048,0.06l-0.029,0.092l-0.006,0.128l0.029,0.19l-0.007,0.127l-0.022,0.103l-0.129,0.332l-0.014,0.095
	l0.03,0.099l0.067,0.095l0.165,0.113l0.106,0.021l0.084-0.017l0.129-0.076l0.073-0.022l0.084,0.003l0.248,0.077l0.094,0.009
	l0.083-0.008l0.078-0.019l0.803-0.433l0.068-0.021l0.078,0.011l0.064,0.049l0.068,0.084l0.09,0.143l0.071,0.139l0.016,0.077
	l-0.005,0.081l-0.052,0.097l-0.164,0.187l-0.09,0.129l-0.275,0.626l-0.212,0.625l-0.042,0.194l-0.049,0.492l0.014,0.108l0.078,0.146
	l0.165,0.216l0.254,0.262l0.11,0.151l0.062,0.107l0.022,0.072l0.183,0.15l0.593,0.245l0.014-0.045l-0.097-0.688l0.036-0.324
	l0.473-0.271l2.355-3.585l0.058-0.17l0.071-0.378l0.058-0.146l0.213-0.241l0.09-0.13l0.194-0.748l0.122-0.236l0.381-0.598
	l0.255-0.27l0.428-0.914l0.2-0.169l0.475-0.165l0.19-0.153l0.158-0.499l0.029-0.034l0.067-0.693l0.161-0.616l0.149-0.314l0.18-0.135
	l0.09-0.175l0.204-0.8l0.125-0.221l0.188,0.003l0.065,0.166L43.98,36.64l-0.029,0.159l-0.088,0.209l-0.222,0.359l-0.064,0.178
	l0.003,0.28l0.068,0.223l0.09,0.187l0.064,0.174l0.021,0.265l-0.088,0.748l0.045,0.246l0.104,0.186l0.104,0.051l0.044-0.162
	l0.091-0.102l0.416-0.144l0.283-0.048l0.188-0.076l0.158-0.116l0.064-0.15l0.078-0.242l0.29-0.448v-0.233H45.594z M19.647,4.804
	l-0.103,0.1l-0.151,0.39l0.014,0.136l0.035,0.015l0.048-0.017l0.055,0.04l0.209,0.277l0.236,0.088l0.258-0.043l1.867-0.901
	l0.574-0.095v-0.11h-0.97l0.141-0.189l0.411-0.261l0.044-0.114l2.848-1.212l0.564-0.36l0.442-0.406l0.045-0.073L26.197,1.94
	L26.14,1.643L26.133,1.56l0.252-0.337l0.796-0.494l0.294-0.283l0.142-0.175l0.052-0.085l0.038-0.085l-0.123,0.163l-0.153,0.087
	l-0.32,0.095l0.047-0.136l0.085-0.117L27.475,0l-0.813,0.464l-0.229,0.204l-0.183-0.08l-0.353,0.158L25.76,0.668l-0.826,0.681V1.115
	l-0.349,0.354L24.07,1.856l-0.494,0.267l-0.29-0.006l-0.203,0.217l-0.275,0.173l-0.277,0.092l-0.216-0.036l-0.38,0.285L20.4,3.691
	L19.393,4.46l0.117,0.187l0.18-0.013l0.38-0.174v0.111L19.647,4.804z M77.745,35.336l0.042,0.008l0.049-0.186l0.109,0.049
	l0.111,0.147l0.065,0.102l0.076,0.087l0.265,0.185l0.064,0.174l0.002,0.03l0.072-0.009l0.116-0.079l0.046-0.018h0.404l0.109,0.048
	l0.123,0.098l0.123,0.063l0.097-0.045l0.25-0.238l0.235,0.005l0.453,0.291l0.258,0.098l0.322,0.036l0.305-0.043l0.199-0.148
	l0.381-0.849l0.035-0.172l-0.213-0.185l-0.275-0.059l-0.237-0.139l-0.104-0.423l-0.076-0.307l-0.19-0.221l-0.483-0.275l-0.696-0.042
	l-0.304,0.068l-0.01,0.236l0.133,0.1l0.16,0.032l0.116,0.089l0.004,0.267l-0.067,0.146L79.7,34.342l-0.265,0.103l-0.267,0.147
	l-0.128,0.049l-0.171,0.018l-0.078,0.067l-0.168,0.293L78.5,35.085l-0.202-0.133l-0.229-0.231l-0.231-0.079l-0.203,0.328
	l-0.024,0.227l0.058,0.107L77.745,35.336z M46.954,26.93l0.065,0.111l0.075,0.156l0.045,0.208l-0.014,0.109l0.007,0.06l0.11,0.064
	l0.068-0.006l0.031-0.17l0.055-0.04l0.058,0.036l0.058,0.073l0.036,0.073l-0.009,0.033l0.245,0.024l0.139-0.054l0.071-0.187
	l-0.048-0.19l-0.14-0.022l-0.161,0.029l-0.105-0.042V27.07l0.067-0.146l0.165-0.265l-0.113-0.322l-0.074-0.121l-0.113-0.088
	l-0.257-0.082l-0.204,0.073l-0.124,0.208l-0.019,0.332l0.032,0.157L46.954,26.93z M85.646,92.855l-0.174,0.828l-0.033,0.44
	l0.133,0.144l0.14-0.225l0.031-0.432l-0.015-0.85L85.646,92.855z M74.816,30.004l-0.174-0.197l-0.287,0.002l-0.084,0.124
	l-0.014,0.222l-0.064,0.288l0.207,0.293l0.192,0.369l0.228,0.216l0.31-0.174l0.062-0.338l-0.147-0.427L74.816,30.004z
	 M53.479,49.824l-0.086-0.062l-0.086-0.088l-0.199,0.067l-0.153,0.203l-0.074,0.257l0.052,0.218l0.238,0.146l0.193-0.173
	l0.164-0.293l0.154-0.225l-0.106-0.012L53.479,49.824z M54.77,48.713l0.032-0.198l-0.081-0.184l-0.136-0.121l-0.161-0.104
	l-0.145-0.128l-0.172,0.014l-0.119,0.111l-0.157,0.296l0.367,0.806l0.278,0.244l0.324-0.206l-0.152-0.146l0.031-0.183L54.77,48.713z
	 M71.992,38.174l-0.049-0.203l-0.16-0.204l-0.053,0.084l-0.02,0.197l-0.062,0.136l-0.112-0.007l-0.259-0.164l-0.719-0.182
	l-0.301-0.019l-0.254,0.158l0.15,0.179l0.52,0.47l0.365,0.438l0.156,0.104l0.193,0.058l0.229,0.021l0.228-0.019l0.176-0.06
	l0.136-0.145l0.2-0.44l0.119-0.171l-0.353-0.111L71.992,38.174z M93.661,80.602l-0.08-0.102l-0.082-0.227l-0.293-0.653l-0.108-0.138
	l-0.078-0.145l-0.551-2.605l-0.226-2.607l-0.354-1.164l-0.627-4.266l-0.391-0.877l-0.057-0.215l-0.037-0.311l-0.09-0.251
	l-0.58-0.908l-0.353-0.37l-0.403-0.307l-1.222-0.663l-0.274-0.04l-0.215,0.034l-0.547,0.183l-0.167,0.092l-0.387,0.451l-0.19,0.127
	l-0.365,0.045l-0.137,0.049l-0.252,0.211l-0.141,0.049l-0.785,0.023l-0.107,0.033l-0.09,0.061L84.38,66.21l-0.329,0.463
	l-0.053,0.104l-0.152,0.115l-0.973,0.146l0.206,0.071l0.223,0.007l0.196,0.043l0.128,0.188l-0.378,0.424l-0.204,0.281l-0.09,0.278
	l-0.074,0.338l-0.53,0.739l-0.234,0.654l-0.176,0.27l-0.217-0.045l-0.048-0.124l-0.05-0.169l-0.073-0.1l-0.133,0.084l-0.729,1.136
	l-0.383,0.415l-0.427,0.234l-0.444-0.086l-0.455-0.3l-0.555-0.163l-0.223-0.182l-0.542-0.211l-0.246-0.174l-0.231-0.293
	l-0.195-0.396l-0.065-0.424l0.153-0.386l0.035-0.149l-0.03-0.5l0.036-0.229l0.119-0.168l0.119-0.133l0.021-0.135l-0.19-0.184
	l0.391-1.172l0.291-0.477l0.451-0.218l0.129,0.013l0.242,0.082l0.145,0.01l0.105-0.041l0.185-0.138l0.123-0.028l0.112,0.016
	l0.213,0.072l0.123,0.016l0.063-0.081l0.078-0.396l0.048-0.146l0.203-0.122l0.538-0.023l0.197-0.117l0.028-0.155l-0.021-0.188
	l0.015-0.154l0.121-0.065l0.075-0.073l0.028-0.177l0.061-1.067l0.11-0.666l0.235-0.535l0.426-0.299l0.109-0.015l0.338,0.015
	l-0.035,0.09l-0.072,0.234l-0.04,0.092l0.151-0.146l0.494-0.647l0.105-0.193l0.064-0.051l0.312-0.008l0.104-0.039l0.17-0.244
	l0.053-0.129l0.048-0.205l0.078-0.615l0.075-3.303l0.047-0.323l0.207-0.554l0.039-0.336l-0.023-0.326l-0.107-0.623l-0.043-0.728
	l-0.059-0.312l-0.091-0.277l-0.123-0.254l-0.028-0.091l-0.017-0.15l-0.034-0.073l-0.072-0.066l-0.181-0.1l-0.2-0.229l-0.305-0.216
	l-0.137-0.135l-0.117-0.146l-0.067-0.111l-0.032-0.149l-0.009-0.271l-0.034-0.105l-0.078-0.069l-0.082-0.048L82.27,50.62
	l0.006-0.144l0.056-0.057l0.065-0.048l0.027-0.116l0.021-0.391l0.101-0.281l0.218-0.17l0.375-0.056l0.103,0.064l0.241,0.322
	l0.144,0.129l0.176,0.074l0.185,0.033l0.395,0.009l-0.104-0.271l-0.414-0.211l-0.086-0.361l0.031,0.006l0.078-0.01l0.077-0.035
	l0.034-0.076l-0.01-0.102l-0.024-0.066l-0.026-0.047l-0.014-0.043l-0.012-0.153l-0.084-0.396l-0.051-0.131l-0.111-0.064
	l-0.146-0.032l-0.134-0.05l-0.057-0.116l-0.308-0.485l-0.192-0.43L82.8,46.766l0.022-0.179l0.061-0.106l0.219-0.2l-0.422-0.502
	l-0.468-0.425l-0.489-0.307l-0.49-0.133l-0.377,0.023l-0.152-0.023l-0.438-0.194l-0.158-0.025l-0.181-0.085l-0.28-0.407
	l-0.209-0.145l-0.123-0.023l-0.399,0.023l-0.151-0.034l-0.308-0.145l-0.38-0.115l-0.209-0.203l-0.375-0.457l-0.496-0.267
	l-1.674-0.051l-0.215-0.114l-0.17-0.234l-0.105-0.285l-0.039-0.272l-0.059-0.244l-0.143-0.249l-0.322-0.425l-0.345-0.322
	l-0.491-0.291l-0.537-0.197L72.4,40.112l-1.036,0.089l-0.44-0.166L70.08,39.27l-1.424-0.756l-0.354-0.329l-0.176-0.072l-0.217,0.072
	l-0.119,0.143l-0.077,0.169L67.6,38.645l-0.22,0.083l-1.456-0.068l-0.414-0.146v0.106l0.155,0.134l0.378,0.41l0.032,0.086
	l-0.138,0.093l-0.429,0.664l-0.651,0.498l-0.309,0.31l-0.232,0.477l-0.076,0.572l0.07,0.572l0.164,0.506l0.213,0.366l0.342,0.379
	l0.187,0.118l0.994,0.155l0.21,0.099l-0.271,0.414L65.6,44.677l-0.608,0.053l-0.97-0.066l-0.482,0.1l-1.745,0.952l-0.364,0.342
	L61.168,46.5l-0.084,0.581l0.232,1.949l-0.16,1.403l-0.344,1.231l-0.486,1.1l-0.723,1.289l-0.095,0.11l-0.132,0.032l-0.113-0.062
	l-0.046-0.114l0.027-0.143l0.157-0.275l0.031-0.16l0.01-0.348l0.043-0.105l0.258-0.271l0.133-0.281l0.094-0.319l0.055-0.347
	l0.017-0.358l0.026-0.175l0.104-0.189l0.022-0.16l-0.049-0.193l-0.114-0.118l-0.152-0.03l-0.136,0.075l-0.061,0.146l-0.045,0.233
	l-0.047,0.413l-0.037,0.181l-0.098,0.142l-0.236,0.263l0.088,0.014l0.209,0.101l-0.093,0.144l-0.239,0.187l-0.043,0.129
	l-0.054,0.451l-0.06,0.231l-0.149,0.224l-0.032,0.234l-0.068,0.15l-0.195-0.129l-0.088-0.147l-0.189-0.444l-0.068-0.309l0.156-0.471
	l0.42-0.992l0.047-0.223l-0.012-0.209l-0.07-0.164l-0.096-0.041l-0.289,0.109l0.088-0.273l0.156-0.354l0.196-0.31l0.201-0.133
	l0.084-0.125l-0.071-0.29l-0.199-0.534l0.002-0.451l0.162-0.158l0.19-0.051l0.092-0.125l0.081-0.25l0.137-0.277l0.028-0.21
	l-0.246-0.049l-0.3,0.308l-0.157,0.021l-0.146-0.011l-0.129,0.023l-0.133,0.13l-0.561,1.1l-0.167,0.214l-0.478,0.459l-0.102,0.133
	l-0.059,0.269l-0.574,1.231l-0.133,0.168l-0.17,0.072l-0.188-0.067l-0.33-0.295l-0.161-0.068l-0.081-0.015l-0.138-0.065
	l-0.084-0.015L55.1,50.872l-0.031,0.076l-0.008,0.099l-0.035,0.098l-0.381,0.629l-0.133,0.117l-0.092,0.004l-0.079-0.039
	l-0.067-0.047l-0.062-0.023h-0.343l-0.184,0.086l-0.045,0.209l0.041,0.486l-0.142,1.373l0.067,0.258l-0.099,0.182l-0.116,0.094
	l-0.141,0.034l-0.175,0.015l-0.104-0.016L52.79,54.42l-0.086-0.014l-0.075,0.041l-0.177,0.146l-0.404,0.132l-0.309,0.268
	l-0.165,0.382l0.119,0.455l0.188,0.369l0.084,0.375l-0.003,0.38l-0.196,1.013l-0.07,0.169l-0.057,0.188l-0.002,0.485l-0.053,0.209
	l0.159,0.496l-0.146,0.65l-0.266,0.602l-0.497,0.904l-0.48,1.18L50.013,63.4l-0.831,0.746l-0.324,0.447l-0.038,0.575l0.112,0.247
	l0.333,0.455l0.125,0.327l0.11,0.14l0.075,0.151l-0.097,0.345l0.015,0.173l0.072,0.236l0.183,1.301L49.69,69.1l-0.274,0.515
	l-0.599,0.784l-0.193,0.485l-0.036,0.591l0.08,0.328l0.243,0.535l0.093,0.46l1.623,4.218l0.206,0.219l0.14-0.164l0.758-0.244
	l-0.064,0.201l-0.168,0.203l-0.21,0.154l-0.187,0.063l-0.156,0.093l0.033,0.232l0.563,1.549l0.095,0.592l0.118,0.365l0.149,0.337
	l0.129,0.188l0.007,0.062l-0.011,0.039l-0.021,0.012h0.023l-0.036,0.011h-0.028l-0.014,0.02l0.004,0.062l0.132,0.386l0.035,3.781
	l-0.591,3.514l-0.318,1.105l-0.836,2.086l-1.241,1.844l-1.206,2.774l-0.585,0.94l-0.706,0.752l-0.651,0.377l-0.104,0.164
	l-0.124,0.149l-0.458,0.257h0.324l1.695,0.002h0.849h1.693l1.696,0.002h0.848h0.852l0.848,0.002h0.845l0.847,0.002h0.85h0.85h0.848
	l0.846,0.002h0.848h0.85h0.849h1.692l0.849,0.002h0.849h0.85h0.847l0.847,0.002V100l0.911-0.032l0.909-0.036l0.91-0.033l1.816-0.068
	l0.91-0.035l0.909-0.036l0.91-0.032l0.909-0.035l1.818-0.069l0.91-0.033l1.816-0.069l0.912-0.035l0.893-0.034L82.2,99.338
	l0.042-0.193l0.1-0.117l0.124-0.025l0.108,0.082h0.08l0.008-0.391l0.036-0.293l0.087-0.252l0.457-0.729l0.186-0.176l0.196,0.035
	l0.104-0.405l0.182-0.299l0.244-0.12l0.297,0.136l0.068-0.182l0.008-0.192l-0.045-0.183l-0.104-0.153l0.326-0.04l0.17-0.132
	l0.242-0.637l0.054,0.109l0.049,0.074l0.127,0.125l-0.043-0.105l-0.016-0.084L85.27,94.98l-0.031-0.101l-0.102-0.147l-0.021-0.062
	l0.024-0.206l0.062-0.127l0.038-0.107l-0.044-0.149l0.047-0.067l0.102-0.234l0.352-1.567l0.228-0.521l0.476-0.6l0.218-0.27
	l0.213-0.197l0.687-0.275l0.35-0.059l0.105-0.042l0.155-0.118l0.196-0.199l0.174-0.229l0.07-0.213l0.023-0.188l0.098-0.286
	l0.026-0.178l-0.016-0.15L88.6,88.479l-0.033-0.151l0.024-0.287l0.079-0.335l0.113-0.279l0.119-0.115l0.484-0.203l0.145-0.035
	l0.109-0.008L89.721,87l0.049-0.2l-0.265-0.164l-0.181-0.311l-0.008-0.302l0.259-0.133l0.269-0.063l0.209-0.156l0.206-0.198
	l0.255-0.188l0.137,0.102l0.461,0.203l0.211,0.001v0.182l-0.09,0.213l-0.053,0.211l0.062,0.104l0.104,0.104l0.043,0.152L91.262,86.8
	l0.223,0.248l0.08,0.056l-0.307,0.16l-0.083,0.101l0.001,0.051l0.389-0.049l0.354-0.158l0.292-0.284l0.251-0.428l0.164-0.396
	l0.304-1.076L93,84.398l0.062-0.272l0.004-0.158l-0.029-0.112l-0.128-0.304l0.032-0.245l0.156-0.43l0.036-0.291l0.127-0.525
	l0.248-0.479l0.173-0.476L93.661,80.602z M55.939,43.467l-0.051-0.036l-0.05,0.008l-0.062,0.08l0.475,0.822l0.087,0.088l0.067-0.27
	l-0.086-0.256l-0.16-0.223L55.939,43.467z M59.998,38.819l0.119-0.093l-0.176-0.078l-0.387-0.056l-0.178-0.08l-0.006,0.291
	l-0.021,0.198l-0.051,0.167l-0.076,0.197L59.13,39.53l-0.101,0.143l-0.08,0.16l-0.122,0.67l-0.159,0.311l-0.051,0.251l0.229,0.278
	l0.342,0.088l0.399-0.106l0.349-0.248l0.182-0.327v-0.23l-0.109-0.435l-0.031-0.244l0.019-0.173l0.032-0.167l0.007-0.165
	l-0.058-0.173l-0.061-0.126l0.014-0.113L59.998,38.819z M60.381,38.301l0.064-0.023l0.061-0.055l0.051-0.07l0.021-0.064
	l-0.015-0.113L60.5,37.969l-0.084,0.023l-0.076-0.021l-0.163-0.163l-0.202-0.157l-0.041-0.021l-0.037-0.005l-0.035-0.02
	l-0.034-0.062l-0.043,0.324l0.132,0.237l0.229,0.146L60.381,38.301z"/>
</svg>
