<?xml version="1.0" encoding="utf-8"?>
<!-- Generator: Adobe Illustrator 16.0.4, SVG Export Plug-In . SVG Version: 6.00 Build 0)  -->
<!DOCTYPE svg PUBLIC "-//W3C//DTD SVG 1.1//EN" "http://www.w3.org/Graphics/SVG/1.1/DTD/svg11.dtd">
<svg version="1.1" id="Layer_1" xmlns="http://www.w3.org/2000/svg" xmlns:xlink="http://www.w3.org/1999/xlink" x="0px" y="0px"
	 width="100px" height="100px" viewBox="0 0 100 100" enable-background="new 0 0 100 100" xml:space="preserve">
<path fill="#555555" d="M94.086,24.189l-0.262-0.012l-0.398,0.093l-0.14-0.044l-0.249-0.138l-0.205-0.062l-0.209,0.003l-0.264,0.06
	l-1.168,0.488L90.98,24.55l-0.701-0.396l-0.178-0.15L89.95,23.81l-0.622-1.076l-0.143-0.18l-0.557-0.248l-0.686-0.019l-3.434,0.467
	l-0.086-0.028l-0.066-0.053l-0.08-0.031l-0.135,0.035l-0.352,0.17l-0.121,0.015l-0.236-0.09l-0.139-0.159l-0.152-0.122l-0.285,0.024
	l-1.062,0.332l-0.576,0.01l-0.424-0.289l-0.121-0.291l-0.072-0.529l-0.111-0.243l-0.135-0.129l-0.123-0.06l-0.101-0.094l-0.08-0.22
	l0.011-0.163l0.129-0.206l-0.035-0.17l-0.389-0.249l-0.578,0.126l-1.002,0.577l-0.235,0.167l-0.503,0.247l-1.562,1.11l-0.402,0.438
	l-0.448,0.315l-1.05,0.121l-0.735,0.373l-0.215-0.074l-0.218-0.144l-0.262-0.079l-1.031,0.092l-0.146-0.076l0.023-0.145l0.064-0.179
	l-0.02-0.175l-0.1-0.131l-0.092-0.035l-0.249,0.015l-0.868-0.146l-0.281-0.249l0.246-0.447l-0.379-0.541l-0.193-0.198l-0.247-0.136
	l-1.024-0.15l-1.234-0.57l-0.217-0.145l-0.192-0.199l-0.188-0.258l-0.156-0.439l-0.101-0.454l-0.159-0.377l-0.314-0.215l-0.994-0.06
	l-1.227,0.185l-0.264,0.14l-0.254,0.367l0.02,0.358l0.108,0.357l0.015,0.366l-0.148,0.18l-0.285,0.173l-0.305,0.117L62.15,20.42
	L62,20.247l-0.396-0.873l-0.389-0.541l-0.132-0.291l-0.058-0.424l-0.002-0.726l-0.084-0.286l-0.19-0.399l-0.424-0.221l-0.513-0.02
	l-1.02,0.149l-0.236-0.062l-0.314-0.06l-0.178-0.26l0.098-0.409l0.229-0.123l0.524-0.134l0.226-0.094l-0.031-0.297l-0.215-0.296
	l-0.906-0.221l-1.864-0.553l-0.841-0.574l-0.284-0.096c-1.091-0.076-2.181-0.151-3.271-0.226l-1.505,0.275l-0.37,0.189l-0.403,0.119
	l-0.027,0.186l0.017,0.253l-0.09,0.272l-0.371,0.266l-0.883,0.072l-0.393,0.21l-0.19-0.087l-1.652,0.261l-0.257-0.052l-0.362-0.426
	l-0.312-1.306l-0.458-0.337c-1.401-0.094-2.803-0.188-4.203-0.281l-0.221-0.094l-0.019-0.091l-0.039-0.373l-0.03-0.132l-0.083-0.122
	L39.77,11.9l-0.111-0.089l-0.101-0.051l-0.223-0.035l-1.976,0.234l-0.466-0.066l-0.868-0.391l-1.129-0.934l-0.152-0.199
	l-0.108-0.311l-0.027-0.289l0.015-0.333c0.004-0.43,0.007-0.858,0.011-1.287C34.318,6.885,34,5.623,33.683,4.36l-0.138-0.35
	l-0.09-0.362l0.062-0.796l-0.053-0.335l-0.11-0.403L33.268,1.38l-0.139-0.289l-0.201-0.168l-0.823-0.492L31.442,0.24l-1.418,0.04
	L29.347,0c0.008,2.14,0.01,4.28,0.014,6.42L29.33,6.609l-0.076,0.109L29.153,6.76H5.06v0.004L5.022,7.198l0.094,0.291l0.12,0.279
	C5.269,7.967,5.3,8.165,5.331,8.363L5.4,8.526l0.08,0.15l0.062,0.16l0.086,0.62l0.349,0.957l0.086,0.689L6.16,11.4l0.272,0.607
	l0.1,0.854L6.286,13.54l-0.312,0.64L5.87,14.926l0.277,1.027l0.062,0.56l0.065,0.282l-0.011,0.196L6.21,17.185l-0.143,0.318
	l-0.042,0.211l0.204,1.153l0.08,0.249l0.057,0.277l-0.174,1.221l0.003,0.728l0.091,0.665l0.185,0.632l0.513,1.293l0.132,0.652
	l0.191,0.594l0.409,0.49l-0.17,0.417l0.031,0.397l0.303,0.856v0.102l-0.065,0.13l0.023,0.078l0.042,0.034l0.042,0.016l0.031,0.02
	l0.013,0.043l0.042,0.069l0.277,0.354l0.091,0.219l0.146,0.615l0.155,0.353l0.16,0.271l0.121,0.303l0.069,0.617l0.143,0.479
	l0.188,0.158l0.054,0.091l0.003,0.11l-0.032,0.098L9.346,31.58l-0.015,0.063l0.015,0.417l-0.021,0.345l0.011,0.307l0.115,0.296
	v0.252l-0.188,0.877l-0.005,0.36l0.06,0.086l0.104,0.122l0.104,0.148l0.045,0.173l-0.086,2.199l0.039,0.39L9.7,38.453l0.04,0.368
	l-0.02,0.132L9.681,39.1l-0.03,0.172v0.202l0.162,0.707l0.011,0.343l-0.084,1.13l0.025,0.227l0.062,0.155l0.146,0.27l0.042,0.226
	l0.006,0.127l-0.048-0.001l0.062,0.046l0.139,0.04l0.119,0.088l0.139,0.04l0.072,0.074l0.045,0.107l-0.021,0.077l-0.042,0.075
	l-0.062,0.275l-0.166,0.235l-0.038,0.177l0.017,0.58L10.22,44.66l-0.031,0.117l-0.107,0.284l-0.028,0.172l0.035,0.269l0.166,0.6
	l0.039,0.375l-0.042,0.384l-0.143,0.595l0.023,0.367l0.119,0.237l0.371,0.536l0.08,0.335l0.069,0.632l0.011,0.361l-0.08,0.345
	l0.065,0.122l0.191,0.223l0.073,0.132l0.017,0.127l-0.004,0.15l0.021,0.17l0.077,0.187l0.683,1.108l0.403,0.464l0.174,0.292
	l0.073,0.359l-0.027,1.1l0.027,0.343l0.038,0.183l0.053,0.145l0.271,0.459l0.004,0.109l-0.025,0.129l-0.017,0.195l0.051,0.096
	l0.08,0.627l-0.003,0.215l-0.083,0.472l-0.139,0.376l-0.004,0.399l0.232,1.262l-0.073,0.175l-0.038,0.064l-0.042,0.09l-0.031,0.087
	l-0.104,1.026l-0.079,0.291l-0.237,0.437l-0.354,0.83l-0.042,0.075l-0.094,0.134l-0.114,0.119l-0.316,0.258l-0.854,0.503
	l-0.121,0.107l-0.271,0.311L9.72,64.543L9.612,64.63l-0.087,0.104L9.38,65.088l-0.05,0.354l0.312,0.422l0.58,0.678l0.239,0.389
	l0.428,1.014l0.261,0.496l0.236,0.211l0.931,0.104l0.499,0.155l0.344,0.255l0.129,0.146l0.277,0.241l0.115,0.124l0.323,0.629
	l0.08,0.17l0.059,0.051c0,2.355,0.003,4.711,0.003,7.066V100c3.129,0,6.257,0,9.385-0.002c3.232-0.001,6.465-0.001,9.697-0.001
	c3.027,0,6.055-0.002,9.082-0.002c3.309,0,6.617-0.002,9.926-0.002c2.957,0,5.912-0.003,8.869-0.003c3.356,0,6.715,0,10.072-0.004
	c1.391,0,2.78,0,4.172,0l0.065-0.379l0.021-0.203l-0.017-0.215l-0.069-0.416l-0.008-0.217l0.051-0.507l-0.009-0.172l-0.087-0.431
	L75.295,97.3l0.143-0.88v-0.307l-0.035-0.318l-0.039-0.148l-0.073-0.123l-0.164-0.194l-0.062-0.114l-0.047-0.137l-0.023-0.141
	l-0.008-0.141l0.029-0.477l-0.012-0.373l-0.056-0.395l-0.05-0.185l-0.074-0.16l-0.119-0.128l-0.155-0.1l-0.504-0.193l-0.091-0.214
	l-0.271-0.351l-0.088-0.229l-0.021-0.123l-0.026-0.106l-0.05-0.093l-0.076-0.08l-0.144-0.069l-0.43-0.033l-0.102-0.032l-0.086-0.049
	l-0.667-0.558l-0.065-0.031l-1.139-0.002l-0.146-0.043L70.5,90.695l-1.361-1.247l-0.457-0.214l-0.232-0.312l-0.887-1.752
	l-0.444-0.768l-1.795-1.659l-0.628-0.239l-1.371-0.234l-0.157-0.078l-0.125-0.14l-0.101-0.183l-0.303-0.707l-0.342-0.439
	l-0.398-0.324l-0.414-0.159l-1.828-0.308l-0.512-0.32l-0.052-0.104l-0.057-0.155l-0.071-0.141l-0.209-0.143l-0.826-0.846
	l-0.727-0.478l-0.314-0.285l0.484-1.03l0.077-0.447l-0.009-0.199l-0.07-0.533l0.037-0.18l0.164-0.28l0.037-0.104l-0.053-0.711
	l-0.106-0.703l-0.281-0.744l-0.077-0.366l0.16-0.156l0.24-0.088l0.152-0.231l0.068-0.326l-0.018-0.375l-0.201-0.559l-0.055-0.086
	l0.024-0.195l0.072-0.349l0.014-0.741l0.05-0.31l0.096-0.272l0.164-0.203l0.186-0.155l0.152-0.191
	c0.047-0.229,0.094-0.46,0.142-0.688l0.343-0.572l0.051-0.303l-0.056-0.316l-0.168-0.264l-0.215-0.229l-0.201-0.271l-0.09-0.243
	l-0.17-0.644l-0.138-0.254l-0.45-0.178l-0.591,0.016l-0.514-0.123l-0.217-0.588l0.081-1.271l0.042-0.281l0.107-0.204l1.021-0.998
	l0.327-0.498l-0.053-0.492l0.473-0.908l0.327-0.42l0.367-0.176l0.215-0.057l0.632-0.404l0.307-0.051l0.098-0.054l0.056-0.072
	l0.14-0.231l0.014-0.051l0.046-0.037l0.065-0.08l0.094-0.078l0.111-0.035h0.485l0.174-0.096l0.263-0.444l0.174-0.152l0.209,0.015
	l0.296,0.065l0.265,0.013l0.113-0.144l0.053-0.231l0.133-0.229l0.159-0.188l0.146-0.108l0.229-0.05c0-3.164,0.011-6.329,0.011-9.494
	v-0.297l0.027-0.057l0.053,0.008l0.17,0.065l0.213,0.018l0.201-0.015l0.17-0.046l0.062-0.043l0.042-0.052l0.023-0.047l0.031-0.074
	l0.055-0.436l0.021-0.105l0.04-0.088l0.05-0.07l0.059-0.055l0.07-0.032l0.191-0.052l0.062-0.045l0.041-0.065l0.098-0.289
	l0.095-0.155l0.19-0.144l0.156-0.079l-0.035-0.072l0.224-0.542l0.555-0.516l1.075-0.708l0.695-0.619l0.443-0.159l0.723-0.5
	l0.619-0.734l0.398-0.179l0.67-0.517l0.066-0.104l0.121-0.261l0.06-0.095l0.121-0.068l0.159-0.057l0.14-0.101l0.063-0.201
	l0.127-0.203l0.835-0.439l5.864-6.415l0.742-0.338l1.854-1.801l3.046-1.664l1.605-0.529l0.592-0.076l0.201-0.066l0.481-0.305
	l2.379-0.764l4.024-2.087l0.216-0.188l0.375-0.44l0.327-0.161l0.197-0.33l0.143-0.074l0.347,0.129l0.195,0.016l0.104-0.104
	l-0.146-0.004L94.086,24.189z"/>
</svg>
