<?xml version="1.0" encoding="utf-8"?>
<!-- Generator: Adobe Illustrator 16.0.4, SVG Export Plug-In . SVG Version: 6.00 Build 0)  -->
<!DOCTYPE svg PUBLIC "-//W3C//DTD SVG 1.1//EN" "http://www.w3.org/Graphics/SVG/1.1/DTD/svg11.dtd">
<svg version="1.1" id="Layer_1" xmlns="http://www.w3.org/2000/svg" xmlns:xlink="http://www.w3.org/1999/xlink" x="0px" y="0px"
	 width="100px" height="100px" viewBox="0 0 100 100" enable-background="new 0 0 100 100" xml:space="preserve">
<path fill="#555555" d="M99.932,75.762l-0.3-0.132l-0.144,0.034l-0.176,0.076l-0.188,0.05l-0.169-0.046l-0.138-0.163l-0.059-0.195
	l-0.035-0.208l-0.074-0.201l-0.116-0.129l-0.31-0.188l-0.139-0.13l-0.049-0.164l-0.064-0.448l-0.099-0.094L97.52,73.82l-0.274,0.043
	l-0.104,0.185l0.166,0.42l0.133,0.161l0.138,0.109l0.106,0.154l0.043,0.285l-0.074,0.193h-0.178l-0.607-0.258l-0.754-0.62
	l-0.245-0.285l0.103-0.541l-0.217-0.535l-0.6-0.844l-0.346-0.616l-0.121-0.309l-0.047-0.313l0.025-0.243l-0.24-0.199l-0.129-0.071
	l-0.296-0.11l-0.082-0.074l0.005-0.729l0.44-0.531l0.528-0.521l0.26-0.676l-0.15-0.789l-0.355-0.651l-0.41-0.603l-0.316-0.656
	l-0.051-0.383l0.04-0.346l0.075-0.32l0.039-0.318l-0.06-0.336l-0.104-0.348l-0.049-0.312l0.108-0.229l-0.396-0.354l-1.459-0.681
	l-0.332-0.396l-0.431-1.036l-0.368-0.529l-0.367-0.256l-0.928-0.399l-0.354-0.241l-0.854-0.898l-0.513-0.395
	c-0.228-0.066-0.452-0.133-0.679-0.195L86.68,57.23l-0.232-0.146l-0.824-0.714l-0.533-0.168l-0.406-0.396l-0.363-0.475l-0.393-0.398
	L83.37,54.6l-0.263-0.227L83,54.085l-0.1-0.17l-0.422-0.438l-0.099-0.178l-0.828-0.718l-0.125-0.179l-0.102-0.195l-0.093-0.23
	l-0.08-0.297l-0.139-0.879l0.062-0.709l0.225-0.604l0.725-1.19l0.769-2.128l0.755-1.224l0.258-0.601l0.014-0.79l-0.076-0.772
	l0.039-0.473l0.195-0.209l0.217-0.188l0.285-0.43L84.732,41l0.11-0.342L84.6,40.147l-0.599-0.497l-1.481-0.841l-0.764-0.225
	l-0.352-0.038l-0.278-0.071l-0.515-0.339l-0.289-0.116l-0.764,0.165l-0.943,1.249l-0.653,0.306l-0.621-0.237l-0.465-0.588
	l-0.681-1.433l0.07-0.238l-0.017-0.321l-0.085-0.319l-0.115-0.233l-0.093-0.256l0.062-0.238l0.115-0.223l0.062-0.211l-0.059-0.211
	l-0.271-0.419l-0.08-0.236l-0.011-0.262l0.029-0.533l-0.02-0.261l-0.104-0.377l-0.173-0.418l-0.385-0.716l-0.353-0.467l-0.336-0.328
	l-3.475-2.561L70.74,28.42l-0.094-0.264l-0.071-0.416l-0.177-0.362l-0.235-0.292l-3.771-3.455l-0.3-0.483l-0.187-0.657l-0.025-0.458
	l-0.035-0.205l-0.094-0.199l-0.412-0.392l-0.098-0.258l-0.199-0.231l-0.066-0.132l-0.015-0.226l0.125-0.572l0.009-0.477
	l-0.021-0.177l-0.049-0.152l-0.066-0.141l-0.09-0.138l-0.258-0.315l-0.202-0.314l-0.081-0.297l-0.398-3.235l0.014-0.908l0.104-0.805
	l0.23-1.002l0.346-0.88l0.466-0.42h0.003l-0.158-0.159l-0.435-0.171l-0.187-0.135l-0.547-0.554l-0.129-0.189l0.041-0.131
	l-0.005-0.135l-0.044-0.137l-0.094-0.135l-0.131-0.094l-0.301-0.136l-0.133-0.106l-0.045-0.098L62.9,8.267l-0.041-0.09l-0.094-0.039
	l-0.164,0.006l-0.074-0.019L62.461,8.07l-0.062-0.116l-0.065-0.277l-0.031-0.076L61.948,7.36l-0.324-0.083L61.48,7.184l-0.104-0.139
	l-0.067-0.149l-0.029-0.189l-0.01-0.256l-0.062-0.118l-0.276-0.19l-0.063-0.102L60.734,5.75c-2.672,0-5.346,0.038-8.02,0.058
	c-2.885,0.021-5.77,0.044-8.655,0.067c-2.885,0.022-5.77,0.044-8.655,0.066c-3.106,0.024-6.212,0.047-9.319,0.071
	c-2.706,0.021-5.413,0.043-8.119,0.063c-3.133,0.023-6.266,0.047-9.399,0.071C5.76,6.169,2.951,6.201,0.142,6.211L0.138,6.208H0.08
	L0,6.721l0.07,0.507l0.196,0.183l0.297,0.058l0.36,0.134l0.23,0.225l0.018,0.214L1.113,8.271l0.013,0.272l0.138,0.291L1.53,9.166
	l0.112,0.319l0.004,0.118L1.623,9.891l0.019,0.143l0.061,0.154l0.245,0.37l0.177,0.593l0.041,0.077l-0.08,0.141L1.948,11.5
	l-0.196,0.143l0.098,0.259l0.245,0.037l0.307-0.045l0.275,0.017l0.266,0.185l0.155,0.242l0.125,0.266l0.182,0.257l0.222,0.116
	l0.545,0.042l0.257,0.1l0.164,0.217l-0.017,0.241l-0.25,0.489l0.422,0.517l0.208,0.333l0.089,0.287l0.457,0.468l0.048,0.091
	L5.493,15.97l-0.152,0.37l-0.066,0.433l0.037,0.342l0.167,0.224l0.7,0.135l0.263,0.146c0.422,0.386,0.841,0.775,1.26,1.163
	l0.193,0.303l0.17,0.05l0.19,0.031l0.134,0.062l0.097,0.166l0.058,0.164L8.617,19.7l0.133,0.119l0.128,0.04l0.314,0.036l0.173,0.07
	l0.164,0.124l0.4,0.469l0.315,0.155l0.354-0.093l0.311-0.207l0.452-0.397l0.227-0.125l0.257-0.056l0.354-0.015l0.195,0.102
	l0.104,0.232l-0.01,0.269l-0.128,0.195l0.222,0.273l0.661,0.4l0.142,0.199l-0.016,0.2l-0.072,0.382l-0.014,0.222l0.053,0.239
	l0.112,0.137l0.084,0.135l-0.035,0.22l-0.24,0.244l-0.333-0.027l-0.723-0.217l-0.125,0.066l-0.079,0.161l-0.044,0.195l-0.044,0.477
	l-0.089,0.122l-0.128,0.063l-0.166,0.111l-0.478,0.483l-0.241,0.33l-0.103,0.333l0.019,0.421l-0.014,0.215l-0.053,0.161
	l-0.168,0.111l-0.399,0.024l-0.111,0.057L9.956,26.75l0.173,0.392l0.271,0.3l0.257,0.118l0.093,0.147l0.333,0.69l0.147,0.223
	l0.12,0.076l0.275,0.127l0.63,0.456l0.058,0.117l0.081,0.307l0.071,0.106l0.66,0.144l-0.133,0.353l0.114,0.771l0.329,0.77
	L13.95,32.2l0.146,0.186l0.018,0.407l0.063,0.409l0.287,0.186l0.303,0.093l0.665,0.444l0.333,0.135l0.466-0.019l0.221,0.025
	l0.151-0.012l0.075,0.006l0.076,0.058l0.035,0.169l0.049,0.035l0.355,0.03l0.249,0.095l0.031,0.162l-0.213,0.229l0.017,0.031v0.056
	l0.019,0.067l0.065,0.025v14.24c0,3.072-0.004,6.146-0.004,9.22v17.213c0,3.012-0.004,6.021-0.004,9.031h66.971l0.016,0.043
	l0.033,0.039l0.075,0.151l0.147,0.418l0.041,0.062l0.062,0.059l0.076,0.046l0.052,0.052l0.026,0.067l0.014,0.084l0.018,0.298
	l0.016,0.102l0.021,0.098l0.04,0.08l0.062,0.07l0.498,0.307l0.07,0.058l0.065,0.065l0.059,0.072l0.044,0.078l0.031,0.086l0.021,0.1
	v0.109l-0.008,0.115l-0.099,0.438l-0.011,0.115l0.072,0.549l-0.004,0.1l-0.019,0.092l-0.036,0.09l-0.035,0.081l-0.058,0.08
	l-0.062,0.062l-0.07,0.058l-0.08,0.04L85.021,89.2l-0.069,0.05l-0.054,0.066L84.866,89.4l-0.056,0.369l-0.035,0.094l-0.045,0.09
	l-0.054,0.07l-0.071,0.058l-0.471,0.267l-0.343,0.141l-0.19,0.056l-0.08,0.039l-0.148,0.103l-0.062,0.064l-0.055,0.08l-0.033,0.089
	l-0.024,0.093l-0.021,0.164l-0.022,0.102l-0.035,0.099l-0.039,0.088l-0.059,0.077l-0.065,0.052l-0.08,0.046l-0.085,0.035
	l-0.303,0.07l-0.078,0.035l-0.071,0.053L82.281,91.9l-0.102,0.15l-0.179,0.198l-0.248,0.423l-0.144,0.188l-0.531,1.031l-0.049,0.178
	l0.004,0.082l0.023,0.074l0.092,0.025c0.338-0.008,0.676-0.016,1.014-0.023c2.879-0.066,5.758-0.158,8.636-0.244h0.086l0.026,0.008
	l0.119-0.637l0.461-0.768l0.062-0.307l0.102-0.178l0.244-0.18l0.289-0.152l0.237-0.058l0.134-0.338l-0.396-0.755l-0.813-1.196
	l0.269-0.094l1.397-0.054l0.188-0.049l0.15-0.117l0.059-0.207l-0.151-0.117l-0.372-0.127l-0.287-0.27l-0.223-0.382l-0.036-0.342
	l0.288-0.147l0.391,0.006l0.354-0.049l0.274-0.185l0.16-0.406l-0.05-0.422l-0.331-0.769l0.026-0.289l0.101-0.346l-0.123-0.27
	l-0.062-0.078l-0.138-0.156L93.1,84.318l0.125-0.651l0.492-0.213l0.514,0.248l0.195,0.743c-0.037,0.135-0.076,0.269-0.113,0.402
	l-0.144,0.371l0.026,0.274l0.391,0.106l0.193-0.103l0.25-0.239l0.337-0.419c0.041-0.104,0.081-0.211,0.12-0.315l0.238-0.871
	l0.041-0.289l0.219-0.696l0.146-0.323l0.093-0.107l0.17-0.094l0.357,0.33l0.363,0.428l0.396,0.373l0.472,0.158l0.402-0.216
	l0.315-0.504l0.372-1.073l0.599-1.297l0.116-0.492l-0.023-0.416l-0.226-0.656l-0.058-0.393l0.062-0.221l0.133-0.195l0.147-0.164
	l0.078-0.123l0.022-0.183l-0.022-0.595L100,76.096L99.932,75.762z"/>
</svg>
