<?xml version="1.0" encoding="utf-8"?>
<!-- Generator: Adobe Illustrator 16.0.4, SVG Export Plug-In . SVG Version: 6.00 Build 0)  -->
<!DOCTYPE svg PUBLIC "-//W3C//DTD SVG 1.1//EN" "http://www.w3.org/Graphics/SVG/1.1/DTD/svg11.dtd">
<svg version="1.1" id="Layer_1" xmlns="http://www.w3.org/2000/svg" xmlns:xlink="http://www.w3.org/1999/xlink" x="0px" y="0px"
	 width="100px" height="100px" viewBox="0 0 100 100" enable-background="new 0 0 100 100" xml:space="preserve">
<path fill="#555555" d="M65.898,99.344l-0.031,0.07l0.467-0.062l0.26-0.076h-0.229L65.898,99.344z M64.188,98.461l-0.213,0.344
	l-0.426,0.117l-0.916-0.036v0.142l0.564-0.021l0.232,0.076l0.159,0.218l0.121-0.149l0.129,0.149l-0.084,0.091l-0.092,0.116
	l-0.074,0.058l0.062,0.074l0.048,0.041l0.057,0.021l0.084,0.015l0.289-0.605l0.06-0.224l-0.013-0.206l0.048-0.059l0.094-0.057
	l-0.004-0.104L64.188,98.461L64.188,98.461z M74.055,99.3l0.584,0.109l0.623,0.026l0.123-0.137l-1.33-0.15V99.3z M81.041,1.917
	l-0.57-0.395l-0.424-0.616l-0.307-0.86c-3.211,0-6.422-0.011-9.635-0.011c-3.117,0-6.236-0.008-9.355-0.016
	c-3.066-0.007-6.133-0.003-9.201-0.011C48.507,0.002,45.465,0,42.423,0l0.052,0.093l0.54,0.646l-0.021,0.903l-0.591,0.727
	L41.58,2.898L39.62,3.67l-0.202,0.275l0.072,0.368l0.202,0.42l0.089,0.395l-0.254,0.278l-0.161,0.186l-0.373,0.114l-0.395-0.021
	L38.26,5.474l-0.216,0.068l-0.255,0.425l-0.3,0.747l-0.15,0.9l0.311,1.461l-0.182,1.794l0.005,0.732l-0.14,0.622l-0.564,0.618
	l-0.643,0.352l-0.4,0.15l-0.736,0.084l-0.197-0.018l-0.144-0.077l-0.218-0.167l-0.079,0.109l-0.005,0.19l0.057,0.302l0.155,0.398
	l0.033,0.265L34.529,14.6l-0.243,0.393l-0.058,0.214L34.15,15.3l-0.172-0.036l-0.284-0.13l-0.234,0.005l-0.115,0.036L33.268,15.3
	l-0.679,1.551l-0.223,0.175l-0.28,0.103l-0.87,0.54l-0.234,0.223l0.016,0.595l1.27,0.624l0.042,0.813l-0.223,0.375l-0.284,0.164
	l-0.349,0.042l-0.414-0.007l-0.4,0.072l-0.981,0.507l-0.943,0.204l-0.145,0.149l0.066,0.29l0.177,0.147l0.234,0.093l0.243,0.139
	l0.286,0.575l-0.255,0.515l-0.331,0.472l0.109,0.72l0.197,0.337l0.109,0.398l-0.224,0.447l-0.177,0.077l-0.472,0.021l-0.202,0.041
	l-0.171,0.13L27.788,26.2l-0.115,0.078l-0.161,0.15l-0.685,0.927l-0.321,0.234l-0.27,0.143l-0.051,0.193l0.346,0.357l0.727,0.357
	l0.279,0.283l0.073,0.521l-0.155,0.441l-0.302,0.207l-0.388,0.068h-0.419l-0.275,0.161l0.077,0.341l0.265,0.348l0.286,0.156
	l0.333,0.118l0.347,0.286l0.591,0.607l0.021,0.379l0.014,0.611l-0.061,0.618l-0.095,0.399l-0.652,0.855l-0.193,0.45l0.25,0.404
	l0.186,0.036l0.55,0.204l0.232,0.192l0.095,0.254l0.014,1.042l0.197,0.695l0.043,0.362l-0.109,0.368l-0.229,0.139l-0.368,0.104
	l-0.341,0.145l-0.152,0.261c-0.041,0.954-0.083,1.908-0.118,2.862l0.093,0.2l0.237,0.158l0.296,0.098l0.275,0.036l0.222,0.087
	l0.223,0.207l0.338,0.425l-0.172,0.365L28.518,44.5l-0.264,0.29l-0.224,0.12l-0.172,0.208l-0.284,1l-0.136,0.823l0.052,0.308
	l0.218,0.175l0.867,0.146l0.316,0.249l0.077,0.368l-0.281,0.435l-0.325,0.089l-0.483,0.021L27.44,48.82l-0.186,0.294l0.03,0.452
	l0.093,0.395l0.15,0.341l0.204,0.291l0.175,0.15l0.425,0.269l0.13,0.16l0.036,0.245l-0.052,0.248L28.369,51.9l-0.038,0.195
	l-0.036,0.852l0.063,0.337l0.212,0.296l0.586,0.352l0.538,0.229l0.4,0.384l0.155,0.824l0.12,0.15l0.29,0.113l0.613,0.092l0.398,0.15
	l0.12,0.322l-0.062,0.296l-0.139,0.067v0.14l-0.799,0.793l-0.55,1.317l-0.602,1.041l-0.949-0.035l-0.161,0.16l-0.066,0.213
	l-0.005,0.207l0.005,0.142l0.535,0.61l-0.005,0.75l-0.395,0.707l-0.627,0.461l-0.545,0.173l-0.17,0.112l-0.141,0.181l-0.172,0.425
	l-0.113,0.172l-0.809,0.939l-0.338,0.265l-0.336,0.125l-0.741,0.164l-0.302,0.192l-0.27,0.356l-0.165,0.356l-0.223,0.77l-0.54,0.979
	l-0.074,0.357l-0.025,0.41l-0.332,1.771l-0.016,0.488l-0.088,0.225l-0.02,0.139l-1.229,0.886l-0.41,0.603l0.083,0.893l0.073,0.155
	l0.181,0.233l0.223,0.43l0.031,0.119l-0.031,0.406l-0.035,0.18l-0.167,0.188L21.03,77.08l-0.114,0.314L20.7,77.623l-0.37,0.082
	l-0.829-0.035l-0.415,0.035l-0.264,0.143l-0.025,0.326l0.181,0.414l0.275,0.354l0.243,0.15l0.089,0.104l-0.032,0.228l-0.077,0.224
	l-0.043,0.078l-0.046,0.224L19.202,80.3l-0.016,0.197l0.202,0.569l0.539,0.654l0.109,0.522l-1.374,1.14h29.347
	c1.468,0,2.937,0.006,4.405,0.006l0.057,0.303L52.352,84.4l-0.229,0.729l-0.41,0.747l-0.275,1.184l-0.436,0.522l-0.154,0.349
	l0.108,0.383l-0.331,0.729l-0.13,0.44L50.47,89.85l0.17,0.307l0.27,0.311l0.141,0.354l-0.224,0.422l0.46,0.978l0.271,0.281
	l0.559,0.218l0.285,0.202l0.238,0.626l0.491,0.348l0.293,0.539l0.052,0.146l0.01,0.172l-0.025,0.357l0.016,0.172l0.117,0.32
	l0.504,0.785l0.082,0.344l-0.029,0.828l0.338,0.592L55,99.384l0.404,0.468l0.141-0.209l0.213-0.078l0.217,0.068l0.119,0.139
	l0.041-0.057h0.119l0.188,0.125l0.267,0.021l0.248-0.098l0.149-0.199l0.15,0.125l0.051,0.047l-0.092,0.115L57.334,100l0.223-0.166
	l0.066-0.148l0.016-0.172l0.053-0.214l0.295-0.362l0.072-0.213l-0.125-0.264l1.592-0.913l0.173-0.187l0.04-0.239l-0.004-0.394
	l-0.088-0.062l-0.416-0.021l-0.149-0.058l0.017-0.172l0.178-0.201l0.223-0.172l0.18-0.073l0.379,0.082l0.566,0.434l0.322,0.175
	l-0.266,0.136l-0.152,0.188l0.043,0.16l0.307,0.072l0.232-0.031l1.096-0.33l1.109-0.309l1.248-0.414l0.295-0.035l0.233-0.059
	l0.55-0.273l0.237-0.082l1.078,0.041l0.549-0.047l0.291-0.26l-2.155-0.289v-0.126l0.284-0.007l0.25-0.071l0.425-0.196l1.436,0.395
	l1.826,1.391l0.533,0.077l0.864-0.09l0.793-0.321l0.322-0.496h0.135l0.062,0.232l0.232,0.184l0.115,0.424l0.166,0.104l0.213,0.035
	h0.229l0.472,0.12L74.322,97l0.304,0.123l0.396-0.17l0.125-0.148l0.074-0.143l0.107-0.107l0.229-0.041l0.176-0.109l0.017-0.229
	l-0.017-0.231l0.078-0.108l0.01-0.006c-0.145-3.159-0.309-6.317-0.452-9.478c-0.144-3.131-0.3-6.261-0.453-9.39
	c-0.151-3.112-0.299-6.226-0.447-9.338c-0.038-0.817-0.077-1.634-0.118-2.45c0.379-3.15,0.711-6.308,1.067-9.461
	c0.356-3.148,0.703-6.3,1.054-9.45c0.334-3.002,0.672-6.004,1.004-9.007l1.026-9.268c0.362-3.263,0.717-6.527,1.078-9.791
	c0.342-3.092,0.68-6.185,1.017-9.277c0.237-2.206,0.483-4.412,0.723-6.618l0.021-0.343L81.041,1.917z M71.98,98.989l-0.385-0.181
	l-0.392-0.24l-0.567-0.113l-0.593,0.016l-0.438,0.141v0.125l3.514,0.556l0.172-0.073l0.15-0.084L73.062,99L71.98,98.989z"/>
</svg>
