<?xml version="1.0" encoding="utf-8"?>
<!-- Generator: Adobe Illustrator 16.0.4, SVG Export Plug-In . SVG Version: 6.00 Build 0)  -->
<!DOCTYPE svg PUBLIC "-//W3C//DTD SVG 1.1//EN" "http://www.w3.org/Graphics/SVG/1.1/DTD/svg11.dtd">
<svg version="1.1" id="Layer_1" xmlns="http://www.w3.org/2000/svg" xmlns:xlink="http://www.w3.org/1999/xlink" x="0px" y="0px"
	 width="100px" height="100px" viewBox="0 0 100 100" enable-background="new 0 0 100 100" xml:space="preserve">
<path fill="#555555" d="M99.949,59.499c-0.014-2.326-0.023-4.651-0.036-6.979c-0.013-2.555-0.028-5.108-0.039-7.664
	c-0.011-2.593-0.022-5.187-0.037-7.78c-0.013-2.537-0.026-5.075-0.036-7.612c-0.01-2.445-0.025-4.892-0.035-7.337H30.194
	c-2.546,0-5.093,0.001-7.64,0.001H0.008c-0.002,1.588-0.003,3.175-0.003,4.763C0.004,29.423,0,31.955,0,34.486l0.03,0.078
	l0.071,0.118l0.184,0.181l0.243,0.31l0.098,0.188l0.205,0.283l0.062,0.131l0.037,0.061L0.985,35.9l0.104,0.084l0.09,0.094
	l0.092,0.12l0.077,0.079l0.198,0.121l0.065,0.062l0.053,0.101l0.034,0.074l0.157,0.591l0.037,0.068l0.06,0.068l0.22,0.137
	l0.077,0.063l0.05,0.112l0.021,0.085l0.025,0.084l0.044,0.067l0.241,0.164l0.058,0.057l0.054,0.103l0.022,0.084l0.008,0.087
	L2.75,38.712l0.041,0.1l0.227,0.357l0.057,0.134l0.019,0.104l-0.02,0.069L3.022,39.6l-0.035,0.053l-0.04,0.044l-0.044,0.039
	l-0.2,0.127L2.659,39.9l-0.036,0.044l0.003,0.062l0.049,0.062l0.214,0.145l0.075,0.077l0.062,0.134l0.049,0.253l0.005,0.011
	l0.086,0.056l0.127,0.062l0.075,0.055l0.034,0.081l-0.018,0.062L3.35,41.055L3.3,41.087L3.246,41.11l-0.06,0.018l-0.354,0.035
	l-0.055,0.018l-0.041,0.03l-0.022,0.024l-0.023,0.044l-0.015,0.056l0.022,0.067l0.056,0.062l0.138,0.07l0.327,0.098l0.623,0.421
	l0.077,0.073l0.266,0.316l0.136,0.202l0.07,0.173l0.084,0.16l0.044,0.056l0.065,0.049l0.121,0.054l0.419,0.076l0.749,0.305
	l0.069,0.051l0.066,0.076l0.093,0.146l0.08,0.176l0.034,0.062l0.054,0.068l0.034,0.059l0.023,0.061l0.03,0.128l0.03,0.059
	l0.048,0.05l0.083,0.044l0.066,0.05l0.059,0.062l0.077,0.11l0.072,0.078l0.229,0.164l0.093,0.09l0.228,0.324l0.119,0.283
	l0.741,0.833l0.019,0.062l0.039,0.221l0.007,0.021l0.014,0.031l0.039,0.047l0.063,0.05l0.12,0.05l0.165,0.045l0.053,0.035
	l0.056,0.057l0.233,0.319l0.053,0.054l0.07,0.058L9.34,47.67l0.051,0.053l0.006,0.062L9.385,47.85l-0.02,0.068L9.35,47.99
	l-0.005,0.075l0.017,0.211l0.024,0.132l0.038,0.123l0.069,0.171l0.052,0.061l0.077,0.064l0.252,0.168l0.09,0.084l0.119,0.138
	l0.088,0.078l0.135,0.063l0.238,0.069l0.059,0.037l0.043,0.053l0.031,0.084l0.007,0.083l-0.004,0.079l-0.059,0.291v0.065
	l0.022,0.059l0.045,0.045l0.082,0.02l0.064-0.013l0.054-0.032l0.184-0.236l0.135-0.118l0.049-0.028l0.058-0.018l0.064-0.006
	l0.066,0.015l0.058,0.025l0.21,0.154l0.056,0.067l0.069,0.12l0.018,0.087l-0.014,0.069l-0.114,0.148l-0.023,0.058l-0.007,0.068
	l0.012,0.062l0.019,0.06l0.061,0.073l0.09,0.078l0.199,0.13l0.12,0.055l0.104,0.026l0.139-0.012l0.1-0.023l0.189-0.077l0.057-0.008
	l0.054,0.01l0.138,0.051l0.066,0.012l0.061-0.01l0.059-0.019l0.105-0.056l0.135-0.104l0.054-0.025l0.563-0.146l0.067-0.004
	l0.072,0.006l0.063,0.029l0.05,0.046l0.034,0.079l0.012,0.079l0.008,0.078l-0.003,0.218L14.3,51.359l-0.051,0.123l-0.021,0.063
	l-0.012,0.067l0.006,0.064l0.014,0.062l0.01,0.064l-0.008,0.066l-0.023,0.061l-0.06,0.108l-0.02,0.062l-0.005,0.063l0.013,0.06
	l0.025,0.055l0.021,0.056l0.009,0.06l-0.015,0.06l-0.029,0.05l-0.04,0.042l-0.046,0.035l-0.052,0.032l-0.227,0.09l-0.048,0.027
	l-0.036,0.031l-0.017,0.057l0.001,0.012l0.008,0.02l0.027,0.049l0.119,0.146l0.042,0.065l0.031,0.062l0.013,0.065l0.005,0.068
	l-0.006,0.076l-0.015,0.072l-0.019,0.074L13.7,53.945l-0.036,0.139l-0.021,0.146l-0.002,0.151l0.014,0.142L13.653,54.6l-0.012,0.065
	l-0.028,0.058l-0.169,0.254l-0.027,0.063l-0.013,0.065l-0.008,0.142l-0.016,0.067l-0.027,0.06l-0.069,0.101l-0.027,0.051
	l-0.016,0.061l0.008,0.064l0.024,0.064l0.04,0.078l0.048,0.131l0.015,0.064l0.009,0.062l0.018,0.205l0.021,0.132l0.001,0.068
	l-0.009,0.068l-0.028,0.056l-0.038,0.044l-0.051,0.029l-0.059,0.02l-0.277,0.03l-0.051,0.022l-0.037,0.032l-0.018,0.027
	l-0.018,0.051l-0.005,0.062l0.008,0.062l0.038,0.072l0.33,0.359l0.034,0.053l0.021,0.062l0.004,0.064l-0.008,0.068l-0.021,0.062
	l-0.03,0.059l-0.167,0.256l-0.024,0.06l-0.018,0.067l0.004,0.078l0.024,0.088l0.065,0.117l0.011,0.086l-0.011,0.071l-0.016,0.065
	l0.024,0.074l0.076,0.075l0.198,0.086l0.219,0.062l0.059,0.035l0.034,0.078l0.005,0.073l-0.016,0.07l-0.083,0.169l-0.022,0.064
	l-0.013,0.071l-0.008,0.069l0.008,0.066l0.019,0.057l0.024,0.058l0.175,0.285l0.014,0.091l-0.012,0.069l-0.035,0.051l-0.2,0.205
	l-0.046,0.033l-0.057,0.024l-0.062,0.014L13.1,60.55l-0.059,0.015l-0.054,0.023l-0.084,0.068l-0.029,0.041l-0.017,0.031
	l-0.044,0.104l-0.095,0.152l-0.056,0.108l-0.024,0.062l-0.028,0.059l-0.039,0.048l-0.087,0.079l-0.038,0.042l-0.011,0.063
	l0.016,0.08l0.069,0.115l0.043,0.162l0.019,0.059l0.051,0.07l0.211,0.217l0.054,0.086l0.015,0.078l-0.037,0.111l0.003,0.061
	l0.03,0.121l-0.002,0.07l-0.011,0.062l-0.019,0.054l-0.019,0.039l-0.022,0.034l-0.106,0.119l-0.174,0.147l-0.033,0.048l-0.015,0.061
	l0.016,0.074l0.049,0.098l0.031,0.072l0.013,0.072l-0.01,0.063l-0.023,0.063l-0.097,0.147l-0.005,0.045l0.038,0.044l0.115,0.016
	h0.164l0.39,0.076l0.082,0.029l0.275,0.212l0.042,0.062l0.023,0.068l0.013,0.062l0.054,0.068l0.086,0.062l0.279,0.159l0.045,0.082
	l0.033,0.043l0.06,0.045l0.093,0.027l0.173,0.016l0.091-0.02l0.069-0.027l0.046-0.032l0.199-0.104l0.035-0.029l0.008-0.01
	l0.037-0.062l0.086-0.253l0.027-0.054l0.035-0.051l0.038-0.044l0.047-0.034l0.054-0.023l0.064-0.01l0.141,0.012l0.063-0.008
	l0.052-0.025l0.19-0.129l0.328-0.139l0.046-0.034l0.034-0.048l0.018-0.059l0.023-0.059l0.03-0.055l0.041-0.041l0.147-0.094
	l0.04-0.037l0.032-0.054l0.027-0.06l0.022-0.065l0.054-0.121l0.034-0.052l0.041-0.042l0.046-0.032l0.052-0.027l0.222-0.076L17,62.93
	l0.021-0.025l0.013-0.049l-0.002-0.058l-0.011-0.056l-0.027-0.081l-0.011-0.058l-0.002-0.064l0.002-0.066l0.013-0.059l0.019-0.034
	l0.029-0.026l0.05-0.017l0.113,0.039l0.156,0.08l0.297,0.217l0.215,0.19l0.024,0.053l0.016,0.061l0.01,0.131l0.058,0.062
	l0.098,0.057l0.431,0.152l0.067,0.035l0.063,0.048l0.072,0.084l0.034,0.067l0.016,0.066l-0.006,0.062l-0.025,0.055l-0.064,0.102
	l-0.025,0.06l-0.039,0.136l-0.022,0.151l-0.003,0.071l0.033,0.069l0.066,0.058l0.258,0.119l0.086,0.082l0.024,0.08l-0.002,0.017
	l0.002,0.073l0.022,0.191l-0.005,0.066l-0.017,0.066l-0.05,0.121l-0.019,0.064l-0.013,0.068l-0.001,0.069l0.015,0.06L19,65.579
	l0.014,0.131l0.037,0.082l0.233,0.196l0.063,0.08l0.031,0.076l0.002,0.144l-0.016,0.294l-0.02,0.143l0.002,0.075l0.013,0.134
	l0.022,0.057l0.028,0.052l0.054,0.054l0.184,0.141l0.062,0.062l0.041,0.062l0.015,0.063l0.006,0.132l0.013,0.062l0.039,0.058
	l0.145,0.121l0.167,0.196l0.134,0.104l0.119,0.137l0.054,0.102l0.022,0.057l0.027,0.119l0.007,0.064l0.014,0.062l0.023,0.053
	l0.068,0.096l0.027,0.049l0.019,0.059l0.002,0.142l0.012,0.062l0.045,0.045l0.069,0.025l0.28-0.006l0.062,0.031l0.054,0.089
	l0.052,0.207l0.025,0.052l0.262,0.384l0.053,0.104l0.127,0.332l0.017,0.06l0.037,0.187l0.002,0.016l-0.006,0.07l-0.053,0.283
	l-0.022,0.064l-0.027,0.061l-0.036,0.049l-0.041,0.037l-0.159,0.076l-0.042,0.032l-0.032,0.043l-0.011,0.058l0.017,0.056
	l0.029,0.049l0.073,0.084L21.5,71.68l0.052,0.103l0.111,0.34l0.051,0.103l0.077,0.103l0.099,0.077l0.388,0.187l0.112,0.069
	l0.07,0.064l0.018,0.06l0.021,0.196l0.047,0.045l0.08,0.023l0.15-0.014l0.081-0.026l0.064-0.039l0.164-0.157l0.046-0.031
	l0.051-0.025l0.058-0.018l0.143,0.002l0.192,0.051l0.219,0.115l0.191,0.158l0.157,0.168l0.032,0.047l0.111,0.195l0.036,0.045
	l0.12,0.121l0.03,0.047l0.022,0.053l0.018,0.059l0.01,0.061l0.02,0.059l0.022,0.053l0.03,0.049l0.069,0.086l0.03,0.049l0.023,0.056
	l0.057,0.173l0.026,0.051l0.091,0.146l0.05,0.104l0.017,0.059l0.01,0.06l-0.005,0.062l-0.025,0.053l-0.039,0.043l-0.085,0.073
	l-0.036,0.043l-0.029,0.052l-0.004,0.057l0.011,0.055l0.028,0.047l0.226,0.254l0.024,0.053l0.012,0.059l0.001,0.133l0.042,0.059
	l0.07,0.053l0.132,0.07l0.06,0.059l0.025,0.065l-0.012,0.062l-0.078,0.182l-0.033,0.105l-0.002,0.032l0.009,0.048l0.077,0.154
	l0.012,0.053l0.007,0.135l0.036,0.06l0.072,0.048l0.139,0.053l0.072,0.049l0.051,0.052l0.13,0.188l0.042,0.036l0.061,0.037
	l0.37,0.119l0.05,0.031l0.04,0.04l0.192,0.279l0.052,0.029l0.073,0.006l0.134-0.07l0.037-0.062l0.006-0.065l-0.142-0.248
	l-0.019-0.055V77.32l0.013-0.062l0.026-0.056l0.032-0.053l0.035-0.045l0.477-0.485l0.047-0.031l0.237-0.062l0.05-0.021l0.146-0.098
	l0.069-0.016l0.089-0.002l0.282,0.075l1.017,0.128l0.054,0.029l0.046,0.036l0.072,0.073l0.051,0.006l0.231-0.03l0.12,0.003
	l0.161,0.043l0.069,0.048l0.056,0.05l0.039,0.043l0.049,0.035l0.07,0.016l0.092-0.008l0.132-0.047l0.07-0.048l0.048-0.056
	l0.145-0.387l0.062-0.273l0.027-0.059l0.033-0.047l0.044-0.035l0.097-0.057l0.131-0.057l0.209-0.055l0.062-0.027l0.038-0.03
	l0.073-0.079l0.056-0.025h0.073l0.12,0.057l0.123,0.098l0.065,0.025l0.093,0.009l0.187-0.007l0.154,0.016l0.238,0.059l0.204,0.084
	l0.077,0.01l0.792-0.146l0.132,0.018l0.158-0.025l0.087-0.026l0.059-0.036l0.044-0.035l0.06-0.021l0.075-0.013l0.35,0.013
	l0.149,0.059l0.079,0.044l0.057,0.048l0.065,0.094l0.025,0.049l0.03,0.05l0.043,0.038l0.061,0.019l0.078-0.004l0.167-0.081
	l0.073-0.021l0.17-0.016l0.142-0.031l0.05-0.026l0.372-0.257l0.122-0.018l0.906,0.008l0.102,0.021l0.258,0.124l0.101,0.073
	l0.051,0.015l0.076,0.008l0.144-0.017l0.081-0.021l0.051-0.037l0.001-0.05l-0.027-0.047l-0.045-0.032l-0.192-0.066l-0.05-0.028
	l-0.036-0.034l-0.025-0.033l-0.017-0.031l-0.015-0.051l-0.028-0.117l-0.006-0.063l-0.003-0.065l0.009-0.071l0.016-0.065l0.059-0.132
	l0.015-0.052l0.011-0.122l0.023-0.054l0.041-0.036l0.221-0.085l0.041-0.036l0.033-0.05l0.014-0.065l0.004-0.067l-0.012-0.068
	l-0.02-0.053l-0.028-0.049L38.1,74.164l-0.028-0.049l-0.015-0.055l0.01-0.058l0.024-0.056l0.079-0.086l0.1-0.062l0.056-0.021
	l0.24-0.03l0.064-0.026l0.045-0.043l0.09-0.164l0.039-0.039l0.071-0.004l0.105,0.029l0.3,0.168l0.084,0.068l0.078,0.199l0.335,0.539
	l0.067,0.146l0.037,0.045l0.083,0.041l0.062,0.042l0.049,0.054l0.027,0.084l0.007,0.074l-0.002,0.08l0.007,0.137l0.017,0.061
	l0.019,0.055l0.025,0.051l0.047,0.047l0.062,0.047l0.128,0.067l0.09,0.073l0.11,0.133l0.143,0.246l0.239,0.305l0.136,0.1
	l0.364,0.103c0-1.95,0.004-3.899,0.004-5.851h28.418c2.473,0,4.943-0.002,7.417-0.002H92.5c2.497,0,4.996-0.012,7.494,0.002
	L100,70.471c-0.004-1.104-0.009-2.212-0.016-3.316C99.971,64.602,99.958,62.051,99.949,59.499z"/>
</svg>
