<?xml version="1.0" encoding="utf-8"?>
<!-- Generator: Adobe Illustrator 16.0.4, SVG Export Plug-In . SVG Version: 6.00 Build 0)  -->
<!DOCTYPE svg PUBLIC "-//W3C//DTD SVG 1.1//EN" "http://www.w3.org/Graphics/SVG/1.1/DTD/svg11.dtd">
<svg version="1.1" id="Layer_1" xmlns="http://www.w3.org/2000/svg" xmlns:xlink="http://www.w3.org/1999/xlink" x="0px" y="0px"
	 width="100px" height="100px" viewBox="0 0 100 100" enable-background="new 0 0 100 100" xml:space="preserve">
<path fill="#555555" d="M99.486,72.516l-0.534-0.103l-0.129-0.173l-0.027-0.26l0.052-0.332l0.115-0.281l0.043-0.159l-0.037-0.069
	l-0.35-0.356l-0.067-0.22l-0.159-0.256l-0.322-0.395l0.191-0.373l0.012-0.186l-0.125-0.166l-0.195-0.076l-0.416-0.03l-0.17-0.089
	l-0.139-0.196l-0.097-0.203l-0.118-0.185l-0.203-0.143L96.6,68.254l-0.232,0.035l-0.188-0.028l-0.074-0.198l0.148-0.107l0.105-0.102
	l0.062-0.107l-0.03-0.059l-0.137-0.453l-0.188-0.283l-0.047-0.117l-0.014-0.107l0.018-0.221l-0.004-0.091l-0.084-0.243l-0.203-0.254
	l-0.105-0.223l-0.01-0.207l0.044-0.178l-0.015-0.162l-0.176-0.172l-0.275-0.103l-0.225-0.044l-0.15-0.141l-0.053-0.387
	c0.032-0.214,0.065-0.429,0.102-0.642l0.011-0.331l-0.112-0.328l-0.221-0.154l-0.604-0.26l-0.125-0.249l-0.03-0.146l-0.067-0.101
	l-0.058-0.118l-0.007-0.209l0.033-0.158l0.052-0.084l0.161-0.17l0.238-0.364l-0.027-0.128l-0.111-0.204l-0.027-0.181l0.047-0.354
	l0.09-0.279l0.063-0.286l-0.034-0.377l-0.144-0.371l-0.022-0.203l0.047-0.316l-0.002-0.146l-0.08-0.156l-0.201-0.18l-0.098-0.113
	l-0.057-0.178l0.023-0.127l0.067-0.082l0.04-0.08l-0.061-0.115l-0.049-0.076l-0.021-0.062l-0.022-0.043l-0.052-0.035v-0.094
	L93.58,56.7l0.16-0.429l-0.071-0.217l-0.028-0.486l-0.057-0.229l0.268-0.133l-0.146-0.121l-0.515-0.171l-0.156-0.19l-0.012-0.25
	l0.09-0.645l0.125-0.073l0.246-0.274l0.17-0.297l-0.108-0.139l-0.198-0.029l-0.52-0.179l-0.188-0.104l0.271-0.973l0.003-0.172
	l0.11-0.626l-0.073-0.157l-0.073-0.039l-0.096,0.008l-0.471-0.107l-0.16-0.096l-0.068-0.185l0.023-0.145l0.052-0.196l0.067-0.171
	l0.059-0.075l0.018-0.048l-0.092-0.103l-0.146-0.105l-0.135-0.048l-0.099,0.036l-0.228,0.147l-0.146,0.016l-0.24-0.185l-0.018-0.32
	l0.068-0.301v-0.133l-0.16-0.115l-0.086-0.276l-0.032-0.342l0.007-0.652l0.029-0.117l0.076-0.124l0.117-0.159l0.031-0.07
	l-0.014-0.086l-0.016-0.208l0.055-0.291l0.104-0.277l0.04-0.299l-0.11-0.351l-0.679-0.724l-0.052-0.085l-0.184-0.406l-0.043-0.138
	l0.013-0.181l0.112-0.3l0.041-0.149l-0.133-0.612l-0.417-0.343l-0.479-0.29l-0.321-0.445l-0.044-0.342l0.003-0.318l-0.021-0.291
	L88.984,40.5l-0.203-0.187l-0.387-0.261l-0.162-0.241l-0.104-0.376l0.041-0.285l0.095-0.257l0.055-0.299l-0.021-0.357l-0.067-0.262
	l-0.123-0.203l-0.162-0.138l-0.014-0.25l-0.387-0.473l0.057-0.655l0.157-0.683L87.6,34.931l-0.197-0.153l-0.273-0.097l-0.508-0.085
	l-1.479-0.248l-0.195-0.128l-0.127-0.211l-0.043-0.301l-0.103-0.249L84.2,33.093l-0.136-0.183l-0.008-0.203l0.059-0.129l0.07-0.11
	l0.035-0.142l-0.059-0.12l-0.139-0.082l-0.16-0.049l-0.118-0.017l-0.478,0.032l-0.146-0.032l-0.139-0.08l-0.062-0.084l-0.037-0.11
	l-0.075-0.151l-0.129-0.191l-0.156-0.171l-0.203-0.123l-1.032-0.079l-0.21-0.075l-0.119-0.107l-0.08-0.106L80.771,30.7l-0.312-0.063
	l-0.255-0.14l-0.111-0.033l-0.6-0.021l-0.271-0.065l-0.271-0.136l-0.243-0.18l-0.416-0.397l-0.346-0.454l-0.197-0.187l-0.236-0.123
	l-0.289-0.044l-2.287,0.426l-0.312-0.008l-0.83-0.205l-0.255,0.06l-0.451,0.242l-0.27,0.018l-0.133-0.051l-0.234-0.142l-0.145-0.029
	l-0.473,0.116L71.055,29.1l-0.285,0.067l-0.136,0.065l-0.128,0.084l-0.099,0.131l-0.037,0.208l-0.146,0.414l-0.045,0.076
	l-0.074,0.044l-0.236,0.207l-0.125,0.068l-0.309,0.028l-0.312-0.028l-0.82-0.287l-0.136-0.09l-0.047-0.183l-0.119-0.128
	l-1.586-0.689l-0.474-0.429l-0.479-0.329l-0.063-0.015l-0.135-0.007l-0.07-0.017l-1.205-0.799L63.9,27.409l-0.23-0.288l-0.037-0.03
	c-0.799,0-1.598,0-2.396-0.001c-2.534-0.001-5.068,0-7.604,0h-7.592c-2.532,0-5.064-0.001-7.596-0.001H23.19
	c-2.559,0-5.118-0.001-7.677-0.001H0c0.004,2.59,0.01,5.18,0.02,7.771c0.009,2.575,0.012,5.15,0.021,7.726
	c0.009,2.556,0.011,5.112,0.02,7.668c0.009,2.542,0.015,5.084,0.02,7.626h7.844c2.453,0,4.906,0.003,7.359,0.003H23
	c0,2.509,0.003,5.019,0.003,7.526c0,2.501,0.003,5.003,0.003,7.504H100l-0.312-0.286L99.486,72.516z"/>
</svg>
