<?xml version="1.0" encoding="utf-8"?>
<!-- Generator: Adobe Illustrator 16.0.4, SVG Export Plug-In . SVG Version: 6.00 Build 0)  -->
<!DOCTYPE svg PUBLIC "-//W3C//DTD SVG 1.1//EN" "http://www.w3.org/Graphics/SVG/1.1/DTD/svg11.dtd">
<svg version="1.1" id="Layer_1" xmlns="http://www.w3.org/2000/svg" xmlns:xlink="http://www.w3.org/1999/xlink" x="0px" y="0px"
	 width="100px" height="100px" viewBox="0 0 100 100" enable-background="new 0 0 100 100" xml:space="preserve">
<path fill="#555555" d="M83.42,57.055c0-2.705-0.004-5.41-0.004-8.114c-0.002-2.616-0.004-5.232-0.004-7.849
	c0-2.871,0-5.741,0-8.611c0-2.611-0.004-5.223-0.004-7.835c-0.002-2.782-0.002-5.565-0.004-8.348
	c-0.002-2.695-0.002-5.39-0.002-8.085c0-2.738-0.004-5.476-0.004-8.213c-0.478,0-0.955,0-1.433,0.001
	c-2.7,0.002-5.401,0.001-8.102,0.002s-5.396-0.001-8.097,0.001c-2.699,0.001-5.397,0.002-8.099,0.002
	c-2.705,0-5.41,0.002-8.116,0.002H16.574c0,0.994,0,1.988,0,2.982c0,2.725,0.001,5.449,0.001,8.174c0,2.735,0,5.471,0.001,8.206
	c0,2.718,0.001,5.437,0.002,8.155c0,2.746,0,5.493,0.001,8.239c0.001,2.779-0.012,5.558,0.002,8.337
	c0.875,0.782,1.751,1.565,2.627,2.348c1.967,1.755,3.936,3.508,5.908,5.257c2.162,1.918,4.326,3.833,6.491,5.747
	c1.993,1.762,3.992,3.52,5.989,5.275c1.443,1.363,2.886,2.729,4.333,4.09c2.002,1.883,4.002,3.767,6.008,5.645
	c2.035,1.905,4.072,3.809,6.111,5.709c1.729,1.686,3.46,3.367,5.194,5.047c1.878,1.819,3.756,3.641,5.638,5.454
	c1.929,1.856,3.836,3.734,5.789,5.563c2.052,1.923,4.104,3.844,6.158,5.764l-0.011-0.16l-0.106-0.443l0.263-0.344l0.045-0.13
	l-0.045-0.188l-0.212-0.244l-0.051-0.127l0.037-0.184l0.112-0.055h0.152l0.156-0.034l0.133-0.065l0.047-0.043l0.105-0.543
	l0.006-0.291L77.406,96.6l-0.146-0.652l-0.025-0.352l0.017-0.367l-0.108-0.324l-0.357-0.715l-0.205-0.658l-0.189-0.551l0.236-0.666
	l-0.068-0.597l0.084-0.298l-0.074-0.222l-0.393-1l-0.055-0.278l-0.033-0.377l0.012-0.762l0.062-0.206l0.194-0.351l0.045-0.152
	l-0.024-0.158l-0.069-0.124l-0.441-0.574l-0.164-0.319l-0.115-0.366l-0.021-0.386l0.191-0.193l0.049-0.151l0.006-0.155l-0.035-0.318
	v-0.155l0.017-0.116l0.035-0.062l0.077-0.113l0.046-0.045l0.049-0.046l0.375-0.177l0.364-0.229l0.65-0.17l0.174-0.07l0.095-0.024
	l0.104,0.011l0.602,0.178L78.4,84.32l0.061,0.037l0.096,0.076l0.115,0.074l0.15,0.051l0.086,0.01h0.084l0.076-0.014l0.063-0.022
	l0.289-0.175l0.06-0.026l0.067-0.021l0.074-0.015l0.078-0.003l0.073,0.007l0.104,0.039l0.101,0.06l0.121,0.127l0.106,0.14
	l0.084,0.132l0.25,0.562l0.106,0.17l0.142,0.172l0.209,0.182l0.258,0.113l0.291,0.018l0.55-0.09l0.391-0.223
	c0.147-0.516,0.297-1.03,0.445-1.547l0.209-0.284l0.227-0.308l0.027-0.136l0.01-0.133c0.002-0.562,0.004-1.124,0.004-1.687
	c0.006-2.721,0.008-5.44,0.016-8.162c0.008-2.619-0.002-5.239-0.002-7.859C83.422,62.743,83.42,59.898,83.42,57.055z"/>
</svg>
