<?xml version="1.0" encoding="utf-8"?>
<!-- Generator: Adobe Illustrator 16.0.4, SVG Export Plug-In . SVG Version: 6.00 Build 0)  -->
<!DOCTYPE svg PUBLIC "-//W3C//DTD SVG 1.1//EN" "http://www.w3.org/Graphics/SVG/1.1/DTD/svg11.dtd">
<svg version="1.1" id="Layer_1" xmlns="http://www.w3.org/2000/svg" xmlns:xlink="http://www.w3.org/1999/xlink" x="0px" y="0px"
	 width="100px" height="100px" viewBox="0 0 100 100" enable-background="new 0 0 100 100" xml:space="preserve">
<path fill="#555555" d="M74.879,86.336l-0.605,0.168l0.287-0.936c-0.58-0.666-1.158-1.334-1.737-2.002l-0.513-0.938L72.285,82.4
	l0.039-0.424l0.279-1.145l0.035-0.299L72.628,80.2l-0.099-0.544L72.4,79.383l-0.172-0.197l-1.07-0.709
	c-0.582-0.877-1.164-1.752-1.746-2.629l-0.857-0.996l-0.188-0.316l-0.146-0.314l-0.115-0.431l-0.033-0.292l0.008-0.266l0.043-0.224
	l0.271-0.933l0.08-0.424l-0.033-0.637l-0.082-0.554l0.008-0.333l0.027-0.236l0.047-0.187l0.074-0.541l-0.009-0.576l0.132-1.185
	c-0.076-1.307-0.144-2.616-0.212-3.924c-0.227-4.348-0.45-8.694-0.69-13.042c-0.234-4.248-0.453-8.498-0.668-12.747
	c-0.209-4.177-0.437-8.354-0.652-12.53c-0.219-4.189-0.426-8.381-0.658-12.569C65.523,8.396,65.324,4.198,65.109,0l-0.033,0.005
	l-0.268,0.127l-0.443,0.542l-0.844,1.364l-0.523,0.259L62.309,2.19l-0.67-0.245L59.314,0.47l-0.508-0.073L58.18,0.611l-0.49,0.409
	l-0.811,1.082L56.5,2.467L55.283,2.78l-0.279,0.259l0.729,0.381l0.443,0.479l-0.182,0.736l-0.783,1.39L55.086,6.43l-0.146,0.734
	l-0.146,0.413l-1.131,1.74L53.46,9.846l-0.051,0.621l0.065,0.913v0.003l-0.467,0.173l-0.279,0.372l-0.098,1.025l0.205,0.909
	l0.375,0.597l0.24,0.611l-0.246,0.956c-0.852,1.215-1.699,2.431-2.545,3.648l-0.68,1.404l-0.113,0.973l0.277,0.62l0.385,0.533
	l0.195,0.698l0.106,0.562l0.858,2.235l0.345,0.541l0.187,0.4l0.018,0.381l-0.271,0.392l-0.334,0.069h-0.342l-0.279,0.19
	l-0.197,0.748l0.09,0.692l-0.024,0.675l-0.53,0.696l-0.951,0.792l-0.481,0.843l-0.247,0.342l-0.719,0.302l-2.422,1.542l-0.443,0.406
	l-0.917,1.187l-0.524,0.37l-0.671,0.113l-1.351-0.063l-1.416,0.277l-1.014,0.828l-0.621,1.39l-0.207,1.96l0.018,3.39l-0.156,1.478
	l-0.409,1.226l-1.179,2.146l-0.163,0.608l0.124,0.317l0.237,0.24l0.18,0.221l-0.059,0.283l-1.815,2.596l-0.41,0.798l-0.163,0.804
	l-0.06,0.844l-0.164,0.828l-0.227,0.75l-0.294,0.609l-1.466,1.354l-0.353,0.502l-0.75,0.611l-0.172,0.398l-0.099,1.334l-0.245,1.584
	l-0.223,0.752l-0.393,0.648l-0.956,0.934l-0.287,0.545l-0.164,1.003l-0.206,6.493l0.107,1.436l-0.065,0.859l-0.335,0.722
	l-0.288,0.345l-0.211,0.342l-0.133,0.389l-0.039,0.49l0.024,0.107l0.065,0.073l0.064,0.112l0.034,0.226l-0.059,0.224l-0.13,0.189
	l-0.189,0.207l-0.172,1.555v0.465l0.172,0.981l-0.073,0.862l-0.482,2.127l-0.115,1.732l-0.263,0.625l-0.671,0.246l-0.474,0.271
	l-0.188,0.664l-0.194,1.64l-0.214,0.539l-0.195,0.396l-0.141,0.441l-0.017,0.682l0.059,0.588l0.104,0.426L24.66,95.4l0.237,0.418
	l1.186,1.234l0.54,0.778l0.18,1.092v0.007h0.057c2.247,0.077,4.493,0.153,6.74,0.225c4.291,0.137,8.582,0.281,12.872,0.43
	c4.165,0.145,8.331,0.262,12.494,0.413l0.279-0.046l0.221-0.105l0.412-0.311l0.399-0.403l0.373-0.479l0.216-0.144l0.284-0.124
	l0.543-0.164l0.326-0.152l0.283-0.319l0.117-0.255l0.252-0.704l0.213-0.399L63,96.218l0.254-0.313l0.146-0.129l0.149-0.104
	l0.222-0.085l0.276-0.046l0.476,0.024l0.317,0.062h0.31l0.264-0.088l0.361-0.266l0.203-0.209l0.41-0.504l0.139-0.133l0.303-0.22
	l2.691-1.198l0.254-0.012l0.328,0.057l0.934,0.4l0.58,0.152l0.988-0.252l0.065-0.601l0.244-0.78l0.59-1.328l1.479-2.35l0.24-0.615
	l0.111-0.172l0.207-0.492l0.113-0.517l-0.148-0.235L74.879,86.336z"/>
</svg>
