<?xml version="1.0" encoding="utf-8"?>
<!-- Generator: Adobe Illustrator 16.0.4, SVG Export Plug-In . SVG Version: 6.00 Build 0)  -->
<!DOCTYPE svg PUBLIC "-//W3C//DTD SVG 1.1//EN" "http://www.w3.org/Graphics/SVG/1.1/DTD/svg11.dtd">
<svg version="1.1" id="Layer_1" xmlns="http://www.w3.org/2000/svg" xmlns:xlink="http://www.w3.org/1999/xlink" x="0px" y="0px"
	 width="100px" height="100px" viewBox="0 0 100 100" enable-background="new 0 0 100 100" xml:space="preserve">
<path fill="#555555" d="M72.932,13.36L69.8,11.457l-3.12-1.904l-3.119-1.906l-3.131-1.91l-3.123-1.91l-3.119-1.913L51.057,0
	l0.021,0.074l-0.623,0.411l-0.71,0.042l-0.317,0.122L48.999,1.03l-0.337,0.042l-0.167,0.116l-0.093,0.173l-0.167,0.411l-0.064,0.116
	l-1.705,1.598l-0.233,0.559l-0.03,0.295l-0.305,1.159l-0.748,1.84L43.513,9.56l-0.41,0.34l-0.226,0.087l-0.323,0.202l-0.309,0.238
	l-0.132,0.202l0.02,0.51l-0.02,0.109l-0.109,0.045l-1.297,1.636l-0.588,0.482l-0.695,0.192l-0.466,0.199L38.2,14.307l-0.706,0.655
	L37.16,15.62l0.073,0.292l0.188,0.331l0.362,0.514l0.028,0.167l-0.028,0.186l-0.01,0.154l0.122,0.064l0.186,0.006l0.187,0.051
	l0.128,0.135l0.059,0.244l0.23,0.354l0.495,0.564l0.446,0.713l0.121,0.796l-0.314,0.716l-0.439,0.306l-0.382,0.404l-0.157,1.001
	l-0.216,0.761l-0.52,0.414l-0.646,0.07l-0.577-0.27l-0.289,0.7l-0.212,0.324l-0.234,0.138l-0.148,0.161l0.036,0.344l0.122,0.295
	l0.093,0.022l-0.427,1.188l-0.122,0.559l0.103,0.52l0.122,0.417l-0.093,0.308l-0.029,0.405l0.122,1.309l-0.15,0.411l0.058,0.437
	l0.128,0.434l0.244,1.149l0.398,0.17l0.943-0.183l1.602,0.511l0.539,1.098l0.235,3.216l0.314,0.771l0.578,0.835l0.699,0.488
	l1.239-0.466l0.407,0.704l0.44,1.592l1.646,1.463l0.29,0.392l0.103,0.244l1.062,1.515l0.989,1.217l1.685,1.46l0.803,0.88
	l0.333,0.893l-0.391,0.802l-0.912,0.569l-1.043,0.342l-0.803,0.11l-0.299,0.161l-1.098,0.988l-0.317,0.154l-1.191,0.377
	l-0.484,0.315l-1.239,1.394l-0.431,0.289l-1.098,0.525l-0.494,0.566l-1.248,2.009l-0.196-0.31l-0.427,0.56l-0.549-0.212
	l-0.132,0.488l0.205,0.767l0.476,0.639l-0.514,0.38l-0.456,0.545l-0.466,0.365l-0.522-0.146l-0.177,0.211h-0.036l-0.047,0.027
	l-0.755,0.215l-1.146,0.529l-0.529,0.109l-0.699,0.044l-1.352,0.309l-1.778,0.798l-1.221,0.853l-1.081,1.06l-0.681,1.182
	L26.949,67.7l-0.064,0.192l-0.356,0.135l-0.202,0.298l-0.142,0.296l-0.427,0.352l-0.122,0.5l-0.073,0.559l-0.094,0.398l-0.195,0.198
	l-0.598,0.358l-0.699,0.727l-0.026,0.314l0.345,0.5l1.062,1.117l0.104,0.578l-0.347,1.854l-0.074,0.778l-0.25-0.144l-0.177-0.192
	l-0.122-0.23l0.309,1.259l0.734,0.841l0.96,0.668l3.223,3.584l0.112,0.205l0.157,0.207l0.241,0.189l0.161-0.024l0.195-0.143
	l0.24-0.122l0.279,0.039l0.337,0.424l0.241,0.645l0.309,0.588l0.51,0.261h1.194l0.231,0.178l0.254,0.779l0.26,0.177l0.446,0.189
	l1.136,0.908l0.283,0.313l0.035,0.237l-0.103,0.5l0.067,0.344l0.24,0.363l0.446,0.287l-0.045,0.183l0.559-0.026l0.362-0.205
	L38.2,88.84l0.45-0.304l0.984-0.24l0.662-0.044l0.43,0.156l0.122,0.337l-0.02,0.31l0.035,0.225l0.289,0.091l0.299-0.039l0.543-0.174
	l0.24-0.038l1.269,0.031l0.52,0.16l0.504,0.359l0.597,1.329l-0.225,1.586l-1.572,3.356l-0.196,0.785l-0.103,0.826L43,98.4
	l-0.142,0.494l-0.222,0.34l-0.048,0.304L43,99.917L43.327,100l0.353-0.08l1.826-0.734l1.23-0.766l1.043-0.975l0.623-1.117
	l-0.055-0.276l-0.132-0.37l0.039-0.316l0.754-0.213l0.324-0.182l0.263-0.234l0.271-0.637l0.733-0.847l0.168-0.264l-0.056-0.449
	l-0.194-0.251l-0.28-0.038l-0.327,0.187l-0.045-0.139l0.009-0.08l-0.028-0.045l-0.148-0.017l0.286-0.375l0.327-0.177l0.344,0.035
	l0.326,0.267l1.49-3.116l0.355-0.508l0.706-0.379l1.313-1.812l0.896-0.604V85.21l-1.726,0.581l-0.399-0.141l-0.363-0.232
	l-0.409-0.186l-0.57-0.022l0.589-0.696l0.866-0.229l2.014,0.069v-0.226l-0.143-0.532l0.41-0.731l1.024-1.284l0.887,0.578
	l-0.858,0.863l-0.392,0.525l-0.278,0.581v0.226l0.857-0.309l1.846-1.175l0.977-0.407l-0.26-0.736l-0.402-0.805l-0.501-0.466
	l-0.577,0.289l0.035-0.521l0.167-0.578l0.233-0.517l0.207-0.332l0.483-0.364l0.343,0.041l0.338,0.202l0.476,0.121l0.397-0.969
	l0.112-0.671l-0.29-0.305l-0.381-0.304l-0.157-0.719l-0.028-1.508l0.289,0.284l0.362,0.229l0.41,0.041l0.465-0.276l1.187,0.84
	l0.103,0.201l0.056,0.414l0.166,0.321l0.43-0.081l0.223-0.594l-0.406-0.75L63.18,74.1l0.362-0.586l0.313-0.63l0.348-0.282
	l0.393-0.181l0.437-0.327l0.278-0.395l0.26-0.459l0.291-0.381l0.83-0.399l0.392-0.567l0.56-1.14l0.195-0.235l0.398-0.59l0.18-0.598
	l-0.45-0.275l-0.5-0.539l0.157-1.214l0.475-1.319l0.418-0.838l0.588-0.726l0.047-0.296l-0.01-0.796l0.113-0.642l0.27-0.485
	l0.735-0.688l-0.309-0.238l-1.024-0.351l0.651-0.651l0.317-0.873l-0.111-0.597l-0.643,0.16l0.131-0.642l0.398-0.229l0.514-0.069
	l0.484-0.178l0.382-0.437l0.241-0.556l-0.064-0.418l-0.559-0.019v-0.254l0.54-0.507l0.326,0.294l0.167,0.782l0.046,0.957
	l-0.074,0.899l-0.196,0.661l-0.612,1.419l-0.493,6.709l0.456-0.897l0.513-4.219l0.408-1.34l-0.191-0.253l0.239-0.668l0.177-1.851
	l0.651-1.547v-0.979l-0.299-0.818l-0.577-0.328l0.616-1.098l1.091-3.422l-0.086-1.075l0.41-0.96l0.514-0.892l0.26-0.893
	l-0.361-5.585l-0.271-1.072l-0.466-0.552l-0.385,0.276l0.103,0.84l0.366,0.925l0.361,0.523l-0.559,0.151l-1.238-0.79l-2.768-0.976
	l-0.82-0.103l-1.613,0.283l-0.277-0.083l-0.501-0.373l-1.092-0.337l-0.314-0.613l0.083-0.751l0.467-0.665l-0.234-0.257l0.029-1.3
	l-0.029-0.164l0.25-0.334l0.572-0.471l0.277-0.324l0.335-0.758L66.85,30l0.354-0.726l0.27-0.263l0.577-0.369l0.236-0.215l0.185-0.35
	l0.235-0.748l0.221-0.314l0.644-0.411l0.103,0.398l-0.53,1.707l0.496,0.026l0.373-0.122l0.297-0.253l0.578-0.741l0.715-0.559
	l0.69-0.69l0.196-0.263l0.103-0.35l0.017-0.584l0.078-0.462l0.297-0.732l0.262-1.084l1.312-2.145l1.155-3.024l0.324-1.682
	l0.019-0.783L72.932,13.36z M61.527,78.074l0.27,0.726l-0.41,0.431l-0.465,1.228l-0.417,0.289l-0.44-0.22l-0.25-0.492l-0.289-0.344
	l-0.549,0.221l0.715,1.064l1.02,0.188l1.068-0.504l0.904-0.999l0.412-1.136l0.137-0.049l0.261-0.188l0.094-0.2l-1.563-0.224
	L61.527,78.074z M69.391,66.943l-0.467,0.949l-0.186,0.95l-3.159,5.056l-0.313,0.984l-0.17,0.359l-0.046,0.195l-0.021,0.307
	l0.746-0.996l1.443-3.102l1.322-1.295l0.682-1.449l0.559-1.603l0.244-1.084l-0.356,0.275L69.391,66.943z"/>
</svg>
