<?xml version="1.0" encoding="utf-8"?>
<!-- Generator: Adobe Illustrator 16.0.4, SVG Export Plug-In . SVG Version: 6.00 Build 0)  -->
<!DOCTYPE svg PUBLIC "-//W3C//DTD SVG 1.1//EN" "http://www.w3.org/Graphics/SVG/1.1/DTD/svg11.dtd">
<svg version="1.1" id="Layer_1" xmlns="http://www.w3.org/2000/svg" xmlns:xlink="http://www.w3.org/1999/xlink" x="0px" y="0px"
	 width="100px" height="100px" viewBox="0 0 100 100" enable-background="new 0 0 100 100" xml:space="preserve">
<path fill="#555555" d="M94.277,8.198C94.271,5.465,94.27,2.733,94.27,0H5.734v18.833c0,2.539-0.004,5.078-0.004,7.617v24.43
	c0,2.875-0.005,5.751-0.005,8.626v24.387c0,2.557,0.003,5.112-0.001,7.668c-0.004,2.787-0.003,5.574-0.003,8.361V100h12.183v-3.727
	L17.9,96.152V92.3c0.694,0,1.39,0.007,2.084,0.007c2.526,0,5.052,0.021,7.578,0.021s5.053,0.021,7.579,0.021
	c2.541,0,5.081,0.019,7.621,0.019l0.165,0.065l0.194,0.188l-0.873-0.907l-0.19-0.125l-0.203-0.035l-0.168-0.097l-0.134-0.149
	l-0.104-0.199l0.108-0.123l-0.359-0.528l-0.108-0.299l-0.043-0.397l-0.078-0.363l-0.307-0.617l-0.009-0.29
	c1.291,0,2.583-0.005,3.874-0.005c2.711,0,5.421-0.004,8.132-0.004s5.422-0.002,8.133-0.004c2.71-0.004,5.421,0,8.131-0.002
	c2.711-0.002,5.423,0,8.134-0.002c2.709-0.002,5.42-0.007,8.131-0.007s5.422-0.003,8.133-0.003c0.011-1.943,0.017-3.89,0.025-5.834
	c0.016-2.806,0.028-5.609,0.037-8.416c0.008-2.564,0.029-5.13,0.037-7.693c0.01-2.799,0.021-5.598,0.036-8.396
	c0.017-2.76,0.024-5.519,0.04-8.278c0.016-2.571,0.018-5.142,0.031-7.712c0.016-2.77,0.027-5.539,0.037-8.309
	c0.01-2.804,0.023-5.607,0.037-8.411c0.013-2.626,0.021-5.252,0.033-7.878c0.012-2.702,0.018-5.404,0.038-8.106l-0.009-0.325
	l0.613-0.013V8.198z"/>
</svg>
