<?xml version="1.0" encoding="utf-8"?>
<!-- Generator: Adobe Illustrator 16.0.4, SVG Export Plug-In . SVG Version: 6.00 Build 0)  -->
<!DOCTYPE svg PUBLIC "-//W3C//DTD SVG 1.1//EN" "http://www.w3.org/Graphics/SVG/1.1/DTD/svg11.dtd">
<svg version="1.1" id="Layer_1" xmlns="http://www.w3.org/2000/svg" xmlns:xlink="http://www.w3.org/1999/xlink" x="0px" y="0px"
	 width="100px" height="100px" viewBox="0 0 100 100" enable-background="new 0 0 100 100" xml:space="preserve">
<path fill="#555555" d="M45.692,24.557l0.306-0.075l0.479-0.378l0.298-0.16V23.87l-0.019-0.056l-0.067-0.108l-0.082-0.013
	l-0.097,0.064l-0.116,0.039l-0.14-0.09l-0.149,0.127l-0.324,0.112l-0.138,0.123l-0.049,0.122l-0.019,0.165l0.023,0.143
	L45.692,24.557 M44.542,29.254l0.168-0.216l0.157-0.392l0.042-0.198l-0.142-0.013l-0.221,0.093l-0.187,0.118l-0.231,0.213
	l-0.075,0.188l0.038,0.566L44.542,29.254 M47.124,23.582l-0.012,0.2l0.097,0.163l0.116-0.028l0.363-0.333l0.224-0.09l0.281-0.222
	l0.25-0.276l0.187-0.315l0.033-0.044l0.023-0.052v-0.084l-0.173,0.008l-0.13,0.079l-0.217,0.276l-0.067-0.276l-0.157,0.124
	l-0.294,0.512l-0.086-0.109l0.033-0.038l0.016-0.001l0.016-0.017l0.022-0.074L47.5,22.986l-0.123,0.036l-0.102,0.076l-0.068,0.125
	l-0.029-0.01l-0.052-0.01h-0.079l-0.102,0.02v0.132l0.169,0.06L47.124,23.582 M9.373,46.395L9.5,46.503l0.175,0.229l0.209,0.208
	l0.221,0.045l0.654-1.044l0.051-0.214l-0.115-0.16l-0.324-0.113l-0.198-0.097l-0.21,0.022l-0.224,0.059l-0.231,0.016l0.022,0.25
	l-0.168,0.58L9.373,46.395 M97.92,76.111l0.173-0.01l0.183-0.082l0.334-0.271l0.227-0.13l0.042-0.011l0.041-0.023l0.037-0.066
	l-1.001,0.125l-0.217,0.104l-0.063,0.203l0.082,0.114L97.92,76.111 M71.566,79.125c0.836,0.508,1.672,1.018,2.507,1.527l0.012-0.43
	l-0.183-1.431l0.052-0.731l-0.015-0.3l-0.115-0.286l-0.191-0.23l-0.197-0.188l-0.16-0.226l-0.094-0.567l-0.057-0.138l-0.037-0.144
	l0.037-0.236l0.078-0.141l0.128-0.135l0.233-0.184l0.026,0.337l-0.104,0.272l-0.045,0.283l0.209,0.365l0.414,0.378l0.153,0.172
	l0.124,0.261l0.135,0.576l0.047,0.631l-0.01,1.369l-0.041,0.34l-0.177,0.686l-0.106,0.695l-0.299,0.682l-0.066,0.348l-0.079,0.242
	l-0.729,1.287l-0.094,0.318l-0.045,0.343l-0.01,0.364l0.298-0.221l0.407-0.981l0.251-0.388l0.356-0.188l0.455-0.098l0.463-0.014
	l0.373,0.07l-0.051-0.16l-0.173-0.32l-0.037-0.146l0.067-0.147l0.149-0.021l0.149,0.008l0.066-0.068l0.065-0.305l0.165-0.266
	l0.557-0.616l0.123-0.099l0.153-0.03l0.272-0.001l0.033-0.066l0.27-0.39l0.066-0.165l-0.029-0.076l-0.125-0.102l0.133-0.114
	l0.033-0.021l-0.045-0.139l-0.062-0.145l-0.041-0.053l-0.031-0.027l-0.056-0.043l-0.041-0.049c-0.207-0.323-0.412-0.647-0.616-0.975
	l-0.07-0.117l0.18-0.121c0.882-0.547,1.76-1.099,2.645-1.644l0.201-0.153l-0.189-0.275c-0.195-0.338-0.387-0.676-0.58-1.014
	c0.213-3.039,0.375-6.08,0.58-9.119c0.082-1.231,0.152-2.465,0.233-3.696l-0.34-0.416c0.786-3.066,1.644-6.117,2.463-9.175
	c0.183-0.676,0.358-1.352,0.541-2.025l0.208-0.273c-0.111-0.35-0.227-0.698-0.34-1.046l0.139-0.607l0.036-0.281
	c0.073-3.027,0.125-6.055,0.188-9.082c0.017-0.77,0.031-1.539,0.048-2.309v-0.129l0.008-0.381l-0.094-0.14l-0.119-0.115
	l-0.063-0.044l-0.104-0.151l-0.181-0.626l-0.057-0.097l-0.07-0.076l-0.092-0.044l-0.203-0.045l-0.094-0.003l-0.089,0.008
	l-0.086,0.022l-0.075,0.04l-0.066,0.057l-0.049,0.08l-0.041,0.09l-0.057,0.304l-0.038,0.096l-0.055,0.077l-0.058,0.069l-0.142,0.104
	l-0.138,0.064l-0.049,0.013l-0.025-0.007l-0.027-0.041l-0.089-0.174l-0.071-0.2l-0.02-0.213l-0.007-0.377l0.026-0.194l0.033-0.154
	l0.664-1.729l0.037-0.189l0.021-0.366l-0.002-0.183l-0.023-0.139l-0.033-0.083L80.65,32.23l-0.01-0.106l0.01-0.105l0.076-0.272
	l0.029-0.229l-0.004-0.136l-0.011-0.111l-0.026-0.085l-0.037-0.072l-0.098-0.147l-0.053-0.149L80.479,30.6l-0.119-0.765
	l-0.012-0.266l0.016-0.478l-0.02-0.152l-0.031-0.116l-0.035-0.078l-0.164-0.218l-0.057-0.098L80,28.276v-0.121l0.029-0.108
	l0.15-0.257l0.436-1.412l0.05-0.237l0.036-0.372l0.025-0.1l0.045-0.086l0.054-0.081l0.127-0.127l0.138-0.107l0.149-0.087
	l0.134-0.102l0.068-0.127l0.048-0.188l0.04-0.376l0.005-0.345l-0.021-0.179l-0.178-0.79l-0.006-0.141l0.006-0.126l0.035-0.104
	l0.04-0.099l0.239-0.465l0.082-0.21l0.061-0.294l0.036-0.259l0.008-0.165l-0.004-0.167l-0.015-0.104l-0.07-0.258l-0.127-0.281
	l-0.539-0.917l-0.174-0.389l-0.038-0.151l-0.099-0.64l-0.019-0.39l0.015-0.103l0.021-0.105l0.204-0.678l0.027-0.208l0.019-0.399
	l0.04-0.216l0.12-0.362l0.036-0.164l0.045-0.253l0.013-0.15l-0.003-0.121l-0.016-0.088l-0.025-0.08l-0.042-0.081l-0.235-0.267
	l-0.06-0.083l-0.058-0.102l-0.06-0.153l-0.022-0.119l-0.004-0.111l0.021-0.206l0.021-0.107l0.071-0.223l0.045-0.103l0.214-0.353
	l0.051-0.116l0.05-0.146l0.045-0.236l0.008-0.14l-0.013-0.121l-0.065-0.26l-0.063-0.412l-0.047-0.214
	c-3.143,0.025-6.283,0.043-9.426,0.066c-2.529,0.019-5.06,0.035-7.59,0.052l-0.209-0.018L63.51,11.54l-1.605-0.2l-0.228,0.013
	l-0.218,0.073l-0.464,0.313l-0.738,0.271l-0.206,0.115l-0.553,0.444l-0.216,0.099l-0.685,0.183l-1.777,1.094
	c-1.807,1.671-3.619,3.336-5.43,5.004l-0.699,0.959l-0.458,0.542l-0.002,0.003l0.163,0.26l0.086,0.324l0.026,0.313l-0.135,0.245
	l-0.817,0.543L49.535,22.2l-0.007,0.1l-0.019,0.112l-0.049,0.089l-0.047,0.033l-0.662,0.272l-0.067,0.116l-0.12,0.165l-1.647,1.449
	l-1.639,0.749l-2.199,1.607l-0.112,0.251l0.071,0.377l0.171,0.123l0.225,0.068l0.224,0.218l0.063,0.198l-0.034,0.134l-0.049,0.119
	l0.02,0.138l0.093,0.097l0.116,0.017l0.097-0.083l0.042-0.199l0.118-0.237l0.823-0.412l0.107,0.239l0.508-0.095l0.179,0.194
	l-0.094,0.086l-0.038,0.058l-0.051,0.225l0.097-0.105l0.105-0.075l0.114-0.045l0.124-0.014l-0.078,0.226l-0.146,0.235l-0.179,0.182
	l-0.332,0.169l-0.217,0.206l-0.13,0.205l0.079,0.095h0.784l0.235-0.076l0.348-0.33l0.201-0.073l0.213,0.057l0.09,0.146l-0.031,0.194
	l-0.146,0.211l-0.194,0.103l-0.414,0.075l-0.167,0.169l-0.09,0.264l-0.02,0.211l-0.047,0.217l-0.198,0.276l-0.549,0.467
	l-0.142,0.248l-0.344-0.248l0.063-0.111l0.116-0.356l-0.623,0.305l-0.168,0.162l-0.146,0.279l0.074,0.122l0.187,0.089l0.199,0.182
	l0.07,0.085l0.165,0.13l0.062,0.079l0.038,0.128l0.004,0.132l0.016,0.138l0.167,0.335l0.112,0.479l0.087,0.219l-0.116,0.336
	l-0.02,0.397l0.048,0.419l0.087,0.403l0.107-0.243l0.12-0.165l0.138-0.05l0.16,0.102l-0.534,0.784l-0.063,0.384l0.347,0.258
	l-0.247,0.231l-0.493,0.608l-0.257,0.122l-0.853,0.18L43.045,37.5l-0.522-0.205l-0.228,0.038l-0.657,0.674l-0.243,0.19l-1.318,0.639
	l-0.485,0.355l-0.438,0.442l-0.571,1.088l-0.303-0.214l-0.179-0.045l-0.078,0.194l-0.069,0.073l-0.816,0.373l-1.304,0.278
	l-0.067,0.049l-0.075,0.154l-0.003,0.129l0.011,0.104l-0.019,0.086l-0.045,0.108l0.004,0.055l-0.022,0.033l-0.116,0.042
	l-0.127,0.014l-0.116-0.038l-0.1-0.084l-0.09-0.129l0.033-0.064l0.064-0.172l-4.855-0.237l-0.579,0.124l-1.587,0.586l-0.571-0.005
	l-0.526-0.247l-0.904-0.823l-0.064-0.029l-0.283-0.078l-0.004-0.184l-0.314-0.154l-4.526-0.857L19.43,40.01l-1.934-0.283
	l-3.915,0.602l-0.821,0.406l-1.363,0.237L9.772,41.62l-0.867,0.154l0.057,0.299l0.067,1.554l-0.008,0.186l-0.03,0.223l-0.053,0.147
	l-0.071,0.139l-0.055,0.175l0.006,0.247l0.001,0.005l0.499,0.335l1.408,0.171l0.34,0.434l-0.064,0.383l-0.439,0.469l-0.109,0.389
	l0.057,0.151l0.235,0.219l0.055,0.1l0.094,0.758l0.071,0.189l0.265,0.516l0.07,0.22l0.027,0.149v0.399l-0.045,0.413l-0.124,0.304
	l-0.19,0.226l-0.253,0.177l-0.989,0.447l-0.471,0.294l-0.355,0.439l-0.265,0.629l-0.201,0.299l-0.272,0.125l-0.057,0.076
	l-0.208,0.457L7.745,53.77l-0.068,0.072l-0.163,0.09l-0.837,0.252l-0.261,0.369l-0.665,0.439l-0.628,0.26l-0.13,0.079l-0.09,0.108
	L4.795,55.6l-0.128,0.146L4.29,55.936l-0.593,0.807l-0.706,0.398l-0.205,0.238l-0.219,0.203l-0.864,0.326l-0.948,0.76L0.4,58.838
	l-0.257,0.211L0,59.107c0,1.521,0.004,3.043,0.004,4.565c3.061,0,6.123,0.003,9.184,0.005c3.172,0.004,6.345,0.006,9.517,0.008
	c3.095,0.002,6.189,0.004,9.284,0.008c3.076,0.006,6.151,0.007,9.227,0.008c3.182,0.001,6.363,0.005,9.544,0.008
	c3.063,0.002,6.127,0.006,9.19,0.006c0.005,0,0.009,0,0.013,0l-0.008,0.229l0.302,0.232l0.396,0.189l0.269,0.186l0.076,0.312
	l0.024,0.424l0.076,0.376l0.207,0.16l0.699-0.113l0.161,0.054l0.276,0.238l0.344,0.126l0.183,0.317l0.119,0.072l0.16,0.063
	l-0.052,0.157l-0.288,0.365l0.261,0.144l0.223,0.08l0.152,0.151l0.055,0.371l-0.041,0.158l-0.17,0.145l-0.041,0.158l0.174,0.639
	l-0.004,0.349l-0.078,0.868l0.037,0.175l0.162,0.159l0.637,1.383l0.174,0.262l0.216,0.191l0.563,0.139l0.156,0.158l0.123,0.189
	l0.18,0.162l0.307,0.063l0.619-0.039l0.244,0.152l0.164,0.147l0.135,0.004l0.123-0.062l0.146-0.039l0.094,0.056l0.066,0.133
	l0.098,0.271l0.111,0.163l0.193,0.361l0.066,0.334C66.559,76.062,69.062,77.596,71.566,79.125 M87.604,84.568l-0.668,0.178
	c-0.104,0.066-0.207,0.136-0.311,0.204l-0.529,0.159l-0.182,0.026l-0.171,0.068l-0.373,0.348l-0.194,0.142l-0.83,0.313l-1.23,0.241
	l-0.422,0.188l-0.422,0.03l-0.345-0.083l0.074,0.204l0.452-0.022l1.229-0.246l1.35-0.471l0.418-0.216l0.209-0.042l0.828-0.507
	l1.191-0.383l0.184-0.019l0.156-0.137l0.455-0.216v-0.104l-0.211,0.034L87.604,84.568 M71.668,86.331l-0.163,0.097l-0.202,0.068
	l-0.283-0.018l-0.194-0.057l-0.149,0.04l-0.148,0.271l-0.047,0.254l-0.027,0.522l-0.09,0.244l-0.086,0.067l-0.127,0.05l-0.131,0.079
	l-0.104,0.145l-0.019,0.114l0.019,0.451l1.51-0.794l0.622-0.629l0.046-0.864l-0.245-0.085L71.668,86.331 M99.775,79.131
	l-0.348-0.035l-0.254,0.043l0.049,0.174v0.103l-0.25-0.043l-0.189-0.095l-0.146,0.035l-0.104,0.342l-0.243-0.088l-0.242,0.127
	L97.566,80.1l-0.485,0.215l-0.261,0.058l-0.116-0.091l-0.06-0.178l-0.412-0.627l-0.178-0.066l-0.135,0.199l-0.079,0.32l-0.012,0.293
	l-0.472-0.509l-0.17-0.104l-0.115,0.107l-0.061,0.178l0.002,0.09l-0.152,0.052l-0.344,0.188h-0.156l-0.07-0.121l-0.061-0.188
	l-0.101-0.119l-0.198,0.087l0.135,0.321l-0.198,0.192l-0.324,0.149l-0.702,0.563l-0.224,0.236l-0.034,0.188l0.023,0.201l-0.19,0.154
	l-0.296,0.105l-0.273,0.061l-0.273-0.043l-0.258-0.119l-0.248-0.035l-0.262,0.197l-0.111-0.091l-0.122-0.043l-0.136-0.009
	l-0.143,0.02l0.123-0.215l0.232-0.223l0.257-0.176l0.321-0.109l0.097-0.091l0.173-0.216l0.034-0.064l0.077-0.197l0.066-0.078
	l0.061-0.014l0.143,0.028l0.061-0.015l0.357-0.304l0.12-0.038l0.024,0.108l0.104,0.206l0.112,0.121l0.057-0.15l-0.031-0.211
	l-0.037-0.172l0.017-0.161l0.146-0.188l0.115-0.051l0.271-0.002l0.133-0.072l-0.102-0.045l-0.09-0.07l-0.082-0.098l-0.074-0.129
	l0.869-0.822l0.496-0.299l0.188,0.311l0.172-0.061l0.201-0.134l0.169-0.175l0.063-0.189l-0.072-0.148l-0.16-0.088l-0.197-0.028
	l-0.176,0.025l-0.68,0.343l-0.193,0.16L93.35,78.57l-0.188,0.154l-0.575,0.162l-0.276,0.129l-0.23,0.424l-0.747,0.334l-0.804,0.785
	l-0.279,0.106l-1.628,0.338l-1.987-0.101L84.479,80.9l0.065,0.182l-0.037,0.116l-0.116,0.054l-0.162-0.008l0.069-0.346l-0.184-0.064
	l-0.279,0.083l-0.221,0.101l0.06,0.28l-0.146,0.259l-0.242,0.186l-0.579,0.181l-0.138,0.007l-0.104-0.041l-0.25-0.146l-0.116-0.032
	l-0.261-0.037l-1.094-0.413h-0.272l-0.107,0.134l0.22,0.316l0.169-0.236l0.189,0.099l0.121,0.252l-0.047,0.229l-0.16,0.004
	l-0.225-0.099l-0.229-0.051l-0.172,0.146l-0.148-0.121l-0.111-0.117l0.122-0.312l-0.22-0.21l-0.322-0.006l-0.183,0.298l0.041,0.177
	l0.202,0.274l0.015,0.129l-0.101,0.069l-0.317-0.166l-0.181-0.018l0.035-0.076l0.045-0.047l-0.672-0.177l-0.707,0.192l-0.431,0.529
	l0.169,0.828l-0.183,0.021l-0.21-0.237l-0.231-0.334l-0.249-0.256l-0.158,0.124l-0.138,0.193l-0.022,0.181l0.412,0.17l0.043,0.194
	l-0.073,0.195l-0.149,0.088l-0.089-0.105l-0.099-0.215l-0.129-0.17l-0.202,0.025l-0.082,0.157l0.032,0.444l-0.037,0.203
	l-0.291-0.219l-0.413-0.115l-0.363,0.078l-0.138,0.369l-0.6-0.143l-0.344,0.219l-0.544,1.061l-0.063,0.076l-0.131,0.082
	l-0.062,0.069l-0.022,0.044l-0.041,0.133l-0.021,0.049l-0.359,0.451l-0.066,0.127l0.045,0.385l0.369,0.422l-0.066,0.339l0.205,0.01
	l0.656-0.134l0.074-0.044l0.157-0.134L74,87.057l0.157,0.008l0.118,0.057l0.108-0.006l0.132-0.174l-0.162-0.219l-0.082-0.068
	l-0.101-0.051v-0.114l0.351-0.251l0.198-0.073l0.276-0.024l0.253,0.039l0.34,0.104l0.247,0.147l-0.025,0.172l0.071,0.103
	l0.015,0.049l0.008,0.075l-0.246,0.018l-1.695,0.639l-0.23,0.147l0.426,0.089l1.792-0.552h2.288v-0.112l-0.34-0.068l-0.951,0.113
	l-0.272-0.16l0.074-0.254l0.354-0.078l0.709-0.006l1.383-0.465l1.296-0.104l0.272-0.1l0.473-0.293l0.818-0.185l0.135-0.071
	l0.183-0.188l0.12-0.07l0.228-0.004l0.56,0.183l0.293,0.049l0.176-0.071v-0.167l-0.03-0.192l0.071-0.146l0.156-0.034l0.158,0.047
	l0.151,0.071l0.146,0.04l0.154-0.018l0.545-0.141l0.164-0.148l0.131-0.035l0.82-0.035l0.266-0.076l0.317-0.198l0.153-0.03
	l0.295,0.192l0.146,0.036l0.271-0.055l0.187-0.146l0.058-0.219l-0.132-0.272l0.449,0.019l1.418-0.2l0.303,0.019l-0.123,0.139
	l-0.238,0.104l-0.628,0.155l-0.079,0.025l-0.039,0.053l0.025,0.089l0.078,0.065l0.052-0.029l0.057-0.063l0.071-0.034l0.123-0.009
	l1.304-0.549l0.8-0.157l0.496-0.311l0.146-0.129l-0.008-0.153l-0.088-0.162l-0.027-0.17l0.053-0.135l0.148-0.056l0.324,0.032
	l0.146,0.105l-0.011,0.181L92.37,82.85l0.246-0.041l0.444-0.252l0.438-0.095l0.703-0.296l1.18-0.807l0.795-0.223l0.924-0.47
	l0.854-0.211l1.553-0.915l0.219-0.086l0.183-0.104l0.097-0.16L99.775,79.131 M82.329,86.215l-0.003-0.048l0.015-0.024l0.058,0.004
	v-0.103l-0.244,0.09l-0.791,0.013l-0.141,0.031l-0.088,0.038l-0.205,0.157l-0.303,0.111l-0.091,0.07l-0.183,0.081l-1.845,0.312
	l0.287,0.194l1.822-0.367l0.743-0.403l0.957-0.103L82.329,86.215"/>
</svg>
