<?xml version="1.0" encoding="utf-8"?>
<!-- Generator: Adobe Illustrator 16.0.4, SVG Export Plug-In . SVG Version: 6.00 Build 0)  -->
<!DOCTYPE svg PUBLIC "-//W3C//DTD SVG 1.1//EN" "http://www.w3.org/Graphics/SVG/1.1/DTD/svg11.dtd">
<svg version="1.1" id="Layer_1" xmlns="http://www.w3.org/2000/svg" xmlns:xlink="http://www.w3.org/1999/xlink" x="0px" y="0px"
	 width="100px" height="100px" viewBox="0 0 100 100" enable-background="new 0 0 100 100" xml:space="preserve">
<path fill="#555555" d="M99.74,78.216l0.158-0.427l0.094-0.536l0.004-0.245l-0.092-0.712l-0.059-0.108l0.021-0.224l0.028-0.146
	l-0.006-0.125l-0.307-0.522l-0.061-0.163l-0.043-0.207l-0.031-0.391l0.031-1.249l-0.084-0.409l-0.196-0.332l-0.46-0.527
	l-0.775-1.261l-0.088-0.211l-0.023-0.194l0.004-0.172l-0.02-0.145l-0.083-0.149l-0.218-0.253l-0.075-0.139l0.092-0.393l-0.013-0.41
	l-0.079-0.719l-0.091-0.382l-0.422-0.608l-0.135-0.271l-0.027-0.418l0.162-0.677l0.048-0.438l-0.044-0.426l-0.188-0.684
	l-0.041-0.305l0.031-0.195l0.123-0.323l0.035-0.133l0.02-0.214l-0.02-0.658l0.044-0.201l0.188-0.27l0.07-0.312l0.047-0.086
	l0.023-0.087l-0.051-0.123l-0.082-0.084l-0.158-0.045l-0.135-0.102l-0.157-0.045l-0.071-0.054l0.055,0.002l-0.006-0.144
	l-0.049-0.258l-0.166-0.307l-0.07-0.178l-0.028-0.258l0.096-1.283l-0.013-0.391l-0.186-0.804v-0.229l0.035-0.195l0.044-0.168
	l0.022-0.148l-0.047-0.42l-0.201-0.953l-0.043-0.442l0.098-2.501l-0.051-0.195l-0.119-0.169l-0.118-0.14l-0.065-0.098l0.004-0.41
	l0.213-0.997v-0.287l-0.131-0.336l-0.012-0.349l0.024-0.392l-0.019-0.476l0.019-0.071l0.042-0.096l0.036-0.111l-0.004-0.125
	l-0.06-0.104l-0.215-0.18l-0.162-0.544l-0.078-0.703l-0.138-0.344l-0.183-0.308l-0.178-0.4L94.812,44.5l-0.104-0.249l-0.314-0.402
	l-0.049-0.079l-0.015-0.049L94.3,43.704l-0.048-0.019l-0.048-0.039l-0.027-0.088l0.075-0.147v-0.115l-0.345-0.975l-0.035-0.452
	l0.192-0.475L93.6,40.838l-0.218-0.675l-0.149-0.743l-0.584-1.469l-0.209-0.719l-0.104-0.757l-0.002-0.827l0.196-1.388l-0.063-0.315
	l-0.091-0.283l-0.232-1.312l0.049-0.24l0.162-0.361l0.062-0.221l0.013-0.223l-0.074-0.32l-0.07-0.637l-0.315-1.169l0.118-0.848
	l0.354-0.728l0.281-0.771l-0.113-0.972l-0.311-0.691l-0.109-0.337l-0.099-0.784l-0.396-1.088l-0.1-0.705l-0.07-0.183L91.432,21.9
	l-0.078-0.185l-0.106-0.677l-0.138-0.317l-0.106-0.331l0.042-0.493v-0.004H30.66c-2.438,0-4.875,0.001-7.312,0.001H0
	c0.009,1.98,0.017,3.961,0.027,5.941c0.013,2.598,0.027,5.194,0.038,7.792c0.01,2.607,0.026,5.215,0.039,7.822
	c0.013,2.604,0.027,5.21,0.039,7.815c0.011,2.615,0.025,5.231,0.037,7.847c0.012,2.603,0.026,5.203,0.041,7.804
	c0.014,2.569,0.026,5.14,0.037,7.708c0.011,2.49,0.026,4.982,0.04,7.473h29.714c2.559,0,5.118,0.004,7.677,0.004h23.396
	c2.588,0,5.177,0.002,7.763,0.002h7.789c2.596,0,5.192-0.002,7.788,0c2.597,0,5.192,0,7.789,0H100l-0.264-1.434L99.74,78.216z"/>
</svg>
