<?xml version="1.0" encoding="utf-8"?>
<!-- Generator: Adobe Illustrator 16.0.4, SVG Export Plug-In . SVG Version: 6.00 Build 0)  -->
<!DOCTYPE svg PUBLIC "-//W3C//DTD SVG 1.1//EN" "http://www.w3.org/Graphics/SVG/1.1/DTD/svg11.dtd">
<svg version="1.1" id="Layer_1" xmlns="http://www.w3.org/2000/svg" xmlns:xlink="http://www.w3.org/1999/xlink" x="0px" y="0px"
	 width="100px" height="100px" viewBox="0 0 100 100" enable-background="new 0 0 100 100" xml:space="preserve">
<path fill="#555555" d="M91.186,54.236l-0.177,0.133l-0.077,0.113l-0.068,0.092l-0.477,0.324l-1.16,1.215l-1.324,2.135l-0.16,0.404
	l0.1,0.262l0.124-0.365l1.396-2.344l0.625-0.693l0.205-0.148l0.25-0.127l0.565-0.61l0.304-0.19l0.231-0.377l-0.155,0.061
	L91.186,54.236z M97.641,40.562l-0.072-0.067l-0.073-0.053l-0.159-0.07l-0.08-0.056l-0.097-0.043l-0.104-0.02l-0.1,0.026
	l-0.091,0.079l0.024,0.066l0.072,0.064l0.062,0.073l0.09,0.156l0.328,0.37l0.092,0.213l0.049,0.263l0.077,0.226l0.173,0.097
	l0.21-0.013l0.037-0.063l0.004-0.143l0.103-0.254l-0.39-0.498l-0.137-0.224L97.641,40.562z M93.002,52.277l-0.062,0.043
	l-0.037,0.127l-0.086,0.096l-0.084,0.076l-0.035,0.07l-0.076,0.194l-0.348,0.367l-0.108,0.151h0.069l0.174-0.262l0.834-0.59
	l0.044-0.016l0.04-0.008l0.037-0.021l0.039-0.051l-0.254-0.14L93.002,52.277z M95.102,51.148l-0.603,0.414l-0.306,0.121l-0.26-0.076
	l-0.101,0.363l-0.08,0.161l-0.129,0.142l1.229-0.844l1.025-0.365l0.217-0.205l0.18-0.107l0.07-0.066l0.062-0.099l-0.323,0.188
	L95.102,51.148z M94.062,32.17l0.021,0.199l0.044,0.196l0.232,0.089h0.463l0.111-0.039V32.52l-0.045-0.124l-0.033-0.133L94.85,31.88
	l-0.004-0.009h-0.199l-0.184-0.003l-0.076,0.089l-0.136,0.003l-0.058-0.093l-0.521-0.007l0.075,0.116L94.062,32.17z M95.318,32.456
	l0.082,0.477l0.164,0.335l0.035,0.243l0.156,0.339l0.037,0.187l0.068,0.911l0.078,0.38l-0.021-0.004l-0.037,0.021l-0.016,0.049
	l0.035,0.077l0.154,0.169l0.315,0.626l0.116,0.459l0.16,0.408l0.115,0.423L96.719,37.9v0.096l0.083,0.229l0.054,0.253l0.08,0.224
	l0.166,0.146l0.135-0.103l0.111,0.08l0.084,0.183l0.049,0.22l-0.267,0.083l-0.096-0.023l-0.093-0.147l-0.045,0.241l0.11,0.165
	l0.173,0.064l0.146-0.09h0.07l0.769,1.055l0.167,0.365l0.029,0.489l0.066,0.253l0.25,0.153l0.012,0.11l-0.002,0.126l0.029,0.098
	l0.076,0.049l0.221,0.093l0.09,0.053l-0.34-0.819l-0.113-0.577l-1.693-3.252l-0.484-1.431l-0.326-0.685l-0.051-0.226l-0.021-0.333
	l-0.05-0.29l-0.17-0.565l-0.463-2.296v-0.013h-0.158l-0.152-0.005l0.005,0.018l-0.005,0.077L95.318,32.456z M96.486,44.065
	l-0.113-0.253v-0.1l0.27-0.027l0.279,0.012l0.044-0.094l-0.011-0.293l-0.051-0.195l-0.155-0.25l-0.03-0.131l0.051-0.208l0.1-0.186
	l0.084-0.2l0.003-0.253l-0.047-0.097l-0.192-0.285l0.004-0.187l-0.535-0.861l-0.324-0.388l-0.383-0.271l-0.006,0.137l-0.033,0.125
	l-0.049,0.112l-0.072,0.107h0.136l0.123,0.03l0.112,0.061l0.104,0.099l-0.226,0.113l-0.236-0.047l-0.24-0.103l-0.236-0.06
	l0.063,0.173l0.101,0.187l0.125,0.147l0.229,0.105l0.035,0.094l-0.026,0.092l-0.097,0.043l-0.069-0.02l-0.272-0.15l-0.223-0.315
	l-0.166-0.169l-0.074,0.047l-0.086,0.099l-0.377,0.26l-0.082,0.123v1.7l-0.057,0.466l-0.406,1.094h-0.07l-0.053-0.1l-0.029-0.079
	l-0.01-0.061l0.01-0.043l-0.316,0.062l-0.311,0.024l-0.266-0.116l-0.193-0.351h0.271l0.366,0.14l0.339,0.066l0.192-0.207
	l-0.068-0.042l-0.113-0.164l-0.057-0.172l0.115-0.083l0.062-0.073l-0.053-0.164l-0.105-0.167l-0.097-0.087h0.08l-0.164-0.009
	l-0.187-0.044l-0.181-0.076l-0.129-0.094l-0.086-0.147h0.134l0.303,0.103l0.328-0.086l0.061-0.359l-0.137-0.399l-0.252-0.211v-0.096
	l0.244-0.046l0.2-0.209l0.153-0.291l0.1-0.302l-0.16,0.034l-0.386,0.146l0.091-0.482l0.123-0.13l0.248,0.14l0.021-0.224
	l-0.217-0.208l-0.311-0.156l-0.27-0.067l-1.077,0.086l-1.001,0.283l-0.254,0.212l0.101,0.146l0.236,0.137l0.149,0.177l-0.291-0.014
	l-0.476-0.223l-0.243-0.047l-0.126,0.054l-0.097,0.086l-0.082,0.042l-0.08-0.089l0.003-0.083l0.03-0.12l0.013-0.139l-0.046-0.14
	l-0.37-0.114l-0.597,0.123l-0.592,0.24l-0.365,0.232h-0.083l-0.296-0.086l-1.559-0.007V40.17l0.393-0.551l0.07-0.197l-0.174-0.033
	l-0.035-0.114l0.006-0.163l-0.028-0.167l-0.089-0.115l-0.1-0.097l-0.086-0.124l-0.07-0.392L85.323,37.9l-0.037-0.153l0.009-0.917
	l0.047-0.29l0.106-0.247l0.186-0.263l0.185-0.177l0.065-0.116l0.023-0.184l-0.039-0.129l-0.203-0.236l-0.069-0.159l0.248,0.093
	l0.217,0.15l0.101,0.245L86.059,35.9l-0.086,0.133l-0.164,0.19l-0.061,0.142l-0.152,0.623l0.061,0.366l0.263,0.621l0.159,0.759
	l0.23,0.243h0.258l0.189-0.326l0.104,0.117l0.32,0.502l0.137,0.068l0.209,0.014l0.386-0.03l0.271-0.07l0.368-0.169l0.356-0.24
	l0.242-0.28l-0.116,0.007l-0.036-0.007V38.46l0.184-0.104l1.131-0.179v-0.104l-0.209-0.05l-0.312-0.142L89.503,37.7l-0.123-0.146
	l-0.057-0.109l-0.405-0.227l-0.08-0.103l-0.087-0.143l-0.146-0.322l0.195,0.133L89,36.969l0.195,0.12l0.185-0.05l0.188,0.299
	l0.312,0.2l1.186,0.529l0.271,0.06l0.28-0.053v-0.087l-0.207-0.189l-0.392-0.556l-0.131-0.12l-0.103-0.037l-0.11-0.096l-0.093-0.124
	l-0.051-0.123l-0.005-0.189l0.078,0.013l0.174,0.177l0.313,0.253l0.104,0.042l0.072,0.073l0.19,0.32l0.353,0.216l0.11,0.047
	l0.112,0.013l0.355-0.013v-0.086h-0.076v-0.104l0.408-0.041l0.131-0.046l0.25-0.156l0.068-0.097l-0.126-0.043l-0.133-0.073
	l-0.11-0.326l-0.275-0.146l-0.115-0.167L92.23,36.08l-0.155-0.174l-0.224-0.186L91.6,35.571l-0.254-0.064l-0.033-0.076l0.057-0.167
	l0.102-0.163l0.105-0.076l0.146,0.039l-0.004,0.094l-0.08,0.099l-0.101,0.061l0.597,0.175l0.18,0.101l0.224,0.2l0.194,0.233
	l0.095,0.07l0.206,0.058l0.091,0.072l0.272,0.423l0.191,0.2l0.232,0.083l0.232,0.034l0.799,0.252v-0.096l-0.166-0.066l-0.16-0.117
	l-0.289-0.289l0.146-0.087l-0.016-0.215l-0.081-0.266l-0.093-0.523l-0.106-0.119l-0.126-0.098l-0.1-0.212l0.219,0.016l0.17,0.096
	l0.305,0.266L94.4,35.773l0.061,0.119l0.163,0.073l0.16,0.117l0.036,0.089l0.01,0.2l0.023,0.089l0.062,0.073l0.252,0.21l0.137,0.226
	l0.066,0.156l0.027,0.14l-0.027,0.11l-0.049,0.113l-0.021,0.123l0.059,0.133l0.285,0.406l0.19,0.213l0.188,0.097l0.209-0.083
	L96.18,38.13l-0.152-0.306l-0.09-0.269l-0.047-0.212l-0.605-1.614l-0.04-0.177l-0.08-0.22l-0.366-0.566l-0.1-0.216l0.06-0.638
	l-0.022-0.374l-0.143,0.007l-0.091,0.28l-0.069,0.163l-0.039-0.009l0.022,0.142l0.043,0.11l0.069,0.103l0.101,0.12l-0.233-0.16
	l-0.282-0.362l-0.138-0.336l0.197-0.101l-0.242-0.159l-0.246-0.233l-0.192-0.275l-0.095-0.287l0.004-0.222l0.066-0.268v-0.169
	l-0.007-0.03c-2.623-0.028-5.246-0.051-7.87-0.073c-2.623-0.023-5.246-0.054-7.871-0.077s-5.248-0.054-7.873-0.076
	c-2.623-0.022-5.248-0.054-7.871-0.077c-2.625-0.023-5.248-0.054-7.873-0.077c-2.623-0.022-5.248-0.054-7.872-0.075
	s-5.248-0.054-7.872-0.077c-2.623-0.023-5.247-0.055-7.87-0.077c-0.085,0-0.17-0.002-0.254-0.003l-0.077-0.023l-0.04-0.04
	l-0.076-0.154l-0.533,0.878l-0.1,0.284l0.018,0.066l0.162,0.339l0.004,0.126l-0.18,0.511l-0.293,0.585l-0.04,0.13l-0.007,0.096
	l0.02,0.061l0.121,0.239l0.151,0.216l0.031,0.064l0.02,0.074l-0.022,0.039l-0.055,0.01l-0.348-0.047l-0.597-0.199h-0.057
	l-0.057,0.023l-0.871,0.589l-0.311,0.252l-0.046,0.064l-1.135,2.142l-0.089,0.117l-0.114,0.101l-0.106,0.053l-0.182,0.163
	l-0.11,0.07l-0.097,0.042l-0.08,0.005l-0.09-0.014l-0.169-0.047l-0.074-0.036l-0.062-0.041l-0.051-0.042l-0.043-0.054l-0.02-0.06
	l-0.018-0.07l-0.009-0.066l-0.015-0.066l-0.022-0.063l-0.036-0.044l-0.048-0.037l-0.062-0.026l-0.066-0.013l-0.156-0.007
	l-0.073-0.014l-0.063-0.03l-0.106-0.081l-0.06-0.02h-0.044l-0.06,0.011l-0.127,0.06L23.32,37.62l-0.062,0.028l-0.239-0.007
	l-0.095,0.009l-0.282,0.14l-0.399,0.11l-0.105,0.043l-0.185,0.097l-0.199,0.154l-0.393,0.413l-0.116,0.158l-0.146,0.327l-0.05,0.09
	l-0.206,0.269l-0.084,0.091l-0.073,0.063l-0.049,0.033l-0.055,0.026l-0.518,0.326l-0.1,0.047l-0.07,0.014h-0.077l-0.073-0.019
	l-0.066-0.037l-0.057-0.042l-0.043-0.052l-0.04-0.053l-0.033-0.06l-0.063-0.18l-0.01-0.08l0.007-0.079l0.017-0.108l0.07-0.17
	l0.016-0.06v-0.043l-0.016-0.039l-0.188-0.264l-0.047-0.046l-0.082-0.016l-0.107,0.023l-0.542,0.269l-0.269,0.101l-0.772,0.422
	L17.5,39.533l-0.022,0.04l-0.017,0.053l0.007,0.199l-0.02,0.064l-0.034,0.06l-0.133,0.149l-0.054,0.117l-0.026,0.08l-0.066,0.103
	l-0.066,0.046l-0.073,0.01l-0.06-0.02l-0.117-0.101l-0.159-0.112l-0.144-0.064l-0.096-0.023H16.3l-0.173,0.034l-0.091,0.043
	l-0.066,0.056l-0.036,0.06l-0.03,0.062l-0.022,0.076l-0.014,0.076l-0.004,0.077l0.014,0.073l0.018,0.066l0.096,0.226v0.07
	l-0.027,0.084l-0.13,0.163l-0.036,0.063l-0.023,0.14l-0.02,0.069l-0.061,0.124l-0.278,0.419l-0.29,0.339l-0.09,0.06l-0.069,0.02
	l-0.163-0.042l-0.469-0.044L14.2,42.412h-0.06l-0.063,0.024l-0.59,0.305l-0.392,0.117l-0.09,0.04l-0.069,0.047L12.66,43.22
	l-0.113,0.071l-0.284,0.105l-0.085,0.047l-0.067,0.049l-0.036,0.05l-0.239,0.236l-0.233,0.319l-0.073,0.034l-0.086,0.002
	l-0.084-0.02l-0.1-0.003l-0.116,0.021l-0.101,0.053l-0.166,0.153l-0.123,0.136l-0.15,0.12l-0.608,0.259l-0.1,0.068l-0.073,0.066
	l-0.116,0.139l-0.253,0.243L9.373,45.43l-0.07,0.036l-0.741,0.15L8.48,45.609l-0.076-0.023l-0.06-0.04L8.29,45.499l-0.046-0.045
	L8.16,45.426l-0.109-0.007l-0.22,0.072L7.705,45.51l-0.104,0.003l-0.066-0.016l-0.073-0.014L7.39,45.485l-0.073,0.017l-0.11,0.038
	l-0.04,0.01H7.123l-0.398-0.034L6.65,45.52l-0.229,0.056l-0.22,0.084l-0.266,0.163l-0.177,0.14l-0.11,0.062l-0.093,0.041
	L5.197,46.14L5.01,46.205l-0.096,0.056l-0.07,0.06l-0.183,0.373l-0.054,0.07L4.519,46.86l-0.077,0.047l-0.473,0.166l-0.1,0.056
	l-0.084,0.066L3.53,47.472l-0.037,0.063l-0.022,0.053L3.46,47.642v0.049l0.05,0.181l0.007,0.069l-0.013,0.081l-0.021,0.07
	L3.45,48.158l-0.196,0.283l-0.033,0.066l-0.047,0.14l-0.017,0.075l-0.018,0.44l-0.052,0.113l-0.094,0.126l-0.22,0.22l-0.11,0.089
	l-0.079,0.053L2.541,49.77l-0.289-0.002l-0.606,0.069l-0.163-0.002l-0.077-0.014l-0.053-0.027L1.3,49.755l-0.087-0.089l-0.069-0.028
	L1.05,49.636l-0.176,0.055l-0.09,0.048l-0.07,0.055l-0.199,0.194l-0.133,0.159l-0.066,0.131l-0.024,0.06l-0.02,0.106
	C0.179,51.455,0.088,52.467,0,53.479c2.562-0.03,5.126-0.071,7.688-0.104c2.051-0.025,4.102-0.043,6.152-0.084l3.298-1.098
	l0.361-0.078l0.048,0.115l0.043,0.049l0.083,0.029l0.06-0.013l0.1-0.049l0.124-0.088l0.266-0.144l0.123-0.09l0.08-0.08l0.047-0.156
	l0.036-0.075l0.076-0.062l0.093-0.006l0.135,0.008l0.086-0.012l0.106-0.041l0.373-0.195l0.579-0.188l0.082-0.015l0.406-0.006
	l0.083-0.021l0.06-0.03l0.055-0.056l0.085-0.078l0.074-0.03l0.405-0.002l0.087-0.029l0.061-0.058l0.06-0.203l0.056-0.077
	l0.073-0.069l0.167-0.11l0.08-0.03l0.076,0.006l0.039,0.04l0.037,0.043l0.051,0.081l0.026,0.032l0.043,0.03l0.046,0.018l0.853-0.08
	c0.305,0.016,0.609,0.028,0.914,0.048l0.307,0.013c2.576,0.149,5.154,0.274,7.732,0.403c1.575,0.078,3.15,0.164,4.725,0.246
	l0.144,0.027l0.093,0.036l0.047,0.043l0.044,0.051l0.033,0.054l0.022,0.057l0.017,0.066l0.003,0.071l-0.005,0.074l-0.024,0.069
	L36.882,52l-0.017,0.057l-0.01,0.051l-0.004,0.058l0.011,0.06l0.017,0.065l0.04,0.067l0.04,0.062l0.077,0.062l0.06,0.006
	l0.062-0.021l0.931-0.67l0.077-0.041l0.051,0.006l0.036,0.02l0.037,0.044c0.503,0.67,1.007,1.338,1.514,2.004l0.04,0.084l0.007,0.09
	l-0.044,1.412l0.004,0.094l0.022,0.086l0.07,0.07l0.086,0.026l0.446,0.009l0.127,0.006c2.563,0.047,5.127,0.119,7.69,0.172
	c1.093,0.022,2.186,0.051,3.277,0.069l0.125,0.007l0.422,0.008l0.343,0.062l0.224,0.076c1.842,1.877,3.678,3.762,5.52,5.639
	c1.801,1.837,3.602,3.673,5.41,5.503c0.416,0.42,0.832,0.842,1.248,1.266l0.312-0.096v0.084l-0.054,0.049l-0.101,0.146l0.992-0.369
	l0.709-0.189l0.262-0.162l0.113-0.389h0.086l0.062,0.254l-0.007,0.109l-0.055,0.1l0.381,0.096l0.91-0.205l0.291,0.06l0.146,0.071
	l0.623-0.021l0.217,0.022l1.015,0.287l0.192,0.021l0.162-0.055l0.101-0.111l0.416-0.648l0.213-0.498l0.045-0.18l-0.015-0.467
	l0.022-0.223l0.074-0.189l-0.117-0.326l-0.119-0.969L71.7,64.33h0.069l0.178,0.588l0.215,0.527l-0.089,0.391l0.093,1.068
	l-0.163,0.397v0.082l0.04,0.104l-0.018,0.119l-0.092,0.248l0.349-0.375l0.202-0.729l0.211-1.494l0.082-0.215l0.254-0.5l0.133-0.432
	l0.184-0.207l0.355-0.326l0.615-0.945l0.699-0.818l1.492-1.258l0.902-0.5l0.583-0.168l0.182-0.068l0.101-0.062l-0.032-0.043
	l-0.062-0.047v-0.092l0.135-0.146l-0.086-0.147l-0.197-0.125l-0.203-0.045l-0.089-0.062l-0.121-0.141l-0.104-0.152l-0.039-0.11
	l0.055-0.119l0.109-0.066l0.104-0.01l0.049,0.057l0.092,0.029l0.188-0.043l0.161-0.164l0.019-0.336l-0.062-0.182l-0.114-0.188
	l-0.14-0.097l-0.145,0.085l-0.07-0.228l-0.084-0.713l0.121,0.182l0.125,0.031l0.115-0.031l0.1,0.006l0.145,0.104l0.077,0.107
	l-0.034,0.077l-0.188,0.007v0.084l0.185,0.146l0.429,0.549l0.08,0.152l-0.113,0.254l-0.492,0.379l-0.162,0.195l0.402,0.098
	l0.061,0.053l0.04,0.015l0.229,0.217l0.207-0.041l0.279-0.192l0.137-0.043l0.313-0.176l0.584-0.771l0.34-0.173l0.051-0.051
	l-0.102-0.242l0.011-0.09l0.099-0.014l0.068,0.076l0.062,0.094l0.073,0.041l0.126-0.074l0.104-0.146l0.066-0.207l0.016-0.235
	l-0.049-0.062l-0.08-0.236l0.004-0.203l0.203,0.037v0.053l0.069,0.318l0.246,0.375l-0.194,0.145v0.152l0.107,0.086l0.123-0.051
	l0.105-0.074l1.629-0.484l0.365-0.239l2.186,0.187l-0.066-0.173l-0.246-0.387l-0.086,0.08l-0.094,0.057l-0.104,0.033l-0.181,0.01
	l0.167-0.235l0.242-0.207l0.279-0.146l0.277-0.057l0.158,0.137l0.047,0.312l0.021,0.357l0.079,0.271l0.283,0.168l0.119-0.295
	l0.073-1.162l0.095,0.031l0.158,0.231l0.246,0.222l-0.188,0.19l0.053,0.209l0.195,0.174l0.239,0.082l0.25,0.008l0.112-0.032
	l0.102-0.072l0.057-0.113l-0.021-0.098l-0.035-0.082v-0.074l0.075-0.109l0.08-0.062l0.08-0.05l0.079-0.059l0.376-0.475l0.181-0.164
	l0.066-0.078l0.068-0.133l0.03-0.127l0.007-0.234l0.041-0.104h0.069l0.013,0.076l0.051,0.131l0.02,0.072l0.441-0.199l0.098-0.08
	l0.12-0.223l-0.024-0.113l-0.072-0.086l-0.022-0.138l0.065-0.213l0.094-0.021l0.131,0.05l0.18-0.007l0.127-0.079l0.159-0.218
	l0.106-0.076v-0.104l-0.268-0.166l-0.148-0.248l-0.174-0.229l-0.351-0.104l0.091,0.207l0.189,0.289l0.036,0.213l-0.11,0.033
	l-0.24,0.016l-0.24,0.084l-0.109,0.242l-0.102-0.025l-0.492,0.154l-0.182,0.012l-0.063-0.034l-0.058-0.052l-0.029-0.08l0.004-0.112
	l0.052-0.142l0.074-0.021l0.087,0.009l0.292-0.156l0.062-0.076l-0.063-0.127l-0.203-0.285l0.015-0.123l0.057-0.217l0.014-0.133
	l-0.023-0.049l-0.105-0.171l-0.023-0.061l-0.057-0.027l-0.13,0.187l-0.134,0.258l-0.072,0.189l-0.004,0.166l0.011,0.186
	l-0.007,0.201l-0.07,0.194l-0.152-0.229l-0.17-0.107l-0.174-0.028h-0.162l-0.229,0.084l0.022,0.19l0.244,0.379l0.06,0.269
	l-0.177-0.064l-0.264-0.186l-0.195-0.109l-0.013-0.055l-0.061-0.119l-0.091-0.129l-0.105-0.08l-0.134-0.01l-0.119,0.043
	l-0.217,0.151l-0.195,0.185l-0.19,0.221l-0.195,0.182l-0.303,0.113l-0.11,0.135l-0.082,0.025L85.232,54.5l-0.047-0.066l-0.054-0.094
	l-0.392-0.283l-0.547-0.172l-0.508-0.094l-0.465-0.213l-0.404-0.549l-0.26-0.58l-0.181-0.256l-0.224-0.109l-0.02-0.143l-0.479-0.793
	l0.404,0.184l0.528,0.766l0.417,0.176l0.148,0.086l0.507,0.566l0.312,0.256l0.391,0.223l0.352,0.07l0.49-0.027l0.432-0.155
	l0.188-0.312l0.245-0.189l0.5-0.285l0.397-0.297l-0.06-0.223l0.35-0.131l0.242-0.261l0.064-0.344l-0.188-0.392l-0.159,0.101v0.087
	l0.051,0.03l0.053,0.045l0.057,0.028l-0.18,0.101l-0.123-0.038l-0.109-0.093l-0.133-0.073l-0.473-0.033l-0.15-0.054l0.127-0.14
	l0.174-0.086l0.186-0.041l0.174-0.014l0.084-0.046l0.1-0.104l0.137-0.095l0.188-0.034l0.31,0.129l0.156,0.025l0.066-0.116
	l-0.061-0.124l-0.137-0.093l-0.266-0.123v-0.087l0.562,0.126l0.257,0.004l0.104-0.176l0.036-0.143l0.113-0.238l-0.026-0.092
	l-0.171-0.197l-0.072-0.129l-0.033-0.144l-0.27-0.022l-1.021-0.339l-0.928-0.216l-0.712-0.419l-0.677-0.169l-0.17-0.107
	l-0.346-0.273l-0.464-0.276l-0.462-0.117l-0.354,0.197l-0.097-0.428l-0.11-0.17l-0.219-0.067l-0.129-0.07l-0.117-0.17l-0.18-0.419
	l0.426,0.367l0.227,0.146l0.506,0.126l0.54,0.31L83.979,47l0.58,0.077l0.227,0.112l0.232,0.236l0.256,0.124l0.608-0.16l0.329,0.083
	l0.055-0.083l0.069-0.053l0.086-0.034l0.104-0.02l-0.03,0.312l0.239,0.213l0.326,0.066l0.235-0.123l-0.043-0.1l-0.062-0.077
	L87.1,47.519l-0.111-0.047l0.035-0.06l0.023-0.049l0.029-0.044l0.062-0.037v-0.083l-0.072-0.049l-0.073-0.064L86.834,46.9l0.04-0.07
	l0.112-0.299L86.917,46.4l-0.094-0.119l-0.126-0.089l-0.174-0.047l0.47-0.299l0.235-0.1l0.304,0.024l0.522,0.143l0.256,0.009
	l0.293-0.06l-0.17,0.38l-0.188,0.097l-0.565-0.091l-0.289,0.063l-0.052,0.156l0.12,0.187l0.221,0.16V46.9l-0.171,0.14l0.157,0.147
	l0.477,0.189l-0.045,0.086l-0.033,0.054l-0.053,0.03l-0.101,0.02l0.141,0.229l0.152,0.133l0.399,0.201l-0.037-0.097l-0.049-0.083
	l-0.067-0.062l-0.079-0.047l0.086-0.129l0.117-0.056l0.129,0.016l0.13,0.083l0.247-0.469l-0.094-0.259l0.119-0.104l0.181,0.066
	l0.093,0.253l0.018,0.445l0.047,0.23l0.1,0.113v0.1H89.08l0.049,0.146l0.066,0.028l0.084-0.014l0.1,0.037l0.163,0.126l0.069,0.14
	l0.184-0.087l0.053-0.192l-0.037-0.196l-0.082-0.086l-0.006-0.101l0.002-0.192l0.09-0.113l0.258,0.13l0.093,0.143l0.155,0.359
	l0.344,0.233l0.129,0.03l0.059-0.149l0.037-0.147l0.074-0.052l0.08,0.026l0.121,0.256l0.199,0.06l0.762,0.024l0.09-0.074
	l0.143-0.187l0.131-0.093l0.437-0.139l0.163-0.014v-0.087l-0.124-0.199l0.058-0.31l0.17-0.196l0.213,0.14l-0.084,0.096l0.111,0.086
	l0.072-0.016l0.039-0.11l0.014-0.192l0.057-0.107l0.109-0.096l0.062-0.123l-0.082-0.194l0.285-0.1l0.07-0.046l0.065-0.103
	l0.004-0.071l-0.032-0.066l-0.012-0.083l-0.029-0.089l0.018-0.08l0.21-0.04l0.053-0.03l0.646-0.672l0.03-0.133L95,44.994
	l0.014-0.243l0.09-0.213l0.094,0.314l0.131,0.266l0.191,0.116l0.276-0.121l0.026,0.043l0.021,0.044l0.013,0.047l0.011,0.056
	l-0.08,0.017l-0.147,0.066v0.103l0.346-0.002l0.148-0.03l0.126-0.071l0.021-0.086l-0.014-0.123l0.012-0.11l0.103-0.046L96.48,45
	l0.069-0.045l0.05-0.061l0.16-0.29l-0.018-0.142L96.486,44.065z M71.617,68.406l-0.108-0.115l-0.173-0.018l-0.17,0.102l-0.088,0.217
	l0.064,0.139l0.162,0.09l0.187,0.07l0.126,0.078l0.088-0.119l0.229-0.812l-0.24,0.303L71.617,68.406z M73.036,64.658l-0.14,0.326
	l-0.084,0.391l-0.117,0.346l0.16-0.166l0.16-0.318l0.227-0.637l0.029-0.014h0.029l0.02-0.012l-0.002-0.066L73.036,64.658z
	 M99.963,44.734l-0.21-0.715c-0.019-0.195-0.037-0.391-0.058-0.586l-0.088-0.366l-0.147-0.329l-0.194-0.184l-0.104,0.07l0.069,0.263
	l0.192,0.47l0.021,0.268l0.285,1.011l0.07,0.57l0.012,0.326l-0.035,0.15l-0.155,0.306l-0.04,0.156l0.003,0.16l0.058,0.266
	l0.017,0.15l-0.026,0.306l-0.109,0.5l-0.049,0.519l-0.138,0.676l-0.069,0.169l0.008,0.419l-0.305,0.243l-0.781,0.283l-0.705,0.369
	l-0.051,0.007l-0.017-0.037l-0.011-0.051L97.372,50.1l-0.062,0.026l-0.022,0.063l-0.006,0.066l-0.017,0.04l-0.052,0.056
	l-0.028,0.066l-0.051,0.053l-0.109,0.012l-0.101,0.06l-0.1,0.097l-0.027,0.086l0.113,0.039l0.093-0.029l0.154-0.125l0.062-0.024
	l0.18-0.048l0.426-0.199l0.24-0.042l0.429-0.196l0.356,0.016l0.109-0.016l0.209-0.146l0.109-0.223l0.279-1.048l0.227-2.32
	L100,45.292L99.963,44.734z M78.333,59.812l-0.446,0.26l-0.203,0.061l-0.203,0.055l-1.453,0.957l-0.405,0.404l-0.218,0.449
	l0.184-0.205l1.165-1.035l0.157-0.066l0.369-0.092l0.918-0.494l0.293-0.252l0.033-0.018l0.033,0.004l0.021-0.018l-0.006-0.068
	L78.333,59.812z M87.708,58.043l-0.14-0.152l-0.119-0.094l-0.775-0.279h-0.232v0.094l0.131,0.087l0.568,0.202l0.412,0.312
	l0.049,0.049l0.16-0.071L87.708,58.043z M83.706,57.424l-1.771,0.32l-0.312,0.129l-0.197,0.213l3.068-0.725l0.29-0.029l1.356,0.092
	v-0.092l-0.589-0.17L83.706,57.424z"/>
</svg>
