<?xml version="1.0" encoding="utf-8"?>
<!-- Generator: Adobe Illustrator 16.0.4, SVG Export Plug-In . SVG Version: 6.00 Build 0)  -->
<!DOCTYPE svg PUBLIC "-//W3C//DTD SVG 1.1//EN" "http://www.w3.org/Graphics/SVG/1.1/DTD/svg11.dtd">
<svg version="1.1" id="Layer_1" xmlns="http://www.w3.org/2000/svg" xmlns:xlink="http://www.w3.org/1999/xlink" x="0px" y="0px"
	 width="100px" height="100px" viewBox="0 0 100 100" enable-background="new 0 0 100 100" xml:space="preserve">
<path fill="#555555" d="M89.828,2.371l-0.829,0.12l-0.392,0.12L88.43,2.755L88.164,3.09l-0.126,0.109L87.268,3.36l-0.543,0.349
	l-1.476,0.272l-6.903,3.323l-6.938,5.918l-0.785,0.25l-0.729,0.451l-0.513,0.057l-0.688-0.357l-0.188-0.048l-0.239,0.118
	l-0.433,0.386l-0.276,0.081l-0.545-0.024l-2.58-0.619l-0.916,0.02l-2.84,0.804l-1.662,0.928l-0.929,0.268l-1.476,0.059l-0.354,0.216
	l-0.303,0.292l-0.956,0.616l-0.424,0.16l-0.997-0.057l-0.894-0.449l-1.498-1.225l-0.203-0.126l-0.377-0.172l-0.152-0.107
	l-0.196-0.261l-0.153-0.24l-0.15-0.179l-0.229-0.083l0.279,0.614l0.896,0.797l0.443,0.515l-1.031-0.748l-0.568-0.296l-0.538-0.12
	l-0.253,0.031l-0.335,0.131l-0.208,0.032l-0.292-0.028l-0.164-0.083l-0.436-0.294l-0.887,0.155l-1.061,0.678l-1.007,0.417
	l-0.721-0.632l-0.194,0.2l-0.242,0.114l-0.196-0.07l-0.081-0.349l-0.209-0.056l-1.266-0.051l0.349-0.185l0.771-0.035l0.355-0.186
	l0.29,0.211l0.152-0.113l0.107-0.257l0.164-0.213l0.202-0.089l0.216-0.055l0.545-0.035l1.004-0.231l0.475-0.03l0.499,0.262
	l0.469-0.375l0.719-0.181l1.462-0.063l-0.14-0.469l-0.133-0.272l-0.216-0.142l-0.815-0.102l-0.222,0.03l-0.346,0.201l-0.172-0.126
	l-0.133-0.188l-0.1-0.1l-0.24-0.477l-0.266-0.327L46.27,11.24l0.037,0.157l-0.05,0.362l-0.1,0.395l-0.109,0.254l-0.272,0.253
	l-0.333,0.157l-0.722,0.157l-0.424-0.017l-0.746-0.283l-0.355-0.07l-0.632-0.281l-1.094-1.371l-0.549-0.51l-0.569-0.007
	l-0.728-0.185l-1.333-0.568L37.729,9.28L36.73,8.211l-0.499-0.323L35.99,7.875l-0.505,0.179l-0.36,0.048l-0.329-0.043l-1.658-0.523
	l-0.12-0.225L33,7.047c-3.842,0.148-7.685,0.294-11.527,0.44c-3.762,0.143-7.523,0.287-11.285,0.43
	c-1.897,0.072-3.793,0.146-5.69,0.216c-0.029,3.831-0.054,7.662-0.086,11.493C4.38,23.381,4.35,27.138,4.318,30.893
	c-0.031,3.698-0.056,7.395-0.084,11.092c-0.029,3.784-0.062,7.567-0.095,11.351c-0.033,3.77-0.059,7.539-0.088,11.309
	c-0.03,3.748-0.062,7.496-0.095,11.244c-0.015,1.729-0.03,3.457-0.043,5.186l1.201-0.743l0.342-0.37L5.659,79.8l0.259-0.065
	l0.189,0.094l0.271,0.41l0.115,0.094l0.316,0.182l1.094,1.115l0.911,0.092l1.846-0.846l0.917-0.184l0.462,0.266l0.303,0.511
	l0.227,0.501l0.242,0.223l0.416,0.08l0.525,0.193l0.904,0.479l0.322,0.347l0.226,0.464l0.127,0.508l0.045,0.479l0.107,0.384
	l0.253,0.305l0.292,0.264l0.227,0.265l0.203,0.451l0.133,0.491l0.076,0.562l0.024,0.658l0.203,0.475l0.468,0.354l2.39,0.896
	l0.475,0.057l1.916-0.375l0.505,0.074l0.867,0.41l0.911,0.256l0.333,0.399l0.286,0.49l0.329,0.442l1.447,1.471l0.847,0.58
	l0.937,0.203l0.429-0.135l0.373-0.322l0.266-0.445l0.103-0.514l0.24-0.176l1.51-0.492L32,91.812l0.442,0.18l0.405,0.281l0.353,0.349
	l0.196,0.108l0.761-0.016l0.303,0.074l0.612,0.275l0.272,0.191l0.152,0.192l0.513,0.841l0.266,0.297l0.163,0.072l0.771-0.182
	l0.26-0.219l0.322-0.195l0.501-0.045l0.979,0.185l0.456-0.021l0.379-0.244l0.172-0.272l0.226-0.573l0.114-0.209l0.172-0.136
	l0.575-0.218l0.303-0.291l0.298-0.379l0.34-0.327l0.443-0.142l0.544-0.082l1.303-0.664l0.556-0.09l0.252,0.186l0.07,0.396v0.543
	l0.063,0.531l0.519,1.809l0.625,1.045l0.937,0.528l0.994,0.347l0.821,0.519l1.543,1.575l0.219,0.387l0.354,0.878l0.218,0.322
	l0.004,0.021L52.551,100l0.938-0.102l1.809-0.649l1.605-0.133l0.386-0.153l0.31-0.473l0.166-0.481l0.455-2.399l0.24-0.59
	l0.296-0.252l1.03,0.151l0.477-0.092l0.328-0.449l0.018-0.276l-0.051-0.367l-0.086-0.35l-0.203-0.476l0.037-0.278l0.141-0.391
	l-0.07-0.69l-0.163-0.448l-0.196-0.375l-0.158-0.471l0.062-0.641l0.368-0.327l0.401-0.283l0.248-0.632l0.277-0.48l0.107-0.256
	l0.146-1.119l0.337-0.847l0.611-1.06l0.721-0.949l0.686-0.52l0.506,0.012l0.398,0.266l0.334,0.309l0.67,0.279l0.291,0.329
	l0.197,0.433l0.102,0.437l0.076,0.147l0.049,0.145l0.02,0.186l-0.045,0.158l-0.105,0.074l-0.103,0.046L66.16,86.04l-0.062,0.364
	l-0.113,0.156l-0.043,0.133l0.151,0.299l0.403,0.209l0.469-0.243l0.416-0.444l0.256-0.389l0.162-0.658l0.135-0.326L68.152,85
	l0.264,0.096l0.375,0.407l0.232,0.095l0.422-0.125l-0.01-0.318l-0.197-0.428L69.1,84.268l0.106-0.988l-0.043-0.488l-0.279-0.209
	l-0.133-0.062l-0.157-0.146l-0.146-0.186l-0.083-0.168l-0.094-0.361l0.006-0.096l0.127-0.012l1.074-0.438l0.17-0.256l0.045-0.629
	l-0.06-1.021l0.026-0.34l0.166-0.433l1.029-1.205l0.334-0.935l0.432-0.127l0.531-0.015l0.468-0.182l0.146,0.204l0.17-0.147
	l0.127-0.047l0.133,0.047l0.166,0.147l0.252-0.34l0.15-1.069l0.172-0.49l1.612-1.557l0.343-0.164l0.908,0.008l0.203,0.217
	l0.202,0.484l0.286,0.516l0.423,0.31l0.505-0.069l0.748-0.701l0.436-0.172l0.442-0.049l0.476-0.133l0.429-0.186l0.323-0.217
	l0.607-0.67l0.385-0.323l0.85-0.315l0.328-0.421l0.492-0.911l0.688-0.779l2.384-1.883l1.475-0.851l0.039-0.283l0.252-0.758
	l0.015-0.134l-0.033-0.312l0.021-0.122l0.094-0.115l0.349-0.28l0.113-0.534l-0.07-0.368l-0.226-0.321l-0.336-0.387l-0.127-0.333
	l0.177-0.231l0.469-0.305l0.113-0.285l0.09-0.552l0.076-0.284l0.133-0.322l0.138-0.234l0.398-0.494l0.05-0.229l-0.08-0.301
	l-0.114-0.321l-0.063-0.288l0.096-0.428l0.228,0.031l0.285,0.155l0.271-0.034l0.146-0.275l-0.025-0.26l-0.09-0.231l-0.03-0.183
	l0.157-0.479l0.195-0.336l0.166-0.385l0.069-0.635l-0.026-1.152l0.084-0.534l0.231-0.685l0.463-0.975l0.183-0.505l0.152-0.994
	l0.203-0.642l0.448-1.098l0.202-0.22l0.582-0.479l0.119-0.168l0.209-0.87l0.089-0.164l-0.024-0.375l-0.14-0.624l-0.013-0.139
	l0.029-0.301l-0.018-0.135l-0.096-0.1l-0.146-0.065l-0.137-0.03l-0.059,0.004l0.038-0.653l0.437-1.099l0.105-0.631l-0.074-0.408
	l-0.188-0.499l-0.481-0.937l-0.707-0.967l-0.16-0.484l0.224-0.565l0.394-0.293l0.549-0.188l0.537-0.018l0.366,0.209l0.956-0.684
	l0.333-0.092V0l-5.575,1.872L89.828,2.371z"/>
</svg>
