<?xml version="1.0" encoding="utf-8"?>
<!-- Generator: Adobe Illustrator 16.0.4, SVG Export Plug-In . SVG Version: 6.00 Build 0)  -->
<!DOCTYPE svg PUBLIC "-//W3C//DTD SVG 1.1//EN" "http://www.w3.org/Graphics/SVG/1.1/DTD/svg11.dtd">
<svg version="1.1" id="Layer_1" xmlns="http://www.w3.org/2000/svg" xmlns:xlink="http://www.w3.org/1999/xlink" x="0px" y="0px"
	 width="100px" height="100px" viewBox="0 0 100 100" enable-background="new 0 0 100 100" xml:space="preserve">
<path fill="#555555" d="M98.828,40.414c-0.311-2.351-0.615-4.702-0.922-7.053v-0.032c0-2.408,0.004-4.816,0.004-7.224H0v0.032
	c0,2.406,0.002,4.812,0.007,7.219H28.15c2.291,0,4.581,0.005,6.871,0.005c0,2.097,0.003,4.194,0.007,6.292
	c0.005,2.431,0.003,4.862,0.009,7.293c0.005,2.25,0.011,4.501,0.011,6.752c0,2.389,0.007,4.776,0.007,7.166l0.189-0.019l0.524-0.076
	l0.179,0.057l0.107,0.062l0.259,0.047l0.114,0.076l1.972,1.896l0.228,0.347l0.149,0.159l0.217,0.067L39.7,63.55l0.214-0.069
	l0.083-0.063l0.134-0.156l0.104-0.069l0.103-0.026l0.562,0.08l0.445,0.247l0.245,0.098l0.276,0.027l0.176-0.088l0.093-0.213
	l0.069-0.699l0.118-0.162l0.176,0.007l0.217,0.155l0.055,0.086l0.031,0.098l0.052,0.104l0.1,0.1l0.1,0.045l0.118,0.028l0.223,0.014
	l0.235,0.089l0.114,0.211l0.072,0.256l0.11,0.225l0.359,0.32l0.203,0.244l-0.047,0.112l-0.042,0.167l0.031,0.764l0.045,0.228
	l0.2,0.161l0.263,0.053l0.544-0.025l0.238,0.037l0.446,0.133l0.234,0.035l0.249-0.041l0.187-0.08l0.185-0.045l0.263,0.06
	l0.879,0.575l0.234,0.086l1.467,0.316l0.138,0.076l0.782-0.324l0.262-0.052l0.143,0.007l0.383,0.083l0.131,0.074l0.188,0.336
	l0.078,0.076l0.149,0.106l0.389,0.451l0.177,0.106l0.586-0.004l0.282-0.052l0.062-0.127l0.173-0.234l0.142-0.256l0.184-0.203
	L54.4,66.95l1.562,0.2l0.358-0.045l0.549-0.201l0.296-0.045l0.185,0.162l-0.008,0.369l-0.045,0.418l0.059,0.299l0.021,0.463
	l0.44,0.225l0.576,0.116l0.414,0.146l0.116-0.031l0.086,0.113l0.021,0.146l-0.071,0.16l0.079,0.152v0.135l-0.079,0.291l-0.024,0.145
	l-0.021,0.087l-0.026,0.207L59,70.6l0.266,0.142l0.496,0.161l0.514-0.088l0.459-0.28l1.004-1.011l0.41-0.33l0.457-0.152l0.442,0.218
	l0.104,0.233l-0.012,0.521l0.106,0.262l0.173,0.104l0.752-0.052l0.262,0.049l0.172,0.101l0.095,0.18l0.03,0.289l0.072,0.324
	l0.186,0.117l0.76-0.05l0.131-0.044l0.092-0.064l0.051-0.049l0.125-0.074l0.059-0.062l0.038-0.061l0.063-0.141l0.023-0.046
	l0.188-0.124l0.143,0.038l0.311,0.28l0.064-0.09l0.207-0.359l0.037-0.104l0.053-0.065l0.064-0.045l0.146-0.06l0.073-0.043
	l0.148,0.104l0.131,0.135l0.088,0.159l0.031,0.172l-0.055,0.229l-0.223,0.352l-0.051,0.238l0.06,0.338l0.159,0.372l0.227,0.313
	l0.275,0.176l0.369-0.014l0.219-0.227l0.104-0.359l0.026-0.406l0.048-0.151l0.225-0.132l0.054-0.101l-0.046-0.142l-0.094-0.068
	l-0.082-0.097l-0.019-0.214l0.415,0.109l0.258-0.068l0.18-0.234l0.184-0.383l0.025-0.338l-0.01-0.184l0.088-0.106l0.062-0.034
	l0.065-0.031l0.399-0.072h0.101l0.109,0.021l0.159,0.068l0.082,0.064l0.057,0.066l0.052,0.142l0.071,0.394l0.056,0.139l0.072,0.113
	l0.141,0.146l0.057,0.042l0.086,0.027l0.109,0.01l0.418-0.058l0.098,0.017l0.12,0.06l0.304,0.23l0.062,0.034l0.099,0.021
	l0.128,0.006l0.225-0.029l0.121-0.033l0.086-0.042l0.053-0.046l0.039-0.055l0.039-0.059l0.031-0.064L74,70.34l0.072-0.117
	l0.053-0.05l0.059-0.032l0.121-0.006l0.157,0.043l0.29,0.116l0.098,0.101l0.029,0.084l-0.127,0.262l-0.021,0.068v0.075l0.019,0.068
	l0.034,0.062l0.046,0.053l0.146,0.156l0.479,0.147l0.255,0.13l0.065,0.059l0.037,0.104l0.027,0.131l0.046,0.11l0.085,0.045
	l0.795-0.041l0.213,0.041l0.272,0.334l0.33,0.521l0.349,0.331l0.323-0.231l0.065-0.291l-0.002-0.209l0.071-0.123l0.308-0.043
	l0.496,0.057l0.211-0.023l0.22-0.139l0.114-0.184l0.207-0.482l0.113-0.096l0.127-0.031l0.238-0.131l0.116-0.031h0.597l0.166-0.021
	l0.393-0.169l0.219-0.152l0.18-0.098l0.083,0.008l0.052-0.104l0.125-0.132l0.145-0.087l0.119,0.036l0.125,0.127l0.662,0.42
	l0.135,0.035l0.328-0.056l0.068-0.098L84,70.825l0.093-0.031l0.062,0.097l0.068,0.066l0.077,0.031l0.128-0.09l-0.049-0.397
	l0.08-0.089l0.383,0.013l0.176-0.022l0.121,0.011l0.075-0.089l0.117-0.096l0.131-0.071l0.117-0.031l0.276-0.147l0.037-0.03
	l0.193,0.071l0.089,0.004l0.156-0.27l0.13-0.121l0.154,0.059l0.152,0.129l0.147,0.078l0.131,0.106l0.091,0.22l-0.111,0.199
	l0.148,0.083l0.369,0.002l-0.004,0.024l0.027,0.049l0.049,0.064l0.023,0.062l0.062-0.023l0.068-0.059l0.051-0.031l0.111,0.012
	l0.088,0.031l0.076,0.062l0.076,0.096l0.128-0.019l0.976,0.031l0.101-0.014l0.076-0.037l0.048-0.035l0.027-0.06l0.007-0.108
	l0.034-0.129l0.084,0.006l0.131,0.077l0.124-0.075l0.106-0.041l0.09-0.06l0.068-0.108l0.135,0.074l0.065-0.15l0.017-0.244
	l0.069-0.213l0.222-0.178l0.192-0.031l0.771,0.263l0.133,0.086l0.062,0.082l0.046,0.101l0.065,0.079l0.363,0.091l0.205,0.143
	l0.371,0.377l0.188,0.129l0.179,0.059l0.403,0.014l0.087,0.025l0.092,0.064l0.073,0.074l0.03,0.07l0.031,0.211l0.071,0.086
	l0.104,0.045l0.113,0.082l0.062,0.086l0.169,0.304l0.438,0.432l0.764,0.134l0.299,0.096l0.141,0.009l0.166,0.077l0.188,0.326
	l0.201,0.104l0.102,0.123l0.064,0.028l0.084-0.014l0.133-0.065l0.076-0.007l0.166,0.033l0.162,0.053l0.135,0.082l0.086,0.117
	l0.308-0.051l0.249,0.023l-0.038,0.051l-0.038,0.08l0.172,0.089l0.553,0.19v-0.098l0.214,0.107l0.297,0.009l0.062,0.015
	c0.022-1.019,0.045-2.037,0.066-3.058c0.05-2.347,0.102-4.692,0.15-7.04c0.054-2.525,0.107-5.054,0.162-7.58
	c0.049-2.287,0.098-4.572,0.146-6.86c-0.088-0.662-0.175-1.323-0.263-1.985C99.432,45.053,99.133,42.733,98.828,40.414z"/>
</svg>
