<?xml version="1.0" encoding="utf-8"?>
<!-- Generator: Adobe Illustrator 16.0.4, SVG Export Plug-In . SVG Version: 6.00 Build 0)  -->
<!DOCTYPE svg PUBLIC "-//W3C//DTD SVG 1.1//EN" "http://www.w3.org/Graphics/SVG/1.1/DTD/svg11.dtd">
<svg version="1.1" id="Layer_1" xmlns="http://www.w3.org/2000/svg" xmlns:xlink="http://www.w3.org/1999/xlink" x="0px" y="0px"
	 width="100px" height="100px" viewBox="0 0 100 100" enable-background="new 0 0 100 100" xml:space="preserve">
<path fill="#555555" d="M99.895,24.188l-0.435-0.853l-0.228-0.72l-0.158-0.348l-0.156-0.19l-0.182-0.17l-0.519-0.104l-0.715-0.449
	l-0.254-0.302l-0.119-0.107l-0.884-0.2l-0.126-0.226l-0.113-0.277l-0.735-0.765l-0.36-0.993l-0.106-0.547l-0.029-0.081
	c-1.115,0.002-2.231,0.002-3.35,0.004c-2.604,0.004-5.21,0.008-7.814,0.011c-2.523,0.003-5.047,0.005-7.57,0.009
	c-2.48,0.004-4.962,0.013-7.443,0.011l-0.52,0.62l-0.602,0.276l-3.058,0.047c-0.567,0.111-1.136,0.221-1.704,0.331l-0.854-0.04
	l-0.325,0.038l-0.203,0.113l-0.356,0.451l-0.517,0.419l-3.351,0.598l-1.801,0.762l-0.578,0.1l-0.225,0.151l-0.377,0.379
	l-0.322,0.232l-0.344,0.155l-0.189,0.018l-0.363-0.073l-0.188-0.004l-0.129,0.034l-0.484,0.293l-0.28,0.115l-0.142,0.019
	l-0.635-0.118l-0.107,0.025l-0.297,0.151l-0.146,0.012l-1.859-0.364l-0.127,0.033l-0.329,0.218l-0.085,0.103l-0.045,0.13
	l-0.58,0.236l-0.879,0.183l-0.09,0.038l-0.547,0.437l-0.064,0.021l-0.167,0.011l-0.527,0.156l-0.524-0.067l-0.178-0.08l-0.137-0.02
	l-0.406,0.023l-0.069-0.007l-0.135-0.038l-0.261-0.014l-0.062,0.007l-1.098,0.506l-0.271,0.033l-0.222-0.167l-0.166-0.369
	l-0.097-0.309l-0.125-0.258l-0.248-0.21l-0.586-0.208l-3.677-0.364l-1.816,0.341L34.2,22.8l-0.349,0.068l-0.511,0.294l-0.846,0.715
	L32,24.19l-2.205,0.848l-0.921,0.283l-0.212,0.138l-0.238,0.065l-0.993-0.364l-1.042-0.02l-0.37-0.213l-0.629-0.169l-0.4-0.209
	l-0.184-0.006l-0.497,0.137l-0.964-0.198l-0.304-0.175l-0.293-0.232l-0.213-0.245l-0.114-0.294l-0.078-0.393l-0.061-0.689
	l0.011-0.194l0.053-0.338l0.012-0.193l-0.05-0.176l-0.279-0.486l-0.01-0.403l0.058-0.357l0.022-0.326l-0.226-0.618l-0.1-0.8
	L21.7,18.271l-0.172-0.226l-0.201-0.167l-0.163-0.197l-0.133-0.676l-0.165-0.395l-0.216-0.364l-0.229-0.273l-0.314-0.256
	l-0.382-0.238l-0.404-0.175l-0.378-0.068l-0.17-0.096l-0.433-0.329l-0.164-0.166l-0.241-0.067l-0.777,0.147l-0.21,0.163
	l-0.342,0.467l-0.168,0.097h-0.72l-1.312-0.243l-0.211-0.181l-0.073-0.143l-0.649-0.958l-0.136-0.123l-0.152-0.049l-0.249,0.037
	L12.75,13.88l-0.322,0.239l-0.207,0.067l-0.397-0.01l-0.161,0.075l0.079,0.041l0.181,0.19l-0.179,0.095l-1.116,0.237l-0.19,0.011
	l-0.206-0.101l-0.231-0.366l-0.15-0.135l-0.172,0.082l-0.204,0.146l-0.469,0.045l-0.219,0.097l0.102,0.118l0.11,0.079l0.121,0.043
	l0.134,0.012l0.112,0.066l0.248,0.32l0.108,0.109v0.11l-0.156,0.038l-0.087,0.137L9.45,15.833l0.018,0.238l-0.169-0.209l-0.009-0.24
	l0.016-0.262l-0.09-0.27l-0.164-0.089l-0.424,0.051l-0.216-0.143l-0.227-0.256l-0.317-0.277L7.52,14.168l-0.323-0.047l0.027-0.13
	l0.017-0.052l0.032-0.071L7.04,13.944l0.066,0.386l0.598,1.415l0.167,0.679l0.052,0.392l0.024,0.412l-0.014,0.409l-0.062,0.379
	L7.8,18.244l-0.055,0.1l-0.299,0.317L7.321,18.72L7.204,18.8l-0.1,0.18l0.257,0.341l0.123,0.376l0.038,0.424L7.49,21.138
	l-0.091,0.347l-0.295,0.638L7.4,22.31l0.238,0.387l0.119,0.498l-0.022,0.55l0.081-0.189l0.08-0.12L8,23.261l0.141-0.046l0.184,0.128
	l0.07-0.063l0.052-0.023l0.055-0.013l0.076-0.03l-0.105,0.199l-0.141,0.1l-0.143,0.065l-0.118,0.104l-0.088,0.173l-0.262,0.288
	c-0.066,0.331-0.135,0.66-0.204,0.99l-0.01,0.219l0.123,0.13l0.279,0.253l0.36-0.105l-0.055,0.384l0.034,0.324l0.148,0.213
	l0.293,0.048v0.131l-0.208,0.167l-0.07,0.163l-0.075,0.058L8.108,26.97l-0.2-0.053l-0.172-0.225l-0.079-0.454l-0.039-0.552
	L7.55,25.839l-0.054,0.567L7.35,26.785L7.343,27.53l0.203,0.335l0.447,0.266l-0.167,0.214l-0.152,0.282L7.47,28.814l0.066-0.535
	l0.025-0.073l-0.056-0.027l-0.04,0.1l-0.042,0.116l-0.042,0.188c-0.022,0.174-0.042,0.348-0.061,0.522l-0.1,0.215l-0.255,0.09v0.121
	l0.175,0.021l0.193,0.086l0.122,0.13l0.021,0.419l0.013,0.487l0.009,0.094l-0.031,0.099l-0.054,0.047l-0.056,0.031l-0.035,0.05
	c-0.021,0.302-0.042,0.604-0.06,0.906l0.025,0.181l0.028,0.403l0.027,0.256l-0.071,0.431L7.18,33.59l-0.244,0.388l-0.124,0.317
	l-0.02,0.171l0.135,0.189c-0.044,0.439-0.088,0.878-0.126,1.318l-0.117,0.413l0.063,0.075l0.026,0.103L6.77,36.862l-0.084,0.119
	l-0.092,0.085c-0.011,0.152-0.021,0.305-0.032,0.458L6.414,37.87l-0.162,0.299l-0.075,0.286l0.027,1.056l0.051,0.304l0.013,0.347
	l-0.08,0.799l0.028,0.226l0.088,0.216L6.292,41.58l0.002,0.17l0.128,0.197l0.146,0.029l0.135-0.085l0.123-0.024l0.102,0.21
	l-0.031,0.29l-0.24-0.082l-0.272-0.17l-0.129,0.02L5.91,44.361l-0.014,0.422l0.071,0.299L6.2,45.22l0.223-0.075l0.196,0.026
	l0.147,0.444l-0.45-0.212L6.1,45.409l-0.091,0.265l-0.031,0.337L5.75,47.034L5.715,47.12l-0.103,0.154L5.58,47.377l0.007,0.1
	l0.066,0.156l0.011,0.104l-0.085,0.64l0.047,1.083L5.43,50.936L5.347,51.49l-0.015,0.117l-0.003,0.134l0.025,0.215l0.145,0.476
	l0.016,0.098l-0.059,0.177l-0.16,0.101l-0.034,0.143v0.703l-0.034,0.283c-0.131,0.922-0.252,1.847-0.375,2.771L4.647,57.43v0.369
	l0.118,0.271l0.117-0.213l0.115-0.406l0.117-0.303l0.233-0.067l0.304,0.125l0.28,0.202l0.164,0.158v0.105H5.539l-0.096-0.054
	l-0.024-0.114l0.008-0.117l-0.008-0.053l-0.181,0.049L5.146,57.55l-0.063,0.228l-0.091,0.24l-0.135,0.188l-0.305,0.305L4.41,58.734
	l-0.081,0.248l-0.096,0.795l-0.121,0.363l-0.031,0.195l-0.763,2.291L3.104,63.05l0.093,0.125L3.464,62.7l0.398-0.54l0.442-0.469
	l0.406-0.271l-0.143,0.366l-0.018,0.16l0.038,0.08l0.082,0.095l0.082,0.123l0.1,0.405L5.3,63.279l-0.185,0.07l-0.253-0.037
	l-0.244-0.113l-0.16-0.149l-0.089-0.272v-0.221L4.34,62.412l-0.174-0.057l-0.294,0.184l-0.289,0.398l-0.137,0.395l0.164,0.169
	l-0.062,0.13l-0.057,0.083l-0.08,0.035l-0.138-0.008l0.065,0.188l0.023,0.198l-0.003,0.431H3.272l-0.188-0.191l-0.056-0.919H2.891
	l-0.116,0.11l-0.235,0.14l-0.115,0.17l-0.085,0.2l-0.02,0.119l0.027,0.246l-0.025,0.725l-0.471,2.283l-0.088,0.744L1.75,68.532
	L1.692,68.88L1.554,69.15l-0.168,0.234l-0.141,0.254c-0.337,0.844-0.674,1.688-1.011,2.529L0,72.359L0.215,72.5l0.129,0.158
	l0.084,0.203l0.21,0.925l0.117,0.204l0.17-0.156l0.12,0.227l0.188,0.5l0.153,0.26l0.165,0.148l0.182,0.11l0.145,0.149l0.057,0.275
	l0.026,0.523l0.163,0.801c-0.048,0.262-0.096,0.523-0.146,0.783l-0.285,0.632l-0.04,0.243l0.021,0.188l0.094,0.487l0.035,0.556
	l-0.005,0.256l-0.03,0.201l-0.091,0.268l-0.062,0.132l-0.116,0.112l0.085,0.127l0.127,0.119l0.056,0.036l0.121,0.608l0.041,0.369
	l-0.026,0.166l0.213,0.156l0.16,0.365l0.294,1.758l0.086,0.161l0.169,0.104l0.55,0.688l0.737,0.536l0.171,0.36h88.794
	c-0.004-2.424-0.009-4.848-0.011-7.271c-0.004-2.585-0.01-5.171-0.014-7.756c-0.004-2.46-0.009-4.92-0.011-7.38
	c-0.002-2.511-0.008-5.021-0.011-7.532l-0.043-0.223V55.95l-0.096-0.392l0.193-0.276l0.27-0.218l0.14-0.227l0.142-0.383l0.047-0.407
	l0.155-0.555l0.085-0.7l0.057-0.188l0.055-0.129l0.04-0.133l0.019-0.195l-0.089-0.359l-0.338-0.581l-0.003-0.28l0.127-0.15
	l0.167-0.026l0.17,0.002l0.134-0.06l0.1-0.174l0.052-0.192l0.017-0.204l0.002-0.195l0.045-0.093l0.088-0.1l0.049-0.124l-0.061-0.157
	l-0.246-0.244l-0.211-0.166l-0.271-0.148l-0.067-0.092l-0.093-0.228l-0.024-0.189l0.008-0.193l-0.037-0.153l-0.156-0.061
	l-0.275,0.053l-0.224,0.1l-0.215,0.056l-0.253-0.081l-0.104-0.13l-0.071-0.168l-0.09-0.139l-0.162-0.042l-0.168,0.065l-0.115,0.123
	l-0.101,0.148l-0.122,0.143l-0.476-0.349l-0.2-0.223l-0.083-0.318l0.015-0.177l0.06-0.225l0.012-0.178l-0.034-0.221l-0.162-0.35
	l-0.056-0.2l0.04-0.396l0.137-0.34l0.094-0.31l-0.127-0.464l0.08-0.122l0.112-0.101l0.058-0.093l0.043-0.218l0.104-0.09l0.14-0.04
	l0.133-0.067l0.171-0.208l0.163-0.292l0.123-0.323l0.105-0.674l0.137-0.366l0.311-0.611l0.341-0.877l0.132-0.25l0.229-0.282
	l0.746-0.492l0.229-0.206l0.177-0.213l0.656-1.102l0.284-0.608l0.101-0.324l0.133-0.811l0.021-0.363l-0.026-0.05l-0.062-0.088
	l-0.06-0.138l-0.028-0.198l0.04-0.177l0.099-0.187l1.308-2.011l0.254-0.673l0.221-1.071l0.162-0.299l0.119-0.284l0.037-0.727
	l0.049-0.371l0.16-0.317l0.428-0.505l0.184-0.588l0.584-0.752l0.049-0.173l0.058-0.37l0.231-0.589l0.068-0.12l0.365-0.423
	l0.169-0.271L100,24.92l-0.012-0.372L99.895,24.188z"/>
</svg>
