<?xml version="1.0" encoding="utf-8"?>
<!-- Generator: Adobe Illustrator 16.0.4, SVG Export Plug-In . SVG Version: 6.00 Build 0)  -->
<!DOCTYPE svg PUBLIC "-//W3C//DTD SVG 1.1//EN" "http://www.w3.org/Graphics/SVG/1.1/DTD/svg11.dtd">
<svg version="1.1" id="Layer_1" xmlns="http://www.w3.org/2000/svg" xmlns:xlink="http://www.w3.org/1999/xlink" x="0px" y="0px"
	 width="100px" height="100px" viewBox="0 0 100 100" enable-background="new 0 0 100 100" xml:space="preserve">
<path fill="#555555" d="M99.898,41.61l-0.265-0.491l-0.151-0.222l-0.131-0.368l-0.094-0.179l-0.125-0.077l-0.197,0.055l-0.168,0.082
	l-0.184-0.003l-0.223-0.203l-0.33-0.206l-0.842,0.052l-0.416-0.087l-0.241-0.22l-0.168-0.257l-0.214-0.215l-0.766-0.189
	l-0.294-0.259l-0.233-0.356l-0.866-1.876l-0.22-0.217l-0.051-0.236l0.106-1.181l0.005-0.474l-0.236-0.867l0.055-0.215l0.232-0.194
	l0.057-0.219l-0.074-0.501l-0.208-0.206l-0.302-0.108l-0.354-0.196l0.393-0.497l0.068-0.213l-0.217-0.087l-0.162-0.098l-0.249-0.432
	l-0.466-0.171l-0.376-0.325l-0.218-0.072l-0.949,0.155l-0.283-0.218l-0.102-0.51l-0.035-0.575l-0.104-0.425l-0.363-0.253
	L89.4,27.999l-0.409-0.316l0.011-0.31c-2.533,0-5.066-0.003-7.6-0.005c-2.44-0.002-4.881-0.004-7.32-0.005
	c-2.587-0.002-5.174-0.004-7.76-0.006c-2.605-0.002-5.211-0.004-7.814-0.006c-2.494-0.001-4.988-0.004-7.482-0.006
	c-2.415-0.002-4.829-0.005-7.243-0.007c-2.575-0.002-5.149-0.004-7.725-0.006c-2.604-0.002-5.209-0.004-7.813-0.006
	c-2.514-0.002-5.027-0.004-7.541-0.006c-2.47-0.001-4.939-0.003-7.409-0.003H13.01c0-2.067-0.005-4.133-0.005-6.2l-2.166,0.896
	l-0.751,0.56l-0.709,0.234l-0.776,0.652l-0.73,0.269l-0.846,0.55l-0.416,0.13v-0.172l0.106-0.103l0.211-0.306l0.087-0.064
	l0.421-0.011l0.182-0.087l0.163-0.202l-0.387-0.168l-0.317,0.188l-0.28,0.297l-0.431,0.276l-0.222,0.531L5.96,24.708l-0.152,0.05
	l-0.491,0.423l-2.836,1.587l-1.09,0.229l-0.259,0.157L0.86,27.385l-0.858,0.288v34.218c0,1.289-0.002,2.576,0.001,3.865
	C0.009,68.365,0,70.975,0.01,73.581c0.006,1.765,0.002,3.528,0.002,5.293c2.49-0.002,4.979,0,7.469-0.002
	c2.639-0.003,5.278-0.004,7.917-0.004h15.76c2.19,0,4.38,0.002,6.57,0.002c2.646,0,5.292,0.002,7.938,0.002h8.355
	c2.08,0,4.16,0.002,6.242,0.002c2.809,0,5.615-0.002,8.424,0.001c2.649,0.003,5.299,0.001,7.949,0.001c1.568,0,3.139,0,4.707,0.001
	l0.133,0.006l0.03-0.035c0.394-0.649,0.79-1.298,1.187-1.945l0.305-0.312l0.385-0.246l0.319-0.158l0.549-0.164l0.384-0.065
	l0.762-0.029l0.817,0.119l0.627,0.211l0.498,0.313c0.101,0.091,0.2,0.181,0.3,0.271l0.455-0.598l0.264-0.121l0.3-0.074l1.061-0.521
	l0.416,0.168l0.421-0.067l0.699-0.405l1.035-0.383l0.243-0.229l-0.093-0.465l0.103-0.502l0.229-0.406l0.293-0.163l0.388-0.108
	l0.571-0.507l0.396-0.161l0.598-0.285l0.234-0.158l0.674-0.758l0.266-0.172l0.647-0.205l0.173-0.085l0.598-0.538l0.162-0.088
	l0.438-0.062l0.567-0.185l0.496-0.311l0.213-0.438l-0.182-0.486l-0.438-0.479l-0.917-0.795l-0.538-0.663l-0.579-0.825l-0.056-0.131
	l-0.157-0.215l-0.896-0.797l-0.24-0.866l-0.223-0.383l-0.674,0.253l-0.381-0.266l-0.316-0.453l-0.173-0.419L93.59,60.74
	l-0.293-0.598l-0.872-0.278l-0.514,0.1l-0.218-0.092l-0.133-0.626l-0.068-0.235l-0.032-0.237l0.082-0.225l-0.065-0.714l0.017-0.22
	l0.05-0.168l-0.066-0.227l-0.056-0.283l0.065-0.306l0.232-0.646l-0.05-0.012l-0.067-0.162l-0.02-0.187l0.081-0.087l0.127-0.076
	l0.114-0.176l0.158-0.383l0.313,0.147l0.353-0.038l0.282-0.226l0.117-0.415l0.086-0.545l0.208-0.221l0.239-0.166l0.171-0.39
	l-0.066-0.434l-0.242-0.388l-0.27-0.309l-0.126-0.191l-0.03-0.133l-0.07-0.074l-0.102-0.027l-0.102-0.003l-0.067-0.035l0.007-0.084
	l0.016-0.103l-0.016-0.09L92.566,50.9l-0.103-0.18l-0.04-0.158l0.182-0.358l0.386-0.356l0.411-0.275l0.255-0.108l0.379-0.105
	l0.319-0.262l0.705-0.891l0.061-0.024l0.011-0.059l-0.011-0.278l0.072-0.11l0.166-0.129l0.178-0.11l0.122-0.047l0.225-0.186
	l0.892-1.209l0.406-1.001l0.166-0.631l0.016-0.161l0.129-0.304l0.928-0.87l0.034-0.062l0.092-0.224l0.05-0.094l0.092-0.063
	l0.184-0.023l0.232-0.208l0.174-0.066l0.386-0.023L100,42.103l-0.01-0.04L99.898,41.61z"/>
</svg>
