<?xml version="1.0" encoding="utf-8"?>
<!-- Generator: Adobe Illustrator 16.0.4, SVG Export Plug-In . SVG Version: 6.00 Build 0)  -->
<!DOCTYPE svg PUBLIC "-//W3C//DTD SVG 1.1//EN" "http://www.w3.org/Graphics/SVG/1.1/DTD/svg11.dtd">
<svg version="1.1" id="Layer_1" xmlns="http://www.w3.org/2000/svg" xmlns:xlink="http://www.w3.org/1999/xlink" x="0px" y="0px"
	 width="100px" height="100px" viewBox="0 0 100 100" enable-background="new 0 0 100 100" xml:space="preserve">
<path fill="#555555" d="M58.924,37.822l0.999-0.423l1.028,0.106l0.74,0.477l0.594,0.778l0.611,1.025l0.36-1.104l1.161-2.31
	l0.255-0.983l-0.312-1.368l-0.697-0.778l-0.795-0.591l-0.559-0.79l-0.336-1.981l-0.104-2.759l0.104-2.609l0.336-1.522l1.067,1.602
	l0.756,1.522l0.403,1.66l0.135,2.072l0.743,1.574l1.592,1.45l1.638,1.045l0.823,0.319l0.388-0.93l0.205-2.519l0.278-0.515l0.8,0.241
	l0.565,0.609l0.2,0.866l-1.157,2.458l-0.636,2.035l-0.461,2.086l-0.184,1.607l0.619,1.295h1.385l1.594-0.735l1.972-1.655
	l0.337-0.112l0.055-0.4v-1.558l0.178-1.079l0.125-0.229l-2.717-4.688l-1.593-1.309L70.57,29.42l-0.998-0.555l-1.414-1.099
	l-1.004-1.335L66.7,25.545l-0.16-0.733l-0.021-0.619l0.408-3.938l-0.133-1.164l-0.018-0.559l0.229-0.999l0.068-0.71l0.055-0.832
	l-0.176-1.325l-0.31-0.426l-0.69-0.141l-1.646,0.106l-0.688-0.194l-0.259-0.609L63.23,12.63c-0.154-3.662-0.31-7.323-0.461-10.985
	l-0.105-1.583L58.156,0c-4.803,0.1-9.604,0.198-14.407,0.294C39.46,0.38,35.171,0.467,30.881,0.553
	c-1.399,0.029-2.798,0.057-4.196,0.085c0.035,4.495,0.062,8.991,0.097,13.486c0.039,4.753,0.076,9.507,0.113,14.261
	c0.034,4.285,0.06,8.57,0.093,12.856c0.037,4.65,0.078,9.301,0.11,13.952c0.006,0.859,0.012,1.721,0.018,2.58
	c-0.232,3.976-0.484,7.949-0.741,11.924l-1.131,0.301l-0.567,0.921l-0.514,1.558l-0.769,5.818l-0.54,2.284l7.934-1.116l14.399-5.395
	l4.005-0.18l1.028,0.328l1.944,0.965l0.876,0.213l0.823-0.492l0.378-1.084l0.215-1.086l0.327-0.487l4.49-8.685l0.23-2.035
	l-0.097-6.066l-0.443-1.807l-1.147-2.332l0.484-1.177l1.178-1.104l0.982-2.143l0.178-2.337l-0.285-2.316l-0.85-1.769l-2.023-1.052
	l0.433-0.786L58.924,37.822z M65.213,53.23l-0.105-0.965l-0.309-0.699l-0.515-0.442l-0.794-0.192l-1.311,4.086l-0.231,1.873
	l0.948,1.082l-0.283,0.493l-0.149,0.425l-0.231,0.371l-0.592,0.354l0.336,1.389l-0.515,2.594l0.179,0.76l0.541-0.158l0.741-0.719
	l0.698-0.871l0.404-0.619l0.514-1.506l0.434-2.213l0.285-2.545L65.213,53.23z M76.094,42.262l-2.186,1.397l-0.867,0.939
	l-0.516,1.343l-0.51,3.228l-0.515,1.317l-0.494,0.409l-1.282,0.76l-0.256,0.461l0.051,1.68l-0.076,0.812l-0.286,0.638l-0.841,1.187
	l-0.311,1.213l0.381,1.317l1.082,1.521l-0.974,0.795l-2.726,1.238l-0.559,0.618l0.273,1.628l0.725,0.428l1.004-0.496l1.023-1.133
	l1.717,0.271l1.52-1.803l1.823-1.627l2.713,0.795l-0.378-1.281l0.053-1.062l0.203-1.104l0.122-1.36l0.083-8.696l1.051-3.96V41.36
	L76.094,42.262z M47.658,96.428l-0.568-1.142l0.258-1.653l-0.107-1.125l-0.229-0.812l-0.461-0.454l-0.929-0.032l0.23,1.645
	l-0.205,1.238l-0.714,0.779l-1.417,0.266l-0.635,0.762l-0.311,1.66l0.335,1.674L44.109,100l2.537-0.479l1.267-0.513l0.636-0.653
	l-0.201-0.988L47.658,96.428z"/>
</svg>
