<?xml version="1.0" encoding="utf-8"?>
<!-- Generator: Adobe Illustrator 16.0.4, SVG Export Plug-In . SVG Version: 6.00 Build 0)  -->
<!DOCTYPE svg PUBLIC "-//W3C//DTD SVG 1.1//EN" "http://www.w3.org/Graphics/SVG/1.1/DTD/svg11.dtd">
<svg version="1.1" id="Layer_1" xmlns="http://www.w3.org/2000/svg" xmlns:xlink="http://www.w3.org/1999/xlink" x="0px" y="0px"
	 width="100px" height="100px" viewBox="0 0 100 100" enable-background="new 0 0 100 100" xml:space="preserve">
<path fill="#555555" d="M99.932,30.663l-0.091-0.189l-0.362-0.704l-0.129-0.14l-0.312-0.271l-0.144-0.165l-0.387-0.286l-0.56-0.174
	l-1.044-0.114l-0.264-0.237l-0.293-0.555L95.87,26.69l-0.269-0.435l-0.65-0.76L94.6,25.023l0.057-0.397l0.162-0.396l0.098-0.117
	l0.121-0.099l0.497-0.364l0.305-0.349l0.136-0.121l0.959-0.563l0.354-0.289l0.129-0.134l0.104-0.15l0.049-0.084l0.396-0.93
	l0.267-0.489l0.088-0.326l0.117-1.151l0.035-0.098l0.047-0.101l0.043-0.072l0.082-0.196H88.218c-2.671,0-5.341-0.001-8.012-0.001
	h-8.229c-2.502,0-5.002,0.001-7.504,0c-2.855-0.001-5.711-0.001-8.568-0.001H40.278c-2.727,0-5.454-0.002-8.18-0.002H0.347
	c0.002,0.557,0.004,1.114,0.006,1.671c0.01,2.651,0.027,5.302,0.038,7.952c0.01,2.601,0.028,5.201,0.037,7.801L0.42,36.249L0,36.247
	c0.005,1.539,0.01,3.079,0.015,4.618c0.009,2.604,0.015,5.207,0.022,7.81c0.008,2.748,0.015,5.495,0.024,8.242
	c0.009,2.59,0.02,5.181,0.024,7.771c0.004,2.697,0.017,5.396,0.026,8.095h17.026c2.593,0,5.186,0.001,7.778,0.001h16.028
	c2.811,0,5.622,0.002,8.433,0.002h15.88c2.65,0,5.303,0.001,7.951,0.001l0.044,0.034l0.265,0.33l0.101,0.095l1.386,0.917l0.079,0.02
	l0.155,0.008l0.074,0.019l0.549,0.378l0.545,0.493l1.82,0.791l0.137,0.147l0.055,0.211l0.157,0.104l0.94,0.33l0.358,0.031
	l0.354-0.031l0.144-0.078l0.271-0.236l0.086-0.052l0.053-0.088l0.166-0.476l0.043-0.238l0.113-0.148l0.147-0.099l0.155-0.074
	l0.328-0.077l0.897,0.211l0.542-0.134l0.166,0.033l0.27,0.162l0.152,0.059l0.311-0.02l0.519-0.277l0.293-0.069l0.953,0.235
	l0.358,0.011l2.627-0.49l0.33,0.051l0.272,0.141l0.228,0.217l0.396,0.521l0.479,0.456l0.279,0.207l0.309,0.154l0.312,0.076
	l0.688,0.023l0.13,0.037l0.293,0.16l0.356,0.072l0.125,0.096l0.094,0.121l0.137,0.123l0.24,0.086l1.188,0.092l0.233,0.141
	l0.181,0.197l0.146,0.219l0.087,0.174l0.043,0.127l0.069,0.098l0.16,0.091l0.166,0.036l0.551-0.036l0.135,0.019l0.185,0.057
	l0.159,0.095l0.064,0.138l-0.037,0.163l-0.084,0.126l-0.064,0.149l0.01,0.231l0.154,0.211l0.544,0.42l0.117,0.285l0.051,0.346
	l0.144,0.244l0.227,0.146l1.697,0.285l0.008-0.629l-0.094-0.217l-0.073-0.049l-0.062-0.1l-0.014-0.111l0.014-0.145l-0.02-0.105
	l-0.039-0.104l-0.086-0.166l-0.047-0.072l-0.055-0.062L99.085,79.6l-0.229-0.136l-0.021-0.052l0.004-0.046l0.039-0.071l0.017-0.021
	l0.144-0.121l0.043-0.077l-0.017-0.073l-0.039-0.068l-0.104-0.125l-0.115-0.115l-0.705-0.532l-0.105-0.103l-0.121-0.146
	l-0.209-0.326L97.6,77.398l-0.031-0.146l0.035-0.246l0.056-0.168l0.112-0.253l0.201-0.3l0.041-0.078l0.033-0.092l0.027-0.103
	l0.031-0.091l0.043-0.078l0.05-0.065l0.051-0.051l0.047-0.03l0.207-0.091l0.05-0.027l0.031-0.069l0.02-0.099l0.013-0.235
	l0.022-0.108l0.028-0.077l0.062-0.067l0.047-0.043l0.026-0.079l0.031-0.141l0.026-0.488l0.021-0.122l0.017-0.042l0.244-0.276
	l0.051-0.113l0.051-0.207l-0.02-0.354l-0.008-0.062l0.008-0.046l0.004-0.021l0.06-0.091l0.085-0.245l0.031-0.126l-0.012-0.084
	l-0.023-0.054l-0.047-0.064l-0.055-0.104v-0.1l0.023-0.084l0.439-0.43l0.054-0.1l0.051-0.124l0.142-0.724l0.002-0.145l-0.015-0.116
	l-0.038-0.136l-0.04-0.182l-0.112-0.783l-0.041-0.195l-0.035-0.086l-0.055-0.066l-0.074-0.041l-0.086-0.008l-0.138,0.016h-0.089
	l-0.301-0.053l-0.206,0.01l-0.108-0.008l-0.101-0.039l-0.082-0.094l-0.024-0.1l0.016-0.096l0.044-0.078l0.116-0.133l0.039-0.064
	l-0.017-0.064l-0.073-0.076l-0.097-0.078l-0.11-0.196l-0.01-0.124l0.034-0.083l0.09-0.013l0.19,0.023l0.093-0.02l0.071-0.045
	l0.05-0.062l0.036-0.063l0.041-0.441l0.005-0.934l-0.031-0.19l-0.051-0.073l-0.226-0.263l-0.104-0.146l-0.242-0.275l-0.062-0.102
	l-0.066-0.17l-0.008-0.149l0.008-0.164l0.031-0.198l-0.008-0.13l-0.031-0.114l-0.043-0.099l-0.03-0.122l0.047-0.044L100,63.766
	v-24.64c0-2.801-0.004-5.602-0.004-8.403L99.932,30.663z"/>
</svg>
