<?xml version="1.0" encoding="utf-8"?>
<!-- Generator: Adobe Illustrator 16.0.4, SVG Export Plug-In . SVG Version: 6.00 Build 0)  -->
<!DOCTYPE svg PUBLIC "-//W3C//DTD SVG 1.1//EN" "http://www.w3.org/Graphics/SVG/1.1/DTD/svg11.dtd">
<svg version="1.1" id="Layer_1" xmlns="http://www.w3.org/2000/svg" xmlns:xlink="http://www.w3.org/1999/xlink" x="0px" y="0px"
	 width="100px" height="100px" viewBox="0 0 100 100" enable-background="new 0 0 100 100" xml:space="preserve">
<path fill="#555555" d="M84.012,64.301l-0.32,0.217l-0.211,0.356l-0.104,0.451L83.369,65.8h0.158l0.402-0.979l0.025-0.37
	l0.079-0.038l0.03-0.039l-0.013-0.033L84.012,64.301z M99.796,44.404l-0.16-0.1l-0.196-0.036V44.1L100,43.93
	c-2.086-2.119-4.173-4.236-6.262-6.353c-2.045-2.073-4.082-4.153-6.121-6.232c-2.16-2.203-4.317-4.41-6.477-6.613
	c-1.246-1.271-2.488-2.547-3.734-3.817l-0.415-0.143l-0.636-0.117l-0.782-0.013l-0.23-0.01c-2.938-0.058-5.88-0.125-8.819-0.192
	c-3.016-0.069-6.03-0.156-9.047-0.209c-0.828-0.015-1.656-0.034-2.484-0.05l-0.235-0.009l-0.827-0.017l-0.16-0.048l-0.129-0.13
	l-0.043-0.162l-0.007-0.172l0.08-2.623l-0.012-0.166l-0.075-0.155c-0.938-1.236-1.875-2.475-2.809-3.716l-0.067-0.082l-0.067-0.036
	l-0.095-0.013l-0.142,0.078l-1.728,1.243l-0.118,0.039l-0.111-0.008l-0.143-0.115l-0.073-0.113l-0.075-0.123l-0.03-0.124
	l-0.02-0.111l0.007-0.104l0.02-0.093l0.028-0.107l0.241-0.485l0.044-0.132l0.012-0.136l-0.007-0.134l-0.03-0.125l-0.042-0.103
	l-0.062-0.1l-0.081-0.091l-0.087-0.081l-0.172-0.068l-0.267-0.052c-2.92-0.154-5.84-0.311-8.761-0.456
	c-3.068-0.152-6.135-0.314-9.202-0.476c-1.905-0.1-3.81-0.217-5.716-0.295c-0.565-0.037-1.132-0.062-1.698-0.092l-1.581,0.147
	l-0.085-0.032l-0.081-0.056l-0.049-0.06l-0.094-0.148l-0.067-0.081l-0.072-0.072l-0.143-0.013l-0.149,0.055l-0.308,0.204
	l-0.136,0.128l-0.104,0.143l-0.111,0.376l-0.113,0.106l-0.16,0.055l-0.753,0.004L18.191,11.3l-0.16,0.144l-0.099,0.102l-0.111,0.058
	l-0.155,0.036l-0.754,0.014l-0.152,0.025l-1.075,0.351l-0.691,0.364l-0.198,0.074l-0.159,0.023l-0.249-0.017l-0.172,0.013
	l-0.143,0.11l-0.066,0.141L13.92,13.03l-0.149,0.149l-0.228,0.166l-0.494,0.266l-0.229,0.162l-0.186,0.091l-0.11,0.023l-0.153-0.055
	l-0.081-0.091l-0.087-0.215l-0.672,0.147l-6.118,2.036L5.03,15.718l0.013,0.03l-0.032,0.308l-0.124,0.296l-0.179,0.291l-0.24,0.215
	l-0.555,0.179l-0.266,0.136l-0.85,0.617l-0.236,0.278l-0.185,0.364l-0.302,0.804l-0.211,0.357l-0.276,0.254l-0.321,0.202
	l-0.279,0.247l-0.172,0.366l-0.087,0.14l-0.03,0.191l-0.013,0.204l-0.043,0.205l-0.087,0.204l-0.357,0.451L0,23.125l0.661,0.932
	L2.567,25.3l0.704,0.344l0.494-0.143l0.149,0.037l0.036,0.34l0.162,0.314l0.776,0.438l0.438,0.591l0.445,0.285l0.334,0.6l0.34,0.375
	l0.672,0.378l0.987-0.031h1.428l0.883,0.563l0.233,0.659l0.104,0.685l0.285,0.814l0.191,0.224l1.191,1.851l0.166,0.568l0.395,2.148
	l0.118,0.352l0.143,0.11l0.344,0.47l0.494,0.205l0.266,0.24l0.234,0.285l0.161,0.251l0.228,0.698l0.175,0.354l0.486,0.263
	l0.18,0.279l0.214,0.698l0.23,0.593l0.16,0.655l0.259,0.283l0.334,0.124h0.419l0.333,0.338l0.364,0.532l0.493,0.562l0.649,0.438
	l0.678,0.308l0.802,0.532l0.883,0.708l1.012,0.94l0.568,0.679l0.259,1.124l0.341,0.494l0.179,0.555l0.296,0.729l0.421,0.458
	l0.487,0.332l0.451,0.209l0.993,0.297l0.413,0.203l0.438,0.364l0.878,1.116l0.432,0.402l0.838,0.58l0.298,0.433l-0.149,0.538
	L29.89,55.2l0.178,0.383l-0.332,0.056l-0.056,0.188l0.258,0.609l-0.296,0.155l0.143,0.375l0.889,1.063l0.172,0.152l0.082-0.123
	l0.098-0.117l0.234,0.031l0.249,0.1l0.141,0.08v0.166l-0.283,0.152l0.357,0.278l0.149,0.292L31.805,59.3l-0.296,0.19l0.319,0.562
	l0.328,0.307l0.376,0.136l0.47,0.032l0.143,0.201l0.117,0.996l0.104,0.346l0.747,0.615l1.84,0.763l0.851,0.483l0.594,0.575
	l0.315,0.2l0.457,0.078l0.259,0.181l0.26,0.417l0.196,0.508l0.074,0.42l-0.173,0.848v0.48l0.248,0.209l1.067,1.864l0.198,0.685
	l0.062,0.385l0.026,0.369l0.117,0.377l0.208,0.345l0.123,0.396l-0.017,0.336l-0.13,0.168l-0.056,0.302l-0.08,0.26l0.055,0.11
	l0.098,0.068l0.125,0.164l0.098,0.191l0.042,0.166l-0.068,0.477l-0.11,0.374l-0.023,0.367l0.201,0.399l0.267,0.269l0.376,0.265
	l0.431,0.215l0.624,0.117l0.192,0.1l0.167,0.129l0.154,0.152l0.314,0.367l0.11,0.094l0.075-0.021l0.464,0.247l0.111,0.092
	l0.074,0.217l0.043,0.285l0.106,0.238l0.284,0.1l0.292,0.18l0.091,0.414l-0.02,0.771l0.636,2.02l0.315,0.104l0.252,0.292
	l0.169,0.433l0.042,0.519l-0.042,0.289l-0.163,0.335l-0.068,0.236l-0.036,0.27l0.036,0.643l-0.042,0.146l-0.199,0.422l-0.042,0.271
	l0.055,0.16l0.371,0.783l-0.007,0.079l-0.036,0.101l-0.019,0.137l0.062,0.179l0.091,0.11l0.224,0.13l0.11,0.091l0.606,0.749
	l0.185,0.104l1.209-0.101l0.457,0.101l0.841,0.401l0.143,0.179l0.133,0.34l0.32,0.246l0.383,0.142l0.42,0.038l0.019-0.01
	l-0.123-0.344l0.032-0.302l0.146-0.26l0.951-1.144l0.209-0.449l0.075-0.604l0.104-0.168l0.474-0.506l0.149-0.26l0.05-0.345
	l0.012-0.328l0.056-0.282l0.168-0.224l0.056,0.92l-0.718,1.543l-0.19,0.896l1.747-1.081l0.68-0.943l0.562-0.595l0.013-0.264
	l-0.292-0.478l-0.189-0.24l-0.248-0.211l-0.314-0.066l-0.376,0.174l-0.644-1.154l-0.158-0.188l-0.322-0.158l0.007-0.338l0.234-0.594
	l-0.197-0.616l-0.396-0.902l-0.271-0.887l0.166-0.562v-0.168l-0.159-0.264l-0.302-0.71l-0.254-0.222v-0.155l0.395-0.013l0.178,0.215
	l0.107,0.327l0.178,0.315l0.336,0.178l0.259,0.039l0.056,0.117l-0.291,0.432l0.018,0.52l0.242,0.914l0.524,1.37l1.412,1.261
	l0.284,0.166l0.223-0.068l0.094-0.444l-0.049-0.258l-0.205-0.392l-0.048-0.191l0.01-1.68l0.089-0.323l0.203-0.292l-0.123-0.075
	l-0.02-0.08l-0.137,0.031l-0.062,0.032l-0.036-0.051l-0.055-0.191l0.555,0.039l0.123,0.425l-0.389,1.771l0.11,0.135l0.742-0.338
	l-0.273,1.541l-0.012,0.644l0.123,0.649l0.223,0.104l0.81-0.4l0.153-0.006l0.334,0.049l0.229-0.043l1.723-1.08l0.229-0.357
	l-0.384-0.242l0.067-0.029l0.062,0.006l0.039-0.031L60.318,81.9h0.129l0.271,0.11l0.223-0.396l0.154-0.592l0.078-0.482h-0.152
	l-0.094,0.21l-0.16,0.179l-0.32,0.297l-0.254,0.26l-0.52,0.309l-0.555,0.246l-0.396,0.043l-0.011-0.247l0.364-0.399l0.492-0.379
	l0.902-0.381l0.11-0.464l-0.241-0.47l-0.537-0.215l-1.926-0.155l0.5-0.209l0.6-0.13L59.602,79l0.562,0.042v-0.187l-0.282-0.125
	l-0.507-0.301l-0.278-0.061l-0.24,0.023l-0.383,0.104l-0.246,0.02l-1.852-0.353l-0.376,0.205V78.18l-0.007-0.152l0.166-0.233
	l0.203-0.119h0.65l1.486,0.233l0.523-0.068l-0.123-0.215l-0.112-0.246l-0.068-0.271l0.007-0.291h0.154l0.148,0.314l0.16,0.191
	l0.778,0.686l0.255,0.067l0.275,0.014l0.395,0.091l0.328,0.197l0.186,0.225l0.199,0.18l0.35,0.072l0.303-0.147l0.186-0.364
	l0.067-0.443l-0.062-0.406l0.285,0.16l0.084,0.252l0.033,0.285l0.109,0.252l0.277,0.211l0.168-0.051l0.158-0.148l0.254-0.084
	l1.508-1.102l0.222-0.111l0.198-0.129l0.143-0.211l0.077-0.213l-0.022-0.057l-0.116-0.038l-0.97-0.877l-0.254-0.313l0.309-0.062
	l0.396,0.266l0.657,0.715l0.494,0.427l0.299-0.086l0.289-0.271l0.486-0.162l0.45-0.072l0.971-0.327l1.104-0.187l0.197-0.185
	l-0.152-0.254l-0.478-0.327v-0.154l0.192-0.123l0.224,0.021l0.51,0.103l0.532-0.012l0.217-0.102l1.223-0.855l0.332-0.5l0.068-0.74
	h-0.143l-0.025,0.149l-0.062,0.017l-0.295-0.191l-0.123-0.221l-0.18-0.18l-0.74-0.174l-0.305-0.24l-0.209-0.326l-0.086-0.353
	l0.295,0.259l0.285,0.166l0.204-0.029l0.086-0.322l-0.05-0.389l-0.19-0.623l-0.05-0.347l0.123-0.067l0.734,0.488l-0.037-0.087
	l0.025-0.173l0.092-0.166l0.144-0.081l0.362,0.339l-0.475,0.619l-0.181,0.395l0.149,0.172l0.362,0.137l0.23,0.289l0.179,0.298
	l0.232,0.136l0.465-0.098l0.63-0.26l1.13-0.654l0.352-0.445l0.326-0.566l0.402-0.49l0.555-0.201l0.104-0.081l0.067-0.179
	l0.094-0.172l0.179-0.082l0.153-0.043l1.024-0.58l0.156-0.186l0.151-0.377l-0.227,0.062l-0.197,0.104l-0.162,0.149l-0.11,0.196
	l-0.253-0.396l-0.104-0.289l0.029-0.285l0.544-1.122l0.254-0.328l0.31-0.137l0.658-0.426l0.389-0.117l0.173,0.296l0.058,0.188
	l0.277,0.492l0.093,0.261l0.297-0.218l0.408-0.166l0.468-0.105l0.477-0.038l0.529-0.114l0.155-0.311l0.022-0.413l0.149-0.438
	l0.412-0.369l0.921-0.408l0.314-0.332l0.056-0.532l-0.37-0.185l-0.463-0.125l-0.222-0.332l0.433,0.051l0.469,0.113l0.375,0.248
	l0.149,0.42l0.129-0.041l0.111-0.068l0.093-0.094l0.098-0.137l-0.232-0.228l-0.149-0.283l0.021-0.233l0.289-0.101l0.168,0.079
	l0.166,0.428l0.179,0.186l0.162-0.391l0.264-0.246l0.306-0.186l0.256-0.211l-0.289-0.104l-0.116-0.123l-0.155-0.451l-0.043-0.289
	l0.02-0.285l-0.055-0.209l-0.718-0.191l-0.493-0.279l-0.408-0.404l-0.166-0.479l0.062-0.521l0.172-0.532l0.236-0.493l0.933-1.322
	l0.425-0.406l0.469-0.215v0.152l-0.24,0.217l-0.753,0.89l-0.544,1.153l-0.184,0.574l0.073,0.26l0.87,0.013l0.275,0.136l0.218,0.346
	l0.099,0.463l0.023,0.895l0.162,0.359h0.129l0.019-0.581l0.55-2.901l0.161-0.271l-0.161-0.172l0.482-1.045
	c1.37-1.86,2.73-3.729,4.081-5.604l1.476-1.562l2.178-1.86l2.225-1.333l0.876-0.347L100,44.798l-0.088-0.234L99.796,44.404z"/>
</svg>
