<?xml version="1.0" encoding="utf-8"?>
<!-- Generator: Adobe Illustrator 16.0.4, SVG Export Plug-In . SVG Version: 6.00 Build 0)  -->
<!DOCTYPE svg PUBLIC "-//W3C//DTD SVG 1.1//EN" "http://www.w3.org/Graphics/SVG/1.1/DTD/svg11.dtd">
<svg version="1.1" id="Layer_1" xmlns="http://www.w3.org/2000/svg" xmlns:xlink="http://www.w3.org/1999/xlink" x="0px" y="0px"
	 width="100px" height="100px" viewBox="0 0 100 100" enable-background="new 0 0 100 100" xml:space="preserve">
<path fill="#555555" d="M100,39.068c-0.95-0.039-1.898-0.075-2.85-0.115l-0.104,0.009l-0.102,0.028l-0.25,0.219l-0.092,0.04
	c-1.59-0.007-3.181-0.02-4.771-0.025c-2.546-0.008-5.091-0.024-7.638-0.039c-2.469-0.014-4.938-0.024-7.409-0.039l-0.313,0.15
	l-0.412,0.112c-0.651-0.022-1.303-0.049-1.953-0.07c-2.604-0.086-5.207-0.183-7.812-0.27c-2.376-0.08-4.751-0.163-7.127-0.247
	c-2.521-0.089-5.042-0.175-7.562-0.263c-2.546-0.09-5.092-0.177-7.64-0.268l-0.099,0.006l-0.416,0.093c-0.009,0-0.019,0-0.027,0
	c-2.464,0.035-4.929,0.067-7.393,0.093c-2.461,0.025-4.922,0.053-7.383,0.088l-0.068,0.02l-0.061-0.058l-0.048-0.082l-0.084-0.197
	l-0.055-0.079l-0.092-0.031c-0.764-0.074-1.528-0.149-2.292-0.226l-0.059,0.005l-0.02,0.023v0.068l0.027,0.144l0.208,0.678
	l0.15,0.741l0.02,0.225l-0.013,0.522l-0.035,0.332h-8.244c-2.574,0-5.148-0.004-7.722-0.004l-0.032,0.082l-0.258,0.322L9.78,41.239
	l-0.149,0.079L9.33,41.236l-0.02-0.21l0.109-0.288l0.034-0.12l-0.757,0.017l0.047,0.059L8.842,40.9l-0.078,0.266l-0.021,0.222
	L9,41.979l0.038,0.324l-0.124,0.312l-0.212,0.141l-0.273,0.038l-0.3-0.004l-0.223,0.113l0.028,0.263l0.171,0.294l0.221,0.207
	l0.287,0.096l0.116,0.092l-0.044,0.16l-0.116,0.089l-0.144,0.038l-1.074,0.039l-0.208,0.074l0.627,0.92l0.303,0.58l-0.102,0.26
	l-0.183,0.043l-0.223,0.118l-0.188,0.139L7.3,46.45l-0.048,0.235l-0.354,0.59c-0.037,0.197-0.073,0.394-0.111,0.59L7,48.228
	l0.304,0.314l0.153,0.434l-0.079,0.269l-0.176-0.048l-0.338-0.269L6.613,48.96l-0.219,0.104l-0.17,0.181L6.11,49.507l0.303,0.148
	l0.307,0.221l0.105,0.259l-0.726,0.604l-1.767,0.774l-0.164,0.191l-0.01,0.252l0.174,0.326l0.324,0.424l-0.003,0.186l-0.208,0.226
	L4.25,53.277l-0.074,0.131l0.05,0.167l0.181,0.263L4.56,54.18l-0.119,0.178L4.178,54.43l-0.286,0.038l-0.28,0.082l-0.141,0.144
	l-0.055,0.238l-0.003,0.361l-0.058,0.232l-0.14,0.23l-0.177,0.205l-0.617,0.512l-0.14,0.226L2.23,57.025l0.014,0.646l0.048,0.284
	l0.229,0.697l0.116,0.591l-0.01,0.573l-0.239,0.348l-0.235-0.016l-0.317-0.08L1.56,60.077l-0.12,0.241l-0.023,0.272L1.34,60.833
	l-0.122,0.216L1.046,61.23l-0.425,0.236l-0.273,0.11l-0.219,0.045L0,61.729l0.099,0.174c0.641,0,1.282,0,1.924,0
	c2.504,0.005,5.008,0.006,7.512,0.011c2.502,0.006,5.005,0.002,7.508,0.01c2.537,0.009,5.074,0.011,7.611,0.011l-0.129-0.369
	c1.402-0.002,2.806,0.031,4.208,0.049c2.48,0.027,4.96,0.053,7.441,0.084c2.498,0.031,4.996,0.06,7.494,0.088
	c2.513,0.027,5.026,0.051,7.54,0.085c2.474,0.034,4.946,0.034,7.422,0.034h7.565l0.082,0.031c0.974,0.051,1.945,0.101,2.918,0.147
	c0.091-1.037,0.183-2.075,0.279-3.11l0.021-0.108l0.024-0.062l0.067-0.134l0.138-0.164l0.203-0.197l0.071-0.058l0.092-0.05
	l0.181-0.057l0.097,0.002l0.071,0.028l0.09,0.093l0.054,0.039l0.056,0.028l0.078,0.015l0.167,0.002l0.621-0.07l0.296,0.003
	l0.045-0.007l0.082-0.055l0.112-0.093l0.226-0.226l0.096-0.129l0.055-0.116l0.018-0.45l0.018-0.078l0.048-0.145l0.034-0.066
	l0.201-0.291l0.033-0.066l0.021-0.072l0.014-0.082l-0.007-0.071l-0.051-0.187V56.1l0.011-0.057l0.023-0.055l0.037-0.064l0.262-0.283
	l0.086-0.066l0.104-0.059l0.483-0.17l0.079-0.049l0.092-0.099l0.055-0.072l0.188-0.382l0.071-0.062l0.099-0.058l0.19-0.067
	l0.369-0.076l0.096-0.041l0.111-0.063l0.183-0.144l0.272-0.168l0.226-0.086l0.235-0.058l0.074-0.004l0.409,0.034h0.045l0.041-0.01
	l0.111-0.037l0.075-0.02l0.076-0.002l0.073,0.014l0.068,0.018l0.104-0.004l0.131-0.02l0.226-0.074l0.11,0.009l0.086,0.026
	l0.049,0.049l0.055,0.048l0.062,0.04l0.078,0.025l0.082,0.006l0.76-0.153l0.072-0.037l0.082-0.062l0.26-0.25l0.117-0.143
	l0.076-0.068l0.102-0.068l0.625-0.266l0.154-0.125l0.125-0.139l0.17-0.157l0.104-0.054l0.119-0.021l0.103,0.004l0.086,0.021
	l0.088-0.003l0.075-0.036l0.238-0.326l0.246-0.242l0.036-0.052l0.07-0.05l0.086-0.049l0.291-0.108l0.116-0.071l0.283-0.283
	l0.071-0.049l0.092-0.041l0.402-0.118l0.604-0.313l0.064-0.025h0.062l0.138,0.039l0.48,0.045l0.167,0.043l0.071-0.02l0.092-0.062
	L85,50.432l0.285-0.429l0.062-0.127l0.021-0.072l0.022-0.143l0.037-0.064l0.133-0.167l0.028-0.086v-0.071l-0.099-0.231l-0.018-0.068
	l-0.016-0.076l0.004-0.079l0.016-0.078l0.021-0.079l0.031-0.062l0.037-0.061l0.067-0.058l0.093-0.043l0.179-0.036h0.122l0.099,0.024
	l0.147,0.065l0.162,0.116l0.121,0.103l0.061,0.021l0.076-0.011l0.066-0.046l0.068-0.106l0.027-0.083l0.056-0.12l0.136-0.153
	l0.034-0.062l0.021-0.065l-0.008-0.205l0.018-0.054l0.023-0.041l0.02-0.018l0.791-0.432l0.275-0.103l0.557-0.276l0.107-0.024
	l0.086,0.017l0.049,0.047l0.19,0.271l0.017,0.04v0.045l-0.017,0.061l-0.071,0.174l-0.019,0.11l-0.006,0.081l0.01,0.082l0.063,0.185
	l0.035,0.061l0.041,0.054l0.045,0.054l0.058,0.042l0.067,0.038l0.075,0.02h0.078l0.072-0.014l0.103-0.048l0.531-0.333l0.057-0.027
	l0.049-0.034l0.076-0.065l0.086-0.092l0.211-0.275l0.051-0.093l0.15-0.335l0.118-0.162l0.403-0.423l0.205-0.157l0.188-0.099
	l0.108-0.044L92.405,46l0.288-0.143l0.098-0.01l0.245,0.008l0.065-0.029l0.355-0.258l0.131-0.062l0.062-0.01h0.043l0.062,0.02
	l0.11,0.083l0.063,0.031l0.074,0.014l0.161,0.007l0.067,0.013l0.063,0.027l0.048,0.038l0.038,0.044l0.023,0.064l0.015,0.068
	l0.01,0.068l0.018,0.072l0.02,0.062l0.045,0.055l0.053,0.043l0.064,0.042l0.075,0.037l0.174,0.048l0.093,0.014l0.082-0.005
	l0.098-0.044l0.113-0.071l0.188-0.167l0.109-0.054l0.115-0.104l0.092-0.12l1.164-2.196l0.047-0.066l0.317-0.258l0.894-0.605
	l0.06-0.023h0.058l0.611,0.205l0.357,0.049l0.055-0.011l0.023-0.04l-0.021-0.075l-0.032-0.065l-0.15-0.226l-0.125-0.246l-0.02-0.062
	l0.008-0.099l0.041-0.133l0.299-0.6l0.186-0.524l-0.003-0.129l-0.167-0.348l-0.02-0.068l0.104-0.292L100,39.068z"/>
</svg>
