<?xml version="1.0" encoding="utf-8"?>
<!-- Generator: Adobe Illustrator 16.0.4, SVG Export Plug-In . SVG Version: 6.00 Build 0)  -->
<!DOCTYPE svg PUBLIC "-//W3C//DTD SVG 1.1//EN" "http://www.w3.org/Graphics/SVG/1.1/DTD/svg11.dtd">
<svg version="1.1" id="Layer_1" xmlns="http://www.w3.org/2000/svg" xmlns:xlink="http://www.w3.org/1999/xlink" x="0px" y="0px"
	 width="100px" height="100px" viewBox="0 0 100 100" enable-background="new 0 0 100 100" xml:space="preserve">
<path fill="#555555" d="M70.828,90.052l0.096,0.368l0.062,0.178l0.087,0.143l0.034,0.08l0.091,0.477l0.071,0.18l0.182,0.328
	l0.061,0.19l0.084,0.649l0.07,0.22l0.132,0.22l0.058,0.139l0.149,1.732l0.056,0.146l0.07,0.049l0.061-0.148l-0.004-0.146
	l-0.08-0.449l-0.11-0.258l-0.019-0.17l0.004-0.363l-0.027-0.191l-0.109-0.342l-0.063-0.505l-0.046-0.187l-0.068-0.107l0.012-0.102
	l-0.793-2.63l-0.254-1.485l-0.059-2.178l0.052-0.168l-0.11,0.127l-0.043,0.399l-0.06,0.177l0.06,0.152l-0.006,0.16l-0.054,0.32
	l0.015,0.168l0.07,0.311l0.062,0.797l-0.019,0.297l-0.071,0.292l0.228,0.336l0.03,0.067l0.013,0.033l0.036,0.067l0.009,0.048
	l-0.019,0.029l-0.074,0.02l-0.016,0.035l0.008,0.067l0.02,0.062l0.031,0.055l0.05,0.05l-0.058,0.062L70.828,90.052z M72.979,80.32
	l-0.06,0.224l-0.049,0.09l-0.319,0.298l-0.209,0.254l-0.415,0.91h-0.048l-0.056-0.093l-0.087-0.062l-0.178-0.072l0.034,0.134
	l0.044,0.099l-0.01,0.08l-0.117,0.09l0.025,0.168l-0.137,0.226l-0.172,0.228l-0.086,0.17l-0.015,0.1l-0.142,0.279l-0.033,0.117
	l-0.062,0.352l-0.234,0.552L70.527,85.4l-0.061,0.143l0.07,0.042l0.054-0.024l0.083-0.135l0.124-0.285l0.158-0.705l0.448-1.201
	l0.705-1.373l0.963-1.401l0.082-0.09l-0.064-0.077L72.979,80.32z M74.596,77.836l-0.097-0.043l-0.097,0.048l-0.057,0.095
	l-0.039,0.084l-0.058,0.062l-0.104,0.025L73.7,78.871v0.043l0.146,0.04l0.002,0.053l-0.047,0.097l-0.037,0.054L73.54,79.4
	l-0.276,0.408l-0.101,0.26l0.063,0.154l0.045-0.166l0.108-0.166l0.269-0.316l0.311-0.471l0.673-0.758l0.022-0.078l0.011-0.192
	l0.022-0.087l-0.021-0.07L74.596,77.836z M77.998,75.555l-0.036-0.012l-0.05,0.021l-0.066,0.016l-0.029,0.038l0.008,0.183
	l-0.006,0.068l-0.092,0.158l-0.093,0.047l-0.286-0.029l-0.166,0.021l-0.099,0.058l-0.156,0.161l-0.352,0.158l-0.06,0.046
	l-0.074,0.088l-0.319,0.172L76.049,76.9l-0.062,0.053l-0.291,0.175l-0.09,0.037l-0.123,0.019l-0.246,0.08l-0.154,0.02l-0.127,0.064
	l-0.034,0.15l0.024,0.161l0.057,0.098v0.054l-0.089,0.088l-0.085,0.14l-0.062,0.159l-0.023,0.15h0.056l0.06-0.146l0.092-0.127
	l0.209-0.201l0.406-0.3l0.19-0.207l0.716-0.377l0.418-0.359l0.238-0.155l0.25-0.064l0.551-0.273l0.014-0.035l0.065-0.1l0.021-0.066
	l0.007-0.072l-0.007-0.228L77.998,75.555z M78.717,75.018l-0.432,0.381v0.064l0.148-0.018l0.125-0.086l0.193-0.195l0.188-0.053
	l0.059-0.08l0.161-0.121l0.062-0.036l-0.007-0.021l0.022-0.022l0.031-0.013l0.062-0.008v-0.059l-0.324,0.092L78.717,75.018z
	 M90.021,67.277l-0.01-0.051l-0.029-0.004l-0.012,0.012l-0.007,0.053v-0.061l-0.008,0.025v0.023l-0.011,0.017l-0.037-0.006v0.06
	l0.132,0.022l0.021,0.108l-0.05,0.116l-0.073,0.054l-0.017,0.01l-0.169,0.046l-0.035,0.044l-0.062,0.133l-0.32,0.256l-0.027,0.04
	l-0.113,0.005l-0.09,0.024l-0.058,0.062l-0.021,0.121l-0.09,0.123l-0.564,0.352l-0.312,0.271l-0.144,0.158l-0.093,0.189h0.052
	l0.131-0.17l1.099-0.785l0.34-0.127l1.146-0.941l-0.472-0.172L90.021,67.277z M99.968,52.432l-0.104-0.094L99.66,52.01l0.015-0.099
	l0.072-0.118l0.019-0.088l0.021-0.395l-0.04-0.146l-0.139-0.033l-0.146,0.039h-0.027l-0.021-0.006l-0.016-0.007l-0.023-0.018
	l-0.021-0.023l-0.021-0.03l-0.017-0.048l-0.031-0.236l-0.01-0.046l-0.041-0.065l-0.024-0.045l-0.019-0.061l-0.017-0.072l-0.015-0.05
	l-0.021-0.042l-0.023-0.036l-0.084-0.09l-0.195-0.166L98.8,50.09l-0.024-0.055l-0.016-0.094l0.01-0.061l0.016-0.051l0.031-0.079
	l0.022-0.037l0.097-0.122l0.004-0.03l-0.013-0.024l-0.104-0.07l-0.117-0.129l-0.076-0.103l-0.025-0.058L98.582,49.1l-0.02-0.141
	l-0.021-0.074l-0.023-0.054l-0.033-0.026l-0.041-0.019l-0.09-0.025l-0.035-0.018l-0.03-0.024l-0.022-0.042l-0.016-0.038
	l-0.016-0.071l0.004-0.043l0.021-0.035l0.082-0.053l0.004-0.002l0.01-0.012l0.019-0.025l0.021-0.047l-0.004-0.046l-0.024-0.036
	l-0.035-0.025l-0.045-0.018l-0.185-0.057l-0.043-0.022l-0.037-0.025l-0.065-0.055l-0.205-0.226l-0.073-0.104l-0.048-0.081
	l-0.021-0.051l-0.026-0.086l-0.004-0.066l0.004-0.064l0.03-0.091l0.033-0.064l0.01-0.049l0.012-0.075l0.014-0.249l0.012-0.081
	l0.035-0.142l0.004-0.052l-0.008-0.045l-0.018-0.034l-0.021-0.028l-0.028-0.028l-0.026-0.069l-0.027-0.104l-0.054-0.343
	l-0.021-0.081l-0.194-0.29l-0.054-0.112l-0.031-0.087l-0.036-0.084l-0.067-0.119l-0.104-0.135l-0.146-0.155l-0.067-0.055
	l-0.249-0.126l-0.034-0.022l-0.03-0.027l-0.027-0.033l-0.154-0.288l-0.036-0.043l-0.095-0.074l-0.049-0.027l-0.104-0.076
	l-0.04-0.047l-0.016-0.033l-0.008-0.019l0.002-0.663v-1.048l0.003-1.051l0.003-1.051l0.002-1.052v-1.054l0.002-1.056l0.003-1.057
	l0.002-1.058l-0.012-1.08l-0.009-1.08l-0.012-1.08l-0.009-1.083L95.955,30v-0.007l-0.072-0.03l-0.113-0.056l-0.221-0.166
	l-0.14,0.071l-0.157,0.01l-0.148-0.041l-0.258-0.15l-0.115,0.042l-0.098,0.089l-0.104,0.047L94.16,29.62l-0.128,0.005l-0.078,0.108
	L93.9,29.879l-0.08,0.078l-0.151-0.085l-0.161,0.08l-0.14-0.028l-0.054-0.087l0.095-0.094V29.69l-0.191,0.029l-0.185-0.053
	l-0.141-0.132l-0.056-0.188l-0.073-0.167l-0.131-0.031l-0.04-0.009L92.4,29.132l-0.141-0.069v0.062L91.9,29.001l-0.11-0.058
	l0.024-0.051l0.023-0.034l-0.162-0.016l-0.199,0.033l-0.057-0.076l-0.087-0.054l-0.106-0.033L91.12,28.69l-0.05,0.004l-0.088,0.043
	l-0.053,0.008l-0.044-0.018l-0.063-0.081l-0.133-0.067l-0.123-0.213l-0.106-0.05l-0.092-0.006l-0.193-0.061l-0.498-0.087
	l-0.286-0.281l-0.109-0.197l-0.041-0.057l-0.073-0.054l-0.065-0.029l-0.049-0.056l-0.02-0.138l-0.021-0.045l-0.047-0.049
	l-0.061-0.042L88.843,27.2l-0.264-0.009l-0.116-0.039l-0.122-0.083L88.1,26.823l-0.133-0.092l-0.238-0.059l-0.043-0.052
	l-0.028-0.065l-0.04-0.054l-0.088-0.056l-0.502-0.17l-0.125,0.02l-0.145,0.117l-0.044,0.137l-0.012,0.16l-0.043,0.098l-0.089-0.048
	l-0.043,0.071l-0.06,0.039l-0.069,0.027l-0.082,0.049l-0.084-0.051l-0.055-0.002l-0.021,0.083l-0.004,0.071l-0.02,0.039
	l-0.031,0.022l-0.049,0.024l-0.064,0.009l-0.637-0.02l-0.082,0.01l-0.049-0.062l-0.051-0.04l-0.059-0.02L85.04,27l-0.033,0.021
	l-0.045,0.038l-0.041,0.016l-0.017-0.041l-0.03-0.042l-0.019-0.032l0.002-0.016l-0.239-0.001l-0.097-0.054l0.071-0.129l-0.059-0.143
	l-0.086-0.069l-0.097-0.051l-0.1-0.083l-0.102-0.039l-0.084,0.079l-0.102,0.175l-0.059-0.002l-0.127-0.048L83.755,26.6l-0.18,0.096
	l-0.076,0.02l-0.085,0.047l-0.077,0.061l-0.048,0.058l-0.079-0.007l-0.114,0.016l-0.25-0.009l-0.052,0.058l0.032,0.259l-0.084,0.059
	l-0.051-0.021l-0.045-0.043l-0.039-0.063l-0.062,0.02l-0.045,0.043l-0.045,0.063l-0.213,0.036l-0.088-0.022l-0.431-0.274
	l-0.082-0.083l-0.078-0.023l-0.096,0.056l-0.08,0.086L81.355,27.1l-0.053-0.004l-0.119,0.062l-0.142,0.1l-0.255,0.11l-0.107,0.013
	h-0.39L80.221,27.4l-0.156,0.085l-0.082,0.02l-0.075,0.063l-0.134,0.314l-0.074,0.119l-0.145,0.089l-0.138,0.017l-0.321-0.037
	l-0.201,0.027l-0.047,0.081l0.002,0.136l-0.043,0.189l-0.211,0.151l-0.228-0.216L78.152,28.1l-0.176-0.217l-0.141-0.027
	l-0.518,0.027l-0.055-0.029l-0.031-0.072l-0.018-0.085l-0.023-0.067l-0.043-0.038l-0.166-0.086L76.67,27.41l-0.095-0.102
	l-0.029-0.034l-0.022-0.04l-0.012-0.045V27.14l0.014-0.044l0.084-0.17l-0.021-0.055l-0.062-0.064l-0.188-0.077l-0.104-0.03
	l-0.078,0.003l-0.037,0.022l-0.034,0.033l-0.047,0.076l-0.099,0.283l-0.021,0.042l-0.025,0.039l-0.025,0.036l-0.033,0.029
	l-0.057,0.027l-0.079,0.022l-0.146,0.019l-0.083-0.003l-0.064-0.014l-0.039-0.022l-0.199-0.15l-0.077-0.039l-0.063-0.011
	l-0.271,0.038l-0.071-0.007l-0.057-0.018l-0.037-0.027l-0.091-0.097l-0.047-0.074l-0.037-0.09l-0.047-0.255l-0.033-0.093
	l-0.036-0.043l-0.054-0.042l-0.104-0.044l-0.072-0.014h-0.064l-0.26,0.047L73.7,26.394l-0.04,0.022l-0.057,0.07l0.006,0.119
	l-0.018,0.22l-0.119,0.249l-0.117,0.153l-0.168,0.045l-0.27-0.071l0.012,0.139l0.055,0.062l0.061,0.045l0.029,0.092l-0.034,0.066
	l-0.146,0.085l-0.031,0.099l-0.018,0.264l-0.068,0.234l-0.143,0.147l-0.24,0.009l-0.179-0.115l-0.147-0.204l-0.104-0.242
	l-0.038-0.22l0.033-0.155l0.145-0.229l0.035-0.148l-0.021-0.112l-0.06-0.104l-0.084-0.088l-0.098-0.068l-0.047,0.028l-0.096,0.039
	l-0.041,0.029l-0.034,0.043l-0.024,0.066L71.5,27.197l-0.043,0.059l-0.201-0.183l-0.093-0.025l-0.121,0.082l-0.017,0.029
	l-0.041,0.093l-0.025,0.038l-0.037,0.041L70.84,27.38l-0.033,0.031l-0.059,0.043l-0.085,0.029l-0.495,0.032l-0.121-0.077
	l-0.046-0.211l-0.021-0.188l-0.062-0.117l-0.111-0.065l-0.17-0.031l-0.49,0.034l-0.112-0.067l-0.069-0.171l0.008-0.339l-0.067-0.153
	l-0.287-0.141l-0.3,0.099l-0.268,0.215l-0.652,0.657L67.1,27.143L66.768,27.2l-0.324-0.106l-0.172-0.091l-0.074-0.09l0.018-0.135
	l0.014-0.056l0.017-0.095l0.052-0.189v-0.087l-0.052-0.099l0.047-0.105l-0.015-0.094l-0.055-0.074l-0.078,0.02l-0.269-0.095
	L65.5,25.828l-0.287-0.146l-0.014-0.301l-0.038-0.195l0.028-0.271l0.004-0.24l-0.118-0.106l-0.193,0.03l-0.356,0.13l-0.232,0.029
	l-1.018-0.129l-0.193,0.053l-0.118,0.132l-0.093,0.166l-0.112,0.153l-0.04,0.084l-0.184,0.033l-0.383,0.002l-0.114-0.069
	l-0.253-0.294l-0.098-0.07l-0.053-0.049l-0.121-0.219l-0.084-0.048l-0.25-0.054l-0.093-0.004l-0.171,0.033l-0.51,0.211l-0.09-0.05
	l-0.955-0.207l-0.151-0.057L58.639,24l-0.172-0.039l-0.121,0.03l-0.121,0.051l-0.162,0.027l-0.152-0.023l-0.29-0.086l-0.155-0.023
	l-0.354,0.017l-0.172-0.034l-0.131-0.105l-0.029-0.147l-0.02-0.498l0.027-0.108l0.029-0.073l-0.133-0.159l-0.232-0.209l-0.071-0.147
	l-0.047-0.165L56.26,22.17l-0.152-0.059l-0.146-0.009l-0.076-0.018l-0.064-0.03l-0.064-0.065l-0.033-0.067l-0.021-0.063
	l-0.037-0.056l-0.142-0.101l-0.113-0.005l-0.077,0.106l-0.045,0.456l-0.062,0.139l-0.115,0.057l-0.178-0.018l-0.16-0.063
	l-0.291-0.161l-0.364-0.052l-0.067,0.018l-0.066,0.045l-0.088,0.101l-0.055,0.043l-0.14,0.044l-0.46-0.044l-0.141-0.045
	l-0.098-0.104l-0.148-0.226l-1.283-1.233l-0.074-0.049l-0.169-0.031l-0.069-0.04l-0.117-0.036L50.8,20.652l-0.123,0.012v-0.521
	l-0.002-1.046v-1.049L50.673,17v-1.051l-0.003-1.052l-0.002-1.056v-1.054l-0.002-1.059l-0.002-1.058V9.61l-0.002-1.06V7.486
	l-0.003-1.064l-0.002-1.066V4.289L50.654,3.22V2.753h-2.555L46.671,2.75H27.854l-0.319,0.007l0.004,0.169L27.538,3.22l-0.005,1.309
	l-0.007,1.305L27.52,7.136l-0.005,1.3l-0.007,1.3l-0.005,1.296l-0.006,1.293l-0.005,1.292l-0.006,1.29l-0.005,1.287l-0.006,1.285
	l-0.005,1.284l-0.007,1.279l-0.004,1.28l-0.006,1.275l-0.004,1.274l-0.007,1.273l-0.005,1.269l-0.006,1.269l-0.007,1.264
	l-0.004,1.265l-0.007,1.262l-0.004,1.26L27.4,33.988l-0.005,1.255l-0.007,1.252l-0.004,1.251l-0.007,1.25l-0.004,1.246l-0.007,1.247
	l-0.004,1.244l-0.007,1.242h-1.689l-1.691,0.002h-3.379l-1.688,0.003h-3.379l-1.688,0.001H10.46l-1.689,0.003H5.392l-1.691,0.002
	h-3.38L0.126,43.99H0l0.005,0.15l0.159,0.32l0.041,0.189l0.022,0.207l0.057,0.155l0.187,0.274L0.414,45.35l0.054,0.103l0.07,0.078
	l0.087,0.049L0.73,45.6l0.099,0.065l0.454,0.471l0.148,0.036l0.336-0.031l0.283,0.112l0.254,0.251l0.207,0.316l0.143,0.299
	l0.198,0.608l0.09,0.156l0.318,0.379l0.075,0.135l0.031,0.089l0.012,0.051l0.013,0.043l0.047,0.058l0.265,0.153L3.782,48.9
	l0.175,0.077l0.319,0.091l0.258,0.158l0.144,0.056l0.191,0.022l0.125,0.048l0.33,0.229l0.097,0.087l0.051,0.078l0.057,0.148
	l0.049,0.082l0.146,0.083l0.09,0.067v0.031l0.128,0.045l0.139,0.11L6.667,51l0.054,0.162l0.072,0.113l0.576,0.375l0.132,0.05
	l0.055,0.036l0.185,0.213l0.153,0.117l0.134,0.076l0.115,0.092l0.092,0.17l0.099,0.312l0.074,0.126l0.191,0.095l0.26,0.312
	l0.617,0.478l0.299,0.379l0.094,0.08l0.225,0.061l0.436,0.214l0.047,0.044l0.039,0.053l0.047,0.049l0.081,0.035l0.038-0.002
	l0.031-0.021l0.052-0.066l0.029-0.012l0.083,0.03l0.047,0.01l0.054,0.029l0.074,0.129l0.077,0.027l0.079,0.004l0.058,0.025
	l0.034,0.057l0.013,0.094l0.025-0.014l0.033,0.022l0.099,0.112l0.052-0.064l0.354,0.422l0.144,0.062l0.142,0.031l0.164,0.078
	l0.148,0.116l0.097,0.136l0.02,0.09l0.012,0.099l0.018,0.096l0.049,0.075l0.076,0.023l0.241,0.035l0.052,0.029l0.045,0.1
	l0.229,0.265l0.09,0.153l0.018,0.088l0.016,0.185l0.019,0.088l0.125,0.076l0.029,0.045l-0.002,0.054l-0.042,0.1l-0.012,0.059
	l0.017,0.098l0.076,0.117l0.016,0.086l-0.009,0.131l-0.011,0.058l0.014,0.046l0.065,0.1l0.056,0.061l0.101,0.062l0.045,0.059
	l0.018,0.072l0.007,0.103l0.015,0.088l0.041,0.035l0.143,0.092l0.111,0.214l0.096,0.24l0.092,0.173l0.056,0.04l0.132,0.068
	l0.072,0.07l0.148,0.312l0.108,0.136l0.022,0.197l-0.014,0.315l-0.033,0.203l-0.106,0.312l-0.022,0.175l0.021,0.208l0.141,0.48
	l0.002,0.076l-0.018,0.137l0.015,0.086l0.03,0.048l0.099,0.12l0.022,0.041l0.031,0.09l0.144,0.175l0.106,0.406l0.03,0.073l0.14,0.16
	l0.135,0.105l0.102,0.132l0.067,0.366l0.135,0.254l0.05,0.123l0.015,0.124v0.09l0.034,0.085l0.108,0.117l0.359,0.253l0.108,0.104
	l0.022,0.055l0.026,0.081l0.036,0.073l0.047,0.035l0.056,0.021l0.617,0.395l0.082,0.118l0.137-0.071l0.211-0.008l0.195,0.057
	l0.122,0.154l0.182,0.135l0.065,0.029l0.05,0.045l0.134,0.31l0.25,0.282l0.167,0.139l0.262,0.131l0.364,0.403l0.292,0.161
	l0.691,0.238l0.487,0.102l0.532,0.033l0.079,0.024l0.071,0.062l0.039,0.086l-0.062,0.193l0.051,0.047l0.089,0.026l0.072,0.034
	l0.357,0.303l0.225,0.126l0.669,0.162l0.207-0.014l0.058,0.014l0.065,0.052l0.027,0.057l0.02,0.062l0.045,0.072l0.388,0.386
	l0.326,0.182l0.092,0.03l0.067,0.046l0.213,0.205l0.11,0.043l0.087-0.052h0.002l0.065-0.083h0.002l0.067-0.018l0.092,0.15
	l0.045-0.025l0.112-0.036l-0.047,0.183l0.109,0.066l0.457-0.012l0.415,0.115l0.296,0.045l0.193-0.1l0.104-0.23l0.034-0.299
	l0.072-0.021l0.029,0.021l0.045-0.154l0.036-0.084l0.062-0.054l0.303-0.161l0.065-0.053l0.063-0.092l0.208-0.438l0.09-0.084
	l0.051-0.052l0.171,0.095l0.038-0.072l0.346-0.26l0.207-0.039l0.083-0.037l-0.069-0.101l-0.184-0.121l-0.058-0.083l0.004-0.103
	l0.105-0.337l0.002-0.162l0.015-0.09l0.047-0.062l0.09-0.077l0.041-0.013h0.045l0.056-0.007l0.065-0.038h0.002l-0.002-0.036
	l-0.058-0.125l0.007-0.051l0.072-0.114l0.002-0.103l-0.029-0.1l-0.018-0.1l0.016-0.119l0.038-0.08l0.052-0.079l0.242-0.643
	l0.068-0.054l0.043-0.066l-0.039-0.117v-0.002l0.072-0.036l0.018-0.03l-0.042-0.11l0.092-0.044l0.047-0.053l0.074-0.146v-0.02
	l0.124-0.236l0.031-0.01l0.036-0.121l0.221-0.394l0.022-0.096l0.008-0.076l0.019-0.063v-0.002l0.058-0.059l0.056-0.007l0.282,0.007
	l0.135-0.031l0.272-0.152l0.141-0.055l0.029,0.016l0.036,0.089l0.041,0.021l0.049-0.009l0.022-0.021h0.002l0.011-0.018l0.002-0.004
	l0.079-0.064l0.061-0.107l0.06-0.02l0.829,0.062h0.002l0.013-0.028l0.184-0.268l0.025-0.089l0.016-0.233l0.029-0.082l0.058-0.06
	l0.093-0.021l0.084-0.033l0.072-0.16v-0.002l0.072-0.043l0.144,0.041l0.099,0.1l0.099,0.074l0.135-0.033l0.039,0.156l0.104,0.054
	l0.274,0.026l0.354,0.188l0.088,0.076l0.275,0.119l0.721-0.078l0.202,0.052l0.119-0.115l0.117,0.039l0.107,0.09l0.102,0.053
	l0.072-0.006l0.07-0.014l0.064-0.029l0.051-0.047l0.062-0.033l0.076,0.014l0.15,0.051h0.256l0.087-0.062l0.05,0.002l0.022,0.09
	l0.065,0.049l1.235,0.177l0.396-0.051l0.117-0.043l0.083-0.09l0.032-0.166l0.024-0.038l0.056,0.019l0.054,0.062l0.027,0.083
	l-0.016,0.044l-0.069,0.152l-0.025,0.069l0.162,0.043l0.122-0.068l0.119-0.102l0.146-0.053l0.065,0.021l0.051,0.115l0.071,0.043
	l0.086,0.006l0.081-0.01l0.079-0.025l0.067-0.036l-0.031,0.11l0.02,0.112l0.055,0.104l0.123,0.193l0.052,0.157l0.092,0.208
	l0.052,0.08l0.065,0.062l0.097,0.051h0.202l0.064,0.042l-0.011,0.137l-0.063,0.185l-0.008,0.129l0.085,0.033l0.132-0.119
	l0.189-0.107l0.189-0.021l0.112,0.106l0.01,0.228l-0.067,0.262l0.029,0.119l0.075,0.078l0.084,0.008l0.079,0.022l0.067,0.05
	l0.143,0.184l0.221,0.117l0.508,0.16l0.229,0.08l0.063,0.148l0.027,0.249l0.029,0.122l0.044,0.089L43,67.046l0.074,0.07l0.083,0.054
	l0.552,0.254l0.18,0.159l0.148,0.192l0.058,0.05l0.364,0.174l0.153,0.114l0.099,0.125l0.159,0.3l-0.061,0.185l0.059,0.117
	l0.402,0.33l0.02,0.048l0.038,0.058l0.085,0.021l0.094,0.014l0.072,0.028l0.061,0.116l0.066,0.501l0.148,0.344l0.029,0.181
	l-0.067,0.187l0.054,0.056l0.032,0.07l0.013,0.09l0.005,0.114l0.042,0.06l0.092,0.066l0.09,0.092l0.042,0.139l0.022,0.032
	l0.112,0.056l0.04,0.029l0.022,0.067l-0.047,0.106l0.024,0.062l0.052,0.025l0.11,0.004l0.05,0.027l0.031,0.049l0.042,0.088
	l0.031,0.043l0.044,0.086l0.191,0.836l0.097,0.191l0.278,0.364l-0.011,0.147l0.087,0.063l0.178,0.085l0.076,0.061l0.034,0.084
	l-0.014,0.207l0.007,0.096l0.104,0.176l0.154,0.105l0.314,0.125h-0.002l-0.218,0.117h-0.002l-0.038,0.064l0.009,0.096l0.057,0.066
	l0.061,0.053l0.029,0.049l0.035,0.313l0.07,0.303l0.218,0.288l0.117,0.193l0.004,0.139l-0.049,0.157l0.072,0.166l0.131,0.144
	l0.13,0.094l0.213,0.039l0.051,0.02l0.022,0.07l0.015,0.121l0.027,0.115l0.065,0.049l0.123,0.025l0.746,0.376l0.139,0.146
	l0.058,0.187l0.008,0.117l0.022,0.06l0.103,0.117l0.106,0.092l0.056,0.02l-0.002,0.044l-0.021,0.059l-0.004,0.054l0.049,0.146
	l0.054,0.111l0.071,0.107l0.109,0.133l0.112,0.043l0.16,0.035l0.097,0.064l-0.088,0.127l0.075,0.125l0.118,0.154l0.133,0.132
	l0.119,0.055l0.018,0.041l-0.029,0.088l-0.063,0.134l0.024,0.096l0.058,0.049l0.071,0.039l0.06,0.076l0.011,0.08l-0.021,0.188
	l0.012,0.083l0.038,0.009l0.101,0.086l0.092,0.098v0.047l0.188,0.037l0.1,0.091l0.064,0.114l0.094,0.107l0.07,0.041l0.135,0.042
	l0.055,0.033l0.031,0.071l0.018,0.102l0.025,0.088l0.059,0.035l0.13,0.207l0.043,0.036l0.271-0.002l0.047,0.045l0.076,0.146
	l0.029,0.035l0.084-0.003l0.16-0.09l0.095-0.024l0.073,0.039l0.093,0.164l0.048,0.038l0.129,0.04l0.153,0.074l0.149,0.139
	l0.062,0.129v0.344L54.4,83.141l0.006,0.09l0.044,0.037l0.116,0.008l0.062,0.033l0.029,0.069l0.026,0.121l-0.007,0.038l0.007,0.316
	l-0.021,0.104l-0.069,0.195l-0.021,0.168l-0.04,0.113l-0.011,0.09l-0.025,0.08l-0.123,0.138l-0.008,0.007l-0.051,0.089l0.215,0.086
	l0.052,0.031l0.011,0.024l0.016,0.066l0.021,0.03l0.086,0.045l0.021,0.013l0.107,0.131l0.083,0.141l0.054,0.15l0.017,0.164
	l-0.029,0.164l-0.11,0.369l-0.018,0.17l0.018,0.038l0.035,0.049l0.032,0.062l0.015,0.078l-0.019,0.074L54.762,87l0.137,0.191
	l0.029,0.047l0.115,0.094l0.066,0.027l0.064,0.002l0.062,0.015l0.049,0.067l0.02,0.095l-0.002,0.174l0.034,0.095l0.069,0.071
	l0.303,0.245l0.086,0.111l0.241,0.3l0.11,0.141l0.127,0.134l0.111,0.144l0.108,0.368l0.096,0.406l0.306,0.896l0.021,0.137
	l0.055,0.423l0.047,0.198l0.183,0.075l0.198,0.05l0.092,0.114l0.087,0.236l0.017,0.108l-0.033,0.097l-0.064,0.107l-0.051,0.107
	l0.019,0.094l0.16,0.132l0.146,0.021l0.142-0.017l0.151,0.005l0.037,0.025l0.049,0.074l0.045,0.016l0.051-0.009l0.131-0.056
	l0.186,0.006l0.063,0.048l0.067,0.133l0.117-0.118l0.278,0.205L59.26,92.8l0.074,0.05l0.073,0.021l0.065-0.018l0.047-0.051V92.8
	l0.086,0.05l0.058-0.018l0.052-0.034l0.07,0.002l0.04,0.034l0.114,0.139l0.264,0.168l0.078,0.101l-0.03,0.142l0.104-0.009
	l0.099,0.009l0.09,0.036l0.076,0.073l-0.097,0.113l0.015,0.045l0.067,0.008l0.062,0.019l0.155,0.15l0.086,0.055l0.099,0.021
	l0.449-0.174l0.22,0.119l0.238,0.061l0.216,0.089l0.157,0.192l0.099-0.125l0.021-0.027l0.209,0.068l0.243,0.141l0.211,0.061
	l-0.062,0.172v0.084l0.088,0.03l0.202,0.001l0.048,0.059l0.178,0.269l0.069,0.083l0.593,0.303l0.285,0.086l0.266,0.014l0.359-0.098
	l0.148,0.037l0.064,0.203l0.07,0.036l0.161-0.053l0.237-0.128l0.105-0.006l0.438,0.062l0.482-0.057h0.579l0.149,0.043l0.015,0.13
	l0.104,0.028l0.662,0.043l0.149,0.033l0.14,0.068l0.144,0.113l0.075,0.109l0.062,0.135l0.079,0.115l0.223,0.096l0.34,0.354
	l0.139,0.094l0.121,0.051l0.129,0.021l0.161,0.008l0.052,0.061l0.042,0.133l0.079,0.121l0.162,0.029l0.031-0.029l0.002-0.002
	l0.002-0.049l0.015-0.041l0.06,0.002l0.051,0.043l0.023,0.061l0.031,0.055l0.077,0.023l0.151-0.068l0.004-0.164l-0.053-0.19
	l-0.021-0.155l0.029-0.047l0.174-0.126l0.133,0.095l0.178-0.054l0.043-0.041l0.096-0.092l0.022-0.138l0.103-0.024l0.365,0.024
	l0.506-0.043l0.014-0.071l-0.024-0.376L72.4,95.54l-0.064-0.229l-0.1-0.017l-0.08,0.054l-0.032,0.123l-0.015,0.151l-0.027,0.133
	l-0.057,0.091l-0.069,0.053l-0.187,0.086l-0.043,0.043l-0.012,0.037l-0.021,0.01l-0.082-0.038L71.576,96l-0.029-0.053l-0.036-0.139
	l0.005-0.115l0.09-0.2l0.01-0.147l0.107,0.049l0.08-0.02l0.051-0.078l0.025-0.126l-0.089-0.038l-0.097-0.02l-0.207-0.006
	l-0.094-0.016l-0.072-0.037l-0.055-0.039L71.223,95l-0.094-0.1l-0.036-0.228l0.013-0.251l0.037-0.178l-0.107-0.174l-0.036-0.073
	L70.986,93.9l0.027-0.069l0.049-0.06l0.025-0.064l-0.045-0.094l-0.061-0.049l-0.053,0.004l-0.054,0.027l-0.069,0.018l-0.062-0.081
	v-0.179l0.045-0.18l0.068-0.08l0.045-0.033l-0.032-0.064l-0.058-0.038l-0.029,0.045l-0.018,0.029l-0.037,0.038l-0.055,0.031
	l-0.052-0.008l-0.013-0.054l0.067-0.17l-0.002-0.07l-0.048-0.016l-0.163-0.017l-0.054-0.02l-0.043-0.105l-0.01-0.113l-0.039-0.092
	l-0.139-0.035l-0.097-0.008l-0.021-0.03l0.021-0.078l0.022-0.238l0.039-0.126l0.01-0.076l-0.26-0.088l0.201-0.061l0.069-0.059
	l0.041-0.111l0.021,0.043l0.053,0.076l0.025,0.058l-0.048-0.274l-0.17-0.564l-0.079-0.557l-0.183-0.545l-0.05-0.369l-0.037-0.143
	l-0.062-0.126l-0.096-0.09l-0.121-0.04l-0.105-0.002l-0.084-0.023l-0.057-0.109l-0.003-0.113l0.019-0.171l0.037-0.157l0.053-0.083
	l0.082,0.036l0.338,0.316l0.09-0.164l-0.102-0.11l-0.301-0.138l-0.088-0.101l-0.066-0.12l-0.043-0.152l-0.021-0.365l0.016-0.094
	l0.079-0.036l0.425-0.029l0.105-0.08l-0.003-0.142l-0.093-0.215l0.088-0.086l-0.051-0.119l-0.074-0.105l0.009-0.045l0.119-0.013
	l0.116-0.044l0.097-0.069l0.058-0.104L70.08,86.25l-0.053-0.135l-0.021-0.114l0.069-0.048l0.03-0.066l0.013-0.148l-0.003-0.156
	L70.1,85.489l0.09-0.036l0.052-0.092l0.01-0.116l-0.043-0.11l-0.506,0.159l-0.146,0.103l-0.145,0.064l-0.188-0.006l-0.379-0.089
	l-0.166-0.067l-0.115-0.076l-0.123-0.062l-0.189-0.024l-0.375,0.026l-0.171-0.047l-0.104-0.159l0.186,0.004l0.181,0.043l0.181,0.019
	l0.183-0.064l0.084-0.109l-0.035-0.09l-0.112-0.033l-0.15,0.065L68.1,84.758l-0.013-0.025l-0.011-0.061l0.154-0.079l-0.092-0.175
	l-0.275-0.275h0.107l-0.078-0.176l-0.262-0.261l-0.029-0.204l0.24,0.162l0.191,0.188l0.607,0.879l0.024,0.078l0.002,0.073
	l0.028,0.056l0.103,0.02l0.083-0.016l0.042-0.041l0.009-0.057l-0.025-0.055l0.14-0.208l0.071-0.031l0.047,0.121l0.122-0.104
	l0.06-0.039l0.084-0.031l-0.057-0.116l0.095-0.057l0.175-0.173l0.146-0.064l-0.033,0.159l-0.014,0.164l0.026,0.1l0.062,0.029
	l0.055-0.013l0.012-0.029l0.054,0.043l0.036,0.01l-0.002,0.018l-0.062,0.074l-0.054,0.029l-0.082,0.012l-0.148-0.01l0.025,0.034
	l0.016,0.028l0.02,0.026l0.042,0.028l-0.093,0.084l-0.275,0.146l0.145,0.102l0.107-0.033l0.163-0.186l0.493-0.202l0.082-0.06
	l0.021-0.191l0.314-0.881l0.105-0.127l0.024-0.088l0.026-0.168l0.129-0.375l0.232-0.437l0.026-0.069l0.021-0.188l0.023-0.095
	l0.039-0.069l0.091-0.114l0.073-0.135l0.025-0.135l-0.061-0.11l-0.676-0.288l-0.118-0.115l-0.196-0.244l0.053-0.062l-0.026-0.09
	l0.063-0.243l-0.037-0.136l-0.059,0.076l-0.088,0.039l-0.094-0.002l-0.072-0.05l-0.245,0.056l-0.178-0.027l-0.136-0.117
	l-0.123-0.207l0.127-0.049l0.031-0.005l0.062,0.018l0.022,0.039l0.008,0.035l0.01,0.021l0.043,0.015l0.062,0.03l0.055,0.016
	l0.043-0.014l0.021-0.078l0.043-0.026l0.211-0.019l0.427,0.018l0.198-0.053l-0.022,0.057l-0.012,0.035l-0.019,0.032l-0.054,0.048
	l0.188-0.016l0.31-0.135l0.179-0.021l0.129,0.04l0.108,0.093l0.099,0.128l0.084,0.144h-0.153v0.063l0.196,0.026l0.172-0.129
	l0.597-0.858l0.28-0.506l0.007,0.026l0.002,0.023l0.01,0.012l0.039-0.004l0.125-0.256l0.052-0.07l0.079-0.08l0.018-0.039
	l-0.009-0.056l-0.009-0.118l0.048-0.332l-0.022-0.1l-0.08-0.066l-0.054,0.025l-0.028,0.016l-0.006,0.01l0.01,0.027l0.026,0.041
	l-0.12,0.146l-0.371,0.151l-0.078,0.143l-0.014,0.109l-0.039,0.114l-0.051,0.099l-0.059,0.062l-0.088,0.035l0.002-0.04l0.033-0.083
	v-0.089l-0.074-0.122l-0.107-0.095l-0.139-0.061l-0.168-0.021l-0.067-0.082l0.144-0.191l0.313-0.314l-0.12-0.039l-0.031-0.084
	l0.031-0.094l0.064-0.07l0.092-0.02l0.107,0.033l0.06,0.064l-0.052,0.09l0.209-0.053l0.293-0.125l0.271-0.168l0.121-0.183h0.047
	l0.05,0.124l-0.043,0.261l0.051,0.091l-0.024,0.041l-0.024,0.031l-0.024,0.023l-0.029,0.021l0.271,0.089l0.086-0.035l0.105-0.17
	l0.08-0.177l0.041-0.147L73.9,77.199l-0.1-0.09l0.18-0.28l0.104-0.127l0.091-0.003l0.011,0.127l-0.076,0.143l-0.045,0.155
	l0.11,0.161l-0.108,0.14l-0.068,0.14l-0.088,0.312l0.129-0.058l0.246-0.064l0.119-0.084l0.268-0.365l0.125-0.136l0.273-0.17
	l0.078-0.11l-0.146-0.322l0.031-0.153l0.075-0.147l0.045-0.149l-0.109-0.214l-0.225-0.271l-0.146-0.237l0.121-0.111l0.105,0.058
	l0.156,0.117l0.146,0.067l0.062-0.088l-0.021-0.136l-0.059-0.097l-0.185-0.154l-0.069,0.032l-0.02-0.056l0.023-0.082l0.064-0.065
	l0.062-0.038l0.064,0.062l0.137,0.212l0.033,0.03l0.086,0.047l0.035,0.033l0.016,0.058l0.006,0.081l0.016,0.07l0.041,0.032
	l0.137,0.013l0.069,0.047l0.024,0.101l0.017,0.313l0.042,0.138l0.08,0.073l0.123-0.037l0.136,0.104l0.828-0.465l0.12-0.036
	l0.259-0.16l0.147-0.037l0.545-0.295L78,75.023l-0.218-0.194l-0.29-0.106l-0.229,0.064l-0.082,0.07l-0.131,0.07l-0.121,0.004
	l-0.054-0.146l0.067-0.015l0.398-0.195l-0.062-0.16L77.24,74.35l-0.055-0.062l-0.05-0.043l-0.157-0.074l-0.223-0.152l-0.089-0.029
	l-0.076,0.08l-0.06,0.011l-0.067-0.091V73.92l0.043-0.207l0.005-0.09l-0.021-0.087l-0.03-0.062l-0.215-0.291l-0.064-0.137
	l-0.031-0.152l-0.006-0.215l0.086,0.049l0.037,0.029l0.031,0.045l0.1-0.056l0.103-0.015l0.103,0.029l0.092,0.069l0.062,0.081
	l0.022,0.054l0.012,0.065l0.031,0.119l0.014,0.066l-0.003,0.059l0.005,0.054l0.038,0.063l0.036,0.013l0.104-0.003l0.045,0.021
	l0.08,0.027l0.094-0.027l0.078-0.012l0.03,0.069l0.065,0.207l0.285-0.197l0.064,0.16l-0.048,0.168l-0.112,0.035l-0.139,0.017
	l-0.117,0.108l0.234-0.037l0.264-0.105l0.439-0.27l-0.256-0.076l-0.104-0.069l0.025-0.121l0.025-0.075l-0.021-0.063L77.924,73.1
	l-0.005-0.065l0.029-0.037l0.05-0.033l0.047-0.05l0.021-0.083l-0.022-0.067l-0.06,0.026l-0.064,0.056l-0.056,0.018l-0.052-0.069
	l-0.057-0.13l-0.04-0.152l-0.008-0.127h0.048l0.026,0.072l0.137,0.223l0.029-0.033l0.071-0.043l0.045-0.041l0.11,0.115l0.043,0.133
	L78.2,72.936l-0.077,0.101l0.038,0.08l0.221,0.218l0.044,0.085l0.004,0.058l0.029,0.02l0.131-0.038l0.157-0.097l0.202-0.25
	l0.158-0.074l-0.047,0.115l0.168-0.107L79.333,73l0.119-0.02l0.153,0.006l0.053,0.031l-0.032,0.086l-0.174,0.283l-0.039,0.096
	l0.039,0.064l0.153,0.021l0.104-0.016l0.099-0.033l0.109-0.021l0.129,0.014v0.059h-0.048l-0.119,0.101l-0.348,0.039l-0.136,0.069
	l-0.03,0.132l0.163,0.005l0.361-0.104l0.448-0.213l0.155-0.028l0.102-0.04l0.293-0.17l0.148-0.025l0.145,0.078l0.047,0.141
	l-0.026,0.133L81.12,73.75l-0.162,0.034l-1.095,0.559l-0.256,0.188l-0.184,0.225l0.233-0.105l0.489-0.303l0.438-0.146l0.465-0.368
	l0.782-0.185l0.495-0.246l0.896-0.596l-0.271,0.026l-0.292,0.112l-1.044,0.598l-0.023,0.021l-0.049,0.016l-0.055,0.005l-0.035-0.014
	l-0.031-0.052l0.01-0.031l0.02-0.033l0.01-0.145l0.029-0.082l0.012-0.086l-0.048-0.104l1.024-0.378l0.281-0.03l0.354,0.021
	l0.342-0.024l0.334-0.083l0.328-0.154l0.871-0.567l0.519-0.369l0.134-0.052l0.17-0.021l0.088-0.057l0.408-0.356l0.412-0.46
	l0.215-0.12l0.553-0.436l0.059-0.109l0.014-0.117l-0.004-0.146l-0.061-0.362l-0.01-0.187l0.068-0.192l-0.096-0.226l-0.059-0.07
	l0.131,0.068l0.123,0.016l0.098,0.048l0.062,0.164l0.209-0.122L88.2,68.58l0.501-0.578l0.004-0.025l-0.01-0.068l0.006-0.024
	l0.021-0.005l0.064,0.012l0.021-0.007l0.154-0.114l0.07-0.071l0.033-0.11h0.053l0.119,0.1l0.117-0.069l0.088-0.166l0.033-0.188
	l0.062-0.172l0.144-0.043l0.157,0.043l0.115,0.084l0.022-0.035l0.021-0.014l0.024-0.008l0.033-0.01l-0.343-0.154l-0.099-0.018
	l-0.082-0.062l-0.211-0.358l-0.006,0.018l-0.004,0.027l-0.009,0.004h-0.018v0.021L89.3,66.6l0.034,0.03v0.063l-0.195-0.006
	l-0.031-0.117l-0.01-0.145l-0.127-0.095v-0.06l0.109-0.035l0.107-0.055l0.09-0.084l0.057-0.121l-0.564-0.175l-0.248-0.161
	l0.062-0.232l0.08-0.084l0.114-0.151l0.043-0.146l-0.252-0.131l-0.043-0.147l0.045-0.16l0.141-0.103l-0.034-0.082l-0.048-0.032
	l-0.066-0.007l-0.084,0.002l-0.08-0.021l-0.064-0.049l-0.115-0.143l0.037-0.039l0.456,0.014l0.239,0.146l0.229,0.209l0.23,0.106
	l0.246-0.166l0.119-0.294l0.082-0.277l0.059-0.082l0.135-0.076l0.273-0.112l0.176-0.099l0.062-0.017l0.061,0.039l0.031,0.164
	l0.064,0.035l0.143,0.036l0.033,0.094l0.002,0.135l0.057,0.158l-0.064,0.189l-0.095,0.416l-0.104,0.313l-0.138,0.286l-0.097,0.132
	l-0.079,0.036l-0.106,0.016l-0.086,0.029l-0.014,0.071l0.057,0.077l0.078,0.033l0.092,0.008l0.396-0.057l1.111-0.328l0.138,0.006
	l0.12,0.054l0.122,0.112l0.147,0.06l0.113-0.086l0.07-0.063l0.004,0.121L92.57,65.71l-0.096,0.072l-0.135,0.017l-0.382-0.021
	l-0.065,0.021l-0.088,0.055l-0.229,0.242l-0.058,0.037l-0.078,0.037l-0.086,0.027l-0.18,0.031l-0.197,0.104l-0.615,0.604
	l-0.064,0.116l0.034,0.083l0.177,0.034l0.156-0.071l0.393-0.469l0.277-0.201l2.426-1.101l0.907-0.341l0.642-0.361l0.227-0.102
	l0.318-0.1l0.17-0.018l0.92,0.018l0.226,0.064l0.088-0.004l0.12-0.152l-0.122-0.27l-0.413-0.481l-0.18-0.321l0.059-0.312l0.598-0.86
	l0.074-0.159l0.028-0.158l0.09-0.041l0.197-0.008l0.151,0.016v-0.002l0.154-0.272l0.446-0.508L98.4,60.85l0.014-0.082l0.097-0.172
	l0.05-0.199l-0.004-0.141l-0.027-0.126l-0.019-0.161l-0.015-0.059l-0.074-0.128l-0.02-0.087l0.015-0.1l0.071-0.174l0.021-0.088
	l-0.035-0.198l-0.109-0.125l-0.115-0.106l-0.055-0.135l-0.027-0.388l0.023-0.168l0.107-0.196l0.184-0.229l0.06-0.119l0.021-0.164
	l-0.01-0.069l-0.094-0.263l0.006-0.01l-0.006-0.17l-0.021-0.04l-0.061-0.041l-0.023-0.044l0.004-0.175l0.066-0.153l0.116-0.11
	l0.147-0.043l0.017-0.092l0.11-0.438l0.062-0.135l0.261-0.209l0.074-0.127l0.062-0.42l0.274-0.509l0.043-0.146l0.011-0.08
	l0.002-0.104l-0.008-0.099l-0.039-0.168l-0.009-0.098l0.029-0.093l0.067-0.073l0.115-0.104l0.049-0.094l0.01-0.037l-0.059-0.115
	l-0.056-0.064l-0.121-0.189l-0.065-0.2l0.112-0.093l0.069-0.01l0.207-0.064l0.061-0.041L100,52.497L99.968,52.432z"/>
</svg>
