<?xml version="1.0" encoding="utf-8"?>
<!-- Generator: Adobe Illustrator 16.0.4, SVG Export Plug-In . SVG Version: 6.00 Build 0)  -->
<!DOCTYPE svg PUBLIC "-//W3C//DTD SVG 1.1//EN" "http://www.w3.org/Graphics/SVG/1.1/DTD/svg11.dtd">
<svg version="1.1" id="Layer_1" xmlns="http://www.w3.org/2000/svg" xmlns:xlink="http://www.w3.org/1999/xlink" x="0px" y="0px"
	 width="100px" height="100px" viewBox="0 0 100 100" enable-background="new 0 0 100 100" xml:space="preserve">
<path fill="#555555" d="M38.072,17.349l-0.085-0.11l-0.021-0.12l-0.151-0.126l-0.181-0.221l-0.091-0.046l-0.139,0.002l-0.292,0.069
	l-0.105,0.064l-0.061,0.077l-0.008,0.057l0.064,0.038l0.241,0.013l0.131,0.082l0.146,0.18l0.183,0.086l0.328,0.354l0.05,0.016
	l0.035-0.072l-0.022-0.236L38.072,17.349z M40.381,21.091l-0.093-0.23l-0.241-0.362L39.973,20.3l-0.026-0.21l0.042-0.079
	l-0.001-0.131l-0.041-0.167l-0.136-0.275l-0.072-0.076l-0.241-0.118l-0.187-0.18l-0.06-0.012l-0.139,0.036l-0.076,0.05l0.063,0.165
	l-0.028,0.1l-0.079,0.038l-0.208,0.032l-0.038,0.063l0.088,0.255l0.249,0.025l0.072,0.035l0.091,0.134l0.038,0.163l-0.035,0.123
	l-0.145,0.197l-0.014,0.094l0.03,0.175l-0.044,0.249l0.028,0.328l0.063,0.154l0.673,1.093l0.17,0.372l0.195,0.255l0.064-0.035
	l0.013-0.104l-0.041-0.198l0.12-0.372l0.006-0.191l-0.038-0.294l0.11-0.482L40.381,21.091z M34.837,20.083l-0.041-0.134
	l-0.044-0.091l-0.069-0.001l-0.206,0.093l-0.12,0.035l-0.008,0.241l0.015,0.167l0.051,0.074l0.066,0.081l0.06,0.154l0.049,0.088
	l0.109-0.32l0.198-0.17l-0.003-0.086L34.837,20.083z M57.656,20.6v-0.007h-0.002v-3.869c0-2.803-0.002-5.607-0.002-8.41
	c0-2.77-0.002-5.54-0.002-8.31h-4.375c-2.75,0-5.5-0.002-8.25-0.002c-2.762,0-5.523,0.001-8.285,0
	c-2.785-0.001-5.57-0.001-8.354-0.001h-8.46C17.059,0.001,14.192,0,11.325,0c0,2.44,0.001,4.879,0.002,7.319
	c0.001,2.924,0.001,5.848,0.002,8.772c0.001,2.81,0.001,5.619,0.004,8.429c0.002,2.653,0.001,5.306,0.003,7.959
	c0.001,2.974,0.001,5.948,0.003,8.922c0.001,2.762,0.001,5.524,0.002,8.286c0.001,2.672,0.001,5.347,0.002,8.021
	c0.001,2.894,0.003,5.785,0.003,8.679c0,2.889,0.003,5.777,0.003,8.666c0,2.684,0.003,5.366,0.004,8.051
	c0.001,2.713,0.001,5.426,0.002,8.141c0.002,2.896,0.003,5.794,0.003,8.691h2.408c2.718,0,5.437,0.01,8.155,0.01
	c2.88,0,5.76,0.004,8.64,0.007c2.643,0.004,5.285,0.007,7.927,0.007c2.918,0,5.837,0.001,8.755,0.009
	c2.623,0.007,5.245,0.005,7.868,0.005c2.912,0,5.822,0.002,8.734,0.008c2.66,0.006,5.321,0.006,7.982,0.006
	c2.855,0,5.713,0.002,8.568,0.008c2.758,0.006,5.515,0.007,8.271,0.007V70.77c0-2.695,0.005-5.392,0.005-8.088V20.6H57.656z
	 M38.873,10.176l0.205-0.158l0.113-0.167l0.055-0.121l0.03-0.013l0.045,0.046l0.156,0.104l0.166,0.203l0.157,0.121l0.112,0.113
	l0.091,0.142l0.038,0.132v0.142l-0.016,0.17l-0.044,0.112l-0.104-0.008l-0.41-0.129l-0.205,0.003l-0.103,0.052l-0.042,0.058
	l-0.035,0.016l-0.06-0.063l-0.17-0.269L38.873,10.176z M43.969,21.483l-0.079,0.098l-0.098,0.09l-1.223,0.767l-0.086,0.038
	l-0.307,0.017l-0.233,0.054l-0.177,0.104l-0.28,0.249l-0.113,0.079l-0.29,0.148l-0.136,0.163l-0.066,0.231l-0.027,0.271
	l-0.001,0.467l-0.009,0.093l-0.033,0.05l-0.187,0.18l-0.526,0.626l-0.812,0.547l-0.47,0.458l-1.14,0.719l-0.195,0.041l-0.212-0.035
	l-0.438-0.195l-0.093-0.082l-0.009-0.073l0.104-0.142l0.021-0.066l-0.011-0.082l-0.137-0.331l-0.024-0.093l0.016-0.265l-0.015-0.231
	l-0.023-0.123l-0.041-0.079l-0.472-0.505l-0.091-0.162l-0.032-0.148l0.032-0.713l-0.006-0.115l-0.1-0.39l-0.035-0.227l-0.234-0.539
	l-0.11-0.439l-0.109-0.231l-0.096,0.028l-0.161,0.331l-0.079,0.107l-0.161,0.162l-0.069,0.11l-0.047,0.152l-0.126,0.86l-0.041,0.11
	l-0.134,0.214l-0.074,0.181l-0.101,0.118l-0.133-0.049l-0.121-0.134l-0.318-0.745l-0.07-0.112l-0.117-0.107l-0.394-0.252
	l-0.091-0.134l-0.049-0.149l0.009-0.132l0.1-0.265l0.022-0.12l-0.025-0.072l-0.076-0.003l-0.234,0.06l-0.131-0.03l-0.091-0.071
	l-0.036-0.063l-0.027-0.072l-0.058-0.098l-0.175-0.227L32.23,21.2l-0.357-0.19l-0.438-0.34l-0.126-0.167l0.016-0.161l0.207-0.305
	l0.028-0.104l-0.09-0.035l-0.381-0.041l-0.148-0.082l-0.035-0.104l0.054-0.082l0.11-0.011l0.102,0.008l0.054-0.039l0.014-0.068
	l-0.038-0.154l-0.01-0.088l0.013-0.243l-0.028-0.135l-0.139-0.224l-0.006-0.123l0.035-0.113l0.01-0.098l-0.022-0.104l-0.129-0.284
	l-0.035-0.107l-0.019-0.117l-0.016-0.359l0.017-0.161l0.04-0.15l0.062-0.162l0.019-0.161l-0.064-0.151l-0.12-0.138l-0.526-0.482
	l-0.077-0.135l-0.212-0.586l-0.1-0.148l-0.789-0.617l-0.153-0.199l-0.188-0.335l-0.11-0.013l-0.759,0.492l-0.032,0.11l0.028,0.156
	l0.066,0.224l-0.009,0.173l-0.123,0.033l-0.473-0.112l-0.083-0.06l-0.049-0.083l-0.013-0.104l0.025-0.135l0.205-0.528l0.082-0.143
	l0.126-0.084l0.161-0.019l0.359,0.072l0.114-0.031l0.063-0.05l0.019-0.025l-0.154-0.996l-0.41-0.989l-0.284-0.517l-0.383-1.175
	L27.1,9.87l0.091-0.052l0.248,0.079l0.034-0.041l-0.006-0.112l0.01-0.113l0.079-0.04l0.123-0.013l0.098-0.063L27.82,9.42
	l-0.077-0.214l0.021-0.088L27.8,9.036l0.003-0.088l-0.05-0.093l-0.092-0.091l-0.13-0.082l-0.32-0.137l-0.088-0.098l-0.041-0.123
	l-0.009-0.143l0.063-0.129l0.156-0.082l0.193-0.033l0.334,0.01l0.465-0.252l0.152-0.05l0.11-0.006l0.236,0.057l0.202,0.003
	l0.682-0.156l0.118-0.07l0.17-0.27l0.117-0.071l0.097-0.041l0.025-0.073V6.922l0.011-0.1l0.066-0.08l0.122-0.057l0.476-0.066
	l0.086-0.027l0.222,0.06l0.126,0.068l0.366,0.271L31.68,7.01l0.022,0.069l0.041,0.088l0.044,0.057l0.287,0.266l0.035,0.074
	l-0.03,0.343l-0.004,0.016l-0.013,0.016l-0.079,0.345l0.009,0.23L31.983,8.66l-0.047,0.087l-0.249,0.275l-0.189,0.12l-0.063,0.113
	l-0.028,0.137v0.112l0.028,0.103l0.167,0.278l0.041,0.101l0.042,0.164l0.058,0.149l0.082,0.061l0.094,0.035l0.091,0.06l0.09,0.123
	l0.276,0.491l0.088,0.123l0.454,0.381l0.159,0.104l0.415,0.186l0.205,0.038l0.139-0.046l0.076-0.093l0.022-0.104l0.025-0.06
	l0.065-0.001l0.16,0.036l0.223,0.011l0.156,0.052l0.18,0.113l0.142,0.12l0.074,0.082l0.038,0.098l0.088,0.507l0.022,0.573
	l0.057,0.324l0.11,0.151l0.238,0.11l0.071,0.088l0.041,0.112l0.009,0.128l-0.025,0.131l-0.079,0.205l-0.028,0.09l-0.008,0.113
	l0.001,0.293l0.022,0.151l0.104,0.262l0.016,0.104l0.009,0.262l0.06,0.157l0.126,0.142l0.315,0.261l0.151,0.092l0.148,0.022
	l0.125-0.035l0.076-0.079l0.066-0.088l0.09-0.063l0.786-0.283v-0.712l-0.231-0.155l-0.189-0.523l-0.144-0.633l-0.052-0.1
	l-0.154-0.145l-0.054-0.114l0.022-0.126l0.069-0.123l0.098-0.096l0.06-0.079l0.006-0.091l-0.014-0.115l0.004-0.149l-0.017-0.139
	l-0.085-0.091l-0.11-0.072l-0.093-0.081l-0.049-0.096l-0.01-0.12l0.098-0.665l0.054-0.135l0.093-0.068l0.465-0.104l0.081,0.014
	l0.038,0.076l0.063,0.107l0.126,0.079l0.136,0.028l0.097-0.038l0.106-0.14l0.052-0.045l0.053-0.016l0.059,0.003l0.062,0.022
	l0.312,0.212l0.098,0.109l0.123,0.214l0.025,0.186l-0.136,0.047l-0.168-0.006l-0.085,0.028l0.025,0.083l0.121,0.244l0.045,0.183
	l0.073,0.148l0.125,0.053l0.132-0.011l0.161-0.064l0.086-0.001l0.101,0.033l0.112,0.072l0.134,0.027l0.342-0.127l0.331-0.006
	l0.129-0.104l0.255-0.299l0.17-0.08l1.193,0.055l0.151,0.339l0.069,0.265l-0.047,0.188L41.433,13.7l-0.442-0.102l-0.095-0.235
	l-0.062-0.001l-0.213,0.455l-0.06,0.054l-0.11,0.006l-0.183-0.066l-0.469-0.29l-0.769-0.05l-0.596,0.586l-0.52,0.994l0.403,0.127
	h0.653l0.059,0.434l0.035,0.135l0.066,0.108l0.687,0.621l0.129,0.18l0.063,0.217l0.077,0.47l0.093,0.202l0.142,0.154L40.64,17.9
	l0.132,0.116l0.101,0.183l0.071,0.231l0.043,0.258l0.066,0.219l0.216,0.293l0.064,0.148l0.107,0.126l0.586,0.128l0.769,0.329
	l0.184,0.129l0.194,0.17l0.293,0.336l0.153,0.323l0.099,0.164l0.277,0.224l0.022,0.102L43.969,21.483z"/>
</svg>
