<?xml version="1.0" encoding="utf-8"?>
<!-- Generator: Adobe Illustrator 16.0.4, SVG Export Plug-In . SVG Version: 6.00 Build 0)  -->
<!DOCTYPE svg PUBLIC "-//W3C//DTD SVG 1.1//EN" "http://www.w3.org/Graphics/SVG/1.1/DTD/svg11.dtd">
<svg version="1.1" id="Layer_1" xmlns="http://www.w3.org/2000/svg" xmlns:xlink="http://www.w3.org/1999/xlink" x="0px" y="0px"
	 width="100px" height="100px" viewBox="0 0 100 100" enable-background="new 0 0 100 100" xml:space="preserve">
<path fill="#555555" d="M80.075,0.196L80.605,0c-2.662,0.016-5.322,0.035-7.984,0.053c-4.211,0.029-8.422,0.064-12.633,0.088
	c-4.209,0.025-8.416,0.057-12.625,0.086c-4.213,0.029-8.425,0.062-12.638,0.088C30.534,0.341,26.342,0.37,22.15,0.401l0.118,0.535
	l0.161,1.03l0.167,0.651l0.029,0.302L22.606,3.27l-0.11,0.59l-0.123,0.368l-0.129,0.289L21.71,5.4l-0.113,0.258l-0.178,0.558
	l-0.055,0.266l-0.048,0.516l0.01,0.277l0.058,0.296l0.148,0.383l0.142,0.254l0.149,0.207l0.589,0.667l0.103,0.203l0.065,0.199
	l0.038,0.22l0.009,0.302l-0.029,0.376l-0.112,0.635l-0.094,0.411l-0.3,0.904l-0.103,0.541l-0.044,0.999l-0.069,0.518l-0.512,1.697
	l-0.048,0.265l-0.035,0.257l0.044,0.977l0.245,1.601l0.094,0.38l0.438,0.973l1.347,2.293l0.319,0.702l0.176,0.647l0.036,0.26
	l0.009,0.419l-0.019,0.413l-0.09,0.647l-0.152,0.734l-0.206,0.529l-0.599,1.162l-0.1,0.248l-0.088,0.26l-0.016,0.316l0.016,0.354
	l0.441,1.978l0.055,0.448l-0.009,0.863l-0.104,0.944l-0.119,0.47l-0.171,0.318L22.494,34.8l-0.375,0.219l-0.344,0.267l-0.32,0.319
	l-0.131,0.203l-0.113,0.216l-0.065,0.251l-0.092,0.93l-0.124,0.593l-1.091,3.533l-0.373,0.644l-0.074,0.27v0.304l0.138,0.386
	l0.142,0.245l0.409,0.548l0.093,0.193l0.079,0.29l0.044,0.379l-0.039,1.195l0.029,0.667l0.3,1.912l0.142,0.547l0.129,0.374
	l0.245,0.367l0.094,0.18l0.063,0.214l0.03,0.275l0.01,0.343l-0.078,0.574l-0.187,0.682l-0.025,0.266l0.025,0.265l0.581,1.056
	l0.083,0.207l0.058,0.348l0.01,0.457l-0.058,0.916l-0.093,0.473l-1.662,4.324l-0.084,0.387L19.803,61.1l0.019,0.942l0.048,0.535
	l0.178,0.498l0.222,0.437l0.068,0.104l0.063,0.019l0.123-0.03l0.346-0.162l0.353-0.258l0.142-0.175l0.139-0.192l0.093-0.237
	l0.142-0.761l0.103-0.227l0.122-0.199l0.167-0.141l0.187-0.102l0.216-0.055l0.222-0.019l0.235,0.007l0.506,0.111l0.232,0.109
	l0.177,0.189l0.142,0.24l0.448,1.568l0.26,0.377l0.161,0.112l0.296,0.287l0.235,0.353l-0.019,0.952v0.32
	c-0.025,1.182-0.045,2.362-0.071,3.544c-0.092,4.25-0.18,8.501-0.269,12.751c-0.084,4.071-0.166,8.144-0.25,12.214l-0.093,0.703
	l-0.344,1.52c0.284,0.873,0.567,1.746,0.85,2.619c4.149,0.163,8.299,0.315,12.449,0.469C41.851,99.68,46,99.846,50.15,100v-0.01
	l-0.206-1.246l-0.616-0.891l-1.356-1.41l-0.27-0.477l-0.191-0.426l-0.119-0.486l-0.067-0.67l0.02-0.779l0.161-0.504l0.222-0.451
	l0.245-0.615l0.223-1.87l0.216-0.761l0.541-0.309l0.767-0.283l0.299-0.715l0.132-1.979l0.551-2.428l0.083-0.986l-0.197-1.119v-0.531
	l0.197-1.775L51,79.04l0.148-0.215l0.066-0.255l-0.04-0.26l-0.071-0.127L51.029,78.1L51,77.979l0.045-0.562l0.15-0.444l0.242-0.39
	l0.328-0.394l0.383-0.824l0.074-0.981l-0.121-1.64l0.234-7.416l0.188-1.146l0.328-0.623l1.092-1.064l0.447-0.74l0.254-0.859
	l0.279-1.81l0.113-1.524l0.195-0.453l0.856-0.699l0.403-0.572l1.674-1.546l0.336-0.696l0.262-0.855l0.187-0.947l0.065-0.962
	l0.188-0.918l0.467-0.912l2.074-2.967l0.065-0.321l-0.205-0.252l-0.271-0.273l-0.142-0.363l0.187-0.695l1.347-2.451l0.467-1.401
	l0.178-1.688l-0.02-3.871l0.234-2.24l0.709-1.586l1.159-0.947l1.616-0.315l1.543,0.071l0.767-0.129l0.601-0.422l1.045-1.356
	l0.507-0.463l2.767-1.761l0.82-0.345l0.279-0.389l0.552-0.963l1.085-0.904l0.605-0.796l0.028-0.768l-0.104-0.793l0.227-0.854
	l0.318-0.218H78.5l0.384-0.078l0.31-0.447l-0.021-0.434l-0.213-0.458l-0.394-0.618l-0.98-2.554l-0.122-0.641l-0.223-0.799
	l-0.442-0.608l-0.314-0.709l0.129-1.111l0.775-1.604c0.969-1.39,1.938-2.779,2.909-4.166l0.279-1.093l-0.272-0.7L79.878,2.83
	l-0.233-1.038l0.11-1.171L80.075,0.196z"/>
</svg>
