<?xml version="1.0" encoding="utf-8"?>
<!-- Generator: Adobe Illustrator 16.0.4, SVG Export Plug-In . SVG Version: 6.00 Build 0)  -->
<!DOCTYPE svg PUBLIC "-//W3C//DTD SVG 1.1//EN" "http://www.w3.org/Graphics/SVG/1.1/DTD/svg11.dtd">
<svg version="1.1" id="Layer_1" xmlns="http://www.w3.org/2000/svg" xmlns:xlink="http://www.w3.org/1999/xlink" x="0px" y="0px"
	 width="100px" height="100px" viewBox="0 0 100 100" enable-background="new 0 0 100 100" xml:space="preserve">
<path fill="#555555" d="M94.665,58.346l-0.354,0.773l-0.012,0.074l-0.008,0.111h0.08l0.285-0.479l0.135-0.306l0.066-0.342h-0.09
	L94.665,58.346z M98.328,49.857c-0.967,0.134-1.936,0.258-2.903,0.385l-0.081,0.077c-0.062,0.146-0.125,0.292-0.188,0.438
	l0.115,0.056l-0.149,0.158L94.93,51.04l-0.386,0.082L94.248,51.3l-0.28,0.229v0.091l0.302-0.048l0.334,0.08l0.22,0.171l0.036,0.218
	l-0.077,0.115v0.133l0.058,0.141l0.1,0.131l-0.123,0.026l-0.274-0.05l-0.089,0.021l-0.07,0.154l-0.003,0.171l0.056,0.162
	l0.109,0.125l-0.699,0.095L93.715,53.2l-0.134-0.112l-0.132-0.021l-0.133,0.199l0.235,0.238l0.007,0.203L93.4,53.895l-0.248,0.193
	V54.2l0.256,0.004l0.019,0.086l-0.413,0.459l-0.017,0.134l0.073,0.229l-0.272,0.008l-0.228,0.045l-0.176,0.122l-0.125,0.237
	l0.176,0.228l-0.135,0.089l-0.26,0.057l-0.203,0.141l0.148,0.107l-0.021,0.127l-0.119,0.131l-0.162,0.142l0.488,0.202L91.904,56.9
	l-0.243,0.229l-0.169,0.318l-0.038,0.427l0.248-0.119l0.11,0.093l-0.018,0.155l-0.328,0.169l-0.14,0.21l-0.085,0.267L91.207,58.9
	h0.089l0.026-0.094l0.046-0.02l0.067,0.013l0.018-0.013l-0.008,0.146l-0.077,0.188l-0.138,0.176l-0.19,0.102l0.058,0.188
	l-0.068,0.279l-0.234,0.547l0.107-0.045l0.067-0.015l0.157,0.06l-0.208,0.188l-0.178,0.328l-0.024,0.353l0.249,0.267v0.09
	l-0.056,0.203l0.297,0.463l0.089,0.301l0.065,0.336l0.154,0.102l0.186-0.077l0.146-0.213l0.031-0.132l0.057-0.526l0.053-0.151
	l0.115-0.149l0.11-0.071l0.054,0.064l-0.049,0.631l0.082,0.175l0.282-0.133l-0.062-0.164l-0.045-0.33l-0.056-0.122l0.115-0.267
	l0.071-0.351l0.103-1.345l0.044-0.169l0.062-0.163l0.25-0.354l0.1-0.182l0.021-0.109l-0.021-0.125l-0.018-0.241l0.052-0.177
	l0.229-0.317l0.052-0.116l0.146-0.102l0.915-0.152l-0.092-0.16l-0.147-0.063l-0.174-0.031l-0.162-0.058l0.113-0.213l0.191-0.23
	l0.186-0.094l0.085,0.186l0.045,0.258l0.11,0.172l0.131,0.146l0.107,0.185l0.234-0.232l0.241-0.309l0.21-0.345l0.131-0.336
	l-0.188-0.118l0.055-0.396l0.169-0.451l0.228-0.438l0.143-0.537l0.975-1.947l0.448-0.497l0.09-0.237l-0.123-0.299l0.214-0.084
	l0.032-0.076l-0.049-0.107l-0.038-0.178l-0.005-0.373l0.019-0.233l0.059-0.172l0.172-0.143l0.189-0.077l0.15-0.138L98.328,49.857z
	 M91.441,67.932l-0.235-1.226l-0.226-0.383l-0.279-0.027L90.373,66.4l-0.381,0.004l-0.477-0.191l-0.601-0.057l-1.127-0.432
	l-0.412-0.002l-0.239,0.279l0.024,0.229l0.128,0.084l0.059,0.088l-0.168,0.252l-0.027,0.162l0.092,0.191l0.217,0.309l-0.195-0.039
	l-0.197-0.121l-0.12-0.168l0.026-0.172l-0.252-0.157l-0.318-0.097l-0.332-0.019l-0.312,0.058l-0.253,0.152l-0.231,0.184
	l-0.256,0.151l-0.317,0.027v-0.112l0.338-0.244l0.166-0.164l0.069-0.141l-0.064-0.198l-0.113-0.173l-0.023-0.15l0.203-0.137v-0.102
	l-0.731-0.401l-0.161-0.147l-0.08-0.057l-0.102-0.035l-0.154-0.017l-0.072-0.058l0.019-0.088l0.032-0.031l0.117-0.084v-0.09
	l-0.715-0.199l-0.187-0.112l-0.079-0.204l-0.008-0.908L82.993,62.4l-0.08-0.158l-0.164,0.062l-0.33,0.413l-0.233,0.031l-0.218-0.157
	l-0.389-0.455l-0.169-0.095h-1.088l-0.234-0.095l-0.441-0.332l-0.266-0.069l-0.102-0.138l-0.053-0.295l-0.108-0.282l-0.263-0.104
	l-0.096,0.045l-0.355,0.31l-0.141,0.069l-0.104-0.1l-0.084-0.148L78,60.825h-1.016l-0.766-0.298l-0.13,0.033l-0.054-0.045
	l-0.118-0.027l-0.112-0.077l-0.041-0.19l0.325-0.307l0.187,0.234l0.174,0.08l0.499-0.01l0.065,0.026l0.207,0.134l0.125,0.031
	l0.118-0.006c0.136-0.053,0.271-0.104,0.407-0.154l0.107-0.007l0.103,0.048l0.118,0.119l0.029,0.091l0.086,0.196l0.088,0.146
	l0.043-0.07l0.072-0.098l0.371-0.302l0.129-0.065l0.153,0.043l0.103,0.116l0.345,0.575l0.108,0.264l0.146,0.155l0.275-0.03
	l0.224-0.172l0.13-0.146l0.059-0.141l-0.002-0.397l0.045-0.151l0.111-0.115l0.051,0.274l-0.015,0.339l0.021,0.291l0.151,0.118
	l0.164,0.05l0.44,0.206l0.205,0.049l0.093,0.052l0.055,0.131l0.044,0.149l0.057,0.123l0.117,0.084l0.061-0.088l0.041-0.147
	l0.064-0.101l0.223-0.06l0.494-0.047l0.172-0.098l0.246,0.192l0.197,0.323l0.077,0.391l-0.108,0.417l0.082,0.103l0.144,0.205
	l0.239,0.271l0.265,0.196l0.207-0.012l1.048,0.93l0.148,0.211l0.131,0.587l0.164,0.057l0.188-0.089l0.334-0.297l0.17-0.096
	l0.203-0.035l0.291-0.006l0.229-0.088l0.154-0.213l0.102-0.295l0.056-0.316l-0.008-0.418l-0.133-0.096l-0.478,0.12l-0.195-0.083
	l0.154-0.183l0.266-0.175l0.138-0.063l-0.077-0.213l-0.227-0.224l-0.346-0.234l-0.056,0.168l-0.126-0.035l-0.137-0.141l-0.078-0.141
	l-0.004-0.138l0.02-0.188l0.03-0.153l0.029-0.035l-0.146-0.185l-0.205-0.02l-0.504,0.092l-0.246-0.055l-0.281-0.135l-0.48-0.314
	l-0.781-0.685l-0.693-0.83l-0.256-0.465l-0.17-0.241l-0.371-0.241l-0.506-0.89l-0.107-0.062l-0.128-0.045l-0.113-0.061l-0.048-0.086
	l0.007-0.169l0.026-0.151l0.061-0.104l0.108-0.041l0.61,0.611l0.353,0.67l0.228,0.324l0.271,0.141l0.187,0.136l0.717,1.166
	l0.092,0.077l0.146,0.031l0.114,0.049l0.113,0.211l0.347,0.125l0.449,0.356l0.231,0.077l0.94-0.21l0.055-0.087l-0.06-0.196
	L86.34,60.43l-0.095-0.119l-0.103-0.027l-0.383,0.027v-0.09l0.338-0.128l0.062-0.03l-0.024-0.147l-0.06-0.058l-0.087-0.03
	l-0.319-0.241l-0.056-0.118l0.059-0.161l0.113-0.088l0.126-0.011l0.13,0.038l0.118,0.061l-0.033-0.123l-0.058-0.129l-0.09-0.109
	L85.842,58.9l0.154-0.363l0.223,0.195l0.359,0.666l0.215,0.069l0.171-0.075l0.144-0.021l0.031,0.229l0.479,0.614l0.103,0.196h0.073
	l0.034-0.445l0.271-0.808l0.016-0.462l-0.094-0.262l-0.135-0.058h-0.14l-0.12-0.099l0.005-0.157l0.11-0.158l0.158-0.129l0.134-0.069
	v-0.095l-0.341-0.34l-0.164-0.028l-0.069,0.316l-0.115,0.156l-0.254-0.112l-0.399-0.306l-0.248-0.053l-0.187-0.119l0.002-0.133
	l0.318-0.104l0.553-0.057l0.207-0.072l0.21-0.176l-0.486-0.166l-0.5-0.053l-0.435-0.148l-0.285-0.444l-0.178,0.083h-0.241
	l-0.727-0.15l-0.19-0.111l-0.149-0.176l-0.176-0.332l-0.104-0.27l-0.021-0.115l-0.016-0.035l-0.064-0.431l-0.084-0.108l-0.324-0.332
	l-0.125-0.069l-0.528-0.103l-0.011-0.057l0.019-0.195l-0.008-0.053l-0.056-0.02l-0.051,0.008l-0.049-0.002l-0.125-0.102
	l-0.279-0.093l-0.052-0.069l-0.104-0.194l-0.059-0.039l-0.102-0.113l-0.283-0.507l-0.059-0.15l-0.025-0.291l-0.087-0.133
	l-0.372-0.145l-0.146-0.094l-0.189-0.158l-0.159-0.199l-0.121-0.332l-0.112-0.077L80.346,50.6l-0.113-0.092l-0.112-0.152
	l-0.022-0.087l-0.106-0.847l-0.048-0.091l-0.226-0.234l-0.049-0.081l-0.14-0.146l-0.84-0.214l-0.113-0.109l-0.077-0.118
	l-0.041-0.147l-0.011-0.195l-0.043-0.116l-0.092-0.004l-0.148,0.075l-0.398-0.061l-0.207-0.098l-0.084-0.158l0.094-0.15l0.225,0.014
	l0.527,0.136l0.18,0.094l0.133,0.217l0.115,0.246l0.109,0.178l0.119-0.017l0.528,0.107l0.187,0.112l0.143,0.147l0.23,0.357
	l0.334,0.819l0.104,0.102l0.471,0.364l0.163,0.473l0.722,0.385l0.164,0.477l0.449,0.719l0.141,0.148l0.156,0.082l0.161-0.021
	l0.147-0.154l-0.014,0.221l0.06,0.145l0.096,0.087l0.109,0.062l0.14-0.139l0.077,0.067l0.048,0.149l0.059,0.115l0.354,0.279
	l0.053,0.092l0.092,0.297l0.422,0.533l0.134,0.244l0.005,0.172l0.084,0.28l0.141,0.179l0.182-0.021l0.133-0.545l0.115-0.205
	l0.152,0.242l0.025,0.133l0.087,0.189l0.092,0.118l0.044,0.019l0.059-0.076l0.13,0.103l0.123,0.149l0.049,0.076l0.657,0.252
	l0.334,0.061l0.195-0.206l-0.156,0.007l-0.039-0.103l-0.17-0.224l-0.041-0.146l0.057-0.102l0.104-0.058l0.067-0.091l-0.062-0.203
	l0.111,0.045l0.139,0.032l0.139-0.009l0.094-0.068l-0.015-0.174l-0.374-0.319L87.07,54.04l0.031-0.062l0.076,0.008l0.08,0.021
	l0.053-0.021l0.08-0.202l0.047-0.151l0.004-0.136l-0.051-0.231l-0.236-0.49l-0.082-0.297l0.113-0.134l0.188,0.103l0.371,0.396
	l0.212,0.025l0.123-0.2l0.046-0.35l-0.007-0.643l-0.09-0.166l-0.201-0.158l-0.241-0.134l-1.088-0.413l-0.442-0.311L85.48,50.28
	l-0.123-0.08l0.086-0.022l0.088-0.056l0.066-0.024L85.5,49.99l-0.116-0.094l-0.128-0.075l-0.145-0.037l-0.424,0.09l-0.06-0.039
	l-0.019-0.203l-0.014-0.056l0.146-0.154l0.033-0.203l-0.158-0.193l-0.403-0.28l-0.276-0.267l-0.049-0.076l0.01-0.316l-0.03-0.108
	l-0.101-0.041l-0.14,0.021l-0.244,0.081h-0.145l-0.089-0.046l-0.082-0.073l-0.098-0.067l-0.136-0.029l-0.116,0.092l-0.283,0.169
	l-0.285,0.076l-0.133-0.175l-0.069-0.188L81.77,47.69l-0.235-0.049l-0.241-0.011l-0.477-0.087l-0.58-0.217l-0.459-0.267l-0.164-0.37
	l0.027-0.088l0.037-0.088l-0.01-0.116l-0.087-0.122l-0.108-0.073l-0.113-0.053l-0.096-0.065l-0.533-0.572l-0.054-0.034l-0.11-0.091
	l-0.067-0.094l0.069-0.043l0.216,0.015l0.108-0.015l0.084-0.045l0.107-0.221v-0.255L79.02,44.49l-0.09-0.165L78.65,44.16
	l-0.279,0.131l-0.314,0.224L77.479,44.7l-0.395,0.287l-0.219,0.067l-0.774,0.101l-0.497-0.157l-0.564-0.056V44.84l0.131-0.031
	l0.396,0.031l0.129-0.055l-0.031-0.123l-0.137-0.179l-0.088-0.164l-0.418-0.423l-0.135-0.189l0.188-0.101l0.147,0.097l0.231,0.315
	l-0.105-0.563l0.139-0.653l0.178-0.561l0.031-0.285v-0.112l0.097-0.042l0.223-0.155l-0.062-0.075l-0.045-0.095l-0.06-0.046
	l0.157-0.153l0.133-0.231l0.094-0.258l0.037-0.234l0.076-0.225l0.167-0.123l0.164-0.002l0.077,0.14l0.02,0.254l0.059,0.112
	l0.121-0.005l0.197-0.099l0.151-0.107l0.118-0.147l0.01-0.149l-0.188-0.112l-0.084-0.158l0.004-0.183l0.121-0.143l0.199-0.042
	l-0.031,0.197l0.062,0.111l0.087-0.003l0.082-0.289l0.093-0.019l0.117,0.01l0.118-0.053l0.239-0.167l0.191-0.062l0.129-0.133
	l0.045-0.371l0.006-1.559l-0.014-0.073l-0.063-0.175l-0.043-0.088l-0.218-0.335l0.004,0.001v-0.001l-0.107-0.142l-0.451-0.376
	l-0.062-0.08l-0.138-0.183l-0.134-0.107l-0.364-0.076l-0.396-0.143l-0.169-0.034l-0.162-0.083l-0.08-0.201l-0.05-0.242l-0.072-0.209
	l-0.26-0.281l-0.348-0.191L75.105,34.1l-1.047-0.104l-0.274-0.157l-0.425-0.433l-0.18-0.165l-0.156-0.203l-0.067-0.234l0.09-0.257
	l0.388-0.35l0.18-0.233l0.041-0.312l-0.131-0.237L73.29,31.31l-0.269-0.076l-0.225-0.154l-0.229-0.387l-0.127-0.121l-0.537-0.131
	L71.4,30.237l-0.219-0.042l-0.603-0.003l-0.231-0.109c-0.396,0.952-0.81,1.895-1.197,2.849l-0.104-0.089
	c-1.818-1.494-3.652-2.973-5.486-4.448c-0.061-0.047-0.119-0.095-0.179-0.143l-0.164,0.089l-0.169,0.267l-0.062,0.149l-0.023,0.125
	l0.003,0.154l0.069,0.459l0.008,0.157l-0.02,0.179l-0.021,0.091l-0.054,0.158l-0.169,0.292l-0.366,0.524l-0.039,0.066l-0.028,0.071
	l-0.012,0.074v0.066l0.002,0.067l0.016,0.065l0.014,0.162l-0.008,0.088l-0.015,0.088l-0.077,0.241l-0.021,0.092l-0.017,0.092
	l0.004,0.082l0.013,0.079l0.051,0.221l0.007,0.071l-0.007,0.074l-0.021,0.06l-0.057,0.083l-0.387,0.476l-0.473,0.374l-0.469,0.565
	l-0.195,0.323l-0.025,0.059l-0.005,0.054l0.012,0.058l0.007,0.058l-0.002,0.059l-0.066,0.125l-0.305,0.396l-0.078,0.066
	l-0.101,0.062l-0.192,0.067l-0.123,0.024l-0.103,0.041l-0.062,0.058l-0.072,0.125l-0.125,0.269l-0.082,0.128l-0.07,0.066
	l-0.092,0.066l-0.271,0.123l-0.096,0.023l-0.072,0.004l-0.061-0.015l-0.048-0.041l-0.04-0.051l-0.031-0.061l-0.037-0.055
	l-0.037-0.036l-0.062-0.002l-0.062,0.042c-0.472,0.692-0.942,1.383-1.412,2.076l-0.064,0.075l-0.068,0.046l-0.086-0.024
	c-0.425-0.297-0.851-0.591-1.272-0.892l-0.067-0.003l-0.061,0.054l-0.5,0.679l-0.084,0.139l-0.053,0.123l-0.019,0.079l-0.036,0.089
	l-0.05,0.104l-0.21,0.294l-0.055,0.12l-0.028,0.096L54.2,40.096l-0.017,0.058l-0.057,0.068l-0.089,0.075l-0.179,0.108l-0.127,0.097
	l-0.117,0.123l-0.106,0.17l-0.053,0.111l-0.033,0.093l-0.108,0.499l-0.021,0.042l-0.002,0.026c-0.01,0.033-0.02,0.066-0.029,0.099
	l-0.171,0.52l-0.069,0.15l-0.078,0.135c-0.305,0.426-0.612,0.853-0.918,1.279l-0.053,0.053l-0.063,0.037l-0.089-0.005
	c-0.818-0.272-1.636-0.544-2.454-0.815L49.332,43l-0.014-0.012l0.014-0.057l0.048-0.117l0.01-0.054l0.005-0.047l-0.007-0.028
	l-0.029-0.066l-0.461-0.837l-0.037-0.052l-0.038-0.035l-0.027-0.02l-0.992-0.369l-0.072-0.002l-0.077,0.063l-0.068,0.118
	l-0.072,0.258l-0.024,0.147l-0.007,0.121l0.007,0.08l-0.005,0.083l-0.024,0.085l-0.053,0.111l-0.22,0.314l-0.012,0.037l-0.031,0.217
	l-0.012,0.631l-0.029,0.084l-0.053,0.094l-0.193,0.255l-0.065,0.133l-0.121,0.449l-0.051,0.08l-0.121,0.077l-0.234,0.087
	l-0.046,0.053l-0.041,0.081l-0.046,0.136l-0.067,0.125l-0.119,0.158l-0.06,0.105l-0.024,0.14l0.014,0.092l0.053,0.147l0.015,0.065
	l0.007,0.077l-0.029,0.096l-0.056,0.094l-0.2,0.21l-0.265,0.179l-0.116,0.103l-0.258,0.328l-0.555,0.511l-0.041,0.07l-0.024,0.08
	v0.116l0.031,0.154l-0.019,0.094l-0.265,0.844c-0.221,0.436-0.444,0.871-0.668,1.305c-0.819,0.931-1.636,1.862-2.454,2.793
	l-0.017,0.049l-0.099,0.345l-0.041,0.104c-0.257,0.479-0.512,0.959-0.767,1.438l-0.056,0.153l0.01,0.053l0.01,0.035l0.027,0.031
	l0.149,0.144l0.13,0.087l0.337,0.176l0.053,0.057l0.036,0.08l0.012,0.133l-0.027,0.091l-0.043,0.075l-0.109,0.098l-0.249,0.158
	l-0.195,0.094l-0.077,0.049l-0.087,0.069l-0.123,0.13l-0.056,0.102l-0.029,0.096v0.068l0.012,0.07l0.031,0.062l0.046,0.048
	l0.135,0.092l0.045,0.066l-0.002,0.158l-0.043,0.086l-0.053,0.062l-1.445,0.82l-0.357,0.318L38.12,58.73l-0.063,0.017l-0.061,0.007
	l-0.067-0.014l-0.048-0.027l-0.046-0.049l-0.034-0.061l-0.02-0.069l-0.005-0.074l0.003-0.133l-0.01-0.052l-0.019-0.061l-0.041-0.057
	l-0.116-0.027l-0.086-0.008l-0.28,0.029l-0.278,0.094c-0.357,0.168-0.714,0.336-1.071,0.505c-0.355,0.213-0.71,0.429-1.064,0.644
	l-0.056,0.024l-0.094,0.021l-0.043-0.004l-0.034-0.022l-0.036-0.039l-0.024-0.056l-0.029-0.053l-0.048-0.039L34.392,59.2
	l-0.205-0.042l-0.053-0.035L34.11,59.07l-0.005-0.115l-0.019-0.042l-0.039-0.031l-0.039-0.014l-0.331-0.074l-0.104-0.008
	l-0.118,0.015l-0.162,0.061l-0.091,0.062l-0.065,0.066l-0.044,0.07c-0.019,0.053-0.036,0.105-0.053,0.16l-0.007,0.084l0.007,0.084
	l0.022,0.07l0.176,0.318l0.008,0.086l-0.015,0.102l-0.077,0.155l-0.067,0.087l-0.063,0.062l-0.779,0.463l-0.084,0.017l-0.067-0.013
	l-0.164-0.145l-0.092-0.015l-0.116,0.011l-0.326,0.165l-0.104,0.034l-1.229,0.158l-0.96,0.5L28.97,61.48l-0.031-0.02l-0.029-0.023
	l-0.026-0.041l-0.043-0.107l-0.034-0.055l-0.046-0.047l-0.094-0.082l-0.62-0.396l-0.056-0.045l-0.07-0.077l-0.231-0.339
	l-0.049-0.055l-0.075-0.045l-0.099-0.021l-0.149,0.011l-0.099,0.06l-0.058,0.062l-0.031,0.064l-0.084,0.242l-0.048,0.106
	l-0.072,0.116l-0.143,0.164l-0.094,0.076l-0.087,0.047l-0.473,0.052l-0.178,0.052l-0.099,0.051l-0.077,0.052l-0.615,0.661
	l-0.092,0.063l-0.08,0.034l-0.28,0.021L23.987,62l-0.145-0.041l-0.294-0.215l-0.422-0.217l-0.055-0.049l-0.104-0.104l-0.157-0.245
	l-0.041-0.053l-0.053-0.053l-0.063-0.045l-0.067-0.035l-0.104-0.035l-0.261-0.027l-0.164,0.003l-0.15-0.018l-0.045-0.011
	l-0.138-0.084l-0.104-0.104l-0.043-0.058l-0.032-0.059l-0.108-0.279l-0.034-0.063l-0.043-0.056l-0.111-0.096l-0.567-0.398
	l-0.048-0.053l-0.038-0.062l-0.024-0.069l-0.007-0.082l0.002-0.086l0.041-0.357l0.005-0.085l-0.007-0.077l-0.009-0.077l-0.027-0.069
	l-0.029-0.063l-0.039-0.052l-0.041-0.047l-0.425-0.271l-0.048-0.05l-0.021-0.062l-0.002-0.066l0.026-0.069l0.039-0.052l0.287-0.225
	c0.007-0.016,0.015-0.029,0.022-0.045l0.017-0.062l0.015-0.077v-0.083l-0.017-0.077l-0.032-0.07l-0.036-0.052l-0.101-0.108
	c-1.525,1.291-3.052,2.58-4.58,3.867l-0.287,0.196c-1.016,0.498-2.031,1-3.044,1.503l-0.582,0.397l-0.217,0.215l-0.099,0.14
	l-0.01,0.094l0.042,0.232l0.019,0.331l-0.012,0.089l-0.02,0.084l-0.034,0.077l-0.039,0.069l-0.048,0.057l-0.123,0.079l-1.05,0.517
	l-0.282,0.221L9.704,65.4l-0.063,0.117l-0.007,0.241l0.01,0.077l0.007,0.161l-0.022,0.224l-0.017,0.071l-0.024,0.075l-0.031,0.076
	l-0.043,0.062l-0.048,0.057l-0.18,0.098c-0.486,0.188-0.973,0.374-1.459,0.561l-0.504,0.004l-0.077,0.021l-0.07,0.046l-0.239,0.251
	L6.72,68.02l-0.082,0.127l-0.14,0.151l-0.031,0.05l-0.005,0.057l0.022,0.138l-0.005,0.076l-0.024,0.069L6.392,68.74l-0.104,0.05
	l-1.216,0.188l-1.214,0.41l-0.471,0.266l-0.154,0.13l-0.089,0.048l-0.13,0.042L1.88,69.99l-1.047,0.382l-0.08,0.007l-0.229,0.107
	L0,70.938c2.402,0.016,4.804,0.026,7.207,0.039c2.306,0.01,4.612,0.024,6.917,0.035c2.07,0.01,4.14,0.021,6.21,0.031l0.094-0.041
	l0.255-0.225l0.106-0.029l0.104-0.01c0.975,0.043,1.949,0.078,2.924,0.117l0.08,0.162l0.043,0.043l0.08,0.023
	c2.316,0.032,4.633,0.046,6.95,0.068c2.502,0.023,5.004,0.046,7.506,0.072c2.248,0.022,4.496,0.043,6.744,0.064
	c2.495,0.023,4.99,0.047,7.484,0.072c2.28,0.021,4.562,0.043,6.843,0.064c2.448,0.025,4.896,0.053,7.344,0.072
	c2.362,0.02,4.726,0.048,7.088,0.07c2.362,0.021,4.725,0.045,7.086,0.068c2.449,0.023,4.896,0.045,7.346,0.07
	c0.711,0.007,1.423,0.011,2.134,0.018l-0.038-0.14l-0.061-0.112l-0.049-0.125l-0.008-0.199l0.373,0.576l0.549,0.008l-0.017-0.027
	l-0.089-0.807l0.154-1.515l0.06-0.147l0.131,0.016l0.14,0.091l0.082,0.089l0.07,0.159l0.256,1.046l0.059,0.108l0.14,0.185
	l0.043,0.117v0.171l-0.043,0.158l-0.021,0.168l0.061,0.195l0.159,0.005h0.169l-0.126-0.612L91.441,67.932z M91.723,71.432
	l-0.199,0.131l0.084,0.164l-0.014,0.01l0.193,0.005h0.21l-0.062-0.39L91.723,71.432z M99.882,49.655l-0.077,0.009l-0.046,0.087
	l-0.282,0.351l-0.229,0.339l-0.085,0.168l-0.159,0.498l-0.084,0.115l-0.061,0.153l-0.103,0.095l-0.132,0.045l-0.15,0.016
	l-0.035,0.056l0.069,0.129l0.169,0.231L98.568,52l-0.123,0.033l-0.125,0.019l-0.131-0.011v0.113l0.387-0.025l0.335-0.301l0.28-0.444
	L100,49.637L99.882,49.655z M93.3,60.877l-0.062,0.318l-0.106,0.283l-0.217,0.157h-0.087v0.091l0.393-0.031l0.196-0.217l0.06-0.371
	l0.006-0.492h-0.08L93.3,60.877z"/>
</svg>
