<?xml version="1.0" encoding="utf-8"?>
<!-- Generator: Adobe Illustrator 16.0.4, SVG Export Plug-In . SVG Version: 6.00 Build 0)  -->
<!DOCTYPE svg PUBLIC "-//W3C//DTD SVG 1.1//EN" "http://www.w3.org/Graphics/SVG/1.1/DTD/svg11.dtd">
<svg version="1.1" id="Layer_1" xmlns="http://www.w3.org/2000/svg" xmlns:xlink="http://www.w3.org/1999/xlink" x="0px" y="0px"
	 width="100px" height="100px" viewBox="0 0 100 100" enable-background="new 0 0 100 100" xml:space="preserve">
<path fill="#555555" d="M27.375,44.477l0.093,0.104l0.165-0.034l0.194,0.043l0.273,0.407l0.282,0.051l0.128-0.19l0.106-0.104
	l-0.106-0.052l-0.057-0.087l-0.024-0.137l-0.023-0.105l-0.047-0.086l0.005-0.143l-0.136-0.157l0.097-0.046l0.067-0.067l0.104-0.146
	l-0.124-0.14l-0.08-0.275l-0.064-0.614l-0.075-0.123l-0.124-0.131l-0.143-0.103L27.757,42.3l-0.126,0.06l-0.015,0.148l0.012,0.193
	l-0.05,0.191l-0.216,0.306l-0.02,0.12l0.015,0.271l0.059,0.205l0.089,0.156l-0.024,0.216L27.375,44.477z M24.191,28.982l0.187-0.19
	l0.088-0.282l-0.028-0.312l-0.161-0.275l-0.194,0.242l-0.167-0.031L23.8,27.918l-0.044-0.316l0.037-0.614l-0.022-0.351l-0.206-0.503
	l-0.128,0.042l-0.296,0.319l-0.027,0.101l-0.057,0.155l0.009,0.189l0.075,0.197l-0.186,0.121L22.8,27.527l-0.071,0.334l0.062,0.335
	l0.207,0.139l0.29,0.06l0.193,0.124L23.4,28.85L24.191,28.982z M25.611,36.022l-0.052-0.123l-0.034-0.407l-0.081-0.13l-0.123,0.008
	l-0.024,0.157l0.053,0.354l0.076,0.251l0.168,0.371l0.222,0.289l0.238,0.01l0.106-0.314l-0.05-0.472l-0.124-0.468l-0.183-0.462
	L25.7,34.998h-0.124l-0.132,0.104l0.221,0.25l0.132,0.366l-0.004,0.288L25.611,36.022z M25.367,25.664l-0.021,0.255l0.181,0.556
	l0.108,0.12l0.145,0.002l0.114-0.031l0.077-0.067l0.027-0.192l0.085-0.145l0.06-0.081L26.093,26l-0.194-0.249l-0.034-0.122
	l-0.083-0.158l-0.161-0.107l-0.145,0.086L25.367,25.664z M21.66,24.777l-0.002,0.19l0.055,0.156l0.161,0.251l0.161,0.157
	l0.093-0.143l0.044-0.283l0.01-0.263l0.068-0.106l0.15,0.077l0.217,0.214l0.069,0.181l0.057,0.22l0.103,0.189l0.207,0.079
	l0.379-0.026l0.167-0.072l0.158-0.154l-0.617-1.073l0.06-0.163l-0.006-0.096l-0.034-0.114l-0.02-0.212l0.056-0.179l0.123-0.046
	l0.121,0.067l0.055,0.159l0.033,0.209l0.179,0.529l0.312,0.551l0.131,0.159l0.128,0.068l0.154-0.042l0.045-0.107l0.012-0.131
	l0.051-0.114l0.55-0.392l0.081-0.091l0.065-0.185l-1.427-0.854l-0.496-0.066l-0.271,0.013l-0.144,0.057l-0.618,0.783l-0.141,0.066
	l-0.106,0.072l-0.304,0.349L21.66,24.777z M25.108,32.57l0.148,0.454l0.102,0.118l0.161,0.133l0.169,0.106l0.133,0.044l0.084,0.086
	l0.315,0.565l0.307-0.208l0.272-0.037L27,34.016l0.09,0.448l-0.187,1.05l0.065,0.275l0.224,0.35l-0.015,0.316l0.167,0.39
	l0.232,0.333l0.177,0.14l0.113,0.148l0.112,0.091l0.163,0.02l0.135-0.085l0.236-0.273l0.158-0.032l0.199,0.172l0.138,0.349
	l0.08,0.427l0.026,0.407l0.075,0.094l0.167-0.035l0.279-0.13l0.059,0.051l0.013,0.116l0.022,0.101l0.081,0.003l0.061-0.055
	l0.043-0.131l0.062-0.085l0.235-0.432l0.074-0.075l0.035-0.089l-0.049-0.196l-0.111-0.297l-0.079-0.437l-0.198-0.307l-1.006-0.716
	L28.661,35.7l-0.206-0.272l-0.267-0.213l-0.126,0.215l0.015,0.425l0.161,0.416l-0.151,0.441l-0.172,0.116l-0.141-0.212l-0.104-0.932
	l-0.051-1.05l-0.157-0.857l-0.122-0.422l-0.19-0.321l-0.273-0.128l-0.146-0.043l-0.3-0.185l-0.168-0.044l-0.395,0.119l-0.179-0.026
	l-0.172-0.234l0.734-0.159l0.187-0.149l0.036-0.243l0.022-0.347l0.07-0.136l0.176,0.395l0.09-0.28l0.146-0.327l0.191-0.171
	l0.23,0.198l0.175,0.217l0.201,0.094l0.198-0.047l0.17-0.195l0.019-0.534l-0.785-0.664l-0.018-0.392l-0.05-0.06l-0.021-0.06
	l-0.025-0.143l-0.118-0.211l-0.123,0.066l-0.144,0.169l-0.18,0.095l-0.327-0.007l-0.152,0.423l-1.056,2.157L25.108,32.57z
	 M28.977,48.693l-0.181,0.077l-0.095,0.191l-0.012,0.251l0.069,0.247l0.252-0.213l0.404-0.433l0.554-0.234l0.096-0.004l-0.262-0.197
	l-0.24-0.119l-0.207-0.158l-0.162-0.32l-0.037-0.188l-0.014-0.384l-0.028-0.195l-0.094-0.163l-0.114-0.09l-0.057-0.125l0.083-0.265
	l-0.196,0.094l-0.228,0.248L28.317,47l-0.08,0.218l-0.095,1.416l-0.044,0.114l-0.082,0.148l-0.051,0.179l0.055,0.199l0.114,0.169
	l0.1,0.098l0.09,0.012l0.087-0.091l0.056-0.148l0.025-0.179l0.006-0.378l0.055-0.11l0.128-0.087l0.25-0.122l-0.094-0.128
	l0.212-0.052l0.083,0.144l-0.03,0.195L28.977,48.693z M20.869,18.299l0.551-0.235l0.13-0.163h-0.708l0.016,0.094L20.869,18.299z
	 M99.701,73.352l-0.674-0.873l-0.069-0.195l0.374-0.428l0.165-0.254l0.116-0.377v-0.384l-0.275-0.501l-0.145-0.898l-0.178-0.39
	l-0.426-0.724l-0.604-0.793l-0.094-0.28l0.051-0.331l0.193-0.583l-0.003-0.53l-0.012-2.927l-0.011-2.936l-0.01-2.945l-0.012-2.954
	l-0.01-2.96l-0.012-2.97l-0.01-2.981l-0.011-2.99l-0.01-2.997l-0.011-3.007l-0.012-3.017l-0.01-3.025L98,27.065l-0.01-3.043
	l-0.012-3.055l-0.01-3.066H26.404l-1.262,0.001h-0.001l0.153,0.31l0.122,0.341l-0.585-0.106l-0.299,0.046l-0.16,0.205l0.069,0.333
	l0.628-0.028l0.165,0.354l-0.051,0.098l-0.118,0.128l-0.117,0.164l-0.053,0.21l0.054,0.242l0.137,0.188l0.552,0.503l0.133,0.208
	l0.041,0.294l-0.054,0.468l0.114-0.248l0.242,0.14l0.24,0.311l0.109,0.264l-0.042,0.104l-0.178,0.196l-0.042,0.101l0.036,0.213
	l0.091,0.178l0.125,0.086l0.136-0.083l0.382-0.697l0.207-0.299l0.242-0.122l0.253,0.06l0.315,0.169l0.272,0.249l0.125,0.311
	L28.1,23.379l-0.051,0.325l0.289,0.142l-0.006,0.101l0.074,0.501l0.058,0.198l0.108,0.165l0.112,0.067l0.112,0.05l0.111,0.101
	l0.172,0.387l0.051,0.434l-0.094,0.357l-0.26,0.146l-0.221-0.102l-0.507-0.449l-0.273-0.105l-0.261,0.064l0.14,0.169l0.512,0.363
	l0.158,0.27l0.119,0.275l0.075,0.313l0.041,0.513l0.029,0.187l0.034,0.12l-0.009,0.118l-0.103,0.176l-0.15,0.085l-0.174-0.053
	L28.02,28.16l-0.302-0.405l-0.221-0.153l-0.16,0.096l0.002,0.501l-0.208-0.311l-0.207-0.495l-0.254-0.305l-0.34,0.256l-0.161,0.075
	l-0.212-0.016l-0.17,0.034l-0.031,0.228l0.101,0.094l0.18,0.041l0.172,0.124l0.077,0.342l-0.069,0.186l-0.125,0.123l-0.062,0.166
	l0.127,0.316l0.149,0.141l0.194,0.048l0.207-0.029l0.189-0.088l0.099-0.118l0.205-0.344l0.091-0.072l0.131,0.014l0.195,0.058
	l0.087,0.118l-0.191,0.202v0.143l0.172,0.165l0.252,0.511l0.14,0.108l0.211,0.017l0.188,0.057l0.164,0.101l0.299,0.332l0.379,0.233
	l0.428,0.392l0.075,0.114l0.052,0.132l0.03,0.208l0.052,0.099l-0.195,0.393l-0.04,0.194l0.06,0.195l-0.15,0.086l-0.114-0.118
	l-0.11-0.191l-0.147-0.146l-0.205-0.036l-0.244,0.021l-0.429,0.135l-0.269,0.251l-0.145,0.379l-0.026,0.452l0.091,0.479l0.201,0.448
	l0.263,0.324l1.071,0.811l0.118,0.118l0.242,0.406l0.146,0.121l0.229-0.007l-0.27-0.599l-0.19-0.3l-0.201-0.128l-0.188-0.08
	l-0.224-0.19l-0.203-0.224l-0.125-0.18L28.8,33.919l-0.047-0.342l0.037-0.287l0.26-0.193L29.018,32.7l0.06-0.183l0.105-0.043
	l0.098,0.05l0.082,0.078l0.064,0.046l0.526,0.236l0.126,0.431l-0.025,0.588l0.069,0.708l0.282,0.617l0.413,0.47l0.888,0.743
	l0.209-0.224l0.18,0.011l0.074,0.072l0.104,0.054l0.024,0.087l-0.059,0.07l-0.058,0.07l-0.082,0.088l-0.024,0.279l-0.047,0.245
	l-0.255,0.16l-0.111,0.106l-0.453,0.103L31.1,37.647l-0.09,0.103l-0.253,0.194l-0.1,0.096l-0.052,0.15l-0.001,0.187l-0.123,0.262
	l-0.036,0.296l-0.034,0.417l-0.165,0.314l-0.377,0.325l-0.124,0.218l-0.096,0.256l-0.062,0.31l-0.022,0.373l0.098,0.284l0.138,0.2
	l0.047,0.295l0.035,0.312l-0.045,0.21l-0.2,0.322l-0.082,0.165l-0.031,0.167l-0.055,0.13l-0.147,0.053l-0.046,0.082l0.069,0.176
	l0.125,0.176l0.12,0.081l0.57,0.258l0.181,0.221l0.065,0.246l-0.013,0.301l-0.06,0.39l-0.13-0.171l-0.136-0.271l-0.145-0.197
	l-0.158,0.046l-0.17,0.22l-0.067,0.133l0.019,0.168l0.244,0.85l0.089,0.2l0.142,0.246l0.046,0.221l-0.002,0.812l0.074,0.229
	l0.348,0.485l0.108,0.247l0.021,0.345l-0.062,0.291l-0.14,0.198l-0.416,0.121l-0.245,0.121l-0.23,0.162l-0.162,0.171l-0.095,0.208
	l0.024,0.155l0.128,0.136l0.219,0.153l-0.232,0.218l-0.185,0.084l-0.196-0.065l-0.47-0.408l-0.446-0.284l-0.219-0.197l0.005,0.699
	l-0.167,0.679l-0.272,0.617l-1.029,1.52L25.998,53.8l-0.465,0.279l-0.05-0.206l-0.12-0.206l-0.158-0.16l-0.312-0.146l-0.12-0.187
	l-0.102-0.212l-0.104-0.158l-0.241-0.15l-0.071,0.104l0.015,0.29l0.007,0.048l-0.125,0.098l-0.188,0.095l-0.18,0.026l0.09-0.14
	l0.059-0.155l0.007-0.172l-0.069-0.182l-0.503,0.43l-0.114,0.219l0.002,0.231l0.059,0.243l0.009,0.229l-0.156,0.188l0.1,0.205
	l0.092,0.264l-0.004,0.188l-0.188-0.021l-0.129-0.146l-0.095-0.411l-0.124-0.206l0.077-0.184l0.026-0.199L22.896,53.5l-0.077-0.186
	l-0.134,0.432l-0.238,0.32l-0.292,0.168l-0.294-0.027l0.229-0.156l0.172-0.197l0.564-1.093l0.059-0.27l-0.154-0.069l-0.288,0.508
	l-0.053,0.062l-0.072,0.022l-1.076,0.818l-0.251,0.12l0.135-0.304l0.245-0.107l0.249-0.062l0.145-0.164l-0.047-0.264l-0.245,0.004
	l-0.292,0.133l-0.189,0.127l0.133-0.291l0.319-0.158l0.67-0.198l0.326-0.304l0.194-0.394l0.374-1.417l0.09-0.137l0.202-0.049
	l0.15-0.063l0.2-0.149l0.306-0.312l0.121-0.345l0.209-0.919l0.184-0.272l-0.069,0.263l0.058,0.137l0.107,0.094l0.085,0.134
	l0.069,0.262l0.02,0.144l0.007,0.516l-0.033,0.357l-0.115,0.291l-0.247,0.118l0.001,0.438l0.205,0.86l0.332,0.595l0.379-0.349
	l0.004-0.114l-0.035-0.132l-0.042-0.106l-0.021-0.041l0.042-0.078l0.071-0.098l0.058-0.043l0.002,0.092l0.074-0.158l0.082-0.084
	l0.015-0.11l-0.311-0.54l-0.069-0.26l0.058-0.265l0.198-0.322l0.051-0.152l0.014-0.187l0.026-0.159l0.084-0.067l0.113-0.049
	l0.094-0.112l0.089-0.136l0.099-0.109l0.442-0.23l0.167-0.176l0.094-0.35l0.067,0.463l-0.136,0.315l-0.19,0.263l-0.096,0.311
	l-0.107,0.246l-0.179,0.17l-0.036,0.172l0.322,0.248l0.988,0.444l0.19,0.002l0.147-0.384l-0.047-0.312l-0.321-0.657l0.22-0.071
	l0.171-0.121l0.13-0.185l0.096-0.263l-0.238-0.402l0.057-0.415l0.17-0.441l0.099-0.479l0.102-0.353l0.167-0.398l0.021-0.328
	l-0.334-0.135l-0.096-0.252l-0.021-0.486l-0.127-0.312l-0.417,0.269l-0.269,0.256l-0.294,0.209l-0.655,0.317l0.071-0.19l0.242-0.265
	l0.122-0.198l0.108-0.236l-0.003-0.042h-0.097l-0.443-0.253l-0.107-0.115l-0.075-0.254l-0.013-0.246l0.029-0.208l0.068-0.177
	l0.099-0.154l0.48,1.052l0.343,0.41l0.316-0.163l-0.095-0.14l0.095-0.129l-0.461-1.808L26.67,42.63l-0.112-0.137l-0.116-0.089
	l-0.09-0.123l-0.038-0.237l0.121-0.039l0.709,0.765l0.207-0.117l0.19-0.271l0.115-0.305l-0.028-0.221l0.215-0.048l0.614,0.145
	l0.127-0.034l0.041-0.091l0.08-0.116l0.065-0.162l-0.012-0.222l-0.075-0.146l-0.12-0.114l-0.133-0.077l-0.114-0.039l0.178-0.296
	l-0.048-0.192l-0.133-0.161l-0.076-0.191l-0.08-0.639l-0.015-0.278l-0.133-0.463l-0.323-0.292l-0.762-0.474l0.028,0.188l0.241,0.46
	l0.049,0.137l0.215,0.9l0.063,0.426l-0.058,0.277l-0.27-0.061l-0.062-0.145l0.036-0.171l-0.019-0.143l-0.224-0.057l-0.133,0.06
	l-0.143,0.14l-1.261,1.838l-0.115,0.295l-0.182,0.843l-0.083,0.248l-0.15,0.158l-0.291,0.171l-0.957,0.389l-0.792,0.533
	l-0.173,0.108l-0.938,1.397l-0.52,1.245l-0.118,0.209l-0.341,0.48l-0.142,0.28l-0.039,0.264l0.277,0.442l0.504,0.007l0.968-0.449
	l0.883-0.618l0.501-0.232l0.364,0.081l-0.414,0.415l-0.427,0.279l-2.153,0.945l-0.715,0.073l-0.396-0.302l0.036-0.287l0.32-0.752
	l0.177-0.7l0.231-0.296l0.264-0.255l0.198-0.273l0.41-1.065l0.151-0.296l1.011-1.303l0.145-0.134l0.158-0.054l0.102-0.099
	l0.077-0.436l0.222-0.282l0.132-0.415l0.182-0.438l0.29-0.251L23.8,41.195l-0.105-0.343l-0.008-0.298l0.135-0.316l0.123,0.108
	l0.082,0.342l0.016,0.382l0.223-0.196l0.04-0.35l0.015-0.366l0.149-0.25l0.085,0.694l-0.01,0.558l-0.233,1.211L24.17,42.73
	l0.009,0.208l0.211,0.091l0.147-0.03l0.14-0.087l0.106-0.142l0.042-0.199l0.031-0.307l0.083-0.362l0.235-0.691l0.177-0.375
	l0.566-0.723l0.104-0.2l0.095-0.357l0.109-0.166l0.125-0.032l0.379-0.021l0.105-0.077l-0.078-0.227l-0.662-0.873L26.04,38
	l-0.039-0.403l-0.034-0.149l-0.09-0.108l-0.242-0.158l-0.103-0.122l-0.537-0.967l-0.081-0.276l-0.057-0.122l-0.117-0.142
	l-0.095-0.188l0.006-0.265l0.088-0.116l0.314-0.177l0.121-0.096l-0.253-0.455l-0.315-0.001l-0.369,0.192l-0.413,0.124l-0.153,0.101
	l-0.121,0.24l-0.049,0.284l0.058,0.23l0.512,0.565l0.152,0.277l-0.21,0.564l-0.165,0.195l-0.242,0.03v-0.141l0.253-0.176
	l-0.049-0.363l-0.195-0.386l-0.184-0.242l-0.162-0.069h-0.142l-0.101-0.075l-0.038-0.304l-0.074-0.171l-0.173-0.053l-0.202,0.009
	L22,35.195l-0.083,0.248l0.114,0.761l-0.141,0.002l-0.278-0.127l-0.199-0.275l0.096-0.443l-0.302-0.498l-0.353-0.369l-0.419-0.226
	l-0.5-0.077v-0.143l0.179-0.052l0.174-0.091l0.13-0.149l0.047-0.229l-0.455,0.295l-0.869,0.796l-0.425,0.208L16.608,34.7
	l-0.257-0.131l0.007-0.083l0.111-0.049l0.111-0.047l0.12-0.07l-0.913,0.13l-0.238-0.035l-0.597-0.224l-0.758,0.125l-0.327,0.145
	l-0.206-0.114l-0.355-0.298l-0.445-0.106l-0.923,0.083l-1.914-0.133L8.284,33.4l-0.25-0.119L7.625,32.7l-0.262-0.21l-1.012-0.472
	l-0.296-0.062l-0.568,0.072l-0.219-0.072L4.95,31.665l-0.116-0.078L3.908,31.34l-0.492-0.435l-2.07-1.048l-0.623-0.185l-0.701-0.066
	L0,29.894l0.099,0.237l0.367,0.404l0.304,0.248l0.052,0.07l-0.043,0.2l-0.19,0.292l-0.042,0.172v0.71l-0.03,0.091l-0.112,0.144
	L0.379,32.56l0.017,0.088l0.066,0.126l0.003,0.104l-0.074,0.643L0.283,33.81L0.07,33.931l-0.032,0.156l0.427,0.949l0.013,0.694
	l0.066,0.681l0.143,0.704l0.201,0.698l0.249,0.643l0.434,0.822l0.104,0.083l0.338,0.05l0.152,0.063l0.14,0.105l0.786,0.907
	l0.174,0.337l0.177,0.63l0.116,0.215l0.145,0.112l0.161,0.049l0.131,0.092l0.116,0.654l0.46,1.085l0.072,0.314l0.139,1.533
	l0.169,0.747l0.315,2.823l0.104,0.099l0.28,0.062l0.139,0.106L5.73,49.488l-0.01,0.21l0.044,0.191l0.111,0.083l0.172,0.041
	l0.091,0.109l0.28,0.608l0.25,0.787l0.148,0.735l0.15,1.5l0.176,0.822l0.047,0.407l-0.094,1.315L7.058,56.51l-0.045,0.092
	l-0.009,0.211l0.028,0.219l0.07,0.111l0.085-0.067l0.415-0.534l0.077-0.046l0.041-0.062l-0.048-0.127L7.57,56.141l-0.025-0.086
	L7.51,55.711l-0.12-0.285L7.363,55.29l0.124-0.276l0.296-0.148l0.347-0.049l0.285,0.027l0.262,0.137L8.9,55.223l0.154,0.324
	l0.058,0.385L9.26,56.17l0.341,0.029l0.641-0.083v0.127l-0.03,0.039l-0.049,0.088l0.772-0.06l0.396,0.03l0.302,0.169l-0.96,0.285
	l-0.944,0.477l-0.375,0.265l-0.188,0.085l-0.273,0.031l-0.206,0.14L8.6,58.068l0.05,0.193l0.2-0.104l0.129,0.191l0.085,0.164
	l0.011,0.159l-0.095,0.19l-0.09-0.03l-0.173-0.108l-0.205-0.086l-0.183,0.029l-0.063-0.296l-0.257-0.354l0.06-0.227l-0.182-0.405
	l-0.25,0.248L7.59,57.866l0.209,0.686l0.163,0.751l0.166,1.24l0.097,0.254l0.193,0.107l0.456,0.039l0.205-0.019l0.113,0.021
	l0.145,0.096l0.114,0.113l0.119,0.044l0.161-0.114l-0.183-0.139v-0.112l0.662,0.147l0.168-0.092l0.128-0.179l0.102-0.089h0.128
	l0.204,0.084l0.355,0.29l0.272,0.364l0.289,0.291l0.404,0.065l-0.16,0.209l-0.235,0.115l-0.215-0.032l-0.094-0.229l-0.092-0.322
	l-0.216-0.08l-0.432,0.086l-0.429,0.186l-0.148,0.447l0.086,0.545l0.265,0.477l-0.205-0.051l-0.35-0.269l-0.228-0.06l0.149,0.318
	l0.31,0.467l0.206,0.463l0.056,0.082l0.044,0.125l0.018,0.24l-0.018,0.188l-0.055,0.146l-0.094,0.092l-0.297,0.097l-0.049,0.155
	l0.026,0.201l0.06,0.199l0.053,0.084l0.083,0.081l0.093,0.062l0.071,0.025l0.041,0.037l0.019,0.196l0.027,0.094l0.222,0.15
	l0.304,0.129l0.205,0.196l-0.075,0.352l-0.214-0.207l-0.549-0.395l-0.106-0.164h-0.095l-0.039,0.443l-0.163,0.402l-0.254,0.26
	l-0.319,0.016l-0.192-0.236l-0.154-0.439L8.938,65.65l-0.019-0.493l0.106-1.408l-0.1-0.412l-0.161-0.31L8.69,62.73l0.161-0.371
	l-0.339,0.174l-0.058,0.711l0.196,3.07L8.631,67.1l-0.136,0.575l0.084,0.218l0.006,0.191l-0.09,0.346l-0.137,0.372l-0.104,0.222
	l-0.1,0.147l0.131,0.112l0.123,0.005l0.261-0.117l0.07,0.015l0.046,0.061l0.056,0.021l0.096-0.097l-0.033-0.028l-0.039-0.107
	L8.841,68.9l0.01-0.094l0.209-0.211l0.228-0.035l0.229,0.088l0.213,0.158l0.648,0.732l0.3,0.133l0.332-0.029l0.239-0.181
	l0.216-0.229l0.265-0.176l0.154-0.015l0.416,0.129l0.121-0.036L12.6,68.98l0.385-0.135l0.114-0.175l0.097-0.071l0.195,0.207
	l0.068,0.158l0.033,0.16l0.06,0.121l0.757,0.188l1.584-0.291l0.373,0.051l0.31,0.18l0.129,0.363l0.083,0.33l0.204,0.256l0.998,0.808
	l0.243,0.136l0.355,0.049l0.292-0.069l0.562-0.283l0.326-0.022l0.804-0.153l0.25,0.069l0.169,0.172l0.448,0.34l0.176,0.1l0.39,0.071
	l0.418,0.18l0.396,0.246l0.324,0.265l0.234,0.282l0.225,0.376l0.17,0.407l0.137,0.699l0.17,0.202l0.206,0.176l0.178,0.232
	l0.077,0.301l0.103,0.826l0.234,0.639l-0.023,0.337l-0.059,0.369l0.009,0.417l0.289,0.503l0.052,0.182l-0.013,0.199l-0.055,0.351
	l-0.012,0.2l0.062,0.712l0.081,0.407l0.119,0.304l0.22,0.254l0.303,0.239l0.316,0.181l0.997,0.205l0.514-0.142l0.189,0.007
	l0.414,0.217l0.651,0.176l0.381,0.22l1.076,0.021l1.027,0.377l0.247-0.067l0.219-0.144l0.953-0.293l2.278-0.877l0.51-0.324
	l0.874-0.737l0.529-0.304l0.36-0.071l0.956,0.206l1.878-0.354l3.802,0.377l0.605,0.215l0.256,0.218l0.128,0.267l0.1,0.319
	l0.171,0.381l0.229,0.173l0.281-0.035l1.134-0.521l0.064-0.008l0.269,0.015l0.14,0.038l0.071,0.009l0.419-0.024l0.142,0.021
	l0.185,0.083l0.542,0.068l0.544-0.16l0.172-0.012l0.065-0.021l0.565-0.451l0.094-0.039l0.909-0.189l0.601-0.243l0.048-0.134
	l0.087-0.106l0.341-0.228l0.133-0.032l1.92,0.377l0.149-0.015l0.31-0.154l0.111-0.026l0.655,0.122l0.146-0.02l0.291-0.119l0.5-0.303
	l0.133-0.037l0.195,0.004l0.375,0.076l0.197-0.019l0.354-0.16l0.334-0.241l0.39-0.392l0.231-0.155l0.598-0.104l1.861-0.787
	l3.465-0.618l0.533-0.435l0.367-0.467l0.211-0.115l0.336-0.039l0.883,0.042l0.645-0.125l1.117-0.218l3.16-0.049l0.621-0.285
	l0.537-0.642h0.112l0.589-0.001l1.643-0.003l1.643-0.002l1.643-0.002l1.642-0.002l1.642-0.003l1.645-0.003l1.643-0.001l1.641-0.002
	l1.644-0.002l1.642-0.004l1.643-0.002l1.643-0.002l1.641-0.002l1.645-0.002l1.643-0.002l1.729-0.003L99.701,73.352z M23.676,50.734
	l0.018-0.186l0.181-0.133l0.071-0.238l-0.143,0.105l-0.091,0.053l-0.218,0.106l-0.107,0.106h-0.18l-0.09,0.158l-0.037,0.267
	l-0.09,0.344v0.16l0.126,0.185l0.18,0.187l0.09,0.158l0.036,0.133l0.071,0.236l0.037,0.16l0.072,0.079l0.181-0.187l0.145-0.291
	v-0.503l-0.126-0.212l-0.145-0.212l0.018-0.237L23.676,50.734L23.676,50.734z M9.432,65.555L9.6,65.712l0.354,0.597l0.063-0.189
	l0.024-0.198v-0.437l-0.049-0.156L9.764,65.12L9.691,64.9l-0.017-0.078L9.613,64.66L9.517,64.77L9.432,64.9l0.062,0.162l0.018,0.164
	L9.49,65.393L9.432,65.555z M25.75,52.35l-0.162,0.025l-0.072,0.16l-0.072,0.186L25.337,52.8l-0.109,0.079l0.055,0.186l0.055,0.025
	l0.18,0.186l0.108,0.08l0.107,0.078h0.073l0.144-0.104l0.163-0.186l0.054-0.293l0.017-0.184l-0.053-0.214l-0.126-0.079L25.75,52.35z
	 M26.183,23.464l-0.345-0.576l-0.212-0.086l-0.065,0.274l0.047,0.188l0.171,0.14l0.302,0.38l0.22,0.343l0.091,0.106l0.274,0.252
	l0.167,0.11l0.094-0.048l-0.028-0.196l-0.076-0.189l-0.09-0.164l-0.087-0.12l-0.155-0.146L26.3,23.6L26.183,23.464z M19.978,25.198
	l-0.243,0.305l0.043,0.39l0.002,0.097l0.095,0.574l0.153,0.583l0.068,0.143l0.125,0.188l0.123,0.117l0.169,0.106l0.176,0.076
	l0.142,0.029l0.27-0.027l0.063,0.032l0.149,0.113l0.108,0.121l0.087,0.132l0.107,0.107l0.173,0.046l0.188-0.033l0.143-0.051
	l0.142-0.011l0.183,0.095v-0.131l-0.228-0.103l-0.108-0.077l-0.099-0.095l-0.227-0.461l-0.042-0.05l0.045-0.232l0.076-0.005
	l0.105,0.046l0.128-0.082l0.156-0.224l0.03-0.118l-0.341-0.156l-0.259-0.45L21.26,26l-0.24-0.215l-0.218-0.26l-0.106-0.222
	l-0.345-0.21L19.978,25.198z M23.03,22.374l-0.037,0.005l0.047,0.115l0.056,0.051l-0.026,0.019l0.044,0.031l0.09,0.044l0.026-0.036
	l-0.038-0.048l0.032,0.004l0.068,0.068l0.154,0.028l-0.161-0.205l-0.051,0.029l-0.113-0.088l0.103-0.073l0.115-0.002l0.158,0.039
	l-0.13-0.115l-0.183-0.041l-0.165,0.049l-0.009,0.07l0.044,0.025v0.029L23.03,22.374z M21.41,23.321l-0.163,0.131l-0.082,0.103
	l0.247,0.103l0.04,0.031l0.02,0.285l0.058,0.032l0.31-0.205l0.058-0.094l-0.001-0.094l-0.016-0.371l-0.062-0.096l-0.342,0.089
	L21.41,23.321z M20.208,24.752l0.414,0.073l0.004-0.019l-0.034-0.039l-0.039-0.016l-0.091-0.064l-0.143-0.042l-0.187-0.06
	l-0.069-0.033l-0.14-0.032l-0.009,0.075l0.174,0.076L20.208,24.752z M19.586,24.333l0.072-0.051l-0.036-0.102l-0.11-0.053
	l-0.028-0.044l0.097,0.01l0.135,0.073h0.091l0.042-0.085l-0.023-0.083l-0.044-0.057l-0.051-0.01l-0.113,0.101l-0.085-0.008
	l-0.161-0.095l-0.025-0.056L19.26,23.78l-0.204-0.039l-0.099,0.075l0.044,0.127L19.586,24.333z M26.161,24.972l-0.244,0.027
	l-0.091,0.042l0.229,0.201l0.235,0.099l-0.012-0.169l-0.043-0.129L26.161,24.972z M26.735,23.416l-0.057-0.05l-0.158,0.022
	l-0.104-0.025l0.115,0.112l0.307,0.248l0.11-0.075l0.017-0.287l-0.053-0.108l-0.095-0.072l0.014,0.046l0.03,0.16l-0.032,0.029
	H26.735z M26.547,26.832l0.246,0.011l0.276-0.127l0.105-0.013l0.117,0.092l0.074-0.015l0.01-0.144l-0.04-0.165l-0.572-0.426
	l-0.196-0.291l-0.091-0.038l-0.054,0.146l-0.005,0.167l0.039,0.081l-0.052,0.458L26.547,26.832z M24.671,27.263l0.028-0.07
	l-0.033-0.01l-0.057-0.06l0.025-0.12l0.03-0.055l-0.411-0.017l-0.118,0.101l-0.073,0.096L24.06,27.19l0.11,0.106l0.048,0.077
	l0.049,0.041l0.029,0.098l-0.042,0.244l0.042,0.018l0.018-0.014l0.032-0.084l0.171-0.158L24.671,27.263z M22.193,26.348l0.427,0.145
	l0.079-0.068l0.011-0.116l0.02-0.065l0.043-0.046l0.063-0.018l0.08,0.011l0.052-0.011l0.04-0.024l0.065-0.06l0.064-0.179
	l-0.043-0.137l-0.109-0.014l-0.083,0.019l-0.044,0.051l-0.003,0.084l-0.047,0.031l-0.052-0.08l0.01-0.099l-0.014-0.039l-0.24-0.051
	l-0.125-0.097l-0.414,0.159l-0.152,0.006l-0.018,0.074l0.061,0.063l0.152,0.027l0.051,0.034l0.142,0.206l0.01,0.06l-0.053,0.029
	L22.193,26.348z"/>
</svg>
