<?xml version="1.0" encoding="utf-8"?>
<!-- Generator: Adobe Illustrator 16.0.4, SVG Export Plug-In . SVG Version: 6.00 Build 0)  -->
<!DOCTYPE svg PUBLIC "-//W3C//DTD SVG 1.1//EN" "http://www.w3.org/Graphics/SVG/1.1/DTD/svg11.dtd">
<svg version="1.1" id="Layer_1" xmlns="http://www.w3.org/2000/svg" xmlns:xlink="http://www.w3.org/1999/xlink" x="0px" y="0px"
	 width="100px" height="100px" viewBox="0 0 100 100" enable-background="new 0 0 100 100" xml:space="preserve">
<path fill="#555555" d="M99.657,39.413V38.94l0.155-0.491l0.098-0.484l-0.174-0.444l-0.935-0.407l-0.267-0.252l0.439-0.336
	l-0.121-0.328l-0.006-0.286l0.133-0.206l0.283-0.082v-0.178l-0.381,0.025l-0.335,0.108l-0.302-0.004l-0.26-0.309l0.019-0.169
	l0.121-0.153l0.073-0.195l-0.133-0.299l-0.188-0.079l-0.157,0.174l-0.104,0.289l-0.047,0.251h-0.127l-0.301-0.986l-0.119-0.288
	l0.506-0.133l0.371-0.32l0.104-0.406l-0.295-0.402l-0.204-0.087l-0.278-0.054l-0.246,0.042l-0.108,0.199l-0.112,0.09l-0.572-0.162
	l-0.215,0.071l-0.32,0.188l-0.435-0.019l-0.462-0.17l-0.385-0.261l-1.555-1.592l-0.938-0.61l-1.055-0.077l-0.234,0.074L90.4,30.274
	l-0.168,0.125l-0.608,0.734l-0.233,0.191l-0.367,0.473l-0.146,0.129l-0.41,0.01l-0.817-0.18l-0.409,0.095l-0.529,0.266l-0.187,0.022
	l-0.399-0.068l-0.181,0.017L85.74,32.22l0.56,0.793l-0.257,0.104l-0.396,0.006l-0.334,0.097l-0.062,0.373l0.402,0.138l0.102,0.136
	l-0.096,0.267l-0.633,0.475l-1.463-0.206l-0.699,0.224l-0.049,0.1l-1.662-0.284l-0.498-0.166l-0.103-0.081l-0.085-0.087
	l-0.337-0.236l-0.739-0.366l-0.066-0.048l-0.049-0.039l-0.113-0.162l-0.014-0.032l-0.013-0.046v-0.07l0.007-0.105l0.029-0.1
	l0.03-0.069l0.048-0.06l0.163-0.1l0.108-0.037l0.018-0.062l-0.036-0.094l-0.229-0.153l-0.186-0.21l-0.062-0.106l-0.145-0.135
	l-0.095-0.019l-0.079,0.027l-0.061,0.087L78.6,32.072l-0.084,0.211l-0.115,0.22l-0.295,0.457l-0.064,0.12l-0.048,0.14l-0.013,0.134
	l0.019,0.112l0.089,0.151l0.02,0.073l-0.061,0.069l-0.12,0.047l-0.354,0.079l-0.109,0.039l-0.097,0.058l-0.077,0.069l-0.086,0.087
	l-0.064,0.087l-0.205,0.357l-0.246,0.34l-1.224,1.253l-0.198,0.328l-0.097,0.104L75.057,36.7l-0.23,0.102l-0.176,0.01l-0.154-0.031
	l-0.219-0.124l-0.385-0.372l-0.324-0.199l-0.352-0.134l-0.189-0.019l-0.152,0.027L72.1,36.356l-0.098,0.081l-0.077,0.112
	l-0.065,0.115l-0.26,0.664l-0.048,0.093l-0.057,0.089l-0.076,0.093l-0.079,0.076l-0.395,0.305l-0.221,0.326l-0.091,0.097
	l-0.102,0.075l-0.951,0.515l-0.578,0.44l-0.267,0.28l-0.144,0.226l-0.239,0.559l-0.086,0.105l-0.156,0.07l-0.844,0.146l-0.162,0.05
	l-2.283,2.052l-0.258,0.172l-0.197,0.099l-0.085-0.003l-0.042-0.077l0.216-13.471c-3.478,0.002-6.954,0.004-10.433,0.004
	c-3.607,0-7.216,0-10.824,0.004v-3.156c0-3.551,0.002-7.101-0.007-10.652c-0.01-3.6-0.005-7.199-0.005-10.799L42.87,5.133
	l-0.911,0.651l-0.348-0.199l-0.513,0.016L40.575,5.78L40.2,6.062L39.988,6.6l0.151,0.46l0.674,0.922l0.458,0.891l0.18,0.476
	l0.071,0.389L41.42,10.34l-0.415,1.046l-0.038,0.622l0.056-0.003l0.13,0.028l0.139,0.062l0.091,0.095l0.017,0.128l-0.029,0.287
	l0.013,0.132l0.133,0.593l0.022,0.358l-0.083,0.155l-0.2,0.828l-0.114,0.16l-0.554,0.457l-0.192,0.209l-0.428,1.046l-0.192,0.61
	L39.63,18.1l-0.174,0.482l-0.44,0.927l-0.222,0.651l-0.079,0.509l0.025,1.097l-0.066,0.604l-0.158,0.367l-0.187,0.319l-0.149,0.455
	l0.029,0.174l0.085,0.22l0.024,0.25l-0.139,0.262l-0.26,0.033l-0.272-0.149l-0.215-0.029l-0.091,0.407l0.062,0.273l0.108,0.307
	l0.077,0.287l-0.048,0.218l-0.38,0.47l-0.13,0.225l-0.126,0.306l-0.074,0.271l-0.084,0.524l-0.107,0.272l-0.446,0.291l-0.168,0.22
	l0.121,0.317l0.32,0.368l0.215,0.308l0.066,0.351l-0.107,0.508l-0.333,0.268l-0.089,0.109L36.2,30.686l0.032,0.297l-0.013,0.126
	l-0.241,0.722l-0.037,0.27l-1.403,0.809l-2.27,1.793l-0.656,0.743l-0.468,0.868l-0.314,0.4l-0.807,0.3l-0.368,0.307l-0.579,0.64
	l-0.307,0.206l-0.409,0.176l-0.452,0.126l-0.421,0.046l-0.416,0.164l-0.712,0.668l-0.481,0.066l-0.403-0.294l-0.272-0.49
	l-0.192-0.462l-0.193-0.206l-0.865-0.008l-0.326,0.158l-1.535,1.481l-0.165,0.467l-0.143,1.019l-0.241,0.323l-0.157-0.14
	l-0.126-0.046l-0.121,0.046l-0.162,0.14l-0.139-0.195l-0.444,0.172l-0.506,0.014l-0.41,0.121l-0.317,0.89L18.18,43.55l-0.158,0.411
	l-0.024,0.324l0.056,0.97l-0.044,0.6l-0.162,0.243l-1.023,0.417l-0.12,0.01l-0.006,0.091l0.089,0.345l0.079,0.16l0.139,0.175
	l0.149,0.142l0.127,0.058l0.266,0.199l0.042,0.465l-0.102,0.942l0.133,0.436l0.188,0.409l0.01,0.303l-0.403,0.118l-0.222-0.089
	l-0.357-0.388L16.586,49.8l-0.212,0.132l-0.126,0.312l-0.156,0.626l-0.243,0.369l-0.396,0.424l-0.446,0.231l-0.384-0.199
	l-0.145-0.283l0.042-0.127l0.108-0.149l0.06-0.346l0.049-0.075l0.096-0.043l0.102-0.07l0.043-0.151l-0.019-0.177l-0.047-0.137
	l-0.073-0.141l-0.096-0.416l-0.186-0.411l-0.278-0.313l-0.639-0.268l-0.317-0.292l-0.38-0.254l-0.481-0.01l-0.651,0.494
	l-0.688,0.904l-0.583,1.008l-0.32,0.806l-0.139,1.065L9.98,52.552L9.714,53.01L9.48,53.611l-0.384,0.271l-0.351,0.312l-0.061,0.609
	l0.152,0.448l0.187,0.356l0.155,0.428l0.067,0.658L9.11,57.066l-0.036,0.267l0.193,0.452l0.083,0.332l0.048,0.351l-0.017,0.265
	L9.068,59.16l-0.452,0.087l-0.982-0.146l-0.282,0.24l-0.229,0.562l-0.434,2.283l-0.157,0.459l-0.295,0.451L5.87,63.243L4.341,63.37
	l-1.723,0.619l-0.893,0.096l-0.74-0.343L0.981,63.73l-0.007,0.15L0.969,64.17L0.89,64.846l-0.006,0.094l0.013,0.072l0.065,0.199
	l0.374,0.82l0.066,0.299l0.017,0.249l-0.048,0.323l-0.048,0.584l0.006,0.271l0.013,0.14l0.006,0.146l-0.013,0.131l-0.048,0.091
	l-0.091,0.062L0.95,68.372l-0.102,0.037l-0.061,0.069L0.75,68.596l-0.01,0.146l0.029,0.415L0.75,69.289l-0.028,0.107l-0.067,0.108
	l-0.151,0.161l-0.367,0.266L0.07,69.998l-0.034,0.062l-0.025,0.088L0,70.27l0.011,0.127l0.116,0.229l1.535,2.187l0.114,0.223
	l0.102,0.372l0.095,0.237l0.139,0.181l1.121,0.993l0.079,0.091l0.101,0.149l0.073,0.199l0.023,0.139l-0.011,0.09L3.442,75.6
	l-0.251,0.402l-0.037,0.079l0.019,0.12l0.108,0.139l0.825,0.596l0.115,0.114l0.114,0.149l0.151,0.266l0.07,0.184l0.038,0.166
	l0.096,0.826l0.066,0.258l0.047,0.121l0.055,0.102l1.284,1.32l0.251,0.36l0.145,0.277l0.006,0.138L6.57,81.35L6.864,82.2l0.09,0.385
	l0.098,0.14l0.174,0.121l0.794,0.293l0.156,0.084l0.158,0.109l0.193,0.197l0.379,0.55l0.054,0.048l0.083-0.048l0.11-0.035
	l0.155,0.035l0.633,0.569l0.162,0.195l0.066,0.1l0.047,0.121l0.025,0.133l-0.007,0.146l-0.012,0.134l0.139,0.157l0.271,0.155
	l1.614,0.512l0.253,0.03l0.608-0.146l0.224,0.023l0.378,0.212l0.174,0.187l0.062,0.09L14,86.816l0.03,0.133v0.144l-0.026,0.134
	l-0.028,0.107l-0.025,0.05l-0.01,0.024l-0.494,0.387l-0.066,0.088l-0.048,0.121l0.004,0.114l0.038,0.106l0.083,0.086l0.73,0.47
	l0.07,0.079l0.067,0.089l0.049,0.106l0.042,0.121l0.019,0.133l0.01,0.133l-0.006,0.146l-0.071,0.614l-0.006,0.148l0.013,0.143
	l0.042,0.119l0.067,0.109l0.083,0.088l0.978,0.688l0.191,0.162l0.072,0.098l0.06,0.107l0.187,0.48l0.055,0.103l0.072,0.098
	l0.18,0.181l0.235,0.146l0.079,0.018l0.259,0.029l0.283-0.006l0.445,0.048l0.181,0.062l0.114,0.061l0.108,0.078l0.092,0.089
	l0.072,0.092l0.27,0.423l0.177,0.18l0.095,0.084L19.5,94.4l0.506,0.369l0.247,0.069l1.241,0.116l0.482-0.037l0.139-0.059l0.156-0.11
	l1.06-1.14l0.133-0.088l0.168-0.086l0.307-0.09l0.814-0.089l0.149-0.079l0.162-0.133l0.247-0.281l0.123-0.199l0.083-0.184
	l0.146-0.419l0.053-0.108l0.102-0.108l0.168-0.103l0.259-0.019l0.17,0.035l0.127,0.079l0.083,0.091l0.397,0.583l0.121,0.133
	l0.096,0.076l1.066,0.682l0.162,0.141l0.079,0.084l0.06,0.091l0.073,0.188l0.047,0.069l0.048,0.042l0.054,0.03l0.228-0.06
	l1.652-0.861l2.113-0.271l0.18-0.059l0.56-0.284l0.2-0.019l0.155,0.023l0.284,0.247l0.114,0.022l0.146-0.028l1.343-0.795
	l0.108-0.107l0.114-0.151l0.132-0.266l0.024-0.174l-0.011-0.15l-0.301-0.547l-0.038-0.121l-0.011-0.146l0.011-0.146l0.044-0.144
	l0.047-0.133l0.073-0.121l0.113-0.114l0.156-0.107l0.278-0.103l0.204-0.026l0.181,0.014l0.566,0.129l0.067,0.023l0.065,0.053
	l0.036,0.072l0.006,0.199l0.044,0.09l0.089,0.061l0.355,0.072l0.104,0.047l0.083,0.066l0.047,0.092l0.044,0.096l0.059,0.066
	l0.061,0.041l0.072,0.006l0.162-0.035l0.096-0.041c0.609-0.373,1.22-0.74,1.832-1.107c0.614-0.291,1.228-0.58,1.843-0.867
	l0.475-0.162l0.481-0.05l0.152,0.013l0.197,0.049l0.072,0.098l0.032,0.102l0.016,0.09l-0.004,0.229l0.011,0.128L44.021,89
	l0.06,0.104l0.079,0.084l0.083,0.049l0.114,0.022l0.104-0.014l0.108-0.028l0.126-0.083l0.615-0.548l2.486-1.412l0.091-0.107
	l0.072-0.148l0.006-0.271l-0.079-0.113l-0.235-0.157l-0.078-0.083l-0.055-0.104l-0.019-0.121v-0.12l0.048-0.162l0.097-0.175
	l0.209-0.225l0.152-0.119l0.133-0.084l0.336-0.162l0.427-0.271l0.186-0.168l0.073-0.129l0.048-0.155l-0.022-0.229l-0.061-0.139
	l-0.091-0.097l-0.583-0.303l-0.225-0.149l-0.257-0.247l-0.044-0.054l-0.017-0.061L47.89,82.93l0.095-0.264
	c0.439-0.825,0.879-1.65,1.32-2.477l0.072-0.181l0.169-0.592l0.029-0.083c1.407-1.604,2.815-3.203,4.223-4.807
	c0.386-0.748,0.769-1.495,1.149-2.244l0.455-1.452l0.033-0.162l-0.055-0.267v-0.198l0.041-0.138l0.072-0.119l0.953-0.881
	l0.443-0.563l0.198-0.177l0.459-0.307l0.343-0.361l0.096-0.162l0.05-0.163l-0.013-0.134l-0.024-0.112l-0.089-0.253l-0.025-0.157
	l0.041-0.239l0.104-0.182l0.205-0.271l0.113-0.217l0.078-0.232l0.072-0.141l0.079-0.092l0.401-0.148l0.205-0.133l0.09-0.137
	l0.205-0.771l0.114-0.229l0.332-0.438l0.089-0.162l0.051-0.146l0.022-1.085l0.054-0.373l0.02-0.063l0.38-0.54l0.088-0.191
	l0.045-0.146l0.007-0.145l-0.013-0.137l0.013-0.208l0.041-0.253l0.127-0.444l0.114-0.202l0.131-0.108l0.128,0.005l1.703,0.635
	l0.049,0.033l0.065,0.061l0.06,0.09l0.795,1.439l0.049,0.114l0.013,0.048l-0.007,0.08l-0.016,0.094l-0.086,0.201l-0.025,0.098
	l0.025,0.021l0.062,0.029c1.405,0.469,2.812,0.936,4.22,1.402l0.15,0.01l0.108-0.063l0.093-0.091c0.525-0.733,1.054-1.469,1.582-2.2
	l0.133-0.231l0.119-0.26l0.297-0.895l0.018-0.072l0.03-0.098l0.005-0.047l0.036-0.069l0.187-0.859l0.059-0.159l0.093-0.19
	l0.182-0.294l0.206-0.211l0.215-0.166l0.309-0.188l0.15-0.128l0.096-0.116l0.031-0.101l0.217-1.466l0.047-0.166l0.092-0.206
	l0.359-0.507l0.092-0.18l0.06-0.152l0.03-0.135l0.092-0.211l0.145-0.238l0.86-1.17l0.103-0.092l0.115,0.006
	c0.729,0.515,1.461,1.021,2.19,1.532l0.146,0.042l0.121-0.078l0.113-0.129c0.807-1.193,1.618-2.381,2.426-3.572l0.108-0.072
	l0.11,0.004l0.064,0.062l0.061,0.095l0.056,0.104l0.065,0.088l0.082,0.069l0.104,0.024l0.127-0.006l0.162-0.039l0.469-0.211
	l0.157-0.115l0.12-0.114l0.14-0.22l0.217-0.462l0.125-0.214l0.108-0.1l0.175-0.071l0.211-0.042l0.33-0.116l0.178-0.106l0.131-0.114
	l0.523-0.681l0.115-0.213l0.005-0.102l-0.013-0.1l-0.022-0.1l0.011-0.093l0.043-0.102l0.336-0.555l0.809-0.972l0.812-0.643
	l0.664-0.82l0.094-0.143l0.039-0.104l0.012-0.126l-0.012-0.123l-0.086-0.379l-0.022-0.135l-0.007-0.142l0.029-0.157l0.037-0.158
	l0.133-0.415l0.022-0.152l0.013-0.15l-0.024-0.278l-0.022-0.112l-0.007-0.116v-0.114l0.022-0.126l0.05-0.123l0.067-0.115l0.629-0.9
	l0.291-0.502l0.09-0.271l0.037-0.156l0.035-0.307l-0.014-0.269l-0.119-0.791l-0.006-0.265l0.043-0.214l0.108-0.257l0.286-0.459
	l0.283-0.153c0.446,0.355,0.887,0.715,1.33,1.075c2.803,2.275,5.629,4.523,8.414,6.82l0.18,0.154l0.129-0.318
	c0.646-1.526,1.297-3.052,1.932-4.583l-0.029-0.012L99.657,39.413z"/>
</svg>
