<?xml version="1.0" encoding="utf-8"?>
<!-- Generator: Adobe Illustrator 16.0.4, SVG Export Plug-In . SVG Version: 6.00 Build 0)  -->
<!DOCTYPE svg PUBLIC "-//W3C//DTD SVG 1.1//EN" "http://www.w3.org/Graphics/SVG/1.1/DTD/svg11.dtd">
<svg version="1.1" id="Layer_1" xmlns="http://www.w3.org/2000/svg" xmlns:xlink="http://www.w3.org/1999/xlink" x="0px" y="0px"
	 width="100px" height="100px" viewBox="0 0 100 100" enable-background="new 0 0 100 100" xml:space="preserve">
<path fill="#555555" d="M38.776,3.568l0.28,0.031l0.257,0.107l0.229,0.205L39.47,3.574l0.072-0.247l0.156-0.182l0.169-0.161
	l0.004-0.341L39.624,2.6L39.02,2.816L38.247,3L38.05,3.123l-0.243,0.383l0.124,0.131L38.776,3.568z M36.049,6.364l-0.312,0.475
	l0.014,0.373l0.229,0.127l0.688-0.509l0.859-0.232l0.211-0.37l-0.279-0.044l0.155-0.272l0.38-0.31l0.38-0.146l0.411-0.041
	l0.238-0.137l0.023-0.243L38.8,4.669l-0.32,0.06l-0.883,0.448l-0.183,0.192l-0.183,0.279L36.049,6.364z M96.706,37.234l-0.291-0.024
	l-0.302,0.122l-0.275,0.033l-0.197-0.283l-0.164-0.185l-0.133,0.169l-0.091,0.344l-0.037,0.342l0.063,0.565l-0.051,0.199
	l-0.225,0.22l0.15,0.098l0.195-0.01l0.385-0.088l0.971,0.15l-0.071-0.216l-0.042-0.086l0.152-0.34l0.127-0.385l0.015-0.363
	L96.706,37.234z M88.85,50.299l-0.293-0.312l-0.447-0.747l-0.48-0.409l-0.354,0.217l-0.316,0.27l-0.352-0.241l-0.601,0.646
	l-0.237,0.175l0.086-0.375l-0.39-0.03l-0.434,0.256l-0.394,0.371l-0.266,0.309l-0.559,0.889l-0.502,1.058l0.139,0.329l-0.169,0.357
	l-0.257,0.33l-0.137,0.25l-0.175,0.188l-1.104,0.485l-0.689,0.521l-0.334,0.36l-0.143,0.373l-0.143,0.51l-0.339,0.229l-0.416,0.026
	l-0.371-0.091l-0.271-0.184l-0.312-0.3l-0.169-0.28l0.161-0.127l0.143-0.644l0.06-0.479l0.081-0.191l0.105-0.15l0.146-0.281
	l0.105-0.082l0.045-0.099l-0.092-0.333l-0.005-0.126l0.106-0.517l0.091-0.204l0.164-0.243l0.344-0.309l0.169-0.2l0.078-0.236
	l0.027-0.243l0.076-0.279l0.102-0.26l0.111-0.209l0.852-0.999l0.273-0.594l-0.176-0.625l0.451-0.588l0.713-0.303l1.387-0.314
	l0.334-0.149l0.271-0.196l0.188-0.301l0.063-0.465l-0.014-0.469l0.01-0.243l0.054-0.185l0.414-0.641l0.047-0.138l-0.84-0.347
	l-0.262-0.213l-0.031-0.102l-0.087-0.153l-0.155-0.214l-0.361-0.373l-0.232-0.304l-0.111-0.208l-0.018-0.153l0.068-0.698
	l0.061-0.276l0.301-0.886l0.391-0.888l0.128-0.184l0.233-0.264l0.072-0.137l0.01-0.115l-0.022-0.111l-0.101-0.196l-0.129-0.204
	L84.13,37.91l-0.091-0.069l-0.111-0.016l-0.096,0.03l-1.139,0.613l-0.11,0.027l-0.118,0.011l-0.134-0.013l-0.353-0.11l-0.119-0.003
	l-0.104,0.032l-0.183,0.109l-0.121,0.023l-0.15-0.032l-0.232-0.161l-0.098-0.134l-0.041-0.141l0.021-0.133l0.183-0.472l0.031-0.146
	l0.01-0.18l-0.041-0.271l0.01-0.182l0.043-0.131l0.065-0.083l0.515-0.39l0.072-0.08l0.064-0.094l0.119-0.201l0.086-0.221
	l0.031-0.117l0.01-0.074l-0.006-0.146l-0.127-0.686l-0.143-0.45l0.016-0.199l0.071-0.088l0.106-0.035l0.096-0.047l0.077-0.07
	l0.06-0.132l0.036-0.18l0.006-0.29l-0.032-0.167l-0.05-0.129l-0.265-0.445l-0.112-0.233l-0.009-0.161l0.036-0.121l0.166-0.144
	l0.067-0.074l0.041-0.126l0.004-0.064l-0.025-0.068l-0.092-0.129l-0.215-0.232l-0.191-0.258l-0.156-0.143l-0.371-0.267l-0.076-0.077
	l-0.182-0.274l-0.066-0.082l-0.086-0.066l-0.102-0.063l-0.121-0.035l-0.677-0.06l-0.257-0.076l-0.1-0.061l-0.084-0.069l-0.068-0.075
	l-0.188-0.253l-0.04-0.034l-0.067-0.03l-0.088,0.001l-0.32,0.101l-0.247,0.03l-0.128-0.008l-0.26-0.064l-0.23-0.098l-0.232-0.137
	l-0.119-0.114l-0.151-0.207l-0.041-0.159l0.006-0.148l0.041-0.118l0.06-0.109l0.34-0.458l0.059-0.107l0.055-0.126l0.016-0.199
	l-0.061-0.166l-0.398-0.897l-0.123-0.154l-0.143-0.093l-0.242-0.09l-0.101-0.06l-0.403-0.329l-0.113-0.047l-0.125-0.003l-0.23,0.039
	l-0.13,0.004l-0.132-0.019l-0.258-0.099l-0.274-0.159l-0.123-0.048l-0.128-0.022l-0.541-0.009l-0.265-0.047l-0.093-0.036
	l-0.394-0.322l-0.14-0.083l-0.135-0.025l-0.324,0.095h-0.129l-0.151-0.029l-0.53-0.296l-0.119-0.045l-0.113,0.004l-0.096,0.035
	h-0.134l-0.151-0.042l-0.258-0.2L71.059,23.8l-0.16-0.058l-0.125-0.018l-0.117,0.013l-0.104,0.031l-0.192,0.11l-0.105,0.028
	l-0.122-0.009l-0.114-0.028l-0.113-0.015L69.8,23.882l-0.339,0.268l-0.132,0.016l-0.179-0.044l-0.526-0.279l-0.353-0.113
	l-0.238-0.127l-0.161-0.054l-0.142-0.018l-0.119,0.02l-0.324,0.123l-0.13,0.006l-0.153-0.034l-0.115-0.108l-0.109-0.049
	l-0.104-0.002l-0.229,0.044l-0.119,0.007l-0.199-0.027c-1.462-0.829-2.919-1.667-4.373-2.51c-3.054-0.835-6.104-1.688-9.154-2.535
	c-2.113-0.586-4.228-1.168-6.337-1.764l-0.087-0.101l-0.045-0.115l-0.124-0.452c-0.362-0.864-0.725-1.727-1.085-2.591l-0.192-0.274
	l-0.202-0.237l-0.151-0.107l-0.155-0.051l-0.151-0.016l-0.183-0.063l-0.128-0.098l-0.146-0.152l-0.143-0.057l-0.303-0.06
	l-0.086-0.103L42.927,11.9l-0.111-0.062l-0.105,0.015l-0.27,0.173l-0.12,0.044l-0.128,0.009l-0.174-0.028l-0.105-0.068l-0.063-0.092
	l-0.069-0.23l-0.078-0.426l0.049-0.109l-0.402,0.285l-0.296-0.015l-0.664-0.389l-1.126-0.284l-1.43-0.843L36.68,8.744l-0.315-0.21
	l0.106,0.09l0.306,0.373L36.608,8.98l-0.17,0.026L36.283,9.07l-0.137,0.093v0.14h0.534l-0.288,0.434l-0.407,0.309l-1.853,0.789
	l-0.453,0.098l-0.404-0.217l0.179-0.442L33.72,9.83l0.992-1.218L34.8,8.35l-0.075-0.227l-0.119-0.218l-0.064-0.224l0.032-0.388
	L34.67,6.81l0.183-0.41l0.284-0.173l0.267-0.224l0.387-1.022l0.257-0.312l-0.074-0.224L35.93,4.36l0.363-0.191L36.25,3.987
	l-0.201-0.17l-0.12-0.151l-0.058-0.434L35.71,3.085l-0.466,0.038l-0.082-0.064l-0.032-0.15L35.116,2.75l-0.033-0.091l-0.141-0.082
	l-0.129-0.053l-0.315-0.033L34.387,2.56l-0.062,0.161L34.278,2.89l-0.05,0.095l-0.147,0.066l-0.166,0.044l-0.328,0.028l-0.129-0.022
	l-0.234-0.095L33.12,2.984l-0.151,0.041l-0.096,0.091l-0.064,0.099l-0.063,0.062L32.077,3.6l-0.178,0.142l-0.07,0.139l-0.022,0.157
	l-0.046,0.13L31.632,4.22l-0.306,0.014l-0.137,0.039L31.052,4.36l-0.243,0.509l-0.202,0.166l-0.306-0.199l0.026-0.132L30.323,4.65
	l-0.018-0.041l-0.004-0.095l-0.307,0.33l-0.348,0.141L29.439,4.85l0.115-0.49L29.11,4.466l-0.773,0.701l-1.213,0.792l-0.75,0.728
	l-0.21-0.186l-1.172,0.496L23.76,7.185L20.3,8.498l-2.269,0.364l-0.371-0.02l-0.98-0.518l-0.243-0.082l-0.262-0.154l-0.371-0.356
	l-0.333-0.417L15.365,7.09L15.16,7.196l-0.25,0.189L14.785,7.59l-0.128,0.38l-0.055,0.087l-0.082,0.06l-0.252,0.068l-0.091,0.042
	l-0.078,0.072L14.035,8.39L13.98,8.507l-0.029,0.139l-0.072,0.575l-0.041,0.097L13.805,9.38L13.75,9.448l-0.083,0.057l-0.223,0.062
	l-0.266,0.019l-0.279-0.023l-0.224-0.085l-0.069-0.011L12.57,9.54c0,3.151-0.002,6.301-0.011,9.452
	c-0.004,1.152-0.003,2.304-0.003,3.456l-0.302,0.062l-0.192,0.146l-0.211,0.246l-0.174,0.3l-0.069,0.306l-0.15,0.189L11.11,23.68
	l-0.39-0.087l-0.274-0.017l-0.229,0.2L9.87,24.361l-0.229,0.125H9l-0.146,0.047L8.73,24.637l-0.086,0.105l-0.06,0.047l-0.017,0.066
	l-0.185,0.307L8.31,25.258L8.181,25.33l-0.404,0.066l-0.833,0.533L6.66,26.003l-0.484,0.232l-0.431,0.552l-0.623,1.199l0.069,0.646
	l-0.43,0.659l-1.345,1.316l-0.142,0.269l-0.055,0.37l-0.106,1.673l0.284,0.776l0.678,0.16l0.778-0.019l0.595,0.233l0.179,0.337
	l0.225,0.846l0.118,0.322l0.265,0.356l0.284,0.3l0.221,0.348l0.072,0.419l-0.067,0.397l-0.45,0.754
	c-0.063,0.302-0.125,0.605-0.188,0.908l-0.201,0.253l-0.243,0.205l-0.216,0.268l-0.128,0.36L5.254,40.55l-0.018,0.976L5.14,41.985
	l-0.03,0.26l0.073,0.112l0.265,0.735l0.023,0.493L5.38,44.016l-0.202,0.307l-0.315,0.115l-0.211,0.207l0.101,0.484l0.371,0.979
	l0.143,0.927l0.068,0.937l-0.05,0.139L5.067,48.48l-0.049,0.237l0.095,0.703l0.009,0.264l-0.101,0.589L4.38,51.632l0.417,0.376
	l0.958,0.631l1.088,1.113l0.276,0.188l0.095,0.186l0.074,0.205l0.068,0.136l0.673,0.423l2.412,0.404l0.545,0.21l0.526,0.429
	l0.449,0.579l0.398,0.933l0.132,0.24l0.165,0.184l0.207,0.104l1.807,0.311l0.829,0.314l2.366,2.189l0.587,1.009l1.167,2.31
	l0.306,0.412l0.604,0.281l1.795,1.645l0.192,0.104l0.192,0.057l1.5,0.004l0.088,0.039l0.878,0.735l0.114,0.063l0.132,0.041
	l0.568,0.047l0.188,0.093l0.1,0.104l0.065,0.121l0.037,0.143l0.027,0.162l0.115,0.301l0.356,0.464l0.119,0.281l0.664,0.254
	l0.206,0.132l0.157,0.17l0.1,0.212l0.063,0.242l0.074,0.519l0.013,0.492l-0.036,0.629l0.009,0.185l0.032,0.184l0.06,0.181
	l0.083,0.15l0.215,0.258l0.096,0.163l0.053,0.194l0.046,0.42v0.404l-0.188,1.16l0.005,0.194l0.115,0.567l0.009,0.226l-0.064,0.671
	l0.009,0.282l0.092,0.552l0.022,0.279l-0.027,0.27c-0.03,0.178-0.06,0.354-0.091,0.529l-0.023,0.27l0.014,0.266l0.046,0.248
	l0.078,0.232l0.215,0.433l0.078,0.213l0.05,0.226l0.07,0.586l0.118,0.223l0.179,0.146l1.336,0.555l0.38,0.479l0.027,0.791
	l-0.289,0.654l-0.824,1.145l-0.173,0.738l0.083,1.482l0.118,0.717l0.009,0.777l0.027,0.256l0.074,0.238l0.018,0.971l0.078,0.466
	l0.169,0.356l0.445,0.558l0.15,0.295l0.091,0.378l0.046,0.895l0.06,0.393l0.527,1.049l0.192,0.271l0.352,0.27l0.678,0.312
	l2.649,0.52l0.71,0.273l0.361,0.057l0.366,0.121l0.243,0.314l0.303,0.854l0.128,0.238l0.389,0.6l0.128,0.322l-0.038,0.236
	l-0.195,0.447c3.191-0.005,6.385,0.062,9.576,0.091c3.242,0.028,6.482,0.062,9.722,0.091c3.195,0.03,6.393,0.062,9.587,0.094
	c3.219,0.031,6.435,0.062,9.651,0.092c1.815,0.018,3.631,0.035,5.445,0.053l-0.094-1.609l0.037-0.205l0.057-0.229l0.028-0.229
	l-0.122-0.363L82.02,97.1v-0.289l0.023-0.203l0.139-0.391l0.327-0.674l0.16-1.418l-0.019-0.384l-0.185-0.464l-0.646-0.863
	l-0.15-0.298l-0.061-0.218l-0.045-1.715l-0.129-0.49l-0.252-0.463l-0.425-0.121l-0.114-0.279l0.073-0.374l0.319-0.752l0.038-0.169
	l0.013-0.26l-0.068-0.119l-0.297-0.26l-0.068-0.205l0.063-0.479l0.113-0.332l0.05-0.339l-0.122-0.512l-0.137-0.375l-0.065-0.243
	l-0.018-0.757l0.443-1.608l0.104-0.651l0.99-1.968l0.228-0.852l-0.16-0.685l0.078-0.509l0.168-0.416l0.957-1.729l0.395-1
	l-0.113-0.147l0.087-0.224L83.7,73.803l-0.068-0.16l0.132-0.221l0.053-0.197l-0.016-0.214l-0.056-0.245L83.4,72.146l-0.03-0.1
	l-0.113-0.24l-0.015-0.553l0.133-1.641l0.057-0.215l0.271-0.469l0.042-0.197l0.046-0.534l0.116-0.444l0.813-1.896l0.236-0.365
	l0.229-0.196l0.889-0.472l0.299-0.295l0.273-0.37l0.197-0.425l0.077-0.461l-0.097-0.346l-0.637-0.9l-0.114-0.75l0.038-0.248
	l0.141-0.424l0.084-0.334l0.219-0.459l0.051-0.225l0.031-0.496l0.446-2.435l0.295-0.946l0.399-0.803l0.746-0.955l0.148-0.43
	l0.221-0.363l0.053-0.113l0.017-0.245l0.056-0.259l0.485-1.43l0.017-0.479l-0.31-0.207L88.85,50.299z M33.357,2.469l0.221-0.292
	l0.123-0.304l-0.224-0.31l-0.178,0.224l-0.445,0.349l-0.013,0.215l0.25,0.232L33.357,2.469z M36.777,3.742l0.307-0.17l0.15-0.157
	L37.212,3.19l-0.218-0.374l-0.107-0.083l-0.279-0.139l-0.146-0.101l-0.065,0.186l-0.063,0.156L36.25,2.979l-0.104,0.145l0.476,0.402
	L36.777,3.742z M94.734,40.604v-0.18l0.06-0.188l0.078-0.291l-0.11-0.071l-0.392,0.074l-0.474-0.006l-0.185-0.09l-0.21-0.217
	l-0.109,0.149l-0.06,0.153l-0.026,0.172l-0.006,0.207l-0.058,0.121l-0.136,0.043l-0.141,0.021l-0.093,0.047l-0.265,0.974
	l-0.043,0.306l-0.117,0.205l-0.522,0.202l-0.118,0.2L91.7,42.667l-0.248-0.018l-0.283-0.109l-0.207-0.031l-0.211,0.204l-0.165,0.349
	l-0.113,0.422l-0.068,0.719l-0.077,0.213l-0.21,0.336l-0.01,0.088l0.021,0.268l-0.013,0.08l-0.069,0.019l-0.178-0.039l-0.068,0.021
	l-0.91,1.154l-0.382,0.779l-0.202,0.926l0.111,0.862l0.389,0.825l0.567,0.535l0.638-0.004l0.247-0.214l0.759-1.041l0.109-0.213
	l0.077-0.421l0.073-0.18l0.146-0.142l0.338-0.164l0.151-0.155l-0.366-0.397l0.202-0.688l0.703-1.151l0.144-0.463l0.104-0.202
	l0.174-0.082l0.108,0.042l0.144,0.077l0.123,0.038l0.051-0.076l-0.017-0.409l0.025-0.086l0.097-0.199l0.087-0.07l0.119-0.006
	l0.119-0.044l0.109-0.18l-0.599-0.612l-0.152-0.284l0.21-0.092l0.201,0.032l0.436,0.209l-0.045-0.208l-0.138-0.312l-0.032-0.213
	l0.027-0.224l0.188-0.691l-0.062-0.135l-0.124-0.13l-0.028-0.106l0.217-0.076l0.153,0.047l0.597,0.4l0.201-0.447l-0.102-0.208
	L94.734,40.604z M41.734,1.085l-0.068-0.761L41.71,0.24l0.038-0.06l0.027-0.068V0l-0.484,0.003l-0.325,0.404l-0.185,0.654
	l-0.058,0.74l0.662-0.303L41.734,1.085z"/>
</svg>
