<?xml version="1.0" encoding="utf-8"?>
<!-- Generator: Adobe Illustrator 16.0.4, SVG Export Plug-In . SVG Version: 6.00 Build 0)  -->
<!DOCTYPE svg PUBLIC "-//W3C//DTD SVG 1.1//EN" "http://www.w3.org/Graphics/SVG/1.1/DTD/svg11.dtd">
<svg version="1.1" id="Layer_1" xmlns="http://www.w3.org/2000/svg" xmlns:xlink="http://www.w3.org/1999/xlink" x="0px" y="0px"
	 width="100px" height="100px" viewBox="0 0 100 100" enable-background="new 0 0 100 100" xml:space="preserve">
<path fill="#555555" d="M99.969,77.35c-0.01-2.929-0.011-5.856-0.021-8.787c-0.011-2.93-0.013-5.858-0.023-8.789
	c-0.012-3.047-0.018-6.097-0.022-9.145l-0.012-3.373c-0.012-2.97-0.017-5.94-0.027-8.91c-0.01-3.125-0.023-6.25-0.028-9.374
	c-0.004-2.884-0.021-5.769-0.026-8.653c-0.006-3.035-0.019-6.07-0.026-9.105H53.229c-3.036,0-6.071,0.003-9.107,0.003H0.007
	c0,1.989-0.004,3.978-0.004,5.967C0.003,20.161,0,23.139,0,26.117s0.002,5.956,0.004,8.934c0.001,2.966,0,5.931,0.003,8.897
	c0.002,2.997,0,5.994,0.002,8.991c0.003,2.986,0.001,5.975,0.002,8.961c0.001,3.053,0,6.104,0.002,9.154
	c0.002,2.911,0.003,5.821,0.003,8.732c0,2.998,0.001,5.996,0.001,8.994h0.001v0.005H100c-0.001-0.779-0.002-1.56-0.004-2.341
	C99.991,83.414,99.979,80.382,99.969,77.35z"/>
</svg>
